<?xml version="1.0" encoding="UTF-8" standalone="no"?>
<?xml-stylesheet href="spot.css" type="text/css"?>
<!DOCTYPE svg PUBLIC "-//W3C//DTD SVG 1.1//EN"
 "http://www.w3.org/Graphics/SVG/1.1/DTD/svg11.dtd">
<!-- Generated by graphviz version 2.38.0 (20140413.2041)
 -->
<!-- Title: G Pages: 1 -->
<svg width="298pt" height="277pt"
 viewBox="0.00 0.00 298.00 276.63" xmlns="http://www.w3.org/2000/svg" xmlns:xlink="http://www.w3.org/1999/xlink">
<g id="graph0" class="graph" transform="scale(1 1) rotate(0) translate(4 272.626)">
<title>G</title>
<polygon fill="white" stroke="none" points="-4,4 -4,-272.626 294,-272.626 294,4 -4,4"/>
<!-- I -->
<!-- 0 -->
<g id="node2" class="node"><title>0</title>
<ellipse fill="#ffffa0" stroke="black" cx="56" cy="-111.626" rx="18" ry="18"/>
<text text-anchor="middle" x="56" y="-108.526" font-family="Lato" font-size="12.00">0</text>
</g>
<!-- I&#45;&gt;0 -->
<g id="edge1" class="edge"><title>I&#45;&gt;0</title>
<path fill="none" stroke="black" d="M1.15491,-111.626C2.79388,-111.626 17.1543,-111.626 30.6317,-111.626"/>
<polygon fill="black" stroke="black" points="37.9419,-111.626 30.9419,-114.776 34.4419,-111.626 30.9419,-111.626 30.9419,-111.626 30.9419,-111.626 34.4419,-111.626 30.9418,-108.476 37.9419,-111.626 37.9419,-111.626"/>
</g>
<!-- 1 -->
<g id="node3" class="node"><title>1</title>
<ellipse fill="#ffffa0" stroke="black" cx="154" cy="-186.626" rx="18" ry="18"/>
<ellipse fill="none" stroke="black" cx="154" cy="-186.626" rx="22" ry="22"/>
<text text-anchor="middle" x="154" y="-183.526" font-family="Lato" font-size="12.00">1</text>
</g>
<!-- 0&#45;&gt;1 -->
<g id="edge2" class="edge"><title>0&#45;&gt;1</title>
<path fill="none" stroke="black" d="M68.639,-125.02C75.1502,-132.134 83.6236,-140.794 92,-147.626 103.26,-156.809 116.788,-165.651 128.241,-172.587"/>
<polygon fill="black" stroke="black" points="134.362,-176.234 126.736,-175.357 131.356,-174.443 128.349,-172.651 128.349,-172.651 128.349,-172.651 131.356,-174.443 129.961,-169.945 134.362,-176.234 134.362,-176.234"/>
<text text-anchor="middle" x="103" y="-166.026" font-family="Lato" font-size="12.00">1</text>
</g>
<!-- 2 -->
<g id="node4" class="node"><title>2</title>
<ellipse fill="#ffffa0" stroke="black" cx="154" cy="-48.6258" rx="18" ry="18"/>
<text text-anchor="middle" x="154" y="-45.5258" font-family="Lato" font-size="12.00">2</text>
</g>
<!-- 0&#45;&gt;2 -->
<g id="edge3" class="edge"><title>0&#45;&gt;2</title>
<path fill="none" stroke="black" d="M71.5803,-102.057C87.8857,-91.357 114.405,-73.9537 132.725,-61.9312"/>
<polygon fill="black" stroke="black" points="138.597,-58.0777 134.473,-64.5519 135.671,-59.9981 132.745,-61.9184 132.745,-61.9184 132.745,-61.9184 135.671,-59.9981 131.016,-59.2848 138.597,-58.0777 138.597,-58.0777"/>
<text text-anchor="start" x="92" y="-90.0258" font-family="Lato" font-size="12.00">a | b</text>
</g>
<!-- 3 -->
<g id="node5" class="node"><title>3</title>
<ellipse fill="#ffffa0" stroke="black" cx="268" cy="-32.6258" rx="18" ry="18"/>
<text text-anchor="middle" x="268" y="-29.5258" font-family="Lato" font-size="12.00">3</text>
</g>
<!-- 0&#45;&gt;3 -->
<g id="edge4" class="edge"><title>0&#45;&gt;3</title>
<path fill="none" stroke="black" d="M63.3519,-94.9596C73.5998,-70.7542 96.3166,-26.7837 132,-8.62576 168.77,10.0851 217.628,-7.53855 245.354,-20.8755"/>
<polygon fill="black" stroke="black" points="251.928,-24.1491 244.257,-23.8482 248.795,-22.5888 245.662,-21.0285 245.662,-21.0285 245.662,-21.0285 248.795,-22.5888 247.066,-18.2088 251.928,-24.1491 251.928,-24.1491"/>
<text text-anchor="start" x="137" y="-12.0258" font-family="Lato" font-size="12.00">!a &amp; !b</text>
</g>
<!-- 4 -->
<g id="node6" class="node"><title>4</title>
<ellipse fill="#ffffa0" stroke="black" cx="268" cy="-127.626" rx="18" ry="18"/>
<ellipse fill="none" stroke="black" cx="268" cy="-127.626" rx="22" ry="22"/>
<text text-anchor="middle" x="268" y="-124.526" font-family="Lato" font-size="12.00">4</text>
</g>
<!-- 0&#45;&gt;4 -->
<g id="edge5" class="edge"><title>0&#45;&gt;4</title>
<path fill="none" stroke="black" d="M74.1852,-112.935C110.374,-115.692 194.725,-122.119 238.894,-125.484"/>
<polygon fill="black" stroke="black" points="245.882,-126.017 238.663,-128.626 242.392,-125.751 238.902,-125.485 238.902,-125.485 238.902,-125.485 242.392,-125.751 239.141,-122.344 245.882,-126.017 245.882,-126.017"/>
<text text-anchor="start" x="137" y="-124.026" font-family="Lato" font-size="12.00">!a &amp; !b</text>
</g>
<!-- 1&#45;&gt;1 -->
<g id="edge6" class="edge"><title>1&#45;&gt;1</title>
<path fill="none" stroke="black" d="M144.955,-206.795C143.563,-217.225 146.578,-226.626 154,-226.626 159.682,-226.626 162.782,-221.115 163.298,-213.851"/>
<polygon fill="black" stroke="black" points="163.045,-206.795 166.444,-213.678 163.171,-210.293 163.296,-213.791 163.296,-213.791 163.296,-213.791 163.171,-210.293 160.148,-213.904 163.045,-206.795 163.045,-206.795"/>
<text text-anchor="start" x="150.5" y="-230.026" font-family="Lato" font-size="12.00">b</text>
</g>
<!-- 5 -->
<g id="node7" class="node"><title>5</title>
<ellipse fill="#ffffa0" stroke="black" cx="268" cy="-219.626" rx="18" ry="18"/>
<text text-anchor="middle" x="268" y="-216.526" font-family="Lato" font-size="12.00">5</text>
</g>
<!-- 1&#45;&gt;5 -->
<g id="edge7" class="edge"><title>1&#45;&gt;5</title>
<path fill="none" stroke="black" d="M175.22,-192.925C181.255,-194.784 187.889,-196.807 194,-198.626 210.468,-203.528 229.082,-208.879 243.392,-212.953"/>
<polygon fill="black" stroke="black" points="250.449,-214.958 242.855,-216.075 247.082,-214.002 243.715,-213.045 243.715,-213.045 243.715,-213.045 247.082,-214.002 244.576,-210.015 250.449,-214.958 250.449,-214.958"/>
<text text-anchor="start" x="206" y="-211.026" font-family="Lato" font-size="12.00">!b</text>
</g>
<!-- 2&#45;&gt;2 -->
<g id="edge8" class="edge"><title>2&#45;&gt;2</title>
<path fill="none" stroke="black" d="M145.367,-64.5418C143.114,-74.7762 145.992,-84.6258 154,-84.6258 160.131,-84.6258 163.255,-78.8521 163.372,-71.5526"/>
<polygon fill="black" stroke="black" points="162.633,-64.5418 166.499,-71.1734 163,-68.0226 163.367,-71.5033 163.367,-71.5033 163.367,-71.5033 163,-68.0226 160.234,-71.8332 162.633,-64.5418 162.633,-64.5418"/>
<text text-anchor="start" x="143" y="-88.0258" font-family="Lato" font-size="12.00">a | b</text>
</g>
<!-- 2&#45;&gt;3 -->
<g id="edge9" class="edge"><title>2&#45;&gt;3</title>
<path fill="none" stroke="black" d="M171.978,-49.6684C186.877,-50.2267 209.061,-50.1899 228,-46.6258 233.347,-45.6196 238.938,-43.9861 244.162,-42.1838"/>
<polygon fill="black" stroke="black" points="251.002,-39.6645 245.522,-45.0398 247.718,-40.8742 244.434,-42.084 244.434,-42.084 244.434,-42.084 247.718,-40.8742 243.345,-39.1281 251.002,-39.6645 251.002,-39.6645"/>
<text text-anchor="start" x="194" y="-54.0258" font-family="Lato" font-size="12.00">!a &amp; !b</text>
</g>
<!-- 2&#45;&gt;4 -->
<g id="edge10" class="edge"><title>2&#45;&gt;4</title>
<path fill="none" stroke="black" d="M169.185,-58.6312C187.989,-71.8946 221.406,-95.466 243.882,-111.319"/>
<polygon fill="black" stroke="black" points="249.627,-115.371 242.091,-113.911 246.767,-113.354 243.907,-111.337 243.907,-111.337 243.907,-111.337 246.767,-113.354 245.722,-108.762 249.627,-115.371 249.627,-115.371"/>
<text text-anchor="start" x="194" y="-103.026" font-family="Lato" font-size="12.00">!a &amp; !b</text>
</g>
<!-- 3&#45;&gt;2 -->
<g id="edge11" class="edge"><title>3&#45;&gt;2</title>
<path fill="none" stroke="black" d="M250.241,-29.4416C235.292,-27.1878 212.911,-25.2644 194,-29.6258 187.881,-31.037 181.611,-33.5443 175.938,-36.2841"/>
<polygon fill="black" stroke="black" points="169.596,-39.5554 174.373,-33.5467 172.707,-37.9508 175.817,-36.3462 175.817,-36.3462 175.817,-36.3462 172.707,-37.9508 177.261,-39.1457 169.596,-39.5554 169.596,-39.5554"/>
<text text-anchor="start" x="200" y="-33.0258" font-family="Lato" font-size="12.00">a | b</text>
</g>
<!-- 3&#45;&gt;3 -->
<g id="edge12" class="edge"><title>3&#45;&gt;3</title>
<path fill="none" stroke="black" d="M258.425,-48.1672C255.73,-58.5345 258.922,-68.6258 268,-68.6258 274.95,-68.6258 278.45,-62.7104 278.499,-55.2848"/>
<polygon fill="black" stroke="black" points="277.575,-48.1672 281.6,-54.7029 278.026,-51.638 278.477,-55.1089 278.477,-55.1089 278.477,-55.1089 278.026,-51.638 275.353,-55.5148 277.575,-48.1672 277.575,-48.1672"/>
<text text-anchor="start" x="251" y="-72.0258" font-family="Lato" font-size="12.00">!a &amp; !b</text>
</g>
<!-- 4&#45;&gt;4 -->
<g id="edge13" class="edge"><title>4&#45;&gt;4</title>
<path fill="none" stroke="black" d="M257.933,-147.383C256.223,-157.976 259.578,-167.626 268,-167.626 274.448,-167.626 277.926,-161.969 278.435,-154.564"/>
<polygon fill="black" stroke="black" points="278.067,-147.383 281.571,-154.213 278.246,-150.879 278.425,-154.374 278.425,-154.374 278.425,-154.374 278.246,-150.879 275.279,-154.535 278.067,-147.383 278.067,-147.383"/>
<text text-anchor="start" x="251" y="-171.026" font-family="Lato" font-size="12.00">!a &amp; !b</text>
</g>
<!-- 5&#45;&gt;1 -->
<g id="edge14" class="edge"><title>5&#45;&gt;1</title>
<path fill="none" stroke="black" d="M256.865,-205.212C249.87,-196.585 239.735,-186.397 228,-181.626 213.67,-175.799 196.455,-176.647 182.343,-179.138"/>
<polygon fill="black" stroke="black" points="175.277,-180.564 181.516,-176.091 178.708,-179.871 182.139,-179.179 182.139,-179.179 182.139,-179.179 178.708,-179.871 182.762,-182.267 175.277,-180.564 175.277,-180.564"/>
<text text-anchor="start" x="207.5" y="-185.026" font-family="Lato" font-size="12.00">b</text>
</g>
<!-- 5&#45;&gt;5 -->
<g id="edge15" class="edge"><title>5&#45;&gt;5</title>
<path fill="none" stroke="black" d="M258.425,-235.167C255.73,-245.534 258.922,-255.626 268,-255.626 274.95,-255.626 278.45,-249.71 278.499,-242.285"/>
<polygon fill="black" stroke="black" points="277.575,-235.167 281.6,-241.703 278.026,-238.638 278.477,-242.109 278.477,-242.109 278.477,-242.109 278.026,-238.638 275.353,-242.515 277.575,-235.167 277.575,-235.167"/>
<text text-anchor="start" x="263" y="-259.026" font-family="Lato" font-size="12.00">!b</text>
</g>
</g>
</svg>
