<?xml version="1.0" encoding="UTF-8" standalone="no"?>
<?xml-stylesheet href="spot.css" type="text/css"?>
<!DOCTYPE svg PUBLIC "-//W3C//DTD SVG 1.1//EN"
 "http://www.w3.org/Graphics/SVG/1.1/DTD/svg11.dtd">
<!-- Generated by graphviz version 2.38.0 (20140413.2041)
 -->
<!-- Title: G Pages: 1 -->
<svg width="254pt" height="176pt"
 viewBox="0.00 0.00 254.00 176.00" xmlns="http://www.w3.org/2000/svg" xmlns:xlink="http://www.w3.org/1999/xlink">
<g id="graph0" class="graph" transform="scale(1 1) rotate(0) translate(4 172)">
<title>G</title>
<polygon fill="white" stroke="none" points="-4,4 -4,-172 250,-172 250,4 -4,4"/>
<!-- I -->
<!-- 0 -->
<g id="node2" class="node"><title>0</title>
<ellipse fill="#ffffa0" stroke="black" cx="56" cy="-75" rx="18" ry="18"/>
<text text-anchor="middle" x="56" y="-71.9" font-family="Lato" font-size="12.00">0</text>
</g>
<!-- I&#45;&gt;0 -->
<g id="edge1" class="edge"><title>I&#45;&gt;0</title>
<path fill="none" stroke="black" d="M1.15491,-75C2.79388,-75 17.1543,-75 30.6317,-75"/>
<polygon fill="black" stroke="black" points="37.9419,-75 30.9419,-78.1501 34.4419,-75 30.9419,-75.0001 30.9419,-75.0001 30.9419,-75.0001 34.4419,-75 30.9418,-71.8501 37.9419,-75 37.9419,-75"/>
</g>
<!-- 0&#45;&gt;0 -->
<g id="edge2" class="edge"><title>0&#45;&gt;0</title>
<path fill="none" stroke="black" d="M49.6208,-92.0373C48.3189,-101.858 50.4453,-111 56,-111 60.166,-111 62.4036,-105.858 62.7128,-99.1433"/>
<polygon fill="black" stroke="black" points="62.3792,-92.0373 65.8541,-98.8818 62.5434,-95.5335 62.7076,-99.0296 62.7076,-99.0296 62.7076,-99.0296 62.5434,-95.5335 59.561,-99.1774 62.3792,-92.0373 62.3792,-92.0373"/>
<text text-anchor="start" x="52.5" y="-114.4" font-family="Lato" font-size="12.00">1</text>
</g>
<!-- 1 -->
<g id="node3" class="node"><title>1</title>
<ellipse fill="#ffffa0" stroke="black" cx="142" cy="-115" rx="18" ry="18"/>
<ellipse fill="none" stroke="black" cx="142" cy="-115" rx="22" ry="22"/>
<text text-anchor="start" x="138.5" y="-111.9" font-family="Lato" font-size="12.00">1</text>
</g>
<!-- 0&#45;&gt;1 -->
<g id="edge3" class="edge"><title>0&#45;&gt;1</title>
<path fill="none" stroke="black" d="M72.7998,-82.5237C84.7255,-88.2026 101.344,-96.1161 115.19,-102.71"/>
<polygon fill="black" stroke="black" points="121.732,-105.825 114.058,-105.659 118.572,-104.32 115.412,-102.815 115.412,-102.815 115.412,-102.815 118.572,-104.32 116.766,-99.9712 121.732,-105.825 121.732,-105.825"/>
<text text-anchor="start" x="93.5" y="-99.4" font-family="Lato" font-size="12.00">b</text>
</g>
<!-- 2 -->
<g id="node4" class="node"><title>2</title>
<ellipse fill="#ffffa0" stroke="black" cx="142" cy="-22" rx="18" ry="18"/>
<ellipse fill="none" stroke="black" cx="142" cy="-22" rx="22" ry="22"/>
<text text-anchor="middle" x="142" y="-18.9" font-family="Lato" font-size="12.00">2</text>
</g>
<!-- 0&#45;&gt;2 -->
<g id="edge4" class="edge"><title>0&#45;&gt;2</title>
<path fill="none" stroke="black" d="M71.6317,-65.7681C84.135,-57.8791 102.37,-46.3737 117.006,-37.1389"/>
<polygon fill="black" stroke="black" points="123.031,-33.3373 118.792,-39.7367 120.071,-35.205 117.111,-37.0727 117.111,-37.0727 117.111,-37.0727 120.071,-35.205 115.43,-34.4086 123.031,-33.3373 123.031,-33.3373"/>
<text text-anchor="start" x="92" y="-55.4" font-family="Lato" font-size="12.00">!a</text>
</g>
<!-- 1&#45;&gt;1 -->
<g id="edge5" class="edge"><title>1&#45;&gt;1</title>
<path fill="none" stroke="black" d="M133.994,-135.581C132.886,-145.845 135.555,-155 142,-155 146.834,-155 149.544,-149.85 150.129,-142.945"/>
<polygon fill="black" stroke="black" points="150.006,-135.581 153.273,-142.527 150.065,-139.08 150.123,-142.58 150.123,-142.58 150.123,-142.58 150.065,-139.08 146.973,-142.632 150.006,-135.581 150.006,-135.581"/>
<text text-anchor="start" x="138.5" y="-158.4" font-family="Lato" font-size="12.00">b</text>
</g>
<!-- 3 -->
<g id="node5" class="node"><title>3</title>
<ellipse fill="#ffffa0" stroke="black" cx="228" cy="-115" rx="18" ry="18"/>
<text text-anchor="middle" x="228" y="-111.9" font-family="Lato" font-size="12.00">3</text>
</g>
<!-- 1&#45;&gt;3 -->
<g id="edge6" class="edge"><title>1&#45;&gt;3</title>
<path fill="none" stroke="black" d="M164.197,-115C175.869,-115 190.409,-115 202.558,-115"/>
<polygon fill="black" stroke="black" points="209.767,-115 202.767,-118.15 206.267,-115 202.767,-115 202.767,-115 202.767,-115 206.267,-115 202.767,-111.85 209.767,-115 209.767,-115"/>
<text text-anchor="start" x="182" y="-118.4" font-family="Lato" font-size="12.00">!b</text>
</g>
<!-- 2&#45;&gt;2 -->
<g id="edge7" class="edge"><title>2&#45;&gt;2</title>
<path fill="none" stroke="black" d="M133.994,-42.5808C132.886,-52.8447 135.555,-62 142,-62 146.834,-62 149.544,-56.8502 150.129,-49.9451"/>
<polygon fill="black" stroke="black" points="150.006,-42.5808 153.273,-49.5273 150.065,-46.0803 150.123,-49.5798 150.123,-49.5798 150.123,-49.5798 150.065,-46.0803 146.973,-49.6324 150.006,-42.5808 150.006,-42.5808"/>
<text text-anchor="start" x="137" y="-65.4" font-family="Lato" font-size="12.00">!a</text>
</g>
<!-- 3&#45;&gt;1 -->
<g id="edge8" class="edge"><title>3&#45;&gt;1</title>
<path fill="none" stroke="black" d="M212.22,-105.983C206.178,-102.796 198.978,-99.6051 192,-98 183.938,-96.1456 175.351,-97.8118 167.655,-100.711"/>
<polygon fill="black" stroke="black" points="160.878,-103.653 166.044,-97.9758 164.088,-102.259 167.299,-100.865 167.299,-100.865 167.299,-100.865 164.088,-102.259 168.554,-103.755 160.878,-103.653 160.878,-103.653"/>
<text text-anchor="start" x="183.5" y="-101.4" font-family="Lato" font-size="12.00">b</text>
</g>
<!-- 3&#45;&gt;3 -->
<g id="edge9" class="edge"><title>3&#45;&gt;3</title>
<path fill="none" stroke="black" d="M220.969,-131.664C219.406,-141.625 221.75,-151 228,-151 232.688,-151 235.178,-145.727 235.471,-138.888"/>
<polygon fill="black" stroke="black" points="235.031,-131.664 238.601,-138.46 235.244,-135.158 235.456,-138.651 235.456,-138.651 235.456,-138.651 235.244,-135.158 232.312,-138.842 235.031,-131.664 235.031,-131.664"/>
<text text-anchor="start" x="223" y="-154.4" font-family="Lato" font-size="12.00">!b</text>
</g>
</g>
</svg>
