<?xml version="1.0" encoding="UTF-8" standalone="no"?>
<?xml-stylesheet href="spot.css" type="text/css"?>
<!DOCTYPE svg PUBLIC "-//W3C//DTD SVG 1.1//EN"
 "http://www.w3.org/Graphics/SVG/1.1/DTD/svg11.dtd">
<!-- Generated by graphviz version 2.38.0 (20140413.2041)
 -->
<!-- Title: G Pages: 1 -->
<svg width="546pt" height="196pt"
 viewBox="0.00 0.00 546.47 196.30" xmlns="http://www.w3.org/2000/svg" xmlns:xlink="http://www.w3.org/1999/xlink">
<g id="graph0" class="graph" transform="scale(1 1) rotate(0) translate(4 192.298)">
<title>G</title>
<polygon fill="white" stroke="none" points="-4,4 -4,-192.298 542.468,-192.298 542.468,4 -4,4"/>
<!-- &#45;1 -->
<!-- 1 -->
<g id="node2" class="node"><title>1</title>
<polygon fill="#ffffa0" stroke="black" points="172,-108.298 118,-108.298 118,-72.2984 172,-72.2984 172,-108.298"/>
<text text-anchor="middle" x="145" y="-93.6984" font-family="Lato" font-size="12.00">2</text>
<text text-anchor="middle" x="145" y="-80.6984" font-family="Lato" font-size="12.00">a &amp; b</text>
</g>
<!-- &#45;1&#45;&gt;1 -->
<g id="edge1" class="edge"><title>&#45;1&#45;&gt;1</title>
<path fill="none" stroke="black" d="M54.0327,-90.2984C70.632,-90.2984 92.3116,-90.2984 110.23,-90.2984"/>
<polygon fill="black" stroke="black" points="117.653,-90.2984 110.653,-93.4485 114.153,-90.2984 110.653,-90.2985 110.653,-90.2985 110.653,-90.2985 114.153,-90.2984 110.653,-87.1485 117.653,-90.2984 117.653,-90.2984"/>
<text text-anchor="middle" x="86" y="-93.6984" font-family="Lato" font-size="12.00">a &amp; b</text>
</g>
<!-- 2 -->
<g id="node4" class="node"><title>2</title>
<ellipse fill="#ffffa0" stroke="black" cx="272.234" cy="-44.2984" rx="33.4697" ry="24.0833"/>
<text text-anchor="middle" x="272.234" y="-47.6984" font-family="Lato" font-size="12.00">1</text>
<text text-anchor="middle" x="272.234" y="-34.6984" font-family="Lato" font-size="12.00">a &amp; !b</text>
</g>
<!-- 1&#45;&gt;2 -->
<g id="edge5" class="edge"><title>1&#45;&gt;2</title>
<path fill="none" stroke="black" d="M172.253,-80.6553C190.683,-73.8858 215.544,-64.754 235.74,-57.3359"/>
<polygon fill="black" stroke="black" points="242.393,-54.8918 236.909,-60.2623 239.108,-56.0986 235.823,-57.3054 235.823,-57.3054 235.823,-57.3054 239.108,-56.0986 234.737,-54.3486 242.393,-54.8918 242.393,-54.8918"/>
<text text-anchor="middle" x="205.5" y="-77.6984" font-family="Lato" font-size="12.00">{b}</text>
</g>
<!-- 3 -->
<g id="node6" class="node"><title>3</title>
<polygon fill="#ffffa0" stroke="black" points="426.468,-98.2984 372.468,-98.2984 372.468,-62.2984 426.468,-62.2984 426.468,-98.2984"/>
<text text-anchor="middle" x="399.468" y="-83.6984" font-family="Lato" font-size="12.00">0</text>
<text text-anchor="middle" x="399.468" y="-70.6984" font-family="Lato" font-size="12.00">!a &amp; b</text>
</g>
<!-- 1&#45;&gt;3 -->
<g id="edge4" class="edge"><title>1&#45;&gt;3</title>
<path fill="none" stroke="black" d="M172.043,-90.5303C211.544,-90.6886 288.946,-90.2414 354.468,-85.2984 358.018,-85.0305 361.724,-84.6959 365.413,-84.3276"/>
<polygon fill="black" stroke="black" points="372.441,-83.5861 365.81,-87.4533 368.96,-83.9534 365.479,-84.3207 365.479,-84.3207 365.479,-84.3207 368.96,-83.9534 365.149,-81.188 372.441,-83.5861 372.441,-83.5861"/>
<text text-anchor="middle" x="272.234" y="-93.6984" font-family="Lato" font-size="12.00">{a}</text>
</g>
<!-- 4 -->
<g id="node7" class="node"><title>4</title>
<polygon fill="#ffffa0" stroke="black" points="534.468,-140.298 480.468,-140.298 480.468,-104.298 534.468,-104.298 534.468,-140.298"/>
<polygon fill="none" stroke="black" points="538.468,-144.298 476.468,-144.298 476.468,-100.298 538.468,-100.298 538.468,-144.298"/>
<text text-anchor="middle" x="507.468" y="-119.198" font-family="Lato" font-size="12.00">3</text>
</g>
<!-- 1&#45;&gt;4 -->
<g id="edge6" class="edge"><title>1&#45;&gt;4</title>
<path fill="none" stroke="black" d="M172.21,-100.52C177.991,-102.41 184.139,-104.149 190,-105.298 301.174,-127.108 331.292,-115.138 444.468,-120.298 452.375,-120.659 460.853,-120.977 468.922,-121.248"/>
<polygon fill="black" stroke="black" points="476.188,-121.483 469.09,-124.405 472.69,-121.37 469.192,-121.257 469.192,-121.257 469.192,-121.257 472.69,-121.37 469.294,-118.108 476.188,-121.483 476.188,-121.483"/>
<text text-anchor="middle" x="338.968" y="-122.698" font-family="Lato" font-size="12.00">{a}</text>
</g>
<!-- &#45;2 -->
<!-- &#45;2&#45;&gt;2 -->
<g id="edge2" class="edge"><title>&#45;2&#45;&gt;2</title>
<path fill="none" stroke="black" d="M148.428,-3.79055C158.006,-1.89753 193.961,4.16761 221,-5.29836 230.135,-8.4962 238.903,-14.0766 246.486,-20.033"/>
<polygon fill="black" stroke="black" points="252.039,-24.6279 244.638,-22.5925 249.342,-22.3967 246.646,-20.1655 246.646,-20.1655 246.646,-20.1655 249.342,-22.3967 248.654,-17.7385 252.039,-24.6279 252.039,-24.6279"/>
<text text-anchor="middle" x="205.5" y="-8.69836" font-family="Lato" font-size="12.00">a &amp; !b</text>
</g>
<!-- 2&#45;&gt;1 -->
<g id="edge7" class="edge"><title>2&#45;&gt;1</title>
<path fill="none" stroke="black" d="M239.597,-39.7204C224.068,-38.7863 205.43,-39.6835 190,-46.2984 179.835,-50.6561 170.764,-58.5651 163.537,-66.4881"/>
<polygon fill="black" stroke="black" points="158.837,-71.932 161.027,-64.5748 161.124,-69.2826 163.411,-66.6332 163.411,-66.6332 163.411,-66.6332 161.124,-69.2826 165.796,-68.6916 158.837,-71.932 158.837,-71.932"/>
<text text-anchor="middle" x="205.5" y="-49.6984" font-family="Lato" font-size="12.00">{b}</text>
</g>
<!-- 2&#45;&gt;3 -->
<g id="edge8" class="edge"><title>2&#45;&gt;3</title>
<path fill="none" stroke="black" d="M303.55,-53.013C322.246,-58.3876 346.234,-65.2832 365.417,-70.7975"/>
<polygon fill="black" stroke="black" points="372.248,-72.7612 364.65,-73.8546 368.884,-71.7942 365.521,-70.8272 365.521,-70.8272 365.521,-70.8272 368.884,-71.7942 366.391,-67.7998 372.248,-72.7612 372.248,-72.7612"/>
<text text-anchor="middle" x="338.968" y="-71.6984" font-family="Lato" font-size="12.00">{a, b}</text>
</g>
<!-- &#45;3 -->
<!-- &#45;3&#45;&gt;3 -->
<g id="edge3" class="edge"><title>&#45;3&#45;&gt;3</title>
<path fill="none" stroke="black" d="M275.659,-1.81953C281.139,-3.04619 294.828,-6.38714 305.468,-11.2984 330.56,-22.8804 355.519,-41.9186 373.254,-57.0663"/>
<polygon fill="black" stroke="black" points="378.981,-62.0378 371.63,-59.8279 376.338,-59.7435 373.695,-57.4491 373.695,-57.4491 373.695,-57.4491 376.338,-59.7435 375.76,-55.0703 378.981,-62.0378 378.981,-62.0378"/>
<text text-anchor="middle" x="338.968" y="-44.6984" font-family="Lato" font-size="12.00">!a &amp; b</text>
</g>
<!-- 3&#45;&gt;4 -->
<g id="edge9" class="edge"><title>3&#45;&gt;4</title>
<path fill="none" stroke="black" d="M426.67,-90.6804C439.631,-95.8158 455.493,-102.101 469.652,-107.711"/>
<polygon fill="black" stroke="black" points="476.445,-110.402 468.777,-110.752 473.191,-109.113 469.937,-107.824 469.937,-107.824 469.937,-107.824 473.191,-109.113 471.097,-104.895 476.445,-110.402 476.445,-110.402"/>
<text text-anchor="middle" x="451.468" y="-106.698" font-family="Lato" font-size="12.00">{a}</text>
</g>
<!-- 4&#45;&gt;4 -->
<g id="edge10" class="edge"><title>4&#45;&gt;4</title>
<path fill="none" stroke="black" d="M497.094,-144.511C496.244,-154.094 499.702,-162.298 507.468,-162.298 513.171,-162.298 516.551,-157.873 517.607,-151.727"/>
<polygon fill="black" stroke="black" points="517.842,-144.511 520.763,-151.61 517.729,-148.009 517.615,-151.507 517.615,-151.507 517.615,-151.507 517.729,-148.009 514.466,-151.404 517.842,-144.511 517.842,-144.511"/>
<text text-anchor="middle" x="507.468" y="-178.698" font-family="Lato" font-size="12.00">{a}</text>
<text text-anchor="middle" x="507.468" y="-165.698" font-family="Lato" font-size="12.00">{0}</text>
</g>
</g>
</svg>
