<?xml version="1.0" encoding="UTF-8" standalone="no"?>
<?xml-stylesheet href="spot.css" type="text/css"?>
<!DOCTYPE svg PUBLIC "-//W3C//DTD SVG 1.1//EN"
 "http://www.w3.org/Graphics/SVG/1.1/DTD/svg11.dtd">
<!-- Generated by graphviz version 2.38.0 (20140413.2041)
 -->
<!-- Title: G Pages: 1 -->
<svg width="621pt" height="169pt"
 viewBox="0.00 0.00 621.00 169.00" xmlns="http://www.w3.org/2000/svg" xmlns:xlink="http://www.w3.org/1999/xlink">
<g id="graph0" class="graph" transform="scale(1 1) rotate(0) translate(4 165)">
<title>G</title>
<polygon fill="white" stroke="none" points="-4,4 -4,-165 617,-165 617,4 -4,4"/>
<!-- 0 -->
<!-- 1 -->
<g id="node2" class="node"><title>1</title>
<ellipse fill="#ffffa0" stroke="black" cx="118" cy="-140" rx="27" ry="18"/>
<text text-anchor="middle" x="118" y="-136.9" font-family="Lato" font-size="12.00">init</text>
</g>
<!-- 0&#45;&gt;1 -->
<g id="edge1" class="edge"><title>0&#45;&gt;1</title>
<path fill="none" stroke="black" d="M54.2216,-140C63.4559,-140 73.9612,-140 83.7008,-140"/>
<polygon fill="black" stroke="black" points="90.9659,-140 83.9659,-143.15 87.4659,-140 83.9659,-140 83.9659,-140 83.9659,-140 87.4659,-140 83.9658,-136.85 90.9659,-140 90.9659,-140"/>
</g>
<!-- 2 -->
<g id="node3" class="node"><title>2</title>
<polygon fill="#ffffa0" stroke="black" points="501,-84 447,-84 447,-48 501,-48 501,-84"/>
<text text-anchor="middle" x="474" y="-62.9" font-family="Lato" font-size="12.00">2</text>
</g>
<!-- 1&#45;&gt;2 -->
<g id="edge2" class="edge"><title>1&#45;&gt;2</title>
<path fill="none" stroke="black" d="M144.512,-144.757C150.551,-145.689 156.985,-146.525 163,-147 175.406,-147.981 178.556,-147.086 191,-147 277.148,-146.402 302.314,-156.373 384,-129 408.513,-120.786 432.199,-103.408 448.966,-88.98"/>
<polygon fill="black" stroke="black" points="454.378,-84.2177 451.203,-91.2068 451.75,-86.5299 449.122,-88.842 449.122,-88.842 449.122,-88.842 451.75,-86.5299 447.042,-86.4772 454.378,-84.2177 454.378,-84.2177"/>
<text text-anchor="middle" x="296.5" y="-151.4" font-family="Lato" font-size="12.00">!a &amp; b</text>
</g>
<!-- 3 -->
<g id="node4" class="node"><title>3</title>
<polygon fill="#ffffa0" stroke="black" points="263,-94 209,-94 209,-58 263,-58 263,-94"/>
<text text-anchor="middle" x="236" y="-72.9" font-family="Lato" font-size="12.00">3</text>
</g>
<!-- 1&#45;&gt;3 -->
<g id="edge3" class="edge"><title>1&#45;&gt;3</title>
<path fill="none" stroke="black" d="M138.088,-127.852C145.754,-123.089 154.721,-117.659 163,-113 175.725,-105.84 189.979,-98.3977 202.426,-92.0815"/>
<polygon fill="black" stroke="black" points="208.753,-88.8886 203.923,-94.8547 205.628,-90.4656 202.504,-92.0425 202.504,-92.0425 202.504,-92.0425 205.628,-90.4656 201.084,-89.2303 208.753,-88.8886 208.753,-88.8886"/>
<text text-anchor="middle" x="177" y="-116.4" font-family="Lato" font-size="12.00">a &amp; b</text>
</g>
<!-- 4 -->
<g id="node5" class="node"><title>4</title>
<ellipse fill="#ffffa0" stroke="black" cx="357" cy="-102" rx="27" ry="18"/>
<text text-anchor="middle" x="357" y="-98.9" font-family="Lato" font-size="12.00">1</text>
</g>
<!-- 1&#45;&gt;4 -->
<g id="edge4" class="edge"><title>1&#45;&gt;4</title>
<path fill="none" stroke="black" d="M144.743,-137.278C181.879,-133.152 252.551,-124.556 312,-113 316.06,-112.211 320.307,-111.282 324.493,-110.305"/>
<polygon fill="black" stroke="black" points="331.435,-108.63 325.369,-113.334 328.033,-109.451 324.63,-110.272 324.63,-110.272 324.63,-110.272 328.033,-109.451 323.892,-107.21 331.435,-108.63 331.435,-108.63"/>
<text text-anchor="middle" x="236" y="-132.4" font-family="Lato" font-size="12.00">a &amp; !b</text>
</g>
<!-- 5 -->
<g id="node6" class="node"><title>5</title>
<polygon fill="#ffffa0" stroke="black" points="609,-40 555,-40 555,-4 609,-4 609,-40"/>
<polygon fill="none" stroke="black" points="613,-44 551,-44 551,-3.55271e-15 613,-3.55271e-15 613,-44"/>
<text text-anchor="middle" x="582" y="-18.9" font-family="Lato" font-size="12.00">4</text>
</g>
<!-- 2&#45;&gt;5 -->
<g id="edge5" class="edge"><title>2&#45;&gt;5</title>
<path fill="none" stroke="black" d="M501.202,-55.1236C514.163,-49.7436 530.025,-43.1592 544.184,-37.2823"/>
<polygon fill="black" stroke="black" points="550.977,-34.4625 545.719,-40.0555 547.744,-35.8043 544.512,-37.1462 544.512,-37.1462 544.512,-37.1462 547.744,-35.8043 543.304,-34.2369 550.977,-34.4625 550.977,-34.4625"/>
<text text-anchor="middle" x="526" y="-50.4" font-family="Lato" font-size="12.00">{a}</text>
</g>
<!-- 3&#45;&gt;2 -->
<g id="edge6" class="edge"><title>3&#45;&gt;2</title>
<path fill="none" stroke="black" d="M263.048,-71.786C268.948,-70.8509 275.187,-69.8775 281,-69 302.752,-65.7162 308.056,-63.5595 330,-62 353.94,-60.2987 360.006,-61.4611 384,-62 402.371,-62.4126 422.859,-63.3037 439.542,-64.1404"/>
<polygon fill="black" stroke="black" points="446.918,-64.519 439.766,-67.3059 443.423,-64.3396 439.927,-64.1601 439.927,-64.1601 439.927,-64.1601 443.423,-64.3396 440.089,-61.0142 446.918,-64.519 446.918,-64.519"/>
<text text-anchor="middle" x="357" y="-65.4" font-family="Lato" font-size="12.00">{a}</text>
</g>
<!-- 3&#45;&gt;4 -->
<g id="edge7" class="edge"><title>3&#45;&gt;4</title>
<path fill="none" stroke="black" d="M263.129,-73.187C277.749,-72.3931 296.165,-72.7024 312,-77 318.725,-78.8251 325.506,-81.919 331.664,-85.3203"/>
<polygon fill="black" stroke="black" points="338.068,-89.0861 330.437,-88.2532 335.051,-87.312 332.034,-85.5378 332.034,-85.5378 332.034,-85.5378 335.051,-87.312 333.63,-82.8225 338.068,-89.0861 338.068,-89.0861"/>
<text text-anchor="middle" x="296.5" y="-80.4" font-family="Lato" font-size="12.00">{b}</text>
</g>
<!-- 3&#45;&gt;5 -->
<g id="edge8" class="edge"><title>3&#45;&gt;5</title>
<path fill="none" stroke="black" d="M263.231,-65.3826C269.011,-63.3481 275.154,-61.4145 281,-60 373.975,-37.5051 486.576,-27.7814 543.765,-24.0447"/>
<polygon fill="black" stroke="black" points="550.793,-23.5976 544.008,-27.1857 547.301,-23.8198 543.808,-24.0421 543.808,-24.0421 543.808,-24.0421 547.301,-23.8198 543.608,-20.8985 550.793,-23.5976 550.793,-23.5976"/>
<text text-anchor="middle" x="415.5" y="-41.4" font-family="Lato" font-size="12.00">{a}</text>
</g>
<!-- 4&#45;&gt;2 -->
<g id="edge10" class="edge"><title>4&#45;&gt;2</title>
<path fill="none" stroke="black" d="M381.828,-94.5408C398.555,-89.3045 421.152,-82.2307 439.664,-76.4356"/>
<polygon fill="black" stroke="black" points="446.797,-74.2027 441.058,-79.3002 443.457,-75.2484 440.116,-76.294 440.116,-76.294 440.116,-76.294 443.457,-75.2484 439.175,-73.2879 446.797,-74.2027 446.797,-74.2027"/>
<text text-anchor="middle" x="415.5" y="-90.4" font-family="Lato" font-size="12.00">{a, b}</text>
</g>
<!-- 4&#45;&gt;3 -->
<g id="edge9" class="edge"><title>4&#45;&gt;3</title>
<path fill="none" stroke="black" d="M330.126,-98.8317C315.586,-96.8091 297.165,-93.8421 281,-90 277.483,-89.1641 273.84,-88.1883 270.224,-87.1478"/>
<polygon fill="black" stroke="black" points="263.345,-85.0869 270.955,-84.0783 266.698,-86.0914 270.051,-87.0958 270.051,-87.0958 270.051,-87.0958 266.698,-86.0914 269.147,-90.1133 263.345,-85.0869 263.345,-85.0869"/>
<text text-anchor="middle" x="296.5" y="-99.4" font-family="Lato" font-size="12.00">{b}</text>
</g>
<!-- 5&#45;&gt;5 -->
<g id="edge11" class="edge"><title>5&#45;&gt;5</title>
<path fill="none" stroke="black" d="M571.626,-44.2124C570.776,-53.7952 574.234,-62 582,-62 587.703,-62 591.083,-57.5751 592.139,-51.4291"/>
<polygon fill="black" stroke="black" points="592.374,-44.2124 595.295,-51.3112 592.26,-47.7105 592.147,-51.2086 592.147,-51.2086 592.147,-51.2086 592.26,-47.7105 588.998,-51.1061 592.374,-44.2124 592.374,-44.2124"/>
<text text-anchor="middle" x="582" y="-78.4" font-family="Lato" font-size="12.00">{a}</text>
<text text-anchor="middle" x="582" y="-65.4" font-family="Lato" font-size="12.00">{0}</text>
</g>
</g>
</svg>
