<?xml version="1.0" encoding="UTF-8" standalone="no"?>
<?xml-stylesheet href="spot.css" type="text/css"?>
<!DOCTYPE svg PUBLIC "-//W3C//DTD SVG 1.1//EN"
 "http://www.w3.org/Graphics/SVG/1.1/DTD/svg11.dtd">
<!-- Generated by graphviz version 2.38.0 (20140413.2041)
 -->
<!-- Title: G Pages: 1 -->
<svg width="299pt" height="160pt"
 viewBox="0.00 0.00 299.00 159.99" xmlns="http://www.w3.org/2000/svg" xmlns:xlink="http://www.w3.org/1999/xlink">
<g id="graph0" class="graph" transform="scale(1 1) rotate(0) translate(4 155.99)">
<title>G</title>
<polygon fill="white" stroke="none" points="-4,4 -4,-155.99 295,-155.99 295,4 -4,4"/>
<text text-anchor="start" x="118" y="-125.39" font-family="Lato" font-size="12.00">[co&#45;Büchi]</text>
<!-- I -->
<!-- 0 -->
<g id="node2" class="node"><title>0</title>
<ellipse fill="#ffffa0" stroke="black" cx="60" cy="-52.59" rx="18" ry="18"/>
<ellipse fill="none" stroke="black" cx="60" cy="-52.59" rx="22" ry="22"/>
<text text-anchor="middle" x="60" y="-49.49" font-family="Lato" font-size="12.00">0</text>
</g>
<!-- I&#45;&gt;0 -->
<g id="edge1" class="edge"><title>I&#45;&gt;0</title>
<path fill="none" stroke="black" d="M1.16638,-52.59C2.84121,-52.59 16.884,-52.59 30.7112,-52.59"/>
<polygon fill="black" stroke="black" points="37.8555,-52.59 30.8556,-55.7401 34.3555,-52.59 30.8555,-52.5901 30.8555,-52.5901 30.8555,-52.5901 34.3555,-52.59 30.8555,-49.4401 37.8555,-52.59 37.8555,-52.59"/>
</g>
<!-- 1 -->
<g id="node3" class="node"><title>1</title>
<ellipse fill="#ffffa0" stroke="black" cx="273" cy="-42.59" rx="18" ry="18"/>
<text text-anchor="middle" x="273" y="-39.49" font-family="Lato" font-size="12.00">1</text>
</g>
<!-- 0&#45;&gt;1 -->
<g id="edge2" class="edge"><title>0&#45;&gt;1</title>
<path fill="none" stroke="black" d="M77.6247,-66.4128C101.678,-84.6752 147.72,-113.145 188,-100.59 213.617,-92.6054 238.315,-73.7776 254.22,-59.7256"/>
<polygon fill="black" stroke="black" points="259.668,-54.7935 256.593,-61.8268 257.073,-57.1426 254.479,-59.4917 254.479,-59.4917 254.479,-59.4917 257.073,-57.1426 252.364,-57.1565 259.668,-54.7935 259.668,-54.7935"/>
<text text-anchor="start" x="153" y="-106.99" font-family="Lato" font-size="12.00">!a &amp; !b</text>
</g>
<!-- 2 -->
<g id="node4" class="node"><title>2</title>
<ellipse fill="#ffffa0" stroke="black" cx="170" cy="-42.59" rx="18" ry="18"/>
<text text-anchor="middle" x="170" y="-39.49" font-family="Lato" font-size="12.00">2</text>
</g>
<!-- 0&#45;&gt;2 -->
<g id="edge3" class="edge"><title>0&#45;&gt;2</title>
<path fill="none" stroke="black" d="M82.1372,-52.0745C96.7413,-51.5612 116.594,-50.5521 134,-48.59 137.584,-48.1859 141.357,-47.6533 145.047,-47.0718"/>
<polygon fill="black" stroke="black" points="151.966,-45.9146 145.582,-50.1762 148.514,-46.492 145.062,-47.0693 145.062,-47.0693 145.062,-47.0693 148.514,-46.492 144.542,-43.9625 151.966,-45.9146 151.966,-45.9146"/>
<text text-anchor="start" x="106" y="-53.99" font-family="Lato" font-size="12.00">a | b</text>
</g>
<!-- 1&#45;&gt;0 -->
<g id="edge4" class="edge"><title>1&#45;&gt;0</title>
<path fill="none" stroke="black" d="M257.558,-33.2468C241.377,-23.3825 213.996,-8.46354 188,-2.58996 172.393,0.936211 167.654,0.717532 152,-2.58996 126.867,-7.90002 101.518,-22.7909 83.9808,-34.9512"/>
<polygon fill="black" stroke="black" points="77.888,-39.2849 81.7664,-32.6607 80.7401,-37.2562 83.5922,-35.2276 83.5922,-35.2276 83.5922,-35.2276 80.7401,-37.2562 85.4181,-37.7945 77.888,-39.2849 77.888,-39.2849"/>
<text text-anchor="start" x="165" y="-5.98996" font-family="Lato" font-size="12.00">!b</text>
</g>
<!-- 1&#45;&gt;1 -->
<g id="edge5" class="edge"><title>1&#45;&gt;1</title>
<path fill="none" stroke="black" d="M264.367,-58.506C262.114,-68.7403 264.992,-78.59 273,-78.59 279.131,-78.59 282.255,-72.8163 282.372,-65.5168"/>
<polygon fill="black" stroke="black" points="281.633,-58.506 285.499,-65.1376 282,-61.9867 282.367,-65.4675 282.367,-65.4675 282.367,-65.4675 282,-61.9867 279.234,-65.7974 281.633,-58.506 281.633,-58.506"/>
<text text-anchor="start" x="269.5" y="-81.99" font-family="Lato" font-size="12.00">b</text>
</g>
<!-- 2&#45;&gt;0 -->
<g id="edge6" class="edge"><title>2&#45;&gt;0</title>
<path fill="none" stroke="black" d="M152.942,-36.3869C138.852,-31.8055 117.879,-27.0824 100,-31.59 94.9761,-32.8566 89.8952,-34.9111 85.1354,-37.251"/>
<polygon fill="black" stroke="black" points="78.8792,-40.5715 83.5855,-34.5074 81.9707,-38.9306 85.0622,-37.2898 85.0622,-37.2898 85.0622,-37.2898 81.9707,-38.9306 86.539,-40.0721 78.8792,-40.5715 78.8792,-40.5715"/>
<text text-anchor="start" x="100" y="-34.99" font-family="Lato" font-size="12.00">!a &amp; !b</text>
</g>
<!-- 2&#45;&gt;1 -->
<g id="edge7" class="edge"><title>2&#45;&gt;1</title>
<path fill="none" stroke="black" d="M188.133,-42.59C204.384,-42.59 228.98,-42.59 247.339,-42.59"/>
<polygon fill="black" stroke="black" points="254.783,-42.59 247.783,-45.74 251.283,-42.59 247.783,-42.59 247.783,-42.59 247.783,-42.59 251.283,-42.59 247.783,-39.44 254.783,-42.59 254.783,-42.59"/>
<text text-anchor="start" x="206" y="-45.99" font-family="Lato" font-size="12.00">!a &amp; b</text>
</g>
<!-- 2&#45;&gt;2 -->
<g id="edge8" class="edge"><title>2&#45;&gt;2</title>
<path fill="none" stroke="black" d="M161.367,-58.506C159.114,-68.7403 161.992,-78.59 170,-78.59 176.131,-78.59 179.255,-72.8163 179.372,-65.5168"/>
<polygon fill="black" stroke="black" points="178.633,-58.506 182.499,-65.1376 179,-61.9867 179.367,-65.4675 179.367,-65.4675 179.367,-65.4675 179,-61.9867 176.234,-65.7974 178.633,-58.506 178.633,-58.506"/>
<text text-anchor="start" x="166.5" y="-81.99" font-family="Lato" font-size="12.00">a</text>
</g>
</g>
</svg>
