<?xml version="1.0" encoding="UTF-8" standalone="no"?>
<?xml-stylesheet href="spot.css" type="text/css"?>
<!DOCTYPE svg PUBLIC "-//W3C//DTD SVG 1.1//EN"
 "http://www.w3.org/Graphics/SVG/1.1/DTD/svg11.dtd">
<!-- Generated by graphviz version 2.38.0 (20140413.2041)
 -->
<!-- Title: G Pages: 1 -->
<svg width="502pt" height="267pt"
 viewBox="0.00 0.00 501.90 267.24" xmlns="http://www.w3.org/2000/svg" xmlns:xlink="http://www.w3.org/1999/xlink">
<g id="graph0" class="graph" transform="scale(1 1) rotate(0) translate(4 263.239)">
<title>G</title>
<polygon fill="white" stroke="none" points="-4,4 -4,-263.239 497.902,-263.239 497.902,4 -4,4"/>
<text text-anchor="start" x="149.951" y="-246.639" font-family="Lato" font-size="12.00">(Fin(</text>
<text text-anchor="start" x="172.951" y="-246.639" font-family="Lato" font-size="12.00" fill="#1f78b4">⓿</text>
<text text-anchor="start" x="186.951" y="-246.639" font-family="Lato" font-size="12.00">) &amp; Inf(</text>
<text text-anchor="start" x="221.951" y="-246.639" font-family="Lato" font-size="12.00" fill="#ff4da0">❶</text>
<text text-anchor="start" x="235.951" y="-246.639" font-family="Lato" font-size="12.00">)) | (Fin(</text>
<text text-anchor="start" x="273.951" y="-246.639" font-family="Lato" font-size="12.00" fill="#ff7f00">❷</text>
<text text-anchor="start" x="287.951" y="-246.639" font-family="Lato" font-size="12.00">) &amp; Inf(</text>
<text text-anchor="start" x="322.951" y="-246.639" font-family="Lato" font-size="12.00" fill="#6a3d9a">❸</text>
<text text-anchor="start" x="336.951" y="-246.639" font-family="Lato" font-size="12.00">))</text>
<text text-anchor="start" x="222.951" y="-234.639" font-family="Lato" font-size="12.00">[Rabin 2]</text>
<!-- I -->
<!-- 0 -->
<g id="node2" class="node"><title>0</title>
<ellipse fill="#ffffa0" stroke="black" cx="69.1127" cy="-52.2393" rx="31.2258" ry="31.2258"/>
<text text-anchor="start" x="65.6127" y="-55.6393" font-family="Lato" font-size="12.00">0</text>
<text text-anchor="start" x="55.1127" y="-43.6393" font-family="Lato" font-size="12.00" fill="#1f78b4">⓿</text>
<text text-anchor="start" x="69.1127" y="-43.6393" font-family="Lato" font-size="12.00" fill="#ff7f00">❷</text>
</g>
<!-- I&#45;&gt;0 -->
<g id="edge1" class="edge"><title>I&#45;&gt;0</title>
<path fill="none" stroke="black" d="M1.04864,-52.2393C1.96281,-52.2393 15.6247,-52.2393 30.3807,-52.2393"/>
<polygon fill="black" stroke="black" points="37.6614,-52.2393 30.6615,-55.3894 34.1614,-52.2393 30.6614,-52.2394 30.6614,-52.2394 30.6614,-52.2394 34.1614,-52.2393 30.6614,-49.0894 37.6614,-52.2393 37.6614,-52.2393"/>
</g>
<!-- 0&#45;&gt;0 -->
<g id="edge2" class="edge"><title>0&#45;&gt;0</title>
<path fill="none" stroke="black" d="M60.1149,-82.4536C60.0197,-92.9087 63.0189,-101.352 69.1127,-101.352 73.683,-101.352 76.5127,-96.6026 77.6017,-89.8172"/>
<polygon fill="black" stroke="black" points="78.1105,-82.4536 80.7704,-89.6541 77.8692,-85.9453 77.6279,-89.4369 77.6279,-89.4369 77.6279,-89.4369 77.8692,-85.9453 74.4854,-89.2198 78.1105,-82.4536 78.1105,-82.4536"/>
<text text-anchor="start" x="52.1127" y="-104.752" font-family="Lato" font-size="12.00">!a &amp; !b</text>
</g>
<!-- 1 -->
<g id="node3" class="node"><title>1</title>
<ellipse fill="#ffffa0" stroke="black" cx="201.338" cy="-146.239" rx="31.2258" ry="31.2258"/>
<text text-anchor="start" x="197.838" y="-149.639" font-family="Lato" font-size="12.00">1</text>
<text text-anchor="start" x="187.338" y="-137.639" font-family="Lato" font-size="12.00" fill="#ff4da0">❶</text>
<text text-anchor="start" x="201.338" y="-137.639" font-family="Lato" font-size="12.00" fill="#ff7f00">❷</text>
</g>
<!-- 0&#45;&gt;1 -->
<g id="edge3" class="edge"><title>0&#45;&gt;1</title>
<path fill="none" stroke="black" d="M82.8207,-80.5473C90.9316,-95.5917 102.827,-113.206 118.225,-124.239 131.215,-133.547 147.907,-138.917 162.845,-142.015"/>
<polygon fill="black" stroke="black" points="170.013,-143.361 162.552,-145.165 166.574,-142.715 163.134,-142.069 163.134,-142.069 163.134,-142.069 166.574,-142.715 163.715,-138.973 170.013,-143.361 170.013,-143.361"/>
<text text-anchor="start" x="119.725" y="-142.639" font-family="Lato" font-size="12.00">a &amp; !b</text>
</g>
<!-- 2 -->
<g id="node4" class="node"><title>2</title>
<ellipse fill="#ffffa0" stroke="black" cx="462.789" cy="-76.2393" rx="31.2258" ry="31.2258"/>
<text text-anchor="start" x="459.289" y="-79.6393" font-family="Lato" font-size="12.00">2</text>
<text text-anchor="start" x="448.789" y="-67.6393" font-family="Lato" font-size="12.00" fill="#1f78b4">⓿</text>
<text text-anchor="start" x="462.789" y="-67.6393" font-family="Lato" font-size="12.00" fill="#6a3d9a">❸</text>
</g>
<!-- 0&#45;&gt;2 -->
<g id="edge4" class="edge"><title>0&#45;&gt;2</title>
<path fill="none" stroke="black" d="M98.5701,-42.0854C104.963,-40.1656 111.766,-38.3983 118.225,-37.2393 226.038,-17.893 257.42,-14.0169 364.676,-36.2393 386.78,-40.8189 410.216,-50.3233 428.526,-58.9185"/>
<polygon fill="black" stroke="black" points="435.028,-62.0332 427.354,-61.8499 431.872,-60.5211 428.715,-59.009 428.715,-59.009 428.715,-59.009 431.872,-60.5211 430.076,-56.1681 435.028,-62.0332 435.028,-62.0332"/>
<text text-anchor="start" x="251.951" y="-25.6393" font-family="Lato" font-size="12.00">!a &amp; b</text>
</g>
<!-- 3 -->
<g id="node5" class="node"><title>3</title>
<ellipse fill="#ffffa0" stroke="black" cx="333.563" cy="-76.2393" rx="31.2258" ry="31.2258"/>
<text text-anchor="start" x="330.063" y="-79.6393" font-family="Lato" font-size="12.00">3</text>
<text text-anchor="start" x="319.563" y="-67.6393" font-family="Lato" font-size="12.00" fill="#ff4da0">❶</text>
<text text-anchor="start" x="333.563" y="-67.6393" font-family="Lato" font-size="12.00" fill="#6a3d9a">❸</text>
</g>
<!-- 0&#45;&gt;3 -->
<g id="edge5" class="edge"><title>0&#45;&gt;3</title>
<path fill="none" stroke="black" d="M100.219,-54.9924C148.442,-59.4022 242.892,-68.0392 295.298,-72.8315"/>
<polygon fill="black" stroke="black" points="302.405,-73.4814 295.147,-75.9808 298.92,-73.1626 295.434,-72.8438 295.434,-72.8438 295.434,-72.8438 298.92,-73.1626 295.721,-69.7069 302.405,-73.4814 302.405,-73.4814"/>
<text text-anchor="start" x="187.338" y="-69.6393" font-family="Lato" font-size="12.00">a &amp; b</text>
</g>
<!-- 1&#45;&gt;0 -->
<g id="edge6" class="edge"><title>1&#45;&gt;0</title>
<path fill="none" stroke="black" d="M176.975,-125.962C169.303,-119.672 160.594,-112.908 152.225,-107.239 137.893,-97.5311 132.743,-97.6676 118.225,-88.2393 112.188,-84.3186 105.911,-79.8962 99.9602,-75.5272"/>
<polygon fill="black" stroke="black" points="94.14,-71.1967 101.636,-72.8481 96.948,-73.286 99.756,-75.3753 99.756,-75.3753 99.756,-75.3753 96.948,-73.286 97.8756,-77.9025 94.14,-71.1967 94.14,-71.1967"/>
<text text-anchor="start" x="118.225" y="-110.639" font-family="Lato" font-size="12.00">!a &amp; !b</text>
</g>
<!-- 1&#45;&gt;1 -->
<g id="edge7" class="edge"><title>1&#45;&gt;1</title>
<path fill="none" stroke="black" d="M189.011,-174.994C188.464,-186.111 192.572,-195.352 201.338,-195.352 208.049,-195.352 212.031,-189.935 213.283,-182.407"/>
<polygon fill="black" stroke="black" points="213.665,-174.994 216.45,-182.147 213.484,-178.489 213.304,-181.984 213.304,-181.984 213.304,-181.984 213.484,-178.489 210.158,-181.822 213.665,-174.994 213.665,-174.994"/>
<text text-anchor="start" x="185.838" y="-198.752" font-family="Lato" font-size="12.00">a &amp; !b</text>
</g>
<!-- 1&#45;&gt;2 -->
<g id="edge8" class="edge"><title>1&#45;&gt;2</title>
<path fill="none" stroke="black" d="M222.727,-169.351C230.599,-176.722 240.186,-184.048 250.451,-188.239 317.613,-215.662 354.344,-229.982 413.676,-188.239 437.882,-171.209 449.999,-139.361 456.012,-113.967"/>
<polygon fill="black" stroke="black" points="457.551,-106.994 459.119,-114.508 456.797,-110.411 456.043,-113.829 456.043,-113.829 456.043,-113.829 456.797,-110.411 452.967,-113.15 457.551,-106.994 457.551,-106.994"/>
<text text-anchor="start" x="318.063" y="-217.639" font-family="Lato" font-size="12.00">!a &amp; b</text>
</g>
<!-- 1&#45;&gt;3 -->
<g id="edge9" class="edge"><title>1&#45;&gt;3</title>
<path fill="none" stroke="black" d="M232.283,-142.091C248.517,-138.915 268.469,-133.454 284.451,-124.239 292.922,-119.355 300.951,-112.603 307.936,-105.704"/>
<polygon fill="black" stroke="black" points="313.064,-100.428 310.444,-107.643 310.624,-102.938 308.185,-105.448 308.185,-105.448 308.185,-105.448 310.624,-102.938 305.926,-103.252 313.064,-100.428 313.064,-100.428"/>
<text text-anchor="start" x="253.451" y="-140.639" font-family="Lato" font-size="12.00">a &amp; b</text>
</g>
<!-- 2&#45;&gt;0 -->
<g id="edge10" class="edge"><title>2&#45;&gt;0</title>
<path fill="none" stroke="black" d="M439.597,-54.8036C431.853,-48.1662 422.805,-41.2808 413.676,-36.2393 361.787,-7.58151 343.405,-9.41692 284.451,-3.23926 210.275,4.53347 188.69,-1.80136 118.225,-26.2393 112.927,-28.0767 107.513,-30.4503 102.318,-33.0147"/>
<polygon fill="black" stroke="black" points="95.8801,-36.3392 100.654,-30.3284 98.99,-34.7332 102.1,-33.1273 102.1,-33.1273 102.1,-33.1273 98.99,-34.7332 103.545,-35.9261 95.8801,-36.3392 95.8801,-36.3392"/>
<text text-anchor="start" x="250.451" y="-6.63926" font-family="Lato" font-size="12.00">!a &amp; !b</text>
</g>
<!-- 2&#45;&gt;1 -->
<g id="edge11" class="edge"><title>2&#45;&gt;1</title>
<path fill="none" stroke="black" d="M439.971,-97.6856C421.55,-114.342 393.614,-136.374 364.676,-147.239 323.661,-162.638 272.602,-158.968 238.818,-153.709"/>
<polygon fill="black" stroke="black" points="231.881,-152.569 239.299,-150.596 235.335,-153.136 238.789,-153.704 238.789,-153.704 238.789,-153.704 235.335,-153.136 238.278,-156.812 231.881,-152.569 231.881,-152.569"/>
<text text-anchor="start" x="318.063" y="-160.639" font-family="Lato" font-size="12.00">a &amp; !b</text>
</g>
<!-- 2&#45;&gt;2 -->
<g id="edge12" class="edge"><title>2&#45;&gt;2</title>
<path fill="none" stroke="black" d="M450.836,-104.994C450.305,-116.111 454.289,-125.352 462.789,-125.352 469.297,-125.352 473.158,-119.935 474.371,-112.407"/>
<polygon fill="black" stroke="black" points="474.742,-104.994 477.538,-112.142 474.567,-108.489 474.392,-111.985 474.392,-111.985 474.392,-111.985 474.567,-108.489 471.246,-111.828 474.742,-104.994 474.742,-104.994"/>
<text text-anchor="start" x="447.289" y="-128.752" font-family="Lato" font-size="12.00">!a &amp; b</text>
</g>
<!-- 2&#45;&gt;3 -->
<g id="edge13" class="edge"><title>2&#45;&gt;3</title>
<path fill="none" stroke="black" d="M431.414,-76.2393C413.52,-76.2393 390.746,-76.2393 371.779,-76.2393"/>
<polygon fill="black" stroke="black" points="364.714,-76.2393 371.714,-73.0894 368.214,-76.2393 371.714,-76.2394 371.714,-76.2394 371.714,-76.2394 368.214,-76.2393 371.714,-79.3894 364.714,-76.2393 364.714,-76.2393"/>
<text text-anchor="start" x="384.176" y="-79.6393" font-family="Lato" font-size="12.00">a &amp; b</text>
</g>
<!-- 3&#45;&gt;0 -->
<g id="edge14" class="edge"><title>3&#45;&gt;0</title>
<path fill="none" stroke="black" d="M304.648,-64.7454C284.872,-57.2453 257.511,-48.147 232.451,-44.2393 189.811,-37.5903 140.182,-41.7406 107.131,-46.1601"/>
<polygon fill="black" stroke="black" points="99.9265,-47.1629 106.425,-43.0778 103.393,-46.6803 106.86,-46.1977 106.86,-46.1977 106.86,-46.1977 103.393,-46.6803 107.294,-49.3177 99.9265,-47.1629 99.9265,-47.1629"/>
<text text-anchor="start" x="184.338" y="-47.6393" font-family="Lato" font-size="12.00">!a &amp; !b</text>
</g>
<!-- 3&#45;&gt;1 -->
<g id="edge15" class="edge"><title>3&#45;&gt;1</title>
<path fill="none" stroke="black" d="M303.427,-84.7084C287.254,-90.0224 267.102,-97.6814 250.451,-107.239 243.597,-111.174 236.712,-116.063 230.38,-121.036"/>
<polygon fill="black" stroke="black" points="224.737,-125.601 228.198,-118.75 227.458,-123.4 230.179,-121.199 230.179,-121.199 230.179,-121.199 227.458,-123.4 232.16,-123.648 224.737,-125.601 224.737,-125.601"/>
<text text-anchor="start" x="251.951" y="-110.639" font-family="Lato" font-size="12.00">a &amp; !b</text>
</g>
<!-- 3&#45;&gt;2 -->
<g id="edge16" class="edge"><title>3&#45;&gt;2</title>
<path fill="none" stroke="black" d="M362.631,-64.5322C369.104,-62.3377 376.04,-60.3772 382.676,-59.2393 396.256,-56.9107 400.097,-56.9107 413.676,-59.2393 418.031,-59.986 422.515,-61.087 426.913,-62.376"/>
<polygon fill="black" stroke="black" points="433.722,-64.5322 426.097,-65.4218 430.385,-63.4755 427.048,-62.4188 427.048,-62.4188 427.048,-62.4188 430.385,-63.4755 427.999,-59.4158 433.722,-64.5322 433.722,-64.5322"/>
<text text-anchor="start" x="382.676" y="-62.6393" font-family="Lato" font-size="12.00">!a &amp; b</text>
</g>
<!-- 3&#45;&gt;3 -->
<g id="edge17" class="edge"><title>3&#45;&gt;3</title>
<path fill="none" stroke="black" d="M321.61,-104.994C321.079,-116.111 325.063,-125.352 333.563,-125.352 340.071,-125.352 343.932,-119.935 345.146,-112.407"/>
<polygon fill="black" stroke="black" points="345.517,-104.994 348.313,-112.142 345.342,-108.489 345.167,-111.985 345.167,-111.985 345.167,-111.985 345.342,-108.489 342.021,-111.828 345.517,-104.994 345.517,-104.994"/>
<text text-anchor="start" x="319.563" y="-128.752" font-family="Lato" font-size="12.00">a &amp; b</text>
</g>
</g>
</svg>
