<?xml version="1.0" encoding="UTF-8" standalone="no"?>
<?xml-stylesheet href="spot.css" type="text/css"?>
<!DOCTYPE svg PUBLIC "-//W3C//DTD SVG 1.1//EN"
 "http://www.w3.org/Graphics/SVG/1.1/DTD/svg11.dtd">
<!-- Generated by graphviz version 2.38.0 (20140413.2041)
 -->
<!-- Title: G Pages: 1 -->
<svg width="562pt" height="252pt"
 viewBox="0.00 0.00 561.70 252.11" xmlns="http://www.w3.org/2000/svg" xmlns:xlink="http://www.w3.org/1999/xlink">
<g id="graph0" class="graph" transform="scale(1 1) rotate(0) translate(4 248.113)">
<title>G</title>
<polygon fill="white" stroke="none" points="-4,4 -4,-248.113 557.701,-248.113 557.701,4 -4,4"/>
<text text-anchor="start" x="136.35" y="-231.513" font-family="Lato" font-size="12.00">(Inf(</text>
<text text-anchor="start" x="157.35" y="-231.513" font-family="Lato" font-size="12.00" fill="#1f78b4">⓿</text>
<text text-anchor="start" x="171.35" y="-231.513" font-family="Lato" font-size="12.00">) &amp; Fin(</text>
<text text-anchor="start" x="208.35" y="-231.513" font-family="Lato" font-size="12.00" fill="#ff4da0">❶</text>
<text text-anchor="start" x="222.35" y="-231.513" font-family="Lato" font-size="12.00">) &amp; Fin(</text>
<text text-anchor="start" x="259.35" y="-231.513" font-family="Lato" font-size="12.00" fill="#6a3d9a">❸</text>
<text text-anchor="start" x="273.35" y="-231.513" font-family="Lato" font-size="12.00">)) | (Inf(</text>
<text text-anchor="start" x="309.35" y="-231.513" font-family="Lato" font-size="12.00" fill="#ff7f00">❷</text>
<text text-anchor="start" x="323.35" y="-231.513" font-family="Lato" font-size="12.00">)&amp;Inf(</text>
<text text-anchor="start" x="352.35" y="-231.513" font-family="Lato" font-size="12.00" fill="#6a3d9a">❸</text>
<text text-anchor="start" x="366.35" y="-231.513" font-family="Lato" font-size="12.00">)) | Inf(</text>
<text text-anchor="start" x="399.35" y="-231.513" font-family="Lato" font-size="12.00" fill="#ff4da0">❶</text>
<text text-anchor="start" x="413.35" y="-231.513" font-family="Lato" font-size="12.00">)</text>
<!-- I -->
<!-- 0 -->
<g id="node2" class="node"><title>0</title>
<ellipse fill="#ffffa0" stroke="black" cx="62.0416" cy="-103" rx="24.0833" ry="24.0833"/>
<text text-anchor="start" x="58.5416" y="-106.4" font-family="Lato" font-size="12.00">0</text>
<text text-anchor="start" x="55.0416" y="-93.4" font-family="Lato" font-size="12.00" fill="#6a3d9a">❸</text>
</g>
<!-- I&#45;&gt;0 -->
<g id="edge1" class="edge"><title>I&#45;&gt;0</title>
<path fill="none" stroke="black" d="M1.04352,-103C1.9346,-103 16.3644,-103 30.8478,-103"/>
<polygon fill="black" stroke="black" points="37.9031,-103 30.9032,-106.15 34.4031,-103 30.9031,-103 30.9031,-103 30.9031,-103 34.4031,-103 30.9031,-99.8501 37.9031,-103 37.9031,-103"/>
</g>
<!-- 0&#45;&gt;0 -->
<g id="edge2" class="edge"><title>0&#45;&gt;0</title>
<path fill="none" stroke="black" d="M54.2897,-125.92C53.5514,-136.173 56.1354,-145.042 62.0416,-145.042 66.4713,-145.042 69.0322,-140.053 69.7244,-133.233"/>
<polygon fill="black" stroke="black" points="69.7936,-125.92 72.8771,-132.949 69.7604,-129.42 69.7272,-132.919 69.7272,-132.919 69.7272,-132.919 69.7604,-129.42 66.5774,-132.89 69.7936,-125.92 69.7936,-125.92"/>
<text text-anchor="start" x="58.5416" y="-148.442" font-family="Lato" font-size="12.00">1</text>
</g>
<!-- 1 -->
<g id="node3" class="node"><title>1</title>
<ellipse fill="#ffffa0" stroke="black" cx="160.196" cy="-192" rx="31.2258" ry="31.2258"/>
<text text-anchor="start" x="156.696" y="-195.4" font-family="Lato" font-size="12.00">1</text>
<text text-anchor="start" x="146.196" y="-183.4" font-family="Lato" font-size="12.00" fill="#ff4da0">❶</text>
<text text-anchor="start" x="160.196" y="-183.4" font-family="Lato" font-size="12.00" fill="#6a3d9a">❸</text>
</g>
<!-- 0&#45;&gt;1 -->
<g id="edge3" class="edge"><title>0&#45;&gt;1</title>
<path fill="none" stroke="black" d="M71.2867,-125.395C77.9813,-140.74 88.8253,-160.503 104.083,-173 109.545,-177.473 116.121,-180.919 122.8,-183.566"/>
<polygon fill="black" stroke="black" points="129.475,-185.954 121.823,-186.562 126.18,-184.775 122.884,-183.596 122.884,-183.596 122.884,-183.596 126.18,-184.775 123.946,-180.63 129.475,-185.954 129.475,-185.954"/>
<text text-anchor="start" x="104.083" y="-180.4" font-family="Lato" font-size="12.00">a</text>
</g>
<!-- 2 -->
<g id="node4" class="node"><title>2</title>
<ellipse fill="#ffffa0" stroke="black" cx="400.434" cy="-52" rx="24.0833" ry="24.0833"/>
<text text-anchor="start" x="396.934" y="-55.4" font-family="Lato" font-size="12.00">2</text>
<text text-anchor="start" x="393.434" y="-42.4" font-family="Lato" font-size="12.00" fill="#1f78b4">⓿</text>
</g>
<!-- 0&#45;&gt;2 -->
<g id="edge4" class="edge"><title>0&#45;&gt;2</title>
<path fill="none" stroke="black" d="M78.6603,-85.2437C85.7488,-78.2323 94.6526,-70.7351 104.083,-66 192.112,-21.8015 314.112,-35.9954 369.7,-45.8775"/>
<polygon fill="black" stroke="black" points="376.777,-47.1768 369.323,-49.0109 373.334,-46.5447 369.892,-45.9126 369.892,-45.9126 369.892,-45.9126 373.334,-46.5447 370.461,-42.8144 376.777,-47.1768 376.777,-47.1768"/>
<text text-anchor="start" x="219.809" y="-41.4" font-family="Lato" font-size="12.00">!a</text>
</g>
<!-- 1&#45;&gt;0 -->
<g id="edge5" class="edge"><title>1&#45;&gt;0</title>
<path fill="none" stroke="black" d="M136.724,-171.2C121.358,-156.977 101.064,-138.194 85.6656,-123.941"/>
<polygon fill="black" stroke="black" points="80.2321,-118.911 87.509,-121.355 82.8007,-121.289 85.3693,-123.666 85.3693,-123.666 85.3693,-123.666 82.8007,-121.289 83.2296,-125.978 80.2321,-118.911 80.2321,-118.911"/>
<text text-anchor="start" x="104.083" y="-150.4" font-family="Lato" font-size="12.00">b</text>
</g>
<!-- 3 -->
<g id="node5" class="node"><title>3</title>
<ellipse fill="#ffffa0" stroke="black" cx="522.588" cy="-143" rx="31.2258" ry="31.2258"/>
<text text-anchor="start" x="519.088" y="-146.4" font-family="Lato" font-size="12.00">3</text>
<text text-anchor="start" x="508.588" y="-134.4" font-family="Lato" font-size="12.00" fill="#1f78b4">⓿</text>
<text text-anchor="start" x="522.588" y="-134.4" font-family="Lato" font-size="12.00" fill="#6a3d9a">❸</text>
</g>
<!-- 1&#45;&gt;3 -->
<g id="edge6" class="edge"><title>1&#45;&gt;3</title>
<path fill="none" stroke="black" d="M191.328,-192.601C240.375,-193.213 340.451,-192.939 424.475,-183 446.548,-180.389 452.829,-181.233 473.475,-173 479.193,-170.72 484.988,-167.764 490.481,-164.598"/>
<polygon fill="black" stroke="black" points="496.769,-160.813 492.396,-167.122 493.77,-162.618 490.772,-164.423 490.772,-164.423 490.772,-164.423 493.77,-162.618 489.147,-161.725 496.769,-160.813 496.769,-160.813"/>
<text text-anchor="start" x="327.392" y="-193.4" font-family="Lato" font-size="12.00">a &amp; b</text>
</g>
<!-- 4 -->
<g id="node6" class="node"><title>4</title>
<ellipse fill="#ffffa0" stroke="black" cx="282.35" cy="-143" rx="24.0833" ry="24.0833"/>
<text text-anchor="start" x="278.85" y="-146.4" font-family="Lato" font-size="12.00">4</text>
<text text-anchor="start" x="275.35" y="-133.4" font-family="Lato" font-size="12.00" fill="#ff7f00">❷</text>
</g>
<!-- 1&#45;&gt;4 -->
<g id="edge7" class="edge"><title>1&#45;&gt;4</title>
<path fill="none" stroke="black" d="M189.367,-180.512C208.602,-172.668 233.983,-162.317 253.211,-154.475"/>
<polygon fill="black" stroke="black" points="259.736,-151.815 254.444,-157.375 256.495,-153.136 253.254,-154.458 253.254,-154.458 253.254,-154.458 256.495,-153.136 252.064,-151.541 259.736,-151.815 259.736,-151.815"/>
<text text-anchor="start" x="209.309" y="-174.4" font-family="Lato" font-size="12.00">!a &amp; b</text>
</g>
<!-- 2&#45;&gt;0 -->
<g id="edge8" class="edge"><title>2&#45;&gt;0</title>
<path fill="none" stroke="black" d="M376.545,-55.4701C317.419,-64.4342 159.58,-88.3639 93.1599,-98.4338"/>
<polygon fill="black" stroke="black" points="85.8987,-99.5347 92.3475,-95.3709 89.3592,-99.01 92.8197,-98.4853 92.8197,-98.4853 92.8197,-98.4853 89.3592,-99.01 93.2919,-101.6 85.8987,-99.5347 85.8987,-99.5347"/>
<text text-anchor="start" x="219.809" y="-83.4" font-family="Lato" font-size="12.00">!b</text>
</g>
<!-- 2&#45;&gt;2 -->
<g id="edge9" class="edge"><title>2&#45;&gt;2</title>
<path fill="none" stroke="black" d="M390.19,-74.0621C388.925,-84.674 392.34,-94.0416 400.434,-94.0416 406.63,-94.0416 410.084,-88.5505 410.795,-81.214"/>
<polygon fill="black" stroke="black" points="410.677,-74.0621 413.942,-81.0091 410.735,-77.5617 410.793,-81.0612 410.793,-81.0612 410.793,-81.0612 410.735,-77.5617 407.643,-81.1132 410.677,-74.0621 410.677,-74.0621"/>
<text text-anchor="start" x="383.434" y="-97.4416" font-family="Lato" font-size="12.00">!a &amp; !b</text>
</g>
<!-- 2&#45;&gt;3 -->
<g id="edge10" class="edge"><title>2&#45;&gt;3</title>
<path fill="none" stroke="black" d="M420.208,-66.2188C439.232,-80.6273 468.968,-103.148 491.324,-120.08"/>
<polygon fill="black" stroke="black" points="497.128,-124.475 489.646,-122.76 494.338,-122.362 491.548,-120.249 491.548,-120.249 491.548,-120.249 494.338,-122.362 493.45,-117.738 497.128,-124.475 497.128,-124.475"/>
<text text-anchor="start" x="442.475" y="-108.4" font-family="Lato" font-size="12.00">a &amp; !b</text>
</g>
<!-- 3&#45;&gt;0 -->
<g id="edge11" class="edge"><title>3&#45;&gt;0</title>
<path fill="none" stroke="black" d="M511.936,-113.717C496.085,-71.8802 460.288,-0 401.434,-0 159.196,-0 159.196,-0 159.196,-0 118.372,-0 89.9129,-43.7684 75.0452,-74.2424"/>
<polygon fill="black" stroke="black" points="71.9056,-80.9039 72.0406,-73.229 73.3978,-77.7379 74.89,-74.5719 74.89,-74.5719 74.89,-74.5719 73.3978,-77.7379 77.7394,-75.9149 71.9056,-80.9039 71.9056,-80.9039"/>
<text text-anchor="start" x="278.85" y="-3.4" font-family="Lato" font-size="12.00">b</text>
</g>
<!-- 3&#45;&gt;3 -->
<g id="edge12" class="edge"><title>3&#45;&gt;3</title>
<path fill="none" stroke="black" d="M510.635,-171.754C510.104,-182.872 514.088,-192.113 522.588,-192.113 529.096,-192.113 532.957,-186.696 534.17,-179.167"/>
<polygon fill="black" stroke="black" points="534.541,-171.754 537.337,-178.903 534.366,-175.25 534.191,-178.746 534.191,-178.746 534.191,-178.746 534.366,-175.25 531.045,-178.588 534.541,-171.754 534.541,-171.754"/>
<text text-anchor="start" x="508.588" y="-195.513" font-family="Lato" font-size="12.00">a &amp; b</text>
</g>
<!-- 3&#45;&gt;4 -->
<g id="edge13" class="edge"><title>3&#45;&gt;4</title>
<path fill="none" stroke="black" d="M491.152,-143C445.46,-143 359.629,-143 313.881,-143"/>
<polygon fill="black" stroke="black" points="306.627,-143 313.627,-139.85 310.127,-143 313.627,-143 313.627,-143 313.627,-143 310.127,-143 313.627,-146.15 306.627,-143 306.627,-143"/>
<text text-anchor="start" x="384.934" y="-146.4" font-family="Lato" font-size="12.00">!a &amp; b</text>
</g>
<!-- 4&#45;&gt;0 -->
<g id="edge14" class="edge"><title>4&#45;&gt;0</title>
<path fill="none" stroke="black" d="M258.38,-138.791C218.649,-131.511 137.126,-116.574 93,-108.489"/>
<polygon fill="black" stroke="black" points="85.9919,-107.205 93.445,-105.368 89.4346,-107.836 92.8772,-108.467 92.8772,-108.467 92.8772,-108.467 89.4346,-107.836 92.3095,-111.565 85.9919,-107.205 85.9919,-107.205"/>
<text text-anchor="start" x="155.196" y="-129.4" font-family="Lato" font-size="12.00">!b</text>
</g>
<!-- 4&#45;&gt;2 -->
<g id="edge15" class="edge"><title>4&#45;&gt;2</title>
<path fill="none" stroke="black" d="M302.776,-130.055C323.279,-116.351 353.328,-96.1345 358.392,-92 365.135,-86.4938 372.064,-80.0786 378.263,-74.0191"/>
<polygon fill="black" stroke="black" points="383.278,-69.0404 380.53,-76.2075 380.794,-71.5062 378.31,-73.9719 378.31,-73.9719 378.31,-73.9719 380.794,-71.5062 376.091,-71.7362 383.278,-69.0404 383.278,-69.0404"/>
<text text-anchor="start" x="324.392" y="-117.4" font-family="Lato" font-size="12.00">!a &amp; !b</text>
</g>
<!-- 4&#45;&gt;3 -->
<g id="edge16" class="edge"><title>4&#45;&gt;3</title>
<path fill="none" stroke="black" d="M305.203,-151.677C311.321,-153.769 318.038,-155.757 324.392,-157 389.419,-169.721 408.195,-168.351 473.475,-157 477.538,-156.294 481.746,-155.369 485.907,-154.33"/>
<polygon fill="black" stroke="black" points="492.828,-152.495 486.87,-157.334 489.445,-153.392 486.062,-154.289 486.062,-154.289 486.062,-154.289 489.445,-153.392 485.255,-151.244 492.828,-152.495 492.828,-152.495"/>
<text text-anchor="start" x="384.934" y="-169.4" font-family="Lato" font-size="12.00">a &amp; !b</text>
</g>
</g>
</svg>
