<?xml version="1.0" encoding="UTF-8" standalone="no"?>
<?xml-stylesheet href="spot.css" type="text/css"?>
<!DOCTYPE svg PUBLIC "-//W3C//DTD SVG 1.1//EN"
 "http://www.w3.org/Graphics/SVG/1.1/DTD/svg11.dtd">
<!-- Generated by graphviz version 2.38.0 (20140413.2041)
 -->
<!-- Title: G Pages: 1 -->
<svg width="295pt" height="136pt"
 viewBox="0.00 0.00 295.00 136.00" xmlns="http://www.w3.org/2000/svg" xmlns:xlink="http://www.w3.org/1999/xlink">
<g id="graph0" class="graph" transform="scale(1 1) rotate(0) translate(4 132)">
<title>G</title>
<polygon fill="white" stroke="none" points="-4,4 -4,-132 291,-132 291,4 -4,4"/>
<!-- I -->
<!-- 2 -->
<g id="node2" class="node"><title>2</title>
<ellipse fill="#ffffa0" stroke="black" cx="56" cy="-75" rx="18" ry="18"/>
<text text-anchor="middle" x="56" y="-71.9" font-family="Lato" font-size="12.00">2</text>
</g>
<!-- I&#45;&gt;2 -->
<g id="edge1" class="edge"><title>I&#45;&gt;2</title>
<path fill="none" stroke="black" d="M1.15491,-75C2.79388,-75 17.1543,-75 30.6317,-75"/>
<polygon fill="black" stroke="black" points="37.9419,-75 30.9419,-78.1501 34.4419,-75 30.9419,-75.0001 30.9419,-75.0001 30.9419,-75.0001 34.4419,-75 30.9418,-71.8501 37.9419,-75 37.9419,-75"/>
</g>
<!-- 2&#45;&gt;2 -->
<g id="edge7" class="edge"><title>2&#45;&gt;2</title>
<path fill="none" stroke="#ff4da0" stroke-width="2" d="M49.6208,-92.0373C48.3189,-101.858 50.4453,-111 56,-111 60.166,-111 62.4036,-105.858 62.7128,-99.1433"/>
<polygon fill="#ff4da0" stroke="#ff4da0" stroke-width="2" points="62.3792,-92.0373 65.8541,-98.8818 63.0428,-95.51 63.207,-99.0062 62.7076,-99.0296 62.2081,-99.0531 62.0439,-95.5569 59.561,-99.1774 62.3792,-92.0373 62.3792,-92.0373"/>
<text text-anchor="start" x="41" y="-114.4" font-family="Lato" font-size="12.00">a &amp; !c</text>
</g>
<!-- 0 -->
<g id="node3" class="node"><title>0</title>
<ellipse fill="#ffffa0" stroke="black" cx="265" cy="-75" rx="18" ry="18"/>
<ellipse fill="none" stroke="black" cx="265" cy="-75" rx="22" ry="22"/>
<text text-anchor="middle" x="265" y="-71.9" font-family="Lato" font-size="12.00">0</text>
</g>
<!-- 2&#45;&gt;0 -->
<g id="edge5" class="edge"><title>2&#45;&gt;0</title>
<path fill="none" stroke="#ff4da0" stroke-width="2" d="M74.1694,-75.2841C101.016,-75.6914 154.568,-76.3549 200,-76 211.759,-75.9081 224.732,-75.7214 235.906,-75.5338"/>
<polygon fill="#ff4da0" stroke="#ff4da0" stroke-width="2" points="242.959,-75.4115 236.014,-78.6825 239.468,-75.9721 235.968,-76.0329 235.96,-75.533 235.951,-75.0331 239.45,-74.9723 235.905,-72.3835 242.959,-75.4115 242.959,-75.4115"/>
<text text-anchor="start" x="178.5" y="-79.4" font-family="Lato" font-size="12.00">c</text>
</g>
<!-- 1 -->
<g id="node4" class="node"><title>1</title>
<ellipse fill="#ffffa0" stroke="black" cx="182" cy="-18" rx="18" ry="18"/>
<text text-anchor="start" x="178.5" y="-14.9" font-family="Lato" font-size="12.00">1</text>
</g>
<!-- 2&#45;&gt;1 -->
<g id="edge6" class="edge"><title>2&#45;&gt;1</title>
<path fill="none" stroke="black" d="M72.7047,-67.7809C94.5069,-57.7589 134.054,-39.5801 158.848,-28.1828"/>
<polygon fill="black" stroke="black" points="165.423,-25.1605 160.378,-30.9463 162.243,-26.6223 159.063,-28.0842 159.063,-28.0842 159.063,-28.0842 162.243,-26.6223 157.747,-25.2221 165.423,-25.1605 165.423,-25.1605"/>
<text text-anchor="start" x="92" y="-61.4" font-family="Lato" font-size="12.00">!a &amp; b &amp; !c</text>
</g>
<!-- 0&#45;&gt;0 -->
<g id="edge2" class="edge"><title>0&#45;&gt;0</title>
<path fill="none" stroke="#ff4da0" stroke-width="2" d="M257.317,-95.9908C256.369,-106.087 258.93,-115 265,-115 269.553,-115 272.131,-109.987 272.736,-103.22"/>
<polygon fill="#ff4da0" stroke="#ff4da0" stroke-width="2" points="272.683,-95.9908 275.884,-102.967 273.209,-99.487 273.234,-102.987 272.734,-102.991 272.235,-102.994 272.209,-99.4944 269.585,-103.014 272.683,-95.9908 272.683,-95.9908"/>
<text text-anchor="start" x="261.5" y="-118.4" font-family="Lato" font-size="12.00">1</text>
</g>
<!-- 1&#45;&gt;0 -->
<g id="edge3" class="edge"><title>1&#45;&gt;0</title>
<path fill="none" stroke="black" d="M197.109,-27.9286C209.166,-36.413 226.75,-48.7868 240.863,-58.7185"/>
<polygon fill="black" stroke="black" points="246.673,-62.807 239.136,-61.3546 243.811,-60.7928 240.949,-58.7785 240.949,-58.7785 240.949,-58.7785 243.811,-60.7928 242.761,-56.2024 246.673,-62.807 246.673,-62.807"/>
<text text-anchor="start" x="218" y="-49.4" font-family="Lato" font-size="12.00">c</text>
</g>
<!-- 1&#45;&gt;1 -->
<g id="edge4" class="edge"><title>1&#45;&gt;1</title>
<path fill="none" stroke="black" d="M175.266,-35.0373C173.892,-44.8579 176.137,-54 182,-54 186.397,-54 188.759,-48.8576 189.086,-42.1433"/>
<polygon fill="black" stroke="black" points="188.734,-35.0373 192.226,-41.8728 188.907,-38.533 189.08,-42.0287 189.08,-42.0287 189.08,-42.0287 188.907,-38.533 185.934,-42.1847 188.734,-35.0373 188.734,-35.0373"/>
<text text-anchor="start" x="166.5" y="-57.4" font-family="Lato" font-size="12.00">b &amp; !c</text>
</g>
</g>
</svg>
