<?xml version="1.0" encoding="UTF-8" standalone="no"?>
<?xml-stylesheet href="spot.css" type="text/css"?>
<!DOCTYPE svg PUBLIC "-//W3C//DTD SVG 1.1//EN"
 "http://www.w3.org/Graphics/SVG/1.1/DTD/svg11.dtd">
<!-- Generated by graphviz version 2.38.0 (20140413.2041)
 -->
<!-- Title: G Pages: 1 -->
<svg width="188pt" height="119pt"
 viewBox="0.00 0.00 188.17 119.08" xmlns="http://www.w3.org/2000/svg" xmlns:xlink="http://www.w3.org/1999/xlink">
<g id="graph0" class="graph" transform="scale(1 1) rotate(0) translate(4 115.083)">
<title>G</title>
<polygon fill="white" stroke="none" points="-4,4 -4,-115.083 184.167,-115.083 184.167,4 -4,4"/>
<text text-anchor="start" x="51.0833" y="-98.4833" font-family="Lato" font-size="12.00">Fin(</text>
<text text-anchor="start" x="71.0833" y="-98.4833" font-family="Lato" font-size="12.00" fill="#1f78b4">⓿</text>
<text text-anchor="start" x="85.0833" y="-98.4833" font-family="Lato" font-size="12.00">)|Fin(</text>
<text text-anchor="start" x="111.083" y="-98.4833" font-family="Lato" font-size="12.00" fill="#ff4da0">❶</text>
<text text-anchor="start" x="125.083" y="-98.4833" font-family="Lato" font-size="12.00">)</text>
<text text-anchor="start" x="45.0833" y="-86.4833" font-family="Lato" font-size="12.00">[gen. co&#45;Büchi 2]</text>
<!-- I -->
<!-- 0 -->
<g id="node2" class="node"><title>0</title>
<ellipse fill="#ffffa0" stroke="black" cx="62.0416" cy="-24.0416" rx="24.0833" ry="24.0833"/>
<text text-anchor="start" x="58.5416" y="-27.4416" font-family="Lato" font-size="12.00">0</text>
<text text-anchor="start" x="55.0416" y="-14.4416" font-family="Lato" font-size="12.00" fill="#1f78b4">⓿</text>
</g>
<!-- I&#45;&gt;0 -->
<g id="edge1" class="edge"><title>I&#45;&gt;0</title>
<path fill="none" stroke="black" d="M1.04352,-24.0416C1.9346,-24.0416 16.3644,-24.0416 30.8478,-24.0416"/>
<polygon fill="black" stroke="black" points="37.9031,-24.0416 30.9032,-27.1917 34.4031,-24.0417 30.9031,-24.0417 30.9031,-24.0417 30.9031,-24.0417 34.4031,-24.0417 30.9031,-20.8917 37.9031,-24.0416 37.9031,-24.0416"/>
</g>
<!-- 0&#45;&gt;0 -->
<g id="edge2" class="edge"><title>0&#45;&gt;0</title>
<path fill="none" stroke="black" d="M54.2897,-46.9613C53.5514,-57.2151 56.1354,-66.0833 62.0416,-66.0833 66.4713,-66.0833 69.0322,-61.0949 69.7244,-54.2749"/>
<polygon fill="black" stroke="black" points="69.7936,-46.9613 72.8771,-53.9908 69.7604,-50.4611 69.7272,-53.961 69.7272,-53.961 69.7272,-53.961 69.7604,-50.4611 66.5774,-53.9311 69.7936,-46.9613 69.7936,-46.9613"/>
<text text-anchor="start" x="58.5416" y="-69.4833" font-family="Lato" font-size="12.00">a</text>
</g>
<!-- 1 -->
<g id="node3" class="node"><title>1</title>
<ellipse fill="#ffffa0" stroke="black" cx="156.125" cy="-24.0416" rx="24.0833" ry="24.0833"/>
<text text-anchor="start" x="152.625" y="-27.4416" font-family="Lato" font-size="12.00">1</text>
<text text-anchor="start" x="149.125" y="-14.4416" font-family="Lato" font-size="12.00" fill="#ff4da0">❶</text>
</g>
<!-- 0&#45;&gt;1 -->
<g id="edge3" class="edge"><title>0&#45;&gt;1</title>
<path fill="none" stroke="black" d="M86.2781,-24.0416C97.9471,-24.0416 112.231,-24.0416 124.757,-24.0416"/>
<polygon fill="black" stroke="black" points="131.896,-24.0416 124.896,-27.1917 128.396,-24.0417 124.896,-24.0417 124.896,-24.0417 124.896,-24.0417 128.396,-24.0417 124.896,-20.8917 131.896,-24.0416 131.896,-24.0416"/>
<text text-anchor="start" x="104.083" y="-27.4416" font-family="Lato" font-size="12.00">!a</text>
</g>
<!-- 1&#45;&gt;0 -->
<g id="edge4" class="edge"><title>1&#45;&gt;0</title>
<path fill="none" stroke="black" d="M134.322,-13.5758C127.985,-10.8989 120.891,-8.39578 114.083,-7.04163 106.088,-5.45125 97.6112,-6.92143 89.9109,-9.5501"/>
<polygon fill="black" stroke="black" points="83.0935,-12.2353 88.4521,-6.73907 86.35,-10.9526 89.6065,-9.66993 89.6065,-9.66993 89.6065,-9.66993 86.35,-10.9526 90.761,-12.6008 83.0935,-12.2353 83.0935,-12.2353"/>
<text text-anchor="start" x="104.083" y="-10.4416" font-family="Lato" font-size="12.00">!b</text>
</g>
<!-- 1&#45;&gt;1 -->
<g id="edge5" class="edge"><title>1&#45;&gt;1</title>
<path fill="none" stroke="black" d="M147.635,-46.9613C146.826,-57.2151 149.656,-66.0833 156.125,-66.0833 160.976,-66.0833 163.781,-61.0949 164.539,-54.2749"/>
<polygon fill="black" stroke="black" points="164.615,-46.9613 167.692,-53.9936 164.579,-50.4611 164.542,-53.9609 164.542,-53.9609 164.542,-53.9609 164.579,-50.4611 161.393,-53.9282 164.615,-46.9613 164.615,-46.9613"/>
<text text-anchor="start" x="152.625" y="-69.4833" font-family="Lato" font-size="12.00">b</text>
</g>
</g>
</svg>
