<?xml version="1.0" encoding="UTF-8" standalone="no"?>
<?xml-stylesheet href="spot.css" type="text/css"?>
<!DOCTYPE svg PUBLIC "-//W3C//DTD SVG 1.1//EN"
 "http://www.w3.org/Graphics/SVG/1.1/DTD/svg11.dtd">
<!-- Generated by graphviz version 2.38.0 (20140413.2041)
 -->
<!-- Title: G Pages: 1 -->
<svg width="276pt" height="136pt"
 viewBox="0.00 0.00 276.08 136.00" xmlns="http://www.w3.org/2000/svg" xmlns:xlink="http://www.w3.org/1999/xlink">
<g id="graph0" class="graph" transform="scale(1 1) rotate(0) translate(4 132)">
<title>G</title>
<polygon fill="white" stroke="none" points="-4,4 -4,-132 272.083,-132 272.083,4 -4,4"/>
<text text-anchor="start" x="65.5416" y="-115.4" font-family="Lato" font-size="12.00">Inf(</text>
<text text-anchor="start" x="83.5416" y="-115.4" font-family="Lato" font-size="12.00" fill="#ff7f00">❷</text>
<text text-anchor="start" x="97.5416" y="-115.4" font-family="Lato" font-size="12.00">) | (Fin(</text>
<text text-anchor="start" x="132.542" y="-115.4" font-family="Lato" font-size="12.00" fill="#ff4da0">❶</text>
<text text-anchor="start" x="146.542" y="-115.4" font-family="Lato" font-size="12.00">) &amp; Inf(</text>
<text text-anchor="start" x="181.542" y="-115.4" font-family="Lato" font-size="12.00" fill="#1f78b4">⓿</text>
<text text-anchor="start" x="195.542" y="-115.4" font-family="Lato" font-size="12.00">))</text>
<text text-anchor="start" x="83.5416" y="-103.4" font-family="Lato" font-size="12.00">[parity max even 3]</text>
<!-- I -->
<!-- 0 -->
<g id="node2" class="node"><title>0</title>
<ellipse fill="#ffffa0" stroke="black" cx="56" cy="-18" rx="18" ry="18"/>
<text text-anchor="middle" x="56" y="-14.9" font-family="Lato" font-size="12.00">0</text>
</g>
<!-- I&#45;&gt;0 -->
<g id="edge1" class="edge"><title>I&#45;&gt;0</title>
<path fill="none" stroke="black" d="M1.15491,-18C2.79388,-18 17.1543,-18 30.6317,-18"/>
<polygon fill="black" stroke="black" points="37.9419,-18 30.9419,-21.1501 34.4419,-18 30.9419,-18.0001 30.9419,-18.0001 30.9419,-18.0001 34.4419,-18 30.9418,-14.8501 37.9419,-18 37.9419,-18"/>
</g>
<!-- 0&#45;&gt;0 -->
<g id="edge2" class="edge"><title>0&#45;&gt;0</title>
<path fill="none" stroke="black" d="M49.6208,-35.0373C48.3189,-44.8579 50.4453,-54 56,-54 60.166,-54 62.4036,-48.8576 62.7128,-42.1433"/>
<polygon fill="black" stroke="black" points="62.3792,-35.0373 65.8541,-41.8818 62.5434,-38.5335 62.7076,-42.0296 62.7076,-42.0296 62.7076,-42.0296 62.5434,-38.5335 59.561,-42.1774 62.3792,-35.0373 62.3792,-35.0373"/>
<text text-anchor="start" x="51" y="-57.4" font-family="Lato" font-size="12.00">!b</text>
</g>
<!-- 1 -->
<g id="node3" class="node"><title>1</title>
<ellipse fill="#ffffa0" stroke="black" cx="135" cy="-47" rx="18" ry="18"/>
<text text-anchor="middle" x="135" y="-43.9" font-family="Lato" font-size="12.00">1</text>
</g>
<!-- 0&#45;&gt;1 -->
<g id="edge3" class="edge"><title>0&#45;&gt;1</title>
<path fill="none" stroke="black" d="M73.3297,-24.1502C84.3269,-28.2919 98.9849,-33.8125 111.138,-38.3897"/>
<polygon fill="black" stroke="black" points="117.958,-40.9582 110.297,-41.4388 114.682,-39.7245 111.407,-38.4909 111.407,-38.4909 111.407,-38.4909 114.682,-39.7245 112.517,-35.543 117.958,-40.9582 117.958,-40.9582"/>
<text text-anchor="start" x="92" y="-36.4" font-family="Lato" font-size="12.00">b</text>
</g>
<!-- 1&#45;&gt;1 -->
<g id="edge4" class="edge"><title>1&#45;&gt;1</title>
<path fill="none" stroke="black" d="M128.266,-64.0373C126.892,-73.8579 129.137,-83 135,-83 139.397,-83 141.759,-77.8576 142.086,-71.1433"/>
<polygon fill="black" stroke="black" points="141.734,-64.0373 145.226,-70.8728 141.907,-67.533 142.08,-71.0287 142.08,-71.0287 142.08,-71.0287 141.907,-67.533 138.934,-71.1847 141.734,-64.0373 141.734,-64.0373"/>
<text text-anchor="start" x="130" y="-86.4" font-family="Lato" font-size="12.00">!a</text>
</g>
<!-- 2 -->
<g id="node4" class="node"><title>2</title>
<ellipse fill="#ffffa0" stroke="black" cx="244.042" cy="-31" rx="24.0833" ry="24.0833"/>
<text text-anchor="start" x="240.542" y="-34.4" font-family="Lato" font-size="12.00">2</text>
<text text-anchor="start" x="237.042" y="-21.4" font-family="Lato" font-size="12.00" fill="#1f78b4">⓿</text>
</g>
<!-- 1&#45;&gt;2 -->
<g id="edge5" class="edge"><title>1&#45;&gt;2</title>
<path fill="none" stroke="black" d="M153.24,-47.872C166.643,-48.2154 185.645,-47.968 202,-45 206.081,-44.2594 210.306,-43.1892 214.425,-41.9655"/>
<polygon fill="black" stroke="black" points="221.211,-39.7923 215.505,-44.9272 217.878,-40.8598 214.544,-41.9273 214.544,-41.9273 214.544,-41.9273 217.878,-40.8598 213.584,-38.9274 221.211,-39.7923 221.211,-39.7923"/>
<text text-anchor="start" x="183" y="-50.4" font-family="Lato" font-size="12.00">a</text>
</g>
<!-- 2&#45;&gt;0 -->
<g id="edge6" class="edge"><title>2&#45;&gt;0</title>
<path fill="none" stroke="black" d="M221.163,-23.45C203.126,-17.6453 176.741,-10.1097 153,-7 137.136,-4.92199 132.934,-5.55143 117,-7 104.888,-8.10112 91.5678,-10.428 80.5613,-12.6594"/>
<polygon fill="black" stroke="black" points="73.6986,-14.098 79.9033,-9.57874 77.1241,-13.3799 80.5496,-12.6617 80.5496,-12.6617 80.5496,-12.6617 77.1241,-13.3799 81.196,-15.7447 73.6986,-14.098 73.6986,-14.098"/>
<text text-anchor="start" x="122.5" y="-10.4" font-family="Lato" font-size="12.00">a | !b</text>
</g>
<!-- 2&#45;&gt;1 -->
<g id="edge7" class="edge"><title>2&#45;&gt;1</title>
<path fill="none" stroke="black" d="M220.306,-26.7501C205.952,-24.8722 187.137,-23.9024 171,-28 166.137,-29.2348 161.219,-31.296 156.668,-33.6161"/>
<polygon fill="black" stroke="black" points="150.311,-37.1343 154.91,-30.9885 153.374,-35.4394 156.436,-33.7445 156.436,-33.7445 156.436,-33.7445 153.374,-35.4394 157.961,-36.5006 150.311,-37.1343 150.311,-37.1343"/>
<text text-anchor="start" x="171" y="-31.4" font-family="Lato" font-size="12.00">!a &amp; b</text>
</g>
</g>
</svg>
