<?xml version="1.0" encoding="UTF-8" standalone="no"?>
<?xml-stylesheet href="spot.css" type="text/css"?>
<!DOCTYPE svg PUBLIC "-//W3C//DTD SVG 1.1//EN"
 "http://www.w3.org/Graphics/SVG/1.1/DTD/svg11.dtd">
<!-- Generated by graphviz version 2.38.0 (20140413.2041)
 -->
<!-- Title: G Pages: 1 -->
<svg width="218pt" height="246pt"
 viewBox="0.00 0.00 218.00 246.00" xmlns="http://www.w3.org/2000/svg" xmlns:xlink="http://www.w3.org/1999/xlink">
<g id="graph0" class="graph" transform="scale(1 1) rotate(0) translate(4 242)">
<title>G</title>
<polygon fill="white" stroke="none" points="-4,4 -4,-242 214,-242 214,4 -4,4"/>
<text text-anchor="start" x="8" y="-225.4" font-family="Lato" font-size="12.00">(Fin(</text>
<text text-anchor="start" x="31" y="-225.4" font-family="Lato" font-size="12.00" fill="#1f78b4">⓿</text>
<text text-anchor="start" x="45" y="-225.4" font-family="Lato" font-size="12.00">) &amp; Inf(</text>
<text text-anchor="start" x="80" y="-225.4" font-family="Lato" font-size="12.00" fill="#ff4da0">❶</text>
<text text-anchor="start" x="94" y="-225.4" font-family="Lato" font-size="12.00">)) | (Fin(</text>
<text text-anchor="start" x="132" y="-225.4" font-family="Lato" font-size="12.00" fill="#ff7f00">❷</text>
<text text-anchor="start" x="146" y="-225.4" font-family="Lato" font-size="12.00">) &amp; Inf(</text>
<text text-anchor="start" x="181" y="-225.4" font-family="Lato" font-size="12.00" fill="#6a3d9a">❸</text>
<text text-anchor="start" x="195" y="-225.4" font-family="Lato" font-size="12.00">))</text>
<text text-anchor="start" x="81" y="-213.4" font-family="Lato" font-size="12.00">[Rabin 2]</text>
<!-- I -->
<!-- 0 -->
<g id="node2" class="node"><title>0</title>
<ellipse fill="#ffffa0" stroke="black" cx="124" cy="-18" rx="18" ry="18"/>
<text text-anchor="middle" x="124" y="-14.9" font-family="Lato" font-size="12.00">0</text>
</g>
<!-- I&#45;&gt;0 -->
<g id="edge1" class="edge"><title>I&#45;&gt;0</title>
<path fill="none" stroke="black" d="M69.1549,-18C70.7939,-18 85.1543,-18 98.6317,-18"/>
<polygon fill="black" stroke="black" points="105.942,-18 98.9419,-21.1501 102.442,-18 98.9419,-18.0001 98.9419,-18.0001 98.9419,-18.0001 102.442,-18 98.9418,-14.8501 105.942,-18 105.942,-18"/>
</g>
<!-- 0&#45;&gt;0 -->
<g id="edge2" class="edge"><title>0&#45;&gt;0</title>
<path fill="none" stroke="black" d="M122.372,-36.1527C122.121,-45.5391 122.664,-54 124,-54 124.981,-54 125.534,-49.437 125.66,-43.2953"/>
<polygon fill="black" stroke="black" points="125.628,-36.1527 128.809,-43.1386 125.644,-39.6527 125.659,-43.1526 125.659,-43.1526 125.659,-43.1526 125.644,-39.6527 122.509,-43.1667 125.628,-36.1527 125.628,-36.1527"/>
<text text-anchor="start" x="107" y="-69.4" font-family="Lato" font-size="12.00">!a &amp; !b</text>
<text text-anchor="start" x="110" y="-57.4" font-family="Lato" font-size="12.00" fill="#1f78b4">⓿</text>
<text text-anchor="start" x="124" y="-57.4" font-family="Lato" font-size="12.00" fill="#ff7f00">❷</text>
</g>
<!-- 0&#45;&gt;0 -->
<g id="edge3" class="edge"><title>0&#45;&gt;0</title>
<path fill="none" stroke="black" d="M121.392,-35.8814C119.808,-55.1075 120.678,-78 124,-78 126.907,-78 127.936,-60.4729 127.087,-43.2112"/>
<polygon fill="black" stroke="black" points="126.608,-35.8814 130.208,-42.6612 126.837,-39.374 127.065,-42.8665 127.065,-42.8665 127.065,-42.8665 126.837,-39.374 123.922,-43.0719 126.608,-35.8814 126.608,-35.8814"/>
<text text-anchor="start" x="108.5" y="-93.4" font-family="Lato" font-size="12.00">a &amp; !b</text>
<text text-anchor="start" x="110" y="-81.4" font-family="Lato" font-size="12.00" fill="#ff4da0">❶</text>
<text text-anchor="start" x="124" y="-81.4" font-family="Lato" font-size="12.00" fill="#ff7f00">❷</text>
</g>
<!-- 0&#45;&gt;0 -->
<g id="edge4" class="edge"><title>0&#45;&gt;0</title>
<path fill="none" stroke="black" d="M120.77,-35.871C117.518,-63.525 118.595,-102 124,-102 128.962,-102 130.276,-69.5784 127.943,-42.8677"/>
<polygon fill="black" stroke="black" points="127.23,-35.871 131.074,-42.5157 127.585,-39.353 127.94,-42.835 127.94,-42.835 127.94,-42.835 127.585,-39.353 124.806,-43.1543 127.23,-35.871 127.23,-35.871"/>
<text text-anchor="start" x="110" y="-118.4" font-family="Lato" font-size="12.00">a &amp; b</text>
<text text-anchor="start" x="117" y="-105.4" font-family="Lato" font-size="12.00" fill="#6a3d9a">❸</text>
</g>
<!-- 0&#45;&gt;0 -->
<g id="edge5" class="edge"><title>0&#45;&gt;0</title>
<path fill="none" stroke="black" d="M120.368,-35.7275C115.231,-71.573 116.441,-128 124,-128 131.086,-128 132.593,-78.406 128.521,-42.6709"/>
<polygon fill="black" stroke="black" points="127.632,-35.7275 131.645,-42.2708 128.076,-39.1992 128.521,-42.6709 128.521,-42.6709 128.521,-42.6709 128.076,-39.1992 125.396,-43.0709 127.632,-35.7275 127.632,-35.7275"/>
<text text-anchor="start" x="108.5" y="-143.4" font-family="Lato" font-size="12.00">!a &amp; b</text>
<text text-anchor="start" x="110" y="-131.4" font-family="Lato" font-size="12.00" fill="#1f78b4">⓿</text>
<text text-anchor="start" x="124" y="-131.4" font-family="Lato" font-size="12.00" fill="#6a3d9a">❸</text>
</g>
</g>
</svg>
