<?xml version="1.0" encoding="UTF-8" standalone="no"?>
<?xml-stylesheet href="spot.css" type="text/css"?>
<!DOCTYPE svg PUBLIC "-//W3C//DTD SVG 1.1//EN"
 "http://www.w3.org/Graphics/SVG/1.1/DTD/svg11.dtd">
<!-- Generated by graphviz version 2.38.0 (20140413.2041)
 -->
<!-- Title: G Pages: 1 -->
<svg width="305pt" height="121pt"
 viewBox="0.00 0.00 305.00 121.01" xmlns="http://www.w3.org/2000/svg" xmlns:xlink="http://www.w3.org/1999/xlink">
<g id="graph0" class="graph" transform="scale(1 1) rotate(0) translate(4 117.011)">
<title>G</title>
<polygon fill="white" stroke="none" points="-4,4 -4,-117.011 301,-117.011 301,4 -4,4"/>
<text text-anchor="start" x="8" y="-100.411" font-family="Lato" font-size="12.00">(Inf(</text>
<text text-anchor="start" x="29" y="-100.411" font-family="Lato" font-size="12.00" fill="#1f78b4">⓿</text>
<text text-anchor="start" x="43" y="-100.411" font-family="Lato" font-size="12.00">) &amp; Fin(</text>
<text text-anchor="start" x="80" y="-100.411" font-family="Lato" font-size="12.00" fill="#ff4da0">❶</text>
<text text-anchor="start" x="94" y="-100.411" font-family="Lato" font-size="12.00">) &amp; Fin(</text>
<text text-anchor="start" x="131" y="-100.411" font-family="Lato" font-size="12.00" fill="#6a3d9a">❸</text>
<text text-anchor="start" x="145" y="-100.411" font-family="Lato" font-size="12.00">)) | (Inf(</text>
<text text-anchor="start" x="181" y="-100.411" font-family="Lato" font-size="12.00" fill="#ff7f00">❷</text>
<text text-anchor="start" x="195" y="-100.411" font-family="Lato" font-size="12.00">)&amp;Inf(</text>
<text text-anchor="start" x="224" y="-100.411" font-family="Lato" font-size="12.00" fill="#6a3d9a">❸</text>
<text text-anchor="start" x="238" y="-100.411" font-family="Lato" font-size="12.00">)) | Inf(</text>
<text text-anchor="start" x="271" y="-100.411" font-family="Lato" font-size="12.00" fill="#ff4da0">❶</text>
<text text-anchor="start" x="285" y="-100.411" font-family="Lato" font-size="12.00">)</text>
<!-- I -->
<!-- 0 -->
<g id="node2" class="node"><title>0</title>
<ellipse fill="#ffffa0" stroke="black" cx="117.5" cy="-30.0115" rx="18" ry="18"/>
<text text-anchor="middle" x="117.5" y="-26.9115" font-family="Lato" font-size="12.00">0</text>
</g>
<!-- I&#45;&gt;0 -->
<g id="edge1" class="edge"><title>I&#45;&gt;0</title>
<path fill="none" stroke="black" d="M62.6549,-30.0115C64.2939,-30.0115 78.6543,-30.0115 92.1317,-30.0115"/>
<polygon fill="black" stroke="black" points="99.4419,-30.0115 92.4419,-33.1616 95.9419,-30.0115 92.4419,-30.0116 92.4419,-30.0116 92.4419,-30.0116 95.9419,-30.0115 92.4418,-26.8616 99.4419,-30.0115 99.4419,-30.0115"/>
</g>
<!-- 0&#45;&gt;0 -->
<g id="edge2" class="edge"><title>0&#45;&gt;0</title>
<path fill="none" stroke="black" d="M111.121,-47.0488C109.819,-56.8694 111.945,-66.0115 117.5,-66.0115 121.666,-66.0115 123.904,-60.8691 124.213,-54.1548"/>
<polygon fill="black" stroke="black" points="123.879,-47.0488 127.354,-53.8933 124.043,-50.5449 124.208,-54.0411 124.208,-54.0411 124.208,-54.0411 124.043,-50.5449 121.061,-54.1889 123.879,-47.0488 123.879,-47.0488"/>
<text text-anchor="start" x="114" y="-82.4115" font-family="Lato" font-size="12.00">1</text>
<text text-anchor="start" x="110.5" y="-69.4115" font-family="Lato" font-size="12.00" fill="#6a3d9a">❸</text>
</g>
<!-- 1 -->
<g id="node3" class="node"><title>1</title>
<ellipse fill="#ffffa0" stroke="black" cx="217.5" cy="-30.0115" rx="18" ry="18"/>
<text text-anchor="middle" x="217.5" y="-26.9115" font-family="Lato" font-size="12.00">1</text>
</g>
<!-- 0&#45;&gt;1 -->
<g id="edge3" class="edge"><title>0&#45;&gt;1</title>
<path fill="none" stroke="black" d="M135.571,-31.769C141.266,-32.2768 147.651,-32.7613 153.5,-33.0115 165.933,-33.5434 169.067,-33.5434 181.5,-33.0115 184.973,-32.8629 188.635,-32.6318 192.229,-32.3622"/>
<polygon fill="black" stroke="black" points="199.429,-31.769 192.711,-35.4832 195.941,-32.0564 192.453,-32.3438 192.453,-32.3438 192.453,-32.3438 195.941,-32.0564 192.194,-29.2045 199.429,-31.769 199.429,-31.769"/>
<text text-anchor="start" x="164" y="-48.4115" font-family="Lato" font-size="12.00">1</text>
<text text-anchor="start" x="153.5" y="-36.4115" font-family="Lato" font-size="12.00" fill="#ff4da0">❶</text>
<text text-anchor="start" x="167.5" y="-36.4115" font-family="Lato" font-size="12.00" fill="#6a3d9a">❸</text>
</g>
<!-- 1&#45;&gt;0 -->
<g id="edge4" class="edge"><title>1&#45;&gt;0</title>
<path fill="none" stroke="black" d="M204.426,-17.4799C198.177,-11.8982 190.071,-5.93339 181.5,-3.01148 169.721,1.00383 165.279,1.00383 153.5,-3.01148 147.339,-5.1116 141.419,-8.78368 136.256,-12.7556"/>
<polygon fill="black" stroke="black" points="130.574,-17.4799 133.943,-10.5824 133.266,-15.2422 135.957,-13.0045 135.957,-13.0045 135.957,-13.0045 133.266,-15.2422 137.971,-15.4267 130.574,-17.4799 130.574,-17.4799"/>
<text text-anchor="start" x="164" y="-19.4115" font-family="Lato" font-size="12.00">b</text>
<text text-anchor="start" x="160.5" y="-6.41148" font-family="Lato" font-size="12.00" fill="#6a3d9a">❸</text>
</g>
<!-- 1&#45;&gt;1 -->
<g id="edge5" class="edge"><title>1&#45;&gt;1</title>
<path fill="none" stroke="black" d="M208.867,-45.9275C206.614,-56.1619 209.492,-66.0115 217.5,-66.0115 223.631,-66.0115 226.755,-60.2378 226.872,-52.9383"/>
<polygon fill="black" stroke="black" points="226.133,-45.9275 229.999,-52.5591 226.5,-49.4083 226.867,-52.889 226.867,-52.889 226.867,-52.889 226.5,-49.4083 223.734,-53.2189 226.133,-45.9275 226.133,-45.9275"/>
<text text-anchor="start" x="214" y="-81.4115" font-family="Lato" font-size="12.00">b</text>
<text text-anchor="start" x="203.5" y="-69.4115" font-family="Lato" font-size="12.00" fill="#1f78b4">⓿</text>
<text text-anchor="start" x="217.5" y="-69.4115" font-family="Lato" font-size="12.00" fill="#6a3d9a">❸</text>
</g>
</g>
</svg>
