<?xml version="1.0" encoding="UTF-8" standalone="no"?>
<?xml-stylesheet href="spot.css" type="text/css"?>
<!DOCTYPE svg PUBLIC "-//W3C//DTD SVG 1.1//EN"
 "http://www.w3.org/Graphics/SVG/1.1/DTD/svg11.dtd">
<!-- Generated by graphviz version 2.38.0 (20140413.2041)
 -->
<!-- Title: G Pages: 1 -->
<svg width="218pt" height="133pt"
 viewBox="0.00 0.00 218.00 133.23" xmlns="http://www.w3.org/2000/svg" xmlns:xlink="http://www.w3.org/1999/xlink">
<g id="graph0" class="graph" transform="scale(1 1) rotate(0) translate(4 129.225)">
<title>G</title>
<polygon fill="white" stroke="none" points="-4,4 -4,-129.225 214,-129.225 214,4 -4,4"/>
<text text-anchor="start" x="8" y="-112.625" font-family="Lato" font-size="12.00">(Fin(</text>
<text text-anchor="start" x="31" y="-112.625" font-family="Lato" font-size="12.00" fill="#1f78b4">⓿</text>
<text text-anchor="start" x="45" y="-112.625" font-family="Lato" font-size="12.00">) &amp; Inf(</text>
<text text-anchor="start" x="80" y="-112.625" font-family="Lato" font-size="12.00" fill="#ff4da0">❶</text>
<text text-anchor="start" x="94" y="-112.625" font-family="Lato" font-size="12.00">)) | (Fin(</text>
<text text-anchor="start" x="132" y="-112.625" font-family="Lato" font-size="12.00" fill="#ff7f00">❷</text>
<text text-anchor="start" x="146" y="-112.625" font-family="Lato" font-size="12.00">) &amp; Inf(</text>
<text text-anchor="start" x="181" y="-112.625" font-family="Lato" font-size="12.00" fill="#6a3d9a">❸</text>
<text text-anchor="start" x="195" y="-112.625" font-family="Lato" font-size="12.00">))</text>
<text text-anchor="start" x="81" y="-100.625" font-family="Lato" font-size="12.00">[Rabin 2]</text>
<!-- I -->
<!-- 0 -->
<g id="node2" class="node"><title>0</title>
<ellipse fill="#ffffa0" stroke="black" cx="69.8873" cy="-31.1127" rx="31.2258" ry="31.2258"/>
<text text-anchor="start" x="66.3873" y="-34.5127" font-family="Lato" font-size="12.00">0</text>
<text text-anchor="start" x="55.8873" y="-22.5127" font-family="Lato" font-size="12.00" fill="#ff4da0">❶</text>
<text text-anchor="start" x="69.8873" y="-22.5127" font-family="Lato" font-size="12.00" fill="#ff7f00">❷</text>
</g>
<!-- I&#45;&gt;0 -->
<g id="edge1" class="edge"><title>I&#45;&gt;0</title>
<path fill="none" stroke="black" d="M1.82325,-31.1127C2.73741,-31.1127 16.3993,-31.1127 31.1553,-31.1127"/>
<polygon fill="black" stroke="black" points="38.436,-31.1127 31.4361,-34.2628 34.936,-31.1127 31.436,-31.1128 31.436,-31.1128 31.436,-31.1128 34.936,-31.1127 31.436,-27.9628 38.436,-31.1127 38.436,-31.1127"/>
</g>
<!-- 0&#45;&gt;0 -->
<g id="edge2" class="edge"><title>0&#45;&gt;0</title>
<path fill="none" stroke="black" d="M60.8895,-61.327C60.7943,-71.7822 63.7936,-80.2254 69.8873,-80.2254 74.4576,-80.2254 77.2873,-75.4761 78.3763,-68.6907"/>
<polygon fill="black" stroke="black" points="78.8851,-61.327 81.545,-68.5276 78.6438,-64.8187 78.4025,-68.3104 78.4025,-68.3104 78.4025,-68.3104 78.6438,-64.8187 75.26,-68.0932 78.8851,-61.327 78.8851,-61.327"/>
<text text-anchor="start" x="66.3873" y="-83.6254" font-family="Lato" font-size="12.00">a</text>
</g>
<!-- 1 -->
<g id="node3" class="node"><title>1</title>
<ellipse fill="#ffffa0" stroke="black" cx="178.113" cy="-31.1127" rx="31.2258" ry="31.2258"/>
<text text-anchor="start" x="174.613" y="-34.5127" font-family="Lato" font-size="12.00">1</text>
<text text-anchor="start" x="164.113" y="-22.5127" font-family="Lato" font-size="12.00" fill="#1f78b4">⓿</text>
<text text-anchor="start" x="178.113" y="-22.5127" font-family="Lato" font-size="12.00" fill="#6a3d9a">❸</text>
</g>
<!-- 0&#45;&gt;1 -->
<g id="edge3" class="edge"><title>0&#45;&gt;1</title>
<path fill="none" stroke="black" d="M101.043,-31.1127C113.041,-31.1127 126.975,-31.1127 139.614,-31.1127"/>
<polygon fill="black" stroke="black" points="146.881,-31.1127 139.882,-34.2628 143.381,-31.1127 139.881,-31.1128 139.881,-31.1128 139.881,-31.1128 143.381,-31.1127 139.881,-27.9628 146.881,-31.1127 146.881,-31.1127"/>
<text text-anchor="start" x="119" y="-34.5127" font-family="Lato" font-size="12.00">!a</text>
</g>
<!-- 1&#45;&gt;0 -->
<g id="edge4" class="edge"><title>1&#45;&gt;0</title>
<path fill="none" stroke="black" d="M149.924,-17.7889C140.272,-14.4978 129.257,-12.3539 119,-14.1127 114.645,-14.8594 110.161,-15.9605 105.763,-17.2494"/>
<polygon fill="black" stroke="black" points="98.9544,-19.4056 104.677,-14.2892 102.291,-18.3489 105.628,-17.2922 105.628,-17.2922 105.628,-17.2922 102.291,-18.3489 106.579,-20.2952 98.9544,-19.4056 98.9544,-19.4056"/>
<text text-anchor="start" x="119" y="-17.5127" font-family="Lato" font-size="12.00">!b</text>
</g>
<!-- 1&#45;&gt;1 -->
<g id="edge5" class="edge"><title>1&#45;&gt;1</title>
<path fill="none" stroke="black" d="M167.998,-60.8431C167.78,-71.5204 171.152,-80.2254 178.113,-80.2254 183.442,-80.2254 186.668,-75.1227 187.789,-67.9389"/>
<polygon fill="black" stroke="black" points="188.228,-60.8431 190.94,-68.0241 188.012,-64.3364 187.796,-67.8298 187.796,-67.8298 187.796,-67.8298 188.012,-64.3364 184.652,-67.6354 188.228,-60.8431 188.228,-60.8431"/>
<text text-anchor="start" x="174.613" y="-83.6254" font-family="Lato" font-size="12.00">b</text>
</g>
</g>
</svg>
