<?xml version="1.0" encoding="UTF-8" standalone="no"?>
<?xml-stylesheet href="spot.css" type="text/css"?>
<!DOCTYPE svg PUBLIC "-//W3C//DTD SVG 1.1//EN"
 "http://www.w3.org/Graphics/SVG/1.1/DTD/svg11.dtd">
<!-- Generated by graphviz version 2.38.0 (20140413.2041)
 -->
<!-- Title: G Pages: 1 -->
<svg width="305pt" height="110pt"
 viewBox="0.00 0.00 305.00 110.09" xmlns="http://www.w3.org/2000/svg" xmlns:xlink="http://www.w3.org/1999/xlink">
<g id="graph0" class="graph" transform="scale(1 1) rotate(0) translate(4 106.092)">
<title>G</title>
<polygon fill="white" stroke="none" points="-4,4 -4,-106.092 301,-106.092 301,4 -4,4"/>
<text text-anchor="start" x="8" y="-89.4921" font-family="Lato" font-size="12.00">(Inf(</text>
<text text-anchor="start" x="29" y="-89.4921" font-family="Lato" font-size="12.00" fill="#1f78b4">⓿</text>
<text text-anchor="start" x="43" y="-89.4921" font-family="Lato" font-size="12.00">) &amp; Fin(</text>
<text text-anchor="start" x="80" y="-89.4921" font-family="Lato" font-size="12.00" fill="#ff4da0">❶</text>
<text text-anchor="start" x="94" y="-89.4921" font-family="Lato" font-size="12.00">) &amp; Fin(</text>
<text text-anchor="start" x="131" y="-89.4921" font-family="Lato" font-size="12.00" fill="#6a3d9a">❸</text>
<text text-anchor="start" x="145" y="-89.4921" font-family="Lato" font-size="12.00">)) | (Inf(</text>
<text text-anchor="start" x="181" y="-89.4921" font-family="Lato" font-size="12.00" fill="#ff7f00">❷</text>
<text text-anchor="start" x="195" y="-89.4921" font-family="Lato" font-size="12.00">)&amp;Inf(</text>
<text text-anchor="start" x="224" y="-89.4921" font-family="Lato" font-size="12.00" fill="#6a3d9a">❸</text>
<text text-anchor="start" x="238" y="-89.4921" font-family="Lato" font-size="12.00">)) | Inf(</text>
<text text-anchor="start" x="271" y="-89.4921" font-family="Lato" font-size="12.00" fill="#ff4da0">❶</text>
<text text-anchor="start" x="285" y="-89.4921" font-family="Lato" font-size="12.00">)</text>
<!-- I -->
<!-- 0 -->
<g id="node2" class="node"><title>0</title>
<ellipse fill="#ffffa0" stroke="black" cx="117.5" cy="-19.0921" rx="18" ry="18"/>
<text text-anchor="middle" x="117.5" y="-15.9921" font-family="Lato" font-size="12.00">0</text>
</g>
<!-- I&#45;&gt;0 -->
<g id="edge1" class="edge"><title>I&#45;&gt;0</title>
<path fill="none" stroke="black" d="M62.6549,-19.0921C64.2939,-19.0921 78.6543,-19.0921 92.1317,-19.0921"/>
<polygon fill="black" stroke="black" points="99.4419,-19.0921 92.4419,-22.2422 95.9419,-19.0922 92.4419,-19.0922 92.4419,-19.0922 92.4419,-19.0922 95.9419,-19.0922 92.4418,-15.9422 99.4419,-19.0921 99.4419,-19.0921"/>
</g>
<!-- 0&#45;&gt;0 -->
<g id="edge2" class="edge"><title>0&#45;&gt;0</title>
<path fill="none" stroke="black" d="M111.121,-36.1294C109.819,-45.95 111.945,-55.0921 117.5,-55.0921 121.666,-55.0921 123.904,-49.9497 124.213,-43.2354"/>
<polygon fill="black" stroke="black" points="123.879,-36.1294 127.354,-42.974 124.043,-39.6256 124.208,-43.1217 124.208,-43.1217 124.208,-43.1217 124.043,-39.6256 121.061,-43.2695 123.879,-36.1294 123.879,-36.1294"/>
<text text-anchor="start" x="114" y="-71.4921" font-family="Lato" font-size="12.00">1</text>
<text text-anchor="start" x="110.5" y="-58.4921" font-family="Lato" font-size="12.00" fill="#6a3d9a">❸</text>
</g>
<!-- 1 -->
<g id="node3" class="node"><title>1</title>
<ellipse fill="#ffffa0" stroke="black" cx="217.5" cy="-19.0921" rx="18" ry="18"/>
<text text-anchor="middle" x="217.5" y="-15.9921" font-family="Lato" font-size="12.00">1</text>
</g>
<!-- 0&#45;&gt;1 -->
<g id="edge3" class="edge"><title>0&#45;&gt;1</title>
<path fill="none" stroke="black" d="M135.57,-19.0921C151.213,-19.0921 174.546,-19.0921 192.144,-19.0921"/>
<polygon fill="black" stroke="black" points="199.297,-19.0921 192.297,-22.2422 195.797,-19.0922 192.297,-19.0922 192.297,-19.0922 192.297,-19.0922 195.797,-19.0922 192.296,-15.9422 199.297,-19.0921 199.297,-19.0921"/>
<text text-anchor="start" x="164" y="-34.4921" font-family="Lato" font-size="12.00">1</text>
<text text-anchor="start" x="153.5" y="-22.4921" font-family="Lato" font-size="12.00" fill="#1f78b4">⓿</text>
<text text-anchor="start" x="167.5" y="-22.4921" font-family="Lato" font-size="12.00" fill="#6a3d9a">❸</text>
</g>
<!-- 1&#45;&gt;0 -->
<g id="edge4" class="edge"><title>1&#45;&gt;0</title>
<path fill="none" stroke="black" d="M201.72,-10.0755C195.678,-6.88769 188.478,-3.6972 181.5,-2.09212 169.372,0.697374 165.628,0.697374 153.5,-2.09212 148.92,-3.14546 144.245,-4.88157 139.865,-6.85162"/>
<polygon fill="black" stroke="black" points="133.28,-10.0755 138.182,-4.16836 136.423,-8.5365 139.567,-6.99751 139.567,-6.99751 139.567,-6.99751 136.423,-8.5365 140.952,-9.82667 133.28,-10.0755 133.28,-10.0755"/>
<text text-anchor="start" x="162.5" y="-5.49212" font-family="Lato" font-size="12.00">!b</text>
</g>
<!-- 1&#45;&gt;1 -->
<g id="edge5" class="edge"><title>1&#45;&gt;1</title>
<path fill="none" stroke="black" d="M208.867,-35.0082C206.614,-45.2425 209.492,-55.0921 217.5,-55.0921 223.631,-55.0921 226.755,-49.3185 226.872,-42.0189"/>
<polygon fill="black" stroke="black" points="226.133,-35.0082 229.999,-41.6398 226.5,-38.4889 226.867,-41.9697 226.867,-41.9697 226.867,-41.9697 226.5,-38.4889 223.734,-42.2996 226.133,-35.0082 226.133,-35.0082"/>
<text text-anchor="start" x="212.5" y="-71.4921" font-family="Lato" font-size="12.00">!b</text>
<text text-anchor="start" x="210.5" y="-58.4921" font-family="Lato" font-size="12.00" fill="#1f78b4">⓿</text>
</g>
</g>
</svg>
