<?xml version="1.0" encoding="UTF-8" standalone="no"?>
<?xml-stylesheet href="spot.css" type="text/css"?>
<!DOCTYPE svg PUBLIC "-//W3C//DTD SVG 1.1//EN"
 "http://www.w3.org/Graphics/SVG/1.1/DTD/svg11.dtd">
<!-- Generated by graphviz version 2.38.0 (20140413.2041)
 -->
<!-- Title: G Pages: 1 -->
<svg width="305pt" height="164pt"
 viewBox="0.00 0.00 305.00 164.21" xmlns="http://www.w3.org/2000/svg" xmlns:xlink="http://www.w3.org/1999/xlink">
<g id="graph0" class="graph" transform="scale(1 1) rotate(0) translate(4 160.209)">
<title>G</title>
<polygon fill="white" stroke="none" points="-4,4 -4,-160.209 301,-160.209 301,4 -4,4"/>
<text text-anchor="start" x="8" y="-143.609" font-family="Lato" font-size="12.00">(Inf(</text>
<text text-anchor="start" x="29" y="-143.609" font-family="Lato" font-size="12.00" fill="#1f78b4">⓿</text>
<text text-anchor="start" x="43" y="-143.609" font-family="Lato" font-size="12.00">) &amp; Fin(</text>
<text text-anchor="start" x="80" y="-143.609" font-family="Lato" font-size="12.00" fill="#ff4da0">❶</text>
<text text-anchor="start" x="94" y="-143.609" font-family="Lato" font-size="12.00">) &amp; Fin(</text>
<text text-anchor="start" x="131" y="-143.609" font-family="Lato" font-size="12.00" fill="#6a3d9a">❸</text>
<text text-anchor="start" x="145" y="-143.609" font-family="Lato" font-size="12.00">)) | (Inf(</text>
<text text-anchor="start" x="181" y="-143.609" font-family="Lato" font-size="12.00" fill="#ff7f00">❷</text>
<text text-anchor="start" x="195" y="-143.609" font-family="Lato" font-size="12.00">)&amp;Inf(</text>
<text text-anchor="start" x="224" y="-143.609" font-family="Lato" font-size="12.00" fill="#6a3d9a">❸</text>
<text text-anchor="start" x="238" y="-143.609" font-family="Lato" font-size="12.00">)) | Inf(</text>
<text text-anchor="start" x="271" y="-143.609" font-family="Lato" font-size="12.00" fill="#ff4da0">❶</text>
<text text-anchor="start" x="285" y="-143.609" font-family="Lato" font-size="12.00">)</text>
<!-- I -->
<!-- 0 -->
<g id="node2" class="node"><title>0</title>
<ellipse fill="#ffffa0" stroke="black" cx="66" cy="-20.2086" rx="18" ry="18"/>
<text text-anchor="middle" x="66" y="-17.1086" font-family="Lato" font-size="12.00">0</text>
</g>
<!-- I&#45;&gt;0 -->
<g id="edge1" class="edge"><title>I&#45;&gt;0</title>
<path fill="none" stroke="black" d="M11.1549,-20.2086C12.7939,-20.2086 27.1543,-20.2086 40.6317,-20.2086"/>
<polygon fill="black" stroke="black" points="47.9419,-20.2086 40.9419,-23.3587 44.4419,-20.2087 40.9419,-20.2087 40.9419,-20.2087 40.9419,-20.2087 44.4419,-20.2087 40.9418,-17.0587 47.9419,-20.2086 47.9419,-20.2086"/>
</g>
<!-- 0&#45;&gt;0 -->
<g id="edge2" class="edge"><title>0&#45;&gt;0</title>
<path fill="none" stroke="black" d="M59.6208,-37.246C58.3189,-47.0666 60.4453,-56.2086 66,-56.2086 70.166,-56.2086 72.4036,-51.0662 72.7128,-44.3519"/>
<polygon fill="black" stroke="black" points="72.3792,-37.246 75.8541,-44.0905 72.5434,-40.7421 72.7076,-44.2383 72.7076,-44.2383 72.7076,-44.2383 72.5434,-40.7421 69.561,-44.386 72.3792,-37.246 72.3792,-37.246"/>
<text text-anchor="start" x="62.5" y="-72.6086" font-family="Lato" font-size="12.00">1</text>
<text text-anchor="start" x="59" y="-59.6086" font-family="Lato" font-size="12.00" fill="#6a3d9a">❸</text>
</g>
<!-- 1 -->
<g id="node3" class="node"><title>1</title>
<ellipse fill="#ffffa0" stroke="black" cx="166" cy="-75.2086" rx="18" ry="18"/>
<text text-anchor="middle" x="166" y="-72.1086" font-family="Lato" font-size="12.00">1</text>
</g>
<!-- 0&#45;&gt;1 -->
<g id="edge3" class="edge"><title>0&#45;&gt;1</title>
<path fill="none" stroke="black" d="M75.3375,-35.6811C81.4213,-45.4366 90.5858,-57.4309 102,-64.2086 113.543,-71.0626 128.235,-73.8961 140.527,-74.9779"/>
<polygon fill="black" stroke="black" points="147.821,-75.4455 140.634,-78.1412 144.328,-75.2215 140.835,-74.9976 140.835,-74.9976 140.835,-74.9976 144.328,-75.2215 141.037,-71.8541 147.821,-75.4455 147.821,-75.4455"/>
<text text-anchor="start" x="112.5" y="-88.6086" font-family="Lato" font-size="12.00">a</text>
<text text-anchor="start" x="102" y="-76.6086" font-family="Lato" font-size="12.00" fill="#ff4da0">❶</text>
<text text-anchor="start" x="116" y="-76.6086" font-family="Lato" font-size="12.00" fill="#6a3d9a">❸</text>
</g>
<!-- 2 -->
<g id="node4" class="node"><title>2</title>
<ellipse fill="#ffffa0" stroke="black" cx="269" cy="-20.2086" rx="18" ry="18"/>
<text text-anchor="middle" x="269" y="-17.1086" font-family="Lato" font-size="12.00">2</text>
</g>
<!-- 0&#45;&gt;2 -->
<g id="edge4" class="edge"><title>0&#45;&gt;2</title>
<path fill="none" stroke="black" d="M84.0878,-19.6227C89.7842,-19.4534 96.1649,-19.292 102,-19.2086 160.216,-18.3772 174.784,-18.3772 233,-19.2086 236.465,-19.2581 240.122,-19.3352 243.713,-19.425"/>
<polygon fill="black" stroke="black" points="250.912,-19.6227 243.828,-22.5793 247.414,-19.5266 243.915,-19.4304 243.915,-19.4304 243.915,-19.4304 247.414,-19.5266 244.001,-16.2816 250.912,-19.6227 250.912,-19.6227"/>
<text text-anchor="start" x="161" y="-33.6086" font-family="Lato" font-size="12.00">!a</text>
<text text-anchor="start" x="152" y="-21.6086" font-family="Lato" font-size="12.00" fill="#1f78b4">⓿</text>
<text text-anchor="start" x="166" y="-21.6086" font-family="Lato" font-size="12.00" fill="#6a3d9a">❸</text>
</g>
<!-- 1&#45;&gt;0 -->
<g id="edge5" class="edge"><title>1&#45;&gt;0</title>
<path fill="none" stroke="black" d="M155.772,-60.1505C149.561,-51.2769 140.587,-40.5753 130,-34.2086 118.391,-27.2272 103.695,-23.7175 91.4172,-21.9575"/>
<polygon fill="black" stroke="black" points="84.1344,-21.0723 91.4634,-18.79 87.6089,-21.4946 91.0833,-21.917 91.0833,-21.917 91.0833,-21.917 87.6089,-21.4946 90.7032,-25.0439 84.1344,-21.0723 84.1344,-21.0723"/>
<text text-anchor="start" x="112.5" y="-50.6086" font-family="Lato" font-size="12.00">b</text>
<text text-anchor="start" x="109" y="-37.6086" font-family="Lato" font-size="12.00" fill="#6a3d9a">❸</text>
</g>
<!-- 1&#45;&gt;1 -->
<g id="edge6" class="edge"><title>1&#45;&gt;1</title>
<path fill="none" stroke="black" d="M157.367,-91.1247C155.114,-101.359 157.992,-111.209 166,-111.209 172.131,-111.209 175.255,-105.435 175.372,-98.1355"/>
<polygon fill="black" stroke="black" points="174.633,-91.1247 178.499,-97.7563 175,-94.6054 175.367,-98.0862 175.367,-98.0862 175.367,-98.0862 175,-94.6054 172.234,-98.4161 174.633,-91.1247 174.633,-91.1247"/>
<text text-anchor="start" x="152" y="-126.609" font-family="Lato" font-size="12.00">a &amp; b</text>
<text text-anchor="start" x="152" y="-114.609" font-family="Lato" font-size="12.00" fill="#1f78b4">⓿</text>
<text text-anchor="start" x="166" y="-114.609" font-family="Lato" font-size="12.00" fill="#6a3d9a">❸</text>
</g>
<!-- 1&#45;&gt;2 -->
<g id="edge7" class="edge"><title>1&#45;&gt;2</title>
<path fill="none" stroke="black" d="M184.134,-75.6514C198.173,-75.2743 218.084,-72.9883 233,-64.2086 242.116,-58.8428 249.787,-50.1345 255.602,-41.8755"/>
<polygon fill="black" stroke="black" points="259.68,-35.7101 258.445,-43.2864 257.749,-38.6293 255.818,-41.5485 255.818,-41.5485 255.818,-41.5485 257.749,-38.6293 253.191,-39.8107 259.68,-35.7101 259.68,-35.7101"/>
<text text-anchor="start" x="202" y="-88.6086" font-family="Lato" font-size="12.00">!a &amp; b</text>
<text text-anchor="start" x="203.5" y="-76.6086" font-family="Lato" font-size="12.00" fill="#ff7f00">❷</text>
<text text-anchor="start" x="217.5" y="-76.6086" font-family="Lato" font-size="12.00" fill="#6a3d9a">❸</text>
</g>
<!-- 2&#45;&gt;0 -->
<g id="edge8" class="edge"><title>2&#45;&gt;0</title>
<path fill="none" stroke="black" d="M251.755,-14.79C228.743,-7.7645 185.296,3.10705 148,-1.20865 128.34,-3.48353 106.522,-8.766 90.4874,-13.185"/>
<polygon fill="black" stroke="black" points="83.5556,-15.1406 89.4373,-10.2082 86.9241,-14.1902 90.2926,-13.2398 90.2926,-13.2398 90.2926,-13.2398 86.9241,-14.1902 91.148,-16.2715 83.5556,-15.1406 83.5556,-15.1406"/>
<text text-anchor="start" x="161" y="-4.60865" font-family="Lato" font-size="12.00">!b</text>
</g>
<!-- 2&#45;&gt;1 -->
<g id="edge9" class="edge"><title>2&#45;&gt;1</title>
<path fill="none" stroke="black" d="M250.91,-20.8254C236.897,-22.0076 217,-25.2864 202,-34.2086 193.705,-39.1426 186.414,-46.7547 180.663,-54.0865"/>
<polygon fill="black" stroke="black" points="176.207,-60.1145 177.835,-52.613 178.287,-57.3 180.368,-54.4856 180.368,-54.4856 180.368,-54.4856 178.287,-57.3 182.901,-56.3581 176.207,-60.1145 176.207,-60.1145"/>
<text text-anchor="start" x="202" y="-50.6086" font-family="Lato" font-size="12.00">a &amp; !b</text>
<text text-anchor="start" x="210.5" y="-37.6086" font-family="Lato" font-size="12.00" fill="#1f78b4">⓿</text>
</g>
<!-- 2&#45;&gt;2 -->
<g id="edge10" class="edge"><title>2&#45;&gt;2</title>
<path fill="none" stroke="black" d="M260.367,-36.1247C258.114,-46.359 260.992,-56.2086 269,-56.2086 275.131,-56.2086 278.255,-50.435 278.372,-43.1355"/>
<polygon fill="black" stroke="black" points="277.633,-36.1247 281.499,-42.7563 278,-39.6054 278.367,-43.0862 278.367,-43.0862 278.367,-43.0862 278,-39.6054 275.234,-43.4161 277.633,-36.1247 277.633,-36.1247"/>
<text text-anchor="start" x="252" y="-72.6086" font-family="Lato" font-size="12.00">!a &amp; !b</text>
<text text-anchor="start" x="262" y="-59.6086" font-family="Lato" font-size="12.00" fill="#1f78b4">⓿</text>
</g>
</g>
</svg>
