<?xml version="1.0" encoding="UTF-8" standalone="no"?>
<?xml-stylesheet href="spot.css" type="text/css"?>
<!DOCTYPE svg PUBLIC "-//W3C//DTD SVG 1.1//EN"
 "http://www.w3.org/Graphics/SVG/1.1/DTD/svg11.dtd">
<!-- Generated by graphviz version 2.38.0 (20140413.2041)
 -->
<!-- Title: G Pages: 1 -->
<svg width="305pt" height="164pt"
 viewBox="0.00 0.00 305.00 164.13" xmlns="http://www.w3.org/2000/svg" xmlns:xlink="http://www.w3.org/1999/xlink">
<g id="graph0" class="graph" transform="scale(1 1) rotate(0) translate(4 160.134)">
<title>G</title>
<polygon fill="white" stroke="none" points="-4,4 -4,-160.134 301,-160.134 301,4 -4,4"/>
<text text-anchor="start" x="8" y="-143.534" font-family="Lato" font-size="12.00">(Inf(</text>
<text text-anchor="start" x="29" y="-143.534" font-family="Lato" font-size="12.00" fill="#1f78b4">⓿</text>
<text text-anchor="start" x="43" y="-143.534" font-family="Lato" font-size="12.00">) &amp; Fin(</text>
<text text-anchor="start" x="80" y="-143.534" font-family="Lato" font-size="12.00" fill="#ff4da0">❶</text>
<text text-anchor="start" x="94" y="-143.534" font-family="Lato" font-size="12.00">) &amp; Fin(</text>
<text text-anchor="start" x="131" y="-143.534" font-family="Lato" font-size="12.00" fill="#6a3d9a">❸</text>
<text text-anchor="start" x="145" y="-143.534" font-family="Lato" font-size="12.00">)) | (Inf(</text>
<text text-anchor="start" x="181" y="-143.534" font-family="Lato" font-size="12.00" fill="#ff7f00">❷</text>
<text text-anchor="start" x="195" y="-143.534" font-family="Lato" font-size="12.00">)&amp;Inf(</text>
<text text-anchor="start" x="224" y="-143.534" font-family="Lato" font-size="12.00" fill="#6a3d9a">❸</text>
<text text-anchor="start" x="238" y="-143.534" font-family="Lato" font-size="12.00">)) | Inf(</text>
<text text-anchor="start" x="271" y="-143.534" font-family="Lato" font-size="12.00" fill="#ff4da0">❶</text>
<text text-anchor="start" x="285" y="-143.534" font-family="Lato" font-size="12.00">)</text>
<!-- I -->
<!-- 0 -->
<g id="node2" class="node"><title>0</title>
<ellipse fill="#ffffa0" stroke="black" cx="67.5" cy="-20.1337" rx="18" ry="18"/>
<text text-anchor="middle" x="67.5" y="-17.0337" font-family="Lato" font-size="12.00">0</text>
</g>
<!-- I&#45;&gt;0 -->
<g id="edge1" class="edge"><title>I&#45;&gt;0</title>
<path fill="none" stroke="black" d="M12.6549,-20.1337C14.2939,-20.1337 28.6543,-20.1337 42.1317,-20.1337"/>
<polygon fill="black" stroke="black" points="49.4419,-20.1337 42.4419,-23.2838 45.9419,-20.1338 42.4419,-20.1338 42.4419,-20.1338 42.4419,-20.1338 45.9419,-20.1338 42.4418,-16.9838 49.4419,-20.1337 49.4419,-20.1337"/>
</g>
<!-- 0&#45;&gt;0 -->
<g id="edge2" class="edge"><title>0&#45;&gt;0</title>
<path fill="none" stroke="black" d="M61.1208,-37.1711C59.8189,-46.9917 61.9453,-56.1337 67.5,-56.1337 71.666,-56.1337 73.9036,-50.9913 74.2128,-44.277"/>
<polygon fill="black" stroke="black" points="73.8792,-37.1711 77.3541,-44.0156 74.0434,-40.6672 74.2076,-44.1634 74.2076,-44.1634 74.2076,-44.1634 74.0434,-40.6672 71.061,-44.3111 73.8792,-37.1711 73.8792,-37.1711"/>
<text text-anchor="start" x="64" y="-72.5337" font-family="Lato" font-size="12.00">1</text>
<text text-anchor="start" x="60.5" y="-59.5337" font-family="Lato" font-size="12.00" fill="#6a3d9a">❸</text>
</g>
<!-- 1 -->
<g id="node3" class="node"><title>1</title>
<ellipse fill="#ffffa0" stroke="black" cx="167.5" cy="-75.1337" rx="18" ry="18"/>
<text text-anchor="middle" x="167.5" y="-72.0337" font-family="Lato" font-size="12.00">1</text>
</g>
<!-- 0&#45;&gt;1 -->
<g id="edge3" class="edge"><title>0&#45;&gt;1</title>
<path fill="none" stroke="black" d="M76.8375,-35.6062C82.9213,-45.3617 92.0858,-57.356 103.5,-64.1337 115.043,-70.9877 129.735,-73.8212 142.027,-74.903"/>
<polygon fill="black" stroke="black" points="149.321,-75.3706 142.134,-78.0663 145.828,-75.1466 142.335,-74.9227 142.335,-74.9227 142.335,-74.9227 145.828,-75.1466 142.537,-71.7792 149.321,-75.3706 149.321,-75.3706"/>
<text text-anchor="start" x="114" y="-88.5337" font-family="Lato" font-size="12.00">1</text>
<text text-anchor="start" x="103.5" y="-76.5337" font-family="Lato" font-size="12.00" fill="#ff4da0">❶</text>
<text text-anchor="start" x="117.5" y="-76.5337" font-family="Lato" font-size="12.00" fill="#6a3d9a">❸</text>
</g>
<!-- 2 -->
<g id="node4" class="node"><title>2</title>
<ellipse fill="#ffffa0" stroke="black" cx="267.5" cy="-20.1337" rx="18" ry="18"/>
<text text-anchor="middle" x="267.5" y="-17.0337" font-family="Lato" font-size="12.00">2</text>
</g>
<!-- 0&#45;&gt;2 -->
<g id="edge4" class="edge"><title>0&#45;&gt;2</title>
<path fill="none" stroke="black" d="M85.5878,-19.5478C91.2842,-19.3785 97.6649,-19.2171 103.5,-19.1337 160.383,-18.3213 174.617,-18.3213 231.5,-19.1337 234.965,-19.1832 238.622,-19.2603 242.213,-19.3501"/>
<polygon fill="black" stroke="black" points="249.412,-19.5478 242.328,-22.5044 245.914,-19.4517 242.415,-19.3555 242.415,-19.3555 242.415,-19.3555 245.914,-19.4517 242.501,-16.2067 249.412,-19.5478 249.412,-19.5478"/>
<text text-anchor="start" x="164" y="-33.5337" font-family="Lato" font-size="12.00">1</text>
<text text-anchor="start" x="153.5" y="-21.5337" font-family="Lato" font-size="12.00" fill="#1f78b4">⓿</text>
<text text-anchor="start" x="167.5" y="-21.5337" font-family="Lato" font-size="12.00" fill="#6a3d9a">❸</text>
</g>
<!-- 1&#45;&gt;0 -->
<g id="edge5" class="edge"><title>1&#45;&gt;0</title>
<path fill="none" stroke="black" d="M157.272,-60.0756C151.061,-51.202 142.087,-40.5004 131.5,-34.1337 119.891,-27.1523 105.195,-23.6426 92.9172,-21.8826"/>
<polygon fill="black" stroke="black" points="85.6344,-20.9974 92.9634,-18.7151 89.1089,-21.4197 92.5833,-21.8421 92.5833,-21.8421 92.5833,-21.8421 89.1089,-21.4197 92.2032,-24.969 85.6344,-20.9974 85.6344,-20.9974"/>
<text text-anchor="start" x="114" y="-50.5337" font-family="Lato" font-size="12.00">b</text>
<text text-anchor="start" x="110.5" y="-37.5337" font-family="Lato" font-size="12.00" fill="#6a3d9a">❸</text>
</g>
<!-- 1&#45;&gt;1 -->
<g id="edge6" class="edge"><title>1&#45;&gt;1</title>
<path fill="none" stroke="black" d="M158.867,-91.0498C156.614,-101.284 159.492,-111.134 167.5,-111.134 173.631,-111.134 176.755,-105.36 176.872,-98.0606"/>
<polygon fill="black" stroke="black" points="176.133,-91.0498 179.999,-97.6814 176.5,-94.5305 176.867,-98.0113 176.867,-98.0113 176.867,-98.0113 176.5,-94.5305 173.734,-98.3412 176.133,-91.0498 176.133,-91.0498"/>
<text text-anchor="start" x="164" y="-126.534" font-family="Lato" font-size="12.00">b</text>
<text text-anchor="start" x="153.5" y="-114.534" font-family="Lato" font-size="12.00" fill="#1f78b4">⓿</text>
<text text-anchor="start" x="167.5" y="-114.534" font-family="Lato" font-size="12.00" fill="#6a3d9a">❸</text>
</g>
<!-- 1&#45;&gt;2 -->
<g id="edge7" class="edge"><title>1&#45;&gt;2</title>
<path fill="none" stroke="black" d="M185.679,-75.3706C199.031,-74.8242 217.562,-72.4102 231.5,-64.1337 240.596,-58.7328 248.263,-50.0191 254.081,-41.7656"/>
<polygon fill="black" stroke="black" points="258.162,-35.6062 256.921,-43.1814 256.229,-38.5237 254.296,-41.4413 254.296,-41.4413 254.296,-41.4413 256.229,-38.5237 251.67,-39.7012 258.162,-35.6062 258.162,-35.6062"/>
<text text-anchor="start" x="214" y="-88.5337" font-family="Lato" font-size="12.00">b</text>
<text text-anchor="start" x="203.5" y="-76.5337" font-family="Lato" font-size="12.00" fill="#ff7f00">❷</text>
<text text-anchor="start" x="217.5" y="-76.5337" font-family="Lato" font-size="12.00" fill="#6a3d9a">❸</text>
</g>
<!-- 2&#45;&gt;0 -->
<g id="edge8" class="edge"><title>2&#45;&gt;0</title>
<path fill="none" stroke="black" d="M249.944,-15.0657C233.712,-10.3797 208.171,-3.75704 185.5,-1.13375 152.709,2.66056 115.076,-5.75967 91.542,-12.5772"/>
<polygon fill="black" stroke="black" points="84.7121,-14.6262 90.5116,-9.59751 88.0645,-13.6204 91.4168,-12.6147 91.4168,-12.6147 91.4168,-12.6147 88.0645,-13.6204 92.322,-15.6318 84.7121,-14.6262 84.7121,-14.6262"/>
<text text-anchor="start" x="162.5" y="-4.53375" font-family="Lato" font-size="12.00">!b</text>
</g>
<!-- 2&#45;&gt;1 -->
<g id="edge9" class="edge"><title>2&#45;&gt;1</title>
<path fill="none" stroke="black" d="M249.366,-20.9974C236.038,-22.3353 217.519,-25.7034 203.5,-34.1337 195.229,-39.1077 187.942,-46.7275 182.189,-54.0544"/>
<polygon fill="black" stroke="black" points="177.728,-60.0756 179.364,-52.5757 179.812,-57.2631 181.895,-54.4507 181.895,-54.4507 181.895,-54.4507 179.812,-57.2631 184.426,-56.3257 177.728,-60.0756 177.728,-60.0756"/>
<text text-anchor="start" x="212.5" y="-50.5337" font-family="Lato" font-size="12.00">!b</text>
<text text-anchor="start" x="210.5" y="-37.5337" font-family="Lato" font-size="12.00" fill="#1f78b4">⓿</text>
</g>
<!-- 2&#45;&gt;2 -->
<g id="edge10" class="edge"><title>2&#45;&gt;2</title>
<path fill="none" stroke="black" d="M258.867,-36.0498C256.614,-46.2841 259.492,-56.1337 267.5,-56.1337 273.631,-56.1337 276.755,-50.3601 276.872,-43.0606"/>
<polygon fill="black" stroke="black" points="276.133,-36.0498 279.999,-42.6814 276.5,-39.5305 276.867,-43.0113 276.867,-43.0113 276.867,-43.0113 276.5,-39.5305 273.734,-43.3412 276.133,-36.0498 276.133,-36.0498"/>
<text text-anchor="start" x="262.5" y="-72.5337" font-family="Lato" font-size="12.00">!b</text>
<text text-anchor="start" x="260.5" y="-59.5337" font-family="Lato" font-size="12.00" fill="#1f78b4">⓿</text>
</g>
</g>
</svg>
