<?xml version="1.0" encoding="UTF-8" standalone="no"?>
<?xml-stylesheet href="spot.css" type="text/css"?>
<!DOCTYPE svg PUBLIC "-//W3C//DTD SVG 1.1//EN"
 "http://www.w3.org/Graphics/SVG/1.1/DTD/svg11.dtd">
<!-- Generated by graphviz version 2.38.0 (20140413.2041)
 -->
<!-- Title: G Pages: 1 -->
<svg width="299pt" height="164pt"
 viewBox="0.00 0.00 299.00 164.21" xmlns="http://www.w3.org/2000/svg" xmlns:xlink="http://www.w3.org/1999/xlink">
<g id="graph0" class="graph" transform="scale(1 1) rotate(0) translate(4 160.209)">
<title>G</title>
<polygon fill="white" stroke="none" points="-4,4 -4,-160.209 295,-160.209 295,4 -4,4"/>
<text text-anchor="start" x="8" y="-143.609" font-family="Lato" font-size="12.00">(Inf(</text>
<text text-anchor="start" x="29" y="-143.609" font-family="Lato" font-size="12.00" fill="#1f78b4">⓿</text>
<text text-anchor="start" x="43" y="-143.609" font-family="Lato" font-size="12.00">) | Inf(</text>
<text text-anchor="start" x="73" y="-143.609" font-family="Lato" font-size="12.00" fill="#ff4da0">❶</text>
<text text-anchor="start" x="87" y="-143.609" font-family="Lato" font-size="12.00">) | Inf(</text>
<text text-anchor="start" x="117" y="-143.609" font-family="Lato" font-size="12.00" fill="#6a3d9a">❸</text>
<text text-anchor="start" x="131" y="-143.609" font-family="Lato" font-size="12.00">)) &amp; (Inf(</text>
<text text-anchor="start" x="172" y="-143.609" font-family="Lato" font-size="12.00" fill="#ff4da0">❶</text>
<text text-anchor="start" x="186" y="-143.609" font-family="Lato" font-size="12.00">) | Inf(</text>
<text text-anchor="start" x="216" y="-143.609" font-family="Lato" font-size="12.00" fill="#ff7f00">❷</text>
<text text-anchor="start" x="230" y="-143.609" font-family="Lato" font-size="12.00">) | Fin(</text>
<text text-anchor="start" x="262" y="-143.609" font-family="Lato" font-size="12.00" fill="#6a3d9a">❸</text>
<text text-anchor="start" x="276" y="-143.609" font-family="Lato" font-size="12.00">))</text>
<!-- I -->
<!-- 0 -->
<g id="node2" class="node"><title>0</title>
<ellipse fill="#ffffa0" stroke="black" cx="63" cy="-20.2086" rx="18" ry="18"/>
<text text-anchor="middle" x="63" y="-17.1086" font-family="Lato" font-size="12.00">0</text>
</g>
<!-- I&#45;&gt;0 -->
<g id="edge1" class="edge"><title>I&#45;&gt;0</title>
<path fill="none" stroke="black" d="M8.15491,-20.2086C9.79388,-20.2086 24.1543,-20.2086 37.6317,-20.2086"/>
<polygon fill="black" stroke="black" points="44.9419,-20.2086 37.9419,-23.3587 41.4419,-20.2087 37.9419,-20.2087 37.9419,-20.2087 37.9419,-20.2087 41.4419,-20.2087 37.9418,-17.0587 44.9419,-20.2086 44.9419,-20.2086"/>
</g>
<!-- 0&#45;&gt;0 -->
<g id="edge2" class="edge"><title>0&#45;&gt;0</title>
<path fill="none" stroke="black" d="M56.6208,-37.246C55.3189,-47.0666 57.4453,-56.2086 63,-56.2086 67.166,-56.2086 69.4036,-51.0662 69.7128,-44.3519"/>
<polygon fill="black" stroke="black" points="69.3792,-37.246 72.8541,-44.0905 69.5434,-40.7421 69.7076,-44.2383 69.7076,-44.2383 69.7076,-44.2383 69.5434,-40.7421 66.561,-44.386 69.3792,-37.246 69.3792,-37.246"/>
<text text-anchor="start" x="59.5" y="-72.6086" font-family="Lato" font-size="12.00">1</text>
<text text-anchor="start" x="56" y="-59.6086" font-family="Lato" font-size="12.00" fill="#6a3d9a">❸</text>
</g>
<!-- 1 -->
<g id="node3" class="node"><title>1</title>
<ellipse fill="#ffffa0" stroke="black" cx="163" cy="-75.2086" rx="18" ry="18"/>
<text text-anchor="middle" x="163" y="-72.1086" font-family="Lato" font-size="12.00">1</text>
</g>
<!-- 0&#45;&gt;1 -->
<g id="edge3" class="edge"><title>0&#45;&gt;1</title>
<path fill="none" stroke="black" d="M72.3375,-35.6811C78.4213,-45.4366 87.5858,-57.4309 99,-64.2086 110.543,-71.0626 125.235,-73.8961 137.527,-74.9779"/>
<polygon fill="black" stroke="black" points="144.821,-75.4455 137.634,-78.1412 141.328,-75.2215 137.835,-74.9976 137.835,-74.9976 137.835,-74.9976 141.328,-75.2215 138.037,-71.8541 144.821,-75.4455 144.821,-75.4455"/>
<text text-anchor="start" x="109.5" y="-88.6086" font-family="Lato" font-size="12.00">a</text>
<text text-anchor="start" x="99" y="-76.6086" font-family="Lato" font-size="12.00" fill="#ff4da0">❶</text>
<text text-anchor="start" x="113" y="-76.6086" font-family="Lato" font-size="12.00" fill="#6a3d9a">❸</text>
</g>
<!-- 2 -->
<g id="node4" class="node"><title>2</title>
<ellipse fill="#ffffa0" stroke="black" cx="266" cy="-20.2086" rx="18" ry="18"/>
<text text-anchor="middle" x="266" y="-17.1086" font-family="Lato" font-size="12.00">2</text>
</g>
<!-- 0&#45;&gt;2 -->
<g id="edge4" class="edge"><title>0&#45;&gt;2</title>
<path fill="none" stroke="black" d="M81.0878,-19.6227C86.7842,-19.4534 93.1649,-19.292 99,-19.2086 157.216,-18.3772 171.784,-18.3772 230,-19.2086 233.465,-19.2581 237.122,-19.3352 240.713,-19.425"/>
<polygon fill="black" stroke="black" points="247.912,-19.6227 240.828,-22.5793 244.414,-19.5266 240.915,-19.4304 240.915,-19.4304 240.915,-19.4304 244.414,-19.5266 241.001,-16.2816 247.912,-19.6227 247.912,-19.6227"/>
<text text-anchor="start" x="158" y="-33.6086" font-family="Lato" font-size="12.00">!a</text>
<text text-anchor="start" x="149" y="-21.6086" font-family="Lato" font-size="12.00" fill="#1f78b4">⓿</text>
<text text-anchor="start" x="163" y="-21.6086" font-family="Lato" font-size="12.00" fill="#6a3d9a">❸</text>
</g>
<!-- 1&#45;&gt;0 -->
<g id="edge5" class="edge"><title>1&#45;&gt;0</title>
<path fill="none" stroke="black" d="M152.772,-60.1505C146.561,-51.2769 137.587,-40.5753 127,-34.2086 115.391,-27.2272 100.695,-23.7175 88.4172,-21.9575"/>
<polygon fill="black" stroke="black" points="81.1344,-21.0723 88.4634,-18.79 84.6089,-21.4946 88.0833,-21.917 88.0833,-21.917 88.0833,-21.917 84.6089,-21.4946 87.7032,-25.0439 81.1344,-21.0723 81.1344,-21.0723"/>
<text text-anchor="start" x="109.5" y="-50.6086" font-family="Lato" font-size="12.00">b</text>
<text text-anchor="start" x="106" y="-37.6086" font-family="Lato" font-size="12.00" fill="#6a3d9a">❸</text>
</g>
<!-- 1&#45;&gt;1 -->
<g id="edge6" class="edge"><title>1&#45;&gt;1</title>
<path fill="none" stroke="black" d="M154.367,-91.1247C152.114,-101.359 154.992,-111.209 163,-111.209 169.131,-111.209 172.255,-105.435 172.372,-98.1355"/>
<polygon fill="black" stroke="black" points="171.633,-91.1247 175.499,-97.7563 172,-94.6054 172.367,-98.0862 172.367,-98.0862 172.367,-98.0862 172,-94.6054 169.234,-98.4161 171.633,-91.1247 171.633,-91.1247"/>
<text text-anchor="start" x="149" y="-126.609" font-family="Lato" font-size="12.00">a &amp; b</text>
<text text-anchor="start" x="149" y="-114.609" font-family="Lato" font-size="12.00" fill="#1f78b4">⓿</text>
<text text-anchor="start" x="163" y="-114.609" font-family="Lato" font-size="12.00" fill="#6a3d9a">❸</text>
</g>
<!-- 1&#45;&gt;2 -->
<g id="edge7" class="edge"><title>1&#45;&gt;2</title>
<path fill="none" stroke="black" d="M181.134,-75.6514C195.173,-75.2743 215.084,-72.9883 230,-64.2086 239.116,-58.8428 246.787,-50.1345 252.602,-41.8755"/>
<polygon fill="black" stroke="black" points="256.68,-35.7101 255.445,-43.2864 254.749,-38.6293 252.818,-41.5485 252.818,-41.5485 252.818,-41.5485 254.749,-38.6293 250.191,-39.8107 256.68,-35.7101 256.68,-35.7101"/>
<text text-anchor="start" x="199" y="-88.6086" font-family="Lato" font-size="12.00">!a &amp; b</text>
<text text-anchor="start" x="200.5" y="-76.6086" font-family="Lato" font-size="12.00" fill="#ff7f00">❷</text>
<text text-anchor="start" x="214.5" y="-76.6086" font-family="Lato" font-size="12.00" fill="#6a3d9a">❸</text>
</g>
<!-- 2&#45;&gt;0 -->
<g id="edge8" class="edge"><title>2&#45;&gt;0</title>
<path fill="none" stroke="black" d="M248.755,-14.79C225.743,-7.7645 182.296,3.10705 145,-1.20865 125.34,-3.48353 103.522,-8.766 87.4874,-13.185"/>
<polygon fill="black" stroke="black" points="80.5556,-15.1406 86.4373,-10.2082 83.9241,-14.1902 87.2926,-13.2398 87.2926,-13.2398 87.2926,-13.2398 83.9241,-14.1902 88.148,-16.2715 80.5556,-15.1406 80.5556,-15.1406"/>
<text text-anchor="start" x="158" y="-4.60865" font-family="Lato" font-size="12.00">!b</text>
</g>
<!-- 2&#45;&gt;1 -->
<g id="edge9" class="edge"><title>2&#45;&gt;1</title>
<path fill="none" stroke="black" d="M247.91,-20.8254C233.897,-22.0076 214,-25.2864 199,-34.2086 190.705,-39.1426 183.414,-46.7547 177.663,-54.0865"/>
<polygon fill="black" stroke="black" points="173.207,-60.1145 174.835,-52.613 175.287,-57.3 177.368,-54.4856 177.368,-54.4856 177.368,-54.4856 175.287,-57.3 179.901,-56.3581 173.207,-60.1145 173.207,-60.1145"/>
<text text-anchor="start" x="199" y="-50.6086" font-family="Lato" font-size="12.00">a &amp; !b</text>
<text text-anchor="start" x="207.5" y="-37.6086" font-family="Lato" font-size="12.00" fill="#1f78b4">⓿</text>
</g>
<!-- 2&#45;&gt;2 -->
<g id="edge10" class="edge"><title>2&#45;&gt;2</title>
<path fill="none" stroke="black" d="M257.367,-36.1247C255.114,-46.359 257.992,-56.2086 266,-56.2086 272.131,-56.2086 275.255,-50.435 275.372,-43.1355"/>
<polygon fill="black" stroke="black" points="274.633,-36.1247 278.499,-42.7563 275,-39.6054 275.367,-43.0862 275.367,-43.0862 275.367,-43.0862 275,-39.6054 272.234,-43.4161 274.633,-36.1247 274.633,-36.1247"/>
<text text-anchor="start" x="249" y="-72.6086" font-family="Lato" font-size="12.00">!a &amp; !b</text>
<text text-anchor="start" x="259" y="-59.6086" font-family="Lato" font-size="12.00" fill="#1f78b4">⓿</text>
</g>
</g>
</svg>
