<?xml version="1.0" encoding="UTF-8" standalone="no"?>
<?xml-stylesheet href="spot.css" type="text/css"?>
<!DOCTYPE svg PUBLIC "-//W3C//DTD SVG 1.1//EN"
 "http://www.w3.org/Graphics/SVG/1.1/DTD/svg11.dtd">
<!-- Generated by graphviz version 2.38.0 (20140413.2041)
 -->
<!-- Title: G Pages: 1 -->
<svg width="279pt" height="174pt"
 viewBox="0.00 0.00 279.25 174.08" xmlns="http://www.w3.org/2000/svg" xmlns:xlink="http://www.w3.org/1999/xlink">
<g id="graph0" class="graph" transform="scale(1 1) rotate(0) translate(4 170.083)">
<title>G</title>
<polygon fill="white" stroke="none" points="-4,4 -4,-170.083 275.25,-170.083 275.25,4 -4,4"/>
<text text-anchor="start" x="67.1249" y="-153.483" font-family="Lato" font-size="12.00">Inf(</text>
<text text-anchor="start" x="85.1249" y="-153.483" font-family="Lato" font-size="12.00" fill="#ff7f00">❷</text>
<text text-anchor="start" x="99.1249" y="-153.483" font-family="Lato" font-size="12.00">) | (Fin(</text>
<text text-anchor="start" x="134.125" y="-153.483" font-family="Lato" font-size="12.00" fill="#ff4da0">❶</text>
<text text-anchor="start" x="148.125" y="-153.483" font-family="Lato" font-size="12.00">) &amp; Inf(</text>
<text text-anchor="start" x="183.125" y="-153.483" font-family="Lato" font-size="12.00" fill="#1f78b4">⓿</text>
<text text-anchor="start" x="197.125" y="-153.483" font-family="Lato" font-size="12.00">))</text>
<text text-anchor="start" x="85.1249" y="-141.483" font-family="Lato" font-size="12.00">[parity max even 3]</text>
<!-- I -->
<!-- 0 -->
<g id="node2" class="node"><title>0</title>
<ellipse fill="#ffffa0" stroke="black" cx="62.0416" cy="-24.0416" rx="24.0833" ry="24.0833"/>
<text text-anchor="start" x="58.5416" y="-27.4416" font-family="Lato" font-size="12.00">0</text>
<text text-anchor="start" x="55.0416" y="-14.4416" font-family="Lato" font-size="12.00" fill="#ff7f00">❷</text>
</g>
<!-- I&#45;&gt;0 -->
<g id="edge1" class="edge"><title>I&#45;&gt;0</title>
<path fill="none" stroke="black" d="M1.04352,-24.0416C1.9346,-24.0416 16.3644,-24.0416 30.8478,-24.0416"/>
<polygon fill="black" stroke="black" points="37.9031,-24.0416 30.9032,-27.1917 34.4031,-24.0417 30.9031,-24.0417 30.9031,-24.0417 30.9031,-24.0417 34.4031,-24.0417 30.9031,-20.8917 37.9031,-24.0416 37.9031,-24.0416"/>
</g>
<!-- 1 -->
<g id="node3" class="node"><title>1</title>
<ellipse fill="#ffffa0" stroke="black" cx="156.125" cy="-79.0416" rx="24.0833" ry="24.0833"/>
<text text-anchor="start" x="152.625" y="-82.4416" font-family="Lato" font-size="12.00">1</text>
<text text-anchor="start" x="149.125" y="-69.4416" font-family="Lato" font-size="12.00" fill="#ff4da0">❶</text>
</g>
<!-- 0&#45;&gt;1 -->
<g id="edge2" class="edge"><title>0&#45;&gt;1</title>
<path fill="none" stroke="black" d="M83.0223,-35.9758C96.5371,-44.048 114.519,-54.7882 129.144,-63.5234"/>
<polygon fill="black" stroke="black" points="135.183,-67.1307 127.558,-66.2456 132.178,-65.336 129.174,-63.5412 129.174,-63.5412 129.174,-63.5412 132.178,-65.336 130.789,-60.8369 135.183,-67.1307 135.183,-67.1307"/>
<text text-anchor="start" x="104.083" y="-56.4416" font-family="Lato" font-size="12.00">!b</text>
</g>
<!-- 2 -->
<g id="node4" class="node"><title>2</title>
<ellipse fill="#ffffa0" stroke="black" cx="247.208" cy="-24.0416" rx="24.0833" ry="24.0833"/>
<text text-anchor="start" x="243.708" y="-27.4416" font-family="Lato" font-size="12.00">2</text>
<text text-anchor="start" x="240.208" y="-14.4416" font-family="Lato" font-size="12.00" fill="#ff4da0">❶</text>
</g>
<!-- 0&#45;&gt;2 -->
<g id="edge3" class="edge"><title>0&#45;&gt;2</title>
<path fill="none" stroke="black" d="M86.2398,-24.0416C119.043,-24.0416 179.041,-24.0416 215.504,-24.0416"/>
<polygon fill="black" stroke="black" points="222.91,-24.0416 215.91,-27.1917 219.41,-24.0417 215.91,-24.0417 215.91,-24.0417 215.91,-24.0417 219.41,-24.0417 215.91,-20.8917 222.91,-24.0416 222.91,-24.0416"/>
<text text-anchor="start" x="152.625" y="-27.4416" font-family="Lato" font-size="12.00">b</text>
</g>
<!-- 1&#45;&gt;1 -->
<g id="edge4" class="edge"><title>1&#45;&gt;1</title>
<path fill="none" stroke="black" d="M148.004,-101.961C147.23,-112.215 149.937,-121.083 156.125,-121.083 160.766,-121.083 163.448,-116.095 164.173,-109.275"/>
<polygon fill="black" stroke="black" points="164.246,-101.961 167.326,-108.992 164.211,-105.461 164.176,-108.961 164.176,-108.961 164.176,-108.961 164.211,-105.461 161.027,-108.93 164.246,-101.961 164.246,-101.961"/>
<text text-anchor="start" x="151.125" y="-124.483" font-family="Lato" font-size="12.00">!b</text>
</g>
<!-- 1&#45;&gt;2 -->
<g id="edge5" class="edge"><title>1&#45;&gt;2</title>
<path fill="none" stroke="black" d="M176.895,-66.8353C189.608,-58.9863 206.269,-48.7 220.07,-40.1795"/>
<polygon fill="black" stroke="black" points="226.185,-36.404 221.883,-42.7617 223.207,-38.2427 220.229,-40.0814 220.229,-40.0814 220.229,-40.0814 223.207,-38.2427 218.574,-37.4011 226.185,-36.404 226.185,-36.404"/>
<text text-anchor="start" x="198.167" y="-56.4416" font-family="Lato" font-size="12.00">b</text>
</g>
<!-- 2&#45;&gt;0 -->
<g id="edge6" class="edge"><title>2&#45;&gt;0</title>
<path fill="none" stroke="black" d="M224.163,-16.8811C211.453,-13.1293 195.083,-8.93073 180.167,-7.04163 158.966,-4.35668 153.298,-4.46822 132.083,-7.04163 118.766,-8.65705 104.314,-11.9644 92.09,-15.2361"/>
<polygon fill="black" stroke="black" points="85.1757,-17.1452 91.0848,-12.2457 88.5494,-16.2137 91.9232,-15.2821 91.9232,-15.2821 91.9232,-15.2821 88.5494,-16.2137 92.7616,-18.3184 85.1757,-17.1452 85.1757,-17.1452"/>
<text text-anchor="start" x="152.625" y="-10.4416" font-family="Lato" font-size="12.00">a</text>
</g>
<!-- 2&#45;&gt;2 -->
<g id="edge7" class="edge"><title>2&#45;&gt;2</title>
<path fill="none" stroke="black" d="M239.087,-46.9613C238.314,-57.2151 241.021,-66.0833 247.208,-66.0833 251.849,-66.0833 254.532,-61.0949 255.257,-54.2749"/>
<polygon fill="black" stroke="black" points="255.329,-46.9613 258.41,-53.9922 255.295,-50.4611 255.26,-53.961 255.26,-53.961 255.26,-53.961 255.295,-50.4611 252.11,-53.9297 255.329,-46.9613 255.329,-46.9613"/>
<text text-anchor="start" x="242.208" y="-69.4833" font-family="Lato" font-size="12.00">!a</text>
</g>
</g>
</svg>
