<?xml version="1.0" encoding="UTF-8" standalone="no"?>
<?xml-stylesheet href="spot.css" type="text/css"?>
<!DOCTYPE svg PUBLIC "-//W3C//DTD SVG 1.1//EN"
 "http://www.w3.org/Graphics/SVG/1.1/DTD/svg11.dtd">
<!-- Generated by graphviz version 2.38.0 (20140413.2041)
 -->
<!-- Title: G Pages: 1 -->
<svg width="285pt" height="200pt"
 viewBox="0.00 0.00 285.00 200.00" xmlns="http://www.w3.org/2000/svg" xmlns:xlink="http://www.w3.org/1999/xlink">
<g id="graph0" class="graph" transform="scale(1 1) rotate(0) translate(4 196)">
<title>G</title>
<polygon fill="white" stroke="none" points="-4,4 -4,-196 281,-196 281,4 -4,4"/>
<!-- I -->
<!-- 0 -->
<g id="node2" class="node"><title>0</title>
<ellipse fill="#ffffa0" stroke="#e31a1c" stroke-width="2" cx="56" cy="-46" rx="18" ry="18"/>
<text text-anchor="middle" x="56" y="-42.9" font-family="Lato" font-size="12.00">0</text>
</g>
<!-- I&#45;&gt;0 -->
<g id="edge1" class="edge"><title>I&#45;&gt;0</title>
<path fill="none" stroke="black" d="M1.15491,-46C2.79388,-46 17.1543,-46 30.6317,-46"/>
<polygon fill="black" stroke="black" points="37.9419,-46 30.9419,-49.1501 34.4419,-46 30.9419,-46.0001 30.9419,-46.0001 30.9419,-46.0001 34.4419,-46 30.9418,-42.8501 37.9419,-46 37.9419,-46"/>
</g>
<!-- 0&#45;&gt;0 -->
<g id="edge2" class="edge"><title>0&#45;&gt;0</title>
<path fill="none" stroke="#ff4da0" stroke-width="2" d="M49.6208,-63.0373C48.3189,-72.8579 50.4453,-82 56,-82 60.166,-82 62.4036,-76.8576 62.7128,-70.1433"/>
<polygon fill="#ff4da0" stroke="#ff4da0" stroke-width="2" points="62.3792,-63.0373 65.8541,-69.8818 63.0428,-66.51 63.207,-70.0062 62.7076,-70.0296 62.2081,-70.0531 62.0439,-66.5569 59.561,-70.1774 62.3792,-63.0373 62.3792,-63.0373"/>
<text text-anchor="start" x="52.5" y="-85.4" font-family="Lato" font-size="12.00">1</text>
</g>
<!-- 1 -->
<g id="node3" class="node"><title>1</title>
<ellipse fill="#ffffa0" stroke="black" cx="259" cy="-130" rx="18" ry="18"/>
<text text-anchor="start" x="255.5" y="-126.9" font-family="Lato" font-size="12.00">1</text>
</g>
<!-- 0&#45;&gt;1 -->
<g id="edge3" class="edge"><title>0&#45;&gt;1</title>
<path fill="none" stroke="#ff4da0" stroke-width="2" d="M67.9276,-59.7389C82.1091,-76.4621 108.551,-104.067 138,-117 168.95,-130.592 208.543,-132.217 233.597,-131.559"/>
<polygon fill="#ff4da0" stroke="#ff4da0" stroke-width="2" points="240.88,-131.292 234,-134.696 237.4,-131.92 233.903,-132.048 233.884,-131.548 233.866,-131.049 237.364,-130.92 233.769,-128.4 240.88,-131.292 240.88,-131.292"/>
<text text-anchor="start" x="140.5" y="-130.4" font-family="Lato" font-size="12.00">!a &amp; b</text>
</g>
<!-- 2 -->
<g id="node4" class="node"><title>2</title>
<ellipse fill="#ffffa0" stroke="black" cx="156" cy="-46" rx="18" ry="18"/>
<text text-anchor="middle" x="156" y="-42.9" font-family="Lato" font-size="12.00">2</text>
</g>
<!-- 0&#45;&gt;2 -->
<g id="edge4" class="edge"><title>0&#45;&gt;2</title>
<path fill="none" stroke="#ff4da0" stroke-width="2" d="M74.0703,-46C89.7132,-46 113.046,-46 130.644,-46"/>
<polygon fill="#ff4da0" stroke="#ff4da0" stroke-width="2" points="137.797,-46 130.797,-49.1501 134.297,-46.5 130.797,-46.5001 130.797,-46.0001 130.796,-45.5001 134.296,-45.5 130.796,-42.8501 137.797,-46 137.797,-46"/>
<text text-anchor="start" x="92" y="-49.4" font-family="Lato" font-size="12.00">a &amp; b</text>
</g>
<!-- 3 -->
<g id="node5" class="node"><title>3</title>
<ellipse fill="#ffffa0" stroke="black" cx="259" cy="-18" rx="18" ry="18"/>
<text text-anchor="middle" x="259" y="-14.9" font-family="Lato" font-size="12.00">3</text>
</g>
<!-- 0&#45;&gt;3 -->
<g id="edge5" class="edge"><title>0&#45;&gt;3</title>
<path fill="none" stroke="#ff4da0" stroke-width="2" d="M71.4462,-36.2997C87.0739,-26.4391 113.105,-11.8119 138,-6 174.799,2.5909 185.692,-1.99656 223,-8 226.9,-8.62749 230.981,-9.54464 234.924,-10.5726"/>
<polygon fill="#ff4da0" stroke="#ff4da0" stroke-width="2" points="241.8,-12.504 234.209,-13.6437 238.295,-12.0389 234.926,-11.0925 235.061,-10.6111 235.196,-10.1297 238.566,-11.0762 235.913,-7.57843 241.8,-12.504 241.8,-12.504"/>
<text text-anchor="start" x="140.5" y="-9.4" font-family="Lato" font-size="12.00">a &amp; !b</text>
</g>
<!-- 1&#45;&gt;1 -->
<g id="edge6" class="edge"><title>1&#45;&gt;1</title>
<path fill="none" stroke="black" d="M250.367,-145.916C248.114,-156.15 250.992,-166 259,-166 265.131,-166 268.255,-160.226 268.372,-152.927"/>
<polygon fill="black" stroke="black" points="267.633,-145.916 271.499,-152.548 268,-149.397 268.367,-152.878 268.367,-152.878 268.367,-152.878 268,-149.397 265.234,-153.207 267.633,-145.916 267.633,-145.916"/>
<text text-anchor="start" x="255.5" y="-182.4" font-family="Lato" font-size="12.00">b</text>
<text text-anchor="start" x="252" y="-169.4" font-family="Lato" font-size="12.00" fill="#1f78b4">⓿</text>
</g>
<!-- 2&#45;&gt;1 -->
<g id="edge7" class="edge"><title>2&#45;&gt;1</title>
<path fill="none" stroke="black" d="M169.362,-58.2198C175.941,-64.5774 184.253,-72.3823 192,-79 207.086,-91.8868 224.93,-105.588 238.257,-115.541"/>
<polygon fill="black" stroke="black" points="244.037,-119.834 236.539,-118.189 241.227,-117.747 238.418,-115.66 238.418,-115.66 238.418,-115.66 241.227,-117.747 240.296,-113.131 244.037,-119.834 244.037,-119.834"/>
<text text-anchor="start" x="192" y="-106.4" font-family="Lato" font-size="12.00">!a &amp; b</text>
</g>
<!-- 2&#45;&gt;2 -->
<g id="edge8" class="edge"><title>2&#45;&gt;2</title>
<path fill="none" stroke="black" d="M147.367,-61.916C145.114,-72.1504 147.992,-82 156,-82 162.131,-82 165.255,-76.2263 165.372,-68.9268"/>
<polygon fill="black" stroke="black" points="164.633,-61.916 168.499,-68.5477 165,-65.3968 165.367,-68.8775 165.367,-68.8775 165.367,-68.8775 165,-65.3968 162.234,-69.2074 164.633,-61.916 164.633,-61.916"/>
<text text-anchor="start" x="142" y="-98.4" font-family="Lato" font-size="12.00">a &amp; b</text>
<text text-anchor="start" x="149" y="-85.4" font-family="Lato" font-size="12.00" fill="#1f78b4">⓿</text>
</g>
<!-- 2&#45;&gt;3 -->
<g id="edge9" class="edge"><title>2&#45;&gt;3</title>
<path fill="none" stroke="black" d="M174.057,-48.6323C187.696,-50.061 207.097,-50.556 223,-45 229.145,-42.8533 235.059,-39.1655 240.222,-35.1933"/>
<polygon fill="black" stroke="black" points="245.906,-30.4751 242.532,-37.3699 243.213,-32.7106 240.52,-34.9461 240.52,-34.9461 240.52,-34.9461 243.213,-32.7106 238.508,-32.5224 245.906,-30.4751 245.906,-30.4751"/>
<text text-anchor="start" x="192" y="-65.4" font-family="Lato" font-size="12.00">a &amp; !b</text>
<text text-anchor="start" x="200.5" y="-52.4" font-family="Lato" font-size="12.00" fill="#1f78b4">⓿</text>
</g>
<!-- 3&#45;&gt;2 -->
<g id="edge10" class="edge"><title>3&#45;&gt;2</title>
<path fill="none" stroke="black" d="M241.423,-13.6901C227.717,-10.951 207.98,-8.94054 192,-15 185.055,-17.6333 178.604,-22.3445 173.18,-27.3117"/>
<polygon fill="black" stroke="black" points="168.119,-32.2969 170.895,-25.1406 170.612,-29.8409 173.106,-27.3848 173.106,-27.3848 173.106,-27.3848 170.612,-29.8409 175.316,-29.6291 168.119,-32.2969 168.119,-32.2969"/>
<text text-anchor="start" x="193.5" y="-31.4" font-family="Lato" font-size="12.00">a &amp; b</text>
<text text-anchor="start" x="200.5" y="-18.4" font-family="Lato" font-size="12.00" fill="#1f78b4">⓿</text>
</g>
<!-- 3&#45;&gt;3 -->
<g id="edge11" class="edge"><title>3&#45;&gt;3</title>
<path fill="none" stroke="black" d="M250.367,-33.916C248.114,-44.1504 250.992,-54 259,-54 265.131,-54 268.255,-48.2263 268.372,-40.9268"/>
<polygon fill="black" stroke="black" points="267.633,-33.916 271.499,-40.5477 268,-37.3968 268.367,-40.8775 268.367,-40.8775 268.367,-40.8775 268,-37.3968 265.234,-41.2074 267.633,-33.916 267.633,-33.916"/>
<text text-anchor="start" x="243.5" y="-70.4" font-family="Lato" font-size="12.00">a &amp; !b</text>
<text text-anchor="start" x="252" y="-57.4" font-family="Lato" font-size="12.00" fill="#1f78b4">⓿</text>
</g>
</g>
</svg>
