<?xml version="1.0" encoding="UTF-8" standalone="no"?>
<?xml-stylesheet href="spot.css" type="text/css"?>
<!DOCTYPE svg PUBLIC "-//W3C//DTD SVG 1.1//EN"
 "http://www.w3.org/Graphics/SVG/1.1/DTD/svg11.dtd">
<!-- Generated by graphviz version 2.38.0 (20140413.2041)
 -->
<!-- Title: G Pages: 1 -->
<svg width="285pt" height="159pt"
 viewBox="0.00 0.00 285.00 159.00" xmlns="http://www.w3.org/2000/svg" xmlns:xlink="http://www.w3.org/1999/xlink">
<g id="graph0" class="graph" transform="scale(1 1) rotate(0) translate(4 155)">
<title>G</title>
<polygon fill="white" stroke="none" points="-4,4 -4,-155 281,-155 281,4 -4,4"/>
<text text-anchor="start" x="95" y="-138.4" font-family="Lato" font-size="12.00">Inf(</text>
<text text-anchor="start" x="113" y="-138.4" font-family="Lato" font-size="12.00" fill="#1f78b4">⓿</text>
<text text-anchor="start" x="127" y="-138.4" font-family="Lato" font-size="12.00">) &amp; Fin(</text>
<text text-anchor="start" x="164" y="-138.4" font-family="Lato" font-size="12.00" fill="#ff4da0">❶</text>
<text text-anchor="start" x="178" y="-138.4" font-family="Lato" font-size="12.00">)</text>
<text text-anchor="start" x="103.5" y="-126.4" font-family="Lato" font-size="12.00">[Rabin&#45;like 1]</text>
<!-- I -->
<!-- 0 -->
<g id="node2" class="node"><title>0</title>
<ellipse fill="#ffffa0" stroke="black" cx="56" cy="-28" rx="18" ry="18"/>
<text text-anchor="middle" x="56" y="-24.9" font-family="Lato" font-size="12.00">0</text>
</g>
<!-- I&#45;&gt;0 -->
<g id="edge1" class="edge"><title>I&#45;&gt;0</title>
<path fill="none" stroke="black" d="M1.15491,-28C2.79388,-28 17.1543,-28 30.6317,-28"/>
<polygon fill="black" stroke="black" points="37.9419,-28 30.9419,-31.1501 34.4419,-28 30.9419,-28.0001 30.9419,-28.0001 30.9419,-28.0001 34.4419,-28 30.9418,-24.8501 37.9419,-28 37.9419,-28"/>
</g>
<!-- 0&#45;&gt;0 -->
<g id="edge2" class="edge"><title>0&#45;&gt;0</title>
<path fill="none" stroke="black" d="M49.6208,-45.0373C48.3189,-54.8579 50.4453,-64 56,-64 60.166,-64 62.4036,-58.8576 62.7128,-52.1433"/>
<polygon fill="black" stroke="black" points="62.3792,-45.0373 65.8541,-51.8818 62.5434,-48.5335 62.7076,-52.0296 62.7076,-52.0296 62.7076,-52.0296 62.5434,-48.5335 59.561,-52.1774 62.3792,-45.0373 62.3792,-45.0373"/>
<text text-anchor="start" x="52.5" y="-80.4" font-family="Lato" font-size="12.00">1</text>
<text text-anchor="start" x="49" y="-67.4" font-family="Lato" font-size="12.00" fill="#ff4da0">❶</text>
</g>
<!-- 1 -->
<g id="node3" class="node"><title>1</title>
<ellipse fill="#ffffa0" stroke="black" cx="156" cy="-57" rx="18" ry="18"/>
<text text-anchor="middle" x="156" y="-53.9" font-family="Lato" font-size="12.00">1</text>
</g>
<!-- 0&#45;&gt;1 -->
<g id="edge3" class="edge"><title>0&#45;&gt;1</title>
<path fill="none" stroke="black" d="M72.8508,-34.9126C78.7882,-37.3495 85.637,-39.9819 92,-42 104.78,-46.0534 119.324,-49.5853 131.215,-52.202"/>
<polygon fill="black" stroke="black" points="138.237,-53.7095 130.732,-55.3199 134.815,-52.9748 131.393,-52.2401 131.393,-52.2401 131.393,-52.2401 134.815,-52.9748 132.054,-49.1603 138.237,-53.7095 138.237,-53.7095"/>
<text text-anchor="start" x="101" y="-64.4" font-family="Lato" font-size="12.00">!a</text>
<text text-anchor="start" x="92" y="-52.4" font-family="Lato" font-size="12.00" fill="#1f78b4">⓿</text>
<text text-anchor="start" x="106" y="-52.4" font-family="Lato" font-size="12.00" fill="#ff4da0">❶</text>
</g>
<!-- 1&#45;&gt;0 -->
<g id="edge4" class="edge"><title>1&#45;&gt;0</title>
<path fill="none" stroke="black" d="M144.271,-43.1973C138.026,-36.3182 129.517,-28.6949 120,-25 107.658,-20.2085 92.9218,-20.6121 80.8053,-22.3725"/>
<polygon fill="black" stroke="black" points="73.6445,-23.6095 80.0061,-19.3138 77.0935,-23.0137 80.5424,-22.4178 80.5424,-22.4178 80.5424,-22.4178 77.0935,-23.0137 81.0786,-25.5218 73.6445,-23.6095 73.6445,-23.6095"/>
<text text-anchor="start" x="101" y="-28.4" font-family="Lato" font-size="12.00">!b</text>
</g>
<!-- 1&#45;&gt;1 -->
<g id="edge6" class="edge"><title>1&#45;&gt;1</title>
<path fill="none" stroke="black" d="M147.367,-72.916C145.114,-83.1504 147.992,-93 156,-93 162.131,-93 165.255,-87.2263 165.372,-79.9268"/>
<polygon fill="black" stroke="black" points="164.633,-72.916 168.499,-79.5477 165,-76.3968 165.367,-79.8775 165.367,-79.8775 165.367,-79.8775 165,-76.3968 162.234,-80.2074 164.633,-72.916 164.633,-72.916"/>
<text text-anchor="start" x="139" y="-109.4" font-family="Lato" font-size="12.00">!a &amp; !b</text>
<text text-anchor="start" x="149" y="-96.4" font-family="Lato" font-size="12.00" fill="#1f78b4">⓿</text>
</g>
<!-- 2 -->
<g id="node4" class="node"><title>2</title>
<ellipse fill="#ffffa0" stroke="black" cx="259" cy="-18" rx="18" ry="18"/>
<text text-anchor="middle" x="259" y="-14.9" font-family="Lato" font-size="12.00">2</text>
</g>
<!-- 1&#45;&gt;2 -->
<g id="edge5" class="edge"><title>1&#45;&gt;2</title>
<path fill="none" stroke="black" d="M173.227,-50.734C190.014,-44.2522 216.366,-34.0766 235.232,-26.7915"/>
<polygon fill="black" stroke="black" points="241.813,-24.2505 236.417,-29.7106 238.548,-25.5113 235.283,-26.7721 235.283,-26.7721 235.283,-26.7721 238.548,-25.5113 234.148,-23.8335 241.813,-24.2505 241.813,-24.2505"/>
<text text-anchor="start" x="192" y="-59.4" font-family="Lato" font-size="12.00">a &amp; !b</text>
<text text-anchor="start" x="200.5" y="-46.4" font-family="Lato" font-size="12.00" fill="#1f78b4">⓿</text>
</g>
<!-- 2&#45;&gt;0 -->
<g id="edge7" class="edge"><title>2&#45;&gt;0</title>
<path fill="none" stroke="black" d="M241.276,-13.3672C218.061,-7.54712 174.774,1.09647 138,-4 117.968,-6.77618 96.0174,-13.5241 80.0256,-19.16"/>
<polygon fill="black" stroke="black" points="73.1256,-21.653 78.6387,-16.3117 76.4174,-20.4637 79.7091,-19.2743 79.7091,-19.2743 79.7091,-19.2743 76.4174,-20.4637 80.7795,-22.2369 73.1256,-21.653 73.1256,-21.653"/>
<text text-anchor="start" x="152.5" y="-20.4" font-family="Lato" font-size="12.00">b</text>
<text text-anchor="start" x="149" y="-7.4" font-family="Lato" font-size="12.00" fill="#ff4da0">❶</text>
</g>
<!-- 2&#45;&gt;2 -->
<g id="edge8" class="edge"><title>2&#45;&gt;2</title>
<path fill="none" stroke="black" d="M250.367,-33.916C248.114,-44.1504 250.992,-54 259,-54 265.131,-54 268.255,-48.2263 268.372,-40.9268"/>
<polygon fill="black" stroke="black" points="267.633,-33.916 271.499,-40.5477 268,-37.3968 268.367,-40.8775 268.367,-40.8775 268.367,-40.8775 268,-37.3968 265.234,-41.2074 267.633,-33.916 267.633,-33.916"/>
<text text-anchor="start" x="245" y="-69.4" font-family="Lato" font-size="12.00">a &amp; b</text>
<text text-anchor="start" x="245" y="-57.4" font-family="Lato" font-size="12.00" fill="#1f78b4">⓿</text>
<text text-anchor="start" x="259" y="-57.4" font-family="Lato" font-size="12.00" fill="#ff4da0">❶</text>
</g>
</g>
</svg>
