<?xml version="1.0" encoding="UTF-8" standalone="no"?>
<?xml-stylesheet href="spot.css" type="text/css"?>
<!DOCTYPE svg PUBLIC "-//W3C//DTD SVG 1.1//EN"
 "http://www.w3.org/Graphics/SVG/1.1/DTD/svg11.dtd">
<!-- Generated by graphviz version 2.38.0 (20140413.2041)
 -->
<!-- Title: G Pages: 1 -->
<svg width="185pt" height="163pt"
 viewBox="0.00 0.00 185.00 163.33" xmlns="http://www.w3.org/2000/svg" xmlns:xlink="http://www.w3.org/1999/xlink">
<g id="graph0" class="graph" transform="scale(1 1) rotate(0) translate(4 159.334)">
<title>G</title>
<polygon fill="white" stroke="none" points="-4,4 -4,-159.334 181,-159.334 181,4 -4,4"/>
<text text-anchor="start" x="70.5" y="-142.734" font-family="Lato" font-size="12.00">Inf(</text>
<text text-anchor="start" x="88.5" y="-142.734" font-family="Lato" font-size="12.00" fill="#1f78b4">⓿</text>
<text text-anchor="start" x="102.5" y="-142.734" font-family="Lato" font-size="12.00">)</text>
<text text-anchor="start" x="69.5" y="-130.734" font-family="Lato" font-size="12.00">[Büchi]</text>
<!-- I -->
<!-- 0 -->
<g id="node2" class="node"><title>0</title>
<ellipse fill="#ffffa0" stroke="black" cx="56" cy="-30.3341" rx="18" ry="18"/>
<text text-anchor="middle" x="56" y="-27.2341" font-family="Lato" font-size="12.00">0</text>
</g>
<!-- I&#45;&gt;0 -->
<g id="edge1" class="edge"><title>I&#45;&gt;0</title>
<path fill="none" stroke="black" d="M1.15491,-30.3341C2.79388,-30.3341 17.1543,-30.3341 30.6317,-30.3341"/>
<polygon fill="black" stroke="black" points="37.9419,-30.3341 30.9419,-33.4842 34.4419,-30.3342 30.9419,-30.3342 30.9419,-30.3342 30.9419,-30.3342 34.4419,-30.3342 30.9418,-27.1842 37.9419,-30.3341 37.9419,-30.3341"/>
</g>
<!-- 0&#45;&gt;0 -->
<g id="edge2" class="edge"><title>0&#45;&gt;0</title>
<path fill="none" stroke="black" d="M49.6208,-47.3714C48.3189,-57.1921 50.4453,-66.3341 56,-66.3341 60.166,-66.3341 62.4036,-61.1917 62.7128,-54.4774"/>
<polygon fill="black" stroke="black" points="62.3792,-47.3714 65.8541,-54.216 62.5434,-50.8676 62.7076,-54.3637 62.7076,-54.3637 62.7076,-54.3637 62.5434,-50.8676 59.561,-54.5115 62.3792,-47.3714 62.3792,-47.3714"/>
<text text-anchor="start" x="51" y="-69.7341" font-family="Lato" font-size="12.00">!a</text>
</g>
<!-- 1 -->
<g id="node3" class="node"><title>1</title>
<ellipse fill="#ffffa0" stroke="black" cx="159" cy="-30.3341" rx="18" ry="18"/>
<text text-anchor="middle" x="159" y="-27.2341" font-family="Lato" font-size="12.00">1</text>
</g>
<!-- 0&#45;&gt;1 -->
<g id="edge3" class="edge"><title>0&#45;&gt;1</title>
<path fill="none" stroke="black" d="M74.071,-32.0917C79.7664,-32.5995 86.1506,-33.0839 92,-33.3341 105.765,-33.923 109.235,-33.923 123,-33.3341 126.473,-33.1856 130.135,-32.9544 133.729,-32.6849"/>
<polygon fill="black" stroke="black" points="140.929,-32.0917 134.211,-35.8059 137.441,-32.3791 133.953,-32.6665 133.953,-32.6665 133.953,-32.6665 137.441,-32.3791 133.694,-29.5271 140.929,-32.0917 140.929,-32.0917"/>
<text text-anchor="start" x="104" y="-49.7341" font-family="Lato" font-size="12.00">a</text>
<text text-anchor="start" x="100.5" y="-36.7341" font-family="Lato" font-size="12.00" fill="#1f78b4">⓿</text>
</g>
<!-- 1&#45;&gt;0 -->
<g id="edge4" class="edge"><title>1&#45;&gt;0</title>
<path fill="none" stroke="black" d="M145.926,-17.8025C139.677,-12.2208 131.571,-6.25605 123,-3.33414 109.959,1.11138 105.041,1.11138 92,-3.33414 85.8393,-5.43426 79.9192,-9.10634 74.7563,-13.0783"/>
<polygon fill="black" stroke="black" points="69.0744,-17.8025 72.443,-10.905 71.7657,-15.5649 74.4569,-13.3272 74.4569,-13.3272 74.4569,-13.3272 71.7657,-15.5649 76.4708,-15.7493 69.0744,-17.8025 69.0744,-17.8025"/>
<text text-anchor="start" x="92" y="-19.7341" font-family="Lato" font-size="12.00">!a &amp; b</text>
<text text-anchor="start" x="100.5" y="-6.73414" font-family="Lato" font-size="12.00" fill="#1f78b4">⓿</text>
</g>
<!-- 1&#45;&gt;1 -->
<g id="edge5" class="edge"><title>1&#45;&gt;1</title>
<path fill="none" stroke="black" d="M154.506,-48.1159C153.742,-57.6491 155.24,-66.3341 159,-66.3341 161.761,-66.3341 163.302,-61.6502 163.624,-55.3862"/>
<polygon fill="black" stroke="black" points="163.494,-48.1159 166.769,-55.0585 163.557,-51.6153 163.619,-55.1148 163.619,-55.1148 163.619,-55.1148 163.557,-51.6153 160.47,-55.171 163.494,-48.1159 163.494,-48.1159"/>
<text text-anchor="start" x="145" y="-82.7341" font-family="Lato" font-size="12.00">a &amp; b</text>
<text text-anchor="start" x="152" y="-69.7341" font-family="Lato" font-size="12.00" fill="#1f78b4">⓿</text>
</g>
<!-- 1&#45;&gt;1 -->
<g id="edge6" class="edge"><title>1&#45;&gt;1</title>
<path fill="none" stroke="black" d="M152.118,-46.993C147.233,-67.0658 149.527,-92.3341 159,-92.3341 167.363,-92.3341 170.131,-72.6411 167.304,-54.2148"/>
<polygon fill="black" stroke="black" points="165.882,-46.993 170.325,-53.2529 166.558,-50.4271 167.234,-53.8612 167.234,-53.8612 167.234,-53.8612 166.558,-50.4271 164.144,-54.4695 165.882,-46.993 165.882,-46.993"/>
<text text-anchor="start" x="154" y="-95.7341" font-family="Lato" font-size="12.00">!b</text>
</g>
</g>
</svg>
