<?xml version="1.0" encoding="UTF-8" standalone="no"?>
<?xml-stylesheet href="spot.css" type="text/css"?>
<!DOCTYPE svg PUBLIC "-//W3C//DTD SVG 1.1//EN"
 "http://www.w3.org/Graphics/SVG/1.1/DTD/svg11.dtd">
<!-- Generated by graphviz version 2.38.0 (20140413.2041)
 -->
<!-- Title: G Pages: 1 -->
<svg width="391pt" height="174pt"
 viewBox="0.00 0.00 391.00 174.33" xmlns="http://www.w3.org/2000/svg" xmlns:xlink="http://www.w3.org/1999/xlink">
<g id="graph0" class="graph" transform="scale(1 1) rotate(0) translate(4 170.333)">
<title>G</title>
<polygon fill="white" stroke="none" points="-4,4 -4,-170.333 387,-170.333 387,4 -4,4"/>
<text text-anchor="start" x="105" y="-153.733" font-family="Lato" font-size="12.00">Inf(</text>
<text text-anchor="start" x="123" y="-153.733" font-family="Lato" font-size="12.00" fill="#1f78b4">⓿</text>
<text text-anchor="start" x="137" y="-153.733" font-family="Lato" font-size="12.00">) | Inf(</text>
<text text-anchor="start" x="167" y="-153.733" font-family="Lato" font-size="12.00" fill="#ff4da0">❶</text>
<text text-anchor="start" x="181" y="-153.733" font-family="Lato" font-size="12.00">) | (Inf(</text>
<text text-anchor="start" x="214" y="-153.733" font-family="Lato" font-size="12.00" fill="#ff7f00">❷</text>
<text text-anchor="start" x="228" y="-153.733" font-family="Lato" font-size="12.00">)&amp;Inf(</text>
<text text-anchor="start" x="257" y="-153.733" font-family="Lato" font-size="12.00" fill="#6a3d9a">❸</text>
<text text-anchor="start" x="271" y="-153.733" font-family="Lato" font-size="12.00">))</text>
<text text-anchor="start" x="162.5" y="-141.733" font-family="Lato" font-size="12.00">[Fin&#45;less 4]</text>
<!-- I -->
<!-- 0 -->
<g id="node2" class="node"><title>0</title>
<ellipse fill="#ffffa0" stroke="black" cx="56" cy="-22.3327" rx="18" ry="18"/>
<text text-anchor="middle" x="56" y="-19.2327" font-family="Lato" font-size="12.00">0</text>
</g>
<!-- I&#45;&gt;0 -->
<g id="edge1" class="edge"><title>I&#45;&gt;0</title>
<path fill="none" stroke="black" d="M1.15491,-22.3327C2.79388,-22.3327 17.1543,-22.3327 30.6317,-22.3327"/>
<polygon fill="black" stroke="black" points="37.9419,-22.3327 30.9419,-25.4828 34.4419,-22.3327 30.9419,-22.3328 30.9419,-22.3328 30.9419,-22.3328 34.4419,-22.3327 30.9418,-19.1828 37.9419,-22.3327 37.9419,-22.3327"/>
</g>
<!-- 0&#45;&gt;0 -->
<g id="edge2" class="edge"><title>0&#45;&gt;0</title>
<path fill="none" stroke="black" d="M49.6208,-39.37C48.3189,-49.1906 50.4453,-58.3327 56,-58.3327 60.166,-58.3327 62.4036,-53.1902 62.7128,-46.476"/>
<polygon fill="black" stroke="black" points="62.3792,-39.37 65.8541,-46.2145 62.5434,-42.8661 62.7076,-46.3623 62.7076,-46.3623 62.7076,-46.3623 62.5434,-42.8661 59.561,-46.51 62.3792,-39.37 62.3792,-39.37"/>
<text text-anchor="start" x="52.5" y="-74.7327" font-family="Lato" font-size="12.00">1</text>
<text text-anchor="start" x="49" y="-61.7327" font-family="Lato" font-size="12.00" fill="#6a3d9a">❸</text>
</g>
<!-- 1 -->
<g id="node3" class="node"><title>1</title>
<ellipse fill="#ffffa0" stroke="black" cx="156" cy="-72.3327" rx="18" ry="18"/>
<text text-anchor="middle" x="156" y="-69.2327" font-family="Lato" font-size="12.00">1</text>
</g>
<!-- 0&#45;&gt;1 -->
<g id="edge3" class="edge"><title>0&#45;&gt;1</title>
<path fill="none" stroke="black" d="M65.1692,-38.1015C71.1819,-47.9821 80.3305,-60.0046 92,-66.3327 103.678,-72.6651 118.377,-74.3544 130.64,-74.3738"/>
<polygon fill="black" stroke="black" points="137.911,-74.1968 130.99,-77.5163 134.412,-74.282 130.913,-74.3673 130.913,-74.3673 130.913,-74.3673 134.412,-74.282 130.837,-71.2182 137.911,-74.1968 137.911,-74.1968"/>
<text text-anchor="start" x="102.5" y="-88.7327" font-family="Lato" font-size="12.00">a</text>
<text text-anchor="start" x="92" y="-76.7327" font-family="Lato" font-size="12.00" fill="#ff4da0">❶</text>
<text text-anchor="start" x="106" y="-76.7327" font-family="Lato" font-size="12.00" fill="#6a3d9a">❸</text>
</g>
<!-- 2 -->
<g id="node4" class="node"><title>2</title>
<ellipse fill="#ffffa0" stroke="black" cx="259" cy="-22.3327" rx="18" ry="18"/>
<text text-anchor="middle" x="259" y="-19.2327" font-family="Lato" font-size="12.00">2</text>
</g>
<!-- 0&#45;&gt;2 -->
<g id="edge4" class="edge"><title>0&#45;&gt;2</title>
<path fill="none" stroke="black" d="M74.0613,-21.5172C90.4499,-20.7773 115.911,-19.7416 138,-19.3327 171.234,-18.7174 209.638,-20.0334 233.868,-21.1129"/>
<polygon fill="black" stroke="black" points="240.912,-21.438 233.774,-24.2618 237.415,-21.2766 233.919,-21.1152 233.919,-21.1152 233.919,-21.1152 237.415,-21.2766 234.064,-17.9685 240.912,-21.438 240.912,-21.438"/>
<text text-anchor="start" x="151" y="-35.7327" font-family="Lato" font-size="12.00">!a</text>
<text text-anchor="start" x="149" y="-22.7327" font-family="Lato" font-size="12.00" fill="#6a3d9a">❸</text>
</g>
<!-- 1&#45;&gt;0 -->
<g id="edge5" class="edge"><title>1&#45;&gt;0</title>
<path fill="none" stroke="black" d="M144.509,-58.052C138.219,-50.4902 129.591,-41.6856 120,-36.3327 108.171,-29.7304 93.4629,-26.2417 81.2336,-24.3982"/>
<polygon fill="black" stroke="black" points="73.9875,-23.4499 81.3371,-21.235 77.4579,-23.9041 80.9283,-24.3584 80.9283,-24.3584 80.9283,-24.3584 77.4579,-23.9041 80.5195,-27.4817 73.9875,-23.4499 73.9875,-23.4499"/>
<text text-anchor="start" x="102.5" y="-52.7327" font-family="Lato" font-size="12.00">b</text>
<text text-anchor="start" x="99" y="-39.7327" font-family="Lato" font-size="12.00" fill="#6a3d9a">❸</text>
</g>
<!-- 1&#45;&gt;1 -->
<g id="edge6" class="edge"><title>1&#45;&gt;1</title>
<path fill="none" stroke="black" d="M147.367,-88.2487C145.114,-98.4831 147.992,-108.333 156,-108.333 162.131,-108.333 165.255,-102.559 165.372,-95.2595"/>
<polygon fill="black" stroke="black" points="164.633,-88.2487 168.499,-94.8803 165,-91.7295 165.367,-95.2102 165.367,-95.2102 165.367,-95.2102 165,-91.7295 162.234,-95.5401 164.633,-88.2487 164.633,-88.2487"/>
<text text-anchor="start" x="142" y="-124.733" font-family="Lato" font-size="12.00">a &amp; b</text>
<text text-anchor="start" x="149" y="-111.733" font-family="Lato" font-size="12.00" fill="#6a3d9a">❸</text>
</g>
<!-- 1&#45;&gt;2 -->
<g id="edge7" class="edge"><title>1&#45;&gt;2</title>
<path fill="none" stroke="black" d="M174.071,-69.5798C187.892,-66.8552 207.535,-61.8331 223,-53.3327 229.269,-49.887 235.369,-45.1401 240.674,-40.3962"/>
<polygon fill="black" stroke="black" points="246.089,-35.3113 243.142,-42.3995 243.537,-37.7073 240.986,-40.1032 240.986,-40.1032 240.986,-40.1032 243.537,-37.7073 238.83,-37.807 246.089,-35.3113 246.089,-35.3113"/>
<text text-anchor="start" x="192" y="-79.7327" font-family="Lato" font-size="12.00">!a &amp; b</text>
<text text-anchor="start" x="193.5" y="-67.7327" font-family="Lato" font-size="12.00" fill="#ff7f00">❷</text>
<text text-anchor="start" x="207.5" y="-67.7327" font-family="Lato" font-size="12.00" fill="#6a3d9a">❸</text>
</g>
<!-- 2&#45;&gt;0 -->
<g id="edge8" class="edge"><title>2&#45;&gt;0</title>
<path fill="none" stroke="black" d="M241.769,-16.3458C218.772,-8.58334 175.344,3.42956 138,-1.33267 118.13,-3.86651 96.1665,-9.76287 80.1288,-14.6646"/>
<polygon fill="black" stroke="black" points="73.2059,-16.831 78.9456,-11.7341 76.5462,-15.7857 79.8864,-14.7403 79.8864,-14.7403 79.8864,-14.7403 76.5462,-15.7857 80.8272,-17.7466 73.2059,-16.831 73.2059,-16.831"/>
<text text-anchor="start" x="151" y="-4.73267" font-family="Lato" font-size="12.00">!b</text>
</g>
<!-- 2&#45;&gt;1 -->
<g id="edge9" class="edge"><title>2&#45;&gt;1</title>
<path fill="none" stroke="black" d="M240.776,-23.2333C226.866,-24.5864 207.178,-27.9569 192,-36.3327 184.638,-40.3956 177.854,-46.5085 172.258,-52.5494"/>
<polygon fill="black" stroke="black" points="167.471,-58.0161 169.713,-50.6747 169.777,-55.3831 172.082,-52.75 172.082,-52.75 172.082,-52.75 169.777,-55.3831 174.452,-54.8253 167.471,-58.0161 167.471,-58.0161"/>
<text text-anchor="start" x="192" y="-39.7327" font-family="Lato" font-size="12.00">a &amp; !b</text>
</g>
<!-- 2&#45;&gt;2 -->
<g id="edge10" class="edge"><title>2&#45;&gt;2</title>
<path fill="none" stroke="black" d="M250.367,-38.2487C248.114,-48.4831 250.992,-58.3327 259,-58.3327 265.131,-58.3327 268.255,-52.559 268.372,-45.2595"/>
<polygon fill="black" stroke="black" points="267.633,-38.2487 271.499,-44.8803 268,-41.7295 268.367,-45.2102 268.367,-45.2102 268.367,-45.2102 268,-41.7295 265.234,-45.5401 267.633,-38.2487 267.633,-38.2487"/>
<text text-anchor="start" x="242" y="-61.7327" font-family="Lato" font-size="12.00">!a &amp; !b</text>
</g>
<!-- 3 -->
<g id="node5" class="node"><title>3</title>
<ellipse fill="#ffffa0" stroke="black" cx="365" cy="-22.3327" rx="18" ry="18"/>
<text text-anchor="middle" x="365" y="-19.2327" font-family="Lato" font-size="12.00">3</text>
</g>
<!-- 2&#45;&gt;3 -->
<g id="edge11" class="edge"><title>2&#45;&gt;3</title>
<path fill="none" stroke="black" d="M277.173,-22.3327C294.185,-22.3327 320.399,-22.3327 339.575,-22.3327"/>
<polygon fill="black" stroke="black" points="346.801,-22.3327 339.801,-25.4828 343.301,-22.3327 339.801,-22.3328 339.801,-22.3328 339.801,-22.3328 343.301,-22.3327 339.801,-19.1828 346.801,-22.3327 346.801,-22.3327"/>
<text text-anchor="start" x="295" y="-25.7327" font-family="Lato" font-size="12.00">!a &amp; !b</text>
</g>
<!-- 3&#45;&gt;3 -->
<g id="edge12" class="edge"><title>3&#45;&gt;3</title>
<path fill="none" stroke="black" d="M356.021,-38.2487C353.679,-48.4831 356.672,-58.3327 365,-58.3327 371.376,-58.3327 374.625,-52.559 374.746,-45.2595"/>
<polygon fill="black" stroke="black" points="373.979,-38.2487 377.872,-44.8642 374.36,-41.7279 374.741,-45.2071 374.741,-45.2071 374.741,-45.2071 374.36,-41.7279 371.61,-45.55 373.979,-38.2487 373.979,-38.2487"/>
<text text-anchor="start" x="348" y="-74.7327" font-family="Lato" font-size="12.00">!a &amp; !b</text>
<text text-anchor="start" x="358" y="-61.7327" font-family="Lato" font-size="12.00" fill="#1f78b4">⓿</text>
</g>
</g>
</svg>
