<?xml version="1.0" encoding="UTF-8" standalone="no"?>
<?xml-stylesheet href="spot.css" type="text/css"?>
<!DOCTYPE svg PUBLIC "-//W3C//DTD SVG 1.1//EN"
 "http://www.w3.org/Graphics/SVG/1.1/DTD/svg11.dtd">
<!-- Generated by graphviz version 2.38.0 (20140413.2041)
 -->
<!-- Title: G Pages: 1 -->
<svg width="193pt" height="83pt"
 viewBox="0.00 0.00 193.00 83.00" xmlns="http://www.w3.org/2000/svg" xmlns:xlink="http://www.w3.org/1999/xlink">
<g id="graph0" class="graph" transform="scale(1 1) rotate(0) translate(4 79)">
<title>G</title>
<polygon fill="white" stroke="none" points="-4,4 -4,-79 189,-79 189,4 -4,4"/>
<!-- I -->
<!-- 0 -->
<g id="node2" class="node"><title>0</title>
<ellipse fill="#ffffa0" stroke="black" cx="60" cy="-22" rx="18" ry="18"/>
<ellipse fill="none" stroke="black" cx="60" cy="-22" rx="22" ry="22"/>
<text text-anchor="middle" x="60" y="-18.9" font-family="Lato" font-size="12.00">0</text>
</g>
<!-- I&#45;&gt;0 -->
<g id="edge1" class="edge"><title>I&#45;&gt;0</title>
<path fill="none" stroke="black" d="M1.16638,-22C2.84121,-22 16.884,-22 30.7112,-22"/>
<polygon fill="black" stroke="black" points="37.8555,-22 30.8556,-25.1501 34.3555,-22 30.8555,-22.0001 30.8555,-22.0001 30.8555,-22.0001 34.3555,-22 30.8555,-18.8501 37.8555,-22 37.8555,-22"/>
</g>
<!-- 0&#45;&gt;0 -->
<g id="edge2" class="edge"><title>0&#45;&gt;0</title>
<path fill="none" stroke="black" d="M52.6831,-42.9908C51.7798,-53.0872 54.2188,-62 60,-62 64.3359,-62 66.7918,-56.9866 67.3677,-50.2204"/>
<polygon fill="black" stroke="black" points="67.3169,-42.9908 70.5161,-49.9684 67.3415,-46.4907 67.3662,-49.9906 67.3662,-49.9906 67.3662,-49.9906 67.3415,-46.4907 64.2163,-50.0128 67.3169,-42.9908 67.3169,-42.9908"/>
<text text-anchor="start" x="46" y="-65.4" font-family="Lato" font-size="12.00">a &amp; b</text>
</g>
<!-- 1 -->
<g id="node3" class="node"><title>1</title>
<ellipse fill="#ffffa0" stroke="black" cx="167" cy="-22" rx="18" ry="18"/>
<text text-anchor="middle" x="167" y="-18.9" font-family="Lato" font-size="12.00">1</text>
</g>
<!-- 0&#45;&gt;1 -->
<g id="edge3" class="edge"><title>0&#45;&gt;1</title>
<path fill="none" stroke="black" d="M82.2483,-22C99.4466,-22 123.68,-22 141.657,-22"/>
<polygon fill="black" stroke="black" points="148.94,-22 141.94,-25.1501 145.44,-22 141.94,-22.0001 141.94,-22.0001 141.94,-22.0001 145.44,-22 141.94,-18.8501 148.94,-22 148.94,-22"/>
<text text-anchor="start" x="100" y="-25.4" font-family="Lato" font-size="12.00">a &amp; !b</text>
</g>
<!-- 1&#45;&gt;0 -->
<g id="edge4" class="edge"><title>1&#45;&gt;0</title>
<path fill="none" stroke="black" d="M151.22,-12.9834C145.178,-9.79557 137.978,-6.60508 131,-5 117.573,-1.91163 113.488,-2.18812 100,-5 95.5396,-5.92989 90.9643,-7.39874 86.5884,-9.09281"/>
<polygon fill="black" stroke="black" points="79.9214,-11.8952 85.1538,-6.27877 83.1479,-10.5389 86.3745,-9.18267 86.3745,-9.18267 86.3745,-9.18267 83.1479,-10.5389 87.5951,-12.0866 79.9214,-11.8952 79.9214,-11.8952"/>
<text text-anchor="start" x="101.5" y="-8.4" font-family="Lato" font-size="12.00">a &amp; b</text>
</g>
<!-- 1&#45;&gt;1 -->
<g id="edge5" class="edge"><title>1&#45;&gt;1</title>
<path fill="none" stroke="black" d="M158.367,-37.916C156.114,-48.1504 158.992,-58 167,-58 173.131,-58 176.255,-52.2263 176.372,-44.9268"/>
<polygon fill="black" stroke="black" points="175.633,-37.916 179.499,-44.5477 176,-41.3968 176.367,-44.8775 176.367,-44.8775 176.367,-44.8775 176,-41.3968 173.234,-45.2074 175.633,-37.916 175.633,-37.916"/>
<text text-anchor="start" x="151.5" y="-61.4" font-family="Lato" font-size="12.00">a &amp; !b</text>
</g>
</g>
</svg>
