<?xml version="1.0" encoding="UTF-8" standalone="no"?>
<?xml-stylesheet href="spot.css" type="text/css"?>
<!DOCTYPE svg PUBLIC "-//W3C//DTD SVG 1.1//EN"
 "http://www.w3.org/Graphics/SVG/1.1/DTD/svg11.dtd">
<!-- Generated by graphviz version 2.38.0 (20140413.2041)
 -->
<!-- Title: G Pages: 1 -->
<svg width="185pt" height="87pt"
 viewBox="0.00 0.00 185.17 87.08" xmlns="http://www.w3.org/2000/svg" xmlns:xlink="http://www.w3.org/1999/xlink">
<g id="graph0" class="graph" transform="scale(1 1) rotate(0) translate(4 83.0833)">
<title>G</title>
<polygon fill="white" stroke="none" points="-4,4 -4,-83.0833 181.167,-83.0833 181.167,4 -4,4"/>
<!-- I -->
<!-- 0 -->
<g id="node2" class="node"><title>0</title>
<ellipse fill="#ffffa0" stroke="black" cx="62.0416" cy="-24.0416" rx="24.0833" ry="24.0833"/>
<text text-anchor="start" x="58.5416" y="-27.4416" font-family="Lato" font-size="12.00">0</text>
<text text-anchor="start" x="55.0416" y="-14.4416" font-family="Lato" font-size="12.00" fill="#ff4da0">â¶</text>
</g>
<!-- I&#45;&gt;0 -->
<g id="edge1" class="edge"><title>I&#45;&gt;0</title>
<path fill="none" stroke="black" d="M1.04352,-24.0416C1.9346,-24.0416 16.3644,-24.0416 30.8478,-24.0416"/>
<polygon fill="black" stroke="black" points="37.9031,-24.0416 30.9032,-27.1917 34.4031,-24.0417 30.9031,-24.0417 30.9031,-24.0417 30.9031,-24.0417 34.4031,-24.0417 30.9031,-20.8917 37.9031,-24.0416 37.9031,-24.0416"/>
</g>
<!-- 0&#45;&gt;0 -->
<g id="edge2" class="edge"><title>0&#45;&gt;0</title>
<path fill="none" stroke="black" d="M54.2897,-46.9613C53.5514,-57.2151 56.1354,-66.0833 62.0416,-66.0833 66.4713,-66.0833 69.0322,-61.0949 69.7244,-54.2749"/>
<polygon fill="black" stroke="black" points="69.7936,-46.9613 72.8771,-53.9908 69.7604,-50.4611 69.7272,-53.961 69.7272,-53.961 69.7272,-53.961 69.7604,-50.4611 66.5774,-53.9311 69.7936,-46.9613 69.7936,-46.9613"/>
<text text-anchor="start" x="57.0416" y="-69.4833" font-family="Lato" font-size="12.00">!a</text>
</g>
<!-- 1 -->
<g id="node3" class="node"><title>1</title>
<ellipse fill="#ffffa0" stroke="black" cx="153.125" cy="-24.0416" rx="24.0833" ry="24.0833"/>
<text text-anchor="start" x="149.625" y="-27.4416" font-family="Lato" font-size="12.00">1</text>
<text text-anchor="start" x="146.125" y="-14.4416" font-family="Lato" font-size="12.00" fill="#1f78b4">â“¿</text>
</g>
<!-- 0&#45;&gt;1 -->
<g id="edge3" class="edge"><title>0&#45;&gt;1</title>
<path fill="none" stroke="black" d="M86.4472,-24.0416C97.1882,-24.0416 110.064,-24.0416 121.558,-24.0416"/>
<polygon fill="black" stroke="black" points="128.876,-24.0416 121.876,-27.1917 125.376,-24.0417 121.876,-24.0417 121.876,-24.0417 121.876,-24.0417 125.376,-24.0417 121.876,-20.8917 128.876,-24.0416 128.876,-24.0416"/>
<text text-anchor="start" x="104.083" y="-27.4416" font-family="Lato" font-size="12.00">a</text>
</g>
<!-- 1&#45;&gt;0 -->
<g id="edge4" class="edge"><title>1&#45;&gt;0</title>
<path fill="none" stroke="black" d="M131.917,-11.6965C123.469,-7.91188 113.455,-5.17752 104.083,-7.04163 99.6157,-7.93029 95.025,-9.31378 90.6058,-10.9165"/>
<polygon fill="black" stroke="black" points="83.8448,-13.5758 89.2059,-8.08209 87.1019,-12.2946 90.359,-11.0135 90.359,-11.0135 90.359,-11.0135 87.1019,-12.2946 91.512,-13.9449 83.8448,-13.5758 83.8448,-13.5758"/>
<text text-anchor="start" x="104.083" y="-10.4416" font-family="Lato" font-size="12.00">b</text>
</g>
<!-- 1&#45;&gt;1 -->
<g id="edge5" class="edge"><title>1&#45;&gt;1</title>
<path fill="none" stroke="black" d="M145.004,-46.9613C144.23,-57.2151 146.937,-66.0833 153.125,-66.0833 157.766,-66.0833 160.448,-61.0949 161.173,-54.2749"/>
<polygon fill="black" stroke="black" points="161.246,-46.9613 164.326,-53.9922 161.211,-50.4611 161.176,-53.961 161.176,-53.961 161.176,-53.961 161.211,-50.4611 158.027,-53.9297 161.246,-46.9613 161.246,-46.9613"/>
<text text-anchor="start" x="148.125" y="-69.4833" font-family="Lato" font-size="12.00">!b</text>
</g>
</g>
</svg>
