<?xml version="1.0" encoding="UTF-8" standalone="no"?>
<?xml-stylesheet href="spot.css" type="text/css"?>
<!DOCTYPE svg PUBLIC "-//W3C//DTD SVG 1.1//EN"
 "http://www.w3.org/Graphics/SVG/1.1/DTD/svg11.dtd">
<!-- Generated by graphviz version 2.38.0 (20140413.2041)
 -->
<!-- Title: G Pages: 1 -->
<svg width="447pt" height="224pt"
 viewBox="0.00 0.00 447.39 224.28" xmlns="http://www.w3.org/2000/svg" xmlns:xlink="http://www.w3.org/1999/xlink">
<g id="graph0" class="graph" transform="scale(1 1) rotate(0) translate(4 220.284)">
<title>G</title>
<polygon fill="white" stroke="none" points="-4,4 -4,-220.284 443.392,-220.284 443.392,4 -4,4"/>
<!-- I -->
<!-- 0 -->
<g id="node2" class="node"><title>0</title>
<ellipse fill="#ffffa0" stroke="black" cx="69.1127" cy="-41.2839" rx="31.2258" ry="31.2258"/>
<text text-anchor="start" x="65.6127" y="-44.6839" font-family="Lato" font-size="12.00">0</text>
<text text-anchor="start" x="55.1127" y="-32.6839" font-family="Lato" font-size="12.00" fill="#1f78b4">⓿</text>
<text text-anchor="start" x="69.1127" y="-32.6839" font-family="Lato" font-size="12.00" fill="#ff4da0">❶</text>
</g>
<!-- I&#45;&gt;0 -->
<g id="edge1" class="edge"><title>I&#45;&gt;0</title>
<path fill="none" stroke="black" d="M1.04864,-41.2839C1.96281,-41.2839 15.6247,-41.2839 30.3807,-41.2839"/>
<polygon fill="black" stroke="black" points="37.6614,-41.2839 30.6615,-44.434 34.1614,-41.2839 30.6614,-41.284 30.6614,-41.284 30.6614,-41.284 34.1614,-41.2839 30.6614,-38.134 37.6614,-41.2839 37.6614,-41.2839"/>
</g>
<!-- 0&#45;&gt;0 -->
<g id="edge2" class="edge"><title>0&#45;&gt;0</title>
<path fill="none" stroke="black" d="M60.1149,-71.4982C60.0197,-81.9534 63.0189,-90.3966 69.1127,-90.3966 73.683,-90.3966 76.5127,-85.6473 77.6017,-78.8619"/>
<polygon fill="black" stroke="black" points="78.1105,-71.4982 80.7704,-78.6988 77.8692,-74.9899 77.6279,-78.4816 77.6279,-78.4816 77.6279,-78.4816 77.8692,-74.9899 74.4854,-78.2644 78.1105,-71.4982 78.1105,-71.4982"/>
<text text-anchor="start" x="55.1127" y="-93.7966" font-family="Lato" font-size="12.00">a &amp; b</text>
</g>
<!-- 1 -->
<g id="node3" class="node"><title>1</title>
<ellipse fill="#ffffa0" stroke="black" cx="188.225" cy="-135.284" rx="18" ry="18"/>
<text text-anchor="middle" x="188.225" y="-132.184" font-family="Lato" font-size="12.00">1</text>
</g>
<!-- 0&#45;&gt;1 -->
<g id="edge3" class="edge"><title>0&#45;&gt;1</title>
<path fill="none" stroke="black" d="M83.024,-69.3152C91.1985,-84.2729 103.09,-101.893 118.225,-113.284 131.314,-123.135 148.953,-128.657 163.119,-131.705"/>
<polygon fill="black" stroke="black" points="170.169,-133.084 162.694,-134.832 166.734,-132.412 163.299,-131.74 163.299,-131.74 163.299,-131.74 166.734,-132.412 163.903,-128.649 170.169,-133.084 170.169,-133.084"/>
<text text-anchor="start" x="118.225" y="-131.684" font-family="Lato" font-size="12.00">!a &amp; !b</text>
</g>
<!-- 2 -->
<g id="node4" class="node"><title>2</title>
<ellipse fill="#ffffa0" stroke="black" cx="415.35" cy="-69.2839" rx="24.0833" ry="24.0833"/>
<text text-anchor="start" x="411.85" y="-72.6839" font-family="Lato" font-size="12.00">2</text>
<text text-anchor="start" x="408.35" y="-59.6839" font-family="Lato" font-size="12.00" fill="#ff4da0">❶</text>
</g>
<!-- 0&#45;&gt;2 -->
<g id="edge4" class="edge"><title>0&#45;&gt;2</title>
<path fill="none" stroke="black" d="M99.1538,-32.3521C105.392,-30.7397 111.985,-29.2622 118.225,-28.2839 179.736,-18.6402 196.241,-17.4124 258.225,-23.2839 310.068,-28.1947 324.554,-26.9874 373.309,-45.2839 378.525,-47.2415 383.844,-49.8353 388.848,-52.5937"/>
<polygon fill="black" stroke="black" points="394.988,-56.1403 387.351,-55.3666 391.958,-54.3896 388.927,-52.639 388.927,-52.639 388.927,-52.639 391.958,-54.3896 390.502,-49.9113 394.988,-56.1403 394.988,-56.1403"/>
<text text-anchor="start" x="225.725" y="-26.6839" font-family="Lato" font-size="12.00">!a &amp; b</text>
</g>
<!-- 3 -->
<g id="node5" class="node"><title>3</title>
<ellipse fill="#ffffa0" stroke="black" cx="300.267" cy="-69.2839" rx="24.0833" ry="24.0833"/>
<text text-anchor="start" x="296.767" y="-72.6839" font-family="Lato" font-size="12.00">3</text>
<text text-anchor="start" x="293.267" y="-59.6839" font-family="Lato" font-size="12.00" fill="#1f78b4">⓿</text>
</g>
<!-- 0&#45;&gt;3 -->
<g id="edge5" class="edge"><title>0&#45;&gt;3</title>
<path fill="none" stroke="black" d="M100.071,-44.9444C143.97,-50.3084 225.315,-60.2479 269.249,-65.6161"/>
<polygon fill="black" stroke="black" points="276.226,-66.4685 268.895,-68.7462 272.752,-66.044 269.277,-65.6194 269.277,-65.6194 269.277,-65.6194 272.752,-66.044 269.66,-62.4927 276.226,-66.4685 276.226,-66.4685"/>
<text text-anchor="start" x="172.725" y="-60.6839" font-family="Lato" font-size="12.00">a &amp; !b</text>
</g>
<!-- 1&#45;&gt;0 -->
<g id="edge6" class="edge"><title>1&#45;&gt;0</title>
<path fill="none" stroke="black" d="M176.547,-121.238C170.07,-113.306 161.32,-103.556 152.225,-96.2839 138.705,-85.4734 132.743,-86.7123 118.225,-77.2839 112.188,-73.3633 105.911,-68.9408 99.9602,-64.5719"/>
<polygon fill="black" stroke="black" points="94.14,-60.2413 101.636,-61.8928 96.948,-62.3306 99.756,-64.42 99.756,-64.42 99.756,-64.42 96.948,-62.3306 97.8756,-66.9472 94.14,-60.2413 94.14,-60.2413"/>
<text text-anchor="start" x="121.225" y="-99.6839" font-family="Lato" font-size="12.00">a &amp; b</text>
</g>
<!-- 1&#45;&gt;1 -->
<g id="edge7" class="edge"><title>1&#45;&gt;1</title>
<path fill="none" stroke="black" d="M179.247,-151.2C176.904,-161.434 179.897,-171.284 188.225,-171.284 194.602,-171.284 197.85,-165.51 197.972,-158.211"/>
<polygon fill="black" stroke="black" points="197.204,-151.2 201.097,-157.815 197.585,-154.679 197.966,-158.158 197.966,-158.158 197.966,-158.158 197.585,-154.679 194.835,-158.501 197.204,-151.2 197.204,-151.2"/>
<text text-anchor="start" x="171.225" y="-174.684" font-family="Lato" font-size="12.00">!a &amp; !b</text>
</g>
<!-- 1&#45;&gt;2 -->
<g id="edge8" class="edge"><title>1&#45;&gt;2</title>
<path fill="none" stroke="black" d="M197.757,-150.908C203.81,-160.32 212.868,-171.56 224.225,-177.284 283.394,-207.105 319.941,-216.555 373.309,-177.284 397.423,-159.539 407.37,-125.77 411.472,-100.697"/>
<polygon fill="black" stroke="black" points="412.524,-93.5493 414.621,-100.933 412.014,-97.012 411.505,-100.475 411.505,-100.475 411.505,-100.475 412.014,-97.012 408.388,-100.016 412.524,-93.5493 412.524,-93.5493"/>
<text text-anchor="start" x="284.767" y="-206.684" font-family="Lato" font-size="12.00">!a &amp; b</text>
</g>
<!-- 1&#45;&gt;3 -->
<g id="edge9" class="edge"><title>1&#45;&gt;3</title>
<path fill="none" stroke="black" d="M206.141,-132.403C220.78,-129.346 242.078,-123.507 258.225,-113.284 266.384,-108.119 274.002,-100.947 280.406,-93.8909"/>
<polygon fill="black" stroke="black" points="285.055,-88.5529 282.833,-95.9004 282.756,-91.1922 280.457,-93.8315 280.457,-93.8315 280.457,-93.8315 282.756,-91.1922 278.082,-91.7626 285.055,-88.5529 285.055,-88.5529"/>
<text text-anchor="start" x="225.725" y="-130.684" font-family="Lato" font-size="12.00">a &amp; !b</text>
</g>
<!-- 2&#45;&gt;0 -->
<g id="edge10" class="edge"><title>2&#45;&gt;0</title>
<path fill="none" stroke="black" d="M399.196,-51.1122C392.062,-43.6338 382.995,-35.5151 373.309,-30.2839 327.082,-5.31929 310.414,-9.32395 258.225,-3.2839 196.013,3.91621 178.249,-1.41489 118.225,-19.2839 113.384,-20.7252 108.402,-22.5627 103.563,-24.5596"/>
<polygon fill="black" stroke="black" points="97.0806,-27.3592 102.258,-21.692 100.294,-25.9715 103.507,-24.5838 103.507,-24.5838 103.507,-24.5838 100.294,-25.9715 104.756,-27.4757 97.0806,-27.3592 97.0806,-27.3592"/>
<text text-anchor="start" x="227.225" y="-6.6839" font-family="Lato" font-size="12.00">a &amp; b</text>
</g>
<!-- 2&#45;&gt;1 -->
<g id="edge11" class="edge"><title>2&#45;&gt;1</title>
<path fill="none" stroke="black" d="M397.182,-85.1573C380.053,-100.054 352.319,-121.723 324.309,-133.284 282.944,-150.356 268.621,-149.901 224.225,-144.284 220.508,-143.814 216.621,-143.073 212.845,-142.214"/>
<polygon fill="black" stroke="black" points="205.794,-140.455 213.349,-139.093 209.19,-141.302 212.586,-142.149 212.586,-142.149 212.586,-142.149 209.19,-141.302 211.824,-145.206 205.794,-140.455 205.794,-140.455"/>
<text text-anchor="start" x="283.267" y="-149.684" font-family="Lato" font-size="12.00">!a &amp; !b</text>
</g>
<!-- 2&#45;&gt;2 -->
<g id="edge12" class="edge"><title>2&#45;&gt;2</title>
<path fill="none" stroke="black" d="M405.107,-91.346C403.842,-101.958 407.257,-111.326 415.35,-111.326 421.547,-111.326 425.001,-105.834 425.712,-98.4979"/>
<polygon fill="black" stroke="black" points="425.594,-91.346 428.859,-98.293 425.652,-94.8456 425.71,-98.3451 425.71,-98.3451 425.71,-98.3451 425.652,-94.8456 422.56,-98.3971 425.594,-91.346 425.594,-91.346"/>
<text text-anchor="start" x="399.85" y="-114.726" font-family="Lato" font-size="12.00">!a &amp; b</text>
</g>
<!-- 2&#45;&gt;3 -->
<g id="edge13" class="edge"><title>2&#45;&gt;3</title>
<path fill="none" stroke="black" d="M391.224,-69.2839C374.004,-69.2839 350.336,-69.2839 331.598,-69.2839"/>
<polygon fill="black" stroke="black" points="324.424,-69.2839 331.424,-66.134 327.924,-69.2839 331.424,-69.284 331.424,-69.284 331.424,-69.284 327.924,-69.2839 331.424,-72.434 324.424,-69.2839 324.424,-69.2839"/>
<text text-anchor="start" x="342.309" y="-72.6839" font-family="Lato" font-size="12.00">a &amp; !b</text>
</g>
<!-- 3&#45;&gt;0 -->
<g id="edge14" class="edge"><title>3&#45;&gt;0</title>
<path fill="none" stroke="black" d="M278.022,-59.3984C259.518,-51.3655 231.73,-40.673 206.225,-36.2839 173.067,-30.5778 134.72,-32.7592 107.196,-35.823"/>
<polygon fill="black" stroke="black" points="100.088,-36.6605 106.671,-32.713 103.564,-36.2509 107.04,-35.8413 107.04,-35.8413 107.04,-35.8413 103.564,-36.2509 107.408,-38.9697 100.088,-36.6605 100.088,-36.6605"/>
<text text-anchor="start" x="174.225" y="-39.6839" font-family="Lato" font-size="12.00">a &amp; b</text>
</g>
<!-- 3&#45;&gt;1 -->
<g id="edge15" class="edge"><title>3&#45;&gt;1</title>
<path fill="none" stroke="black" d="M276.576,-74.3144C260.943,-78.5017 240.192,-85.5383 224.225,-96.2839 216.678,-101.364 209.686,-108.426 203.968,-115.146"/>
<polygon fill="black" stroke="black" points="199.48,-120.66 201.456,-113.243 201.689,-117.946 203.899,-115.231 203.899,-115.231 203.899,-115.231 201.689,-117.946 206.342,-117.22 199.48,-120.66 199.48,-120.66"/>
<text text-anchor="start" x="224.225" y="-99.6839" font-family="Lato" font-size="12.00">!a &amp; !b</text>
</g>
<!-- 3&#45;&gt;2 -->
<g id="edge16" class="edge"><title>3&#45;&gt;2</title>
<path fill="none" stroke="black" d="M322.07,-58.8181C328.407,-56.1412 335.501,-53.638 342.309,-52.2839 355.822,-49.596 359.796,-49.596 373.309,-52.2839 377.776,-53.1726 382.367,-54.556 386.786,-56.1587"/>
<polygon fill="black" stroke="black" points="393.547,-58.8181 385.88,-59.1871 390.29,-57.5369 387.033,-56.2557 387.033,-56.2557 387.033,-56.2557 390.29,-57.5369 388.186,-53.3244 393.547,-58.8181 393.547,-58.8181"/>
<text text-anchor="start" x="342.309" y="-55.6839" font-family="Lato" font-size="12.00">!a &amp; b</text>
</g>
<!-- 3&#45;&gt;3 -->
<g id="edge17" class="edge"><title>3&#45;&gt;3</title>
<path fill="none" stroke="black" d="M290.023,-91.346C288.759,-101.958 292.173,-111.326 300.267,-111.326 306.464,-111.326 309.918,-105.834 310.629,-98.4979"/>
<polygon fill="black" stroke="black" points="310.511,-91.346 313.776,-98.293 310.569,-94.8456 310.626,-98.3451 310.626,-98.3451 310.626,-98.3451 310.569,-94.8456 307.477,-98.3971 310.511,-91.346 310.511,-91.346"/>
<text text-anchor="start" x="284.767" y="-114.726" font-family="Lato" font-size="12.00">a &amp; !b</text>
</g>
</g>
</svg>
