<?xml version="1.0" encoding="UTF-8" standalone="no"?>
<?xml-stylesheet href="spot.css" type="text/css"?>
<!DOCTYPE svg PUBLIC "-//W3C//DTD SVG 1.1//EN"
 "http://www.w3.org/Graphics/SVG/1.1/DTD/svg11.dtd">
<!-- Generated by graphviz version 2.38.0 (20140413.2041)
 -->
<!-- Title: G Pages: 1 -->
<svg width="185pt" height="133pt"
 viewBox="0.00 0.00 185.00 133.33" xmlns="http://www.w3.org/2000/svg" xmlns:xlink="http://www.w3.org/1999/xlink">
<g id="graph0" class="graph" transform="scale(1 1) rotate(0) translate(4 129.327)">
<title>G</title>
<polygon fill="white" stroke="none" points="-4,4 -4,-129.327 181,-129.327 181,4 -4,4"/>
<!-- I -->
<!-- 0 -->
<g id="node2" class="node"><title>0</title>
<ellipse fill="#ffffa0" stroke="black" cx="56" cy="-45.3273" rx="18" ry="18"/>
<text text-anchor="middle" x="56" y="-42.2273" font-family="Lato" font-size="12.00">0</text>
</g>
<!-- I&#45;&gt;0 -->
<g id="edge1" class="edge"><title>I&#45;&gt;0</title>
<path fill="none" stroke="black" d="M1.15491,-45.3273C2.79388,-45.3273 17.1543,-45.3273 30.6317,-45.3273"/>
<polygon fill="black" stroke="black" points="37.9419,-45.3273 30.9419,-48.4774 34.4419,-45.3273 30.9419,-45.3274 30.9419,-45.3274 30.9419,-45.3274 34.4419,-45.3273 30.9418,-42.1774 37.9419,-45.3273 37.9419,-45.3273"/>
</g>
<!-- 0&#45;&gt;0 -->
<g id="edge2" class="edge"><title>0&#45;&gt;0</title>
<path fill="none" stroke="black" d="M52.7643,-63.109C52.2144,-72.6422 53.293,-81.3273 56,-81.3273 57.988,-81.3273 59.0977,-76.6434 59.3292,-70.3794"/>
<polygon fill="black" stroke="black" points="59.2357,-63.109 62.4756,-70.0679 59.2808,-66.6087 59.3258,-70.1085 59.3258,-70.1085 59.3258,-70.1085 59.2808,-66.6087 56.1761,-70.149 59.2357,-63.109 59.2357,-63.109"/>
<text text-anchor="start" x="39" y="-84.7273" font-family="Lato" font-size="12.00">!a &amp; !b</text>
</g>
<!-- 0&#45;&gt;0 -->
<g id="edge3" class="edge"><title>0&#45;&gt;0</title>
<path fill="none" stroke="black" d="M50.6841,-62.7476C47.6538,-80.1183 49.4258,-99.3273 56,-99.3273 61.7011,-99.3273 63.7908,-84.8818 62.2691,-69.7167"/>
<polygon fill="black" stroke="black" points="61.3159,-62.7476 65.3856,-69.2561 61.7902,-66.2153 62.2646,-69.683 62.2646,-69.683 62.2646,-69.683 61.7902,-66.2153 59.1437,-70.1099 61.3159,-62.7476 61.3159,-62.7476"/>
<text text-anchor="start" x="40.5" y="-102.727" font-family="Lato" font-size="12.00">a &amp; !b</text>
</g>
<!-- 1 -->
<g id="node3" class="node"><title>1</title>
<ellipse fill="#ffffa0" stroke="black" cx="159" cy="-45.3273" rx="18" ry="18"/>
<text text-anchor="middle" x="159" y="-42.2273" font-family="Lato" font-size="12.00">1</text>
</g>
<!-- 0&#45;&gt;1 -->
<g id="edge4" class="edge"><title>0&#45;&gt;1</title>
<path fill="none" stroke="black" d="M63.7009,-62.1083C69.3452,-73.7549 78.6543,-88.3788 92,-95.3273 104.221,-101.69 110.779,-101.69 123,-95.3273 134.052,-89.573 142.336,-78.5551 148.062,-68.3234"/>
<polygon fill="black" stroke="black" points="151.299,-62.1083 150.859,-69.7719 149.682,-65.2125 148.066,-68.3167 148.066,-68.3167 148.066,-68.3167 149.682,-65.2125 145.272,-66.8616 151.299,-62.1083 151.299,-62.1083"/>
<text text-anchor="start" x="92" y="-102.727" font-family="Lato" font-size="12.00">!a &amp; b</text>
</g>
<!-- 0&#45;&gt;1 -->
<g id="edge5" class="edge"><title>0&#45;&gt;1</title>
<path fill="none" stroke="black" d="M72.6425,-53.0603C78.5573,-55.586 85.4451,-58.0649 92,-59.3273 105.529,-61.9328 109.471,-61.9328 123,-59.3273 127.199,-58.5186 131.535,-57.2106 135.664,-55.7109"/>
<polygon fill="black" stroke="black" points="142.358,-53.0603 137.009,-58.5664 139.103,-54.349 135.849,-55.6377 135.849,-55.6377 135.849,-55.6377 139.103,-54.349 134.689,-52.709 142.358,-53.0603 142.358,-53.0603"/>
<text text-anchor="start" x="93.5" y="-63.7273" font-family="Lato" font-size="12.00">a &amp; b</text>
</g>
<!-- 1&#45;&gt;0 -->
<g id="edge7" class="edge"><title>1&#45;&gt;0</title>
<path fill="none" stroke="black" d="M140.929,-43.5698C135.234,-43.062 128.849,-42.5775 123,-42.3273 109.235,-41.7384 105.765,-41.7384 92,-42.3273 88.5269,-42.4759 84.8653,-42.707 81.2713,-42.9766"/>
<polygon fill="black" stroke="black" points="74.071,-43.5698 80.7887,-39.8556 77.5592,-43.2823 81.0474,-42.9949 81.0474,-42.9949 81.0474,-42.9949 77.5592,-43.2823 81.3061,-46.1343 74.071,-43.5698 74.071,-43.5698"/>
<text text-anchor="start" x="92" y="-45.7273" font-family="Lato" font-size="12.00">a &amp; !b</text>
</g>
<!-- 1&#45;&gt;0 -->
<g id="edge8" class="edge"><title>1&#45;&gt;0</title>
<path fill="none" stroke="black" d="M144.163,-34.6573C138.03,-30.5779 130.512,-26.408 123,-24.3273 109.722,-20.6495 105.278,-20.6495 92,-24.3273 86.8355,-25.7578 81.6679,-28.1757 76.9498,-30.8729"/>
<polygon fill="black" stroke="black" points="70.8371,-34.6573 75.1306,-28.2943 73.8129,-32.8149 76.7888,-30.9725 76.7888,-30.9725 76.7888,-30.9725 73.8129,-32.8149 78.4469,-33.6508 70.8371,-34.6573 70.8371,-34.6573"/>
<text text-anchor="start" x="92" y="-27.7273" font-family="Lato" font-size="12.00">!a &amp; b</text>
</g>
<!-- 1&#45;&gt;0 -->
<g id="edge9" class="edge"><title>1&#45;&gt;0</title>
<path fill="none" stroke="black" d="M149.489,-29.8459C143.444,-20.5664 134.388,-9.57907 123,-4.3273 110.489,1.44243 104.511,1.44243 92,-4.3273 82.9249,-8.51231 75.3311,-16.3394 69.5617,-24.0422"/>
<polygon fill="black" stroke="black" points="65.5112,-29.8459 66.9343,-22.3028 67.5143,-26.9758 69.5174,-24.1056 69.5174,-24.1056 69.5174,-24.1056 67.5143,-26.9758 72.1005,-25.9085 65.5112,-29.8459 65.5112,-29.8459"/>
<text text-anchor="start" x="93.5" y="-7.7273" font-family="Lato" font-size="12.00">a &amp; b</text>
</g>
<!-- 1&#45;&gt;1 -->
<g id="edge6" class="edge"><title>1&#45;&gt;1</title>
<path fill="none" stroke="black" d="M150.367,-61.2433C148.114,-71.4777 150.992,-81.3273 159,-81.3273 165.131,-81.3273 168.255,-75.5536 168.372,-68.2541"/>
<polygon fill="black" stroke="black" points="167.633,-61.2433 171.499,-67.875 168,-64.7241 168.367,-68.2048 168.367,-68.2048 168.367,-68.2048 168,-64.7241 165.234,-68.5347 167.633,-61.2433 167.633,-61.2433"/>
<text text-anchor="start" x="142" y="-84.7273" font-family="Lato" font-size="12.00">!a &amp; !b</text>
</g>
</g>
</svg>
