<?xml version="1.0" encoding="UTF-8" standalone="no"?>
<?xml-stylesheet href="spot.css" type="text/css"?>
<!DOCTYPE svg PUBLIC "-//W3C//DTD SVG 1.1//EN"
 "http://www.w3.org/Graphics/SVG/1.1/DTD/svg11.dtd">
<!-- Generated by graphviz version 2.38.0 (20140413.2041)
 -->
<!-- Title: G Pages: 1 -->
<svg width="268pt" height="176pt"
 viewBox="0.00 0.00 268.00 176.00" xmlns="http://www.w3.org/2000/svg" xmlns:xlink="http://www.w3.org/1999/xlink">
<g id="graph0" class="graph" transform="scale(1 1) rotate(0) translate(4 172)">
<title>G</title>
<polygon fill="white" stroke="none" points="-4,4 -4,-172 264,-172 264,4 -4,4"/>
<!-- I -->
<!-- 0 -->
<g id="node2" class="node"><title>0</title>
<ellipse fill="#ffffa0" stroke="black" cx="56" cy="-75" rx="18" ry="18"/>
<text text-anchor="middle" x="56" y="-71.9" font-family="Lato" font-size="12.00">0</text>
</g>
<!-- I&#45;&gt;0 -->
<g id="edge1" class="edge"><title>I&#45;&gt;0</title>
<path fill="none" stroke="black" d="M1.15491,-75C2.79388,-75 17.1543,-75 30.6317,-75"/>
<polygon fill="black" stroke="black" points="37.9419,-75 30.9419,-78.1501 34.4419,-75 30.9419,-75.0001 30.9419,-75.0001 30.9419,-75.0001 34.4419,-75 30.9418,-71.8501 37.9419,-75 37.9419,-75"/>
</g>
<!-- 1 -->
<g id="node3" class="node"><title>1</title>
<ellipse fill="#ffffa0" stroke="black" cx="149" cy="-115" rx="18" ry="18"/>
<ellipse fill="none" stroke="black" cx="149" cy="-115" rx="22" ry="22"/>
<text text-anchor="middle" x="149" y="-111.9" font-family="Lato" font-size="12.00">1</text>
</g>
<!-- 0&#45;&gt;1 -->
<g id="edge2" class="edge"><title>0&#45;&gt;1</title>
<path fill="none" stroke="black" d="M72.851,-81.9675C86.3963,-87.9214 106.151,-96.6048 122.007,-103.574"/>
<polygon fill="black" stroke="black" points="128.534,-106.444 120.858,-106.51 125.33,-105.035 122.126,-103.627 122.126,-103.627 122.126,-103.627 125.33,-105.035 123.393,-100.743 128.534,-106.444 128.534,-106.444"/>
<text text-anchor="start" x="93.5" y="-100.4" font-family="Lato" font-size="12.00">p0</text>
</g>
<!-- 2 -->
<g id="node4" class="node"><title>2</title>
<ellipse fill="#ffffa0" stroke="black" cx="149" cy="-22" rx="18" ry="18"/>
<ellipse fill="none" stroke="black" cx="149" cy="-22" rx="22" ry="22"/>
<text text-anchor="middle" x="149" y="-18.9" font-family="Lato" font-size="12.00">2</text>
</g>
<!-- 0&#45;&gt;2 -->
<g id="edge3" class="edge"><title>0&#45;&gt;2</title>
<path fill="none" stroke="black" d="M72.0268,-66.2481C85.9313,-58.1499 106.863,-45.9591 123.236,-36.4228"/>
<polygon fill="black" stroke="black" points="129.489,-32.7812 125.025,-39.0262 126.464,-34.5427 123.44,-36.3042 123.44,-36.3042 123.44,-36.3042 126.464,-34.5427 121.855,-33.5822 129.489,-32.7812 129.489,-32.7812"/>
<text text-anchor="start" x="92" y="-56.4" font-family="Lato" font-size="12.00">!p0</text>
</g>
<!-- 1&#45;&gt;1 -->
<g id="edge4" class="edge"><title>1&#45;&gt;1</title>
<path fill="none" stroke="black" d="M140.266,-135.581C139.057,-145.845 141.969,-155 149,-155 154.273,-155 157.229,-149.85 157.868,-142.945"/>
<polygon fill="black" stroke="black" points="157.734,-135.581 161.011,-142.522 157.798,-139.08 157.861,-142.58 157.861,-142.58 157.861,-142.58 157.798,-139.08 154.712,-142.637 157.734,-135.581 157.734,-135.581"/>
<text text-anchor="middle" x="149" y="-158.4" font-family="Lato" font-size="12.00">1</text>
</g>
<!-- 2&#45;&gt;2 -->
<g id="edge5" class="edge"><title>2&#45;&gt;2</title>
<path fill="none" stroke="black" d="M140.266,-42.5808C139.057,-52.8447 141.969,-62 149,-62 154.273,-62 157.229,-56.8502 157.868,-49.9451"/>
<polygon fill="black" stroke="black" points="157.734,-42.5808 161.011,-49.5223 157.798,-46.0802 157.861,-49.5797 157.861,-49.5797 157.861,-49.5797 157.798,-46.0802 154.712,-49.637 157.734,-42.5808 157.734,-42.5808"/>
<text text-anchor="start" x="142" y="-65.4" font-family="Lato" font-size="12.00">p1</text>
</g>
<!-- 3 -->
<g id="node5" class="node"><title>3</title>
<ellipse fill="#ffffa0" stroke="black" cx="242" cy="-22" rx="18" ry="18"/>
<text text-anchor="middle" x="242" y="-18.9" font-family="Lato" font-size="12.00">3</text>
</g>
<!-- 2&#45;&gt;3 -->
<g id="edge6" class="edge"><title>2&#45;&gt;3</title>
<path fill="none" stroke="black" d="M171.106,-22C184.787,-22 202.647,-22 216.888,-22"/>
<polygon fill="black" stroke="black" points="223.964,-22 216.964,-25.1501 220.464,-22 216.964,-22.0001 216.964,-22.0001 216.964,-22.0001 220.464,-22 216.964,-18.8501 223.964,-22 223.964,-22"/>
<text text-anchor="start" x="189" y="-25.4" font-family="Lato" font-size="12.00">!p1</text>
</g>
<!-- 3&#45;&gt;2 -->
<g id="edge7" class="edge"><title>3&#45;&gt;2</title>
<path fill="none" stroke="black" d="M226.22,-12.9834C220.178,-9.79557 212.978,-6.60508 206,-5 195.801,-2.65418 184.744,-4.94798 175.17,-8.52769"/>
<polygon fill="black" stroke="black" points="168.494,-11.3136 173.741,-5.71061 171.724,-9.96561 174.954,-8.61763 174.954,-8.61763 174.954,-8.61763 171.724,-9.96561 176.168,-11.5246 168.494,-11.3136 168.494,-11.3136"/>
<text text-anchor="start" x="190.5" y="-8.4" font-family="Lato" font-size="12.00">p1</text>
</g>
<!-- 3&#45;&gt;3 -->
<g id="edge8" class="edge"><title>3&#45;&gt;3</title>
<path fill="none" stroke="black" d="M234.332,-38.2903C232.483,-48.3892 235.039,-58 242,-58 247.221,-58 249.964,-52.5939 250.229,-45.6304"/>
<polygon fill="black" stroke="black" points="249.668,-38.2903 253.342,-45.0299 249.935,-41.7801 250.201,-45.2699 250.201,-45.2699 250.201,-45.2699 249.935,-41.7801 247.06,-45.5099 249.668,-38.2903 249.668,-38.2903"/>
<text text-anchor="start" x="233.5" y="-61.4" font-family="Lato" font-size="12.00">!p1</text>
</g>
</g>
</svg>
