<?xml version="1.0" encoding="UTF-8" standalone="no"?>
<?xml-stylesheet href="spot.css" type="text/css"?>
<!DOCTYPE svg PUBLIC "-//W3C//DTD SVG 1.1//EN"
 "http://www.w3.org/Graphics/SVG/1.1/DTD/svg11.dtd">
<!-- Generated by graphviz version 2.38.0 (20140413.2041)
 -->
<!-- Title: G Pages: 1 -->
<svg width="516pt" height="274pt"
 viewBox="0.00 0.00 515.62 274.40" xmlns="http://www.w3.org/2000/svg" xmlns:xlink="http://www.w3.org/1999/xlink">
<g id="graph0" class="graph" transform="scale(1 1) rotate(0) translate(4 270.401)">
<title>G</title>
<polygon fill="white" stroke="none" points="-4,4 -4,-270.401 511.617,-270.401 511.617,4 -4,4"/>
<text text-anchor="start" x="156.809" y="-253.801" font-family="Lato" font-size="12.00">(Fin(</text>
<text text-anchor="start" x="179.809" y="-253.801" font-family="Lato" font-size="12.00" fill="#1f78b4">⓿</text>
<text text-anchor="start" x="193.809" y="-253.801" font-family="Lato" font-size="12.00">) &amp; Inf(</text>
<text text-anchor="start" x="228.809" y="-253.801" font-family="Lato" font-size="12.00" fill="#ff4da0">❶</text>
<text text-anchor="start" x="242.809" y="-253.801" font-family="Lato" font-size="12.00">)) | (Fin(</text>
<text text-anchor="start" x="280.809" y="-253.801" font-family="Lato" font-size="12.00" fill="#ff7f00">❷</text>
<text text-anchor="start" x="294.809" y="-253.801" font-family="Lato" font-size="12.00">) &amp; Inf(</text>
<text text-anchor="start" x="329.809" y="-253.801" font-family="Lato" font-size="12.00" fill="#6a3d9a">❸</text>
<text text-anchor="start" x="343.809" y="-253.801" font-family="Lato" font-size="12.00">))</text>
<text text-anchor="start" x="229.809" y="-241.801" font-family="Lato" font-size="12.00">[Rabin 2]</text>
<!-- I -->
<!-- 0 -->
<g id="node2" class="node"><title>0</title>
<ellipse fill="#ffffa0" stroke="black" cx="62.0416" cy="-54.4014" rx="24.0833" ry="24.0833"/>
<text text-anchor="start" x="58.5416" y="-57.8014" font-family="Lato" font-size="12.00">0</text>
<text text-anchor="start" x="55.0416" y="-44.8014" font-family="Lato" font-size="12.00" fill="#1f78b4">⓿</text>
</g>
<!-- I&#45;&gt;0 -->
<g id="edge1" class="edge"><title>I&#45;&gt;0</title>
<path fill="none" stroke="black" d="M1.04352,-54.4014C1.9346,-54.4014 16.3644,-54.4014 30.8478,-54.4014"/>
<polygon fill="black" stroke="black" points="37.9031,-54.4014 30.9032,-57.5515 34.4031,-54.4015 30.9031,-54.4015 30.9031,-54.4015 30.9031,-54.4015 34.4031,-54.4015 30.9031,-51.2515 37.9031,-54.4014 37.9031,-54.4014"/>
</g>
<!-- 0&#45;&gt;0 -->
<g id="edge2" class="edge"><title>0&#45;&gt;0</title>
<path fill="none" stroke="black" d="M54.2897,-77.3211C53.5514,-87.5749 56.1354,-96.4431 62.0416,-96.4431 66.4713,-96.4431 69.0322,-91.4547 69.7244,-84.6347"/>
<polygon fill="black" stroke="black" points="69.7936,-77.3211 72.8771,-84.3506 69.7604,-80.8209 69.7272,-84.3208 69.7272,-84.3208 69.7272,-84.3208 69.7604,-80.8209 66.5774,-84.2909 69.7936,-77.3211 69.7936,-77.3211"/>
<text text-anchor="start" x="38.0416" y="-99.8431" font-family="Lato" font-size="12.00">!p0 &amp; !p1</text>
</g>
<!-- 1 -->
<g id="node3" class="node"><title>1</title>
<ellipse fill="#ffffa0" stroke="black" cx="194.125" cy="-148.401" rx="24.0833" ry="24.0833"/>
<text text-anchor="start" x="190.625" y="-151.801" font-family="Lato" font-size="12.00">1</text>
<text text-anchor="start" x="187.125" y="-138.801" font-family="Lato" font-size="12.00" fill="#ff4da0">❶</text>
</g>
<!-- 0&#45;&gt;1 -->
<g id="edge3" class="edge"><title>0&#45;&gt;1</title>
<path fill="none" stroke="black" d="M70.5144,-77.1874C76.9418,-93.273 87.787,-114.078 104.083,-126.401 120.902,-139.12 144.146,-144.567 162.668,-146.862"/>
<polygon fill="black" stroke="black" points="169.768,-147.619 162.473,-150.009 166.288,-147.248 162.807,-146.877 162.807,-146.877 162.807,-146.877 166.288,-147.248 163.141,-143.745 169.768,-147.619 169.768,-147.619"/>
<text text-anchor="start" x="105.583" y="-147.801" font-family="Lato" font-size="12.00">p0 &amp; !p1</text>
</g>
<!-- 2 -->
<g id="node4" class="node"><title>2</title>
<ellipse fill="#ffffa0" stroke="black" cx="476.505" cy="-78.4014" rx="31.2258" ry="31.2258"/>
<text text-anchor="start" x="473.005" y="-81.8014" font-family="Lato" font-size="12.00">2</text>
<text text-anchor="start" x="462.505" y="-69.8014" font-family="Lato" font-size="12.00" fill="#1f78b4">⓿</text>
<text text-anchor="start" x="476.505" y="-69.8014" font-family="Lato" font-size="12.00" fill="#6a3d9a">❸</text>
</g>
<!-- 0&#45;&gt;2 -->
<g id="edge4" class="edge"><title>0&#45;&gt;2</title>
<path fill="none" stroke="black" d="M84.418,-45.228C90.6491,-42.929 97.5427,-40.7387 104.083,-39.4014 217.432,-16.2269 250.207,-19.7775 364.392,-38.4014 392.904,-43.0519 400.311,-44.3407 427.392,-54.4014 432.265,-56.2117 437.294,-58.3701 442.181,-60.6394"/>
<polygon fill="black" stroke="black" points="448.73,-63.7805 441.056,-63.5932 445.574,-62.2668 442.419,-60.7531 442.419,-60.7531 442.419,-60.7531 445.574,-62.2668 443.781,-57.9129 448.73,-63.7805 448.73,-63.7805"/>
<text text-anchor="start" x="237.667" y="-29.8014" font-family="Lato" font-size="12.00">!p0 &amp; p1</text>
</g>
<!-- 3 -->
<g id="node5" class="node"><title>3</title>
<ellipse fill="#ffffa0" stroke="black" cx="333.279" cy="-78.4014" rx="31.2258" ry="31.2258"/>
<text text-anchor="start" x="329.779" y="-81.8014" font-family="Lato" font-size="12.00">3</text>
<text text-anchor="start" x="319.279" y="-69.8014" font-family="Lato" font-size="12.00" fill="#ff4da0">❶</text>
<text text-anchor="start" x="333.279" y="-69.8014" font-family="Lato" font-size="12.00" fill="#6a3d9a">❸</text>
</g>
<!-- 0&#45;&gt;3 -->
<g id="edge5" class="edge"><title>0&#45;&gt;3</title>
<path fill="none" stroke="black" d="M85.9967,-56.4477C132.582,-60.6003 238.584,-70.0493 295.129,-75.0899"/>
<polygon fill="black" stroke="black" points="302.105,-75.7117 294.853,-78.2276 298.619,-75.4009 295.132,-75.0901 295.132,-75.0901 295.132,-75.0901 298.619,-75.4009 295.412,-71.9525 302.105,-75.7117 302.105,-75.7117"/>
<text text-anchor="start" x="173.125" y="-70.8014" font-family="Lato" font-size="12.00">p0 &amp; p1</text>
</g>
<!-- 1&#45;&gt;0 -->
<g id="edge6" class="edge"><title>1&#45;&gt;0</title>
<path fill="none" stroke="black" d="M177.583,-130.889C170.376,-123.533 161.361,-115.327 152.083,-109.401 132.747,-97.0511 123.662,-102.364 104.083,-90.4014 97.3957,-86.3152 90.7465,-81.1129 84.8086,-75.9418"/>
<polygon fill="black" stroke="black" points="79.5747,-71.2344 86.8858,-73.5734 82.177,-73.575 84.7793,-75.9155 84.7793,-75.9155 84.7793,-75.9155 82.177,-73.575 82.6729,-78.2576 79.5747,-71.2344 79.5747,-71.2344"/>
<text text-anchor="start" x="104.083" y="-112.801" font-family="Lato" font-size="12.00">!p0 &amp; !p1</text>
</g>
<!-- 1&#45;&gt;1 -->
<g id="edge7" class="edge"><title>1&#45;&gt;1</title>
<path fill="none" stroke="black" d="M182.185,-169.601C180.348,-180.562 184.328,-190.443 194.125,-190.443 201.626,-190.443 205.717,-184.651 206.398,-177.017"/>
<polygon fill="black" stroke="black" points="206.065,-169.601 209.526,-176.452 206.222,-173.097 206.379,-176.594 206.379,-176.594 206.379,-176.594 206.222,-173.097 203.232,-176.735 206.065,-169.601 206.065,-169.601"/>
<text text-anchor="start" x="171.625" y="-193.843" font-family="Lato" font-size="12.00">p0 &amp; !p1</text>
</g>
<!-- 1&#45;&gt;2 -->
<g id="edge8" class="edge"><title>1&#45;&gt;2</title>
<path fill="none" stroke="black" d="M208.84,-168.008C215.935,-176.49 225.374,-185.566 236.167,-190.401 313.728,-225.148 357.552,-238.832 427.392,-190.401 451.713,-173.536 463.82,-141.673 469.799,-116.231"/>
<polygon fill="black" stroke="black" points="471.328,-109.243 472.909,-116.755 470.58,-112.662 469.832,-116.081 469.832,-116.081 469.832,-116.081 470.58,-112.662 466.754,-115.408 471.328,-109.243 471.328,-109.243"/>
<text text-anchor="start" x="310.779" y="-224.801" font-family="Lato" font-size="12.00">!p0 &amp; p1</text>
</g>
<!-- 1&#45;&gt;3 -->
<g id="edge9" class="edge"><title>1&#45;&gt;3</title>
<path fill="none" stroke="black" d="M218.334,-146.137C237.084,-143.518 263.636,-137.972 284.167,-126.401 292.685,-121.6 300.731,-114.877 307.716,-107.98"/>
<polygon fill="black" stroke="black" points="312.842,-102.7 310.226,-109.917 310.404,-105.211 307.966,-107.723 307.966,-107.723 307.966,-107.723 310.404,-105.211 305.706,-105.528 312.842,-102.7 312.842,-102.7"/>
<text text-anchor="start" x="239.167" y="-145.801" font-family="Lato" font-size="12.00">p0 &amp; p1</text>
</g>
<!-- 2&#45;&gt;0 -->
<g id="edge10" class="edge"><title>2&#45;&gt;0</title>
<path fill="none" stroke="black" d="M454.143,-56.3132C446.322,-49.3365 437.016,-42.2029 427.392,-37.4014 369.028,-8.28235 348.998,-12.5557 284.167,-5.40143 204.073,3.43698 178.969,3.35137 104.083,-26.4014 98.3217,-28.6906 92.5603,-31.9014 87.2529,-35.3361"/>
<polygon fill="black" stroke="black" points="81.2585,-39.4289 85.2633,-32.8803 84.149,-37.4553 87.0395,-35.4818 87.0395,-35.4818 87.0395,-35.4818 84.149,-37.4553 88.8157,-38.0832 81.2585,-39.4289 81.2585,-39.4289"/>
<text text-anchor="start" x="236.167" y="-8.80143" font-family="Lato" font-size="12.00">!p0 &amp; !p1</text>
</g>
<!-- 2&#45;&gt;1 -->
<g id="edge11" class="edge"><title>2&#45;&gt;1</title>
<path fill="none" stroke="black" d="M452.018,-97.8598C430.592,-114.474 397.338,-137.513 364.392,-149.401 310.623,-168.804 292.839,-166.864 236.167,-159.401 232.327,-158.896 228.336,-158.135 224.417,-157.245"/>
<polygon fill="black" stroke="black" points="217.49,-155.53 225.042,-154.154 220.888,-156.371 224.285,-157.212 224.285,-157.212 224.285,-157.212 220.888,-156.371 223.528,-160.27 217.49,-155.53 217.49,-155.53"/>
<text text-anchor="start" x="310.779" y="-167.801" font-family="Lato" font-size="12.00">p0 &amp; !p1</text>
</g>
<!-- 2&#45;&gt;2 -->
<g id="edge12" class="edge"><title>2&#45;&gt;2</title>
<path fill="none" stroke="black" d="M463.46,-106.664C462.723,-118 467.071,-127.514 476.505,-127.514 483.875,-127.514 488.141,-121.707 489.303,-113.761"/>
<polygon fill="black" stroke="black" points="489.55,-106.664 492.455,-113.769 489.428,-110.162 489.307,-113.66 489.307,-113.66 489.307,-113.66 489.428,-110.162 486.158,-113.551 489.55,-106.664 489.55,-106.664"/>
<text text-anchor="start" x="454.005" y="-130.914" font-family="Lato" font-size="12.00">!p0 &amp; p1</text>
</g>
<!-- 2&#45;&gt;3 -->
<g id="edge13" class="edge"><title>2&#45;&gt;3</title>
<path fill="none" stroke="black" d="M445.258,-78.4014C423.769,-78.4014 394.769,-78.4014 371.803,-78.4014"/>
<polygon fill="black" stroke="black" points="364.576,-78.4014 371.576,-75.2515 368.076,-78.4015 371.576,-78.4015 371.576,-78.4015 371.576,-78.4015 368.076,-78.4015 371.576,-81.5515 364.576,-78.4014 364.576,-78.4014"/>
<text text-anchor="start" x="383.892" y="-81.8014" font-family="Lato" font-size="12.00">p0 &amp; p1</text>
</g>
<!-- 3&#45;&gt;0 -->
<g id="edge14" class="edge"><title>3&#45;&gt;0</title>
<path fill="none" stroke="black" d="M303.663,-68.0217C280.857,-60.3277 247.926,-50.4952 218.167,-46.4014 175.008,-40.4646 124.545,-45.2064 93.1838,-49.5136"/>
<polygon fill="black" stroke="black" points="86.0231,-50.5354 92.5079,-46.428 89.488,-50.0409 92.9529,-49.5464 92.9529,-49.5464 92.9529,-49.5464 89.488,-50.0409 93.3979,-52.6648 86.0231,-50.5354 86.0231,-50.5354"/>
<text text-anchor="start" x="170.125" y="-49.8014" font-family="Lato" font-size="12.00">!p0 &amp; !p1</text>
</g>
<!-- 3&#45;&gt;1 -->
<g id="edge15" class="edge"><title>3&#45;&gt;1</title>
<path fill="none" stroke="black" d="M302.78,-86.3572C278.942,-93.071 247.548,-102.642 236.167,-109.401 228.92,-113.706 221.923,-119.502 215.822,-125.308"/>
<polygon fill="black" stroke="black" points="210.489,-130.6 213.239,-123.434 212.973,-128.135 215.457,-125.67 215.457,-125.67 215.457,-125.67 212.973,-128.135 217.676,-127.905 210.489,-130.6 210.489,-130.6"/>
<text text-anchor="start" x="237.667" y="-112.801" font-family="Lato" font-size="12.00">p0 &amp; !p1</text>
</g>
<!-- 3&#45;&gt;2 -->
<g id="edge16" class="edge"><title>3&#45;&gt;2</title>
<path fill="none" stroke="black" d="M362.346,-66.6944C368.82,-64.4999 375.756,-62.5393 382.392,-61.4014 402.104,-58.0213 407.68,-58.0213 427.392,-61.4014 431.747,-62.1482 436.231,-63.2492 440.629,-64.5382"/>
<polygon fill="black" stroke="black" points="447.438,-66.6944 439.813,-67.584 444.101,-65.6377 440.764,-64.581 440.764,-64.581 440.764,-64.581 444.101,-65.6377 441.715,-61.5779 447.438,-66.6944 447.438,-66.6944"/>
<text text-anchor="start" x="382.392" y="-64.8014" font-family="Lato" font-size="12.00">!p0 &amp; p1</text>
</g>
<!-- 3&#45;&gt;3 -->
<g id="edge17" class="edge"><title>3&#45;&gt;3</title>
<path fill="none" stroke="black" d="M320.234,-106.664C319.497,-118 323.846,-127.514 333.279,-127.514 340.649,-127.514 344.915,-121.707 346.078,-113.761"/>
<polygon fill="black" stroke="black" points="346.324,-106.664 349.229,-113.769 346.203,-110.162 346.081,-113.66 346.081,-113.66 346.081,-113.66 346.203,-110.162 342.933,-113.551 346.324,-106.664 346.324,-106.664"/>
<text text-anchor="start" x="312.279" y="-130.914" font-family="Lato" font-size="12.00">p0 &amp; p1</text>
</g>
</g>
</svg>
