<?xml version="1.0" encoding="UTF-8" standalone="no"?>
<?xml-stylesheet href="spot.css" type="text/css"?>
<!DOCTYPE svg PUBLIC "-//W3C//DTD SVG 1.1//EN"
 "http://www.w3.org/Graphics/SVG/1.1/DTD/svg11.dtd">
<!-- Generated by graphviz version 2.38.0 (20140413.2041)
 -->
<!-- Title: G Pages: 1 -->
<svg width="280pt" height="111pt"
 viewBox="0.00 0.00 280.00 111.00" xmlns="http://www.w3.org/2000/svg" xmlns:xlink="http://www.w3.org/1999/xlink">
<g id="graph0" class="graph" transform="scale(1 1) rotate(0) translate(4 107)">
<title>G</title>
<polygon fill="white" stroke="none" points="-4,4 -4,-107 276,-107 276,4 -4,4"/>
<!-- I -->
<!-- 0 -->
<g id="node2" class="node"><title>0</title>
<ellipse fill="#ffffa0" stroke="black" cx="56" cy="-18" rx="18" ry="18"/>
<text text-anchor="middle" x="56" y="-14.9" font-family="Lato" font-size="12.00">0</text>
</g>
<!-- I&#45;&gt;0 -->
<g id="edge1" class="edge"><title>I&#45;&gt;0</title>
<path fill="none" stroke="black" d="M1.15491,-18C2.79388,-18 17.1543,-18 30.6317,-18"/>
<polygon fill="black" stroke="black" points="37.9419,-18 30.9419,-21.1501 34.4419,-18 30.9419,-18.0001 30.9419,-18.0001 30.9419,-18.0001 34.4419,-18 30.9418,-14.8501 37.9419,-18 37.9419,-18"/>
</g>
<!-- 1 -->
<g id="node3" class="node"><title>1</title>
<ellipse fill="#ffffa0" stroke="black" cx="139" cy="-50" rx="18" ry="18"/>
<ellipse fill="none" stroke="black" cx="139" cy="-50" rx="22" ry="22"/>
<text text-anchor="middle" x="139" y="-46.9" font-family="Lato" font-size="12.00">1</text>
</g>
<!-- 0&#45;&gt;1 -->
<g id="edge2" class="edge"><title>0&#45;&gt;1</title>
<path fill="none" stroke="black" d="M73.003,-24.3222C83.9732,-28.6561 98.7843,-34.5074 111.497,-39.5298"/>
<polygon fill="black" stroke="black" points="118.307,-42.2199 110.639,-42.5775 115.051,-40.9338 111.796,-39.6478 111.796,-39.6478 111.796,-39.6478 115.051,-40.9338 112.954,-36.7181 118.307,-42.2199 118.307,-42.2199"/>
<text text-anchor="start" x="92" y="-37.4" font-family="Lato" font-size="12.00">a</text>
</g>
<!-- 2 -->
<g id="node4" class="node"><title>2</title>
<ellipse fill="#ffffa0" stroke="black" cx="250" cy="-30" rx="18" ry="18"/>
<ellipse fill="none" stroke="black" cx="250" cy="-30" rx="22" ry="22"/>
<text text-anchor="middle" x="250" y="-26.9" font-family="Lato" font-size="12.00">2</text>
</g>
<!-- 0&#45;&gt;2 -->
<g id="edge3" class="edge"><title>0&#45;&gt;2</title>
<path fill="none" stroke="black" d="M73.6774,-13.744C85.6434,-10.9169 102.2,-7.46547 117,-6 136.46,-4.07304 141.617,-3.40433 161,-6 181.875,-8.79557 204.812,-15.1643 222.034,-20.6388"/>
<polygon fill="black" stroke="black" points="229.042,-22.9173 221.411,-23.7486 225.714,-21.8351 222.385,-20.753 222.385,-20.753 222.385,-20.753 225.714,-21.8351 223.359,-17.7573 229.042,-22.9173 229.042,-22.9173"/>
<text text-anchor="start" x="134" y="-9.4" font-family="Lato" font-size="12.00">!a</text>
</g>
<!-- 1&#45;&gt;1 -->
<g id="edge4" class="edge"><title>1&#45;&gt;1</title>
<path fill="none" stroke="black" d="M131.317,-70.9908C130.369,-81.0872 132.93,-90 139,-90 143.553,-90 146.131,-84.9866 146.736,-78.2204"/>
<polygon fill="black" stroke="black" points="146.683,-70.9908 149.884,-77.9673 146.709,-74.4907 146.734,-77.9906 146.734,-77.9906 146.734,-77.9906 146.709,-74.4907 143.585,-78.0139 146.683,-70.9908 146.683,-70.9908"/>
<text text-anchor="start" x="125" y="-93.4" font-family="Lato" font-size="12.00">a &amp; b</text>
</g>
<!-- 1&#45;&gt;2 -->
<g id="edge5" class="edge"><title>1&#45;&gt;2</title>
<path fill="none" stroke="black" d="M161.04,-49.6146C175.051,-49.0124 193.794,-47.5403 210,-44 214.142,-43.0951 218.444,-41.8648 222.613,-40.507"/>
<polygon fill="black" stroke="black" points="229.451,-38.1362 223.869,-43.4054 226.144,-39.2827 222.837,-40.4292 222.837,-40.4292 222.837,-40.4292 226.144,-39.2827 221.805,-37.453 229.451,-38.1362 229.451,-38.1362"/>
<text text-anchor="start" x="179" y="-51.4" font-family="Lato" font-size="12.00">!a &amp; b</text>
</g>
<!-- 2&#45;&gt;1 -->
<g id="edge6" class="edge"><title>2&#45;&gt;1</title>
<path fill="none" stroke="black" d="M228.107,-25.8138C213.994,-23.7802 195.077,-22.6125 179,-27 173.787,-28.4228 168.561,-30.7402 163.705,-33.3691"/>
<polygon fill="black" stroke="black" points="157.349,-37.0923 161.797,-30.8362 160.369,-35.3232 163.389,-33.5542 163.389,-33.5542 163.389,-33.5542 160.369,-35.3232 164.981,-36.2722 157.349,-37.0923 157.349,-37.0923"/>
<text text-anchor="start" x="179" y="-30.4" font-family="Lato" font-size="12.00">a &amp; !b</text>
</g>
<!-- 2&#45;&gt;2 -->
<g id="edge7" class="edge"><title>2&#45;&gt;2</title>
<path fill="none" stroke="black" d="M240.293,-49.7575C238.643,-60.3499 241.879,-70 250,-70 256.218,-70 259.572,-64.3433 260.062,-56.9379"/>
<polygon fill="black" stroke="black" points="259.707,-49.7575 263.199,-56.5935 259.88,-53.2532 260.053,-56.749 260.053,-56.749 260.053,-56.749 259.88,-53.2532 256.907,-56.9044 259.707,-49.7575 259.707,-49.7575"/>
<text text-anchor="start" x="233" y="-73.4" font-family="Lato" font-size="12.00">!a &amp; !b</text>
</g>
</g>
</svg>
