<?xml version="1.0" encoding="UTF-8" standalone="no"?>
<?xml-stylesheet href="spot.css" type="text/css"?>
<!DOCTYPE svg PUBLIC "-//W3C//DTD SVG 1.1//EN"
 "http://www.w3.org/Graphics/SVG/1.1/DTD/svg11.dtd">
<!-- Generated by graphviz version 2.38.0 (20140413.2041)
 -->
<!-- Title: G Pages: 1 -->
<svg width="176pt" height="76pt"
 viewBox="0.00 0.00 176.00 75.64" xmlns="http://www.w3.org/2000/svg" xmlns:xlink="http://www.w3.org/1999/xlink">
<g id="graph0" class="graph" transform="scale(1 1) rotate(0) translate(4 71.6438)">
<title>G</title>
<polygon fill="white" stroke="none" points="-4,4 -4,-71.6438 172,-71.6438 172,4 -4,4"/>
<!-- I -->
<!-- 0 -->
<g id="node2" class="node"><title>0</title>
<ellipse fill="#ffffa0" stroke="black" cx="56" cy="-18.6438" rx="18" ry="18"/>
<text text-anchor="middle" x="56" y="-15.5438" font-family="Lato" font-size="12.00">0</text>
</g>
<!-- I&#45;&gt;0 -->
<g id="edge1" class="edge"><title>I&#45;&gt;0</title>
<path fill="none" stroke="black" d="M1.15491,-18.6438C2.79388,-18.6438 17.1543,-18.6438 30.6317,-18.6438"/>
<polygon fill="black" stroke="black" points="37.9419,-18.6438 30.9419,-21.7939 34.4419,-18.6439 30.9419,-18.6439 30.9419,-18.6439 30.9419,-18.6439 34.4419,-18.6439 30.9418,-15.4939 37.9419,-18.6438 37.9419,-18.6438"/>
</g>
<!-- 0&#45;&gt;0 -->
<g id="edge2" class="edge"><title>0&#45;&gt;0</title>
<path fill="none" stroke="black" d="M49.6208,-35.6811C48.3189,-45.5017 50.4453,-54.6438 56,-54.6438 60.166,-54.6438 62.4036,-49.5014 62.7128,-42.7871"/>
<polygon fill="black" stroke="black" points="62.3792,-35.6811 65.8541,-42.5257 62.5434,-39.1773 62.7076,-42.6734 62.7076,-42.6734 62.7076,-42.6734 62.5434,-39.1773 59.561,-42.8212 62.3792,-35.6811 62.3792,-35.6811"/>
<text text-anchor="start" x="51" y="-58.0438" font-family="Lato" font-size="12.00">!b</text>
</g>
<!-- 1 -->
<g id="node3" class="node"><title>1</title>
<ellipse fill="#ffffa0" stroke="black" cx="150" cy="-18.6438" rx="18" ry="18"/>
<text text-anchor="middle" x="150" y="-15.5438" font-family="Lato" font-size="12.00">1</text>
</g>
<!-- 0&#45;&gt;1 -->
<g id="edge3" class="edge"><title>0&#45;&gt;1</title>
<path fill="none" stroke="black" d="M74.3045,-18.6438C88.4396,-18.6438 108.594,-18.6438 124.405,-18.6438"/>
<polygon fill="black" stroke="black" points="131.773,-18.6438 124.773,-21.7939 128.273,-18.6439 124.773,-18.6439 124.773,-18.6439 124.773,-18.6439 128.273,-18.6439 124.773,-15.4939 131.773,-18.6438 131.773,-18.6438"/>
<text text-anchor="start" x="99.5" y="-22.0438" font-family="Lato" font-size="12.00">b</text>
</g>
<!-- 1&#45;&gt;0 -->
<g id="edge4" class="edge"><title>1&#45;&gt;0</title>
<path fill="none" stroke="black" d="M134.22,-9.62716C128.178,-6.43938 120.978,-3.24889 114,-1.64381 104.471,0.547937 101.529,0.547937 92,-1.64381 87.4205,-2.69714 82.7454,-4.43326 78.365,-6.40331"/>
<polygon fill="black" stroke="black" points="71.7798,-9.62716 76.6818,-3.72004 74.9233,-8.08818 78.0668,-6.5492 78.0668,-6.5492 78.0668,-6.5492 74.9233,-8.08818 79.4519,-9.37836 71.7798,-9.62716 71.7798,-9.62716"/>
<text text-anchor="start" x="92" y="-5.04381" font-family="Lato" font-size="12.00">a | b</text>
</g>
<!-- 1&#45;&gt;1 -->
<g id="edge5" class="edge"><title>1&#45;&gt;1</title>
<path fill="none" stroke="black" d="M141.984,-34.9341C140.051,-45.033 142.723,-54.6438 150,-54.6438 155.458,-54.6438 158.326,-49.2377 158.603,-42.2742"/>
<polygon fill="black" stroke="black" points="158.016,-34.9341 161.714,-41.661 158.295,-38.423 158.574,-41.9119 158.574,-41.9119 158.574,-41.9119 158.295,-38.423 155.434,-42.1627 158.016,-34.9341 158.016,-34.9341"/>
<text text-anchor="start" x="133" y="-58.0438" font-family="Lato" font-size="12.00">!a &amp; !b</text>
</g>
</g>
</svg>
