<?xml version="1.0" encoding="UTF-8" standalone="no"?>
<?xml-stylesheet href="spot.css" type="text/css"?>
<!DOCTYPE svg PUBLIC "-//W3C//DTD SVG 1.1//EN"
 "http://www.w3.org/Graphics/SVG/1.1/DTD/svg11.dtd">
<!-- Generated by graphviz version 2.38.0 (20140413.2041)
 -->
<!-- Title: G Pages: 1 -->
<svg width="474pt" height="269pt"
 viewBox="0.00 0.00 473.62 269.01" xmlns="http://www.w3.org/2000/svg" xmlns:xlink="http://www.w3.org/1999/xlink">
<g id="graph0" class="graph" transform="scale(1 1) rotate(0) translate(4 265.01)">
<title>G</title>
<polygon fill="white" stroke="none" points="-4,4 -4,-265.01 469.617,-265.01 469.617,4 -4,4"/>
<text text-anchor="start" x="135.809" y="-248.41" font-family="Lato" font-size="12.00">(Fin(</text>
<text text-anchor="start" x="158.809" y="-248.41" font-family="Lato" font-size="12.00" fill="#1f78b4">⓿</text>
<text text-anchor="start" x="172.809" y="-248.41" font-family="Lato" font-size="12.00">) &amp; Inf(</text>
<text text-anchor="start" x="207.809" y="-248.41" font-family="Lato" font-size="12.00" fill="#ff4da0">❶</text>
<text text-anchor="start" x="221.809" y="-248.41" font-family="Lato" font-size="12.00">)) | (Fin(</text>
<text text-anchor="start" x="259.809" y="-248.41" font-family="Lato" font-size="12.00" fill="#ff7f00">❷</text>
<text text-anchor="start" x="273.809" y="-248.41" font-family="Lato" font-size="12.00">) &amp; Inf(</text>
<text text-anchor="start" x="308.809" y="-248.41" font-family="Lato" font-size="12.00" fill="#6a3d9a">❸</text>
<text text-anchor="start" x="322.809" y="-248.41" font-family="Lato" font-size="12.00">))</text>
<text text-anchor="start" x="208.809" y="-236.41" font-family="Lato" font-size="12.00">[Rabin 2]</text>
<!-- I -->
<!-- 0 -->
<g id="node2" class="node"><title>0</title>
<ellipse fill="#ffffa0" stroke="black" cx="62.0416" cy="-54.0096" rx="24.0833" ry="24.0833"/>
<text text-anchor="start" x="58.5416" y="-57.4096" font-family="Lato" font-size="12.00">0</text>
<text text-anchor="start" x="55.0416" y="-44.4096" font-family="Lato" font-size="12.00" fill="#ff7f00">❷</text>
</g>
<!-- I&#45;&gt;0 -->
<g id="edge1" class="edge"><title>I&#45;&gt;0</title>
<path fill="none" stroke="black" d="M1.04352,-54.0096C1.9346,-54.0096 16.3644,-54.0096 30.8478,-54.0096"/>
<polygon fill="black" stroke="black" points="37.9031,-54.0096 30.9032,-57.1597 34.4031,-54.0097 30.9031,-54.0097 30.9031,-54.0097 30.9031,-54.0097 34.4031,-54.0097 30.9031,-50.8597 37.9031,-54.0096 37.9031,-54.0096"/>
</g>
<!-- 0&#45;&gt;0 -->
<g id="edge2" class="edge"><title>0&#45;&gt;0</title>
<path fill="none" stroke="black" d="M54.2897,-76.9293C53.5514,-87.1831 56.1354,-96.0512 62.0416,-96.0512 66.4713,-96.0512 69.0322,-91.0629 69.7244,-84.2429"/>
<polygon fill="black" stroke="black" points="69.7936,-76.9293 72.8771,-83.9588 69.7604,-80.4291 69.7272,-83.929 69.7272,-83.929 69.7272,-83.929 69.7604,-80.4291 66.5774,-83.8991 69.7936,-76.9293 69.7936,-76.9293"/>
<text text-anchor="start" x="45.0416" y="-99.4512" font-family="Lato" font-size="12.00">!a &amp; !b</text>
</g>
<!-- 1 -->
<g id="node3" class="node"><title>1</title>
<ellipse fill="#ffffa0" stroke="black" cx="187.196" cy="-148.01" rx="31.2258" ry="31.2258"/>
<text text-anchor="start" x="183.696" y="-151.41" font-family="Lato" font-size="12.00">1</text>
<text text-anchor="start" x="173.196" y="-139.41" font-family="Lato" font-size="12.00" fill="#ff4da0">❶</text>
<text text-anchor="start" x="187.196" y="-139.41" font-family="Lato" font-size="12.00" fill="#ff7f00">❷</text>
</g>
<!-- 0&#45;&gt;1 -->
<g id="edge3" class="edge"><title>0&#45;&gt;1</title>
<path fill="none" stroke="black" d="M70.5865,-76.7011C77.0498,-92.7398 87.9083,-113.527 104.083,-126.01 116.835,-135.85 133.639,-141.299 148.721,-144.312"/>
<polygon fill="black" stroke="black" points="155.962,-145.604 148.518,-147.475 152.516,-144.989 149.071,-144.374 149.071,-144.374 149.071,-144.374 152.516,-144.989 149.624,-141.273 155.962,-145.604 155.962,-145.604"/>
<text text-anchor="start" x="105.583" y="-144.41" font-family="Lato" font-size="12.00">a &amp; !b</text>
</g>
<!-- 2 -->
<g id="node4" class="node"><title>2</title>
<ellipse fill="#ffffa0" stroke="black" cx="441.576" cy="-78.0096" rx="24.0833" ry="24.0833"/>
<text text-anchor="start" x="438.076" y="-81.4096" font-family="Lato" font-size="12.00">2</text>
<text text-anchor="start" x="434.576" y="-68.4096" font-family="Lato" font-size="12.00" fill="#6a3d9a">❸</text>
</g>
<!-- 0&#45;&gt;2 -->
<g id="edge4" class="edge"><title>0&#45;&gt;2</title>
<path fill="none" stroke="black" d="M84.4246,-44.8677C90.6557,-42.5693 97.5477,-40.3713 104.083,-39.0096 211.315,-16.6675 243.417,-15.1236 350.534,-38.0096 373.076,-42.8259 378.509,-45.5604 399.534,-55.0096 404.349,-57.1734 409.348,-59.7104 414.132,-62.2944"/>
<polygon fill="black" stroke="black" points="420.484,-65.8164 412.835,-65.1769 417.423,-64.1192 414.362,-62.422 414.362,-62.422 414.362,-62.422 417.423,-64.1192 415.89,-59.6671 420.484,-65.8164 420.484,-65.8164"/>
<text text-anchor="start" x="237.809" y="-26.4096" font-family="Lato" font-size="12.00">!a &amp; b</text>
</g>
<!-- 3 -->
<g id="node5" class="node"><title>3</title>
<ellipse fill="#ffffa0" stroke="black" cx="319.421" cy="-78.0096" rx="31.2258" ry="31.2258"/>
<text text-anchor="start" x="315.921" y="-81.4096" font-family="Lato" font-size="12.00">3</text>
<text text-anchor="start" x="305.421" y="-69.4096" font-family="Lato" font-size="12.00" fill="#ff4da0">❶</text>
<text text-anchor="start" x="319.421" y="-69.4096" font-family="Lato" font-size="12.00" fill="#6a3d9a">❸</text>
</g>
<!-- 0&#45;&gt;3 -->
<g id="edge5" class="edge"><title>0&#45;&gt;3</title>
<path fill="none" stroke="black" d="M86.1553,-56.1818C130.364,-60.3365 227.263,-69.4428 280.88,-74.4815"/>
<polygon fill="black" stroke="black" points="288.148,-75.1646 280.884,-77.6457 284.663,-74.837 281.178,-74.5095 281.178,-74.5095 281.178,-74.5095 284.663,-74.837 281.473,-71.3733 288.148,-75.1646 288.148,-75.1646"/>
<text text-anchor="start" x="173.196" y="-71.4096" font-family="Lato" font-size="12.00">a &amp; b</text>
</g>
<!-- 1&#45;&gt;0 -->
<g id="edge6" class="edge"><title>1&#45;&gt;0</title>
<path fill="none" stroke="black" d="M162.833,-127.733C155.161,-121.442 146.451,-114.678 138.083,-109.01 123.751,-99.3015 118.224,-99.9945 104.083,-90.0096 97.6813,-85.4891 91.1332,-80.133 85.2013,-74.9527"/>
<polygon fill="black" stroke="black" points="79.9487,-70.2738 87.2709,-72.5778 82.5622,-72.6018 85.1757,-74.9299 85.1757,-74.9299 85.1757,-74.9299 82.5622,-72.6018 83.0804,-77.282 79.9487,-70.2738 79.9487,-70.2738"/>
<text text-anchor="start" x="104.083" y="-112.41" font-family="Lato" font-size="12.00">!a &amp; !b</text>
</g>
<!-- 1&#45;&gt;1 -->
<g id="edge7" class="edge"><title>1&#45;&gt;1</title>
<path fill="none" stroke="black" d="M174.869,-176.764C174.321,-187.882 178.43,-197.122 187.196,-197.122 193.907,-197.122 197.889,-191.706 199.14,-184.177"/>
<polygon fill="black" stroke="black" points="199.523,-176.764 202.308,-183.917 199.342,-180.259 199.162,-183.755 199.162,-183.755 199.162,-183.755 199.342,-180.259 196.016,-183.593 199.523,-176.764 199.523,-176.764"/>
<text text-anchor="start" x="171.696" y="-200.522" font-family="Lato" font-size="12.00">a &amp; !b</text>
</g>
<!-- 1&#45;&gt;2 -->
<g id="edge8" class="edge"><title>1&#45;&gt;2</title>
<path fill="none" stroke="black" d="M208.584,-171.121C216.457,-178.493 226.044,-185.818 236.309,-190.01 303.471,-217.432 341.361,-233.353 399.534,-190.01 424.731,-171.235 434.477,-135.37 438.236,-109.27"/>
<polygon fill="black" stroke="black" points="439.146,-102.189 441.378,-109.533 438.7,-105.661 438.254,-109.132 438.254,-109.132 438.254,-109.132 438.7,-105.661 435.13,-108.731 439.146,-102.189 439.146,-102.189"/>
<text text-anchor="start" x="303.921" y="-219.41" font-family="Lato" font-size="12.00">!a &amp; b</text>
</g>
<!-- 1&#45;&gt;3 -->
<g id="edge9" class="edge"><title>1&#45;&gt;3</title>
<path fill="none" stroke="black" d="M218.14,-143.862C234.375,-140.685 254.327,-135.224 270.309,-126.01 278.78,-121.125 286.809,-114.373 293.794,-107.474"/>
<polygon fill="black" stroke="black" points="298.922,-102.198 296.301,-109.413 296.482,-104.708 294.043,-107.218 294.043,-107.218 294.043,-107.218 296.482,-104.708 291.784,-105.022 298.922,-102.198 298.922,-102.198"/>
<text text-anchor="start" x="239.309" y="-142.41" font-family="Lato" font-size="12.00">a &amp; b</text>
</g>
<!-- 2&#45;&gt;0 -->
<g id="edge10" class="edge"><title>2&#45;&gt;0</title>
<path fill="none" stroke="black" d="M425.278,-59.7545C418.116,-52.1552 409.069,-43.7779 399.534,-38.0096 348.721,-7.26841 329.336,-10.5502 270.309,-4.00961 196.119,4.21112 173.219,0.132757 104.083,-28.0096 98.7001,-30.2009 93.2414,-33.0962 88.1378,-36.1578"/>
<polygon fill="black" stroke="black" points="81.8957,-40.0844 86.1437,-33.6908 84.8583,-38.2208 87.8209,-36.3572 87.8209,-36.3572 87.8209,-36.3572 84.8583,-38.2208 89.4981,-39.0235 81.8957,-40.0844 81.8957,-40.0844"/>
<text text-anchor="start" x="236.309" y="-7.40961" font-family="Lato" font-size="12.00">!a &amp; !b</text>
</g>
<!-- 2&#45;&gt;1 -->
<g id="edge11" class="edge"><title>2&#45;&gt;1</title>
<path fill="none" stroke="black" d="M424.578,-95.5231C407.915,-112.473 380.145,-137.273 350.534,-149.01 309.806,-165.153 258.685,-161.323 224.809,-155.824"/>
<polygon fill="black" stroke="black" points="217.852,-154.631 225.283,-152.709 221.302,-155.222 224.751,-155.814 224.751,-155.814 224.751,-155.814 221.302,-155.222 224.219,-158.918 217.852,-154.631 217.852,-154.631"/>
<text text-anchor="start" x="303.921" y="-163.41" font-family="Lato" font-size="12.00">a &amp; !b</text>
</g>
<!-- 2&#45;&gt;2 -->
<g id="edge12" class="edge"><title>2&#45;&gt;2</title>
<path fill="none" stroke="black" d="M431.332,-100.072C430.067,-110.684 433.482,-120.051 441.576,-120.051 447.772,-120.051 451.226,-114.56 451.937,-107.224"/>
<polygon fill="black" stroke="black" points="451.819,-100.072 455.085,-107.019 451.877,-103.571 451.935,-107.071 451.935,-107.071 451.935,-107.071 451.877,-103.571 448.785,-107.123 451.819,-100.072 451.819,-100.072"/>
<text text-anchor="start" x="426.076" y="-123.451" font-family="Lato" font-size="12.00">!a &amp; b</text>
</g>
<!-- 2&#45;&gt;3 -->
<g id="edge13" class="edge"><title>2&#45;&gt;3</title>
<path fill="none" stroke="black" d="M417.471,-78.0096C400.568,-78.0096 377.276,-78.0096 357.747,-78.0096"/>
<polygon fill="black" stroke="black" points="350.741,-78.0096 357.741,-74.8597 354.241,-78.0097 357.741,-78.0097 357.741,-78.0097 357.741,-78.0097 354.241,-78.0097 357.741,-81.1597 350.741,-78.0096 350.741,-78.0096"/>
<text text-anchor="start" x="370.034" y="-81.4096" font-family="Lato" font-size="12.00">a &amp; b</text>
</g>
<!-- 3&#45;&gt;0 -->
<g id="edge14" class="edge"><title>3&#45;&gt;0</title>
<path fill="none" stroke="black" d="M290.54,-66.1584C270.781,-58.4247 243.425,-49.0424 218.309,-45.0096 175.117,-38.0745 124.407,-43.5218 92.9946,-48.4566"/>
<polygon fill="black" stroke="black" points="85.8255,-49.6269 92.2265,-45.3902 89.2798,-49.0629 92.7341,-48.499 92.7341,-48.499 92.7341,-48.499 89.2798,-49.0629 93.2416,-51.6079 85.8255,-49.6269 85.8255,-49.6269"/>
<text text-anchor="start" x="170.196" y="-48.4096" font-family="Lato" font-size="12.00">!a &amp; !b</text>
</g>
<!-- 3&#45;&gt;1 -->
<g id="edge15" class="edge"><title>3&#45;&gt;1</title>
<path fill="none" stroke="black" d="M289.285,-86.4787C273.112,-91.7927 252.96,-99.4518 236.309,-109.01 229.454,-112.944 222.57,-117.834 216.238,-122.806"/>
<polygon fill="black" stroke="black" points="210.594,-127.371 214.056,-120.52 213.316,-125.17 216.037,-122.969 216.037,-122.969 216.037,-122.969 213.316,-125.17 218.018,-125.418 210.594,-127.371 210.594,-127.371"/>
<text text-anchor="start" x="237.809" y="-112.41" font-family="Lato" font-size="12.00">a &amp; !b</text>
</g>
<!-- 3&#45;&gt;2 -->
<g id="edge16" class="edge"><title>3&#45;&gt;2</title>
<path fill="none" stroke="black" d="M348.488,-66.3025C354.962,-64.1081 361.898,-62.1475 368.534,-61.0096 382.114,-58.6811 386.021,-58.3217 399.534,-61.0096 404.002,-61.8983 408.592,-63.2818 413.012,-64.8845"/>
<polygon fill="black" stroke="black" points="419.773,-67.5438 412.105,-67.9129 416.515,-66.2626 413.258,-64.9815 413.258,-64.9815 413.258,-64.9815 416.515,-66.2626 414.411,-62.0501 419.773,-67.5438 419.773,-67.5438"/>
<text text-anchor="start" x="368.534" y="-64.4096" font-family="Lato" font-size="12.00">!a &amp; b</text>
</g>
<!-- 3&#45;&gt;3 -->
<g id="edge17" class="edge"><title>3&#45;&gt;3</title>
<path fill="none" stroke="black" d="M307.468,-106.764C306.937,-117.882 310.921,-127.122 319.421,-127.122 325.929,-127.122 329.79,-121.706 331.004,-114.177"/>
<polygon fill="black" stroke="black" points="331.374,-106.764 334.171,-113.913 331.2,-110.26 331.025,-113.755 331.025,-113.755 331.025,-113.755 331.2,-110.26 327.879,-113.598 331.374,-106.764 331.374,-106.764"/>
<text text-anchor="start" x="305.421" y="-130.522" font-family="Lato" font-size="12.00">a &amp; b</text>
</g>
</g>
</svg>
