<?xml version="1.0" encoding="UTF-8" standalone="no"?>
<?xml-stylesheet href="spot.css" type="text/css"?>
<!DOCTYPE svg PUBLIC "-//W3C//DTD SVG 1.1//EN"
 "http://www.w3.org/Graphics/SVG/1.1/DTD/svg11.dtd">
<!-- Generated by graphviz version 2.38.0 (20140413.2041)
 -->
<!-- Title: G Pages: 1 -->
<svg width="171pt" height="217pt"
 viewBox="0.00 0.00 171.00 217.00" xmlns="http://www.w3.org/2000/svg" xmlns:xlink="http://www.w3.org/1999/xlink">
<g id="graph0" class="graph" transform="scale(1 1) rotate(0) translate(4 213)">
<title>G</title>
<polygon fill="white" stroke="none" points="-4,4 -4,-213 167,-213 167,4 -4,4"/>
<!-- I -->
<!-- 0 -->
<g id="node2" class="node"><title>0</title>
<ellipse fill="#ffffa0" stroke="black" cx="56" cy="-93" rx="18" ry="18"/>
<text text-anchor="middle" x="56" y="-89.9" font-family="Lato" font-size="12.00">0</text>
</g>
<!-- I&#45;&gt;0 -->
<g id="edge1" class="edge"><title>I&#45;&gt;0</title>
<path fill="none" stroke="black" d="M1.15491,-93C2.79388,-93 17.1543,-93 30.6317,-93"/>
<polygon fill="black" stroke="black" points="37.9419,-93 30.9419,-96.1501 34.4419,-93 30.9419,-93.0001 30.9419,-93.0001 30.9419,-93.0001 34.4419,-93 30.9418,-89.8501 37.9419,-93 37.9419,-93"/>
</g>
<!-- 1 -->
<g id="node3" class="node"><title>1</title>
<ellipse fill="#ffffa0" stroke="black" cx="145" cy="-147" rx="18" ry="18"/>
<text text-anchor="middle" x="145" y="-143.9" font-family="Lato" font-size="12.00">1</text>
</g>
<!-- 0&#45;&gt;1 -->
<g id="edge2" class="edge"><title>0&#45;&gt;1</title>
<path fill="none" stroke="black" d="M71.7584,-102.16C85.8818,-110.927 107.322,-124.234 123.179,-134.077"/>
<polygon fill="black" stroke="black" points="129.169,-137.795 121.561,-136.779 126.195,-135.949 123.222,-134.103 123.222,-134.103 123.222,-134.103 126.195,-135.949 124.883,-131.427 129.169,-137.795 129.169,-137.795"/>
<text text-anchor="start" x="93.5" y="-127.4" font-family="Lato" font-size="12.00">p0</text>
</g>
<!-- 2 -->
<g id="node4" class="node"><title>2</title>
<ellipse fill="#ffffa0" stroke="black" cx="145" cy="-18" rx="18" ry="18"/>
<text text-anchor="middle" x="145" y="-14.9" font-family="Lato" font-size="12.00">2</text>
</g>
<!-- 0&#45;&gt;2 -->
<g id="edge3" class="edge"><title>0&#45;&gt;2</title>
<path fill="none" stroke="black" d="M70.2134,-81.6091C84.9902,-68.8705 109.023,-48.1523 125.626,-33.8398"/>
<polygon fill="black" stroke="black" points="130.947,-29.2523 127.702,-36.2088 128.296,-31.5376 125.645,-33.823 125.645,-33.823 125.645,-33.823 128.296,-31.5376 123.589,-31.4371 130.947,-29.2523 130.947,-29.2523"/>
<text text-anchor="start" x="92" y="-65.4" font-family="Lato" font-size="12.00">!p0</text>
</g>
<!-- 1&#45;&gt;1 -->
<g id="edge4" class="edge"><title>1&#45;&gt;1</title>
<path fill="none" stroke="black" d="M137.332,-163.29C135.483,-173.389 138.039,-183 145,-183 150.221,-183 152.964,-177.594 153.229,-170.63"/>
<polygon fill="black" stroke="black" points="152.668,-163.29 156.342,-170.03 152.935,-166.78 153.201,-170.27 153.201,-170.27 153.201,-170.27 152.935,-166.78 150.06,-170.51 152.668,-163.29 152.668,-163.29"/>
<text text-anchor="start" x="141.5" y="-199.4" font-family="Lato" font-size="12.00">1</text>
<text text-anchor="start" x="138" y="-186.4" font-family="Lato" font-size="12.00" fill="#1f78b4">⓿</text>
</g>
<!-- 2&#45;&gt;2 -->
<g id="edge5" class="edge"><title>2&#45;&gt;2</title>
<path fill="none" stroke="black" d="M141.045,-35.7817C140.373,-45.3149 141.691,-54 145,-54 147.43,-54 148.786,-49.3161 149.069,-43.0521"/>
<polygon fill="black" stroke="black" points="148.955,-35.7817 152.215,-42.7313 149.01,-39.2813 149.065,-42.7809 149.065,-42.7809 149.065,-42.7809 149.01,-39.2813 145.915,-42.8304 148.955,-35.7817 148.955,-35.7817"/>
<text text-anchor="start" x="136.5" y="-57.4" font-family="Lato" font-size="12.00">!p1</text>
</g>
<!-- 2&#45;&gt;2 -->
<g id="edge6" class="edge"><title>2&#45;&gt;2</title>
<path fill="none" stroke="black" d="M138.624,-34.8636C134.753,-52.3779 136.879,-72 145,-72 152.043,-72 154.576,-57.2439 152.601,-41.9026"/>
<polygon fill="black" stroke="black" points="151.376,-34.8636 155.68,-41.22 151.976,-38.3118 152.576,-41.76 152.576,-41.76 152.576,-41.76 151.976,-38.3118 149.473,-42.3 151.376,-34.8636 151.376,-34.8636"/>
<text text-anchor="start" x="138" y="-88.4" font-family="Lato" font-size="12.00">p1</text>
<text text-anchor="start" x="138" y="-75.4" font-family="Lato" font-size="12.00" fill="#1f78b4">⓿</text>
</g>
</g>
</svg>
