<?xml version="1.0" encoding="UTF-8" standalone="no"?>
<?xml-stylesheet href="spot.css" type="text/css"?>
<!DOCTYPE svg PUBLIC "-//W3C//DTD SVG 1.1//EN"
 "http://www.w3.org/Graphics/SVG/1.1/DTD/svg11.dtd">
<!-- Generated by graphviz version 2.38.0 (20140413.2041)
 -->
<!-- Title: G Pages: 1 -->
<svg width="297pt" height="124pt"
 viewBox="0.00 0.00 297.08 124.00" xmlns="http://www.w3.org/2000/svg" xmlns:xlink="http://www.w3.org/1999/xlink">
<g id="graph0" class="graph" transform="scale(1 1) rotate(0) translate(4 120)">
<title>G</title>
<polygon fill="white" stroke="none" points="-4,4 -4,-120 293.083,-120 293.083,4 -4,4"/>
<!-- I -->
<!-- 0 -->
<g id="node2" class="node"><title>0</title>
<ellipse fill="#ffffa0" stroke="black" cx="62.0416" cy="-34" rx="24.0833" ry="24.0833"/>
<text text-anchor="start" x="58.5416" y="-37.4" font-family="Lato" font-size="12.00">0</text>
<text text-anchor="start" x="55.0416" y="-24.4" font-family="Lato" font-size="12.00" fill="#1f78b4">⓿</text>
</g>
<!-- I&#45;&gt;0 -->
<g id="edge1" class="edge"><title>I&#45;&gt;0</title>
<path fill="none" stroke="black" d="M1.04352,-34C1.9346,-34 16.3644,-34 30.8478,-34"/>
<polygon fill="black" stroke="black" points="37.9031,-34 30.9032,-37.1501 34.4031,-34 30.9031,-34.0001 30.9031,-34.0001 30.9031,-34.0001 34.4031,-34 30.9031,-30.8501 37.9031,-34 37.9031,-34"/>
</g>
<!-- 0&#45;&gt;0 -->
<g id="edge2" class="edge"><title>0&#45;&gt;0</title>
<path fill="none" stroke="black" d="M54.2897,-56.9197C53.5514,-67.1735 56.1354,-76.0416 62.0416,-76.0416 66.4713,-76.0416 69.0322,-71.0533 69.7244,-64.2333"/>
<polygon fill="black" stroke="black" points="69.7936,-56.9197 72.8771,-63.9492 69.7604,-60.4195 69.7272,-63.9194 69.7272,-63.9194 69.7272,-63.9194 69.7604,-60.4195 66.5774,-63.8895 69.7936,-56.9197 69.7936,-56.9197"/>
<text text-anchor="start" x="48.0416" y="-79.4416" font-family="Lato" font-size="12.00">a &amp; b</text>
</g>
<!-- 1 -->
<g id="node3" class="node"><title>1</title>
<ellipse fill="#ffffa0" stroke="black" cx="168.083" cy="-67" rx="18" ry="18"/>
<text text-anchor="middle" x="168.083" y="-63.9" font-family="Lato" font-size="12.00">1</text>
</g>
<!-- 0&#45;&gt;1 -->
<g id="edge3" class="edge"><title>0&#45;&gt;1</title>
<path fill="none" stroke="black" d="M80.0046,-50.5392C86.9107,-56.2132 95.3261,-61.909 104.083,-65 116.389,-69.3435 130.9,-70.0744 142.892,-69.6158"/>
<polygon fill="black" stroke="black" points="149.991,-69.1983 143.188,-72.754 146.497,-69.4038 143.003,-69.6094 143.003,-69.6094 143.003,-69.6094 146.497,-69.4038 142.818,-66.4648 149.991,-69.1983 149.991,-69.1983"/>
<text text-anchor="start" x="113.083" y="-72.4" font-family="Lato" font-size="12.00">!b</text>
</g>
<!-- 2 -->
<g id="node4" class="node"><title>2</title>
<ellipse fill="#ffffa0" stroke="black" cx="271.083" cy="-18" rx="18" ry="18"/>
<text text-anchor="middle" x="271.083" y="-14.9" font-family="Lato" font-size="12.00">2</text>
</g>
<!-- 0&#45;&gt;2 -->
<g id="edge4" class="edge"><title>0&#45;&gt;2</title>
<path fill="none" stroke="black" d="M86.3136,-32.0942C103.843,-30.667 128.469,-28.6796 150.083,-27 183.306,-24.4183 221.712,-21.5599 245.947,-19.7719"/>
<polygon fill="black" stroke="black" points="252.991,-19.2528 246.242,-22.9088 249.501,-19.51 246.01,-19.7673 246.01,-19.7673 246.01,-19.7673 249.501,-19.51 245.779,-16.6258 252.991,-19.2528 252.991,-19.2528"/>
<text text-anchor="start" x="152.583" y="-30.4" font-family="Lato" font-size="12.00">!a &amp; b</text>
</g>
<!-- 1&#45;&gt;0 -->
<g id="edge5" class="edge"><title>1&#45;&gt;0</title>
<path fill="none" stroke="black" d="M152.552,-57.8498C146.427,-54.3316 139.101,-50.5514 132.083,-48 119.688,-43.4937 105.485,-40.2997 93.1963,-38.112"/>
<polygon fill="black" stroke="black" points="86.2103,-36.9379 93.6356,-34.9917 89.6619,-37.518 93.1135,-38.0981 93.1135,-38.0981 93.1135,-38.0981 89.6619,-37.518 92.5913,-41.2046 86.2103,-36.9379 86.2103,-36.9379"/>
<text text-anchor="start" x="104.083" y="-51.4" font-family="Lato" font-size="12.00">a &amp; b</text>
</g>
<!-- 1&#45;&gt;1 -->
<g id="edge6" class="edge"><title>1&#45;&gt;1</title>
<path fill="none" stroke="black" d="M159.45,-82.916C157.198,-93.1504 160.075,-103 168.083,-103 174.214,-103 177.338,-97.2263 177.455,-89.9268"/>
<polygon fill="black" stroke="black" points="176.717,-82.916 180.582,-89.5477 177.083,-86.3968 177.45,-89.8775 177.45,-89.8775 177.45,-89.8775 177.083,-86.3968 174.317,-90.2074 176.717,-82.916 176.717,-82.916"/>
<text text-anchor="start" x="163.083" y="-106.4" font-family="Lato" font-size="12.00">!b</text>
</g>
<!-- 1&#45;&gt;2 -->
<g id="edge7" class="edge"><title>1&#45;&gt;2</title>
<path fill="none" stroke="black" d="M184.865,-59.3438C201.764,-51.1452 228.716,-38.0691 247.78,-28.8206"/>
<polygon fill="black" stroke="black" points="254.413,-25.6025 249.49,-31.4921 251.264,-27.1302 248.115,-28.658 248.115,-28.658 248.115,-28.658 251.264,-27.1302 246.74,-25.8239 254.413,-25.6025 254.413,-25.6025"/>
<text text-anchor="start" x="204.083" y="-52.4" font-family="Lato" font-size="12.00">!a &amp; b</text>
</g>
<!-- 2&#45;&gt;0 -->
<g id="edge8" class="edge"><title>2&#45;&gt;0</title>
<path fill="none" stroke="black" d="M253.313,-13.9189C230.045,-8.83431 186.695,-1.452 150.083,-7 130.099,-10.0283 108.385,-16.7579 91.6433,-22.7406"/>
<polygon fill="black" stroke="black" points="84.7924,-25.2459 90.2847,-19.8833 88.0795,-24.0438 91.3666,-22.8417 91.3666,-22.8417 91.3666,-22.8417 88.0795,-24.0438 92.4485,-25.8001 84.7924,-25.2459 84.7924,-25.2459"/>
<text text-anchor="start" x="164.583" y="-10.4" font-family="Lato" font-size="12.00">a</text>
</g>
<!-- 2&#45;&gt;2 -->
<g id="edge9" class="edge"><title>2&#45;&gt;2</title>
<path fill="none" stroke="black" d="M262.45,-33.916C260.198,-44.1504 263.075,-54 271.083,-54 277.214,-54 280.338,-48.2263 280.455,-40.9268"/>
<polygon fill="black" stroke="black" points="279.717,-33.916 283.582,-40.5477 280.083,-37.3968 280.45,-40.8775 280.45,-40.8775 280.45,-40.8775 280.083,-37.3968 277.317,-41.2074 279.717,-33.916 279.717,-33.916"/>
<text text-anchor="start" x="266.083" y="-57.4" font-family="Lato" font-size="12.00">!a</text>
</g>
</g>
</svg>
