<?xml version="1.0" encoding="UTF-8" standalone="no"?>
<?xml-stylesheet href="spot.css" type="text/css"?>
<!DOCTYPE svg PUBLIC "-//W3C//DTD SVG 1.1//EN"
 "http://www.w3.org/Graphics/SVG/1.1/DTD/svg11.dtd">
<!-- Generated by graphviz version 2.38.0 (20140413.2041)
 -->
<!-- Title: G Pages: 1 -->
<svg width="539pt" height="180pt"
 viewBox="0.00 0.00 539.44 179.80" xmlns="http://www.w3.org/2000/svg" xmlns:xlink="http://www.w3.org/1999/xlink">
<g id="graph0" class="graph" transform="scale(1 1) rotate(0) translate(4 175.8)">
<title>G</title>
<polygon fill="white" stroke="none" points="-4,4 -4,-175.8 535.439,-175.8 535.439,4 -4,4"/>
<text text-anchor="start" x="246.72" y="-159.2" font-family="Lato" font-size="12.00">Fin(</text>
<text text-anchor="start" x="266.72" y="-159.2" font-family="Lato" font-size="12.00" fill="#1f78b4">⓿</text>
<text text-anchor="start" x="280.72" y="-159.2" font-family="Lato" font-size="12.00">)</text>
<text text-anchor="start" x="238.22" y="-147.2" font-family="Lato" font-size="12.00">[co&#45;Büchi]</text>
<!-- I -->
<!-- 0 -->
<g id="node2" class="node"><title>0</title>
<ellipse fill="#ffffa0" stroke="black" cx="89.0937" cy="-63.8" rx="51.1876" ry="18"/>
<text text-anchor="start" x="55.5937" y="-60.7" font-family="Lato" font-size="12.00">GF(a &lt;&#45;&gt; Xb)</text>
</g>
<!-- I&#45;&gt;0 -->
<g id="edge1" class="edge"><title>I&#45;&gt;0</title>
<path fill="none" stroke="black" d="M1.06312,-63.8C2.0637,-63.8 14.8323,-63.8 30.2953,-63.8"/>
<polygon fill="black" stroke="black" points="37.557,-63.8 30.5571,-66.9501 34.057,-63.8 30.557,-63.8001 30.557,-63.8001 30.557,-63.8001 34.057,-63.8 30.557,-60.6501 37.557,-63.8 37.557,-63.8"/>
</g>
<!-- &#45;1 -->
<g id="node3" class="node"><title>&#45;1</title>
<ellipse fill="#ffffa0" stroke="black" cx="187.987" cy="-136.8" rx="1.8" ry="1.8"/>
</g>
<!-- 0&#45;&gt;&#45;1 -->
<g id="edge2" class="edge"><title>0&#45;&gt;&#45;1</title>
<path fill="none" stroke="black" d="M108.841,-80.554C122.181,-92.1379 140.758,-107.599 158.187,-119.8 165.09,-124.632 173.422,-129.449 179.345,-132.715"/>
<polygon fill="none" stroke="black" points="178.524,-135.056 185.85,-136.211 180.844,-130.739 178.524,-135.056"/>
<text text-anchor="start" x="158.187" y="-130.2" font-family="Lato" font-size="12.00">!a</text>
</g>
<!-- &#45;4 -->
<g id="node5" class="node"><title>&#45;4</title>
<ellipse fill="#ffffa0" stroke="black" cx="187.987" cy="-1.8" rx="1.8" ry="1.8"/>
</g>
<!-- 0&#45;&gt;&#45;4 -->
<g id="edge5" class="edge"><title>0&#45;&gt;&#45;4</title>
<path fill="none" stroke="black" d="M114.544,-48.1548C136.251,-34.2652 166.556,-14.8737 180.041,-6.24479"/>
<polygon fill="none" stroke="black" points="181.639,-8.13113 186.215,-2.29454 178.998,-4.00376 181.639,-8.13113"/>
<text text-anchor="start" x="159.687" y="-24.2" font-family="Lato" font-size="12.00">a</text>
</g>
<!-- &#45;7 -->
<g id="node7" class="node"><title>&#45;7</title>
<ellipse fill="#ffffa0" stroke="black" cx="187.987" cy="-53.8" rx="1.8" ry="1.8"/>
</g>
<!-- 0&#45;&gt;&#45;7 -->
<g id="edge8" class="edge"><title>0&#45;&gt;&#45;7</title>
<path fill="none" stroke="black" d="M140.251,-62.048C149.574,-61.3095 159.204,-60.2676 168.187,-58.8 171.871,-58.1983 175.877,-57.1845 179.241,-56.2264"/>
<polygon fill="none" stroke="black" points="180.02,-58.5502 185.984,-54.142 178.572,-53.8688 180.02,-58.5502"/>
<text text-anchor="start" x="159.687" y="-64.2" font-family="Lato" font-size="12.00">1</text>
</g>
<!-- &#45;1&#45;&gt;0 -->
<g id="edge3" class="edge"><title>&#45;1&#45;&gt;0</title>
<path fill="none" stroke="black" d="M186.161,-136.177C180.228,-131.708 143.625,-104.131 117.361,-84.3436"/>
<polygon fill="black" stroke="black" points="111.598,-80.0011 119.084,-81.6974 114.393,-82.1072 117.188,-84.2133 117.188,-84.2133 117.188,-84.2133 114.393,-82.1072 115.293,-86.7292 111.598,-80.0011 111.598,-80.0011"/>
</g>
<!-- 3 -->
<g id="node4" class="node"><title>3</title>
<ellipse fill="#ffffa0" stroke="black" cx="404.439" cy="-92.8" rx="27" ry="18"/>
<text text-anchor="start" x="399.439" y="-89.7" font-family="Lato" font-size="12.00">!b</text>
</g>
<!-- &#45;1&#45;&gt;3 -->
<g id="edge4" class="edge"><title>&#45;1&#45;&gt;3</title>
<path fill="none" stroke="black" d="M189.905,-136.749C198.955,-136.23 273.182,-131.649 331.439,-117.8 345.777,-114.392 361.267,-109.217 374.193,-104.458"/>
<polygon fill="black" stroke="black" points="381.087,-101.871 375.64,-107.28 377.81,-103.101 374.533,-104.331 374.533,-104.331 374.533,-104.331 377.81,-103.101 373.426,-101.381 381.087,-101.871 381.087,-101.871"/>
</g>
<!-- 4 -->
<g id="node9" class="node"><title>4</title>
<ellipse fill="#ffffa0" stroke="black" cx="504.439" cy="-67.8" rx="27" ry="18"/>
<text text-anchor="middle" x="504.439" y="-64.7" font-family="Lato" font-size="12.00">t</text>
</g>
<!-- 3&#45;&gt;4 -->
<g id="edge15" class="edge"><title>3&#45;&gt;4</title>
<path fill="none" stroke="black" d="M429.916,-86.5559C442.661,-83.3046 458.389,-79.2924 472.023,-75.8143"/>
<polygon fill="black" stroke="black" points="478.935,-74.0511 472.931,-78.8337 475.544,-74.9163 472.152,-75.7815 472.152,-75.7815 472.152,-75.7815 475.544,-74.9163 471.373,-72.7292 478.935,-74.0511 478.935,-74.0511"/>
<text text-anchor="start" x="449.439" y="-85.2" font-family="Lato" font-size="12.00">!b</text>
</g>
<!-- &#45;4&#45;&gt;0 -->
<g id="edge6" class="edge"><title>&#45;4&#45;&gt;0</title>
<path fill="none" stroke="black" d="M185.835,-2.0597C181.837,-2.98942 168.258,-6.38741 158.187,-11.8 142.508,-20.2276 126.608,-32.1393 114.119,-42.436"/>
<polygon fill="black" stroke="black" points="108.634,-47.035 111.974,-40.1236 111.316,-44.7862 113.998,-42.5374 113.998,-42.5374 113.998,-42.5374 111.316,-44.7862 116.022,-44.9511 108.634,-47.035 108.634,-47.035"/>
</g>
<!-- 2 -->
<g id="node6" class="node"><title>2</title>
<ellipse fill="#ffffa0" stroke="black" cx="404.439" cy="-38.8" rx="27" ry="18"/>
<text text-anchor="start" x="400.939" y="-35.7" font-family="Lato" font-size="12.00">b</text>
</g>
<!-- &#45;4&#45;&gt;2 -->
<g id="edge7" class="edge"><title>&#45;4&#45;&gt;2</title>
<path fill="none" stroke="black" d="M189.898,-1.88169C198.885,-2.69607 272.623,-9.56235 331.439,-20.8 345.001,-23.3911 359.824,-26.9668 372.477,-30.2488"/>
<polygon fill="black" stroke="black" points="379.261,-32.0338 371.69,-33.2989 375.876,-31.1432 372.492,-30.2526 372.492,-30.2526 372.492,-30.2526 375.876,-31.1432 373.293,-27.2063 379.261,-32.0338 379.261,-32.0338"/>
</g>
<!-- 2&#45;&gt;4 -->
<g id="edge14" class="edge"><title>2&#45;&gt;4</title>
<path fill="none" stroke="black" d="M429.413,-45.8942C442.345,-49.7211 458.456,-54.4887 472.343,-58.5981"/>
<polygon fill="black" stroke="black" points="479.374,-60.6785 471.767,-61.7127 476.017,-59.6854 472.661,-58.6922 472.661,-58.6922 472.661,-58.6922 476.017,-59.6854 473.555,-55.6717 479.374,-60.6785 479.374,-60.6785"/>
<text text-anchor="start" x="450.939" y="-58.2" font-family="Lato" font-size="12.00">b</text>
</g>
<!-- &#45;7&#45;&gt;0 -->
<g id="edge9" class="edge"><title>&#45;7&#45;&gt;0</title>
<path fill="none" stroke="black" d="M185.891,-53.9132C181.472,-54.3692 164.314,-56.14 145.714,-58.0597"/>
<polygon fill="black" stroke="black" points="138.257,-58.8293 144.896,-54.9772 141.738,-58.4699 145.22,-58.1106 145.22,-58.1106 145.22,-58.1106 141.738,-58.4699 145.543,-61.2439 138.257,-58.8293 138.257,-58.8293"/>
</g>
<!-- 1 -->
<g id="node8" class="node"><title>1</title>
<ellipse fill="#ffffa0" stroke="black" cx="279.113" cy="-53.8" rx="52.1524" ry="24.0833"/>
<text text-anchor="start" x="250.113" y="-57.2" font-family="Lato" font-size="12.00">F(a &lt;&#45;&gt; Xb)</text>
<text text-anchor="start" x="272.113" y="-44.2" font-family="Lato" font-size="12.00" fill="#1f78b4">⓿</text>
</g>
<!-- &#45;7&#45;&gt;1 -->
<g id="edge10" class="edge"><title>&#45;7&#45;&gt;1</title>
<path fill="none" stroke="black" d="M189.988,-53.8C193.44,-53.8 205.407,-53.8 219.457,-53.8"/>
<polygon fill="black" stroke="black" points="226.494,-53.8 219.494,-56.9501 222.994,-53.8 219.494,-53.8001 219.494,-53.8001 219.494,-53.8001 222.994,-53.8 219.494,-50.6501 226.494,-53.8 226.494,-53.8"/>
</g>
<!-- 1&#45;&gt;3 -->
<g id="edge11" class="edge"><title>1&#45;&gt;3</title>
<path fill="none" stroke="black" d="M322.555,-67.2216C339.111,-72.457 357.72,-78.342 372.911,-83.146"/>
<polygon fill="black" stroke="black" points="379.631,-85.271 372.007,-86.1637 376.294,-84.2157 372.957,-83.1603 372.957,-83.1603 372.957,-83.1603 376.294,-84.2157 373.907,-80.1569 379.631,-85.271 379.631,-85.271"/>
<text text-anchor="start" x="349.439" y="-82.2" font-family="Lato" font-size="12.00">!a</text>
</g>
<!-- 1&#45;&gt;2 -->
<g id="edge12" class="edge"><title>1&#45;&gt;2</title>
<path fill="none" stroke="black" d="M329.919,-47.7422C343.666,-46.0701 358.231,-44.2987 370.738,-42.7774"/>
<polygon fill="black" stroke="black" points="377.843,-41.9133 371.274,-45.8855 374.368,-42.3359 370.894,-42.7585 370.894,-42.7585 370.894,-42.7585 374.368,-42.3359 370.514,-39.6316 377.843,-41.9133 377.843,-41.9133"/>
<text text-anchor="start" x="350.939" y="-49.2" font-family="Lato" font-size="12.00">a</text>
</g>
<!-- 1&#45;&gt;1 -->
<g id="edge13" class="edge"><title>1&#45;&gt;1</title>
<path fill="none" stroke="black" d="M266.145,-77.1461C265.084,-87.2181 269.406,-95.8416 279.113,-95.8416 286.394,-95.8416 290.645,-90.9909 291.868,-84.3164"/>
<polygon fill="black" stroke="black" points="292.081,-77.1461 295.022,-84.2367 291.977,-80.6445 291.873,-84.143 291.873,-84.143 291.873,-84.143 291.977,-80.6445 288.724,-84.0493 292.081,-77.1461 292.081,-77.1461"/>
<text text-anchor="start" x="275.613" y="-99.2416" font-family="Lato" font-size="12.00">1</text>
</g>
<!-- 4&#45;&gt;4 -->
<g id="edge16" class="edge"><title>4&#45;&gt;4</title>
<path fill="none" stroke="black" d="M495.579,-84.8373C493.771,-94.6579 496.724,-103.8 504.439,-103.8 510.225,-103.8 513.333,-98.6576 513.763,-91.9433"/>
<polygon fill="black" stroke="black" points="513.299,-84.8373 516.898,-91.6175 513.527,-88.3299 513.755,-91.8225 513.755,-91.8225 513.755,-91.8225 513.527,-88.3299 510.611,-92.0275 513.299,-84.8373 513.299,-84.8373"/>
<text text-anchor="start" x="500.939" y="-107.2" font-family="Lato" font-size="12.00">1</text>
</g>
</g>
</svg>
