<?xml version="1.0" encoding="UTF-8" standalone="no"?>
<?xml-stylesheet href="spot.css" type="text/css"?>
<!DOCTYPE svg PUBLIC "-//W3C//DTD SVG 1.1//EN"
 "http://www.w3.org/Graphics/SVG/1.1/DTD/svg11.dtd">
<!-- Generated by graphviz version 2.38.0 (20140413.2041)
 -->
<!-- Title: G Pages: 1 -->
<svg width="278pt" height="83pt"
 viewBox="0.00 0.00 278.00 83.00" xmlns="http://www.w3.org/2000/svg" xmlns:xlink="http://www.w3.org/1999/xlink">
<g id="graph0" class="graph" transform="scale(1 1) rotate(0) translate(4 79)">
<title>G</title>
<polygon fill="white" stroke="none" points="-4,4 -4,-79 274,-79 274,4 -4,4"/>
<!-- I -->
<!-- 0 -->
<g id="node2" class="node"><title>0</title>
<ellipse fill="#ffffa0" stroke="black" cx="60" cy="-22" rx="18" ry="18"/>
<ellipse fill="none" stroke="black" cx="60" cy="-22" rx="22" ry="22"/>
<text text-anchor="middle" x="60" y="-18.9" font-family="Lato" font-size="12.00">0</text>
</g>
<!-- I&#45;&gt;0 -->
<g id="edge1" class="edge"><title>I&#45;&gt;0</title>
<path fill="none" stroke="black" d="M1.16638,-22C2.84121,-22 16.884,-22 30.7112,-22"/>
<polygon fill="black" stroke="black" points="37.8555,-22 30.8556,-25.1501 34.3555,-22 30.8555,-22.0001 30.8555,-22.0001 30.8555,-22.0001 34.3555,-22 30.8555,-18.8501 37.8555,-22 37.8555,-22"/>
</g>
<!-- 0&#45;&gt;0 -->
<g id="edge2" class="edge"><title>0&#45;&gt;0</title>
<path fill="none" stroke="black" d="M52.6831,-42.9908C51.7798,-53.0872 54.2188,-62 60,-62 64.3359,-62 66.7918,-56.9866 67.3677,-50.2204"/>
<polygon fill="black" stroke="black" points="67.3169,-42.9908 70.5161,-49.9684 67.3415,-46.4907 67.3662,-49.9906 67.3662,-49.9906 67.3662,-49.9906 67.3415,-46.4907 64.2163,-50.0128 67.3169,-42.9908 67.3169,-42.9908"/>
<text text-anchor="start" x="4.5" y="-65.4" font-family="Lato" font-size="12.00">!door_open | light_on</text>
</g>
<!-- 1 -->
<g id="node3" class="node"><title>1</title>
<ellipse fill="#ffffa0" stroke="black" cx="252" cy="-22" rx="18" ry="18"/>
<text text-anchor="middle" x="252" y="-18.9" font-family="Lato" font-size="12.00">1</text>
</g>
<!-- 0&#45;&gt;1 -->
<g id="edge3" class="edge"><title>0&#45;&gt;1</title>
<path fill="none" stroke="black" d="M82.0593,-22C117.567,-22 189.14,-22 226.711,-22"/>
<polygon fill="black" stroke="black" points="233.751,-22 226.751,-25.1501 230.251,-22 226.751,-22.0001 226.751,-22.0001 226.751,-22.0001 230.251,-22 226.751,-18.8501 233.751,-22 233.751,-22"/>
<text text-anchor="start" x="100" y="-25.4" font-family="Lato" font-size="12.00">door_open &amp; !light_on</text>
</g>
<!-- 1&#45;&gt;1 -->
<g id="edge4" class="edge"><title>1&#45;&gt;1</title>
<path fill="none" stroke="black" d="M237.994,-33.7994C230.257,-45.3306 234.926,-58 252,-58 265.873,-58 271.556,-49.6362 269.05,-40.3147"/>
<polygon fill="black" stroke="black" points="266.006,-33.7994 271.823,-38.8083 267.488,-36.9705 268.969,-40.1416 268.969,-40.1416 268.969,-40.1416 267.488,-36.9705 266.115,-41.4748 266.006,-33.7994 266.006,-33.7994"/>
<text text-anchor="middle" x="252" y="-61.4" font-family="Lato" font-size="12.00">1</text>
</g>
</g>
</svg>
