<?xml version="1.0" encoding="UTF-8" standalone="no"?>
<?xml-stylesheet href="spot.css" type="text/css"?>
<!DOCTYPE svg PUBLIC "-//W3C//DTD SVG 1.1//EN"
 "http://www.w3.org/Graphics/SVG/1.1/DTD/svg11.dtd">
<!-- Generated by graphviz version 2.38.0 (20140413.2041)
 -->
<!-- Title: G Pages: 1 -->
<svg width="177pt" height="52pt"
 viewBox="0.00 0.00 177.00 52.00" xmlns="http://www.w3.org/2000/svg" xmlns:xlink="http://www.w3.org/1999/xlink">
<g id="graph0" class="graph" transform="scale(1 1) rotate(0) translate(4 48)">
<title>G</title>
<polygon fill="white" stroke="none" points="-4,4 -4,-48 173,-48 173,4 -4,4"/>
<!-- I -->
<!-- 0 -->
<g id="node2" class="node"><title>0</title>
<ellipse fill="#ffffa0" stroke="black" cx="60" cy="-22" rx="18" ry="18"/>
<ellipse fill="none" stroke="black" cx="60" cy="-22" rx="22" ry="22"/>
<text text-anchor="middle" x="60" y="-18.9" font-family="Lato" font-size="12.00">0</text>
</g>
<!-- I&#45;&gt;0 -->
<g id="edge1" class="edge"><title>I&#45;&gt;0</title>
<path fill="none" stroke="black" d="M1.16638,-22C2.84121,-22 16.884,-22 30.7112,-22"/>
<polygon fill="black" stroke="black" points="37.8555,-22 30.8556,-25.1501 34.3555,-22 30.8555,-22.0001 30.8555,-22.0001 30.8555,-22.0001 34.3555,-22 30.8555,-18.8501 37.8555,-22 37.8555,-22"/>
</g>
<!-- 1 -->
<g id="node3" class="node"><title>1</title>
<ellipse fill="#ffffa0" stroke="black" cx="147" cy="-22" rx="18" ry="18"/>
<ellipse fill="none" stroke="black" cx="147" cy="-22" rx="22" ry="22"/>
<text text-anchor="middle" x="147" y="-18.9" font-family="Lato" font-size="12.00">1</text>
</g>
<!-- 0&#45;&gt;1 -->
<g id="edge2" class="edge"><title>0&#45;&gt;1</title>
<path fill="none" stroke="black" d="M82.0112,-22C92.8407,-22 106.196,-22 117.9,-22"/>
<polygon fill="black" stroke="black" points="124.936,-22 117.936,-25.1501 121.436,-22 117.936,-22.0001 117.936,-22.0001 117.936,-22.0001 121.436,-22 117.936,-18.8501 124.936,-22 124.936,-22"/>
<text text-anchor="middle" x="103.5" y="-25.4" font-family="Lato" font-size="12.00">1</text>
</g>
<!-- 1&#45;&gt;0 -->
<g id="edge3" class="edge"><title>1&#45;&gt;0</title>
<path fill="none" stroke="black" d="M128.012,-10.2826C119.663,-6.17362 109.502,-3.01912 100,-5 95.5396,-5.92989 90.9643,-7.39874 86.5884,-9.09281"/>
<polygon fill="black" stroke="black" points="79.9214,-11.8952 85.1538,-6.27877 83.1479,-10.5389 86.3745,-9.18267 86.3745,-9.18267 86.3745,-9.18267 83.1479,-10.5389 87.5951,-12.0866 79.9214,-11.8952 79.9214,-11.8952"/>
<text text-anchor="start" x="100" y="-8.4" font-family="Lato" font-size="12.00">a</text>
</g>
</g>
</svg>
