<?xml version="1.0" encoding="UTF-8" standalone="no"?>
<?xml-stylesheet href="spot.css" type="text/css"?>
<!DOCTYPE svg PUBLIC "-//W3C//DTD SVG 1.1//EN"
 "http://www.w3.org/Graphics/SVG/1.1/DTD/svg11.dtd">
<!-- Generated by graphviz version 2.38.0 (20140413.2041)
 -->
<!-- Title: G Pages: 1 -->
<svg width="182pt" height="142pt"
 viewBox="0.00 0.00 182.00 142.01" xmlns="http://www.w3.org/2000/svg" xmlns:xlink="http://www.w3.org/1999/xlink">
<g id="graph0" class="graph" transform="scale(1 1) rotate(0) translate(4 138.011)">
<title>G</title>
<polygon fill="white" stroke="none" points="-4,4 -4,-138.011 178,-138.011 178,4 -4,4"/>
<!-- I -->
<!-- 0 -->
<g id="node2" class="node"><title>0</title>
<ellipse fill="#ffffa0" stroke="black" cx="56" cy="-30.0115" rx="18" ry="18"/>
<text text-anchor="middle" x="56" y="-26.9115" font-family="Lato" font-size="12.00">0</text>
</g>
<!-- I&#45;&gt;0 -->
<g id="edge1" class="edge"><title>I&#45;&gt;0</title>
<path fill="none" stroke="black" d="M1.15491,-30.0115C2.79388,-30.0115 17.1543,-30.0115 30.6317,-30.0115"/>
<polygon fill="black" stroke="black" points="37.9419,-30.0115 30.9419,-33.1616 34.4419,-30.0115 30.9419,-30.0116 30.9419,-30.0116 30.9419,-30.0116 34.4419,-30.0115 30.9418,-26.8616 37.9419,-30.0115 37.9419,-30.0115"/>
</g>
<!-- 0&#45;&gt;0 -->
<g id="edge2" class="edge"><title>0&#45;&gt;0</title>
<path fill="none" stroke="black" d="M49.6208,-47.0488C48.3189,-56.8694 50.4453,-66.0115 56,-66.0115 60.166,-66.0115 62.4036,-60.8691 62.7128,-54.1548"/>
<polygon fill="black" stroke="black" points="62.3792,-47.0488 65.8541,-53.8933 62.5434,-50.5449 62.7076,-54.0411 62.7076,-54.0411 62.7076,-54.0411 62.5434,-50.5449 59.561,-54.1889 62.3792,-47.0488 62.3792,-47.0488"/>
<text text-anchor="start" x="52.5" y="-82.4115" font-family="Lato" font-size="12.00">1</text>
<text text-anchor="start" x="49" y="-69.4115" font-family="Lato" font-size="12.00" fill="#ff4da0">❶</text>
</g>
<!-- 1 -->
<g id="node3" class="node"><title>1</title>
<ellipse fill="#ffffa0" stroke="black" cx="156" cy="-30.0115" rx="18" ry="18"/>
<text text-anchor="middle" x="156" y="-26.9115" font-family="Lato" font-size="12.00">1</text>
</g>
<!-- 0&#45;&gt;1 -->
<g id="edge3" class="edge"><title>0&#45;&gt;1</title>
<path fill="none" stroke="black" d="M74.071,-31.769C79.7664,-32.2768 86.1506,-32.7613 92,-33.0115 104.433,-33.5434 107.567,-33.5434 120,-33.0115 123.473,-32.8629 127.135,-32.6318 130.729,-32.3622"/>
<polygon fill="black" stroke="black" points="137.929,-31.769 131.211,-35.4832 134.441,-32.0564 130.953,-32.3438 130.953,-32.3438 130.953,-32.3438 134.441,-32.0564 130.694,-29.2045 137.929,-31.769 137.929,-31.769"/>
<text text-anchor="start" x="102.5" y="-48.4115" font-family="Lato" font-size="12.00">a</text>
<text text-anchor="start" x="92" y="-36.4115" font-family="Lato" font-size="12.00" fill="#1f78b4">⓿</text>
<text text-anchor="start" x="106" y="-36.4115" font-family="Lato" font-size="12.00" fill="#ff4da0">❶</text>
</g>
<!-- 1&#45;&gt;0 -->
<g id="edge4" class="edge"><title>1&#45;&gt;0</title>
<path fill="none" stroke="black" d="M142.926,-17.4799C136.677,-11.8982 128.571,-5.93339 120,-3.01148 108.221,1.00383 103.779,1.00383 92,-3.01148 85.8393,-5.1116 79.9192,-8.78368 74.7563,-12.7556"/>
<polygon fill="black" stroke="black" points="69.0744,-17.4799 72.443,-10.5824 71.7657,-15.2422 74.4569,-13.0045 74.4569,-13.0045 74.4569,-13.0045 71.7657,-15.2422 76.4708,-15.4267 69.0744,-17.4799 69.0744,-17.4799"/>
<text text-anchor="start" x="102.5" y="-19.4115" font-family="Lato" font-size="12.00">b</text>
<text text-anchor="start" x="99" y="-6.41148" font-family="Lato" font-size="12.00" fill="#ff4da0">❶</text>
</g>
<!-- 1&#45;&gt;1 -->
<g id="edge5" class="edge"><title>1&#45;&gt;1</title>
<path fill="none" stroke="black" d="M151.506,-47.7932C150.742,-57.3264 152.24,-66.0115 156,-66.0115 158.761,-66.0115 160.302,-61.3276 160.624,-55.0636"/>
<polygon fill="black" stroke="black" points="160.494,-47.7932 163.769,-54.7358 160.557,-51.2927 160.619,-54.7921 160.619,-54.7921 160.619,-54.7921 160.557,-51.2927 157.47,-54.8484 160.494,-47.7932 160.494,-47.7932"/>
<text text-anchor="start" x="140.5" y="-82.4115" font-family="Lato" font-size="12.00">a &amp; !b</text>
<text text-anchor="start" x="149" y="-69.4115" font-family="Lato" font-size="12.00" fill="#1f78b4">⓿</text>
</g>
<!-- 1&#45;&gt;1 -->
<g id="edge6" class="edge"><title>1&#45;&gt;1</title>
<path fill="none" stroke="black" d="M149.118,-46.6703C144.233,-66.7432 146.527,-92.0115 156,-92.0115 164.363,-92.0115 167.131,-72.3184 164.304,-53.8922"/>
<polygon fill="black" stroke="black" points="162.882,-46.6703 167.325,-52.9302 163.558,-50.1044 164.234,-53.5385 164.234,-53.5385 164.234,-53.5385 163.558,-50.1044 161.144,-54.1469 162.882,-46.6703 162.882,-46.6703"/>
<text text-anchor="start" x="142" y="-107.411" font-family="Lato" font-size="12.00">a &amp; b</text>
<text text-anchor="start" x="142" y="-95.4115" font-family="Lato" font-size="12.00" fill="#1f78b4">⓿</text>
<text text-anchor="start" x="156" y="-95.4115" font-family="Lato" font-size="12.00" fill="#ff4da0">❶</text>
</g>
</g>
</svg>
