<?xml version="1.0" encoding="UTF-8" standalone="no"?>
<?xml-stylesheet href="spot.css" type="text/css"?>
<!DOCTYPE svg PUBLIC "-//W3C//DTD SVG 1.1//EN"
 "http://www.w3.org/Graphics/SVG/1.1/DTD/svg11.dtd">
<!-- Generated by graphviz version 2.38.0 (20140413.2041)
 -->
<!-- Title: G Pages: 1 -->
<svg width="240pt" height="75pt"
 viewBox="0.00 0.00 240.00 75.00" xmlns="http://www.w3.org/2000/svg" xmlns:xlink="http://www.w3.org/1999/xlink">
<g id="graph0" class="graph" transform="scale(1 1) rotate(0) translate(4 71)">
<title>G</title>
<polygon fill="white" stroke="none" points="-4,4 -4,-71 236,-71 236,4 -4,4"/>
<!-- I -->
<!-- 1 -->
<g id="node2" class="node"><title>1</title>
<ellipse fill="#ffffa0" stroke="#1f78b4" stroke-width="2" cx="56" cy="-18" rx="18" ry="18"/>
<text text-anchor="middle" x="56" y="-14.9" font-family="Lato" font-size="12.00">1</text>
</g>
<!-- I&#45;&gt;1 -->
<g id="edge1" class="edge"><title>I&#45;&gt;1</title>
<path fill="none" stroke="black" d="M1.15491,-18C2.79388,-18 17.1543,-18 30.6317,-18"/>
<polygon fill="black" stroke="black" points="37.9419,-18 30.9419,-21.1501 34.4419,-18 30.9419,-18.0001 30.9419,-18.0001 30.9419,-18.0001 34.4419,-18 30.9418,-14.8501 37.9419,-18 37.9419,-18"/>
</g>
<!-- 2 -->
<g id="node4" class="node"><title>2</title>
<ellipse fill="#ffffa0" stroke="#6a3d9a" stroke-width="2" cx="135" cy="-18" rx="18" ry="18"/>
<text text-anchor="middle" x="135" y="-14.9" font-family="Lato" font-size="12.00">2</text>
</g>
<!-- 1&#45;&gt;2 -->
<g id="edge3" class="edge"><title>1&#45;&gt;2</title>
<path fill="none" stroke="#ff7f00" stroke-width="2" d="M74.0888,-18C84.5562,-18 98.1196,-18 109.693,-18"/>
<polygon fill="#ff7f00" stroke="#ff7f00" stroke-width="2" points="116.959,-18 109.959,-21.1501 113.459,-18.5 109.959,-18.5001 109.959,-18.0001 109.959,-17.5001 113.459,-17.5 109.959,-14.8501 116.959,-18 116.959,-18"/>
<text text-anchor="middle" x="95.5" y="-21.4" font-family="Lato" font-size="12.00">1</text>
<text text-anchor="middle" x="81.0888" y="-8.4" font-family="Lato" font-size="12.00">#2</text>
</g>
<!-- 0 -->
<g id="node3" class="node"><title>0</title>
<ellipse fill="#ffffa0" stroke="black" cx="214" cy="-18" rx="18" ry="18"/>
<text text-anchor="middle" x="214" y="-14.9" font-family="Lato" font-size="12.00">0</text>
</g>
<!-- 0&#45;&gt;0 -->
<g id="edge2" class="edge"><title>0&#45;&gt;0</title>
<path fill="none" stroke="#ff4da0" stroke-width="2" d="M207.266,-35.0373C205.892,-44.8579 208.137,-54 214,-54 218.397,-54 220.759,-48.8576 221.086,-42.1433"/>
<polygon fill="#ff4da0" stroke="#ff4da0" stroke-width="2" points="220.734,-35.0373 224.226,-41.8728 221.406,-38.5083 221.58,-42.004 221.08,-42.0287 220.581,-42.0535 220.408,-38.5578 217.934,-42.1847 220.734,-35.0373 220.734,-35.0373"/>
<text text-anchor="middle" x="214" y="-57.4" font-family="Lato" font-size="12.00">1</text>
<text text-anchor="middle" x="200.266" y="-38.4373" font-family="Lato" font-size="12.00">#1</text>
</g>
<!-- 2&#45;&gt;0 -->
<g id="edge4" class="edge"><title>2&#45;&gt;0</title>
<path fill="none" stroke="black" d="M153.089,-18C163.556,-18 177.12,-18 188.693,-18"/>
<polygon fill="black" stroke="black" points="195.959,-18 188.959,-21.1501 192.459,-18 188.959,-18.0001 188.959,-18.0001 188.959,-18.0001 192.459,-18 188.959,-14.8501 195.959,-18 195.959,-18"/>
<text text-anchor="start" x="171" y="-21.4" font-family="Lato" font-size="12.00">b</text>
<text text-anchor="middle" x="160.089" y="-8.4" font-family="Lato" font-size="12.00">#3</text>
</g>
<!-- 2&#45;&gt;2 -->
<g id="edge5" class="edge"><title>2&#45;&gt;2</title>
<path fill="none" stroke="black" d="M128.266,-35.0373C126.892,-44.8579 129.137,-54 135,-54 139.397,-54 141.759,-48.8576 142.086,-42.1433"/>
<polygon fill="black" stroke="black" points="141.734,-35.0373 145.226,-41.8728 141.907,-38.533 142.08,-42.0287 142.08,-42.0287 142.08,-42.0287 141.907,-38.533 138.934,-42.1847 141.734,-35.0373 141.734,-35.0373"/>
<text text-anchor="start" x="119.5" y="-57.4" font-family="Lato" font-size="12.00">a &amp; !b</text>
<text text-anchor="middle" x="121.266" y="-38.4373" font-family="Lato" font-size="12.00">#4</text>
</g>
</g>
</svg>
