<?xml version="1.0" encoding="UTF-8" standalone="no"?>
<?xml-stylesheet href="spot.css" type="text/css"?>
<!DOCTYPE svg PUBLIC "-//W3C//DTD SVG 1.1//EN"
 "http://www.w3.org/Graphics/SVG/1.1/DTD/svg11.dtd">
<!-- Generated by graphviz version 2.38.0 (20140413.2041)
 -->
<!-- Title: G Pages: 1 -->
<svg width="161pt" height="119pt"
 viewBox="0.00 0.00 161.00 119.00" xmlns="http://www.w3.org/2000/svg" xmlns:xlink="http://www.w3.org/1999/xlink">
<g id="graph0" class="graph" transform="scale(1 1) rotate(0) translate(4 115)">
<title>G</title>
<polygon fill="white" stroke="none" points="-4,4 -4,-115 157,-115 157,4 -4,4"/>
<!-- I -->
<!-- 0 -->
<g id="node2" class="node"><title>0</title>
<ellipse fill="#ffffa0" stroke="black" cx="56" cy="-18" rx="18" ry="18"/>
<text text-anchor="middle" x="56" y="-14.9" font-family="Lato" font-size="12.00">0</text>
</g>
<!-- I&#45;&gt;0 -->
<g id="edge1" class="edge"><title>I&#45;&gt;0</title>
<path fill="none" stroke="black" d="M1.15491,-18C2.79388,-18 17.1543,-18 30.6317,-18"/>
<polygon fill="black" stroke="black" points="37.9419,-18 30.9419,-21.1501 34.4419,-18 30.9419,-18.0001 30.9419,-18.0001 30.9419,-18.0001 34.4419,-18 30.9418,-14.8501 37.9419,-18 37.9419,-18"/>
</g>
<!-- 0&#45;&gt;0 -->
<g id="edge2" class="edge"><title>0&#45;&gt;0</title>
<path fill="none" stroke="black" d="M49.6208,-35.0373C48.3189,-44.8579 50.4453,-54 56,-54 60.166,-54 62.4036,-48.8576 62.7128,-42.1433"/>
<polygon fill="black" stroke="black" points="62.3792,-35.0373 65.8541,-41.8818 62.5434,-38.5335 62.7076,-42.0296 62.7076,-42.0296 62.7076,-42.0296 62.5434,-38.5335 59.561,-42.1774 62.3792,-35.0373 62.3792,-35.0373"/>
<text text-anchor="start" x="51" y="-57.4" font-family="Lato" font-size="12.00">!a</text>
</g>
<!-- 1 -->
<g id="node3" class="node"><title>1</title>
<ellipse fill="#ffffa0" stroke="black" cx="135" cy="-18" rx="18" ry="18"/>
<text text-anchor="middle" x="135" y="-14.9" font-family="Lato" font-size="12.00">1</text>
</g>
<!-- 0&#45;&gt;1 -->
<g id="edge3" class="edge"><title>0&#45;&gt;1</title>
<path fill="none" stroke="black" d="M74.0888,-18C84.5562,-18 98.1196,-18 109.693,-18"/>
<polygon fill="black" stroke="black" points="116.959,-18 109.959,-21.1501 113.459,-18 109.959,-18.0001 109.959,-18.0001 109.959,-18.0001 113.459,-18 109.959,-14.8501 116.959,-18 116.959,-18"/>
<text text-anchor="start" x="92" y="-21.4" font-family="Lato" font-size="12.00">a</text>
</g>
<!-- 1&#45;&gt;1 -->
<g id="edge4" class="edge"><title>1&#45;&gt;1</title>
<path fill="none" stroke="black" d="M131.584,-35.7817C131.004,-45.3149 132.143,-54 135,-54 137.098,-54 138.27,-49.3161 138.514,-43.0521"/>
<polygon fill="black" stroke="black" points="138.416,-35.7817 141.66,-42.7383 138.463,-39.2814 138.511,-42.7811 138.511,-42.7811 138.511,-42.7811 138.463,-39.2814 135.361,-42.8239 138.416,-35.7817 138.416,-35.7817"/>
<text text-anchor="start" x="130" y="-57.4" font-family="Lato" font-size="12.00">!b</text>
</g>
<!-- 1&#45;&gt;1 -->
<g id="edge5" class="edge"><title>1&#45;&gt;1</title>
<path fill="none" stroke="black" d="M129.441,-35.1418C126.17,-52.585 128.023,-72 135,-72 141.05,-72 143.247,-57.3996 141.591,-42.146"/>
<polygon fill="black" stroke="black" points="140.559,-35.1418 144.696,-41.6079 141.07,-38.6044 141.58,-42.067 141.58,-42.067 141.58,-42.067 141.07,-38.6044 138.463,-42.5262 140.559,-35.1418 140.559,-35.1418"/>
<text text-anchor="start" x="131.5" y="-88.4" font-family="Lato" font-size="12.00">b</text>
<text text-anchor="start" x="128" y="-75.4" font-family="Lato" font-size="12.00" fill="#1f78b4">⓿</text>
</g>
</g>
</svg>
