<?xml version="1.0" encoding="UTF-8" standalone="no"?>
<?xml-stylesheet href="spot.css" type="text/css"?>
<!DOCTYPE svg PUBLIC "-//W3C//DTD SVG 1.1//EN"
 "http://www.w3.org/Graphics/SVG/1.1/DTD/svg11.dtd">
<!-- Generated by graphviz version 2.38.0 (20140413.2041)
 -->
<!-- Title: G Pages: 1 -->
<svg width="285pt" height="137pt"
 viewBox="0.00 0.00 285.00 137.00" xmlns="http://www.w3.org/2000/svg" xmlns:xlink="http://www.w3.org/1999/xlink">
<g id="graph0" class="graph" transform="scale(1 1) rotate(0) translate(4 133)">
<title>G</title>
<polygon fill="white" stroke="none" points="-4,4 -4,-133 281,-133 281,4 -4,4"/>
<!-- I -->
<!-- 0 -->
<g id="node2" class="node"><title>0</title>
<ellipse fill="#ffffa0" stroke="black" cx="56" cy="-34" rx="18" ry="18"/>
<text text-anchor="middle" x="56" y="-30.9" font-family="Lato" font-size="12.00">0</text>
</g>
<!-- I&#45;&gt;0 -->
<g id="edge1" class="edge"><title>I&#45;&gt;0</title>
<path fill="none" stroke="black" d="M1.15491,-34C2.79388,-34 17.1543,-34 30.6317,-34"/>
<polygon fill="black" stroke="black" points="37.9419,-34 30.9419,-37.1501 34.4419,-34 30.9419,-34.0001 30.9419,-34.0001 30.9419,-34.0001 34.4419,-34 30.9418,-30.8501 37.9419,-34 37.9419,-34"/>
</g>
<!-- 0&#45;&gt;0 -->
<g id="edge2" class="edge"><title>0&#45;&gt;0</title>
<path fill="none" stroke="black" d="M49.6208,-51.0373C48.3189,-60.8579 50.4453,-70 56,-70 60.166,-70 62.4036,-64.8576 62.7128,-58.1433"/>
<polygon fill="black" stroke="black" points="62.3792,-51.0373 65.8541,-57.8818 62.5434,-54.5335 62.7076,-58.0296 62.7076,-58.0296 62.7076,-58.0296 62.5434,-54.5335 59.561,-58.1774 62.3792,-51.0373 62.3792,-51.0373"/>
<text text-anchor="start" x="42" y="-86.4" font-family="Lato" font-size="12.00">a &amp; b</text>
<text text-anchor="start" x="49" y="-73.4" font-family="Lato" font-size="12.00" fill="#1f78b4">⓿</text>
</g>
<!-- 1 -->
<g id="node3" class="node"><title>1</title>
<ellipse fill="#ffffa0" stroke="black" cx="156" cy="-80" rx="18" ry="18"/>
<text text-anchor="middle" x="156" y="-76.9" font-family="Lato" font-size="12.00">1</text>
</g>
<!-- 0&#45;&gt;1 -->
<g id="edge3" class="edge"><title>0&#45;&gt;1</title>
<path fill="none" stroke="black" d="M68.8207,-47.148C75.1264,-53.4157 83.357,-60.508 92,-65 103.979,-71.226 118.582,-74.9115 130.71,-77.07"/>
<polygon fill="black" stroke="black" points="137.897,-78.2257 130.486,-80.2243 134.442,-77.67 130.986,-77.1142 130.986,-77.1142 130.986,-77.1142 134.442,-77.67 131.486,-74.0042 137.897,-78.2257 137.897,-78.2257"/>
<text text-anchor="start" x="101" y="-90.4" font-family="Lato" font-size="12.00">!b</text>
<text text-anchor="start" x="99" y="-77.4" font-family="Lato" font-size="12.00" fill="#1f78b4">⓿</text>
</g>
<!-- 2 -->
<g id="node4" class="node"><title>2</title>
<ellipse fill="#ffffa0" stroke="black" cx="259" cy="-18" rx="18" ry="18"/>
<text text-anchor="middle" x="259" y="-14.9" font-family="Lato" font-size="12.00">2</text>
</g>
<!-- 0&#45;&gt;2 -->
<g id="edge4" class="edge"><title>0&#45;&gt;2</title>
<path fill="none" stroke="black" d="M74.0617,-32.4689C90.4506,-31.0116 115.911,-28.7827 138,-27 171.214,-24.3193 209.623,-21.4854 233.86,-19.7297"/>
<polygon fill="black" stroke="black" points="240.905,-19.2208 234.151,-22.867 237.415,-19.473 233.924,-19.7252 233.924,-19.7252 233.924,-19.7252 237.415,-19.473 233.697,-16.5834 240.905,-19.2208 240.905,-19.2208"/>
<text text-anchor="start" x="140.5" y="-43.4" font-family="Lato" font-size="12.00">!a &amp; b</text>
<text text-anchor="start" x="149" y="-30.4" font-family="Lato" font-size="12.00" fill="#1f78b4">⓿</text>
</g>
<!-- 1&#45;&gt;0 -->
<g id="edge5" class="edge"><title>1&#45;&gt;0</title>
<path fill="none" stroke="black" d="M143.595,-66.6859C137.278,-60.1202 128.911,-52.6354 120,-48 108.064,-41.7913 93.4648,-38.3269 81.3265,-36.3983"/>
<polygon fill="black" stroke="black" points="74.1325,-35.3851 81.5034,-33.2422 77.5983,-35.8733 81.0641,-36.3614 81.0641,-36.3614 81.0641,-36.3614 77.5983,-35.8733 80.6248,-39.4806 74.1325,-35.3851 74.1325,-35.3851"/>
<text text-anchor="start" x="92" y="-51.4" font-family="Lato" font-size="12.00">a &amp; b</text>
</g>
<!-- 1&#45;&gt;1 -->
<g id="edge6" class="edge"><title>1&#45;&gt;1</title>
<path fill="none" stroke="black" d="M147.367,-95.916C145.114,-106.15 147.992,-116 156,-116 162.131,-116 165.255,-110.226 165.372,-102.927"/>
<polygon fill="black" stroke="black" points="164.633,-95.916 168.499,-102.548 165,-99.3968 165.367,-102.878 165.367,-102.878 165.367,-102.878 165,-99.3968 162.234,-103.207 164.633,-95.916 164.633,-95.916"/>
<text text-anchor="start" x="151" y="-119.4" font-family="Lato" font-size="12.00">!b</text>
</g>
<!-- 1&#45;&gt;2 -->
<g id="edge7" class="edge"><title>1&#45;&gt;2</title>
<path fill="none" stroke="black" d="M171.903,-70.8517C189.233,-60.2135 217.942,-42.59 237.399,-30.6464"/>
<polygon fill="black" stroke="black" points="243.364,-26.9843 239.047,-33.331 240.381,-28.8153 237.399,-30.6464 237.399,-30.6464 237.399,-30.6464 240.381,-28.8153 235.751,-27.9619 243.364,-26.9843 243.364,-26.9843"/>
<text text-anchor="start" x="192" y="-61.4" font-family="Lato" font-size="12.00">!a &amp; b</text>
</g>
<!-- 2&#45;&gt;0 -->
<g id="edge8" class="edge"><title>2&#45;&gt;0</title>
<path fill="none" stroke="black" d="M241.213,-13.8094C217.924,-8.59763 174.551,-1.06852 138,-7 117.698,-10.2945 95.6092,-17.9492 79.6339,-24.27"/>
<polygon fill="black" stroke="black" points="72.7525,-27.0598 78.0561,-21.5105 75.996,-25.7447 79.2396,-24.4297 79.2396,-24.4297 79.2396,-24.4297 75.996,-25.7447 80.4231,-27.349 72.7525,-27.0598 72.7525,-27.0598"/>
<text text-anchor="start" x="152.5" y="-10.4" font-family="Lato" font-size="12.00">a</text>
</g>
<!-- 2&#45;&gt;2 -->
<g id="edge9" class="edge"><title>2&#45;&gt;2</title>
<path fill="none" stroke="black" d="M250.367,-33.916C248.114,-44.1504 250.992,-54 259,-54 265.131,-54 268.255,-48.2263 268.372,-40.9268"/>
<polygon fill="black" stroke="black" points="267.633,-33.916 271.499,-40.5477 268,-37.3968 268.367,-40.8775 268.367,-40.8775 268.367,-40.8775 268,-37.3968 265.234,-41.2074 267.633,-33.916 267.633,-33.916"/>
<text text-anchor="start" x="254" y="-57.4" font-family="Lato" font-size="12.00">!a</text>
</g>
</g>
</svg>
