<?xml version="1.0" encoding="UTF-8" standalone="no"?>
<?xml-stylesheet href="spot.css" type="text/css"?>
<!DOCTYPE svg PUBLIC "-//W3C//DTD SVG 1.1//EN"
 "http://www.w3.org/Graphics/SVG/1.1/DTD/svg11.dtd">
<!-- Generated by graphviz version 2.38.0 (20140413.2041)
 -->
<!-- Title: G Pages: 1 -->
<svg width="293pt" height="124pt"
 viewBox="0.00 0.00 293.00 124.00" xmlns="http://www.w3.org/2000/svg" xmlns:xlink="http://www.w3.org/1999/xlink">
<g id="graph0" class="graph" transform="scale(1 1) rotate(0) translate(4 120)">
<title>G</title>
<polygon fill="white" stroke="none" points="-4,4 -4,-120 289,-120 289,4 -4,4"/>
<!-- I -->
<!-- 0 -->
<g id="node2" class="node"><title>0</title>
<ellipse fill="#ffffa0" stroke="black" cx="60" cy="-34" rx="18" ry="18"/>
<ellipse fill="none" stroke="black" cx="60" cy="-34" rx="22" ry="22"/>
<text text-anchor="middle" x="60" y="-30.9" font-family="Lato" font-size="12.00">0</text>
</g>
<!-- I&#45;&gt;0 -->
<g id="edge1" class="edge"><title>I&#45;&gt;0</title>
<path fill="none" stroke="black" d="M1.16638,-34C2.84121,-34 16.884,-34 30.7112,-34"/>
<polygon fill="black" stroke="black" points="37.8555,-34 30.8556,-37.1501 34.3555,-34 30.8555,-34.0001 30.8555,-34.0001 30.8555,-34.0001 34.3555,-34 30.8555,-30.8501 37.8555,-34 37.8555,-34"/>
</g>
<!-- 0&#45;&gt;0 -->
<g id="edge2" class="edge"><title>0&#45;&gt;0</title>
<path fill="none" stroke="black" d="M52.6831,-54.9908C51.7798,-65.0872 54.2188,-74 60,-74 64.3359,-74 66.7918,-68.9866 67.3677,-62.2204"/>
<polygon fill="black" stroke="black" points="67.3169,-54.9908 70.5161,-61.9684 67.3415,-58.4907 67.3662,-61.9906 67.3662,-61.9906 67.3662,-61.9906 67.3415,-58.4907 64.2163,-62.0128 67.3169,-54.9908 67.3169,-54.9908"/>
<text text-anchor="start" x="46" y="-77.4" font-family="Lato" font-size="12.00">a &amp; b</text>
</g>
<!-- 1 -->
<g id="node3" class="node"><title>1</title>
<ellipse fill="#ffffa0" stroke="black" cx="164" cy="-67" rx="18" ry="18"/>
<text text-anchor="middle" x="164" y="-63.9" font-family="Lato" font-size="12.00">1</text>
</g>
<!-- 0&#45;&gt;1 -->
<g id="edge3" class="edge"><title>0&#45;&gt;1</title>
<path fill="none" stroke="black" d="M75.8707,-49.5501C82.6114,-55.5382 91.0681,-61.7227 100,-65 112.336,-69.5263 126.96,-70.2465 139.012,-69.7353"/>
<polygon fill="black" stroke="black" points="146.14,-69.2808 139.355,-72.8699 142.647,-69.5035 139.154,-69.7263 139.154,-69.7263 139.154,-69.7263 142.647,-69.5035 138.954,-66.5827 146.14,-69.2808 146.14,-69.2808"/>
<text text-anchor="start" x="109" y="-72.4" font-family="Lato" font-size="12.00">!b</text>
</g>
<!-- 2 -->
<g id="node4" class="node"><title>2</title>
<ellipse fill="#ffffa0" stroke="black" cx="267" cy="-18" rx="18" ry="18"/>
<text text-anchor="middle" x="267" y="-14.9" font-family="Lato" font-size="12.00">2</text>
</g>
<!-- 0&#45;&gt;2 -->
<g id="edge4" class="edge"><title>0&#45;&gt;2</title>
<path fill="none" stroke="black" d="M81.9554,-32.2314C99.1574,-30.7898 124.153,-28.7188 146,-27 179.22,-24.3864 217.627,-21.5359 241.862,-19.7583"/>
<polygon fill="black" stroke="black" points="248.907,-19.2425 242.156,-22.8953 245.416,-19.4981 241.926,-19.7537 241.926,-19.7537 241.926,-19.7537 245.416,-19.4981 241.696,-16.6121 248.907,-19.2425 248.907,-19.2425"/>
<text text-anchor="start" x="148.5" y="-30.4" font-family="Lato" font-size="12.00">!a &amp; b</text>
</g>
<!-- 1&#45;&gt;0 -->
<g id="edge5" class="edge"><title>1&#45;&gt;0</title>
<path fill="none" stroke="black" d="M148.461,-57.8706C142.335,-54.3556 135.01,-50.5721 128,-48 115.504,-43.4148 101.115,-40.1618 88.8833,-37.953"/>
<polygon fill="black" stroke="black" points="81.961,-36.771 89.3914,-34.8443 85.4111,-37.3602 88.8611,-37.9493 88.8611,-37.9493 88.8611,-37.9493 85.4111,-37.3602 88.3309,-41.0544 81.961,-36.771 81.961,-36.771"/>
<text text-anchor="start" x="100" y="-51.4" font-family="Lato" font-size="12.00">a &amp; b</text>
</g>
<!-- 1&#45;&gt;1 -->
<g id="edge6" class="edge"><title>1&#45;&gt;1</title>
<path fill="none" stroke="black" d="M155.367,-82.916C153.114,-93.1504 155.992,-103 164,-103 170.131,-103 173.255,-97.2263 173.372,-89.9268"/>
<polygon fill="black" stroke="black" points="172.633,-82.916 176.499,-89.5477 173,-86.3968 173.367,-89.8775 173.367,-89.8775 173.367,-89.8775 173,-86.3968 170.234,-90.2074 172.633,-82.916 172.633,-82.916"/>
<text text-anchor="start" x="159" y="-106.4" font-family="Lato" font-size="12.00">!b</text>
</g>
<!-- 1&#45;&gt;2 -->
<g id="edge7" class="edge"><title>1&#45;&gt;2</title>
<path fill="none" stroke="black" d="M180.781,-59.3438C197.68,-51.1452 224.633,-38.0691 243.696,-28.8206"/>
<polygon fill="black" stroke="black" points="250.33,-25.6025 245.407,-31.4921 247.181,-27.1302 244.032,-28.658 244.032,-28.658 244.032,-28.658 247.181,-27.1302 242.657,-25.8239 250.33,-25.6025 250.33,-25.6025"/>
<text text-anchor="start" x="200" y="-52.4" font-family="Lato" font-size="12.00">!a &amp; b</text>
</g>
<!-- 2&#45;&gt;0 -->
<g id="edge8" class="edge"><title>2&#45;&gt;0</title>
<path fill="none" stroke="black" d="M249.224,-13.8835C225.95,-8.7577 182.593,-1.32788 146,-7 125.784,-10.1337 103.794,-17.2247 87.2456,-23.3536"/>
<polygon fill="black" stroke="black" points="80.5079,-25.907 85.9373,-20.4807 83.7807,-24.6666 87.0536,-23.4263 87.0536,-23.4263 87.0536,-23.4263 83.7807,-24.6666 88.1699,-26.3719 80.5079,-25.907 80.5079,-25.907"/>
<text text-anchor="start" x="160.5" y="-10.4" font-family="Lato" font-size="12.00">a</text>
</g>
<!-- 2&#45;&gt;2 -->
<g id="edge9" class="edge"><title>2&#45;&gt;2</title>
<path fill="none" stroke="black" d="M258.367,-33.916C256.114,-44.1504 258.992,-54 267,-54 273.131,-54 276.255,-48.2263 276.372,-40.9268"/>
<polygon fill="black" stroke="black" points="275.633,-33.916 279.499,-40.5477 276,-37.3968 276.367,-40.8775 276.367,-40.8775 276.367,-40.8775 276,-37.3968 273.234,-41.2074 275.633,-33.916 275.633,-33.916"/>
<text text-anchor="start" x="262" y="-57.4" font-family="Lato" font-size="12.00">!a</text>
</g>
</g>
</svg>
