<?xml version="1.0" encoding="UTF-8" standalone="no"?>
<?xml-stylesheet href="spot.css" type="text/css"?>
<!DOCTYPE svg PUBLIC "-//W3C//DTD SVG 1.1//EN"
 "http://www.w3.org/Graphics/SVG/1.1/DTD/svg11.dtd">
<!-- Generated by graphviz version 2.38.0 (20140413.2041)
 -->
<!-- Title: G Pages: 1 -->
<svg width="82pt" height="205pt"
 viewBox="0.00 0.00 82.00 205.00" xmlns="http://www.w3.org/2000/svg" xmlns:xlink="http://www.w3.org/1999/xlink">
<g id="graph0" class="graph" transform="scale(1 1) rotate(0) translate(4 201)">
<title>G</title>
<polygon fill="white" stroke="none" points="-4,4 -4,-201 78,-201 78,4 -4,4"/>
<!-- I -->
<!-- 0 -->
<g id="node2" class="node"><title>0</title>
<ellipse fill="#ffffa0" stroke="black" cx="56" cy="-18" rx="18" ry="18"/>
<text text-anchor="middle" x="56" y="-14.9" font-family="Lato" font-size="12.00">0</text>
</g>
<!-- I&#45;&gt;0 -->
<g id="edge1" class="edge"><title>I&#45;&gt;0</title>
<path fill="none" stroke="black" d="M1.15491,-18C2.79388,-18 17.1543,-18 30.6317,-18"/>
<polygon fill="black" stroke="black" points="37.9419,-18 30.9419,-21.1501 34.4419,-18 30.9419,-18.0001 30.9419,-18.0001 30.9419,-18.0001 34.4419,-18 30.9418,-14.8501 37.9419,-18 37.9419,-18"/>
</g>
<!-- 0&#45;&gt;0 -->
<g id="edge2" class="edge"><title>0&#45;&gt;0</title>
<path fill="none" stroke="black" d="M54.3718,-36.1527C54.1213,-45.5391 54.6641,-54 56,-54 56.9811,-54 57.5344,-49.437 57.6599,-43.2953"/>
<polygon fill="black" stroke="black" points="57.6282,-36.1527 60.8093,-43.1386 57.6438,-39.6527 57.6593,-43.1526 57.6593,-43.1526 57.6593,-43.1526 57.6438,-39.6527 54.5094,-43.1667 57.6282,-36.1527 57.6282,-36.1527"/>
<text text-anchor="start" x="39" y="-57.4" font-family="Lato" font-size="12.00">!a &amp; !b</text>
</g>
<!-- 0&#45;&gt;0 -->
<g id="edge3" class="edge"><title>0&#45;&gt;0</title>
<path fill="none" stroke="black" d="M53.2943,-35.9782C51.8461,-53.1996 52.748,-72 56,-72 58.7946,-72 59.8537,-58.1155 59.1772,-43.2805"/>
<polygon fill="black" stroke="black" points="58.7057,-35.9782 62.3003,-42.7607 58.9313,-39.471 59.1569,-42.9637 59.1569,-42.9637 59.1569,-42.9637 58.9313,-39.471 56.0134,-43.1667 58.7057,-35.9782 58.7057,-35.9782"/>
<text text-anchor="start" x="40.5" y="-88.4" font-family="Lato" font-size="12.00">!a &amp; b</text>
<text text-anchor="start" x="49" y="-75.4" font-family="Lato" font-size="12.00" fill="#ff4da0">❶</text>
</g>
<!-- 0&#45;&gt;0 -->
<g id="edge4" class="edge"><title>0&#45;&gt;0</title>
<path fill="none" stroke="black" d="M52.7222,-35.8484C49.5285,-62.4395 50.6211,-98 56,-98 60.9167,-98 62.2521,-68.2888 60.0062,-42.8744"/>
<polygon fill="black" stroke="black" points="59.2778,-35.8484 63.1329,-42.4862 59.6387,-39.3298 59.9997,-42.8111 59.9997,-42.8111 59.9997,-42.8111 59.6387,-39.3298 56.8665,-43.136 59.2778,-35.8484 59.2778,-35.8484"/>
<text text-anchor="start" x="40.5" y="-114.4" font-family="Lato" font-size="12.00">a &amp; !b</text>
<text text-anchor="start" x="49" y="-101.4" font-family="Lato" font-size="12.00" fill="#1f78b4">⓿</text>
</g>
<!-- 0&#45;&gt;0 -->
<g id="edge5" class="edge"><title>0&#45;&gt;0</title>
<path fill="none" stroke="black" d="M52.2971,-35.9414C47.2422,-70.8918 48.4766,-124 56,-124 63.0238,-124 64.5661,-77.7111 60.6268,-43.1235"/>
<polygon fill="black" stroke="black" points="59.7029,-35.9414 63.7203,-42.4823 60.1495,-39.4128 60.5961,-42.8842 60.5961,-42.8842 60.5961,-42.8842 60.1495,-39.4128 57.4718,-43.2861 59.7029,-35.9414 59.7029,-35.9414"/>
<text text-anchor="start" x="42" y="-139.4" font-family="Lato" font-size="12.00">a &amp; b</text>
<text text-anchor="start" x="42" y="-127.4" font-family="Lato" font-size="12.00" fill="#1f78b4">⓿</text>
<text text-anchor="start" x="56" y="-127.4" font-family="Lato" font-size="12.00" fill="#ff4da0">❶</text>
</g>
</g>
</svg>
