<?xml version="1.0" encoding="UTF-8" standalone="no"?>
<!DOCTYPE svg PUBLIC "-//W3C//DTD SVG 1.1//EN"
 "http://www.w3.org/Graphics/SVG/1.1/DTD/svg11.dtd">
<!-- Generated by graphviz version 2.38.0 (20140413.2041)
 -->
<!-- Title: G Pages: 1 -->
<svg width="222pt" height="177pt"
 viewBox="0.00 0.00 222.00 177.00" xmlns="http://www.w3.org/2000/svg" xmlns:xlink="http://www.w3.org/1999/xlink">
<g id="graph0" class="graph" transform="scale(1 1) rotate(0) translate(4 173)">
<title>G</title>
<polygon fill="white" stroke="none" points="-4,4 -4,-173 218,-173 218,4 -4,4"/>
<!-- 0 -->
<!-- 1 -->
<g id="node2" class="node"><title>1</title>
<ellipse fill="none" stroke="black" cx="31" cy="-113" rx="27" ry="18"/>
<text text-anchor="middle" x="31" y="-109.3" font-family="Times,serif" font-size="14.00">A1</text>
</g>
<!-- 0&#45;&gt;1 -->
<g id="edge1" class="edge"><title>0&#45;&gt;1</title>
<path fill="none" stroke="black" d="M31,-167.845C31,-166.328 31,-153.903 31,-141.372"/>
<polygon fill="black" stroke="black" points="34.5001,-141.058 31,-131.058 27.5001,-141.058 34.5001,-141.058"/>
</g>
<!-- 1&#45;&gt;1 -->
<g id="edge3" class="edge"><title>1&#45;&gt;1</title>
<path fill="none" stroke="black" d="M56.4435,-119.691C67.0278,-120.152 76,-117.922 76,-113 76,-109.77 72.136,-107.699 66.4881,-106.788"/>
<polygon fill="black" stroke="black" points="66.5987,-103.289 56.4435,-106.309 66.2656,-110.281 66.5987,-103.289"/>
<text text-anchor="middle" x="94.5" y="-109.3" font-family="Times,serif" font-size="14.00">a &amp; !b</text>
</g>
<!-- 2 -->
<g id="node3" class="node"><title>2</title>
<ellipse fill="none" stroke="black" cx="31" cy="-22" rx="27" ry="18"/>
<ellipse fill="none" stroke="black" cx="31" cy="-22" rx="31" ry="22"/>
<text text-anchor="middle" x="31" y="-18.3" font-family="Times,serif" font-size="14.00">B1</text>
</g>
<!-- 1&#45;&gt;2 -->
<g id="edge2" class="edge"><title>1&#45;&gt;2</title>
<path fill="none" stroke="black" d="M31,-94.8399C31,-83.4407 31,-68.1336 31,-54.5781"/>
<polygon fill="black" stroke="black" points="34.5001,-54.1905 31,-44.1905 27.5001,-54.1906 34.5001,-54.1905"/>
<text text-anchor="middle" x="34.5" y="-65.8" font-family="Times,serif" font-size="14.00">b</text>
</g>
<!-- 2&#45;&gt;2 -->
<g id="edge4" class="edge"><title>2&#45;&gt;2</title>
<path fill="none" stroke="black" d="M59.6885,-30.5913C70.7806,-30.9731 80,-28.1094 80,-22 80,-17.8953 75.8382,-15.2556 69.7429,-14.0811"/>
<polygon fill="black" stroke="black" points="69.8998,-10.5839 59.6885,-13.4087 69.4326,-17.5683 69.8998,-10.5839"/>
<text text-anchor="middle" x="83.5" y="-18.3" font-family="Times,serif" font-size="14.00">1</text>
</g>
<!-- 3 -->
<!-- 4 -->
<g id="node5" class="node"><title>4</title>
<ellipse fill="none" stroke="black" cx="158" cy="-113" rx="27" ry="18"/>
<text text-anchor="middle" x="158" y="-109.3" font-family="Times,serif" font-size="14.00">A2</text>
</g>
<!-- 3&#45;&gt;4 -->
<g id="edge5" class="edge"><title>3&#45;&gt;4</title>
<path fill="none" stroke="black" d="M158,-167.845C158,-166.328 158,-153.903 158,-141.372"/>
<polygon fill="black" stroke="black" points="161.5,-141.058 158,-131.058 154.5,-141.058 161.5,-141.058"/>
</g>
<!-- 4&#45;&gt;4 -->
<g id="edge7" class="edge"><title>4&#45;&gt;4</title>
<path fill="none" stroke="black" d="M183.443,-119.691C194.028,-120.152 203,-117.922 203,-113 203,-109.77 199.136,-107.699 193.488,-106.788"/>
<polygon fill="black" stroke="black" points="193.599,-103.289 183.443,-106.309 193.266,-110.281 193.599,-103.289"/>
<text text-anchor="middle" x="206.5" y="-109.3" font-family="Times,serif" font-size="14.00">a</text>
</g>
<!-- 5 -->
<g id="node6" class="node"><title>5</title>
<ellipse fill="none" stroke="black" cx="158" cy="-22" rx="27" ry="18"/>
<ellipse fill="none" stroke="black" cx="158" cy="-22" rx="31" ry="22"/>
<text text-anchor="middle" x="158" y="-18.3" font-family="Times,serif" font-size="14.00">B2</text>
</g>
<!-- 4&#45;&gt;5 -->
<g id="edge6" class="edge"><title>4&#45;&gt;5</title>
<path fill="none" stroke="black" d="M158,-94.8399C158,-83.4407 158,-68.1336 158,-54.5781"/>
<polygon fill="black" stroke="black" points="161.5,-54.1905 158,-44.1905 154.5,-54.1906 161.5,-54.1905"/>
<text text-anchor="middle" x="161.5" y="-65.8" font-family="Times,serif" font-size="14.00">b</text>
</g>
<!-- 5&#45;&gt;5 -->
<g id="edge8" class="edge"><title>5&#45;&gt;5</title>
<path fill="none" stroke="black" d="M186.689,-30.5913C197.781,-30.9731 207,-28.1094 207,-22 207,-17.8953 202.838,-15.2556 196.743,-14.0811"/>
<polygon fill="black" stroke="black" points="196.9,-10.5839 186.689,-13.4087 196.433,-17.5683 196.9,-10.5839"/>
<text text-anchor="middle" x="210.5" y="-18.3" font-family="Times,serif" font-size="14.00">1</text>
</g>
</g>
</svg>
