<?xml version="1.0" encoding="UTF-8" standalone="no"?>
<?xml-stylesheet href="spot.css" type="text/css"?>
<!DOCTYPE svg PUBLIC "-//W3C//DTD SVG 1.1//EN"
 "http://www.w3.org/Graphics/SVG/1.1/DTD/svg11.dtd">
<!-- Generated by graphviz version 2.38.0 (20140413.2041)
 -->
<!-- Title: G Pages: 1 -->
<svg width="282pt" height="216pt"
 viewBox="0.00 0.00 282.08 216.08" xmlns="http://www.w3.org/2000/svg" xmlns:xlink="http://www.w3.org/1999/xlink">
<g id="graph0" class="graph" transform="scale(1 1) rotate(0) translate(4 212.083)">
<title>G</title>
<polygon fill="white" stroke="none" points="-4,4 -4,-212.083 278.083,-212.083 278.083,4 -4,4"/>
<text text-anchor="start" x="93.5416" y="-195.483" font-family="Lato" font-size="12.00">Fin(</text>
<text text-anchor="start" x="113.542" y="-195.483" font-family="Lato" font-size="12.00" fill="#1f78b4">⓿</text>
<text text-anchor="start" x="127.542" y="-195.483" font-family="Lato" font-size="12.00">) &amp; Inf(</text>
<text text-anchor="start" x="162.542" y="-195.483" font-family="Lato" font-size="12.00" fill="#ff4da0">❶</text>
<text text-anchor="start" x="176.542" y="-195.483" font-family="Lato" font-size="12.00">)</text>
<text text-anchor="start" x="113.042" y="-183.483" font-family="Lato" font-size="12.00">[Rabin 1]</text>
<!-- I -->
<!-- 2 -->
<g id="node2" class="node"><title>2</title>
<ellipse fill="#ffffa0" stroke="black" cx="56" cy="-79.0416" rx="18" ry="18"/>
<text text-anchor="middle" x="56" y="-75.9416" font-family="Lato" font-size="12.00">2</text>
</g>
<!-- I&#45;&gt;2 -->
<g id="edge1" class="edge"><title>I&#45;&gt;2</title>
<path fill="none" stroke="black" d="M1.15491,-79.0416C2.79388,-79.0416 17.1543,-79.0416 30.6317,-79.0416"/>
<polygon fill="black" stroke="black" points="37.9419,-79.0416 30.9419,-82.1917 34.4419,-79.0417 30.9419,-79.0417 30.9419,-79.0417 30.9419,-79.0417 34.4419,-79.0417 30.9418,-75.8917 37.9419,-79.0416 37.9419,-79.0416"/>
</g>
<!-- 2&#45;&gt;2 -->
<g id="edge7" class="edge"><title>2&#45;&gt;2</title>
<path fill="none" stroke="black" d="M49.6208,-96.0789C48.3189,-105.9 50.4453,-115.042 56,-115.042 60.166,-115.042 62.4036,-109.899 62.7128,-103.185"/>
<polygon fill="black" stroke="black" points="62.3792,-96.0789 65.8541,-102.923 62.5434,-99.5751 62.7076,-103.071 62.7076,-103.071 62.7076,-103.071 62.5434,-99.5751 59.561,-103.219 62.3792,-96.0789 62.3792,-96.0789"/>
<text text-anchor="start" x="40.5" y="-118.442" font-family="Lato" font-size="12.00">a &amp; !b</text>
</g>
<!-- 0 -->
<g id="node3" class="node"><title>0</title>
<ellipse fill="#ffffa0" stroke="black" cx="168.042" cy="-121.042" rx="24.0833" ry="24.0833"/>
<text text-anchor="start" x="164.542" y="-124.442" font-family="Lato" font-size="12.00">0</text>
<text text-anchor="start" x="161.042" y="-111.442" font-family="Lato" font-size="12.00" fill="#ff4da0">❶</text>
</g>
<!-- 2&#45;&gt;0 -->
<g id="edge5" class="edge"><title>2&#45;&gt;0</title>
<path fill="none" stroke="black" d="M73.237,-85.2389C90.4252,-91.7992 117.888,-102.281 138.666,-110.212"/>
<polygon fill="black" stroke="black" points="145.432,-112.794 137.769,-113.241 142.162,-111.546 138.892,-110.298 138.892,-110.298 138.892,-110.298 142.162,-111.546 140.016,-107.355 145.432,-112.794 145.432,-112.794"/>
<text text-anchor="start" x="105.5" y="-107.442" font-family="Lato" font-size="12.00">b</text>
</g>
<!-- 1 -->
<g id="node5" class="node"><title>1</title>
<ellipse fill="#ffffa0" stroke="black" cx="168.042" cy="-24.0416" rx="24.0833" ry="24.0833"/>
<text text-anchor="start" x="164.542" y="-27.4416" font-family="Lato" font-size="12.00">1</text>
<text text-anchor="start" x="161.042" y="-14.4416" font-family="Lato" font-size="12.00" fill="#1f78b4">⓿</text>
</g>
<!-- 2&#45;&gt;1 -->
<g id="edge6" class="edge"><title>2&#45;&gt;1</title>
<path fill="none" stroke="black" d="M72.3008,-71.3941C89.748,-62.6738 118.605,-48.2507 139.895,-37.6097"/>
<polygon fill="black" stroke="black" points="146.239,-34.4392 141.385,-40.3865 143.108,-36.004 139.977,-37.5688 139.977,-37.5688 139.977,-37.5688 143.108,-36.004 138.569,-34.7512 146.239,-34.4392 146.239,-34.4392"/>
<text text-anchor="start" x="92" y="-65.4416" font-family="Lato" font-size="12.00">!a &amp; !b</text>
</g>
<!-- 0&#45;&gt;0 -->
<g id="edge2" class="edge"><title>0&#45;&gt;0</title>
<path fill="none" stroke="black" d="M159.551,-143.961C158.743,-154.215 161.573,-163.083 168.042,-163.083 172.893,-163.083 175.698,-158.095 176.456,-151.275"/>
<polygon fill="black" stroke="black" points="176.532,-143.961 179.609,-150.994 176.496,-147.461 176.459,-150.961 176.459,-150.961 176.459,-150.961 176.496,-147.461 173.309,-150.928 176.532,-143.961 176.532,-143.961"/>
<text text-anchor="start" x="164.542" y="-166.483" font-family="Lato" font-size="12.00">b</text>
</g>
<!-- 3 -->
<g id="node4" class="node"><title>3</title>
<ellipse fill="#ffffa0" stroke="black" cx="256.083" cy="-121.042" rx="18" ry="18"/>
<text text-anchor="middle" x="256.083" y="-117.942" font-family="Lato" font-size="12.00">3</text>
</g>
<!-- 0&#45;&gt;3 -->
<g id="edge3" class="edge"><title>0&#45;&gt;3</title>
<path fill="none" stroke="black" d="M192.099,-121.042C204.054,-121.042 218.651,-121.042 230.782,-121.042"/>
<polygon fill="black" stroke="black" points="237.97,-121.042 230.97,-124.192 234.47,-121.042 230.97,-121.042 230.97,-121.042 230.97,-121.042 234.47,-121.042 230.97,-117.892 237.97,-121.042 237.97,-121.042"/>
<text text-anchor="start" x="210.083" y="-124.442" font-family="Lato" font-size="12.00">!b</text>
</g>
<!-- 3&#45;&gt;0 -->
<g id="edge8" class="edge"><title>3&#45;&gt;0</title>
<path fill="none" stroke="black" d="M240.303,-112.025C234.262,-108.837 227.062,-105.647 220.083,-104.042 212.139,-102.214 203.678,-103.609 195.977,-106.241"/>
<polygon fill="black" stroke="black" points="189.155,-108.95 194.499,-103.439 192.408,-107.658 195.661,-106.367 195.661,-106.367 195.661,-106.367 192.408,-107.658 196.823,-109.295 189.155,-108.95 189.155,-108.95"/>
<text text-anchor="start" x="211.583" y="-107.442" font-family="Lato" font-size="12.00">b</text>
</g>
<!-- 3&#45;&gt;3 -->
<g id="edge9" class="edge"><title>3&#45;&gt;3</title>
<path fill="none" stroke="black" d="M249.052,-137.706C247.49,-147.667 249.833,-157.042 256.083,-157.042 260.771,-157.042 263.261,-151.768 263.554,-144.929"/>
<polygon fill="black" stroke="black" points="263.115,-137.706 266.684,-144.501 263.327,-141.199 263.54,-144.693 263.54,-144.693 263.54,-144.693 263.327,-141.199 260.395,-144.884 263.115,-137.706 263.115,-137.706"/>
<text text-anchor="start" x="251.083" y="-160.442" font-family="Lato" font-size="12.00">!b</text>
</g>
<!-- 1&#45;&gt;1 -->
<g id="edge4" class="edge"><title>1&#45;&gt;1</title>
<path fill="none" stroke="black" d="M159.551,-46.9613C158.743,-57.2151 161.573,-66.0833 168.042,-66.0833 172.893,-66.0833 175.698,-61.0949 176.456,-54.2749"/>
<polygon fill="black" stroke="black" points="176.532,-46.9613 179.609,-53.9936 176.496,-50.4611 176.459,-53.9609 176.459,-53.9609 176.459,-53.9609 176.496,-50.4611 173.309,-53.9282 176.532,-46.9613 176.532,-46.9613"/>
<text text-anchor="middle" x="168.042" y="-69.4833" font-family="Lato" font-size="12.00">1</text>
</g>
</g>
</svg>
