<?xml version="1.0" encoding="UTF-8" standalone="no"?>
<?xml-stylesheet href="spot.css" type="text/css"?>
<!DOCTYPE svg PUBLIC "-//W3C//DTD SVG 1.1//EN"
 "http://www.w3.org/Graphics/SVG/1.1/DTD/svg11.dtd">
<!-- Generated by graphviz version 2.38.0 (20140413.2041)
 -->
<!-- Title: G Pages: 1 -->
<svg width="161pt" height="245pt"
 viewBox="0.00 0.00 161.00 245.00" xmlns="http://www.w3.org/2000/svg" xmlns:xlink="http://www.w3.org/1999/xlink">
<g id="graph0" class="graph" transform="scale(1 1) rotate(0) translate(4 241)">
<title>G</title>
<polygon fill="white" stroke="none" points="-4,4 -4,-241 157,-241 157,4 -4,4"/>
<!-- I -->
<!-- 0 -->
<g id="node2" class="node"><title>0</title>
<ellipse fill="#ffffa0" stroke="black" cx="56" cy="-103" rx="18" ry="18"/>
<text text-anchor="middle" x="56" y="-99.9" font-family="Lato" font-size="12.00">0</text>
</g>
<!-- I&#45;&gt;0 -->
<g id="edge1" class="edge"><title>I&#45;&gt;0</title>
<path fill="none" stroke="black" d="M1.15491,-103C2.79388,-103 17.1543,-103 30.6317,-103"/>
<polygon fill="black" stroke="black" points="37.9419,-103 30.9419,-106.15 34.4419,-103 30.9419,-103 30.9419,-103 30.9419,-103 34.4419,-103 30.9418,-99.8501 37.9419,-103 37.9419,-103"/>
</g>
<!-- 1 -->
<g id="node3" class="node"><title>1</title>
<ellipse fill="#ffffa0" stroke="black" cx="135" cy="-188" rx="18" ry="18"/>
<text text-anchor="middle" x="135" y="-184.9" font-family="Lato" font-size="12.00">1</text>
</g>
<!-- 0&#45;&gt;1 -->
<g id="edge2" class="edge"><title>0&#45;&gt;1</title>
<path fill="none" stroke="black" d="M68.6946,-115.91C81.6973,-130.263 102.798,-153.556 117.482,-169.766"/>
<polygon fill="black" stroke="black" points="122.195,-174.969 115.161,-171.896 119.845,-172.375 117.496,-169.781 117.496,-169.781 117.496,-169.781 119.845,-172.375 119.83,-167.666 122.195,-174.969 122.195,-174.969"/>
<text text-anchor="start" x="92" y="-151.4" font-family="Lato" font-size="12.00">a</text>
</g>
<!-- 2 -->
<g id="node4" class="node"><title>2</title>
<ellipse fill="#ffffa0" stroke="black" cx="135" cy="-103" rx="18" ry="18"/>
<text text-anchor="middle" x="135" y="-99.9" font-family="Lato" font-size="12.00">2</text>
</g>
<!-- 0&#45;&gt;2 -->
<g id="edge3" class="edge"><title>0&#45;&gt;2</title>
<path fill="none" stroke="black" d="M74.0888,-103C84.5562,-103 98.1196,-103 109.693,-103"/>
<polygon fill="black" stroke="black" points="116.959,-103 109.959,-106.15 113.459,-103 109.959,-103 109.959,-103 109.959,-103 113.459,-103 109.959,-99.8501 116.959,-103 116.959,-103"/>
<text text-anchor="start" x="92" y="-106.4" font-family="Lato" font-size="12.00">b</text>
</g>
<!-- 3 -->
<g id="node5" class="node"><title>3</title>
<ellipse fill="#ffffa0" stroke="black" cx="135" cy="-18" rx="18" ry="18"/>
<text text-anchor="middle" x="135" y="-14.9" font-family="Lato" font-size="12.00">3</text>
</g>
<!-- 0&#45;&gt;3 -->
<g id="edge4" class="edge"><title>0&#45;&gt;3</title>
<path fill="none" stroke="black" d="M68.6946,-90.0903C81.6973,-75.7367 102.798,-52.4437 117.482,-36.2338"/>
<polygon fill="black" stroke="black" points="122.195,-31.0312 119.83,-38.3339 119.845,-33.6251 117.496,-36.219 117.496,-36.219 117.496,-36.219 119.845,-33.6251 115.161,-34.1042 122.195,-31.0312 122.195,-31.0312"/>
<text text-anchor="start" x="92" y="-66.4" font-family="Lato" font-size="12.00">c</text>
</g>
<!-- 1&#45;&gt;1 -->
<g id="edge5" class="edge"><title>1&#45;&gt;1</title>
<path fill="none" stroke="black" d="M128.266,-205.037C126.892,-214.858 129.137,-224 135,-224 139.397,-224 141.759,-218.858 142.086,-212.143"/>
<polygon fill="black" stroke="black" points="141.734,-205.037 145.226,-211.873 141.907,-208.533 142.08,-212.029 142.08,-212.029 142.08,-212.029 141.907,-208.533 138.934,-212.185 141.734,-205.037 141.734,-205.037"/>
<text text-anchor="start" x="131.5" y="-227.4" font-family="Lato" font-size="12.00">a</text>
</g>
<!-- 2&#45;&gt;2 -->
<g id="edge6" class="edge"><title>2&#45;&gt;2</title>
<path fill="none" stroke="black" d="M128.266,-120.037C126.892,-129.858 129.137,-139 135,-139 139.397,-139 141.759,-133.858 142.086,-127.143"/>
<polygon fill="black" stroke="black" points="141.734,-120.037 145.226,-126.873 141.907,-123.533 142.08,-127.029 142.08,-127.029 142.08,-127.029 141.907,-123.533 138.934,-127.185 141.734,-120.037 141.734,-120.037"/>
<text text-anchor="start" x="131.5" y="-142.4" font-family="Lato" font-size="12.00">b</text>
</g>
<!-- 3&#45;&gt;3 -->
<g id="edge7" class="edge"><title>3&#45;&gt;3</title>
<path fill="none" stroke="black" d="M128.266,-35.0373C126.892,-44.8579 129.137,-54 135,-54 139.397,-54 141.759,-48.8576 142.086,-42.1433"/>
<polygon fill="black" stroke="black" points="141.734,-35.0373 145.226,-41.8728 141.907,-38.533 142.08,-42.0287 142.08,-42.0287 142.08,-42.0287 141.907,-38.533 138.934,-42.1847 141.734,-35.0373 141.734,-35.0373"/>
<text text-anchor="start" x="131.5" y="-57.4" font-family="Lato" font-size="12.00">c</text>
</g>
</g>
</svg>
