<?xml version="1.0" encoding="UTF-8" standalone="no"?>
<?xml-stylesheet href="spot.css" type="text/css"?>
<!DOCTYPE svg PUBLIC "-//W3C//DTD SVG 1.1//EN"
 "http://www.w3.org/Graphics/SVG/1.1/DTD/svg11.dtd">
<!-- Generated by graphviz version 2.38.0 (20140413.2041)
 -->
<!-- Title: G Pages: 1 -->
<svg width="342pt" height="399pt"
 viewBox="0.00 0.00 342.00 398.59" xmlns="http://www.w3.org/2000/svg" xmlns:xlink="http://www.w3.org/1999/xlink">
<g id="graph0" class="graph" transform="scale(1 1) rotate(0) translate(4 394.595)">
<title>G</title>
<polygon fill="white" stroke="none" points="-4,4 -4,-394.595 338,-394.595 338,4 -4,4"/>
<!-- I -->
<!-- 6 -->
<g id="node2" class="node"><title>6</title>
<ellipse fill="#ffffa0" stroke="black" cx="60" cy="-209.595" rx="18" ry="18"/>
<ellipse fill="none" stroke="black" cx="60" cy="-209.595" rx="22" ry="22"/>
<text text-anchor="middle" x="60" y="-206.495" font-family="Lato" font-size="12.00">6</text>
</g>
<!-- I&#45;&gt;6 -->
<g id="edge1" class="edge"><title>I&#45;&gt;6</title>
<path fill="none" stroke="black" d="M1.16638,-209.595C2.84121,-209.595 16.884,-209.595 30.7112,-209.595"/>
<polygon fill="black" stroke="black" points="37.8555,-209.595 30.8556,-212.745 34.3555,-209.595 30.8555,-209.595 30.8555,-209.595 30.8555,-209.595 34.3555,-209.595 30.8555,-206.445 37.8555,-209.595 37.8555,-209.595"/>
</g>
<!-- 6&#45;&gt;6 -->
<g id="edge20" class="edge"><title>6&#45;&gt;6</title>
<path fill="none" stroke="black" d="M52.6831,-230.585C51.7798,-240.682 54.2188,-249.595 60,-249.595 64.3359,-249.595 66.7918,-244.581 67.3677,-237.815"/>
<polygon fill="black" stroke="black" points="67.3169,-230.585 70.5161,-237.563 67.3415,-234.085 67.3662,-237.585 67.3662,-237.585 67.3662,-237.585 67.3415,-234.085 64.2163,-237.607 67.3169,-230.585 67.3169,-230.585"/>
<text text-anchor="start" x="36" y="-252.995" font-family="Lato" font-size="12.00">a &amp; b &amp; c</text>
</g>
<!-- 0 -->
<g id="node3" class="node"><title>0</title>
<ellipse fill="#ffffa0" stroke="black" cx="312" cy="-337.595" rx="18" ry="18"/>
<ellipse fill="none" stroke="black" cx="312" cy="-337.595" rx="22" ry="22"/>
<text text-anchor="middle" x="312" y="-334.495" font-family="Lato" font-size="12.00">0</text>
</g>
<!-- 6&#45;&gt;0 -->
<g id="edge14" class="edge"><title>6&#45;&gt;0</title>
<path fill="none" stroke="black" d="M68.6948,-229.923C82.6479,-263.217 115.713,-327.667 169,-347.595 206.985,-361.8 254.617,-353.685 283.922,-346.028"/>
<polygon fill="black" stroke="black" points="290.961,-344.105 285.039,-348.989 287.585,-345.028 284.208,-345.95 284.208,-345.95 284.208,-345.95 287.585,-345.028 283.378,-342.912 290.961,-344.105 290.961,-344.105"/>
<text text-anchor="start" x="169" y="-357.995" font-family="Lato" font-size="12.00">!a &amp; !b &amp; c</text>
</g>
<!-- 1 -->
<g id="node4" class="node"><title>1</title>
<ellipse fill="#ffffa0" stroke="black" cx="196" cy="-285.595" rx="18" ry="18"/>
<ellipse fill="none" stroke="black" cx="196" cy="-285.595" rx="22" ry="22"/>
<text text-anchor="middle" x="196" y="-282.495" font-family="Lato" font-size="12.00">1</text>
</g>
<!-- 6&#45;&gt;1 -->
<g id="edge15" class="edge"><title>6&#45;&gt;1</title>
<path fill="none" stroke="black" d="M75.4412,-225.782C82.3564,-232.845 91.0673,-240.814 100,-246.595 121.29,-260.371 148.247,-270.877 168.003,-277.495"/>
<polygon fill="black" stroke="black" points="174.669,-279.673 167.037,-280.494 171.342,-278.586 168.015,-277.499 168.015,-277.499 168.015,-277.499 171.342,-278.586 168.993,-274.505 174.669,-279.673 174.669,-279.673"/>
<text text-anchor="start" x="100" y="-273.995" font-family="Lato" font-size="12.00">!a &amp; b &amp; c</text>
</g>
<!-- 2 -->
<g id="node5" class="node"><title>2</title>
<ellipse fill="#ffffa0" stroke="black" cx="312" cy="-232.595" rx="18" ry="18"/>
<ellipse fill="none" stroke="black" cx="312" cy="-232.595" rx="22" ry="22"/>
<text text-anchor="middle" x="312" y="-229.495" font-family="Lato" font-size="12.00">2</text>
</g>
<!-- 6&#45;&gt;2 -->
<g id="edge16" class="edge"><title>6&#45;&gt;2</title>
<path fill="none" stroke="black" d="M82.3149,-211.555C127.333,-215.697 232.107,-225.336 282.684,-229.989"/>
<polygon fill="black" stroke="black" points="289.739,-230.639 282.48,-233.134 286.254,-230.318 282.769,-229.997 282.769,-229.997 282.769,-229.997 286.254,-230.318 283.057,-226.86 289.739,-230.639 289.739,-230.639"/>
<text text-anchor="start" x="169" y="-226.995" font-family="Lato" font-size="12.00">!a &amp; b &amp; !c</text>
</g>
<!-- 3 -->
<g id="node6" class="node"><title>3</title>
<ellipse fill="#ffffa0" stroke="black" cx="312" cy="-50.5945" rx="18" ry="18"/>
<ellipse fill="none" stroke="black" cx="312" cy="-50.5945" rx="22" ry="22"/>
<text text-anchor="middle" x="312" y="-47.4945" font-family="Lato" font-size="12.00">3</text>
</g>
<!-- 6&#45;&gt;3 -->
<g id="edge17" class="edge"><title>6&#45;&gt;3</title>
<path fill="none" stroke="black" d="M64.1749,-187.916C72.1423,-142.817 97.7195,-40.2882 169,-6.59452 209.083,12.3523 259.311,-13.9401 288.021,-33.29"/>
<polygon fill="black" stroke="black" points="293.809,-37.2949 286.261,-35.9025 290.931,-35.3035 288.053,-33.312 288.053,-33.312 288.053,-33.312 290.931,-35.3035 289.845,-30.7216 293.809,-37.2949 293.809,-37.2949"/>
<text text-anchor="start" x="169" y="-9.99452" font-family="Lato" font-size="12.00">a &amp; !b &amp; !c</text>
</g>
<!-- 4 -->
<g id="node7" class="node"><title>4</title>
<ellipse fill="#ffffa0" stroke="black" cx="196" cy="-143.595" rx="18" ry="18"/>
<ellipse fill="none" stroke="black" cx="196" cy="-143.595" rx="22" ry="22"/>
<text text-anchor="middle" x="196" y="-140.495" font-family="Lato" font-size="12.00">4</text>
</g>
<!-- 6&#45;&gt;4 -->
<g id="edge18" class="edge"><title>6&#45;&gt;4</title>
<path fill="none" stroke="black" d="M80.1989,-200.138C103.682,-188.572 143.513,-168.954 169.536,-156.136"/>
<polygon fill="black" stroke="black" points="175.837,-153.033 170.949,-158.952 172.697,-154.58 169.557,-156.126 169.557,-156.126 169.557,-156.126 172.697,-154.58 168.165,-153.3 175.837,-153.033 175.837,-153.033"/>
<text text-anchor="start" x="100" y="-192.995" font-family="Lato" font-size="12.00">a &amp; !b &amp; c</text>
</g>
<!-- 5 -->
<g id="node8" class="node"><title>5</title>
<ellipse fill="#ffffa0" stroke="black" cx="196" cy="-50.5945" rx="18" ry="18"/>
<ellipse fill="none" stroke="black" cx="196" cy="-50.5945" rx="22" ry="22"/>
<text text-anchor="middle" x="196" y="-47.4945" font-family="Lato" font-size="12.00">5</text>
</g>
<!-- 6&#45;&gt;5 -->
<g id="edge19" class="edge"><title>6&#45;&gt;5</title>
<path fill="none" stroke="black" d="M71.9165,-190.86C79.3016,-178.702 89.5771,-162.735 100,-149.595 123.373,-120.128 154.052,-89.35 174.134,-70.0873"/>
<polygon fill="black" stroke="black" points="179.252,-65.2082 176.359,-72.3185 176.718,-67.6235 174.185,-70.0387 174.185,-70.0387 174.185,-70.0387 176.718,-67.6235 172.012,-67.7589 179.252,-65.2082 179.252,-65.2082"/>
<text text-anchor="start" x="100" y="-152.995" font-family="Lato" font-size="12.00">a &amp; b &amp; !c</text>
</g>
<!-- 0&#45;&gt;0 -->
<g id="edge2" class="edge"><title>0&#45;&gt;0</title>
<path fill="none" stroke="black" d="M302.293,-357.352C300.643,-367.944 303.879,-377.595 312,-377.595 318.218,-377.595 321.572,-371.938 322.062,-364.532"/>
<polygon fill="black" stroke="black" points="321.707,-357.352 325.199,-364.188 321.88,-360.848 322.053,-364.343 322.053,-364.343 322.053,-364.343 321.88,-360.848 318.907,-364.499 321.707,-357.352 321.707,-357.352"/>
<text text-anchor="start" x="308.5" y="-380.995" font-family="Lato" font-size="12.00">c</text>
</g>
<!-- 1&#45;&gt;0 -->
<g id="edge3" class="edge"><title>1&#45;&gt;0</title>
<path fill="none" stroke="black" d="M213.841,-298.801C221.753,-304.544 231.516,-310.996 241,-315.595 254.443,-322.113 270.261,-327.276 283.456,-330.958"/>
<polygon fill="black" stroke="black" points="290.485,-332.85 282.906,-334.072 287.105,-331.94 283.725,-331.03 283.725,-331.03 283.725,-331.03 287.105,-331.94 284.544,-327.988 290.485,-332.85 290.485,-332.85"/>
<text text-anchor="start" x="241" y="-329.995" font-family="Lato" font-size="12.00">!b &amp; c</text>
</g>
<!-- 1&#45;&gt;1 -->
<g id="edge4" class="edge"><title>1&#45;&gt;1</title>
<path fill="none" stroke="black" d="M185.288,-304.939C183.289,-315.692 186.859,-325.595 196,-325.595 202.998,-325.595 206.732,-319.79 207.2,-312.243"/>
<polygon fill="black" stroke="black" points="206.712,-304.939 210.321,-311.713 206.945,-308.431 207.178,-311.923 207.178,-311.923 207.178,-311.923 206.945,-308.431 204.035,-312.133 206.712,-304.939 206.712,-304.939"/>
<text text-anchor="start" x="182" y="-328.995" font-family="Lato" font-size="12.00">b &amp; c</text>
</g>
<!-- 1&#45;&gt;2 -->
<g id="edge5" class="edge"><title>1&#45;&gt;2</title>
<path fill="none" stroke="black" d="M217.92,-288.132C233.663,-289.079 255.307,-288.264 272,-279.595 281.786,-274.512 290.058,-265.802 296.43,-257.251"/>
<polygon fill="black" stroke="black" points="300.533,-251.403 299.091,-258.943 298.523,-254.268 296.513,-257.133 296.513,-257.133 296.513,-257.133 298.523,-254.268 293.934,-255.324 300.533,-251.403 300.533,-251.403"/>
<text text-anchor="start" x="241" y="-290.995" font-family="Lato" font-size="12.00">b &amp; !c</text>
</g>
<!-- 2&#45;&gt;2 -->
<g id="edge6" class="edge"><title>2&#45;&gt;2</title>
<path fill="none" stroke="black" d="M302.293,-252.352C300.643,-262.944 303.879,-272.595 312,-272.595 318.218,-272.595 321.572,-266.938 322.062,-259.532"/>
<polygon fill="black" stroke="black" points="321.707,-252.352 325.199,-259.188 321.88,-255.848 322.053,-259.343 322.053,-259.343 322.053,-259.343 321.88,-255.848 318.907,-259.499 321.707,-252.352 321.707,-252.352"/>
<text text-anchor="start" x="308.5" y="-275.995" font-family="Lato" font-size="12.00">b</text>
</g>
<!-- 3&#45;&gt;3 -->
<g id="edge7" class="edge"><title>3&#45;&gt;3</title>
<path fill="none" stroke="black" d="M302.293,-70.352C300.643,-80.9445 303.879,-90.5945 312,-90.5945 318.218,-90.5945 321.572,-84.9378 322.062,-77.5324"/>
<polygon fill="black" stroke="black" points="321.707,-70.352 325.199,-77.188 321.88,-73.8477 322.053,-77.3435 322.053,-77.3435 322.053,-77.3435 321.88,-73.8477 318.907,-77.499 321.707,-70.352 321.707,-70.352"/>
<text text-anchor="start" x="308.5" y="-93.9945" font-family="Lato" font-size="12.00">a</text>
</g>
<!-- 4&#45;&gt;0 -->
<g id="edge8" class="edge"><title>4&#45;&gt;0</title>
<path fill="none" stroke="black" d="M208.909,-161.455C224.115,-184.489 250.973,-225.951 272,-262.595 281.248,-278.711 290.888,-297.231 298.27,-311.835"/>
<polygon fill="black" stroke="black" points="301.493,-318.247 295.534,-313.407 299.921,-315.119 298.349,-311.992 298.349,-311.992 298.349,-311.992 299.921,-315.119 301.163,-310.577 301.493,-318.247 301.493,-318.247"/>
<text text-anchor="start" x="241.5" y="-265.995" font-family="Lato" font-size="12.00">!a &amp; c</text>
</g>
<!-- 4&#45;&gt;3 -->
<g id="edge9" class="edge"><title>4&#45;&gt;3</title>
<path fill="none" stroke="black" d="M217.515,-137.769C233.654,-132.418 256.01,-123.232 272,-109.595 282.72,-100.451 291.666,-87.6506 298.274,-76.3082"/>
<polygon fill="black" stroke="black" points="301.701,-70.1894 301.029,-77.836 299.991,-73.2431 298.28,-76.2967 298.28,-76.2967 298.28,-76.2967 299.991,-73.2431 295.532,-74.7574 301.701,-70.1894 301.701,-70.1894"/>
<text text-anchor="start" x="241.5" y="-131.995" font-family="Lato" font-size="12.00">a &amp; !c</text>
</g>
<!-- 4&#45;&gt;4 -->
<g id="edge10" class="edge"><title>4&#45;&gt;4</title>
<path fill="none" stroke="black" d="M185.288,-162.939C183.289,-173.692 186.859,-183.595 196,-183.595 202.998,-183.595 206.732,-177.79 207.2,-170.243"/>
<polygon fill="black" stroke="black" points="206.712,-162.939 210.321,-169.713 206.945,-166.431 207.178,-169.923 207.178,-169.923 207.178,-169.923 206.945,-166.431 204.035,-170.133 206.712,-162.939 206.712,-162.939"/>
<text text-anchor="start" x="182.5" y="-186.995" font-family="Lato" font-size="12.00">a &amp; c</text>
</g>
<!-- 5&#45;&gt;2 -->
<g id="edge11" class="edge"><title>5&#45;&gt;2</title>
<path fill="none" stroke="black" d="M217.138,-56.9265C234.172,-63.2959 257.985,-74.7583 272,-92.5945 297.472,-125.012 306.316,-173.083 309.382,-203.618"/>
<polygon fill="black" stroke="black" points="310.013,-210.607 306.246,-203.918 309.698,-207.121 309.383,-203.635 309.383,-203.635 309.383,-203.635 309.698,-207.121 312.52,-203.351 310.013,-210.607 310.013,-210.607"/>
<text text-anchor="start" x="241" y="-95.9945" font-family="Lato" font-size="12.00">!a &amp; b</text>
</g>
<!-- 5&#45;&gt;3 -->
<g id="edge12" class="edge"><title>5&#45;&gt;3</title>
<path fill="none" stroke="black" d="M218.175,-50.5945C236.412,-50.5945 262.876,-50.5945 282.885,-50.5945"/>
<polygon fill="black" stroke="black" points="289.938,-50.5945 282.938,-53.7446 286.438,-50.5946 282.938,-50.5946 282.938,-50.5946 282.938,-50.5946 286.438,-50.5946 282.938,-47.4446 289.938,-50.5945 289.938,-50.5945"/>
<text text-anchor="start" x="241" y="-53.9945" font-family="Lato" font-size="12.00">a &amp; !b</text>
</g>
<!-- 5&#45;&gt;5 -->
<g id="edge13" class="edge"><title>5&#45;&gt;5</title>
<path fill="none" stroke="black" d="M185.288,-69.9388C183.289,-80.6922 186.859,-90.5945 196,-90.5945 202.998,-90.5945 206.732,-84.7899 207.2,-77.243"/>
<polygon fill="black" stroke="black" points="206.712,-69.9388 210.321,-76.7133 206.945,-73.4311 207.178,-76.9233 207.178,-76.9233 207.178,-76.9233 206.945,-73.4311 204.035,-77.1333 206.712,-69.9388 206.712,-69.9388"/>
<text text-anchor="start" x="182" y="-93.9945" font-family="Lato" font-size="12.00">a &amp; b</text>
</g>
</g>
</svg>
