<?xml version="1.0" encoding="UTF-8" standalone="no"?>
<?xml-stylesheet href="spot.css" type="text/css"?>
<!DOCTYPE svg PUBLIC "-//W3C//DTD SVG 1.1//EN"
 "http://www.w3.org/Graphics/SVG/1.1/DTD/svg11.dtd">
<!-- Generated by graphviz version 2.38.0 (20140413.2041)
 -->
<!-- Title: G Pages: 1 -->
<svg width="394pt" height="298pt"
 viewBox="0.00 0.00 394.00 298.05" xmlns="http://www.w3.org/2000/svg" xmlns:xlink="http://www.w3.org/1999/xlink">
<g id="graph0" class="graph" transform="scale(1 1) rotate(0) translate(4 294.052)">
<title>G</title>
<polygon fill="white" stroke="none" points="-4,4 -4,-294.052 390,-294.052 390,4 -4,4"/>
<!-- I -->
<!-- 0 -->
<g id="node2" class="node"><title>0</title>
<ellipse fill="#ffffa0" stroke="black" cx="56" cy="-66.0515" rx="18" ry="18"/>
<text text-anchor="middle" x="56" y="-62.9515" font-family="Lato" font-size="12.00">0</text>
</g>
<!-- I&#45;&gt;0 -->
<g id="edge1" class="edge"><title>I&#45;&gt;0</title>
<path fill="none" stroke="black" d="M1.15491,-66.0515C2.79388,-66.0515 17.1543,-66.0515 30.6317,-66.0515"/>
<polygon fill="black" stroke="black" points="37.9419,-66.0515 30.9419,-69.2016 34.4419,-66.0516 30.9419,-66.0516 30.9419,-66.0516 30.9419,-66.0516 34.4419,-66.0516 30.9418,-62.9016 37.9419,-66.0515 37.9419,-66.0515"/>
</g>
<!-- 0&#45;&gt;0 -->
<g id="edge2" class="edge"><title>0&#45;&gt;0</title>
<path fill="none" stroke="black" d="M49.6208,-83.0888C48.3189,-92.9094 50.4453,-102.052 56,-102.052 60.166,-102.052 62.4036,-96.9091 62.7128,-90.1948"/>
<polygon fill="black" stroke="black" points="62.3792,-83.0888 65.8541,-89.9334 62.5434,-86.585 62.7076,-90.0811 62.7076,-90.0811 62.7076,-90.0811 62.5434,-86.585 59.561,-90.2289 62.3792,-83.0888 62.3792,-83.0888"/>
<text text-anchor="start" x="40.5" y="-105.452" font-family="Lato" font-size="12.00">a &amp; !b</text>
</g>
<!-- 1 -->
<g id="node3" class="node"><title>1</title>
<ellipse fill="#ffffa0" stroke="black" cx="162" cy="-177.052" rx="18" ry="18"/>
<text text-anchor="middle" x="162" y="-173.952" font-family="Lato" font-size="12.00">1</text>
</g>
<!-- 0&#45;&gt;1 -->
<g id="edge3" class="edge"><title>0&#45;&gt;1</title>
<path fill="none" stroke="black" d="M62.5497,-82.954C68.138,-97.9842 77.9497,-119.87 92,-135.052 105.051,-149.154 123.898,-160.192 138.597,-167.406"/>
<polygon fill="black" stroke="black" points="145.023,-170.449 137.349,-170.3 141.86,-168.951 138.697,-167.453 138.697,-167.453 138.697,-167.453 141.86,-168.951 140.045,-164.606 145.023,-170.449 145.023,-170.449"/>
<text text-anchor="start" x="92" y="-163.452" font-family="Lato" font-size="12.00">!a &amp; !b</text>
</g>
<!-- 0&#45;&gt;1 -->
<g id="edge4" class="edge"><title>0&#45;&gt;1</title>
<path fill="none" stroke="black" d="M73.0471,-71.8567C88.3166,-78.0664 111.11,-89.2092 126,-105.052 138.877,-118.752 147.918,-138.079 153.582,-153.26"/>
<polygon fill="black" stroke="black" points="155.948,-159.908 150.633,-154.369 154.774,-156.61 153.601,-153.313 153.601,-153.313 153.601,-153.313 154.774,-156.61 156.568,-152.257 155.948,-159.908 155.948,-159.908"/>
<text text-anchor="start" x="93.5" y="-121.452" font-family="Lato" font-size="12.00">!a &amp; b</text>
<text text-anchor="start" x="102" y="-108.452" font-family="Lato" font-size="12.00" fill="#1f78b4">⓿</text>
</g>
<!-- 3 -->
<g id="node4" class="node"><title>3</title>
<ellipse fill="#ffffa0" stroke="black" cx="268" cy="-109.052" rx="18" ry="18"/>
<text text-anchor="middle" x="268" y="-105.952" font-family="Lato" font-size="12.00">3</text>
</g>
<!-- 0&#45;&gt;3 -->
<g id="edge5" class="edge"><title>0&#45;&gt;3</title>
<path fill="none" stroke="black" d="M73.8616,-62.58C106.211,-56.7682 178.517,-47.9284 232,-72.0515 239.899,-75.6143 246.88,-81.8716 252.487,-88.2382"/>
<polygon fill="black" stroke="black" points="257.238,-94.0416 250.366,-90.6204 255.021,-91.3334 252.804,-88.6251 252.804,-88.6251 252.804,-88.6251 255.021,-91.3334 255.241,-86.6297 257.238,-94.0416 257.238,-94.0416"/>
<text text-anchor="start" x="148" y="-74.4515" font-family="Lato" font-size="12.00">a &amp; b</text>
<text text-anchor="start" x="155" y="-61.4515" font-family="Lato" font-size="12.00" fill="#1f78b4">⓿</text>
</g>
<!-- 1&#45;&gt;3 -->
<g id="edge8" class="edge"><title>1&#45;&gt;3</title>
<path fill="none" stroke="black" d="M179.912,-174.942C194.745,-172.423 216.331,-167.075 232,-156.052 241.33,-149.488 249.201,-139.658 255.102,-130.682"/>
<polygon fill="black" stroke="black" points="258.866,-124.654 257.83,-132.26 257.012,-127.623 255.158,-130.592 255.158,-130.592 255.158,-130.592 257.012,-127.623 252.486,-128.923 258.866,-124.654 258.866,-124.654"/>
<text text-anchor="start" x="198" y="-173.452" font-family="Lato" font-size="12.00">!a &amp; !b</text>
</g>
<!-- 1&#45;&gt;3 -->
<g id="edge9" class="edge"><title>1&#45;&gt;3</title>
<path fill="none" stroke="black" d="M170.181,-160.881C176.064,-149.473 185.462,-134.73 198,-126.052 211.217,-116.903 228.853,-112.663 242.987,-110.705"/>
<polygon fill="black" stroke="black" points="250.016,-109.876 243.434,-113.825 246.541,-110.286 243.065,-110.696 243.065,-110.696 243.065,-110.696 246.541,-110.286 242.695,-107.568 250.016,-109.876 250.016,-109.876"/>
<text text-anchor="start" x="199.5" y="-142.452" font-family="Lato" font-size="12.00">!a &amp; b</text>
<text text-anchor="start" x="208" y="-129.452" font-family="Lato" font-size="12.00" fill="#1f78b4">⓿</text>
</g>
<!-- 2 -->
<g id="node5" class="node"><title>2</title>
<ellipse fill="#ffffa0" stroke="black" cx="368" cy="-172.052" rx="18" ry="18"/>
<text text-anchor="middle" x="368" y="-168.952" font-family="Lato" font-size="12.00">2</text>
</g>
<!-- 1&#45;&gt;2 -->
<g id="edge6" class="edge"><title>1&#45;&gt;2</title>
<path fill="none" stroke="black" d="M166.279,-194.876C170.526,-213.009 179.674,-240.702 198,-257.052 227.664,-283.515 246.803,-279.674 286,-273.052 307.343,-269.446 316.273,-271.924 332,-257.052 348.891,-241.079 357.891,-215.764 362.512,-196.909"/>
<polygon fill="black" stroke="black" points="364.129,-189.779 365.653,-197.302 363.355,-193.192 362.581,-196.605 362.581,-196.605 362.581,-196.605 363.355,-193.192 359.509,-195.909 364.129,-189.779 364.129,-189.779"/>
<text text-anchor="start" x="252.5" y="-280.452" font-family="Lato" font-size="12.00">a &amp; !b</text>
</g>
<!-- 1&#45;&gt;2 -->
<g id="edge7" class="edge"><title>1&#45;&gt;2</title>
<path fill="none" stroke="black" d="M171.068,-192.833C177.038,-202.646 186.177,-214.431 198,-220.052 211.647,-226.54 216.916,-220.953 232,-220.052 276.684,-217.38 291.879,-227.902 332,-208.052 339.657,-204.263 346.58,-198.1 352.21,-191.935"/>
<polygon fill="black" stroke="black" points="357,-186.341 354.84,-193.706 354.724,-188.999 352.447,-191.658 352.447,-191.658 352.447,-191.658 354.724,-188.999 350.055,-189.609 357,-186.341 357,-186.341"/>
<text text-anchor="start" x="254" y="-236.452" font-family="Lato" font-size="12.00">a &amp; b</text>
<text text-anchor="start" x="261" y="-223.452" font-family="Lato" font-size="12.00" fill="#1f78b4">⓿</text>
</g>
<!-- 3&#45;&gt;0 -->
<g id="edge13" class="edge"><title>3&#45;&gt;0</title>
<path fill="none" stroke="black" d="M258.769,-93.1484C252.494,-82.0949 243.064,-67.525 232,-57.0515 212.46,-38.5547 205.94,-33.197 180,-26.0515 143.434,-15.9791 101.575,-36.611 77.3257,-51.8151"/>
<polygon fill="black" stroke="black" points="71.263,-55.7353 75.4307,-49.2892 74.2021,-53.8348 77.1412,-51.9344 77.1412,-51.9344 77.1412,-51.9344 74.2021,-53.8348 78.8516,-54.5796 71.263,-55.7353 71.263,-55.7353"/>
<text text-anchor="start" x="146.5" y="-42.4515" font-family="Lato" font-size="12.00">a &amp; !b</text>
<text text-anchor="start" x="155" y="-29.4515" font-family="Lato" font-size="12.00" fill="#1f78b4">⓿</text>
</g>
<!-- 3&#45;&gt;1 -->
<g id="edge14" class="edge"><title>3&#45;&gt;1</title>
<path fill="none" stroke="black" d="M254.926,-96.5199C248.677,-90.9382 240.571,-84.9734 232,-82.0515 217.697,-77.1758 210.395,-73.4085 198,-82.0515 175.59,-97.6774 167.491,-129.349 164.585,-151.821"/>
<polygon fill="black" stroke="black" points="163.786,-159.053 161.424,-151.749 164.17,-155.574 164.555,-152.095 164.555,-152.095 164.555,-152.095 164.17,-155.574 167.686,-152.442 163.786,-159.053 163.786,-159.053"/>
<text text-anchor="start" x="198" y="-98.4515" font-family="Lato" font-size="12.00">!a &amp; !b</text>
<text text-anchor="start" x="208" y="-85.4515" font-family="Lato" font-size="12.00" fill="#1f78b4">⓿</text>
</g>
<!-- 3&#45;&gt;3 -->
<g id="edge16" class="edge"><title>3&#45;&gt;3</title>
<path fill="none" stroke="black" d="M259.367,-124.968C257.114,-135.202 259.992,-145.052 268,-145.052 274.131,-145.052 277.255,-139.278 277.372,-131.978"/>
<polygon fill="black" stroke="black" points="276.633,-124.968 280.499,-131.599 277,-128.448 277.367,-131.929 277.367,-131.929 277.367,-131.929 277,-128.448 274.234,-132.259 276.633,-124.968 276.633,-124.968"/>
<text text-anchor="start" x="252.5" y="-148.452" font-family="Lato" font-size="12.00">!a &amp; b</text>
</g>
<!-- 3&#45;&gt;2 -->
<g id="edge15" class="edge"><title>3&#45;&gt;2</title>
<path fill="none" stroke="black" d="M286.09,-107.094C299.566,-106.409 318.306,-107.439 332,-116.052 343.926,-123.552 352.467,-136.755 358.125,-148.458"/>
<polygon fill="black" stroke="black" points="361.127,-155.12 355.379,-150.032 359.689,-151.929 358.251,-148.738 358.251,-148.738 358.251,-148.738 359.689,-151.929 361.123,-147.444 361.127,-155.12 361.127,-155.12"/>
<text text-anchor="start" x="304" y="-119.452" font-family="Lato" font-size="12.00">a &amp; b</text>
</g>
<!-- 2&#45;&gt;0 -->
<g id="edge10" class="edge"><title>2&#45;&gt;0</title>
<path fill="none" stroke="black" d="M360.675,-155.419C354.632,-140.769 344.589,-119.296 332,-103.052 295.735,-56.2557 287.391,-35.953 232,-15.0515 173.636,6.9719 147.054,4.28056 92,-25.0515 83.4821,-29.5897 76.1472,-37.1249 70.4244,-44.506"/>
<polygon fill="black" stroke="black" points="66.0059,-50.6008 67.5643,-43.0845 68.0603,-47.7671 70.1146,-44.9334 70.1146,-44.9334 70.1146,-44.9334 68.0603,-47.7671 72.6649,-46.7823 66.0059,-50.6008 66.0059,-50.6008"/>
<text text-anchor="start" x="201" y="-18.4515" font-family="Lato" font-size="12.00">a &amp; b</text>
</g>
<!-- 2&#45;&gt;1 -->
<g id="edge11" class="edge"><title>2&#45;&gt;1</title>
<path fill="none" stroke="black" d="M350.145,-176.076C319.671,-182.791 253.425,-194.814 198,-187.052 194.088,-186.504 190.001,-185.627 186.056,-184.615"/>
<polygon fill="black" stroke="black" points="179.179,-182.69 186.769,-181.544 182.549,-183.633 185.919,-184.577 185.919,-184.577 185.919,-184.577 182.549,-183.633 185.07,-187.611 179.179,-182.69 179.179,-182.69"/>
<text text-anchor="start" x="252.5" y="-192.452" font-family="Lato" font-size="12.00">!a &amp; b</text>
</g>
<!-- 2&#45;&gt;3 -->
<g id="edge12" class="edge"><title>2&#45;&gt;3</title>
<path fill="none" stroke="black" d="M352.48,-162.718C335.808,-152 308.337,-134.34 289.492,-122.225"/>
<polygon fill="black" stroke="black" points="283.46,-118.347 291.052,-119.483 286.404,-120.24 289.349,-122.133 289.349,-122.133 289.349,-122.133 286.404,-120.24 287.645,-124.782 283.46,-118.347 283.46,-118.347"/>
<text text-anchor="start" x="313" y="-163.452" font-family="Lato" font-size="12.00">!b</text>
<text text-anchor="start" x="311" y="-150.452" font-family="Lato" font-size="12.00" fill="#1f78b4">⓿</text>
</g>
</g>
</svg>
