<?xml version="1.0" encoding="UTF-8" standalone="no"?>
<?xml-stylesheet href="spot.css" type="text/css"?>
<!DOCTYPE svg PUBLIC "-//W3C//DTD SVG 1.1//EN"
 "http://www.w3.org/Graphics/SVG/1.1/DTD/svg11.dtd">
<!-- Generated by graphviz version 2.38.0 (20140413.2041)
 -->
<!-- Title: G Pages: 1 -->
<svg width="598pt" height="352pt"
 viewBox="0.00 0.00 598.00 352.17" xmlns="http://www.w3.org/2000/svg" xmlns:xlink="http://www.w3.org/1999/xlink">
<g id="graph0" class="graph" transform="scale(1 1) rotate(0) translate(4 348.166)">
<title>G</title>
<polygon fill="white" stroke="none" points="-4,4 -4,-348.166 594,-348.166 594,4 -4,4"/>
<!-- I -->
<!-- 0 -->
<g id="node2" class="node"><title>0</title>
<ellipse fill="#ffffa0" stroke="black" cx="56" cy="-164.419" rx="18" ry="18"/>
<text text-anchor="middle" x="56" y="-161.319" font-family="Lato" font-size="12.00">0</text>
</g>
<!-- I&#45;&gt;0 -->
<g id="edge1" class="edge"><title>I&#45;&gt;0</title>
<path fill="none" stroke="black" d="M1.15491,-164.419C2.79388,-164.419 17.1543,-164.419 30.6317,-164.419"/>
<polygon fill="black" stroke="black" points="37.9419,-164.419 30.9419,-167.569 34.4419,-164.419 30.9419,-164.419 30.9419,-164.419 30.9419,-164.419 34.4419,-164.419 30.9418,-161.269 37.9419,-164.419 37.9419,-164.419"/>
</g>
<!-- 0&#45;&gt;0 -->
<g id="edge2" class="edge"><title>0&#45;&gt;0</title>
<path fill="none" stroke="black" d="M49.6208,-181.456C48.3189,-191.277 50.4453,-200.419 56,-200.419 60.166,-200.419 62.4036,-195.277 62.7128,-188.562"/>
<polygon fill="black" stroke="black" points="62.3792,-181.456 65.8541,-188.301 62.5434,-184.952 62.7076,-188.449 62.7076,-188.449 62.7076,-188.449 62.5434,-184.952 59.561,-188.596 62.3792,-181.456 62.3792,-181.456"/>
<text text-anchor="start" x="40.5" y="-203.819" font-family="Lato" font-size="12.00">a &amp; !b</text>
</g>
<!-- 1 -->
<g id="node3" class="node"><title>1</title>
<ellipse fill="#ffffa0" stroke="black" cx="162" cy="-164.419" rx="18" ry="18"/>
<text text-anchor="middle" x="162" y="-161.319" font-family="Lato" font-size="12.00">1</text>
</g>
<!-- 0&#45;&gt;1 -->
<g id="edge3" class="edge"><title>0&#45;&gt;1</title>
<path fill="none" stroke="black" d="M74.1735,-164.419C91.1849,-164.419 117.399,-164.419 136.575,-164.419"/>
<polygon fill="black" stroke="black" points="143.801,-164.419 136.801,-167.569 140.301,-164.419 136.801,-164.419 136.801,-164.419 136.801,-164.419 140.301,-164.419 136.801,-161.269 143.801,-164.419 143.801,-164.419"/>
<text text-anchor="start" x="92" y="-167.819" font-family="Lato" font-size="12.00">!a &amp; !b</text>
</g>
<!-- 2 -->
<g id="node4" class="node"><title>2</title>
<ellipse fill="#ffffa0" stroke="black" cx="568" cy="-130.419" rx="18" ry="18"/>
<ellipse fill="none" stroke="black" cx="568" cy="-130.419" rx="22" ry="22"/>
<text text-anchor="middle" x="568" y="-127.319" font-family="Lato" font-size="12.00">2</text>
</g>
<!-- 0&#45;&gt;2 -->
<g id="edge4" class="edge"><title>0&#45;&gt;2</title>
<path fill="none" stroke="black" d="M72.3047,-172.754C97.8284,-186.436 150.935,-213.976 198,-232.419 281.762,-265.242 310.246,-251.557 400,-245.419 460.162,-241.305 490.311,-247.493 528,-200.419 538.685,-187.073 548.099,-170.41 554.999,-156.689"/>
<polygon fill="black" stroke="black" points="558.18,-150.218 557.919,-157.889 556.636,-153.359 555.092,-156.5 555.092,-156.5 555.092,-156.5 556.636,-153.359 552.265,-155.111 558.18,-150.218 558.18,-150.218"/>
<text text-anchor="start" x="313.5" y="-255.819" font-family="Lato" font-size="12.00">!a &amp; b</text>
</g>
<!-- 3 -->
<g id="node5" class="node"><title>3</title>
<ellipse fill="#ffffa0" stroke="black" cx="272" cy="-63.419" rx="18" ry="18"/>
<ellipse fill="none" stroke="black" cx="272" cy="-63.419" rx="22" ry="22"/>
<text text-anchor="middle" x="272" y="-60.319" font-family="Lato" font-size="12.00">3</text>
</g>
<!-- 0&#45;&gt;3 -->
<g id="edge5" class="edge"><title>0&#45;&gt;3</title>
<path fill="none" stroke="black" d="M57.3596,-146.193C58.8358,-119.877 65.2871,-71.1426 92,-41.419 118.877,-11.5125 140.529,-12.7498 180,-20.419 204.137,-25.1089 229.235,-37.6354 246.943,-47.9661"/>
<polygon fill="black" stroke="black" points="253.118,-51.6542 245.493,-50.7689 250.113,-49.8594 247.108,-48.0646 247.108,-48.0646 247.108,-48.0646 250.113,-49.8594 248.724,-45.3603 253.118,-51.6542 253.118,-51.6542"/>
<text text-anchor="start" x="148" y="-23.819" font-family="Lato" font-size="12.00">a &amp; b</text>
</g>
<!-- 1&#45;&gt;3 -->
<g id="edge6" class="edge"><title>1&#45;&gt;3</title>
<path fill="none" stroke="black" d="M173.917,-150.659C180.473,-142.822 189.223,-133.072 198,-125.419 211.751,-113.429 217.93,-114.033 232,-102.419 238.558,-97.0053 245.26,-90.654 251.216,-84.6672"/>
<polygon fill="black" stroke="black" points="256.451,-79.3089 253.813,-86.5173 254.006,-81.8125 251.56,-84.316 251.56,-84.316 251.56,-84.316 254.006,-81.8125 249.306,-82.1146 256.451,-79.3089 256.451,-79.3089"/>
<text text-anchor="start" x="211.5" y="-128.819" font-family="Lato" font-size="12.00">b</text>
</g>
<!-- 4 -->
<g id="node6" class="node"><title>4</title>
<ellipse fill="#ffffa0" stroke="black" cx="482" cy="-177.419" rx="18" ry="18"/>
<text text-anchor="middle" x="482" y="-174.319" font-family="Lato" font-size="12.00">4</text>
</g>
<!-- 1&#45;&gt;4 -->
<g id="edge7" class="edge"><title>1&#45;&gt;4</title>
<path fill="none" stroke="black" d="M175.097,-176.885C181.351,-182.451 189.455,-188.422 198,-191.419 302.011,-227.897 337.98,-213.344 446,-191.419 450.191,-190.568 454.523,-189.24 458.65,-187.733"/>
<polygon fill="black" stroke="black" points="465.343,-185.081 459.996,-190.588 462.09,-186.37 458.836,-187.659 458.836,-187.659 458.836,-187.659 462.09,-186.37 457.675,-184.731 465.343,-185.081 465.343,-185.081"/>
<text text-anchor="start" x="313.5" y="-216.819" font-family="Lato" font-size="12.00">a &amp; !b</text>
</g>
<!-- 5 -->
<g id="node7" class="node"><title>5</title>
<ellipse fill="#ffffa0" stroke="black" cx="382" cy="-100.419" rx="18" ry="18"/>
<text text-anchor="middle" x="382" y="-97.319" font-family="Lato" font-size="12.00">5</text>
</g>
<!-- 1&#45;&gt;5 -->
<g id="edge8" class="edge"><title>1&#45;&gt;5</title>
<path fill="none" stroke="black" d="M179.742,-159.983C212.048,-151.353 285.17,-131.475 346,-112.419 349.831,-111.219 353.878,-109.889 357.806,-108.565"/>
<polygon fill="black" stroke="black" points="364.678,-106.217 359.073,-111.462 361.366,-107.349 358.054,-108.481 358.054,-108.481 358.054,-108.481 361.366,-107.349 357.036,-105.5 364.678,-106.217 364.678,-106.217"/>
<text text-anchor="start" x="255" y="-142.819" font-family="Lato" font-size="12.00">!a &amp; !b</text>
</g>
<!-- 2&#45;&gt;1 -->
<g id="edge9" class="edge"><title>2&#45;&gt;1</title>
<path fill="none" stroke="black" d="M555.62,-148.866C543.909,-166.159 524.016,-191.264 500,-204.419 439.122,-237.766 415.17,-224.621 346,-230.419 279.856,-235.963 253.423,-246.943 198,-210.419 188.83,-204.376 181.104,-195.093 175.263,-186.445"/>
<polygon fill="black" stroke="black" points="171.35,-180.315 177.772,-184.52 173.233,-183.265 175.117,-186.215 175.117,-186.215 175.117,-186.215 173.233,-183.265 172.462,-187.91 171.35,-180.315 171.35,-180.315"/>
<text text-anchor="start" x="377" y="-231.819" font-family="Lato" font-size="12.00">!a</text>
</g>
<!-- 2&#45;&gt;3 -->
<g id="edge10" class="edge"><title>2&#45;&gt;3</title>
<path fill="none" stroke="black" d="M564.824,-108.619C561.267,-84.7541 551.991,-47.0163 528,-25.419 500.04,-0.248811 483.325,-9.12258 446,-4.41901 386.191,3.11791 365.359,2.63164 312,-25.419 304.568,-29.3258 297.599,-35.0954 291.666,-40.9651"/>
<polygon fill="black" stroke="black" points="286.525,-46.3332 289.092,-39.0989 288.946,-43.8054 291.367,-41.2776 291.367,-41.2776 291.367,-41.2776 288.946,-43.8054 293.642,-43.4564 286.525,-46.3332 286.525,-46.3332"/>
<text text-anchor="start" x="428.5" y="-7.81901" font-family="Lato" font-size="12.00">a</text>
</g>
<!-- 3&#45;&gt;0 -->
<g id="edge11" class="edge"><title>3&#45;&gt;0</title>
<path fill="none" stroke="black" d="M249.965,-62.3677C235.056,-62.2829 214.799,-63.5248 198,-69.419 148.802,-86.6814 100.367,-125.351 75.0651,-147.668"/>
<polygon fill="black" stroke="black" points="69.7311,-152.434 72.8519,-145.421 72.3409,-150.102 74.9508,-147.77 74.9508,-147.77 74.9508,-147.77 72.3409,-150.102 77.0497,-150.119 69.7311,-152.434 69.7311,-152.434"/>
<text text-anchor="start" x="146.5" y="-98.819" font-family="Lato" font-size="12.00">a &amp; !b</text>
</g>
<!-- 3&#45;&gt;1 -->
<g id="edge12" class="edge"><title>3&#45;&gt;1</title>
<path fill="none" stroke="black" d="M249.844,-65.0763C233.897,-67.3459 212.389,-72.7168 198,-85.419 182.059,-99.4917 173.041,-122.201 168.166,-139.668"/>
<polygon fill="black" stroke="black" points="166.322,-146.792 165.026,-139.226 167.199,-143.404 168.076,-140.016 168.076,-140.016 168.076,-140.016 167.199,-143.404 171.126,-140.805 166.322,-146.792 166.322,-146.792"/>
<text text-anchor="start" x="198" y="-88.819" font-family="Lato" font-size="12.00">!a &amp; !b</text>
</g>
<!-- 3&#45;&gt;2 -->
<g id="edge13" class="edge"><title>3&#45;&gt;2</title>
<path fill="none" stroke="black" d="M293.843,-59.7461C308.486,-57.7132 328.504,-56.0342 346,-58.419 419.136,-68.3881 500.588,-100.87 541.132,-118.603"/>
<polygon fill="black" stroke="black" points="547.748,-121.526 540.072,-121.579 544.547,-120.111 541.345,-118.697 541.345,-118.697 541.345,-118.697 544.547,-120.111 542.618,-115.816 547.748,-121.526 547.748,-121.526"/>
<text text-anchor="start" x="418" y="-84.819" font-family="Lato" font-size="12.00">a &amp; b</text>
</g>
<!-- 3&#45;&gt;5 -->
<g id="edge14" class="edge"><title>3&#45;&gt;5</title>
<path fill="none" stroke="black" d="M290.621,-75.4942C297.105,-79.4764 304.662,-83.6021 312,-86.419 326.346,-91.9259 343.243,-95.4004 356.724,-97.5106"/>
<polygon fill="black" stroke="black" points="363.825,-98.5468 356.444,-100.653 360.362,-98.0414 356.899,-97.5359 356.899,-97.5359 356.899,-97.5359 360.362,-98.0414 357.353,-94.419 363.825,-98.5468 363.825,-98.5468"/>
<text text-anchor="start" x="313.5" y="-98.819" font-family="Lato" font-size="12.00">!a &amp; b</text>
</g>
<!-- 4&#45;&gt;0 -->
<g id="edge15" class="edge"><title>4&#45;&gt;0</title>
<path fill="none" stroke="black" d="M473.151,-193.301C455.751,-226.328 410.33,-301.345 346,-325.419 331.847,-330.715 327.106,-325.831 312,-325.419 214.113,-322.751 167.067,-376.299 92,-313.419 73.2852,-297.742 63.4044,-227.806 59.3178,-189.578"/>
<polygon fill="black" stroke="black" points="58.5769,-182.381 62.4273,-189.022 58.9354,-185.863 59.2938,-189.344 59.2938,-189.344 59.2938,-189.344 58.9354,-185.863 56.1604,-189.667 58.5769,-182.381 58.5769,-182.381"/>
<text text-anchor="start" x="258" y="-333.819" font-family="Lato" font-size="12.00">a &amp; b</text>
</g>
<!-- 4&#45;&gt;1 -->
<g id="edge16" class="edge"><title>4&#45;&gt;1</title>
<path fill="none" stroke="black" d="M463.818,-176.717C410.645,-174.543 248.661,-167.921 187.093,-165.404"/>
<polygon fill="black" stroke="black" points="180.097,-165.118 187.22,-162.257 183.594,-165.261 187.091,-165.404 187.091,-165.404 187.091,-165.404 183.594,-165.261 186.963,-168.551 180.097,-165.118 180.097,-165.118"/>
<text text-anchor="start" x="313.5" y="-174.819" font-family="Lato" font-size="12.00">!a &amp; b</text>
</g>
<!-- 4&#45;&gt;2 -->
<g id="edge17" class="edge"><title>4&#45;&gt;2</title>
<path fill="none" stroke="black" d="M498.018,-169.016C510.212,-162.193 527.671,-152.425 541.972,-144.423"/>
<polygon fill="black" stroke="black" points="548.291,-140.887 543.72,-147.054 545.236,-142.596 542.182,-144.305 542.182,-144.305 542.182,-144.305 545.236,-142.596 540.644,-141.556 548.291,-140.887 548.291,-140.887"/>
<text text-anchor="start" x="518" y="-159.819" font-family="Lato" font-size="12.00">!b</text>
</g>
<!-- 5&#45;&gt;2 -->
<g id="edge18" class="edge"><title>5&#45;&gt;2</title>
<path fill="none" stroke="black" d="M399.98,-103.188C431.675,-108.355 500.124,-119.515 538.835,-125.827"/>
<polygon fill="black" stroke="black" points="546.161,-127.021 538.746,-129.004 542.707,-126.458 539.253,-125.895 539.253,-125.895 539.253,-125.895 542.707,-126.458 539.759,-122.786 546.161,-127.021 546.161,-127.021"/>
<text text-anchor="start" x="466.5" y="-121.819" font-family="Lato" font-size="12.00">a &amp; !b</text>
</g>
<!-- 5&#45;&gt;3 -->
<g id="edge19" class="edge"><title>5&#45;&gt;3</title>
<path fill="none" stroke="black" d="M369.757,-87.0255C363.484,-80.5294 355.108,-73.3067 346,-69.419 331.957,-63.4249 315.028,-61.7336 301.01,-61.6275"/>
<polygon fill="black" stroke="black" points="293.975,-61.7022 300.941,-58.478 297.475,-61.665 300.975,-61.6278 300.975,-61.6278 300.975,-61.6278 297.475,-61.665 301.008,-64.7776 293.975,-61.7022 293.975,-61.7022"/>
<text text-anchor="start" x="312" y="-72.819" font-family="Lato" font-size="12.00">!a &amp; !b</text>
</g>
<!-- 5&#45;&gt;4 -->
<g id="edge20" class="edge"><title>5&#45;&gt;4</title>
<path fill="none" stroke="black" d="M396.626,-111.126C413.499,-124.383 442.353,-147.054 461.55,-162.137"/>
<polygon fill="black" stroke="black" points="467.173,-166.555 459.723,-164.707 464.421,-164.393 461.669,-162.23 461.669,-162.23 461.669,-162.23 464.421,-164.393 463.615,-159.753 467.173,-166.555 467.173,-166.555"/>
<text text-anchor="start" x="418" y="-150.819" font-family="Lato" font-size="12.00">a &amp; b</text>
</g>
<!-- 5&#45;&gt;5 -->
<g id="edge21" class="edge"><title>5&#45;&gt;5</title>
<path fill="none" stroke="black" d="M373.367,-116.335C371.114,-126.569 373.992,-136.419 382,-136.419 388.131,-136.419 391.255,-130.645 391.372,-123.346"/>
<polygon fill="black" stroke="black" points="390.633,-116.335 394.499,-122.967 391,-119.816 391.367,-123.297 391.367,-123.297 391.367,-123.297 391,-119.816 388.234,-123.626 390.633,-116.335 390.633,-116.335"/>
<text text-anchor="start" x="366.5" y="-139.819" font-family="Lato" font-size="12.00">!a &amp; b</text>
</g>
</g>
</svg>
