<?xml version="1.0" encoding="UTF-8" standalone="no"?>
<?xml-stylesheet href="spot.css" type="text/css"?>
<!DOCTYPE svg PUBLIC "-//W3C//DTD SVG 1.1//EN"
 "http://www.w3.org/Graphics/SVG/1.1/DTD/svg11.dtd">
<!-- Generated by graphviz version 2.38.0 (20140413.2041)
 -->
<!-- Title: G Pages: 1 -->
<svg width="502pt" height="266pt"
 viewBox="0.00 0.00 501.90 266.18" xmlns="http://www.w3.org/2000/svg" xmlns:xlink="http://www.w3.org/1999/xlink">
<g id="graph0" class="graph" transform="scale(1 1) rotate(0) translate(4 262.177)">
<title>G</title>
<polygon fill="white" stroke="none" points="-4,4 -4,-262.177 497.902,-262.177 497.902,4 -4,4"/>
<text text-anchor="start" x="152.451" y="-245.577" font-family="Lato" font-size="12.00">(Fin(</text>
<text text-anchor="start" x="175.451" y="-245.577" font-family="Lato" font-size="12.00" fill="#1f78b4">⓿</text>
<text text-anchor="start" x="189.451" y="-245.577" font-family="Lato" font-size="12.00">) | Inf(</text>
<text text-anchor="start" x="219.451" y="-245.577" font-family="Lato" font-size="12.00" fill="#ff4da0">❶</text>
<text text-anchor="start" x="233.451" y="-245.577" font-family="Lato" font-size="12.00">)) &amp; (Fin(</text>
<text text-anchor="start" x="276.451" y="-245.577" font-family="Lato" font-size="12.00" fill="#ff7f00">❷</text>
<text text-anchor="start" x="290.451" y="-245.577" font-family="Lato" font-size="12.00">) | Inf(</text>
<text text-anchor="start" x="320.451" y="-245.577" font-family="Lato" font-size="12.00" fill="#6a3d9a">❸</text>
<text text-anchor="start" x="334.451" y="-245.577" font-family="Lato" font-size="12.00">))</text>
<text text-anchor="start" x="219.951" y="-233.577" font-family="Lato" font-size="12.00">[Streett 2]</text>
<!-- I -->
<!-- 0 -->
<g id="node2" class="node"><title>0</title>
<ellipse fill="#ffffa0" stroke="black" cx="69.1127" cy="-51.1774" rx="31.2258" ry="31.2258"/>
<text text-anchor="start" x="65.6127" y="-54.5774" font-family="Lato" font-size="12.00">0</text>
<text text-anchor="start" x="55.1127" y="-42.5774" font-family="Lato" font-size="12.00" fill="#ff4da0">❶</text>
<text text-anchor="start" x="69.1127" y="-42.5774" font-family="Lato" font-size="12.00" fill="#6a3d9a">❸</text>
</g>
<!-- I&#45;&gt;0 -->
<g id="edge1" class="edge"><title>I&#45;&gt;0</title>
<path fill="none" stroke="black" d="M1.04864,-51.1774C1.96281,-51.1774 15.6247,-51.1774 30.3807,-51.1774"/>
<polygon fill="black" stroke="black" points="37.6614,-51.1774 30.6615,-54.3275 34.1614,-51.1775 30.6614,-51.1775 30.6614,-51.1775 30.6614,-51.1775 34.1614,-51.1775 30.6614,-48.0275 37.6614,-51.1774 37.6614,-51.1774"/>
</g>
<!-- 0&#45;&gt;0 -->
<g id="edge2" class="edge"><title>0&#45;&gt;0</title>
<path fill="none" stroke="black" d="M60.1149,-81.3918C60.0197,-91.8469 63.0189,-100.29 69.1127,-100.29 73.683,-100.29 76.5127,-95.5408 77.6017,-88.7554"/>
<polygon fill="black" stroke="black" points="78.1105,-81.3918 80.7704,-88.5923 77.8692,-84.8834 77.6279,-88.3751 77.6279,-88.3751 77.6279,-88.3751 77.8692,-84.8834 74.4854,-88.1579 78.1105,-81.3918 78.1105,-81.3918"/>
<text text-anchor="start" x="55.1127" y="-103.69" font-family="Lato" font-size="12.00">a &amp; b</text>
</g>
<!-- 1 -->
<g id="node3" class="node"><title>1</title>
<ellipse fill="#ffffa0" stroke="black" cx="198.338" cy="-145.177" rx="31.2258" ry="31.2258"/>
<text text-anchor="start" x="194.838" y="-148.577" font-family="Lato" font-size="12.00">1</text>
<text text-anchor="start" x="184.338" y="-136.577" font-family="Lato" font-size="12.00" fill="#1f78b4">⓿</text>
<text text-anchor="start" x="198.338" y="-136.577" font-family="Lato" font-size="12.00" fill="#6a3d9a">❸</text>
</g>
<!-- 0&#45;&gt;1 -->
<g id="edge3" class="edge"><title>0&#45;&gt;1</title>
<path fill="none" stroke="black" d="M82.8611,-79.4293C90.9848,-94.456 102.88,-112.071 118.225,-123.177 130.42,-132.003 146.015,-137.291 160.13,-140.458"/>
<polygon fill="black" stroke="black" points="167.35,-141.928 159.862,-143.618 163.921,-141.23 160.491,-140.532 160.491,-140.532 160.491,-140.532 163.921,-141.23 161.12,-137.445 167.35,-141.928 167.35,-141.928"/>
<text text-anchor="start" x="118.225" y="-140.577" font-family="Lato" font-size="12.00">!a &amp; b</text>
</g>
<!-- 2 -->
<g id="node4" class="node"><title>2</title>
<ellipse fill="#ffffa0" stroke="black" cx="462.789" cy="-75.1774" rx="31.2258" ry="31.2258"/>
<text text-anchor="start" x="459.289" y="-78.5774" font-family="Lato" font-size="12.00">2</text>
<text text-anchor="start" x="448.789" y="-66.5774" font-family="Lato" font-size="12.00" fill="#ff4da0">❶</text>
<text text-anchor="start" x="462.789" y="-66.5774" font-family="Lato" font-size="12.00" fill="#ff7f00">❷</text>
</g>
<!-- 0&#45;&gt;2 -->
<g id="edge4" class="edge"><title>0&#45;&gt;2</title>
<path fill="none" stroke="black" d="M98.5712,-41.0295C104.964,-39.1094 111.767,-37.3404 118.225,-36.1774 224.714,-17.0013 255.532,-14.1787 361.676,-35.1774 384.57,-39.7065 408.912,-49.3128 427.86,-57.9761"/>
<polygon fill="black" stroke="black" points="434.585,-61.114 426.909,-61.0084 431.413,-59.634 428.241,-58.1539 428.241,-58.1539 428.241,-58.1539 431.413,-59.634 429.573,-55.2994 434.585,-61.114 434.585,-61.114"/>
<text text-anchor="start" x="248.951" y="-25.5774" font-family="Lato" font-size="12.00">a &amp; !b</text>
</g>
<!-- 3 -->
<g id="node5" class="node"><title>3</title>
<ellipse fill="#ffffa0" stroke="black" cx="330.563" cy="-75.1774" rx="31.2258" ry="31.2258"/>
<text text-anchor="start" x="327.063" y="-78.5774" font-family="Lato" font-size="12.00">3</text>
<text text-anchor="start" x="316.563" y="-66.5774" font-family="Lato" font-size="12.00" fill="#1f78b4">⓿</text>
<text text-anchor="start" x="330.563" y="-66.5774" font-family="Lato" font-size="12.00" fill="#ff7f00">❷</text>
</g>
<!-- 0&#45;&gt;3 -->
<g id="edge5" class="edge"><title>0&#45;&gt;3</title>
<path fill="none" stroke="black" d="M100.128,-53.954C147.775,-58.3614 240.611,-66.949 292.393,-71.739"/>
<polygon fill="black" stroke="black" points="299.418,-72.3888 292.157,-74.8806 295.933,-72.0664 292.447,-71.744 292.447,-71.744 292.447,-71.744 295.933,-72.0664 292.738,-68.6074 299.418,-72.3888 299.418,-72.3888"/>
<text text-anchor="start" x="181.338" y="-68.5774" font-family="Lato" font-size="12.00">!a &amp; !b</text>
</g>
<!-- 1&#45;&gt;0 -->
<g id="edge6" class="edge"><title>1&#45;&gt;0</title>
<path fill="none" stroke="black" d="M173.836,-125.101C166.157,-118.821 157.478,-112.013 149.225,-106.177 136.031,-96.8472 131.598,-96.25 118.225,-87.1774 112.269,-83.1361 106.028,-78.6579 100.088,-74.2721"/>
<polygon fill="black" stroke="black" points="94.2716,-69.9366 101.767,-71.5942 97.0779,-72.0282 99.8842,-74.1199 99.8842,-74.1199 99.8842,-74.1199 97.0779,-72.0282 98.0017,-76.6455 94.2716,-69.9366 94.2716,-69.9366"/>
<text text-anchor="start" x="119.725" y="-109.577" font-family="Lato" font-size="12.00">a &amp; b</text>
</g>
<!-- 1&#45;&gt;1 -->
<g id="edge7" class="edge"><title>1&#45;&gt;1</title>
<path fill="none" stroke="black" d="M186.385,-173.932C185.854,-185.049 189.838,-194.29 198.338,-194.29 204.846,-194.29 208.707,-188.873 209.921,-181.345"/>
<polygon fill="black" stroke="black" points="210.291,-173.932 213.088,-181.08 210.116,-177.428 209.942,-180.923 209.942,-180.923 209.942,-180.923 210.116,-177.428 206.796,-180.766 210.291,-173.932 210.291,-173.932"/>
<text text-anchor="start" x="182.838" y="-197.69" font-family="Lato" font-size="12.00">!a &amp; b</text>
</g>
<!-- 1&#45;&gt;2 -->
<g id="edge8" class="edge"><title>1&#45;&gt;2</title>
<path fill="none" stroke="black" d="M219.727,-168.289C227.599,-175.661 237.186,-182.986 247.451,-187.177 315.847,-215.104 353.179,-229.581 413.676,-187.177 437.912,-170.19 450.027,-138.338 456.031,-112.932"/>
<polygon fill="black" stroke="black" points="457.567,-105.954 459.138,-113.468 456.814,-109.373 456.062,-112.791 456.062,-112.791 456.062,-112.791 456.814,-109.373 452.985,-112.113 457.567,-105.954 457.567,-105.954"/>
<text text-anchor="start" x="315.063" y="-216.577" font-family="Lato" font-size="12.00">a &amp; !b</text>
</g>
<!-- 1&#45;&gt;3 -->
<g id="edge9" class="edge"><title>1&#45;&gt;3</title>
<path fill="none" stroke="black" d="M229.283,-141.029C245.517,-137.853 265.469,-132.392 281.451,-123.177 289.922,-118.293 297.951,-111.541 304.936,-104.642"/>
<polygon fill="black" stroke="black" points="310.064,-99.3661 307.444,-106.581 307.624,-101.876 305.185,-104.386 305.185,-104.386 305.185,-104.386 307.624,-101.876 302.926,-102.19 310.064,-99.3661 310.064,-99.3661"/>
<text text-anchor="start" x="247.451" y="-139.577" font-family="Lato" font-size="12.00">!a &amp; !b</text>
</g>
<!-- 2&#45;&gt;0 -->
<g id="edge10" class="edge"><title>2&#45;&gt;0</title>
<path fill="none" stroke="black" d="M439.698,-53.5548C431.96,-46.905 422.891,-40.0595 413.676,-35.1774 360.248,-6.87068 341.585,-9.47874 281.451,-3.17741 208.588,4.4577 187.286,-1.72734 118.225,-26.1774 113.047,-28.0108 107.729,-30.3075 102.605,-32.761"/>
<polygon fill="black" stroke="black" points="96.242,-35.9295 101.104,-29.9893 99.375,-34.3693 102.508,-32.809 102.508,-32.809 102.508,-32.809 99.375,-34.3693 103.912,-35.6287 96.242,-35.9295 96.242,-35.9295"/>
<text text-anchor="start" x="250.451" y="-6.57741" font-family="Lato" font-size="12.00">a &amp; b</text>
</g>
<!-- 2&#45;&gt;1 -->
<g id="edge11" class="edge"><title>2&#45;&gt;1</title>
<path fill="none" stroke="black" d="M439.56,-96.2833C420.504,-112.976 391.479,-135.233 361.676,-146.177 320.551,-161.28 269.516,-157.674 235.767,-152.51"/>
<polygon fill="black" stroke="black" points="228.838,-151.39 236.251,-149.397 232.293,-151.949 235.748,-152.507 235.748,-152.507 235.748,-152.507 232.293,-151.949 235.246,-155.617 228.838,-151.39 228.838,-151.39"/>
<text text-anchor="start" x="315.063" y="-159.577" font-family="Lato" font-size="12.00">!a &amp; b</text>
</g>
<!-- 2&#45;&gt;2 -->
<g id="edge12" class="edge"><title>2&#45;&gt;2</title>
<path fill="none" stroke="black" d="M450.462,-103.932C449.914,-115.049 454.023,-124.29 462.789,-124.29 469.5,-124.29 473.482,-118.873 474.733,-111.345"/>
<polygon fill="black" stroke="black" points="475.116,-103.932 477.901,-111.085 474.935,-107.427 474.755,-110.923 474.755,-110.923 474.755,-110.923 474.935,-107.427 471.609,-110.76 475.116,-103.932 475.116,-103.932"/>
<text text-anchor="start" x="447.289" y="-127.69" font-family="Lato" font-size="12.00">a &amp; !b</text>
</g>
<!-- 2&#45;&gt;3 -->
<g id="edge13" class="edge"><title>2&#45;&gt;3</title>
<path fill="none" stroke="black" d="M431.298,-75.1774C412.639,-75.1774 388.632,-75.1774 368.847,-75.1774"/>
<polygon fill="black" stroke="black" points="361.767,-75.1774 368.767,-72.0275 365.267,-75.1775 368.767,-75.1775 368.767,-75.1775 368.767,-75.1775 365.267,-75.1775 368.767,-78.3275 361.767,-75.1774 361.767,-75.1774"/>
<text text-anchor="start" x="379.676" y="-78.5774" font-family="Lato" font-size="12.00">!a &amp; !b</text>
</g>
<!-- 3&#45;&gt;0 -->
<g id="edge14" class="edge"><title>3&#45;&gt;0</title>
<path fill="none" stroke="black" d="M301.648,-63.6836C281.872,-56.1834 254.511,-47.0852 229.451,-43.1774 187.852,-36.6907 139.477,-40.7276 107.039,-45.078"/>
<polygon fill="black" stroke="black" points="99.9625,-46.066 106.46,-41.9782 103.429,-45.582 106.895,-45.098 106.895,-45.098 106.895,-45.098 103.429,-45.582 107.331,-48.2177 99.9625,-46.066 99.9625,-46.066"/>
<text text-anchor="start" x="184.338" y="-46.5774" font-family="Lato" font-size="12.00">a &amp; b</text>
</g>
<!-- 3&#45;&gt;1 -->
<g id="edge15" class="edge"><title>3&#45;&gt;1</title>
<path fill="none" stroke="black" d="M300.427,-83.6465C284.254,-88.9605 264.102,-96.6196 247.451,-106.177 240.597,-110.112 233.712,-115.002 227.38,-119.974"/>
<polygon fill="black" stroke="black" points="221.737,-124.539 225.198,-117.688 224.458,-122.338 227.179,-120.137 227.179,-120.137 227.179,-120.137 224.458,-122.338 229.16,-122.586 221.737,-124.539 221.737,-124.539"/>
<text text-anchor="start" x="248.951" y="-109.577" font-family="Lato" font-size="12.00">!a &amp; b</text>
</g>
<!-- 3&#45;&gt;2 -->
<g id="edge16" class="edge"><title>3&#45;&gt;2</title>
<path fill="none" stroke="black" d="M359.631,-63.4703C366.104,-61.2759 373.04,-59.3153 379.676,-58.1774 394.57,-55.6235 398.782,-55.6235 413.676,-58.1774 418.031,-58.9242 422.515,-60.0252 426.913,-61.3141"/>
<polygon fill="black" stroke="black" points="433.722,-63.4703 426.097,-64.36 430.385,-62.4136 427.048,-61.3569 427.048,-61.3569 427.048,-61.3569 430.385,-62.4136 427.999,-58.3539 433.722,-63.4703 433.722,-63.4703"/>
<text text-anchor="start" x="381.176" y="-61.5774" font-family="Lato" font-size="12.00">a &amp; !b</text>
</g>
<!-- 3&#45;&gt;3 -->
<g id="edge17" class="edge"><title>3&#45;&gt;3</title>
<path fill="none" stroke="black" d="M318.237,-103.932C317.689,-115.049 321.798,-124.29 330.563,-124.29 337.275,-124.29 341.256,-118.873 342.508,-111.345"/>
<polygon fill="black" stroke="black" points="342.89,-103.932 345.675,-111.085 342.71,-107.427 342.53,-110.923 342.53,-110.923 342.53,-110.923 342.71,-107.427 339.384,-110.76 342.89,-103.932 342.89,-103.932"/>
<text text-anchor="start" x="313.563" y="-127.69" font-family="Lato" font-size="12.00">!a &amp; !b</text>
</g>
</g>
</svg>
