<?xml version="1.0" encoding="UTF-8" standalone="no"?>
<?xml-stylesheet href="spot.css" type="text/css"?>
<!DOCTYPE svg PUBLIC "-//W3C//DTD SVG 1.1//EN"
 "http://www.w3.org/Graphics/SVG/1.1/DTD/svg11.dtd">
<!-- Generated by graphviz version 2.38.0 (20140413.2041)
 -->
<!-- Title: G Pages: 1 -->
<svg width="615pt" height="394pt"
 viewBox="0.00 0.00 615.00 393.55" xmlns="http://www.w3.org/2000/svg" xmlns:xlink="http://www.w3.org/1999/xlink">
<g id="graph0" class="graph" transform="scale(1 1) rotate(0) translate(4 389.551)">
<title>G</title>
<polygon fill="white" stroke="none" points="-4,4 -4,-389.551 611,-389.551 611,4 -4,4"/>
<!-- 0 -->
<!-- 1 -->
<g id="node2" class="node"><title>1</title>
<ellipse fill="#ffffa0" stroke="black" cx="118" cy="-305.551" rx="27" ry="18"/>
<text text-anchor="middle" x="118" y="-302.451" font-family="Lato" font-size="12.00">init</text>
</g>
<!-- 0&#45;&gt;1 -->
<g id="edge1" class="edge"><title>0&#45;&gt;1</title>
<path fill="none" stroke="black" d="M54.2216,-305.551C63.4559,-305.551 73.9612,-305.551 83.7008,-305.551"/>
<polygon fill="black" stroke="black" points="90.9659,-305.551 83.9659,-308.701 87.4659,-305.551 83.9659,-305.551 83.9659,-305.551 83.9659,-305.551 87.4659,-305.551 83.9658,-302.401 90.9659,-305.551 90.9659,-305.551"/>
</g>
<!-- 2 -->
<g id="node3" class="node"><title>2</title>
<polygon fill="#ffffa0" stroke="black" points="263,-180.551 209,-180.551 209,-144.551 263,-144.551 263,-180.551"/>
<text text-anchor="middle" x="236" y="-159.451" font-family="Lato" font-size="12.00">1</text>
</g>
<!-- 1&#45;&gt;2 -->
<g id="edge2" class="edge"><title>1&#45;&gt;2</title>
<path fill="none" stroke="black" d="M131.635,-289.975C151.893,-265.002 191.783,-215.828 215.649,-186.406"/>
<polygon fill="black" stroke="black" points="220.198,-180.798 218.235,-188.219 217.993,-183.516 215.788,-186.235 215.788,-186.235 215.788,-186.235 217.993,-183.516 213.342,-184.25 220.198,-180.798 220.198,-180.798"/>
<text text-anchor="middle" x="177" y="-253.951" font-family="Lato" font-size="12.00">a &amp; b</text>
</g>
<!-- 3 -->
<g id="node4" class="node"><title>3</title>
<ellipse fill="#ffffa0" stroke="black" cx="360" cy="-244.551" rx="27" ry="18"/>
<text text-anchor="middle" x="360" y="-241.451" font-family="Lato" font-size="12.00">3</text>
</g>
<!-- 1&#45;&gt;3 -->
<g id="edge3" class="edge"><title>1&#45;&gt;3</title>
<path fill="none" stroke="black" d="M144.945,-302.631C183.022,-297.849 255.92,-286.79 315,-266.551 320.807,-264.562 326.822,-261.955 332.47,-259.235"/>
<polygon fill="black" stroke="black" points="338.897,-256.02 334.046,-261.969 335.767,-257.586 332.637,-259.152 332.637,-259.152 332.637,-259.152 335.767,-257.586 331.228,-256.334 338.897,-256.02 338.897,-256.02"/>
<text text-anchor="middle" x="236" y="-295.951" font-family="Lato" font-size="12.00">!a &amp; b</text>
</g>
<!-- 4 -->
<g id="node5" class="node"><title>4</title>
<ellipse fill="#ffffa0" stroke="black" cx="580" cy="-213.551" rx="27" ry="18"/>
<text text-anchor="middle" x="580" y="-210.451" font-family="Lato" font-size="12.00">2</text>
</g>
<!-- 1&#45;&gt;4 -->
<g id="edge4" class="edge"><title>1&#45;&gt;4</title>
<path fill="none" stroke="black" d="M133.562,-320.754C154.141,-340.522 193.836,-372.551 235,-372.551 235,-372.551 235,-372.551 476,-372.551 539.09,-372.551 565.463,-283.28 574.721,-238.52"/>
<polygon fill="black" stroke="black" points="576.111,-231.481 577.845,-238.959 575.433,-234.915 574.755,-238.349 574.755,-238.349 574.755,-238.349 575.433,-234.915 571.664,-237.738 576.111,-231.481 576.111,-231.481"/>
<text text-anchor="middle" x="360" y="-375.951" font-family="Lato" font-size="12.00">a &amp; !b</text>
</g>
<!-- 5 -->
<g id="node6" class="node"><title>5</title>
<ellipse fill="#ffffa0" stroke="black" cx="475" cy="-187.551" rx="27" ry="18"/>
<text text-anchor="middle" x="475" y="-184.451" font-family="Lato" font-size="12.00">4</text>
</g>
<!-- 1&#45;&gt;5 -->
<g id="edge5" class="edge"><title>1&#45;&gt;5</title>
<path fill="none" stroke="black" d="M144.533,-309.629C150.572,-310.428 157,-311.144 163,-311.551 175.416,-312.394 178.557,-311.724 191,-311.551 223.009,-311.107 231.41,-314.732 263,-309.551 319.881,-300.222 333.382,-292.708 387,-271.551 406.784,-263.745 413.839,-264.378 430,-250.551 442.98,-239.446 453.984,-223.688 461.74,-210.711"/>
<polygon fill="black" stroke="black" points="465.282,-204.596 464.499,-212.232 463.527,-207.625 461.773,-210.653 461.773,-210.653 461.773,-210.653 463.527,-207.625 459.047,-209.075 465.282,-204.596 465.282,-204.596"/>
<text text-anchor="middle" x="298" y="-308.951" font-family="Lato" font-size="12.00">!a &amp; !b</text>
</g>
<!-- 2&#45;&gt;3 -->
<g id="edge6" class="edge"><title>2&#45;&gt;3</title>
<path fill="none" stroke="black" d="M263.002,-170.78C278.888,-176.536 299.129,-185.222 315,-196.551 325.21,-203.84 334.836,-213.828 342.466,-222.807"/>
<polygon fill="black" stroke="black" points="346.946,-228.234 340.06,-224.841 344.718,-225.535 342.49,-222.836 342.49,-222.836 342.49,-222.836 344.718,-225.535 344.919,-220.83 346.946,-228.234 346.946,-228.234"/>
<text text-anchor="middle" x="298" y="-212.951" font-family="Lato" font-size="12.00">{a}</text>
<text text-anchor="middle" x="298" y="-199.951" font-family="Lato" font-size="12.00">{0,1}</text>
</g>
<!-- 2&#45;&gt;4 -->
<g id="edge7" class="edge"><title>2&#45;&gt;4</title>
<path fill="none" stroke="black" d="M238.411,-144.396C241.47,-117.747 251.074,-68.2151 281,-40.5511 330.878,5.5566 362.907,4.04096 430,-6.55106 478.452,-14.2002 501.444,-4.77222 535,-40.5511 573.299,-81.3868 579.456,-150.738 579.762,-188.024"/>
<polygon fill="black" stroke="black" points="579.748,-195.473 576.611,-188.467 579.755,-191.973 579.761,-188.473 579.761,-188.473 579.761,-188.473 579.755,-191.973 582.911,-188.479 579.748,-195.473 579.748,-195.473"/>
<text text-anchor="middle" x="417.5" y="-22.9511" font-family="Lato" font-size="12.00">{b}</text>
<text text-anchor="middle" x="417.5" y="-9.95106" font-family="Lato" font-size="12.00">{0,1}</text>
</g>
<!-- 2&#45;&gt;5 -->
<g id="edge8" class="edge"><title>2&#45;&gt;5</title>
<path fill="none" stroke="black" d="M262.682,-144.507C292.502,-125.843 343.202,-101.162 387,-114.551 416.049,-123.431 441.643,-148.062 457.42,-166.269"/>
<polygon fill="black" stroke="black" points="461.994,-171.689 455.072,-168.371 459.737,-169.014 457.479,-166.339 457.479,-166.339 457.479,-166.339 459.737,-169.014 459.887,-164.308 461.994,-171.689 461.994,-171.689"/>
<text text-anchor="middle" x="360" y="-130.951" font-family="Lato" font-size="12.00">{a, b}</text>
<text text-anchor="middle" x="360" y="-117.951" font-family="Lato" font-size="12.00">{0,1}</text>
</g>
<!-- 3&#45;&gt;2 -->
<g id="edge9" class="edge"><title>3&#45;&gt;2</title>
<path fill="none" stroke="black" d="M333.295,-241.646C317.136,-238.821 296.491,-233.297 281,-222.551 267.895,-213.46 257.195,-199.18 249.63,-186.832"/>
<polygon fill="black" stroke="black" points="245.963,-180.588 252.224,-185.029 247.735,-183.606 249.508,-186.624 249.508,-186.624 249.508,-186.624 247.735,-183.606 246.792,-188.22 245.963,-180.588 245.963,-180.588"/>
<text text-anchor="middle" x="298" y="-252.951" font-family="Lato" font-size="12.00">{a}</text>
<text text-anchor="middle" x="298" y="-239.951" font-family="Lato" font-size="12.00">{1}</text>
</g>
<!-- 3&#45;&gt;4 -->
<g id="edge10" class="edge"><title>3&#45;&gt;4</title>
<path fill="none" stroke="black" d="M386.533,-248.629C392.572,-249.428 399,-250.144 405,-250.551 456.636,-254.055 515.231,-237.117 549.547,-224.998"/>
<polygon fill="black" stroke="black" points="556.49,-222.494 550.973,-227.832 553.197,-223.681 549.905,-224.869 549.905,-224.869 549.905,-224.869 553.197,-223.681 548.836,-221.906 556.49,-222.494 556.49,-222.494"/>
<text text-anchor="middle" x="475" y="-264.951" font-family="Lato" font-size="12.00">{a, b}</text>
<text text-anchor="middle" x="475" y="-251.951" font-family="Lato" font-size="12.00">{1}</text>
</g>
<!-- 3&#45;&gt;5 -->
<g id="edge11" class="edge"><title>3&#45;&gt;5</title>
<path fill="none" stroke="black" d="M381.99,-233.963C400.11,-224.823 426.426,-211.549 446.276,-201.536"/>
<polygon fill="black" stroke="black" points="452.739,-198.275 447.908,-204.241 449.614,-199.852 446.489,-201.428 446.489,-201.428 446.489,-201.428 449.614,-199.852 445.071,-198.616 452.739,-198.275 452.739,-198.275"/>
<text text-anchor="middle" x="417.5" y="-236.951" font-family="Lato" font-size="12.00">{b}</text>
<text text-anchor="middle" x="417.5" y="-223.951" font-family="Lato" font-size="12.00">{1}</text>
</g>
<!-- 4&#45;&gt;2 -->
<g id="edge12" class="edge"><title>4&#45;&gt;2</title>
<path fill="none" stroke="black" d="M567.928,-196.955C559.699,-185.369 547.734,-169.993 535,-158.551 493.823,-121.552 483.141,-107.061 430,-91.5511 365.677,-72.7772 339.606,-82.0669 281,-114.551 270.456,-120.395 261.061,-129.7 253.688,-138.568"/>
<polygon fill="black" stroke="black" points="249.143,-144.291 251.029,-136.851 251.32,-141.55 253.496,-138.809 253.496,-138.809 253.496,-138.809 251.32,-141.55 255.963,-140.768 249.143,-144.291 249.143,-144.291"/>
<text text-anchor="middle" x="417.5" y="-107.951" font-family="Lato" font-size="12.00">{b}</text>
<text text-anchor="middle" x="417.5" y="-94.9511" font-family="Lato" font-size="12.00">{0}</text>
</g>
<!-- 4&#45;&gt;3 -->
<g id="edge13" class="edge"><title>4&#45;&gt;3</title>
<path fill="none" stroke="black" d="M566.501,-229.176C552.675,-245.084 528.782,-268.758 502,-278.551 463.028,-292.801 415.805,-274.617 387.101,-259.851"/>
<polygon fill="black" stroke="black" points="380.569,-256.384 388.228,-256.883 383.66,-258.024 386.752,-259.665 386.752,-259.665 386.752,-259.665 383.66,-258.024 385.275,-262.448 380.569,-256.384 380.569,-256.384"/>
<text text-anchor="middle" x="475" y="-299.951" font-family="Lato" font-size="12.00">{a, b}</text>
<text text-anchor="middle" x="475" y="-286.951" font-family="Lato" font-size="12.00">{0}</text>
</g>
<!-- 4&#45;&gt;5 -->
<g id="edge14" class="edge"><title>4&#45;&gt;5</title>
<path fill="none" stroke="black" d="M569.008,-196.842C561.288,-185.682 549.487,-171.924 535,-165.551 523.456,-160.473 510.336,-164.439 499.404,-170.329"/>
<polygon fill="black" stroke="black" points="493.248,-173.966 497.673,-167.693 496.262,-172.185 499.275,-170.405 499.275,-170.405 499.275,-170.405 496.262,-172.185 500.877,-173.117 493.248,-173.966 493.248,-173.966"/>
<text text-anchor="middle" x="527.5" y="-181.951" font-family="Lato" font-size="12.00">{a}</text>
<text text-anchor="middle" x="527.5" y="-168.951" font-family="Lato" font-size="12.00">{0}</text>
</g>
<!-- 5&#45;&gt;2 -->
<g id="edge15" class="edge"><title>5&#45;&gt;2</title>
<path fill="none" stroke="black" d="M447.947,-184.547C442.046,-183.879 435.809,-183.182 430,-182.551 374.115,-176.48 309.079,-169.826 270.569,-165.928"/>
<polygon fill="black" stroke="black" points="263.231,-165.186 270.512,-162.756 266.713,-165.538 270.196,-165.89 270.196,-165.89 270.196,-165.89 266.713,-165.538 269.879,-169.024 263.231,-165.186 263.231,-165.186"/>
<text text-anchor="middle" x="360" y="-180.951" font-family="Lato" font-size="12.00">{a, b}</text>
</g>
<!-- 5&#45;&gt;3 -->
<g id="edge16" class="edge"><title>5&#45;&gt;3</title>
<path fill="none" stroke="black" d="M448.142,-185.273C434.61,-185.167 418.167,-186.815 405,-193.551 392.642,-199.873 382.284,-211.297 374.729,-221.733"/>
<polygon fill="black" stroke="black" points="370.61,-227.717 371.984,-220.165 372.595,-224.834 374.579,-221.951 374.579,-221.951 374.579,-221.951 372.595,-224.834 377.174,-223.737 370.61,-227.717 370.61,-227.717"/>
<text text-anchor="middle" x="417.5" y="-196.951" font-family="Lato" font-size="12.00">{b}</text>
</g>
<!-- 5&#45;&gt;4 -->
<g id="edge17" class="edge"><title>5&#45;&gt;4</title>
<path fill="none" stroke="black" d="M500.41,-193.713C514.417,-197.249 532.163,-201.728 547.246,-205.536"/>
<polygon fill="black" stroke="black" points="554.409,-207.344 546.851,-208.684 551.015,-206.487 547.622,-205.63 547.622,-205.63 547.622,-205.63 551.015,-206.487 548.393,-202.576 554.409,-207.344 554.409,-207.344"/>
<text text-anchor="middle" x="527.5" y="-204.951" font-family="Lato" font-size="12.00">{a}</text>
</g>
</g>
</svg>
