<?xml version="1.0" encoding="UTF-8" standalone="no"?>
<?xml-stylesheet href="spot.css" type="text/css"?>
<!DOCTYPE svg PUBLIC "-//W3C//DTD SVG 1.1//EN"
 "http://www.w3.org/Graphics/SVG/1.1/DTD/svg11.dtd">
<!-- Generated by graphviz version 2.38.0 (20140413.2041)
 -->
<!-- Title: G Pages: 1 -->
<svg width="615pt" height="394pt"
 viewBox="0.00 0.00 615.00 393.55" xmlns="http://www.w3.org/2000/svg" xmlns:xlink="http://www.w3.org/1999/xlink">
<g id="graph0" class="graph" transform="scale(1 1) rotate(0) translate(4 389.551)">
<title>G</title>
<polygon fill="white" stroke="none" points="-4,4 -4,-389.551 611,-389.551 611,4 -4,4"/>
<!-- 0 -->
<!-- 1 -->
<g id="node2" class="node"><title>1</title>
<ellipse fill="#ffffa0" stroke="black" cx="118" cy="-305.551" rx="27" ry="18"/>
<text text-anchor="middle" x="118" y="-302.451" font-family="Lato" font-size="12.00">init</text>
</g>
<!-- 0&#45;&gt;1 -->
<g id="edge1" class="edge"><title>0&#45;&gt;1</title>
<path fill="none" stroke="black" d="M54.2216,-305.551C63.4559,-305.551 73.9612,-305.551 83.7008,-305.551"/>
<polygon fill="black" stroke="black" points="90.9659,-305.551 83.9659,-308.701 87.4659,-305.551 83.9659,-305.551 83.9659,-305.551 83.9659,-305.551 87.4659,-305.551 83.9658,-302.401 90.9659,-305.551 90.9659,-305.551"/>
</g>
<!-- 2 -->
<g id="node3" class="node"><title>2</title>
<ellipse fill="#ffffa0" stroke="black" cx="236" cy="-162.551" rx="27" ry="18"/>
<text text-anchor="middle" x="236" y="-159.451" font-family="Lato" font-size="12.00">4</text>
</g>
<!-- 1&#45;&gt;2 -->
<g id="edge2" class="edge"><title>1&#45;&gt;2</title>
<path fill="none" stroke="black" d="M131.635,-289.975C152.554,-264.187 194.405,-212.595 217.931,-183.593"/>
<polygon fill="black" stroke="black" points="222.381,-178.108 220.417,-185.528 220.176,-180.826 217.971,-183.544 217.971,-183.544 217.971,-183.544 220.176,-180.826 215.524,-181.559 222.381,-178.108 222.381,-178.108"/>
<text text-anchor="middle" x="177" y="-253.951" font-family="Lato" font-size="12.00">a &amp; b</text>
</g>
<!-- 3 -->
<g id="node4" class="node"><title>3</title>
<ellipse fill="#ffffa0" stroke="black" cx="360" cy="-244.551" rx="27" ry="18"/>
<text text-anchor="middle" x="360" y="-241.451" font-family="Lato" font-size="12.00">3</text>
</g>
<!-- 1&#45;&gt;3 -->
<g id="edge3" class="edge"><title>1&#45;&gt;3</title>
<path fill="none" stroke="black" d="M144.945,-302.631C183.022,-297.849 255.92,-286.79 315,-266.551 320.807,-264.562 326.822,-261.955 332.47,-259.235"/>
<polygon fill="black" stroke="black" points="338.897,-256.02 334.046,-261.969 335.767,-257.586 332.637,-259.152 332.637,-259.152 332.637,-259.152 335.767,-257.586 331.228,-256.334 338.897,-256.02 338.897,-256.02"/>
<text text-anchor="middle" x="236" y="-295.951" font-family="Lato" font-size="12.00">!a &amp; b</text>
</g>
<!-- 4 -->
<g id="node5" class="node"><title>4</title>
<ellipse fill="#ffffa0" stroke="black" cx="580" cy="-207.551" rx="27" ry="18"/>
<text text-anchor="middle" x="580" y="-204.451" font-family="Lato" font-size="12.00">2</text>
</g>
<!-- 1&#45;&gt;4 -->
<g id="edge4" class="edge"><title>1&#45;&gt;4</title>
<path fill="none" stroke="black" d="M133.562,-320.754C154.141,-340.522 193.836,-372.551 235,-372.551 235,-372.551 235,-372.551 476,-372.551 541.23,-372.551 566.664,-278.608 575.22,-232.492"/>
<polygon fill="black" stroke="black" points="576.452,-225.523 578.335,-232.964 575.842,-228.97 575.233,-232.416 575.233,-232.416 575.233,-232.416 575.842,-228.97 572.131,-231.868 576.452,-225.523 576.452,-225.523"/>
<text text-anchor="middle" x="360" y="-375.951" font-family="Lato" font-size="12.00">a &amp; !b</text>
</g>
<!-- 5 -->
<g id="node6" class="node"><title>5</title>
<ellipse fill="#ffffa0" stroke="black" cx="475" cy="-158.551" rx="27" ry="18"/>
<text text-anchor="middle" x="475" y="-155.451" font-family="Lato" font-size="12.00">1</text>
</g>
<!-- 1&#45;&gt;5 -->
<g id="edge5" class="edge"><title>1&#45;&gt;5</title>
<path fill="none" stroke="black" d="M143.123,-312.426C192.522,-325.052 307.254,-346.801 387,-302.551 410.683,-289.41 445.711,-219.735 463.217,-182.334"/>
<polygon fill="black" stroke="black" points="466.275,-175.747 466.185,-183.423 464.802,-178.922 463.328,-182.096 463.328,-182.096 463.328,-182.096 464.802,-178.922 460.471,-180.77 466.275,-175.747 466.275,-175.747"/>
<text text-anchor="middle" x="298" y="-331.951" font-family="Lato" font-size="12.00">!a &amp; !b</text>
</g>
<!-- 2&#45;&gt;2 -->
<g id="edge9" class="edge"><title>2&#45;&gt;2</title>
<path fill="none" stroke="black" d="M225.722,-179.588C223.625,-189.409 227.051,-198.551 236,-198.551 242.712,-198.551 246.317,-193.409 246.815,-186.694"/>
<polygon fill="black" stroke="black" points="246.278,-179.588 249.947,-186.331 246.542,-183.078 246.806,-186.568 246.806,-186.568 246.806,-186.568 246.542,-183.078 243.665,-186.806 246.278,-179.588 246.278,-179.588"/>
<text text-anchor="middle" x="236" y="-214.951" font-family="Lato" font-size="12.00">{}</text>
<text text-anchor="middle" x="236" y="-201.951" font-family="Lato" font-size="12.00">{0,1}</text>
</g>
<!-- 2&#45;&gt;3 -->
<g id="edge6" class="edge"><title>2&#45;&gt;3</title>
<path fill="none" stroke="black" d="M260.863,-170.014C277.038,-175.752 298.408,-184.707 315,-196.551 325.21,-203.84 334.836,-213.828 342.466,-222.807"/>
<polygon fill="black" stroke="black" points="346.946,-228.234 340.06,-224.841 344.718,-225.535 342.49,-222.836 342.49,-222.836 342.49,-222.836 344.718,-225.535 344.919,-220.83 346.946,-228.234 346.946,-228.234"/>
<text text-anchor="middle" x="298" y="-212.951" font-family="Lato" font-size="12.00">{a}</text>
<text text-anchor="middle" x="298" y="-199.951" font-family="Lato" font-size="12.00">{0,1}</text>
</g>
<!-- 2&#45;&gt;4 -->
<g id="edge7" class="edge"><title>2&#45;&gt;4</title>
<path fill="none" stroke="black" d="M238.411,-144.396C241.47,-117.747 251.074,-68.2151 281,-40.5511 330.878,5.5566 362.907,4.04096 430,-6.55106 478.452,-14.2002 501.291,-4.91623 535,-40.5511 571.933,-79.594 578.717,-145.837 579.466,-182.048"/>
<polygon fill="black" stroke="black" points="579.542,-189.299 576.318,-182.332 579.505,-185.799 579.468,-182.299 579.468,-182.299 579.468,-182.299 579.505,-185.799 582.618,-182.266 579.542,-189.299 579.542,-189.299"/>
<text text-anchor="middle" x="417.5" y="-22.9511" font-family="Lato" font-size="12.00">{b}</text>
<text text-anchor="middle" x="417.5" y="-9.95106" font-family="Lato" font-size="12.00">{0,1}</text>
</g>
<!-- 2&#45;&gt;5 -->
<g id="edge8" class="edge"><title>2&#45;&gt;5</title>
<path fill="none" stroke="black" d="M255.484,-150.031C274.116,-138.226 304.165,-121.358 333,-114.551 375.674,-104.477 390.81,-112.886 430,-132.551 436.057,-135.59 442.416,-139.13 448.358,-142.602"/>
<polygon fill="black" stroke="black" points="454.608,-146.315 446.981,-145.447 451.599,-144.527 448.59,-142.739 448.59,-142.739 448.59,-142.739 451.599,-144.527 450.199,-140.031 454.608,-146.315 454.608,-146.315"/>
<text text-anchor="middle" x="360" y="-130.951" font-family="Lato" font-size="12.00">{a, b}</text>
<text text-anchor="middle" x="360" y="-117.951" font-family="Lato" font-size="12.00">{0,1}</text>
</g>
<!-- 3&#45;&gt;2 -->
<g id="edge10" class="edge"><title>3&#45;&gt;2</title>
<path fill="none" stroke="black" d="M333.295,-241.646C317.136,-238.821 296.491,-233.297 281,-222.551 267.533,-213.209 256.607,-198.388 249.011,-185.815"/>
<polygon fill="black" stroke="black" points="245.346,-179.485 251.58,-183.965 247.1,-182.514 248.854,-185.543 248.854,-185.543 248.854,-185.543 247.1,-182.514 246.127,-187.121 245.346,-179.485 245.346,-179.485"/>
<text text-anchor="middle" x="298" y="-252.951" font-family="Lato" font-size="12.00">{a}</text>
<text text-anchor="middle" x="298" y="-239.951" font-family="Lato" font-size="12.00">{1}</text>
</g>
<!-- 3&#45;&gt;3 -->
<g id="edge13" class="edge"><title>3&#45;&gt;3</title>
<path fill="none" stroke="black" d="M350.077,-261.588C348.052,-271.409 351.359,-280.551 360,-280.551 366.48,-280.551 369.961,-275.409 370.442,-268.694"/>
<polygon fill="black" stroke="black" points="369.923,-261.588 373.575,-268.34 370.178,-265.079 370.433,-268.57 370.433,-268.57 370.433,-268.57 370.178,-265.079 367.292,-268.799 369.923,-261.588 369.923,-261.588"/>
<text text-anchor="middle" x="360" y="-283.951" font-family="Lato" font-size="12.00">{}</text>
</g>
<!-- 3&#45;&gt;4 -->
<g id="edge11" class="edge"><title>3&#45;&gt;4</title>
<path fill="none" stroke="black" d="M387.311,-244.522C400.222,-244.225 415.978,-243.44 430,-241.551 471.385,-235.976 518.199,-224.406 548.126,-216.318"/>
<polygon fill="black" stroke="black" points="554.987,-214.445 549.063,-219.328 551.61,-215.367 548.234,-216.289 548.234,-216.289 548.234,-216.289 551.61,-215.367 547.404,-213.25 554.987,-214.445 554.987,-214.445"/>
<text text-anchor="middle" x="475" y="-254.951" font-family="Lato" font-size="12.00">{a, b}</text>
<text text-anchor="middle" x="475" y="-241.951" font-family="Lato" font-size="12.00">{1}</text>
</g>
<!-- 3&#45;&gt;5 -->
<g id="edge12" class="edge"><title>3&#45;&gt;5</title>
<path fill="none" stroke="black" d="M379.001,-231.515C393.001,-221.311 412.861,-206.695 430,-193.551 437.019,-188.168 444.583,-182.21 451.426,-176.759"/>
<polygon fill="black" stroke="black" points="456.977,-172.323 453.475,-179.154 454.242,-174.508 451.508,-176.693 451.508,-176.693 451.508,-176.693 454.242,-174.508 449.542,-174.232 456.977,-172.323 456.977,-172.323"/>
<text text-anchor="middle" x="417.5" y="-227.951" font-family="Lato" font-size="12.00">{b}</text>
<text text-anchor="middle" x="417.5" y="-214.951" font-family="Lato" font-size="12.00">{1}</text>
</g>
<!-- 4&#45;&gt;2 -->
<g id="edge14" class="edge"><title>4&#45;&gt;2</title>
<path fill="none" stroke="black" d="M568.414,-191.052C560.244,-179.149 548.143,-163.192 535,-151.551 494.598,-115.768 482.173,-104.364 430,-90.5511 365.089,-73.3649 339.647,-82.8502 281,-115.551 270.005,-121.682 260.168,-131.515 252.599,-140.606"/>
<polygon fill="black" stroke="black" points="248.188,-146.131 250.094,-138.695 250.372,-143.396 252.555,-140.66 252.555,-140.66 252.555,-140.66 250.372,-143.396 255.017,-142.626 248.188,-146.131 248.188,-146.131"/>
<text text-anchor="middle" x="417.5" y="-106.951" font-family="Lato" font-size="12.00">{b}</text>
<text text-anchor="middle" x="417.5" y="-93.9511" font-family="Lato" font-size="12.00">{0}</text>
</g>
<!-- 4&#45;&gt;3 -->
<g id="edge15" class="edge"><title>4&#45;&gt;3</title>
<path fill="none" stroke="black" d="M565.509,-223.067C551.406,-237.995 527.771,-259.58 502,-268.551 464.224,-281.701 418.16,-268.799 389.196,-257.425"/>
<polygon fill="black" stroke="black" points="382.572,-254.733 390.243,-254.45 385.815,-256.051 389.057,-257.369 389.057,-257.369 389.057,-257.369 385.815,-256.051 387.871,-260.287 382.572,-254.733 382.572,-254.733"/>
<text text-anchor="middle" x="475" y="-289.951" font-family="Lato" font-size="12.00">{a, b}</text>
<text text-anchor="middle" x="475" y="-276.951" font-family="Lato" font-size="12.00">{0}</text>
</g>
<!-- 4&#45;&gt;4 -->
<g id="edge17" class="edge"><title>4&#45;&gt;4</title>
<path fill="none" stroke="black" d="M570.786,-224.588C568.905,-234.409 571.977,-243.551 580,-243.551 586.018,-243.551 589.25,-238.409 589.696,-231.694"/>
<polygon fill="black" stroke="black" points="589.214,-224.588 592.831,-231.359 589.451,-228.08 589.688,-231.572 589.688,-231.572 589.688,-231.572 589.451,-228.08 586.545,-231.785 589.214,-224.588 589.214,-224.588"/>
<text text-anchor="middle" x="580" y="-246.951" font-family="Lato" font-size="12.00">{}</text>
</g>
<!-- 4&#45;&gt;5 -->
<g id="edge16" class="edge"><title>4&#45;&gt;5</title>
<path fill="none" stroke="black" d="M568.975,-190.917C561.239,-179.793 549.432,-166.046 535,-159.551 526.818,-155.869 517.328,-154.589 508.383,-154.499"/>
<polygon fill="black" stroke="black" points="501.362,-154.658 508.289,-151.35 504.861,-154.579 508.36,-154.499 508.36,-154.499 508.36,-154.499 504.861,-154.579 508.432,-157.648 501.362,-154.658 501.362,-154.658"/>
<text text-anchor="middle" x="527.5" y="-175.951" font-family="Lato" font-size="12.00">{a}</text>
<text text-anchor="middle" x="527.5" y="-162.951" font-family="Lato" font-size="12.00">{0}</text>
</g>
<!-- 5&#45;&gt;2 -->
<g id="edge18" class="edge"><title>5&#45;&gt;2</title>
<path fill="none" stroke="black" d="M447.975,-158.99C404.691,-159.721 317.964,-161.185 270.291,-161.989"/>
<polygon fill="black" stroke="black" points="263.269,-162.108 270.214,-158.84 266.768,-162.049 270.268,-161.989 270.268,-161.989 270.268,-161.989 266.768,-162.049 270.321,-165.139 263.269,-162.108 263.269,-162.108"/>
<text text-anchor="middle" x="360" y="-163.951" font-family="Lato" font-size="12.00">{a, b}</text>
</g>
<!-- 5&#45;&gt;3 -->
<g id="edge19" class="edge"><title>5&#45;&gt;3</title>
<path fill="none" stroke="black" d="M448.14,-160.746C434.287,-162.982 417.542,-167.486 405,-176.551 389.682,-187.623 378.319,-205.814 370.982,-220.597"/>
<polygon fill="black" stroke="black" points="367.894,-227.111 368.046,-219.436 369.393,-223.948 370.892,-220.786 370.892,-220.786 370.892,-220.786 369.393,-223.948 373.738,-222.135 367.894,-227.111 367.894,-227.111"/>
<text text-anchor="middle" x="417.5" y="-179.951" font-family="Lato" font-size="12.00">{b}</text>
</g>
<!-- 5&#45;&gt;4 -->
<g id="edge20" class="edge"><title>5&#45;&gt;4</title>
<path fill="none" stroke="black" d="M494.821,-171.209C502.449,-176.043 511.461,-181.388 520,-185.551 529.093,-189.985 539.322,-194.087 548.677,-197.52"/>
<polygon fill="black" stroke="black" points="555.305,-199.895 547.653,-200.499 552.011,-198.714 548.716,-197.534 548.716,-197.534 548.716,-197.534 552.011,-198.714 549.779,-194.568 555.305,-199.895 555.305,-199.895"/>
<text text-anchor="middle" x="527.5" y="-194.951" font-family="Lato" font-size="12.00">{a}</text>
</g>
<!-- 5&#45;&gt;5 -->
<g id="edge21" class="edge"><title>5&#45;&gt;5</title>
<path fill="none" stroke="black" d="M465.786,-175.588C463.905,-185.409 466.977,-194.551 475,-194.551 481.018,-194.551 484.25,-189.409 484.696,-182.694"/>
<polygon fill="black" stroke="black" points="484.214,-175.588 487.831,-182.359 484.451,-179.08 484.688,-182.572 484.688,-182.572 484.688,-182.572 484.451,-179.08 481.545,-182.785 484.214,-175.588 484.214,-175.588"/>
<text text-anchor="middle" x="475" y="-197.951" font-family="Lato" font-size="12.00">{}</text>
</g>
</g>
</svg>
