<?xml version="1.0" encoding="UTF-8" standalone="no"?>
<?xml-stylesheet href="spot.css" type="text/css"?>
<!DOCTYPE svg PUBLIC "-//W3C//DTD SVG 1.1//EN"
 "http://www.w3.org/Graphics/SVG/1.1/DTD/svg11.dtd">
<!-- Generated by graphviz version 2.38.0 (20140413.2041)
 -->
<!-- Title: G Pages: 1 -->
<svg width="397pt" height="264pt"
 viewBox="0.00 0.00 397.00 263.79" xmlns="http://www.w3.org/2000/svg" xmlns:xlink="http://www.w3.org/1999/xlink">
<g id="graph0" class="graph" transform="scale(1 1) rotate(0) translate(4 259.79)">
<title>G</title>
<polygon fill="white" stroke="none" points="-4,4 -4,-259.79 393,-259.79 393,4 -4,4"/>
<!-- I -->
<!-- 0 -->
<g id="node2" class="node"><title>0</title>
<ellipse fill="#ffffa0" stroke="black" cx="56" cy="-61.7903" rx="18" ry="18"/>
<text text-anchor="middle" x="56" y="-58.6903" font-family="Lato" font-size="12.00">0</text>
</g>
<!-- I&#45;&gt;0 -->
<g id="edge1" class="edge"><title>I&#45;&gt;0</title>
<path fill="none" stroke="black" d="M1.15491,-61.7903C2.79388,-61.7903 17.1543,-61.7903 30.6317,-61.7903"/>
<polygon fill="black" stroke="black" points="37.9419,-61.7903 30.9419,-64.9404 34.4419,-61.7904 30.9419,-61.7904 30.9419,-61.7904 30.9419,-61.7904 34.4419,-61.7904 30.9418,-58.6404 37.9419,-61.7903 37.9419,-61.7903"/>
</g>
<!-- 0&#45;&gt;0 -->
<g id="edge2" class="edge"><title>0&#45;&gt;0</title>
<path fill="none" stroke="black" d="M49.6208,-78.8276C48.3189,-88.6482 50.4453,-97.7903 56,-97.7903 60.166,-97.7903 62.4036,-92.6479 62.7128,-85.9336"/>
<polygon fill="black" stroke="black" points="62.3792,-78.8276 65.8541,-85.6722 62.5434,-82.3238 62.7076,-85.8199 62.7076,-85.8199 62.7076,-85.8199 62.5434,-82.3238 59.561,-85.9677 62.3792,-78.8276 62.3792,-78.8276"/>
<text text-anchor="start" x="42" y="-113.19" font-family="Lato" font-size="12.00">a &amp; b</text>
<text text-anchor="start" x="42" y="-101.19" font-family="Lato" font-size="12.00" fill="#1f78b4">⓿</text>
<text text-anchor="start" x="56" y="-101.19" font-family="Lato" font-size="12.00" fill="#ff4da0">❶</text>
</g>
<!-- 1 -->
<g id="node3" class="node"><title>1</title>
<ellipse fill="#ffffa0" stroke="black" cx="159" cy="-161.79" rx="18" ry="18"/>
<text text-anchor="middle" x="159" y="-158.69" font-family="Lato" font-size="12.00">1</text>
</g>
<!-- 0&#45;&gt;1 -->
<g id="edge3" class="edge"><title>0&#45;&gt;1</title>
<path fill="none" stroke="black" d="M59.4346,-79.5787C63.0587,-99.0242 71.7692,-129.687 92,-146.79 103.508,-156.52 120.05,-160.265 133.694,-161.581"/>
<polygon fill="black" stroke="black" points="140.926,-162.084 133.724,-164.741 137.434,-161.841 133.943,-161.598 133.943,-161.598 133.943,-161.598 137.434,-161.841 134.161,-158.456 140.926,-162.084 140.926,-162.084"/>
<text text-anchor="start" x="92" y="-175.19" font-family="Lato" font-size="12.00">!a &amp; b</text>
<text text-anchor="start" x="93.5" y="-163.19" font-family="Lato" font-size="12.00" fill="#1f78b4">⓿</text>
<text text-anchor="start" x="107.5" y="-163.19" font-family="Lato" font-size="12.00" fill="#ff4da0">❶</text>
</g>
<!-- 2 -->
<g id="node4" class="node"><title>2</title>
<ellipse fill="#ffffa0" stroke="black" cx="371" cy="-98.7903" rx="18" ry="18"/>
<text text-anchor="middle" x="371" y="-95.6903" font-family="Lato" font-size="12.00">2</text>
</g>
<!-- 0&#45;&gt;2 -->
<g id="edge4" class="edge"><title>0&#45;&gt;2</title>
<path fill="none" stroke="black" d="M73.1714,-55.8212C103.707,-45.3311 171.914,-25.6218 229,-35.7903 278.421,-44.5934 290.4,-51.7516 335,-74.7903 340.155,-77.4532 345.45,-80.7489 350.312,-84.036"/>
<polygon fill="black" stroke="black" points="356.195,-88.1469 348.653,-86.7194 353.326,-86.1421 350.457,-84.1373 350.457,-84.1373 350.457,-84.1373 353.326,-86.1421 352.261,-81.5553 356.195,-88.1469 356.195,-88.1469"/>
<text text-anchor="start" x="196.5" y="-51.1903" font-family="Lato" font-size="12.00">a &amp; !b</text>
<text text-anchor="start" x="198" y="-39.1903" font-family="Lato" font-size="12.00" fill="#1f78b4">⓿</text>
<text text-anchor="start" x="212" y="-39.1903" font-family="Lato" font-size="12.00" fill="#ff4da0">❶</text>
</g>
<!-- 3 -->
<g id="node5" class="node"><title>3</title>
<ellipse fill="#ffffa0" stroke="black" cx="265" cy="-98.7903" rx="18" ry="18"/>
<text text-anchor="middle" x="265" y="-95.6903" font-family="Lato" font-size="12.00">3</text>
</g>
<!-- 0&#45;&gt;3 -->
<g id="edge5" class="edge"><title>0&#45;&gt;3</title>
<path fill="none" stroke="black" d="M73.9397,-64.8182C110.648,-71.3797 197.632,-86.9274 239.99,-94.4987"/>
<polygon fill="black" stroke="black" points="247.117,-95.7725 239.671,-97.6416 243.671,-95.1566 240.226,-94.5407 240.226,-94.5407 240.226,-94.5407 243.671,-95.1566 240.78,-91.4399 247.117,-95.7725 247.117,-95.7725"/>
<text text-anchor="start" x="142" y="-97.1903" font-family="Lato" font-size="12.00">!a &amp; !b</text>
<text text-anchor="start" x="145" y="-85.1903" font-family="Lato" font-size="12.00" fill="#1f78b4">⓿</text>
<text text-anchor="start" x="159" y="-85.1903" font-family="Lato" font-size="12.00" fill="#ff4da0">❶</text>
</g>
<!-- 1&#45;&gt;0 -->
<g id="edge6" class="edge"><title>1&#45;&gt;0</title>
<path fill="none" stroke="black" d="M148.464,-146.896C142.011,-137.548 132.885,-125.633 123,-116.79 110.956,-106.016 104.619,-107.884 92,-97.7903 85.5374,-92.621 79.0546,-86.3347 73.4554,-80.4709"/>
<polygon fill="black" stroke="black" points="68.5875,-75.2486 75.6647,-78.2212 70.974,-77.8088 73.3605,-80.3691 73.3605,-80.3691 73.3605,-80.3691 70.974,-77.8088 71.0563,-82.5169 68.5875,-75.2486 68.5875,-75.2486"/>
<text text-anchor="start" x="93.5" y="-133.19" font-family="Lato" font-size="12.00">a &amp; b</text>
<text text-anchor="start" x="100.5" y="-120.19" font-family="Lato" font-size="12.00" fill="#ff4da0">❶</text>
</g>
<!-- 1&#45;&gt;1 -->
<g id="edge7" class="edge"><title>1&#45;&gt;1</title>
<path fill="none" stroke="black" d="M150.367,-177.706C148.114,-187.941 150.992,-197.79 159,-197.79 165.131,-197.79 168.255,-192.017 168.372,-184.717"/>
<polygon fill="black" stroke="black" points="167.633,-177.706 171.499,-184.338 168,-181.187 168.367,-184.668 168.367,-184.668 168.367,-184.668 168,-181.187 165.234,-184.998 167.633,-177.706 167.633,-177.706"/>
<text text-anchor="start" x="143.5" y="-214.19" font-family="Lato" font-size="12.00">!a &amp; b</text>
<text text-anchor="start" x="152" y="-201.19" font-family="Lato" font-size="12.00" fill="#ff4da0">❶</text>
</g>
<!-- 1&#45;&gt;2 -->
<g id="edge8" class="edge"><title>1&#45;&gt;2</title>
<path fill="none" stroke="black" d="M167.733,-177.584C173.772,-188.38 183.127,-202.233 195,-210.79 227.249,-234.034 243.69,-232.701 283,-226.79 306.912,-223.195 317.864,-227.851 335,-210.79 358.257,-187.635 366.103,-149.27 368.725,-124.008"/>
<polygon fill="black" stroke="black" points="369.358,-116.937 371.871,-124.19 369.046,-120.423 368.734,-123.909 368.734,-123.909 368.734,-123.909 369.046,-120.423 365.596,-123.628 369.358,-116.937 369.358,-116.937"/>
<text text-anchor="start" x="249.5" y="-246.19" font-family="Lato" font-size="12.00">a &amp; !b</text>
<text text-anchor="start" x="258" y="-233.19" font-family="Lato" font-size="12.00" fill="#ff4da0">❶</text>
</g>
<!-- 1&#45;&gt;3 -->
<g id="edge9" class="edge"><title>1&#45;&gt;3</title>
<path fill="none" stroke="black" d="M176.515,-157.148C191.088,-152.587 212.514,-144.72 229,-133.79 235.8,-129.282 242.37,-123.304 247.945,-117.567"/>
<polygon fill="black" stroke="black" points="252.764,-112.414 250.283,-119.678 250.373,-114.97 247.982,-117.527 247.982,-117.527 247.982,-117.527 250.373,-114.97 245.682,-115.375 252.764,-112.414 252.764,-112.414"/>
<text text-anchor="start" x="195" y="-166.19" font-family="Lato" font-size="12.00">!a &amp; !b</text>
<text text-anchor="start" x="205" y="-153.19" font-family="Lato" font-size="12.00" fill="#ff4da0">❶</text>
</g>
<!-- 2&#45;&gt;0 -->
<g id="edge10" class="edge"><title>2&#45;&gt;0</title>
<path fill="none" stroke="black" d="M361.13,-83.6044C354.822,-73.8235 345.607,-61.3778 335,-52.7903 294.515,-20.0142 279.829,-14.1768 229,-2.79031 172.395,9.89004 108.435,-26.0296 76.8411,-47.3145"/>
<polygon fill="black" stroke="black" points="70.9657,-51.3576 74.9466,-44.7944 73.849,-49.3735 76.7323,-47.3894 76.7323,-47.3894 76.7323,-47.3894 73.849,-49.3735 78.518,-49.9843 70.9657,-51.3576 70.9657,-51.3576"/>
<text text-anchor="start" x="198" y="-19.1903" font-family="Lato" font-size="12.00">a &amp; b</text>
<text text-anchor="start" x="205" y="-6.19031" font-family="Lato" font-size="12.00" fill="#1f78b4">⓿</text>
</g>
<!-- 2&#45;&gt;1 -->
<g id="edge11" class="edge"><title>2&#45;&gt;1</title>
<path fill="none" stroke="black" d="M357.242,-110.887C350.832,-116.657 342.787,-123.448 335,-128.79 291.889,-158.365 280.224,-169.336 229,-179.79 214.194,-182.812 209.687,-183.346 195,-179.79 190.27,-178.645 185.463,-176.744 180.988,-174.597"/>
<polygon fill="black" stroke="black" points="174.717,-171.333 182.38,-171.77 177.822,-172.948 180.926,-174.564 180.926,-174.564 180.926,-174.564 177.822,-172.948 179.472,-177.359 174.717,-171.333 174.717,-171.333"/>
<text text-anchor="start" x="249.5" y="-191.19" font-family="Lato" font-size="12.00">!a &amp; b</text>
<text text-anchor="start" x="258" y="-178.19" font-family="Lato" font-size="12.00" fill="#1f78b4">⓿</text>
</g>
<!-- 2&#45;&gt;2 -->
<g id="edge12" class="edge"><title>2&#45;&gt;2</title>
<path fill="none" stroke="black" d="M362.021,-114.706C359.679,-124.941 362.672,-134.79 371,-134.79 377.376,-134.79 380.625,-129.017 380.746,-121.717"/>
<polygon fill="black" stroke="black" points="379.979,-114.706 383.872,-121.322 380.36,-118.186 380.741,-121.665 380.741,-121.665 380.741,-121.665 380.36,-118.186 377.61,-122.008 379.979,-114.706 379.979,-114.706"/>
<text text-anchor="start" x="355.5" y="-151.19" font-family="Lato" font-size="12.00">a &amp; !b</text>
<text text-anchor="start" x="364" y="-138.19" font-family="Lato" font-size="12.00" fill="#1f78b4">⓿</text>
</g>
<!-- 2&#45;&gt;3 -->
<g id="edge13" class="edge"><title>2&#45;&gt;3</title>
<path fill="none" stroke="black" d="M352.801,-98.7903C335.78,-98.7903 309.565,-98.7903 290.396,-98.7903"/>
<polygon fill="black" stroke="black" points="283.173,-98.7903 290.174,-95.6404 286.673,-98.7904 290.173,-98.7904 290.173,-98.7904 290.173,-98.7904 286.673,-98.7904 290.173,-101.94 283.173,-98.7903 283.173,-98.7903"/>
<text text-anchor="start" x="301" y="-115.19" font-family="Lato" font-size="12.00">!a &amp; !b</text>
<text text-anchor="start" x="311" y="-102.19" font-family="Lato" font-size="12.00" fill="#1f78b4">⓿</text>
</g>
<!-- 3&#45;&gt;0 -->
<g id="edge14" class="edge"><title>3&#45;&gt;0</title>
<path fill="none" stroke="black" d="M249.27,-89.8249C232.483,-80.1824 203.883,-65.4703 177,-59.7903 144.299,-52.8813 105.465,-55.4157 81.0221,-58.2718"/>
<polygon fill="black" stroke="black" points="73.9211,-59.1584 80.4769,-55.1653 77.3942,-58.7248 80.8672,-58.2911 80.8672,-58.2911 80.8672,-58.2911 77.3942,-58.7248 81.2575,-61.4168 73.9211,-59.1584 73.9211,-59.1584"/>
<text text-anchor="start" x="145" y="-63.1903" font-family="Lato" font-size="12.00">a &amp; b</text>
</g>
<!-- 3&#45;&gt;1 -->
<g id="edge15" class="edge"><title>3&#45;&gt;1</title>
<path fill="none" stroke="black" d="M246.87,-100.164C232.093,-102.034 210.715,-106.439 195,-116.79 186.042,-122.691 178.396,-131.66 172.557,-140.043"/>
<polygon fill="black" stroke="black" points="168.452,-146.278 169.67,-138.699 170.376,-143.354 172.301,-140.431 172.301,-140.431 172.301,-140.431 170.376,-143.354 174.932,-142.163 168.452,-146.278 168.452,-146.278"/>
<text text-anchor="start" x="196.5" y="-120.19" font-family="Lato" font-size="12.00">!a &amp; b</text>
</g>
<!-- 3&#45;&gt;2 -->
<g id="edge16" class="edge"><title>3&#45;&gt;2</title>
<path fill="none" stroke="black" d="M280.78,-89.7737C286.822,-86.5859 294.022,-83.3954 301,-81.7903 315.727,-78.4031 320.273,-78.4031 335,-81.7903 339.58,-82.8436 344.255,-84.5798 348.635,-86.5498"/>
<polygon fill="black" stroke="black" points="355.22,-89.7737 347.548,-89.5249 352.077,-88.2347 348.933,-86.6957 348.933,-86.6957 348.933,-86.6957 352.077,-88.2347 350.318,-83.8665 355.22,-89.7737 355.22,-89.7737"/>
<text text-anchor="start" x="302.5" y="-85.1903" font-family="Lato" font-size="12.00">a &amp; !b</text>
</g>
<!-- 3&#45;&gt;3 -->
<g id="edge17" class="edge"><title>3&#45;&gt;3</title>
<path fill="none" stroke="black" d="M256.021,-114.706C253.679,-124.941 256.672,-134.79 265,-134.79 271.376,-134.79 274.625,-129.017 274.746,-121.717"/>
<polygon fill="black" stroke="black" points="273.979,-114.706 277.872,-121.322 274.36,-118.186 274.741,-121.665 274.741,-121.665 274.741,-121.665 274.36,-118.186 271.61,-122.008 273.979,-114.706 273.979,-114.706"/>
<text text-anchor="start" x="248" y="-138.19" font-family="Lato" font-size="12.00">!a &amp; !b</text>
</g>
</g>
</svg>
