<?xml version="1.0" encoding="UTF-8" standalone="no"?>
<?xml-stylesheet href="spot.css" type="text/css"?>
<!DOCTYPE svg PUBLIC "-//W3C//DTD SVG 1.1//EN"
 "http://www.w3.org/Graphics/SVG/1.1/DTD/svg11.dtd">
<!-- Generated by graphviz version 2.38.0 (20140413.2041)
 -->
<!-- Title: G Pages: 1 -->
<svg width="82pt" height="119pt"
 viewBox="0.00 0.00 82.00 119.00" xmlns="http://www.w3.org/2000/svg" xmlns:xlink="http://www.w3.org/1999/xlink">
<g id="graph0" class="graph" transform="scale(1 1) rotate(0) translate(4 115)">
<title>G</title>
<polygon fill="white" stroke="none" points="-4,4 -4,-115 78,-115 78,4 -4,4"/>
<!-- I -->
<!-- 0 -->
<g id="node2" class="node"><title>0</title>
<ellipse fill="#ffffa0" stroke="black" cx="56" cy="-18" rx="18" ry="18"/>
<text text-anchor="middle" x="56" y="-14.9" font-family="Lato" font-size="12.00">0</text>
</g>
<!-- I&#45;&gt;0 -->
<g id="edge1" class="edge"><title>I&#45;&gt;0</title>
<path fill="none" stroke="black" d="M1.15491,-18C2.79388,-18 17.1543,-18 30.6317,-18"/>
<polygon fill="black" stroke="black" points="37.9419,-18 30.9419,-21.1501 34.4419,-18 30.9419,-18.0001 30.9419,-18.0001 30.9419,-18.0001 34.4419,-18 30.9418,-14.8501 37.9419,-18 37.9419,-18"/>
</g>
<!-- 0&#45;&gt;0 -->
<g id="edge2" class="edge"><title>0&#45;&gt;0</title>
<path fill="none" stroke="black" d="M52.7643,-35.7817C52.2144,-45.3149 53.293,-54 56,-54 57.988,-54 59.0977,-49.3161 59.3292,-43.0521"/>
<polygon fill="black" stroke="black" points="59.2357,-35.7817 62.4756,-42.7406 59.2808,-39.2814 59.3258,-42.7812 59.3258,-42.7812 59.3258,-42.7812 59.2808,-39.2814 56.1761,-42.8217 59.2357,-35.7817 59.2357,-35.7817"/>
<text text-anchor="start" x="51" y="-57.4" font-family="Lato" font-size="12.00">!a</text>
</g>
<!-- 0&#45;&gt;0 -->
<g id="edge3" class="edge"><title>0&#45;&gt;0</title>
<path fill="none" stroke="black" d="M50.6841,-35.4203C47.6538,-52.791 49.4258,-72 56,-72 61.7011,-72 63.7908,-57.5545 62.2691,-42.3894"/>
<polygon fill="black" stroke="black" points="61.3159,-35.4203 65.3856,-41.9288 61.7902,-38.888 62.2646,-42.3557 62.2646,-42.3557 62.2646,-42.3557 61.7902,-38.888 59.1437,-42.7826 61.3159,-35.4203 61.3159,-35.4203"/>
<text text-anchor="start" x="52.5" y="-88.4" font-family="Lato" font-size="12.00">a</text>
<text text-anchor="start" x="49" y="-75.4" font-family="Lato" font-size="12.00" fill="#1f78b4">⓿</text>
</g>
</g>
</svg>
