<?xml version="1.0" encoding="UTF-8" standalone="no"?>
<?xml-stylesheet href="spot.css" type="text/css"?>
<!DOCTYPE svg PUBLIC "-//W3C//DTD SVG 1.1//EN"
 "http://www.w3.org/Graphics/SVG/1.1/DTD/svg11.dtd">
<!-- Generated by graphviz version 2.38.0 (20140413.2041)
 -->
<!-- Title: G Pages: 1 -->
<svg width="354pt" height="101pt"
 viewBox="0.00 0.00 354.00 101.00" xmlns="http://www.w3.org/2000/svg" xmlns:xlink="http://www.w3.org/1999/xlink">
<g id="graph0" class="graph" transform="scale(1 1) rotate(0) translate(4 97)">
<title>G</title>
<polygon fill="white" stroke="none" points="-4,4 -4,-97 350,-97 350,4 -4,4"/>
<!-- I -->
<!-- 1 -->
<g id="node2" class="node"><title>1</title>
<ellipse fill="#ffffa0" stroke="black" cx="56" cy="-75" rx="18" ry="18"/>
<text text-anchor="middle" x="56" y="-71.9" font-family="Lato" font-size="12.00">1</text>
</g>
<!-- I&#45;&gt;1 -->
<g id="edge1" class="edge"><title>I&#45;&gt;1</title>
<path fill="none" stroke="black" d="M1.15491,-75C2.79388,-75 17.1543,-75 30.6317,-75"/>
<polygon fill="black" stroke="black" points="37.9419,-75 30.9419,-78.1501 34.4419,-75 30.9419,-75.0001 30.9419,-75.0001 30.9419,-75.0001 34.4419,-75 30.9418,-71.8501 37.9419,-75 37.9419,-75"/>
</g>
<!-- 0 -->
<g id="node3" class="node"><title>0</title>
<ellipse fill="#ffffa0" stroke="black" cx="241" cy="-67" rx="18" ry="18"/>
<text text-anchor="middle" x="241" y="-63.9" font-family="Lato" font-size="12.00">0</text>
</g>
<!-- 1&#45;&gt;0 -->
<g id="edge3" class="edge"><title>1&#45;&gt;0</title>
<path fill="none" stroke="black" d="M74.0683,-75.3601C86.0749,-75.5949 102.519,-75.8793 117,-76 132.999,-76.1333 137.021,-76.8243 153,-76 174.363,-74.898 198.56,-72.2834 216.002,-70.1547"/>
<polygon fill="black" stroke="black" points="223.036,-69.278 216.48,-73.2697 219.563,-69.7109 216.09,-70.1439 216.09,-70.1439 216.09,-70.1439 219.563,-69.7109 215.7,-67.0181 223.036,-69.278 223.036,-69.278"/>
<text text-anchor="start" x="130" y="-79.4" font-family="Lato" font-size="12.00">!a</text>
</g>
<!-- 2 -->
<g id="node5" class="node"><title>2</title>
<ellipse fill="#ffffa0" stroke="black" cx="135" cy="-18" rx="18" ry="18"/>
<text text-anchor="middle" x="135" y="-14.9" font-family="Lato" font-size="12.00">2</text>
</g>
<!-- 1&#45;&gt;2 -->
<g id="edge4" class="edge"><title>1&#45;&gt;2</title>
<path fill="none" stroke="black" d="M71.123,-64.5453C83.1711,-55.6266 100.63,-42.7027 114.095,-32.7351"/>
<polygon fill="black" stroke="black" points="119.967,-28.3884 116.215,-35.0851 117.153,-30.4708 114.34,-32.5533 114.34,-32.5533 114.34,-32.5533 117.153,-30.4708 112.466,-30.0215 119.967,-28.3884 119.967,-28.3884"/>
<text text-anchor="start" x="92" y="-51.4" font-family="Lato" font-size="12.00">a</text>
</g>
<!-- 3 -->
<g id="node4" class="node"><title>3</title>
<ellipse fill="#ffffa0" stroke="black" cx="324" cy="-38" rx="18" ry="18"/>
<ellipse fill="none" stroke="black" cx="324" cy="-38" rx="22" ry="22"/>
<text text-anchor="middle" x="324" y="-34.9" font-family="Lato" font-size="12.00">3</text>
</g>
<!-- 0&#45;&gt;3 -->
<g id="edge2" class="edge"><title>0&#45;&gt;3</title>
<path fill="none" stroke="black" d="M258.392,-61.1314C269.235,-57.2493 283.703,-52.0693 296.199,-47.5954"/>
<polygon fill="black" stroke="black" points="302.903,-45.1953 297.374,-50.5205 299.608,-46.3751 296.312,-47.5549 296.312,-47.5549 296.312,-47.5549 299.608,-46.3751 295.251,-44.5892 302.903,-45.1953 302.903,-45.1953"/>
<text text-anchor="start" x="277" y="-57.4" font-family="Lato" font-size="12.00">b</text>
</g>
<!-- 3&#45;&gt;3 -->
<g id="edge8" class="edge"><title>3&#45;&gt;3</title>
<path fill="none" stroke="black" d="M316.317,-58.9908C315.369,-69.0872 317.93,-78 324,-78 328.553,-78 331.131,-72.9866 331.736,-66.2204"/>
<polygon fill="black" stroke="black" points="331.683,-58.9908 334.884,-65.9673 331.709,-62.4907 331.734,-65.9906 331.734,-65.9906 331.734,-65.9906 331.709,-62.4907 328.585,-66.0139 331.683,-58.9908 331.683,-58.9908"/>
<text text-anchor="middle" x="324" y="-81.4" font-family="Lato" font-size="12.00">1</text>
</g>
<!-- 2&#45;&gt;0 -->
<g id="edge5" class="edge"><title>2&#45;&gt;0</title>
<path fill="none" stroke="black" d="M151.795,-25.442C169.46,-33.7646 198.189,-47.3005 218.035,-56.6513"/>
<polygon fill="black" stroke="black" points="224.397,-59.6485 216.722,-59.5145 221.231,-58.1567 218.064,-56.6649 218.064,-56.6649 218.064,-56.6649 221.231,-58.1567 219.407,-53.8153 224.397,-59.6485 224.397,-59.6485"/>
<text text-anchor="start" x="171" y="-52.4" font-family="Lato" font-size="12.00">!a &amp; !b</text>
</g>
<!-- 2&#45;&gt;3 -->
<g id="edge7" class="edge"><title>2&#45;&gt;3</title>
<path fill="none" stroke="black" d="M153.164,-18.7286C176.983,-19.8598 221.382,-22.402 259,-27 270.934,-28.4587 284.031,-30.6109 295.251,-32.6257"/>
<polygon fill="black" stroke="black" points="302.323,-33.9212 294.87,-35.7581 298.88,-33.2904 295.437,-32.6597 295.437,-32.6597 295.437,-32.6597 298.88,-33.2904 296.005,-29.5612 302.323,-33.9212 302.323,-33.9212"/>
<text text-anchor="start" x="237.5" y="-30.4" font-family="Lato" font-size="12.00">b</text>
</g>
<!-- 2&#45;&gt;2 -->
<g id="edge6" class="edge"><title>2&#45;&gt;2</title>
<path fill="none" stroke="black" d="M128.266,-35.0373C126.892,-44.8579 129.137,-54 135,-54 139.397,-54 141.759,-48.8576 142.086,-42.1433"/>
<polygon fill="black" stroke="black" points="141.734,-35.0373 145.226,-41.8728 141.907,-38.533 142.08,-42.0287 142.08,-42.0287 142.08,-42.0287 141.907,-38.533 138.934,-42.1847 141.734,-35.0373 141.734,-35.0373"/>
<text text-anchor="start" x="119.5" y="-57.4" font-family="Lato" font-size="12.00">a &amp; !b</text>
</g>
</g>
</svg>
