<?xml version="1.0" encoding="UTF-8" standalone="no"?>
<?xml-stylesheet href="spot.css" type="text/css"?>
<!DOCTYPE svg PUBLIC "-//W3C//DTD SVG 1.1//EN"
 "http://www.w3.org/Graphics/SVG/1.1/DTD/svg11.dtd">
<!-- Generated by graphviz version 2.38.0 (20140413.2041)
 -->
<!-- Title: G Pages: 1 -->
<svg width="280pt" height="136pt"
 viewBox="0.00 0.00 280.00 136.00" xmlns="http://www.w3.org/2000/svg" xmlns:xlink="http://www.w3.org/1999/xlink">
<g id="graph0" class="graph" transform="scale(1 1) rotate(0) translate(4 132)">
<title>G</title>
<polygon fill="white" stroke="none" points="-4,4 -4,-132 276,-132 276,4 -4,4"/>
<!-- I -->
<!-- 0 -->
<g id="node2" class="node"><title>0</title>
<ellipse fill="#ffffa0" stroke="#ff4da0" stroke-width="2" cx="60" cy="-75" rx="18" ry="18"/>
<ellipse fill="none" stroke="#ff4da0" stroke-width="2" cx="60" cy="-75" rx="22" ry="22"/>
<text text-anchor="middle" x="60" y="-71.9" font-family="Lato" font-size="12.00">0</text>
</g>
<!-- I&#45;&gt;0 -->
<g id="edge1" class="edge"><title>I&#45;&gt;0</title>
<path fill="none" stroke="black" d="M1.16638,-75C2.84121,-75 16.884,-75 30.7112,-75"/>
<polygon fill="black" stroke="black" points="37.8555,-75 30.8556,-78.1501 34.3555,-75 30.8555,-75.0001 30.8555,-75.0001 30.8555,-75.0001 34.3555,-75 30.8555,-71.8501 37.8555,-75 37.8555,-75"/>
</g>
<!-- 0&#45;&gt;0 -->
<g id="edge2" class="edge"><title>0&#45;&gt;0</title>
<path fill="none" stroke="#ff4da0" stroke-width="2" d="M52.6831,-95.9908C51.7798,-106.087 54.2188,-115 60,-115 64.3359,-115 66.7918,-109.987 67.3677,-103.22"/>
<polygon fill="#ff4da0" stroke="#ff4da0" stroke-width="2" points="67.3169,-95.9908 70.5161,-102.968 67.8415,-99.4871 67.8662,-102.987 67.3662,-102.991 66.8662,-102.994 66.8416,-99.4942 64.2163,-103.013 67.3169,-95.9908 67.3169,-95.9908"/>
<text text-anchor="start" x="44.5" y="-118.4" font-family="Lato" font-size="12.00">!a &amp; b</text>
</g>
<!-- 1 -->
<g id="node3" class="node"><title>1</title>
<ellipse fill="#ffffa0" stroke="black" cx="250" cy="-75" rx="18" ry="18"/>
<ellipse fill="none" stroke="black" cx="250" cy="-75" rx="22" ry="22"/>
<text text-anchor="middle" x="250" y="-71.9" font-family="Lato" font-size="12.00">1</text>
</g>
<!-- 0&#45;&gt;1 -->
<g id="edge3" class="edge"><title>0&#45;&gt;1</title>
<path fill="none" stroke="black" d="M82.0627,-75.3734C106.733,-75.7636 148.833,-76.2825 185,-76 196.759,-75.9081 209.732,-75.7214 220.906,-75.5338"/>
<polygon fill="black" stroke="black" points="227.959,-75.4115 221.014,-78.6825 224.459,-75.4722 220.96,-75.533 220.96,-75.533 220.96,-75.533 224.459,-75.4722 220.905,-72.3835 227.959,-75.4115 227.959,-75.4115"/>
<text text-anchor="start" x="153" y="-79.4" font-family="Lato" font-size="12.00">a &amp; b</text>
</g>
<!-- 2 -->
<g id="node4" class="node"><title>2</title>
<ellipse fill="#ffffa0" stroke="black" cx="167" cy="-18" rx="18" ry="18"/>
<text text-anchor="middle" x="167" y="-14.9" font-family="Lato" font-size="12.00">2</text>
</g>
<!-- 0&#45;&gt;2 -->
<g id="edge4" class="edge"><title>0&#45;&gt;2</title>
<path fill="none" stroke="#ff4da0" stroke-width="2" d="M79.7719,-64.8095C97.8443,-54.9988 125.164,-40.1683 144.192,-29.8385"/>
<polygon fill="#ff4da0" stroke="#ff4da0" stroke-width="2" points="150.795,-26.254 146.146,-32.3621 147.958,-28.3633 144.882,-30.0331 144.643,-29.5937 144.405,-29.1543 147.481,-27.4844 143.14,-26.8253 150.795,-26.254 150.795,-26.254"/>
<text text-anchor="start" x="100" y="-56.4" font-family="Lato" font-size="12.00">!a &amp; b</text>
</g>
<!-- 1&#45;&gt;1 -->
<g id="edge5" class="edge"><title>1&#45;&gt;1</title>
<path fill="none" stroke="black" d="M242.317,-95.9908C241.369,-106.087 243.93,-115 250,-115 254.553,-115 257.131,-109.987 257.736,-103.22"/>
<polygon fill="black" stroke="black" points="257.683,-95.9908 260.884,-102.967 257.709,-99.4907 257.734,-102.991 257.734,-102.991 257.734,-102.991 257.709,-99.4907 254.585,-103.014 257.683,-95.9908 257.683,-95.9908"/>
<text text-anchor="middle" x="250" y="-118.4" font-family="Lato" font-size="12.00">1</text>
</g>
<!-- 2&#45;&gt;1 -->
<g id="edge6" class="edge"><title>2&#45;&gt;1</title>
<path fill="none" stroke="black" d="M182.109,-27.9286C194.166,-36.413 211.75,-48.7868 225.863,-58.7185"/>
<polygon fill="black" stroke="black" points="231.673,-62.807 224.136,-61.3546 228.811,-60.7928 225.949,-58.7785 225.949,-58.7785 225.949,-58.7785 228.811,-60.7928 227.761,-56.2024 231.673,-62.807 231.673,-62.807"/>
<text text-anchor="start" x="203" y="-49.4" font-family="Lato" font-size="12.00">a</text>
</g>
<!-- 2&#45;&gt;2 -->
<g id="edge7" class="edge"><title>2&#45;&gt;2</title>
<path fill="none" stroke="black" d="M160.266,-35.0373C158.892,-44.8579 161.137,-54 167,-54 171.397,-54 173.759,-48.8576 174.086,-42.1433"/>
<polygon fill="black" stroke="black" points="173.734,-35.0373 177.226,-41.8728 173.907,-38.533 174.08,-42.0287 174.08,-42.0287 174.08,-42.0287 173.907,-38.533 170.934,-42.1847 173.734,-35.0373 173.734,-35.0373"/>
<text text-anchor="start" x="162" y="-57.4" font-family="Lato" font-size="12.00">!a</text>
</g>
</g>
</svg>
