<?xml version="1.0" encoding="UTF-8" standalone="no"?>
<?xml-stylesheet href="spot.css" type="text/css"?>
<!DOCTYPE svg PUBLIC "-//W3C//DTD SVG 1.1//EN"
 "http://www.w3.org/Graphics/SVG/1.1/DTD/svg11.dtd">
<!-- Generated by graphviz version 2.38.0 (20140413.2041)
 -->
<!-- Title: G Pages: 1 -->
<svg width="413pt" height="197pt"
 viewBox="0.00 0.00 413.00 196.98" xmlns="http://www.w3.org/2000/svg" xmlns:xlink="http://www.w3.org/1999/xlink">
<g id="graph0" class="graph" transform="scale(1 1) rotate(0) translate(4 192.976)">
<title>G</title>
<polygon fill="white" stroke="none" points="-4,4 -4,-192.976 409,-192.976 409,4 -4,4"/>
<text text-anchor="start" x="183.5" y="-162.376" font-family="Lato" font-size="12.00">[Büchi]</text>
<!-- I -->
<!-- 0 -->
<g id="node2" class="node"><title>0</title>
<ellipse fill="#ffffa0" stroke="black" cx="60" cy="-73.576" rx="18" ry="18"/>
<ellipse fill="none" stroke="black" cx="60" cy="-73.576" rx="22" ry="22"/>
<text text-anchor="middle" x="60" y="-70.476" font-family="Lato" font-size="12.00">0</text>
</g>
<!-- I&#45;&gt;0 -->
<g id="edge1" class="edge"><title>I&#45;&gt;0</title>
<path fill="none" stroke="black" d="M1.16638,-73.576C2.84121,-73.576 16.884,-73.576 30.7112,-73.576"/>
<polygon fill="black" stroke="black" points="37.8555,-73.576 30.8556,-76.7261 34.3555,-73.5761 30.8555,-73.5761 30.8555,-73.5761 30.8555,-73.5761 34.3555,-73.5761 30.8555,-70.4261 37.8555,-73.576 37.8555,-73.576"/>
</g>
<!-- 0&#45;&gt;0 -->
<g id="edge2" class="edge"><title>0&#45;&gt;0</title>
<path fill="none" stroke="black" d="M52.6831,-94.5668C51.7798,-104.663 54.2188,-113.576 60,-113.576 64.3359,-113.576 66.7918,-108.563 67.3677,-101.796"/>
<polygon fill="black" stroke="black" points="67.3169,-94.5668 70.5161,-101.544 67.3415,-98.0667 67.3662,-101.567 67.3662,-101.567 67.3662,-101.567 67.3415,-98.0667 64.2163,-101.589 67.3169,-94.5668 67.3169,-94.5668"/>
<text text-anchor="start" x="56.5" y="-116.976" font-family="Lato" font-size="12.00">a</text>
</g>
<!-- 1 -->
<g id="node3" class="node"><title>1</title>
<ellipse fill="#ffffa0" stroke="black" cx="387" cy="-99.576" rx="18" ry="18"/>
<text text-anchor="middle" x="387" y="-96.476" font-family="Lato" font-size="12.00">1</text>
</g>
<!-- 0&#45;&gt;1 -->
<g id="edge3" class="edge"><title>0&#45;&gt;1</title>
<path fill="none" stroke="black" d="M74.9336,-90.295C81.8736,-97.8451 90.7485,-106.429 100,-112.576 119.592,-125.594 125.918,-128.047 149,-132.576 237.447,-149.931 263.893,-137.738 351,-114.576 355.36,-113.417 359.884,-111.809 364.173,-110.075"/>
<polygon fill="black" stroke="black" points="370.663,-107.292 365.471,-112.946 367.446,-108.672 364.23,-110.051 364.23,-110.051 364.23,-110.051 367.446,-108.672 362.988,-107.156 370.663,-107.292 370.663,-107.292"/>
<text text-anchor="start" x="203" y="-143.976" font-family="Lato" font-size="12.00">!a &amp; !b</text>
</g>
<!-- 2 -->
<g id="node4" class="node"><title>2</title>
<ellipse fill="#ffffa0" stroke="black" cx="167" cy="-105.576" rx="18" ry="18"/>
<text text-anchor="middle" x="167" y="-102.476" font-family="Lato" font-size="12.00">2</text>
</g>
<!-- 0&#45;&gt;2 -->
<g id="edge4" class="edge"><title>0&#45;&gt;2</title>
<path fill="none" stroke="black" d="M81.938,-70.1559C96.2406,-68.7002 115.36,-68.5175 131,-74.576 137.926,-77.2589 144.372,-81.9842 149.797,-86.9492"/>
<polygon fill="black" stroke="black" points="154.861,-91.9273 147.66,-89.2664 152.365,-89.4737 149.869,-87.02 149.869,-87.02 149.869,-87.02 152.365,-89.4737 152.077,-84.7737 154.861,-91.9273 154.861,-91.9273"/>
<text text-anchor="start" x="100" y="-77.976" font-family="Lato" font-size="12.00">!a &amp; b</text>
</g>
<!-- 1&#45;&gt;0 -->
<g id="edge5" class="edge"><title>1&#45;&gt;0</title>
<path fill="none" stroke="black" d="M377.163,-84.3051C363.599,-62.6393 335.358,-24.0075 299,-9.57605 223.001,20.5899 127.842,-29.9452 84.4788,-57.5062"/>
<polygon fill="black" stroke="black" points="78.4652,-61.3935 82.6338,-54.9479 81.4046,-59.4934 84.3439,-57.5933 84.3439,-57.5933 84.3439,-57.5933 81.4046,-59.4934 86.054,-60.2387 78.4652,-61.3935 78.4652,-61.3935"/>
<text text-anchor="start" x="216.5" y="-8.97605" font-family="Lato" font-size="12.00">a</text>
</g>
<!-- 1&#45;&gt;1 -->
<g id="edge6" class="edge"><title>1&#45;&gt;1</title>
<path fill="none" stroke="black" d="M378.021,-115.492C375.679,-125.726 378.672,-135.576 387,-135.576 393.376,-135.576 396.625,-129.802 396.746,-122.503"/>
<polygon fill="black" stroke="black" points="395.979,-115.492 399.872,-122.108 396.36,-118.971 396.741,-122.45 396.741,-122.45 396.741,-122.45 396.36,-118.971 393.61,-122.793 395.979,-115.492 395.979,-115.492"/>
<text text-anchor="start" x="382" y="-138.976" font-family="Lato" font-size="12.00">!a</text>
</g>
<!-- 2&#45;&gt;0 -->
<g id="edge7" class="edge"><title>2&#45;&gt;0</title>
<path fill="none" stroke="black" d="M149.35,-101.421C135.941,-97.9821 116.651,-92.8263 100,-87.576 95.9564,-86.301 91.7075,-84.871 87.5622,-83.425"/>
<polygon fill="black" stroke="black" points="80.7383,-81.0009 88.3889,-80.3759 84.0364,-82.1725 87.3345,-83.3442 87.3345,-83.3442 87.3345,-83.3442 84.0364,-82.1725 86.28,-86.3124 80.7383,-81.0009 80.7383,-81.0009"/>
<text text-anchor="start" x="100" y="-98.976" font-family="Lato" font-size="12.00">a &amp; !b</text>
</g>
<!-- 2&#45;&gt;1 -->
<g id="edge8" class="edge"><title>2&#45;&gt;1</title>
<path fill="none" stroke="black" d="M185.378,-105.242C210.467,-104.745 258.296,-103.744 299,-102.576 320.282,-101.965 344.487,-101.118 361.953,-100.48"/>
<polygon fill="black" stroke="black" points="368.998,-100.221 362.119,-103.626 365.5,-100.349 362.003,-100.478 362.003,-100.478 362.003,-100.478 365.5,-100.349 361.887,-97.3304 368.998,-100.221 368.998,-100.221"/>
<text text-anchor="start" x="260" y="-106.976" font-family="Lato" font-size="12.00">!a &amp; !b</text>
</g>
<!-- 3 -->
<g id="node5" class="node"><title>3</title>
<ellipse fill="#ffffa0" stroke="black" cx="277" cy="-40.576" rx="18" ry="18"/>
<ellipse fill="none" stroke="black" cx="277" cy="-40.576" rx="22" ry="22"/>
<text text-anchor="middle" x="277" y="-37.476" font-family="Lato" font-size="12.00">3</text>
</g>
<!-- 2&#45;&gt;3 -->
<g id="edge9" class="edge"><title>2&#45;&gt;3</title>
<path fill="none" stroke="black" d="M183.017,-96.5381C200.771,-85.8529 230.562,-67.9228 251.634,-55.241"/>
<polygon fill="black" stroke="black" points="257.87,-51.4876 253.497,-57.7962 254.871,-53.2925 251.872,-55.0973 251.872,-55.0973 251.872,-55.0973 254.871,-53.2925 250.248,-52.3984 257.87,-51.4876 257.87,-51.4876"/>
<text text-anchor="start" x="216.5" y="-85.976" font-family="Lato" font-size="12.00">b</text>
</g>
<!-- 3&#45;&gt;0 -->
<g id="edge10" class="edge"><title>3&#45;&gt;0</title>
<path fill="none" stroke="black" d="M255.041,-42.8072C221.956,-46.47 155.662,-54.3803 100,-64.576 96.2407,-65.2646 92.2966,-66.0728 88.4206,-66.9173"/>
<polygon fill="black" stroke="black" points="81.5719,-68.4588 87.7094,-63.8485 84.9865,-67.6902 88.4011,-66.9216 88.4011,-66.9216 88.4011,-66.9216 84.9865,-67.6902 89.0928,-69.9947 81.5719,-68.4588 81.5719,-68.4588"/>
<text text-anchor="start" x="151.5" y="-58.976" font-family="Lato" font-size="12.00">a &amp; !b</text>
</g>
<!-- 3&#45;&gt;1 -->
<g id="edge11" class="edge"><title>3&#45;&gt;1</title>
<path fill="none" stroke="black" d="M296.812,-50.8531C315.708,-61.1755 344.784,-77.0599 364.561,-87.8641"/>
<polygon fill="black" stroke="black" points="370.884,-91.318 363.23,-90.7264 367.812,-89.64 364.74,-87.962 364.74,-87.962 364.74,-87.962 367.812,-89.64 366.251,-85.1976 370.884,-91.318 370.884,-91.318"/>
<text text-anchor="start" x="317" y="-81.976" font-family="Lato" font-size="12.00">!a &amp; !b</text>
</g>
<!-- 3&#45;&gt;3 -->
<g id="edge12" class="edge"><title>3&#45;&gt;3</title>
<path fill="none" stroke="black" d="M266.933,-60.3335C265.223,-70.926 268.578,-80.576 277,-80.576 283.448,-80.576 286.926,-74.9194 287.435,-67.5139"/>
<polygon fill="black" stroke="black" points="287.067,-60.3335 290.571,-67.1631 287.246,-63.8289 287.425,-67.3244 287.425,-67.3244 287.425,-67.3244 287.246,-63.8289 284.279,-67.4856 287.067,-60.3335 287.067,-60.3335"/>
<text text-anchor="start" x="273.5" y="-83.976" font-family="Lato" font-size="12.00">b</text>
</g>
</g>
</svg>
