<?xml version="1.0" encoding="UTF-8" standalone="no"?>
<?xml-stylesheet href="spot.css" type="text/css"?>
<!DOCTYPE svg PUBLIC "-//W3C//DTD SVG 1.1//EN"
 "http://www.w3.org/Graphics/SVG/1.1/DTD/svg11.dtd">
<!-- Generated by graphviz version 2.38.0 (20140413.2041)
 -->
<!-- Title: G Pages: 1 -->
<svg width="310pt" height="168pt"
 viewBox="0.00 0.00 310.00 168.00" xmlns="http://www.w3.org/2000/svg" xmlns:xlink="http://www.w3.org/1999/xlink">
<g id="graph0" class="graph" transform="scale(1 1) rotate(0) translate(4 164)">
<title>G</title>
<polygon fill="white" stroke="none" points="-4,4 -4,-164 306,-164 306,4 -4,4"/>
<!-- I -->
<!-- 0 -->
<g id="node2" class="node"><title>0</title>
<ellipse fill="#ffffa0" stroke="black" cx="56" cy="-75" rx="18" ry="18"/>
<text text-anchor="middle" x="56" y="-71.9" font-family="Lato" font-size="12.00">0</text>
</g>
<!-- I&#45;&gt;0 -->
<g id="edge1" class="edge"><title>I&#45;&gt;0</title>
<path fill="none" stroke="black" d="M1.15491,-75C2.79388,-75 17.1543,-75 30.6317,-75"/>
<polygon fill="black" stroke="black" points="37.9419,-75 30.9419,-78.1501 34.4419,-75 30.9419,-75.0001 30.9419,-75.0001 30.9419,-75.0001 34.4419,-75 30.9418,-71.8501 37.9419,-75 37.9419,-75"/>
</g>
<!-- 0&#45;&gt;0 -->
<g id="edge2" class="edge"><title>0&#45;&gt;0</title>
<path fill="none" stroke="black" d="M49.6208,-92.0373C48.3189,-101.858 50.4453,-111 56,-111 60.166,-111 62.4036,-105.858 62.7128,-99.1433"/>
<polygon fill="black" stroke="black" points="62.3792,-92.0373 65.8541,-98.8818 62.5434,-95.5335 62.7076,-99.0296 62.7076,-99.0296 62.7076,-99.0296 62.5434,-95.5335 59.561,-99.1774 62.3792,-92.0373 62.3792,-92.0373"/>
<text text-anchor="start" x="45" y="-114.4" font-family="Lato" font-size="12.00">a | b</text>
</g>
<!-- 1 -->
<g id="node3" class="node"><title>1</title>
<ellipse fill="#ffffa0" stroke="black" cx="166" cy="-111" rx="18" ry="18"/>
<text text-anchor="middle" x="166" y="-107.9" font-family="Lato" font-size="12.00">1</text>
</g>
<!-- 0&#45;&gt;1 -->
<g id="edge3" class="edge"><title>0&#45;&gt;1</title>
<path fill="none" stroke="black" d="M72.9184,-81.7099C78.8631,-84.1248 85.6993,-86.7952 92,-89 108.278,-94.6961 126.896,-100.293 141.255,-104.416"/>
<polygon fill="black" stroke="black" points="148.341,-106.43 140.746,-107.546 144.974,-105.473 141.607,-104.516 141.607,-104.516 141.607,-104.516 144.974,-105.473 142.469,-101.486 148.341,-106.43 148.341,-106.43"/>
<text text-anchor="start" x="92" y="-102.4" font-family="Lato" font-size="12.00">!a &amp; !b</text>
</g>
<!-- 2 -->
<g id="node4" class="node"><title>2</title>
<ellipse fill="#ffffa0" stroke="black" cx="166" cy="-22" rx="18" ry="18"/>
<ellipse fill="none" stroke="black" cx="166" cy="-22" rx="22" ry="22"/>
<text text-anchor="middle" x="166" y="-18.9" font-family="Lato" font-size="12.00">2</text>
</g>
<!-- 0&#45;&gt;2 -->
<g id="edge4" class="edge"><title>0&#45;&gt;2</title>
<path fill="none" stroke="black" d="M70.4387,-64.1779C76.7413,-59.4292 84.502,-54.0307 92,-50 106.693,-42.1016 124.101,-35.334 138.232,-30.4317"/>
<polygon fill="black" stroke="black" points="144.88,-28.1781 139.262,-33.4088 141.565,-29.3018 138.251,-30.4256 138.251,-30.4256 138.251,-30.4256 141.565,-29.3018 137.239,-27.4423 144.88,-28.1781 144.88,-28.1781"/>
<text text-anchor="start" x="98" y="-53.4" font-family="Lato" font-size="12.00">a | b</text>
</g>
<!-- 1&#45;&gt;0 -->
<g id="edge5" class="edge"><title>1&#45;&gt;0</title>
<path fill="none" stroke="black" d="M154.947,-96.2156C147.984,-87.3655 137.854,-76.9102 126,-72 111.793,-66.1152 94.5031,-66.8796 80.7851,-69.108"/>
<polygon fill="black" stroke="black" points="73.5737,-70.4637 79.8712,-66.0745 77.0134,-69.817 80.4532,-69.1703 80.4532,-69.1703 80.4532,-69.1703 77.0134,-69.817 81.0352,-72.2661 73.5737,-70.4637 73.5737,-70.4637"/>
<text text-anchor="start" x="105.5" y="-75.4" font-family="Lato" font-size="12.00">a</text>
</g>
<!-- 1&#45;&gt;1 -->
<g id="edge6" class="edge"><title>1&#45;&gt;1</title>
<path fill="none" stroke="black" d="M156.425,-126.541C153.73,-136.909 156.922,-147 166,-147 172.95,-147 176.45,-141.085 176.499,-133.659"/>
<polygon fill="black" stroke="black" points="175.575,-126.541 179.6,-133.077 176.026,-130.012 176.477,-133.483 176.477,-133.483 176.477,-133.483 176.026,-130.012 173.353,-133.889 175.575,-126.541 175.575,-126.541"/>
<text text-anchor="start" x="161" y="-150.4" font-family="Lato" font-size="12.00">!a</text>
</g>
<!-- 3 -->
<g id="node5" class="node"><title>3</title>
<ellipse fill="#ffffa0" stroke="black" cx="280" cy="-72" rx="18" ry="18"/>
<ellipse fill="none" stroke="black" cx="280" cy="-72" rx="22" ry="22"/>
<text text-anchor="middle" x="280" y="-68.9" font-family="Lato" font-size="12.00">3</text>
</g>
<!-- 1&#45;&gt;3 -->
<g id="edge7" class="edge"><title>1&#45;&gt;3</title>
<path fill="none" stroke="black" d="M183.526,-105.245C201.645,-98.936 230.982,-88.7205 252.36,-81.2764"/>
<polygon fill="black" stroke="black" points="258.997,-78.9654 253.422,-84.2422 255.691,-80.1164 252.386,-81.2674 252.386,-81.2674 252.386,-81.2674 255.691,-80.1164 251.35,-78.2926 258.997,-78.9654 258.997,-78.9654"/>
<text text-anchor="start" x="218" y="-100.4" font-family="Lato" font-size="12.00">!a</text>
</g>
<!-- 2&#45;&gt;2 -->
<g id="edge8" class="edge"><title>2&#45;&gt;2</title>
<path fill="none" stroke="black" d="M155.933,-41.7575C154.223,-52.3499 157.578,-62 166,-62 172.448,-62 175.926,-56.3433 176.435,-48.9379"/>
<polygon fill="black" stroke="black" points="176.067,-41.7575 179.571,-48.5871 176.246,-45.2529 176.425,-48.7483 176.425,-48.7483 176.425,-48.7483 176.246,-45.2529 173.279,-48.9095 176.067,-41.7575 176.067,-41.7575"/>
<text text-anchor="start" x="155" y="-65.4" font-family="Lato" font-size="12.00">a | b</text>
</g>
<!-- 2&#45;&gt;3 -->
<g id="edge9" class="edge"><title>2&#45;&gt;3</title>
<path fill="none" stroke="black" d="M186.253,-30.5953C204.684,-38.8234 232.623,-51.2961 253.02,-60.4016"/>
<polygon fill="black" stroke="black" points="259.623,-63.3495 251.947,-63.3723 256.427,-61.9227 253.231,-60.4959 253.231,-60.4959 253.231,-60.4959 256.427,-61.9227 254.515,-57.6195 259.623,-63.3495 259.623,-63.3495"/>
<text text-anchor="start" x="206" y="-57.4" font-family="Lato" font-size="12.00">!a &amp; !b</text>
</g>
<!-- 3&#45;&gt;3 -->
<g id="edge10" class="edge"><title>3&#45;&gt;3</title>
<path fill="none" stroke="black" d="M269.933,-91.7575C268.223,-102.35 271.578,-112 280,-112 286.448,-112 289.926,-106.343 290.435,-98.9379"/>
<polygon fill="black" stroke="black" points="290.067,-91.7575 293.571,-98.5871 290.246,-95.2529 290.425,-98.7483 290.425,-98.7483 290.425,-98.7483 290.246,-95.2529 287.279,-98.9095 290.067,-91.7575 290.067,-91.7575"/>
<text text-anchor="start" x="275" y="-115.4" font-family="Lato" font-size="12.00">!a</text>
</g>
</g>
</svg>
