<?xml version="1.0" encoding="UTF-8" standalone="no"?>
<?xml-stylesheet href="spot.css" type="text/css"?>
<!DOCTYPE svg PUBLIC "-//W3C//DTD SVG 1.1//EN"
 "http://www.w3.org/Graphics/SVG/1.1/DTD/svg11.dtd">
<!-- Generated by graphviz version 2.38.0 (20140413.2041)
 -->
<!-- Title: G Pages: 1 -->
<svg width="291pt" height="227pt"
 viewBox="0.00 0.00 291.00 227.33" xmlns="http://www.w3.org/2000/svg" xmlns:xlink="http://www.w3.org/1999/xlink">
<g id="graph0" class="graph" transform="scale(1 1) rotate(0) translate(4 223.328)">
<title>G</title>
<polygon fill="white" stroke="none" points="-4,4 -4,-223.328 287,-223.328 287,4 -4,4"/>
<text text-anchor="start" x="44.5" y="-206.728" font-family="Lato" font-size="12.00">Fin(</text>
<text text-anchor="start" x="64.5" y="-206.728" font-family="Lato" font-size="12.00" fill="#1f78b4">⓿</text>
<text text-anchor="start" x="78.5" y="-206.728" font-family="Lato" font-size="12.00">) &amp; (Inf(</text>
<text text-anchor="start" x="116.5" y="-206.728" font-family="Lato" font-size="12.00" fill="#ff4da0">❶</text>
<text text-anchor="start" x="130.5" y="-206.728" font-family="Lato" font-size="12.00">) | (Fin(</text>
<text text-anchor="start" x="165.5" y="-206.728" font-family="Lato" font-size="12.00" fill="#ff7f00">❷</text>
<text text-anchor="start" x="179.5" y="-206.728" font-family="Lato" font-size="12.00">) &amp; Inf(</text>
<text text-anchor="start" x="214.5" y="-206.728" font-family="Lato" font-size="12.00" fill="#6a3d9a">❸</text>
<text text-anchor="start" x="228.5" y="-206.728" font-family="Lato" font-size="12.00">)))</text>
<text text-anchor="start" x="94.5" y="-194.728" font-family="Lato" font-size="12.00">[parity min odd 4]</text>
<!-- I -->
<!-- 0 -->
<g id="node2" class="node"><title>0</title>
<ellipse fill="#ffffa0" stroke="black" cx="56" cy="-64.3282" rx="18" ry="18"/>
<text text-anchor="middle" x="56" y="-61.2282" font-family="Lato" font-size="12.00">0</text>
</g>
<!-- I&#45;&gt;0 -->
<g id="edge1" class="edge"><title>I&#45;&gt;0</title>
<path fill="none" stroke="black" d="M1.15491,-64.3282C2.79388,-64.3282 17.1543,-64.3282 30.6317,-64.3282"/>
<polygon fill="black" stroke="black" points="37.9419,-64.3282 30.9419,-67.4783 34.4419,-64.3282 30.9419,-64.3283 30.9419,-64.3283 30.9419,-64.3283 34.4419,-64.3282 30.9418,-61.1783 37.9419,-64.3282 37.9419,-64.3282"/>
</g>
<!-- 0&#45;&gt;0 -->
<g id="edge2" class="edge"><title>0&#45;&gt;0</title>
<path fill="none" stroke="black" d="M49.6208,-81.3655C48.3189,-91.1861 50.4453,-100.328 56,-100.328 60.166,-100.328 62.4036,-95.1858 62.7128,-88.4715"/>
<polygon fill="black" stroke="black" points="62.3792,-81.3655 65.8541,-88.21 62.5434,-84.8616 62.7076,-88.3578 62.7076,-88.3578 62.7076,-88.3578 62.5434,-84.8616 59.561,-88.5055 62.3792,-81.3655 62.3792,-81.3655"/>
<text text-anchor="start" x="52.5" y="-116.728" font-family="Lato" font-size="12.00">a</text>
<text text-anchor="start" x="49" y="-103.728" font-family="Lato" font-size="12.00" fill="#ff4da0">❶</text>
</g>
<!-- 1 -->
<g id="node3" class="node"><title>1</title>
<ellipse fill="#ffffa0" stroke="black" cx="265" cy="-55.3282" rx="18" ry="18"/>
<text text-anchor="middle" x="265" y="-52.2282" font-family="Lato" font-size="12.00">1</text>
</g>
<!-- 0&#45;&gt;1 -->
<g id="edge3" class="edge"><title>0&#45;&gt;1</title>
<path fill="none" stroke="black" d="M64.3096,-80.3497C81.5281,-115.674 126.974,-195.211 177,-170.328 215.435,-151.211 241.413,-106.11 254.379,-78.4104"/>
<polygon fill="black" stroke="black" points="257.395,-71.7694 257.368,-79.4455 255.947,-74.9562 254.5,-78.143 254.5,-78.143 254.5,-78.143 255.947,-74.9562 251.632,-76.8406 257.395,-71.7694 257.395,-71.7694"/>
<text text-anchor="start" x="142" y="-177.728" font-family="Lato" font-size="12.00">!a &amp; !b</text>
</g>
<!-- 2 -->
<g id="node4" class="node"><title>2</title>
<ellipse fill="#ffffa0" stroke="black" cx="159" cy="-55.3282" rx="18" ry="18"/>
<text text-anchor="middle" x="159" y="-52.2282" font-family="Lato" font-size="12.00">2</text>
</g>
<!-- 0&#45;&gt;2 -->
<g id="edge4" class="edge"><title>0&#45;&gt;2</title>
<path fill="none" stroke="black" d="M73.9354,-67.0388C87.3374,-68.7184 106.481,-70.0813 123,-67.3282 127.14,-66.6381 131.447,-65.5185 135.566,-64.2336"/>
<polygon fill="black" stroke="black" points="142.258,-61.9618 136.642,-67.195 138.943,-63.087 135.629,-64.2123 135.629,-64.2123 135.629,-64.2123 138.943,-63.087 134.617,-61.2295 142.258,-61.9618 142.258,-61.9618"/>
<text text-anchor="start" x="92" y="-84.7282" font-family="Lato" font-size="12.00">!a &amp; b</text>
<text text-anchor="start" x="100.5" y="-71.7282" font-family="Lato" font-size="12.00" fill="#6a3d9a">❸</text>
</g>
<!-- 1&#45;&gt;0 -->
<g id="edge5" class="edge"><title>1&#45;&gt;0</title>
<path fill="none" stroke="black" d="M251.169,-43.4205C229.285,-24.592 183.025,8.83217 141,-2.32818 113.929,-9.51735 88.9321,-30.6187 73.3697,-46.2168"/>
<polygon fill="black" stroke="black" points="68.4643,-51.2675 71.0816,-44.0514 70.9028,-48.7568 73.3413,-46.246 73.3413,-46.246 73.3413,-46.246 70.9028,-48.7568 75.601,-48.4407 68.4643,-51.2675 68.4643,-51.2675"/>
<text text-anchor="start" x="155.5" y="-18.7282" font-family="Lato" font-size="12.00">a</text>
<text text-anchor="start" x="152" y="-5.72818" font-family="Lato" font-size="12.00" fill="#ff4da0">❶</text>
</g>
<!-- 1&#45;&gt;1 -->
<g id="edge6" class="edge"><title>1&#45;&gt;1</title>
<path fill="none" stroke="black" d="M256.021,-71.2442C253.679,-81.4786 256.672,-91.3282 265,-91.3282 271.376,-91.3282 274.625,-85.5545 274.746,-78.255"/>
<polygon fill="black" stroke="black" points="273.979,-71.2442 277.872,-77.8597 274.36,-74.7234 274.741,-78.2026 274.741,-78.2026 274.741,-78.2026 274.36,-74.7234 271.61,-78.5455 273.979,-71.2442 273.979,-71.2442"/>
<text text-anchor="start" x="260" y="-94.7282" font-family="Lato" font-size="12.00">!a</text>
</g>
<!-- 2&#45;&gt;0 -->
<g id="edge7" class="edge"><title>2&#45;&gt;0</title>
<path fill="none" stroke="black" d="M143.283,-45.7859C137.25,-42.4112 130.04,-39.0323 123,-37.3282 109.609,-34.0866 105.041,-32.8827 92,-37.3282 85.8393,-39.4283 79.9192,-43.1004 74.7563,-47.0723"/>
<polygon fill="black" stroke="black" points="69.0744,-51.7966 72.443,-44.8991 71.7657,-49.5589 74.4569,-47.3212 74.4569,-47.3212 74.4569,-47.3212 71.7657,-49.5589 76.4708,-49.7434 69.0744,-51.7966 69.0744,-51.7966"/>
<text text-anchor="start" x="92" y="-53.7282" font-family="Lato" font-size="12.00">a &amp; !b</text>
<text text-anchor="start" x="100.5" y="-40.7282" font-family="Lato" font-size="12.00" fill="#ff4da0">❶</text>
</g>
<!-- 2&#45;&gt;1 -->
<g id="edge8" class="edge"><title>2&#45;&gt;1</title>
<path fill="none" stroke="black" d="M177.173,-55.3282C194.185,-55.3282 220.399,-55.3282 239.575,-55.3282"/>
<polygon fill="black" stroke="black" points="246.801,-55.3282 239.801,-58.4783 243.301,-55.3282 239.801,-55.3283 239.801,-55.3283 239.801,-55.3283 243.301,-55.3282 239.801,-52.1783 246.801,-55.3282 246.801,-55.3282"/>
<text text-anchor="start" x="195" y="-71.7282" font-family="Lato" font-size="12.00">!a &amp; !b</text>
<text text-anchor="start" x="205" y="-58.7282" font-family="Lato" font-size="12.00" fill="#ff7f00">❷</text>
</g>
<!-- 2&#45;&gt;2 -->
<g id="edge9" class="edge"><title>2&#45;&gt;2</title>
<path fill="none" stroke="black" d="M154.506,-73.1099C153.742,-82.6431 155.24,-91.3282 159,-91.3282 161.761,-91.3282 163.302,-86.6443 163.624,-80.3803"/>
<polygon fill="black" stroke="black" points="163.494,-73.1099 166.769,-80.0525 163.557,-76.6094 163.619,-80.1088 163.619,-80.1088 163.619,-80.1088 163.557,-76.6094 160.47,-80.1651 163.494,-73.1099 163.494,-73.1099"/>
<text text-anchor="start" x="145" y="-107.728" font-family="Lato" font-size="12.00">a &amp; b</text>
<text text-anchor="start" x="152" y="-94.7282" font-family="Lato" font-size="12.00" fill="#ff4da0">❶</text>
</g>
<!-- 2&#45;&gt;2 -->
<g id="edge10" class="edge"><title>2&#45;&gt;2</title>
<path fill="none" stroke="black" d="M152.118,-71.987C147.233,-92.0599 149.527,-117.328 159,-117.328 167.363,-117.328 170.131,-97.6351 167.304,-79.2089"/>
<polygon fill="black" stroke="black" points="165.882,-71.987 170.325,-78.2469 166.558,-75.4211 167.234,-78.8552 167.234,-78.8552 167.234,-78.8552 166.558,-75.4211 164.144,-79.4636 165.882,-71.987 165.882,-71.987"/>
<text text-anchor="start" x="143.5" y="-133.728" font-family="Lato" font-size="12.00">!a &amp; b</text>
<text text-anchor="start" x="152" y="-120.728" font-family="Lato" font-size="12.00" fill="#6a3d9a">❸</text>
</g>
</g>
</svg>
