<?xml version="1.0" encoding="UTF-8" standalone="no"?>
<?xml-stylesheet href="spot.css" type="text/css"?>
<!DOCTYPE svg PUBLIC "-//W3C//DTD SVG 1.1//EN"
 "http://www.w3.org/Graphics/SVG/1.1/DTD/svg11.dtd">
<!-- Generated by graphviz version 2.38.0 (20140413.2041)
 -->
<!-- Title: G Pages: 1 -->
<svg width="248pt" height="83pt"
 viewBox="0.00 0.00 248.00 83.00" xmlns="http://www.w3.org/2000/svg" xmlns:xlink="http://www.w3.org/1999/xlink">
<g id="graph0" class="graph" transform="scale(1 1) rotate(0) translate(4 79)">
<title>G</title>
<polygon fill="white" stroke="none" points="-4,4 -4,-79 244,-79 244,4 -4,4"/>
<!-- I -->
<!-- 0 -->
<g id="node2" class="node"><title>0</title>
<ellipse fill="#ffffa0" stroke="#ff4da0" stroke-width="2" cx="56" cy="-22" rx="18" ry="18"/>
<text text-anchor="middle" x="56" y="-18.9" font-family="Lato" font-size="12.00">0</text>
</g>
<!-- I&#45;&gt;0 -->
<g id="edge1" class="edge"><title>I&#45;&gt;0</title>
<path fill="none" stroke="black" d="M1.15491,-22C2.79388,-22 17.1543,-22 30.6317,-22"/>
<polygon fill="black" stroke="black" points="37.9419,-22 30.9419,-25.1501 34.4419,-22 30.9419,-22.0001 30.9419,-22.0001 30.9419,-22.0001 34.4419,-22 30.9418,-18.8501 37.9419,-22 37.9419,-22"/>
</g>
<!-- 0&#45;&gt;0 -->
<g id="edge2" class="edge"><title>0&#45;&gt;0</title>
<path fill="none" stroke="#ff4da0" stroke-width="2" d="M49.6208,-39.0373C48.3189,-48.8579 50.4453,-58 56,-58 60.166,-58 62.4036,-52.8576 62.7128,-46.1433"/>
<polygon fill="#ff4da0" stroke="#ff4da0" stroke-width="2" points="62.3792,-39.0373 65.8541,-45.8818 63.0428,-42.51 63.207,-46.0062 62.7076,-46.0296 62.2081,-46.0531 62.0439,-42.5569 59.561,-46.1774 62.3792,-39.0373 62.3792,-39.0373"/>
<text text-anchor="start" x="52.5" y="-61.4" font-family="Lato" font-size="12.00">a</text>
</g>
<!-- 1 -->
<g id="node3" class="node"><title>1</title>
<ellipse fill="#ffffa0" stroke="black" cx="135" cy="-22" rx="18" ry="18"/>
<text text-anchor="middle" x="135" y="-18.9" font-family="Lato" font-size="12.00">1</text>
</g>
<!-- 0&#45;&gt;1 -->
<g id="edge3" class="edge"><title>0&#45;&gt;1</title>
<path fill="none" stroke="#ff4da0" stroke-width="2" d="M74.0888,-22C84.5562,-22 98.1196,-22 109.693,-22"/>
<polygon fill="#ff4da0" stroke="#ff4da0" stroke-width="2" points="116.959,-22 109.959,-25.1501 113.459,-22.5 109.959,-22.5001 109.959,-22.0001 109.959,-21.5001 113.459,-21.5 109.959,-18.8501 116.959,-22 116.959,-22"/>
<text text-anchor="middle" x="95.5" y="-25.4" font-family="Lato" font-size="12.00">1</text>
</g>
<!-- 2 -->
<g id="node4" class="node"><title>2</title>
<ellipse fill="#ffffa0" stroke="black" cx="218" cy="-22" rx="18" ry="18"/>
<ellipse fill="none" stroke="black" cx="218" cy="-22" rx="22" ry="22"/>
<text text-anchor="middle" x="218" y="-18.9" font-family="Lato" font-size="12.00">2</text>
</g>
<!-- 1&#45;&gt;2 -->
<g id="edge4" class="edge"><title>1&#45;&gt;2</title>
<path fill="none" stroke="black" d="M153.178,-22C163.485,-22 176.848,-22 188.681,-22"/>
<polygon fill="black" stroke="black" points="195.811,-22 188.811,-25.1501 192.311,-22 188.811,-22.0001 188.811,-22.0001 188.811,-22.0001 192.311,-22 188.811,-18.8501 195.811,-22 195.811,-22"/>
<text text-anchor="start" x="171" y="-25.4" font-family="Lato" font-size="12.00">b</text>
</g>
<!-- 2&#45;&gt;2 -->
<g id="edge5" class="edge"><title>2&#45;&gt;2</title>
<path fill="none" stroke="black" d="M210.317,-42.9908C209.369,-53.0872 211.93,-62 218,-62 222.553,-62 225.131,-56.9866 225.736,-50.2204"/>
<polygon fill="black" stroke="black" points="225.683,-42.9908 228.884,-49.9673 225.709,-46.4907 225.734,-49.9906 225.734,-49.9906 225.734,-49.9906 225.709,-46.4907 222.585,-50.0139 225.683,-42.9908 225.683,-42.9908"/>
<text text-anchor="middle" x="218" y="-65.4" font-family="Lato" font-size="12.00">1</text>
</g>
</g>
</svg>
