<?xml version="1.0" encoding="UTF-8" standalone="no"?>
<?xml-stylesheet href="spot.css" type="text/css"?>
<!DOCTYPE svg PUBLIC "-//W3C//DTD SVG 1.1//EN"
 "http://www.w3.org/Graphics/SVG/1.1/DTD/svg11.dtd">
<!-- Generated by graphviz version 2.38.0 (20140413.2041)
 -->
<!-- Title: G Pages: 1 -->
<svg width="264pt" height="145pt"
 viewBox="0.00 0.00 264.00 145.00" xmlns="http://www.w3.org/2000/svg" xmlns:xlink="http://www.w3.org/1999/xlink">
<g id="graph0" class="graph" transform="scale(1 1) rotate(0) translate(4 141)">
<title>G</title>
<polygon fill="white" stroke="none" points="-4,4 -4,-141 260,-141 260,4 -4,4"/>
<!-- I -->
<!-- 0 -->
<g id="node2" class="node"><title>0</title>
<ellipse fill="#ffffa0" stroke="#ff4da0" stroke-width="2" cx="56" cy="-75" rx="18" ry="18"/>
<text text-anchor="middle" x="56" y="-71.9" font-family="Lato" font-size="12.00">0</text>
</g>
<!-- I&#45;&gt;0 -->
<g id="edge1" class="edge"><title>I&#45;&gt;0</title>
<path fill="none" stroke="black" d="M1.15491,-75C2.79388,-75 17.1543,-75 30.6317,-75"/>
<polygon fill="black" stroke="black" points="37.9419,-75 30.9419,-78.1501 34.4419,-75 30.9419,-75.0001 30.9419,-75.0001 30.9419,-75.0001 34.4419,-75 30.9418,-71.8501 37.9419,-75 37.9419,-75"/>
</g>
<!-- 0&#45;&gt;0 -->
<g id="edge2" class="edge"><title>0&#45;&gt;0</title>
<path fill="none" stroke="#ff4da0" stroke-width="2" d="M49.6208,-92.0373C48.3189,-101.858 50.4453,-111 56,-111 60.166,-111 62.4036,-105.858 62.7128,-99.1433"/>
<polygon fill="#ff4da0" stroke="#ff4da0" stroke-width="2" points="62.3792,-92.0373 65.8541,-98.8818 63.0428,-95.51 63.207,-99.0062 62.7076,-99.0296 62.2081,-99.0531 62.0439,-95.5569 59.561,-99.1774 62.3792,-92.0373 62.3792,-92.0373"/>
<text text-anchor="start" x="40.5" y="-127.4" font-family="Lato" font-size="12.00">!a &amp; b</text>
<text text-anchor="start" x="49" y="-114.4" font-family="Lato" font-size="12.00" fill="#1f78b4">⓿</text>
</g>
<!-- 1 -->
<g id="node3" class="node"><title>1</title>
<ellipse fill="#ffffa0" stroke="black" cx="238" cy="-75" rx="18" ry="18"/>
<text text-anchor="middle" x="238" y="-71.9" font-family="Lato" font-size="12.00">1</text>
</g>
<!-- 0&#45;&gt;1 -->
<g id="edge3" class="edge"><title>0&#45;&gt;1</title>
<path fill="none" stroke="black" d="M74.0898,-75.3214C97.3646,-75.7183 140.333,-76.3055 177,-76 188.766,-75.902 201.828,-75.6958 212.752,-75.496"/>
<polygon fill="black" stroke="black" points="219.932,-75.3601 212.993,-78.6421 216.432,-75.4264 212.933,-75.4927 212.933,-75.4927 212.933,-75.4927 216.432,-75.4264 212.873,-72.3432 219.932,-75.3601 219.932,-75.3601"/>
<text text-anchor="start" x="145" y="-79.4" font-family="Lato" font-size="12.00">a &amp; b</text>
</g>
<!-- 2 -->
<g id="node4" class="node"><title>2</title>
<ellipse fill="#ffffa0" stroke="black" cx="159" cy="-18" rx="18" ry="18"/>
<text text-anchor="middle" x="159" y="-14.9" font-family="Lato" font-size="12.00">2</text>
</g>
<!-- 0&#45;&gt;2 -->
<g id="edge4" class="edge"><title>0&#45;&gt;2</title>
<path fill="none" stroke="#ff4da0" stroke-width="2" d="M72.3397,-66.3429C89.4943,-56.6616 117.395,-40.9157 136.669,-30.0382"/>
<polygon fill="#ff4da0" stroke="#ff4da0" stroke-width="2" points="142.847,-26.5518 138.299,-32.7355 140.044,-28.7075 136.996,-30.4277 136.751,-29.9923 136.505,-29.5568 139.553,-27.8366 135.202,-27.249 142.847,-26.5518 142.847,-26.5518"/>
<text text-anchor="start" x="92" y="-57.4" font-family="Lato" font-size="12.00">!a &amp; b</text>
</g>
<!-- 1&#45;&gt;1 -->
<g id="edge5" class="edge"><title>1&#45;&gt;1</title>
<path fill="none" stroke="black" d="M231.266,-92.0373C229.892,-101.858 232.137,-111 238,-111 242.397,-111 244.759,-105.858 245.086,-99.1433"/>
<polygon fill="black" stroke="black" points="244.734,-92.0373 248.226,-98.8728 244.907,-95.533 245.08,-99.0287 245.08,-99.0287 245.08,-99.0287 244.907,-95.533 241.934,-99.1847 244.734,-92.0373 244.734,-92.0373"/>
<text text-anchor="start" x="234.5" y="-127.4" font-family="Lato" font-size="12.00">1</text>
<text text-anchor="start" x="231" y="-114.4" font-family="Lato" font-size="12.00" fill="#1f78b4">⓿</text>
</g>
<!-- 2&#45;&gt;1 -->
<g id="edge6" class="edge"><title>2&#45;&gt;1</title>
<path fill="none" stroke="black" d="M174.123,-28.4547C186.171,-37.3734 203.63,-50.2973 217.095,-60.2649"/>
<polygon fill="black" stroke="black" points="222.967,-64.6116 215.466,-62.9785 220.153,-62.5292 217.34,-60.4467 217.34,-60.4467 217.34,-60.4467 220.153,-62.5292 219.215,-57.9149 222.967,-64.6116 222.967,-64.6116"/>
<text text-anchor="start" x="195" y="-51.4" font-family="Lato" font-size="12.00">a</text>
</g>
<!-- 2&#45;&gt;2 -->
<g id="edge7" class="edge"><title>2&#45;&gt;2</title>
<path fill="none" stroke="black" d="M152.266,-35.0373C150.892,-44.8579 153.137,-54 159,-54 163.397,-54 165.759,-48.8576 166.086,-42.1433"/>
<polygon fill="black" stroke="black" points="165.734,-35.0373 169.226,-41.8728 165.907,-38.533 166.08,-42.0287 166.08,-42.0287 166.08,-42.0287 165.907,-38.533 162.934,-42.1847 165.734,-35.0373 165.734,-35.0373"/>
<text text-anchor="start" x="154" y="-57.4" font-family="Lato" font-size="12.00">!a</text>
</g>
</g>
</svg>
