<?xml version="1.0" encoding="UTF-8" standalone="no"?>
<?xml-stylesheet href="spot.css" type="text/css"?>
<!DOCTYPE svg PUBLIC "-//W3C//DTD SVG 1.1//EN"
 "http://www.w3.org/Graphics/SVG/1.1/DTD/svg11.dtd">
<!-- Generated by graphviz version 2.38.0 (20140413.2041)
 -->
<!-- Title: G Pages: 1 -->
<svg width="423pt" height="83pt"
 viewBox="0.00 0.00 423.00 83.00" xmlns="http://www.w3.org/2000/svg" xmlns:xlink="http://www.w3.org/1999/xlink">
<g id="graph0" class="graph" transform="scale(1 1) rotate(0) translate(4 79)">
<title>G</title>
<polygon fill="white" stroke="none" points="-4,4 -4,-79 419,-79 419,4 -4,4"/>
<!-- I -->
<!-- 2 -->
<g id="node2" class="node"><title>2</title>
<ellipse fill="#ffffa0" stroke="black" cx="60" cy="-22" rx="18" ry="18"/>
<ellipse fill="none" stroke="black" cx="60" cy="-22" rx="22" ry="22"/>
<text text-anchor="middle" x="60" y="-18.9" font-family="Lato" font-size="12.00">2</text>
</g>
<!-- I&#45;&gt;2 -->
<g id="edge1" class="edge"><title>I&#45;&gt;2</title>
<path fill="none" stroke="black" d="M1.16638,-22C2.84121,-22 16.884,-22 30.7112,-22"/>
<polygon fill="black" stroke="black" points="37.8555,-22 30.8556,-25.1501 34.3555,-22 30.8555,-22.0001 30.8555,-22.0001 30.8555,-22.0001 34.3555,-22 30.8555,-18.8501 37.8555,-22 37.8555,-22"/>
</g>
<!-- 2&#45;&gt;2 -->
<g id="edge7" class="edge"><title>2&#45;&gt;2</title>
<path fill="none" stroke="black" d="M52.6831,-42.9908C51.7798,-53.0872 54.2188,-62 60,-62 64.3359,-62 66.7918,-56.9866 67.3677,-50.2204"/>
<polygon fill="black" stroke="black" points="67.3169,-42.9908 70.5161,-49.9684 67.3415,-46.4907 67.3662,-49.9906 67.3662,-49.9906 67.3662,-49.9906 67.3415,-46.4907 64.2163,-50.0128 67.3169,-42.9908 67.3169,-42.9908"/>
<text text-anchor="start" x="44.5" y="-65.4" font-family="Lato" font-size="12.00">!a &amp; b</text>
</g>
<!-- 1 -->
<g id="node4" class="node"><title>1</title>
<ellipse fill="#ffffa0" stroke="black" cx="171" cy="-22" rx="18" ry="18"/>
<ellipse fill="none" stroke="black" cx="171" cy="-22" rx="22" ry="22"/>
<text text-anchor="middle" x="171" y="-18.9" font-family="Lato" font-size="12.00">1</text>
</g>
<!-- 2&#45;&gt;1 -->
<g id="edge6" class="edge"><title>2&#45;&gt;1</title>
<path fill="none" stroke="black" d="M82.0163,-22C98.9466,-22 122.915,-22 141.561,-22"/>
<polygon fill="black" stroke="black" points="148.676,-22 141.676,-25.1501 145.176,-22 141.676,-22.0001 141.676,-22.0001 141.676,-22.0001 145.176,-22 141.676,-18.8501 148.676,-22 148.676,-22"/>
<text text-anchor="start" x="101.5" y="-25.4" font-family="Lato" font-size="12.00">a &amp; b</text>
</g>
<!-- 0 -->
<g id="node3" class="node"><title>0</title>
<ellipse fill="#ffffa0" stroke="black" cx="393" cy="-22" rx="18" ry="18"/>
<ellipse fill="none" stroke="black" cx="393" cy="-22" rx="22" ry="22"/>
<text text-anchor="middle" x="393" y="-18.9" font-family="Lato" font-size="12.00">0</text>
</g>
<!-- 0&#45;&gt;0 -->
<g id="edge2" class="edge"><title>0&#45;&gt;0</title>
<path fill="none" stroke="black" d="M383.293,-41.7575C381.643,-52.3499 384.879,-62 393,-62 399.218,-62 402.572,-56.3433 403.062,-48.9379"/>
<polygon fill="black" stroke="black" points="402.707,-41.7575 406.199,-48.5935 402.88,-45.2532 403.053,-48.749 403.053,-48.749 403.053,-48.749 402.88,-45.2532 399.907,-48.9044 402.707,-41.7575 402.707,-41.7575"/>
<text text-anchor="start" x="389.5" y="-65.4" font-family="Lato" font-size="12.00">b</text>
</g>
<!-- 1&#45;&gt;2 -->
<g id="edge4" class="edge"><title>1&#45;&gt;2</title>
<path fill="none" stroke="black" d="M151.079,-11.8952C144.86,-9.08541 137.797,-6.41698 131,-5 117.512,-2.18812 113.488,-2.18812 100,-5 95.5396,-5.92989 90.9643,-7.39874 86.5884,-9.09281"/>
<polygon fill="black" stroke="black" points="79.9214,-11.8952 85.1538,-6.27877 83.1479,-10.5389 86.3745,-9.18267 86.3745,-9.18267 86.3745,-9.18267 83.1479,-10.5389 87.5951,-12.0866 79.9214,-11.8952 79.9214,-11.8952"/>
<text text-anchor="start" x="100" y="-8.4" font-family="Lato" font-size="12.00">!a &amp; b</text>
</g>
<!-- 1&#45;&gt;1 -->
<g id="edge3" class="edge"><title>1&#45;&gt;1</title>
<path fill="none" stroke="black" d="M161.293,-41.7575C159.643,-52.3499 162.879,-62 171,-62 177.218,-62 180.572,-56.3433 181.062,-48.9379"/>
<polygon fill="black" stroke="black" points="180.707,-41.7575 184.199,-48.5935 180.88,-45.2532 181.053,-48.749 181.053,-48.749 181.053,-48.749 180.88,-45.2532 177.907,-48.9044 180.707,-41.7575 180.707,-41.7575"/>
<text text-anchor="start" x="157" y="-65.4" font-family="Lato" font-size="12.00">a &amp; b</text>
</g>
<!-- 3 -->
<g id="node5" class="node"><title>3</title>
<ellipse fill="#ffffa0" stroke="black" cx="282" cy="-22" rx="18" ry="18"/>
<ellipse fill="none" stroke="black" cx="282" cy="-22" rx="22" ry="22"/>
<text text-anchor="middle" x="282" y="-18.9" font-family="Lato" font-size="12.00">3</text>
</g>
<!-- 1&#45;&gt;3 -->
<g id="edge5" class="edge"><title>1&#45;&gt;3</title>
<path fill="none" stroke="black" d="M193.016,-22C209.947,-22 233.915,-22 252.561,-22"/>
<polygon fill="black" stroke="black" points="259.676,-22 252.676,-25.1501 256.176,-22 252.676,-22.0001 252.676,-22.0001 252.676,-22.0001 256.176,-22 252.676,-18.8501 259.676,-22 259.676,-22"/>
<text text-anchor="start" x="211" y="-25.4" font-family="Lato" font-size="12.00">a &amp; !b</text>
</g>
<!-- 3&#45;&gt;0 -->
<g id="edge8" class="edge"><title>3&#45;&gt;0</title>
<path fill="none" stroke="black" d="M304.016,-22C320.947,-22 344.915,-22 363.561,-22"/>
<polygon fill="black" stroke="black" points="370.676,-22 363.676,-25.1501 367.176,-22 363.676,-22.0001 363.676,-22.0001 363.676,-22.0001 367.176,-22 363.676,-18.8501 370.676,-22 370.676,-22"/>
<text text-anchor="start" x="322" y="-25.4" font-family="Lato" font-size="12.00">!a &amp; b</text>
</g>
<!-- 3&#45;&gt;3 -->
<g id="edge9" class="edge"><title>3&#45;&gt;3</title>
<path fill="none" stroke="black" d="M272.293,-41.7575C270.643,-52.3499 273.879,-62 282,-62 288.218,-62 291.572,-56.3433 292.062,-48.9379"/>
<polygon fill="black" stroke="black" points="291.707,-41.7575 295.199,-48.5935 291.88,-45.2532 292.053,-48.749 292.053,-48.749 292.053,-48.749 291.88,-45.2532 288.907,-48.9044 291.707,-41.7575 291.707,-41.7575"/>
<text text-anchor="start" x="278.5" y="-65.4" font-family="Lato" font-size="12.00">a</text>
</g>
</g>
</svg>
