<?xml version="1.0" encoding="UTF-8" standalone="no"?>
<?xml-stylesheet href="spot.css" type="text/css"?>
<!DOCTYPE svg PUBLIC "-//W3C//DTD SVG 1.1//EN"
 "http://www.w3.org/Graphics/SVG/1.1/DTD/svg11.dtd">
<!-- Generated by graphviz version 2.38.0 (20140413.2041)
 -->
<!-- Title: G Pages: 1 -->
<svg width="285pt" height="154pt"
 viewBox="0.00 0.00 285.00 154.00" xmlns="http://www.w3.org/2000/svg" xmlns:xlink="http://www.w3.org/1999/xlink">
<g id="graph0" class="graph" transform="scale(1 1) rotate(0) translate(4 150)">
<title>G</title>
<polygon fill="white" stroke="none" points="-4,4 -4,-150 281,-150 281,4 -4,4"/>
<!-- I -->
<!-- 0 -->
<g id="node2" class="node"><title>0</title>
<ellipse fill="#ffffa0" stroke="#ff4da0" stroke-width="2" cx="56" cy="-84" rx="18" ry="18"/>
<text text-anchor="middle" x="56" y="-80.9" font-family="Lato" font-size="12.00">0</text>
</g>
<!-- I&#45;&gt;0 -->
<g id="edge1" class="edge"><title>I&#45;&gt;0</title>
<path fill="none" stroke="black" d="M1.15491,-84C2.79388,-84 17.1543,-84 30.6317,-84"/>
<polygon fill="black" stroke="black" points="37.9419,-84 30.9419,-87.1501 34.4419,-84 30.9419,-84.0001 30.9419,-84.0001 30.9419,-84.0001 34.4419,-84 30.9418,-80.8501 37.9419,-84 37.9419,-84"/>
</g>
<!-- 0&#45;&gt;0 -->
<g id="edge2" class="edge"><title>0&#45;&gt;0</title>
<path fill="none" stroke="#ff4da0" stroke-width="2" d="M49.6208,-101.037C48.3189,-110.858 50.4453,-120 56,-120 60.166,-120 62.4036,-114.858 62.7128,-108.143"/>
<polygon fill="#ff4da0" stroke="#ff4da0" stroke-width="2" points="62.3792,-101.037 65.8541,-107.882 63.0428,-104.51 63.207,-108.006 62.7076,-108.03 62.2081,-108.053 62.0439,-104.557 59.561,-108.177 62.3792,-101.037 62.3792,-101.037"/>
<text text-anchor="start" x="52.5" y="-123.4" font-family="Lato" font-size="12.00">b</text>
</g>
<!-- 1 -->
<g id="node3" class="node"><title>1</title>
<ellipse fill="#ffffa0" stroke="black" cx="259" cy="-84" rx="18" ry="18"/>
<text text-anchor="middle" x="259" y="-80.9" font-family="Lato" font-size="12.00">1</text>
</g>
<!-- 0&#45;&gt;1 -->
<g id="edge3" class="edge"><title>0&#45;&gt;1</title>
<path fill="none" stroke="#ff4da0" stroke-width="2" d="M74.0522,-85.3591C90.4344,-86.5921 115.89,-88.3183 138,-89 171.242,-90.025 209.644,-87.8318 233.872,-86.0327"/>
<polygon fill="#ff4da0" stroke="#ff4da0" stroke-width="2" points="240.914,-85.491 234.177,-89.1687 237.463,-86.258 233.973,-86.5265 233.935,-86.028 233.897,-85.5294 237.386,-85.261 233.693,-82.8872 240.914,-85.491 240.914,-85.491"/>
<text text-anchor="start" x="140.5" y="-92.4" font-family="Lato" font-size="12.00">!a &amp; b</text>
</g>
<!-- 2 -->
<g id="node4" class="node"><title>2</title>
<ellipse fill="#ffffa0" stroke="black" cx="156" cy="-18" rx="18" ry="18"/>
<text text-anchor="middle" x="156" y="-14.9" font-family="Lato" font-size="12.00">2</text>
</g>
<!-- 0&#45;&gt;2 -->
<g id="edge4" class="edge"><title>0&#45;&gt;2</title>
<path fill="none" stroke="#ff4da0" stroke-width="2" d="M71.4602,-74.2615C88.1069,-63.0504 115.575,-44.5516 134.44,-31.8462"/>
<polygon fill="#ff4da0" stroke="#ff4da0" stroke-width="2" points="140.48,-27.7785 136.434,-34.3015 137.857,-30.1483 134.954,-32.1034 134.674,-31.6887 134.395,-31.274 137.298,-29.3189 132.915,-29.076 140.48,-27.7785 140.48,-27.7785"/>
<text text-anchor="start" x="92" y="-61.4" font-family="Lato" font-size="12.00">a &amp; b</text>
</g>
<!-- 1&#45;&gt;1 -->
<g id="edge5" class="edge"><title>1&#45;&gt;1</title>
<path fill="none" stroke="black" d="M250.367,-99.916C248.114,-110.15 250.992,-120 259,-120 265.131,-120 268.255,-114.226 268.372,-106.927"/>
<polygon fill="black" stroke="black" points="267.633,-99.916 271.499,-106.548 268,-103.397 268.367,-106.878 268.367,-106.878 268.367,-106.878 268,-103.397 265.234,-107.207 267.633,-99.916 267.633,-99.916"/>
<text text-anchor="start" x="255.5" y="-136.4" font-family="Lato" font-size="12.00">b</text>
<text text-anchor="start" x="252" y="-123.4" font-family="Lato" font-size="12.00" fill="#1f78b4">⓿</text>
</g>
<!-- 2&#45;&gt;1 -->
<g id="edge6" class="edge"><title>2&#45;&gt;1</title>
<path fill="none" stroke="black" d="M171.471,-27.4562C188.796,-38.7775 217.926,-57.813 237.547,-70.6345"/>
<polygon fill="black" stroke="black" points="243.556,-74.5614 235.973,-73.369 240.626,-72.6467 237.696,-70.7321 237.696,-70.7321 237.696,-70.7321 240.626,-72.6467 239.419,-68.0952 243.556,-74.5614 243.556,-74.5614"/>
<text text-anchor="start" x="192" y="-63.4" font-family="Lato" font-size="12.00">!a &amp; b</text>
</g>
<!-- 2&#45;&gt;2 -->
<g id="edge7" class="edge"><title>2&#45;&gt;2</title>
<path fill="none" stroke="black" d="M147.367,-33.916C145.114,-44.1504 147.992,-54 156,-54 162.131,-54 165.255,-48.2263 165.372,-40.9268"/>
<polygon fill="black" stroke="black" points="164.633,-33.916 168.499,-40.5477 165,-37.3968 165.367,-40.8775 165.367,-40.8775 165.367,-40.8775 165,-37.3968 162.234,-41.2074 164.633,-33.916 164.633,-33.916"/>
<text text-anchor="start" x="152.5" y="-70.4" font-family="Lato" font-size="12.00">a</text>
<text text-anchor="start" x="149" y="-57.4" font-family="Lato" font-size="12.00" fill="#1f78b4">⓿</text>
</g>
</g>
</svg>
