<?xml version="1.0" encoding="UTF-8" standalone="no"?>
<?xml-stylesheet href="spot.css" type="text/css"?>
<!DOCTYPE svg PUBLIC "-//W3C//DTD SVG 1.1//EN"
 "http://www.w3.org/Graphics/SVG/1.1/DTD/svg11.dtd">
<!-- Generated by graphviz version 2.38.0 (20140413.2041)
 -->
<!-- Title: G Pages: 1 -->
<svg width="285pt" height="75pt"
 viewBox="0.00 0.00 285.00 75.00" xmlns="http://www.w3.org/2000/svg" xmlns:xlink="http://www.w3.org/1999/xlink">
<g id="graph0" class="graph" transform="scale(1 1) rotate(0) translate(4 71)">
<title>G</title>
<polygon fill="white" stroke="none" points="-4,4 -4,-71 281,-71 281,4 -4,4"/>
<!-- I -->
<!-- 0 -->
<g id="node2" class="node"><title>0</title>
<ellipse fill="#ffffa0" stroke="#ff4da0" stroke-width="2" cx="56" cy="-18" rx="18" ry="18"/>
<text text-anchor="middle" x="56" y="-14.9" font-family="Lato" font-size="12.00">0</text>
</g>
<!-- I&#45;&gt;0 -->
<g id="edge1" class="edge"><title>I&#45;&gt;0</title>
<path fill="none" stroke="black" d="M1.15491,-18C2.79388,-18 17.1543,-18 30.6317,-18"/>
<polygon fill="black" stroke="black" points="37.9419,-18 30.9419,-21.1501 34.4419,-18 30.9419,-18.0001 30.9419,-18.0001 30.9419,-18.0001 34.4419,-18 30.9418,-14.8501 37.9419,-18 37.9419,-18"/>
</g>
<!-- 0&#45;&gt;0 -->
<g id="edge2" class="edge"><title>0&#45;&gt;0</title>
<path fill="none" stroke="#ff4da0" stroke-width="2" d="M49.6208,-35.0373C48.3189,-44.8579 50.4453,-54 56,-54 60.166,-54 62.4036,-48.8576 62.7128,-42.1433"/>
<polygon fill="#ff4da0" stroke="#ff4da0" stroke-width="2" points="62.3792,-35.0373 65.8541,-41.8818 63.0428,-38.51 63.207,-42.0062 62.7076,-42.0296 62.2081,-42.0531 62.0439,-38.5569 59.561,-42.1774 62.3792,-35.0373 62.3792,-35.0373"/>
<text text-anchor="start" x="52.5" y="-57.4" font-family="Lato" font-size="12.00">b</text>
</g>
<!-- 2 -->
<g id="node3" class="node"><title>2</title>
<ellipse fill="#ffffa0" stroke="black" cx="156" cy="-18" rx="18" ry="18"/>
<text text-anchor="middle" x="156" y="-14.9" font-family="Lato" font-size="12.00">2</text>
</g>
<!-- 0&#45;&gt;2 -->
<g id="edge3" class="edge"><title>0&#45;&gt;2</title>
<path fill="none" stroke="#ff4da0" stroke-width="2" d="M74.0703,-18C89.7132,-18 113.046,-18 130.644,-18"/>
<polygon fill="#ff4da0" stroke="#ff4da0" stroke-width="2" points="137.797,-18 130.797,-21.1501 134.297,-18.5 130.797,-18.5001 130.797,-18.0001 130.796,-17.5001 134.296,-17.5 130.796,-14.8501 137.797,-18 137.797,-18"/>
<text text-anchor="start" x="92" y="-21.4" font-family="Lato" font-size="12.00">a &amp; b</text>
</g>
<!-- 2&#45;&gt;2 -->
<g id="edge6" class="edge"><title>2&#45;&gt;2</title>
<path fill="none" stroke="black" d="M147.367,-33.916C145.114,-44.1504 147.992,-54 156,-54 162.131,-54 165.255,-48.2263 165.372,-40.9268"/>
<polygon fill="black" stroke="black" points="164.633,-33.916 168.499,-40.5477 165,-37.3968 165.367,-40.8775 165.367,-40.8775 165.367,-40.8775 165,-37.3968 162.234,-41.2074 164.633,-33.916 164.633,-33.916"/>
<text text-anchor="start" x="152.5" y="-57.4" font-family="Lato" font-size="12.00">a</text>
</g>
<!-- 1 -->
<g id="node4" class="node"><title>1</title>
<ellipse fill="#ffffa0" stroke="black" cx="259" cy="-18" rx="18" ry="18"/>
<text text-anchor="middle" x="259" y="-14.9" font-family="Lato" font-size="12.00">1</text>
</g>
<!-- 2&#45;&gt;1 -->
<g id="edge5" class="edge"><title>2&#45;&gt;1</title>
<path fill="none" stroke="black" d="M174.133,-18C190.384,-18 214.98,-18 233.339,-18"/>
<polygon fill="black" stroke="black" points="240.783,-18 233.783,-21.1501 237.283,-18 233.783,-18.0001 233.783,-18.0001 233.783,-18.0001 237.283,-18 233.783,-14.8501 240.783,-18 240.783,-18"/>
<text text-anchor="start" x="192" y="-21.4" font-family="Lato" font-size="12.00">!a &amp; b</text>
</g>
<!-- 1&#45;&gt;1 -->
<g id="edge4" class="edge"><title>1&#45;&gt;1</title>
<path fill="none" stroke="black" d="M250.367,-33.916C248.114,-44.1504 250.992,-54 259,-54 265.131,-54 268.255,-48.2263 268.372,-40.9268"/>
<polygon fill="black" stroke="black" points="267.633,-33.916 271.499,-40.5477 268,-37.3968 268.367,-40.8775 268.367,-40.8775 268.367,-40.8775 268,-37.3968 265.234,-41.2074 267.633,-33.916 267.633,-33.916"/>
<text text-anchor="start" x="255.5" y="-57.4" font-family="Lato" font-size="12.00">b</text>
</g>
</g>
</svg>
