<?xml version="1.0" encoding="UTF-8" standalone="no"?>
<?xml-stylesheet href="spot.css" type="text/css"?>
<!DOCTYPE svg PUBLIC "-//W3C//DTD SVG 1.1//EN"
 "http://www.w3.org/Graphics/SVG/1.1/DTD/svg11.dtd">
<!-- Generated by graphviz version 2.38.0 (20140413.2041)
 -->
<!-- Title: G Pages: 1 -->
<svg width="188pt" height="120pt"
 viewBox="0.00 0.00 188.00 119.66" xmlns="http://www.w3.org/2000/svg" xmlns:xlink="http://www.w3.org/1999/xlink">
<g id="graph0" class="graph" transform="scale(1 1) rotate(0) translate(4 115.657)">
<title>G</title>
<polygon fill="white" stroke="none" points="-4,4 -4,-115.657 184,-115.657 184,4 -4,4"/>
<text text-anchor="start" x="71" y="-99.0568" font-family="Lato" font-size="12.00">Fin(</text>
<text text-anchor="start" x="91" y="-99.0568" font-family="Lato" font-size="12.00" fill="#1f78b4">⓿</text>
<text text-anchor="start" x="105" y="-99.0568" font-family="Lato" font-size="12.00">)</text>
<text text-anchor="start" x="62.5" y="-87.0568" font-family="Lato" font-size="12.00">[co&#45;Büchi]</text>
<!-- I -->
<!-- 0 -->
<g id="node2" class="node"><title>0</title>
<ellipse fill="#ffffa0" stroke="black" cx="56" cy="-30.6568" rx="18" ry="18"/>
<text text-anchor="middle" x="56" y="-27.5568" font-family="Lato" font-size="12.00">0</text>
</g>
<!-- I&#45;&gt;0 -->
<g id="edge1" class="edge"><title>I&#45;&gt;0</title>
<path fill="none" stroke="black" d="M1.15491,-30.6568C2.79388,-30.6568 17.1543,-30.6568 30.6317,-30.6568"/>
<polygon fill="black" stroke="black" points="37.9419,-30.6568 30.9419,-33.8069 34.4419,-30.6569 30.9419,-30.6569 30.9419,-30.6569 30.9419,-30.6569 34.4419,-30.6569 30.9418,-27.5069 37.9419,-30.6568 37.9419,-30.6568"/>
</g>
<!-- 0&#45;&gt;0 -->
<g id="edge2" class="edge"><title>0&#45;&gt;0</title>
<path fill="none" stroke="black" d="M49.6208,-47.6941C48.3189,-57.5147 50.4453,-66.6568 56,-66.6568 60.166,-66.6568 62.4036,-61.5144 62.7128,-54.8001"/>
<polygon fill="black" stroke="black" points="62.3792,-47.6941 65.8541,-54.5386 62.5434,-51.1903 62.7076,-54.6864 62.7076,-54.6864 62.7076,-54.6864 62.5434,-51.1903 59.561,-54.8342 62.3792,-47.6941 62.3792,-47.6941"/>
<text text-anchor="start" x="45" y="-70.0568" font-family="Lato" font-size="12.00">a | b</text>
</g>
<!-- 1 -->
<g id="node3" class="node"><title>1</title>
<ellipse fill="#ffffa0" stroke="black" cx="162" cy="-30.6568" rx="18" ry="18"/>
<text text-anchor="middle" x="162" y="-27.5568" font-family="Lato" font-size="12.00">1</text>
</g>
<!-- 0&#45;&gt;1 -->
<g id="edge3" class="edge"><title>0&#45;&gt;1</title>
<path fill="none" stroke="black" d="M74.071,-32.4143C79.7664,-32.9221 86.1506,-33.4066 92,-33.6568 107.097,-34.3026 110.903,-34.3026 126,-33.6568 129.473,-33.5082 133.135,-33.2771 136.729,-33.0075"/>
<polygon fill="black" stroke="black" points="143.929,-32.4143 137.211,-36.1285 140.441,-32.7018 136.953,-32.9892 136.953,-32.9892 136.953,-32.9892 140.441,-32.7018 136.694,-29.8498 143.929,-32.4143 143.929,-32.4143"/>
<text text-anchor="start" x="92" y="-37.0568" font-family="Lato" font-size="12.00">!a &amp; !b</text>
</g>
<!-- 1&#45;&gt;0 -->
<g id="edge4" class="edge"><title>1&#45;&gt;0</title>
<path fill="none" stroke="black" d="M148.926,-18.1252C142.677,-12.5435 134.571,-6.5787 126,-3.6568 111.697,1.21893 106.303,1.21893 92,-3.6568 85.8393,-5.75692 79.9192,-9.429 74.7563,-13.4009"/>
<polygon fill="black" stroke="black" points="69.0744,-18.1252 72.443,-11.2277 71.7657,-15.8875 74.4569,-13.6498 74.4569,-13.6498 74.4569,-13.6498 71.7657,-15.8875 76.4708,-16.072 69.0744,-18.1252 69.0744,-18.1252"/>
<text text-anchor="start" x="105.5" y="-20.0568" font-family="Lato" font-size="12.00">a</text>
<text text-anchor="start" x="102" y="-7.0568" font-family="Lato" font-size="12.00" fill="#1f78b4">⓿</text>
</g>
<!-- 1&#45;&gt;1 -->
<g id="edge5" class="edge"><title>1&#45;&gt;1</title>
<path fill="none" stroke="black" d="M153.021,-46.5728C150.679,-56.8072 153.672,-66.6568 162,-66.6568 168.376,-66.6568 171.625,-60.8831 171.746,-53.5836"/>
<polygon fill="black" stroke="black" points="170.979,-46.5728 174.872,-53.1883 171.36,-50.052 171.741,-53.5312 171.741,-53.5312 171.741,-53.5312 171.36,-50.052 168.61,-53.8742 170.979,-46.5728 170.979,-46.5728"/>
<text text-anchor="start" x="157" y="-70.0568" font-family="Lato" font-size="12.00">!a</text>
</g>
</g>
</svg>
