<?xml version="1.0" encoding="UTF-8" standalone="no"?>
<?xml-stylesheet href="spot.css" type="text/css"?>
<!DOCTYPE svg PUBLIC "-//W3C//DTD SVG 1.1//EN"
 "http://www.w3.org/Graphics/SVG/1.1/DTD/svg11.dtd">
<!-- Generated by graphviz version 2.38.0 (20140413.2041)
 -->
<!-- Title: G Pages: 1 -->
<svg width="524pt" height="286pt"
 viewBox="0.00 0.00 524.33 286.00" xmlns="http://www.w3.org/2000/svg" xmlns:xlink="http://www.w3.org/1999/xlink">
<g id="graph0" class="graph" transform="scale(1 1) rotate(0) translate(4 282)">
<title>G</title>
<polygon fill="white" stroke="none" points="-4,4 -4,-282 520.333,-282 520.333,4 -4,4"/>
<text text-anchor="start" x="161.167" y="-265.4" font-family="Lato" font-size="12.00">(Fin(</text>
<text text-anchor="start" x="184.167" y="-265.4" font-family="Lato" font-size="12.00" fill="#1f78b4">⓿</text>
<text text-anchor="start" x="198.167" y="-265.4" font-family="Lato" font-size="12.00">) &amp; Inf(</text>
<text text-anchor="start" x="233.167" y="-265.4" font-family="Lato" font-size="12.00" fill="#ff4da0">❶</text>
<text text-anchor="start" x="247.167" y="-265.4" font-family="Lato" font-size="12.00">)) | (Fin(</text>
<text text-anchor="start" x="285.167" y="-265.4" font-family="Lato" font-size="12.00" fill="#ff7f00">❷</text>
<text text-anchor="start" x="299.167" y="-265.4" font-family="Lato" font-size="12.00">) &amp; Inf(</text>
<text text-anchor="start" x="334.167" y="-265.4" font-family="Lato" font-size="12.00" fill="#6a3d9a">❸</text>
<text text-anchor="start" x="348.167" y="-265.4" font-family="Lato" font-size="12.00">))</text>
<text text-anchor="start" x="234.167" y="-253.4" font-family="Lato" font-size="12.00">[Rabin 2]</text>
<!-- I -->
<!-- 0 -->
<g id="node2" class="node"><title>0</title>
<ellipse fill="#ffffa0" stroke="black" cx="62.0416" cy="-101" rx="24.0833" ry="24.0833"/>
<text text-anchor="start" x="58.5416" y="-104.4" font-family="Lato" font-size="12.00">0</text>
<text text-anchor="start" x="55.0416" y="-91.4" font-family="Lato" font-size="12.00" fill="#ff4da0">❶</text>
</g>
<!-- I&#45;&gt;0 -->
<g id="edge1" class="edge"><title>I&#45;&gt;0</title>
<path fill="none" stroke="black" d="M1.04352,-101C1.9346,-101 16.3644,-101 30.8478,-101"/>
<polygon fill="black" stroke="black" points="37.9031,-101 30.9032,-104.15 34.4031,-101 30.9031,-101 30.9031,-101 30.9031,-101 34.4031,-101 30.9031,-97.8501 37.9031,-101 37.9031,-101"/>
</g>
<!-- 0&#45;&gt;0 -->
<g id="edge2" class="edge"><title>0&#45;&gt;0</title>
<path fill="none" stroke="black" d="M54.2897,-123.92C53.5514,-134.173 56.1354,-143.042 62.0416,-143.042 66.4713,-143.042 69.0322,-138.053 69.7244,-131.233"/>
<polygon fill="black" stroke="black" points="69.7936,-123.92 72.8771,-130.949 69.7604,-127.42 69.7272,-130.919 69.7272,-130.919 69.7272,-130.919 69.7604,-127.42 66.5774,-130.89 69.7936,-123.92 69.7936,-123.92"/>
<text text-anchor="start" x="58.5416" y="-146.442" font-family="Lato" font-size="12.00">a</text>
</g>
<!-- 1 -->
<g id="node3" class="node"><title>1</title>
<ellipse fill="#ffffa0" stroke="black" cx="498.333" cy="-87" rx="18" ry="18"/>
<text text-anchor="middle" x="498.333" y="-83.9" font-family="Lato" font-size="12.00">1</text>
</g>
<!-- 0&#45;&gt;1 -->
<g id="edge3" class="edge"><title>0&#45;&gt;1</title>
<path fill="none" stroke="black" d="M70.6175,-123.692C84.817,-161.432 119.243,-233 176.125,-233 176.125,-233 176.125,-233 411.291,-233 466.801,-233 487.225,-153.697 494.128,-111.984"/>
<polygon fill="black" stroke="black" points="495.23,-104.902 497.266,-112.304 494.692,-108.361 494.154,-111.819 494.154,-111.819 494.154,-111.819 494.692,-108.361 491.041,-111.335 495.23,-104.902 495.23,-104.902"/>
<text text-anchor="start" x="275.208" y="-236.4" font-family="Lato" font-size="12.00">!a &amp; !b</text>
</g>
<!-- 2 -->
<g id="node4" class="node"><title>2</title>
<ellipse fill="#ffffa0" stroke="black" cx="177.125" cy="-93" rx="24.0833" ry="24.0833"/>
<text text-anchor="start" x="173.625" y="-96.4" font-family="Lato" font-size="12.00">2</text>
<text text-anchor="start" x="170.125" y="-83.4" font-family="Lato" font-size="12.00" fill="#6a3d9a">❸</text>
</g>
<!-- 0&#45;&gt;2 -->
<g id="edge4" class="edge"><title>0&#45;&gt;2</title>
<path fill="none" stroke="black" d="M83.8448,-90.5342C90.1819,-87.8573 97.2755,-85.3541 104.083,-84 118.06,-81.2198 133.744,-82.6508 146.9,-85.1156"/>
<polygon fill="black" stroke="black" points="153.922,-86.5711 146.428,-88.2347 150.494,-85.8607 147.067,-85.1503 147.067,-85.1503 147.067,-85.1503 150.494,-85.8607 147.707,-82.0659 153.922,-86.5711 153.922,-86.5711"/>
<text text-anchor="start" x="104.083" y="-87.4" font-family="Lato" font-size="12.00">!a &amp; b</text>
</g>
<!-- 1&#45;&gt;0 -->
<g id="edge5" class="edge"><title>1&#45;&gt;0</title>
<path fill="none" stroke="black" d="M490.218,-70.636C478.024,-45.4342 450.591,-0 411.291,-0 176.125,-0 176.125,-0 176.125,-0 131.644,-0 96.6141,-44.0063 77.9388,-73.9235"/>
<polygon fill="black" stroke="black" points="74.2044,-80.0727 75.1455,-72.4545 76.0212,-77.0812 77.838,-74.0896 77.838,-74.0896 77.838,-74.0896 76.0212,-77.0812 80.5304,-75.7247 74.2044,-80.0727 74.2044,-80.0727"/>
<text text-anchor="start" x="288.708" y="-3.4" font-family="Lato" font-size="12.00">a</text>
</g>
<!-- 1&#45;&gt;1 -->
<g id="edge6" class="edge"><title>1&#45;&gt;1</title>
<path fill="none" stroke="black" d="M491.302,-103.664C489.739,-113.625 492.083,-123 498.333,-123 503.021,-123 505.511,-117.727 505.804,-110.888"/>
<polygon fill="black" stroke="black" points="505.364,-103.664 508.934,-110.46 505.577,-107.158 505.789,-110.651 505.789,-110.651 505.789,-110.651 505.577,-107.158 502.645,-110.842 505.364,-103.664 505.364,-103.664"/>
<text text-anchor="start" x="493.333" y="-126.4" font-family="Lato" font-size="12.00">!a</text>
</g>
<!-- 2&#45;&gt;0 -->
<g id="edge7" class="edge"><title>2&#45;&gt;0</title>
<path fill="none" stroke="black" d="M153.131,-95.4115C147.251,-95.9812 140.937,-96.5525 135.083,-97 121.406,-98.0458 106.247,-98.9288 93.3778,-99.5969"/>
<polygon fill="black" stroke="black" points="86.0933,-99.9651 92.9254,-96.4657 89.5889,-99.7884 93.0844,-99.6117 93.0844,-99.6117 93.0844,-99.6117 89.5889,-99.7884 93.2435,-102.758 86.0933,-99.9651 86.0933,-99.9651"/>
<text text-anchor="start" x="104.083" y="-101.4" font-family="Lato" font-size="12.00">a &amp; !b</text>
</g>
<!-- 2&#45;&gt;2 -->
<g id="edge8" class="edge"><title>2&#45;&gt;2</title>
<path fill="none" stroke="black" d="M166.881,-115.062C165.617,-125.674 169.031,-135.042 177.125,-135.042 183.322,-135.042 186.776,-129.55 187.487,-122.214"/>
<polygon fill="black" stroke="black" points="187.369,-115.062 190.634,-122.009 187.426,-118.562 187.484,-122.061 187.484,-122.061 187.484,-122.061 187.426,-118.562 184.335,-122.113 187.369,-115.062 187.369,-115.062"/>
<text text-anchor="start" x="161.625" y="-138.442" font-family="Lato" font-size="12.00">!a &amp; b</text>
</g>
<!-- 3 -->
<g id="node5" class="node"><title>3</title>
<ellipse fill="#ffffa0" stroke="black" cx="410.291" cy="-87" rx="24.0833" ry="24.0833"/>
<text text-anchor="start" x="406.791" y="-90.4" font-family="Lato" font-size="12.00">3</text>
<text text-anchor="start" x="403.291" y="-77.4" font-family="Lato" font-size="12.00" fill="#ff7f00">❷</text>
</g>
<!-- 2&#45;&gt;3 -->
<g id="edge9" class="edge"><title>2&#45;&gt;3</title>
<path fill="none" stroke="black" d="M201.563,-92.3917C243.728,-91.2972 332.321,-88.9978 379.015,-87.7858"/>
<polygon fill="black" stroke="black" points="386.135,-87.601 379.22,-90.9317 382.637,-87.6919 379.138,-87.7827 379.138,-87.7827 379.138,-87.7827 382.637,-87.6919 379.056,-84.6338 386.135,-87.601 386.135,-87.601"/>
<text text-anchor="start" x="275.208" y="-93.4" font-family="Lato" font-size="12.00">!a &amp; !b</text>
</g>
<!-- 4 -->
<g id="node6" class="node"><title>4</title>
<ellipse fill="#ffffa0" stroke="black" cx="292.208" cy="-142" rx="24.0833" ry="24.0833"/>
<text text-anchor="start" x="288.708" y="-145.4" font-family="Lato" font-size="12.00">4</text>
<text text-anchor="start" x="285.208" y="-132.4" font-family="Lato" font-size="12.00" fill="#ff4da0">❶</text>
</g>
<!-- 2&#45;&gt;4 -->
<g id="edge10" class="edge"><title>2&#45;&gt;4</title>
<path fill="none" stroke="black" d="M200.117,-100.882C214.509,-106.202 233.639,-113.583 250.167,-121 254.68,-123.026 259.407,-125.297 263.981,-127.578"/>
<polygon fill="black" stroke="black" points="270.53,-130.899 262.862,-130.543 267.408,-129.316 264.286,-127.733 264.286,-127.733 264.286,-127.733 267.408,-129.316 265.711,-124.924 270.53,-130.899 270.53,-130.899"/>
<text text-anchor="start" x="220.667" y="-124.4" font-family="Lato" font-size="12.00">a &amp; b</text>
</g>
<!-- 3&#45;&gt;0 -->
<g id="edge11" class="edge"><title>3&#45;&gt;0</title>
<path fill="none" stroke="black" d="M386.866,-80.4364C342.13,-68.2662 238.733,-44.7661 153.083,-60 130.19,-64.0719 106.33,-75.3025 88.9273,-84.9819"/>
<polygon fill="black" stroke="black" points="82.8218,-88.4617 87.3436,-82.2588 85.8626,-86.7286 88.9034,-84.9955 88.9034,-84.9955 88.9034,-84.9955 85.8626,-86.7286 90.4632,-87.7322 82.8218,-88.4617 82.8218,-88.4617"/>
<text text-anchor="start" x="231.167" y="-59.4" font-family="Lato" font-size="12.00">a</text>
</g>
<!-- 3&#45;&gt;1 -->
<g id="edge12" class="edge"><title>3&#45;&gt;1</title>
<path fill="none" stroke="black" d="M434.349,-87C446.304,-87 460.901,-87 473.031,-87"/>
<polygon fill="black" stroke="black" points="480.22,-87 473.22,-90.1501 476.72,-87 473.22,-87.0001 473.22,-87.0001 473.22,-87.0001 476.72,-87 473.22,-83.8501 480.22,-87 480.22,-87"/>
<text text-anchor="start" x="452.333" y="-90.4" font-family="Lato" font-size="12.00">!a</text>
</g>
<!-- 4&#45;&gt;0 -->
<g id="edge13" class="edge"><title>4&#45;&gt;0</title>
<path fill="none" stroke="black" d="M270.405,-152.466C264.068,-155.143 256.974,-157.646 250.167,-159 207.839,-167.42 194.397,-169.478 153.083,-157 128.384,-149.54 103.741,-133.463 86.4953,-120.44"/>
<polygon fill="black" stroke="black" points="80.9411,-116.158 88.4081,-117.938 83.7129,-118.295 86.4847,-120.432 86.4847,-120.432 86.4847,-120.432 83.7129,-118.295 84.5613,-122.927 80.9411,-116.158 80.9411,-116.158"/>
<text text-anchor="start" x="161.625" y="-168.4" font-family="Lato" font-size="12.00">a &amp; !b</text>
</g>
<!-- 4&#45;&gt;2 -->
<g id="edge14" class="edge"><title>4&#45;&gt;2</title>
<path fill="none" stroke="black" d="M268.075,-143.255C253.393,-143.15 234.367,-141.3 219.167,-134 210.939,-130.048 203.393,-123.757 197.078,-117.277"/>
<polygon fill="black" stroke="black" points="192.074,-111.836 199.131,-114.856 194.443,-114.412 196.813,-116.988 196.813,-116.988 196.813,-116.988 194.443,-114.412 194.494,-119.121 192.074,-111.836 192.074,-111.836"/>
<text text-anchor="start" x="219.167" y="-145.4" font-family="Lato" font-size="12.00">!a &amp; b</text>
</g>
<!-- 4&#45;&gt;3 -->
<g id="edge15" class="edge"><title>4&#45;&gt;3</title>
<path fill="none" stroke="black" d="M314.23,-132.04C333.096,-123.101 360.917,-109.92 381.592,-100.124"/>
<polygon fill="black" stroke="black" points="388.034,-97.0718 383.057,-102.916 384.871,-98.5705 381.708,-100.069 381.708,-100.069 381.708,-100.069 384.871,-98.5705 380.359,-97.2224 388.034,-97.0718 388.034,-97.0718"/>
<text text-anchor="start" x="334.25" y="-124.4" font-family="Lato" font-size="12.00">!a &amp; !b</text>
</g>
<!-- 4&#45;&gt;4 -->
<g id="edge16" class="edge"><title>4&#45;&gt;4</title>
<path fill="none" stroke="black" d="M281.965,-164.062C280.7,-174.674 284.114,-184.042 292.208,-184.042 298.405,-184.042 301.859,-178.55 302.57,-171.214"/>
<polygon fill="black" stroke="black" points="302.452,-164.062 305.717,-171.009 302.51,-167.562 302.567,-171.061 302.567,-171.061 302.567,-171.061 302.51,-167.562 299.418,-171.113 302.452,-164.062 302.452,-164.062"/>
<text text-anchor="start" x="278.208" y="-187.442" font-family="Lato" font-size="12.00">a &amp; b</text>
</g>
</g>
</svg>
