<?xml version="1.0" encoding="UTF-8" standalone="no"?>
<?xml-stylesheet href="spot.css" type="text/css"?>
<!DOCTYPE svg PUBLIC "-//W3C//DTD SVG 1.1//EN"
 "http://www.w3.org/Graphics/SVG/1.1/DTD/svg11.dtd">
<!-- Generated by graphviz version 2.38.0 (20140413.2041)
 -->
<!-- Title: G Pages: 1 -->
<svg width="262pt" height="172pt"
 viewBox="0.00 0.00 262.00 172.00" xmlns="http://www.w3.org/2000/svg" xmlns:xlink="http://www.w3.org/1999/xlink">
<g id="graph0" class="graph" transform="scale(1 1) rotate(0) translate(4 168)">
<title>G</title>
<polygon fill="white" stroke="none" points="-4,4 -4,-168 258,-168 258,4 -4,4"/>
<!-- I -->
<!-- 2 -->
<g id="node2" class="node"><title>2</title>
<ellipse fill="#ffffa0" stroke="black" cx="56" cy="-72" rx="18" ry="18"/>
<text text-anchor="middle" x="56" y="-68.9" font-family="Lato" font-size="12.00">2</text>
</g>
<!-- I&#45;&gt;2 -->
<g id="edge1" class="edge"><title>I&#45;&gt;2</title>
<path fill="none" stroke="black" d="M1.15491,-72C2.79388,-72 17.1543,-72 30.6317,-72"/>
<polygon fill="black" stroke="black" points="37.9419,-72 30.9419,-75.1501 34.4419,-72 30.9419,-72.0001 30.9419,-72.0001 30.9419,-72.0001 34.4419,-72 30.9418,-68.8501 37.9419,-72 37.9419,-72"/>
</g>
<!-- 1 -->
<g id="node4" class="node"><title>1</title>
<ellipse fill="#ffffa0" stroke="black" cx="142" cy="-111" rx="18" ry="18"/>
<ellipse fill="none" stroke="black" cx="142" cy="-111" rx="22" ry="22"/>
<text text-anchor="start" x="138.5" y="-107.9" font-family="Lato" font-size="12.00">1</text>
</g>
<!-- 2&#45;&gt;1 -->
<g id="edge5" class="edge"><title>2&#45;&gt;1</title>
<path fill="none" stroke="black" d="M72.7998,-79.3356C84.7255,-84.8726 101.344,-92.5882 115.19,-99.0168"/>
<polygon fill="black" stroke="black" points="121.732,-102.054 114.056,-101.963 118.557,-100.58 115.383,-99.1063 115.383,-99.1063 115.383,-99.1063 118.557,-100.58 116.709,-96.2492 121.732,-102.054 121.732,-102.054"/>
<text text-anchor="start" x="93.5" y="-95.4" font-family="Lato" font-size="12.00">a</text>
</g>
<!-- 3 -->
<g id="node6" class="node"><title>3</title>
<ellipse fill="#ffffa0" stroke="black" cx="142" cy="-22" rx="18" ry="18"/>
<text text-anchor="middle" x="142" y="-18.9" font-family="Lato" font-size="12.00">3</text>
</g>
<!-- 2&#45;&gt;3 -->
<g id="edge6" class="edge"><title>2&#45;&gt;3</title>
<path fill="none" stroke="black" d="M72.0175,-63.061C85.3959,-55.0977 105.109,-43.364 120.039,-34.4768"/>
<polygon fill="black" stroke="black" points="126.112,-30.8616 121.709,-37.1488 123.105,-32.6518 120.097,-34.442 120.097,-34.442 120.097,-34.442 123.105,-32.6518 118.486,-31.7353 126.112,-30.8616 126.112,-30.8616"/>
<text text-anchor="start" x="92" y="-52.4" font-family="Lato" font-size="12.00">!a</text>
</g>
<!-- 0 -->
<g id="node3" class="node"><title>0</title>
<ellipse fill="#ffffa0" stroke="black" cx="232" cy="-22" rx="18" ry="18"/>
<ellipse fill="none" stroke="black" cx="232" cy="-22" rx="22" ry="22"/>
<text text-anchor="middle" x="232" y="-18.9" font-family="Lato" font-size="12.00">0</text>
</g>
<!-- 0&#45;&gt;0 -->
<g id="edge2" class="edge"><title>0&#45;&gt;0</title>
<path fill="none" stroke="black" d="M223.994,-42.5808C222.886,-52.8447 225.555,-62 232,-62 236.834,-62 239.544,-56.8502 240.129,-49.9451"/>
<polygon fill="black" stroke="black" points="240.006,-42.5808 243.273,-49.5273 240.065,-46.0803 240.123,-49.5798 240.123,-49.5798 240.123,-49.5798 240.065,-46.0803 236.973,-49.6324 240.006,-42.5808 240.006,-42.5808"/>
<text text-anchor="start" x="228.5" y="-65.4" font-family="Lato" font-size="12.00">1</text>
</g>
<!-- 1&#45;&gt;1 -->
<g id="edge3" class="edge"><title>1&#45;&gt;1</title>
<path fill="none" stroke="black" d="M133.994,-131.581C132.886,-141.845 135.555,-151 142,-151 146.834,-151 149.544,-145.85 150.129,-138.945"/>
<polygon fill="black" stroke="black" points="150.006,-131.581 153.273,-138.527 150.065,-135.08 150.123,-138.58 150.123,-138.58 150.123,-138.58 150.065,-135.08 146.973,-138.632 150.006,-131.581 150.006,-131.581"/>
<text text-anchor="start" x="138.5" y="-154.4" font-family="Lato" font-size="12.00">a</text>
</g>
<!-- 4 -->
<g id="node5" class="node"><title>4</title>
<ellipse fill="#ffffa0" stroke="black" cx="232" cy="-111" rx="18" ry="18"/>
<text text-anchor="middle" x="232" y="-107.9" font-family="Lato" font-size="12.00">4</text>
</g>
<!-- 1&#45;&gt;4 -->
<g id="edge4" class="edge"><title>1&#45;&gt;4</title>
<path fill="none" stroke="black" d="M164.302,-111C177.092,-111 193.405,-111 206.697,-111"/>
<polygon fill="black" stroke="black" points="213.729,-111 206.729,-114.15 210.229,-111 206.729,-111 206.729,-111 206.729,-111 210.229,-111 206.729,-107.85 213.729,-111 213.729,-111"/>
<text text-anchor="start" x="182" y="-114.4" font-family="Lato" font-size="12.00">!a</text>
</g>
<!-- 4&#45;&gt;4 -->
<g id="edge9" class="edge"><title>4&#45;&gt;4</title>
<path fill="none" stroke="black" d="M224.332,-127.29C222.483,-137.389 225.039,-147 232,-147 237.221,-147 239.964,-141.594 240.229,-134.63"/>
<polygon fill="black" stroke="black" points="239.668,-127.29 243.342,-134.03 239.935,-130.78 240.201,-134.27 240.201,-134.27 240.201,-134.27 239.935,-130.78 237.06,-134.51 239.668,-127.29 239.668,-127.29"/>
<text text-anchor="start" x="228.5" y="-150.4" font-family="Lato" font-size="12.00">1</text>
</g>
<!-- 3&#45;&gt;0 -->
<g id="edge7" class="edge"><title>3&#45;&gt;0</title>
<path fill="none" stroke="black" d="M160.386,-22C172.5,-22 188.925,-22 202.885,-22"/>
<polygon fill="black" stroke="black" points="209.925,-22 202.925,-25.1501 206.425,-22 202.925,-22.0001 202.925,-22.0001 202.925,-22.0001 206.425,-22 202.925,-18.8501 209.925,-22 209.925,-22"/>
<text text-anchor="start" x="182" y="-25.4" font-family="Lato" font-size="12.00">!a</text>
</g>
<!-- 3&#45;&gt;3 -->
<g id="edge8" class="edge"><title>3&#45;&gt;3</title>
<path fill="none" stroke="black" d="M134.332,-38.2903C132.483,-48.3892 135.039,-58 142,-58 147.221,-58 149.964,-52.5939 150.229,-45.6304"/>
<polygon fill="black" stroke="black" points="149.668,-38.2903 153.342,-45.0299 149.935,-41.7801 150.201,-45.2699 150.201,-45.2699 150.201,-45.2699 149.935,-41.7801 147.06,-45.5099 149.668,-38.2903 149.668,-38.2903"/>
<text text-anchor="start" x="138.5" y="-61.4" font-family="Lato" font-size="12.00">a</text>
</g>
</g>
</svg>
