<?xml version="1.0" encoding="UTF-8" standalone="no"?>
<?xml-stylesheet href="spot.css" type="text/css"?>
<!DOCTYPE svg PUBLIC "-//W3C//DTD SVG 1.1//EN"
 "http://www.w3.org/Graphics/SVG/1.1/DTD/svg11.dtd">
<!-- Generated by graphviz version 2.38.0 (20140413.2041)
 -->
<!-- Title: G Pages: 1 -->
<svg width="164pt" height="217pt"
 viewBox="0.00 0.00 164.00 217.00" xmlns="http://www.w3.org/2000/svg" xmlns:xlink="http://www.w3.org/1999/xlink">
<g id="graph0" class="graph" transform="scale(1 1) rotate(0) translate(4 213)">
<title>G</title>
<polygon fill="white" stroke="none" points="-4,4 -4,-213 160,-213 160,4 -4,4"/>
<!-- I -->
<!-- 0 -->
<g id="node2" class="node"><title>0</title>
<ellipse fill="#ffffa0" stroke="black" cx="56" cy="-93" rx="18" ry="18"/>
<text text-anchor="middle" x="56" y="-89.9" font-family="Lato" font-size="12.00">0</text>
</g>
<!-- I&#45;&gt;0 -->
<g id="edge1" class="edge"><title>I&#45;&gt;0</title>
<path fill="none" stroke="black" d="M1.15491,-93C2.79388,-93 17.1543,-93 30.6317,-93"/>
<polygon fill="black" stroke="black" points="37.9419,-93 30.9419,-96.1501 34.4419,-93 30.9419,-93.0001 30.9419,-93.0001 30.9419,-93.0001 34.4419,-93 30.9418,-89.8501 37.9419,-93 37.9419,-93"/>
</g>
<!-- 0&#45;&gt;0 -->
<g id="edge2" class="edge"><title>0&#45;&gt;0</title>
<path fill="none" stroke="black" d="M49.6208,-110.037C48.3189,-119.858 50.4453,-129 56,-129 60.166,-129 62.4036,-123.858 62.7128,-117.143"/>
<polygon fill="black" stroke="black" points="62.3792,-110.037 65.8541,-116.882 62.5434,-113.533 62.7076,-117.03 62.7076,-117.03 62.7076,-117.03 62.5434,-113.533 59.561,-117.177 62.3792,-110.037 62.3792,-110.037"/>
<text text-anchor="start" x="52.5" y="-132.4" font-family="Lato" font-size="12.00">1</text>
</g>
<!-- 1 -->
<g id="node3" class="node"><title>1</title>
<ellipse fill="#ffffa0" stroke="black" cx="138" cy="-147" rx="18" ry="18"/>
<text text-anchor="start" x="134.5" y="-143.9" font-family="Lato" font-size="12.00">1</text>
</g>
<!-- 0&#45;&gt;1 -->
<g id="edge3" class="edge"><title>0&#45;&gt;1</title>
<path fill="none" stroke="black" d="M71.3024,-102.654C83.852,-111.125 102.254,-123.546 116.392,-133.09"/>
<polygon fill="black" stroke="black" points="122.552,-137.247 114.987,-135.942 119.651,-135.289 116.75,-133.331 116.75,-133.331 116.75,-133.331 119.651,-135.289 118.512,-130.72 122.552,-137.247 122.552,-137.247"/>
<text text-anchor="start" x="92" y="-126.4" font-family="Lato" font-size="12.00">!a</text>
</g>
<!-- 2 -->
<g id="node4" class="node"><title>2</title>
<ellipse fill="#ffffa0" stroke="black" cx="138" cy="-18" rx="18" ry="18"/>
<text text-anchor="middle" x="138" y="-14.9" font-family="Lato" font-size="12.00">2</text>
</g>
<!-- 0&#45;&gt;2 -->
<g id="edge4" class="edge"><title>0&#45;&gt;2</title>
<path fill="none" stroke="black" d="M69.8534,-80.95C83.1494,-68.4849 104.022,-48.9166 118.966,-34.9067"/>
<polygon fill="black" stroke="black" points="124.179,-30.0201 121.226,-37.1058 121.625,-32.414 119.072,-34.8078 119.072,-34.8078 119.072,-34.8078 121.625,-32.414 116.917,-32.5097 124.179,-30.0201 124.179,-30.0201"/>
<text text-anchor="start" x="93.5" y="-62.4" font-family="Lato" font-size="12.00">a</text>
</g>
<!-- 1&#45;&gt;1 -->
<g id="edge5" class="edge"><title>1&#45;&gt;1</title>
<path fill="none" stroke="black" d="M130.969,-163.664C129.406,-173.625 131.75,-183 138,-183 142.688,-183 145.178,-177.727 145.471,-170.888"/>
<polygon fill="black" stroke="black" points="145.031,-163.664 148.601,-170.46 145.244,-167.158 145.456,-170.651 145.456,-170.651 145.456,-170.651 145.244,-167.158 142.312,-170.842 145.031,-163.664 145.031,-163.664"/>
<text text-anchor="start" x="133" y="-199.4" font-family="Lato" font-size="12.00">!a</text>
<text text-anchor="start" x="131" y="-186.4" font-family="Lato" font-size="12.00" fill="#1f78b4">⓿</text>
</g>
<!-- 2&#45;&gt;2 -->
<g id="edge6" class="edge"><title>2&#45;&gt;2</title>
<path fill="none" stroke="black" d="M134.405,-35.7817C133.794,-45.3149 134.992,-54 138,-54 140.209,-54 141.442,-49.3161 141.699,-43.0521"/>
<polygon fill="black" stroke="black" points="141.595,-35.7817 144.845,-42.736 141.645,-39.2814 141.695,-42.781 141.695,-42.781 141.695,-42.781 141.645,-39.2814 138.546,-42.8261 141.595,-35.7817 141.595,-35.7817"/>
<text text-anchor="start" x="122.5" y="-57.4" font-family="Lato" font-size="12.00">!a &amp; b</text>
</g>
<!-- 2&#45;&gt;2 -->
<g id="edge7" class="edge"><title>2&#45;&gt;2</title>
<path fill="none" stroke="black" d="M132.148,-35.1418C128.706,-52.585 130.656,-72 138,-72 144.368,-72 146.681,-57.3996 144.938,-42.146"/>
<polygon fill="black" stroke="black" points="143.852,-35.1418 148.038,-41.5763 144.388,-38.6004 144.925,-42.0591 144.925,-42.0591 144.925,-42.0591 144.388,-38.6004 141.812,-42.5418 143.852,-35.1418 143.852,-35.1418"/>
<text text-anchor="start" x="134.5" y="-88.4" font-family="Lato" font-size="12.00">a</text>
<text text-anchor="start" x="131" y="-75.4" font-family="Lato" font-size="12.00" fill="#1f78b4">⓿</text>
</g>
</g>
</svg>
