<?xml version="1.0" encoding="UTF-8" standalone="no"?>
<?xml-stylesheet href="spot.css" type="text/css"?>
<!DOCTYPE svg PUBLIC "-//W3C//DTD SVG 1.1//EN"
 "http://www.w3.org/Graphics/SVG/1.1/DTD/svg11.dtd">
<!-- Generated by graphviz version 2.38.0 (20140413.2041)
 -->
<!-- Title: G Pages: 1 -->
<svg width="172pt" height="83pt"
 viewBox="0.00 0.00 172.00 83.00" xmlns="http://www.w3.org/2000/svg" xmlns:xlink="http://www.w3.org/1999/xlink">
<g id="graph0" class="graph" transform="scale(1 1) rotate(0) translate(4 79)">
<title>G</title>
<polygon fill="white" stroke="none" points="-4,4 -4,-79 168,-79 168,4 -4,4"/>
<!-- I -->
<!-- 0 -->
<g id="node2" class="node"><title>0</title>
<ellipse fill="#ffffa0" stroke="black" cx="60" cy="-22" rx="18" ry="18"/>
<ellipse fill="none" stroke="black" cx="60" cy="-22" rx="22" ry="22"/>
<text text-anchor="middle" x="60" y="-18.9" font-family="Lato" font-size="12.00">0</text>
</g>
<!-- I&#45;&gt;0 -->
<g id="edge1" class="edge"><title>I&#45;&gt;0</title>
<path fill="none" stroke="black" d="M1.16638,-22C2.84121,-22 16.884,-22 30.7112,-22"/>
<polygon fill="black" stroke="black" points="37.8555,-22 30.8556,-25.1501 34.3555,-22 30.8555,-22.0001 30.8555,-22.0001 30.8555,-22.0001 34.3555,-22 30.8555,-18.8501 37.8555,-22 37.8555,-22"/>
</g>
<!-- 0&#45;&gt;0 -->
<g id="edge2" class="edge"><title>0&#45;&gt;0</title>
<path fill="none" stroke="black" d="M52.6831,-42.9908C51.7798,-53.0872 54.2188,-62 60,-62 64.3359,-62 66.7918,-56.9866 67.3677,-50.2204"/>
<polygon fill="black" stroke="black" points="67.3169,-42.9908 70.5161,-49.9684 67.3415,-46.4907 67.3662,-49.9906 67.3662,-49.9906 67.3662,-49.9906 67.3415,-46.4907 64.2163,-50.0128 67.3169,-42.9908 67.3169,-42.9908"/>
<text text-anchor="start" x="56.5" y="-65.4" font-family="Lato" font-size="12.00">a</text>
</g>
<!-- 1 -->
<g id="node3" class="node"><title>1</title>
<ellipse fill="#ffffa0" stroke="black" cx="146" cy="-22" rx="18" ry="18"/>
<text text-anchor="middle" x="146" y="-18.9" font-family="Lato" font-size="12.00">1</text>
</g>
<!-- 0&#45;&gt;1 -->
<g id="edge3" class="edge"><title>0&#45;&gt;1</title>
<path fill="none" stroke="black" d="M82.1967,-22C93.8689,-22 108.409,-22 120.558,-22"/>
<polygon fill="black" stroke="black" points="127.767,-22 120.767,-25.1501 124.267,-22 120.767,-22.0001 120.767,-22.0001 120.767,-22.0001 124.267,-22 120.767,-18.8501 127.767,-22 127.767,-22"/>
<text text-anchor="start" x="100" y="-25.4" font-family="Lato" font-size="12.00">!a</text>
</g>
<!-- 1&#45;&gt;0 -->
<g id="edge4" class="edge"><title>1&#45;&gt;0</title>
<path fill="none" stroke="black" d="M130.22,-12.9834C124.178,-9.79557 116.978,-6.60508 110,-5 101.938,-3.14561 93.3512,-4.81184 85.6551,-7.71054"/>
<polygon fill="black" stroke="black" points="78.8781,-10.6535 84.0441,-4.97584 82.0885,-9.25931 85.2988,-7.86517 85.2988,-7.86517 85.2988,-7.86517 82.0885,-9.25931 86.5536,-10.7545 78.8781,-10.6535 78.8781,-10.6535"/>
<text text-anchor="start" x="101.5" y="-8.4" font-family="Lato" font-size="12.00">a</text>
</g>
<!-- 1&#45;&gt;1 -->
<g id="edge5" class="edge"><title>1&#45;&gt;1</title>
<path fill="none" stroke="black" d="M138.969,-38.6641C137.406,-48.625 139.75,-58 146,-58 150.688,-58 153.178,-52.7266 153.471,-45.8876"/>
<polygon fill="black" stroke="black" points="153.031,-38.6641 156.601,-45.4598 153.244,-42.1576 153.456,-45.6511 153.456,-45.6511 153.456,-45.6511 153.244,-42.1576 150.312,-45.8425 153.031,-38.6641 153.031,-38.6641"/>
<text text-anchor="start" x="141" y="-61.4" font-family="Lato" font-size="12.00">!a</text>
</g>
</g>
</svg>
