<?xml version="1.0" encoding="UTF-8" standalone="no"?>
<?xml-stylesheet href="spot.css" type="text/css"?>
<!DOCTYPE svg PUBLIC "-//W3C//DTD SVG 1.1//EN"
 "http://www.w3.org/Graphics/SVG/1.1/DTD/svg11.dtd">
<!-- Generated by graphviz version 2.38.0 (20140413.2041)
 -->
<!-- Title: G Pages: 1 -->
<svg width="185pt" height="173pt"
 viewBox="0.00 0.00 185.00 173.00" xmlns="http://www.w3.org/2000/svg" xmlns:xlink="http://www.w3.org/1999/xlink">
<g id="graph0" class="graph" transform="scale(1 1) rotate(0) translate(4 169)">
<title>G</title>
<polygon fill="white" stroke="none" points="-4,4 -4,-169 181,-169 181,4 -4,4"/>
<!-- I -->
<!-- 0 -->
<g id="node2" class="node"><title>0</title>
<ellipse fill="#ffffa0" stroke="#ff4da0" stroke-width="2" cx="56" cy="-67" rx="18" ry="18"/>
<text text-anchor="middle" x="56" y="-63.9" font-family="Lato" font-size="12.00">0</text>
</g>
<!-- I&#45;&gt;0 -->
<g id="edge1" class="edge"><title>I&#45;&gt;0</title>
<path fill="none" stroke="black" d="M1.15491,-67C2.79388,-67 17.1543,-67 30.6317,-67"/>
<polygon fill="black" stroke="black" points="37.9419,-67 30.9419,-70.1501 34.4419,-67 30.9419,-67.0001 30.9419,-67.0001 30.9419,-67.0001 34.4419,-67 30.9418,-63.8501 37.9419,-67 37.9419,-67"/>
</g>
<!-- 0&#45;&gt;0 -->
<g id="edge2" class="edge"><title>0&#45;&gt;0</title>
<path fill="none" stroke="black" d="M49.6208,-84.0373C48.3189,-93.8579 50.4453,-103 56,-103 60.166,-103 62.4036,-97.8576 62.7128,-91.1433"/>
<polygon fill="black" stroke="black" points="62.3792,-84.0373 65.8541,-90.8818 62.5434,-87.5335 62.7076,-91.0296 62.7076,-91.0296 62.7076,-91.0296 62.5434,-87.5335 59.561,-91.1774 62.3792,-84.0373 62.3792,-84.0373"/>
<text text-anchor="start" x="52.5" y="-119.4" font-family="Lato" font-size="12.00">a</text>
<text text-anchor="start" x="49" y="-106.4" font-family="Lato" font-size="12.00" fill="#1f78b4">⓿</text>
</g>
<!-- 1 -->
<g id="node3" class="node"><title>1</title>
<ellipse fill="#ffffa0" stroke="black" cx="159" cy="-103" rx="18" ry="18"/>
<text text-anchor="middle" x="159" y="-99.9" font-family="Lato" font-size="12.00">1</text>
</g>
<!-- 0&#45;&gt;1 -->
<g id="edge3" class="edge"><title>0&#45;&gt;1</title>
<path fill="none" stroke="#ff4da0" stroke-width="2" d="M72.9539,-73.6108C78.9024,-76.015 85.7319,-78.704 92,-81 106.162,-86.1878 122.212,-91.5491 134.938,-95.6804"/>
<polygon fill="#ff4da0" stroke="#ff4da0" stroke-width="2" points="141.634,-97.84 134.004,-98.6889 138.149,-97.2414 134.818,-96.1668 134.972,-95.691 135.125,-95.2151 138.456,-96.2897 135.939,-92.6931 141.634,-97.84 141.634,-97.84"/>
<text text-anchor="start" x="92" y="-94.4" font-family="Lato" font-size="12.00">!a &amp; b</text>
</g>
<!-- 2 -->
<g id="node4" class="node"><title>2</title>
<ellipse fill="#ffffa0" stroke="black" cx="159" cy="-18" rx="18" ry="18"/>
<text text-anchor="middle" x="159" y="-14.9" font-family="Lato" font-size="12.00">2</text>
</g>
<!-- 0&#45;&gt;2 -->
<g id="edge4" class="edge"><title>0&#45;&gt;2</title>
<path fill="none" stroke="#ff4da0" stroke-width="2" d="M73.6272,-63.1167C87.3639,-59.525 107.116,-53.4603 123,-45 128.647,-41.992 134.329,-38.0795 139.423,-34.1706"/>
<polygon fill="#ff4da0" stroke="#ff4da0" stroke-width="2" points="145.096,-29.638 141.593,-36.4684 142.674,-32.2134 139.939,-34.3981 139.627,-34.0074 139.315,-33.6168 142.049,-31.4321 137.661,-31.5465 145.096,-29.638 145.096,-29.638"/>
<text text-anchor="start" x="102.5" y="-60.4" font-family="Lato" font-size="12.00">!a</text>
</g>
<!-- 1&#45;&gt;1 -->
<g id="edge5" class="edge"><title>1&#45;&gt;1</title>
<path fill="none" stroke="black" d="M150.367,-118.916C148.114,-129.15 150.992,-139 159,-139 165.131,-139 168.255,-133.226 168.372,-125.927"/>
<polygon fill="black" stroke="black" points="167.633,-118.916 171.499,-125.548 168,-122.397 168.367,-125.878 168.367,-125.878 168.367,-125.878 168,-122.397 165.234,-126.207 167.633,-118.916 167.633,-118.916"/>
<text text-anchor="start" x="155.5" y="-155.4" font-family="Lato" font-size="12.00">b</text>
<text text-anchor="start" x="152" y="-142.4" font-family="Lato" font-size="12.00" fill="#1f78b4">⓿</text>
</g>
<!-- 2&#45;&gt;0 -->
<g id="edge6" class="edge"><title>2&#45;&gt;0</title>
<path fill="none" stroke="black" d="M141.515,-12.7924C127.504,-9.36743 107.289,-6.86125 92,-15 80.4654,-21.1404 72.0511,-32.961 66.3676,-43.7823"/>
<polygon fill="black" stroke="black" points="63.1783,-50.3312 63.4112,-42.6586 64.7108,-47.1846 66.2432,-44.0379 66.2432,-44.0379 66.2432,-44.0379 64.7108,-47.1846 69.0752,-45.4171 63.1783,-50.3312 63.1783,-50.3312"/>
<text text-anchor="start" x="104" y="-31.4" font-family="Lato" font-size="12.00">a</text>
<text text-anchor="start" x="100.5" y="-18.4" font-family="Lato" font-size="12.00" fill="#1f78b4">⓿</text>
</g>
<!-- 2&#45;&gt;2 -->
<g id="edge7" class="edge"><title>2&#45;&gt;2</title>
<path fill="none" stroke="black" d="M150.367,-33.916C148.114,-44.1504 150.992,-54 159,-54 165.131,-54 168.255,-48.2263 168.372,-40.9268"/>
<polygon fill="black" stroke="black" points="167.633,-33.916 171.499,-40.5477 168,-37.3968 168.367,-40.8775 168.367,-40.8775 168.367,-40.8775 168,-37.3968 165.234,-41.2074 167.633,-33.916 167.633,-33.916"/>
<text text-anchor="start" x="154" y="-57.4" font-family="Lato" font-size="12.00">!a</text>
</g>
</g>
</svg>
