<?xml version="1.0" encoding="UTF-8" standalone="no"?>
<?xml-stylesheet href="spot.css" type="text/css"?>
<!DOCTYPE svg PUBLIC "-//W3C//DTD SVG 1.1//EN"
 "http://www.w3.org/Graphics/SVG/1.1/DTD/svg11.dtd">
<!-- Generated by graphviz version 2.38.0 (20140413.2041)
 -->
<!-- Title: G Pages: 1 -->
<svg width="405pt" height="301pt"
 viewBox="0.00 0.00 404.62 301.23" xmlns="http://www.w3.org/2000/svg" xmlns:xlink="http://www.w3.org/1999/xlink">
<g id="graph0" class="graph" transform="scale(1 1) rotate(0) translate(4 297.225)">
<title>G</title>
<polygon fill="white" stroke="none" points="-4,4 -4,-297.225 400.617,-297.225 400.617,4 -4,4"/>
<text text-anchor="start" x="103.809" y="-280.625" font-family="Lato" font-size="12.00">(Fin(</text>
<text text-anchor="start" x="126.809" y="-280.625" font-family="Lato" font-size="12.00" fill="#1f78b4">⓿</text>
<text text-anchor="start" x="140.809" y="-280.625" font-family="Lato" font-size="12.00">) | Inf(</text>
<text text-anchor="start" x="170.809" y="-280.625" font-family="Lato" font-size="12.00" fill="#ff4da0">❶</text>
<text text-anchor="start" x="184.809" y="-280.625" font-family="Lato" font-size="12.00">)) &amp; (Fin(</text>
<text text-anchor="start" x="227.809" y="-280.625" font-family="Lato" font-size="12.00" fill="#ff7f00">❷</text>
<text text-anchor="start" x="241.809" y="-280.625" font-family="Lato" font-size="12.00">) | Inf(</text>
<text text-anchor="start" x="271.809" y="-280.625" font-family="Lato" font-size="12.00" fill="#6a3d9a">❸</text>
<text text-anchor="start" x="285.809" y="-280.625" font-family="Lato" font-size="12.00">))</text>
<text text-anchor="start" x="171.309" y="-268.625" font-family="Lato" font-size="12.00">[Streett 2]</text>
<!-- I -->
<!-- 5 -->
<g id="node2" class="node"><title>5</title>
<ellipse fill="#ffffa0" stroke="black" cx="62.0416" cy="-106.113" rx="24.0833" ry="24.0833"/>
<text text-anchor="start" x="58.5416" y="-109.513" font-family="Lato" font-size="12.00">5</text>
<text text-anchor="start" x="55.0416" y="-96.5127" font-family="Lato" font-size="12.00" fill="#6a3d9a">❸</text>
</g>
<!-- I&#45;&gt;5 -->
<g id="edge1" class="edge"><title>I&#45;&gt;5</title>
<path fill="none" stroke="black" d="M1.04352,-106.113C1.9346,-106.113 16.3644,-106.113 30.8478,-106.113"/>
<polygon fill="black" stroke="black" points="37.9031,-106.113 30.9032,-109.263 34.4031,-106.113 30.9031,-106.113 30.9031,-106.113 30.9031,-106.113 34.4031,-106.113 30.9031,-102.963 37.9031,-106.113 37.9031,-106.113"/>
</g>
<!-- 3 -->
<g id="node6" class="node"><title>3</title>
<ellipse fill="#ffffa0" stroke="black" cx="156.125" cy="-139.113" rx="24.0833" ry="24.0833"/>
<text text-anchor="start" x="152.625" y="-142.513" font-family="Lato" font-size="12.00">3</text>
<text text-anchor="start" x="149.125" y="-129.513" font-family="Lato" font-size="12.00" fill="#6a3d9a">❸</text>
</g>
<!-- 5&#45;&gt;3 -->
<g id="edge13" class="edge"><title>5&#45;&gt;3</title>
<path fill="none" stroke="black" d="M84.8641,-113.933C97.2734,-118.38 112.964,-124.004 126.368,-128.807"/>
<polygon fill="black" stroke="black" points="133.14,-131.234 125.488,-131.838 129.845,-130.053 126.55,-128.872 126.55,-128.872 126.55,-128.872 129.845,-130.053 127.613,-125.907 133.14,-131.234 133.14,-131.234"/>
<text text-anchor="start" x="105.583" y="-127.513" font-family="Lato" font-size="12.00">a</text>
</g>
<!-- 4 -->
<g id="node7" class="node"><title>4</title>
<ellipse fill="#ffffa0" stroke="black" cx="156.125" cy="-64.1127" rx="24.0833" ry="24.0833"/>
<text text-anchor="start" x="152.625" y="-67.5127" font-family="Lato" font-size="12.00">4</text>
<text text-anchor="start" x="149.125" y="-54.5127" font-family="Lato" font-size="12.00" fill="#6a3d9a">❸</text>
</g>
<!-- 5&#45;&gt;4 -->
<g id="edge12" class="edge"><title>5&#45;&gt;4</title>
<path fill="none" stroke="black" d="M84.3988,-96.3715C97.1831,-90.5405 113.572,-83.0652 127.354,-76.7791"/>
<polygon fill="black" stroke="black" points="133.884,-73.8011 128.822,-79.572 130.699,-75.2535 127.515,-76.706 127.515,-76.706 127.515,-76.706 130.699,-75.2535 126.207,-73.84 133.884,-73.8011 133.884,-73.8011"/>
<text text-anchor="start" x="104.083" y="-89.5127" font-family="Lato" font-size="12.00">!a</text>
</g>
<!-- 0 -->
<g id="node3" class="node"><title>0</title>
<ellipse fill="#ffffa0" stroke="black" cx="257.279" cy="-64.1127" rx="24.0833" ry="24.0833"/>
<text text-anchor="start" x="253.779" y="-67.5127" font-family="Lato" font-size="12.00">0</text>
<text text-anchor="start" x="250.279" y="-54.5127" font-family="Lato" font-size="12.00" fill="#ff7f00">❷</text>
</g>
<!-- 0&#45;&gt;0 -->
<g id="edge3" class="edge"><title>0&#45;&gt;0</title>
<path fill="none" stroke="black" d="M247.401,-86.1748C246.182,-96.7867 249.475,-106.154 257.279,-106.154 263.255,-106.154 266.585,-100.663 267.271,-93.3267"/>
<polygon fill="black" stroke="black" points="267.157,-86.1748 270.418,-93.1238 267.213,-89.6744 267.269,-93.1739 267.269,-93.1739 267.269,-93.1739 267.213,-89.6744 264.119,-93.2241 267.157,-86.1748 267.157,-86.1748"/>
<text text-anchor="start" x="253.779" y="-109.554" font-family="Lato" font-size="12.00">a</text>
</g>
<!-- 2 -->
<g id="node4" class="node"><title>2</title>
<ellipse fill="#ffffa0" stroke="black" cx="365.505" cy="-31.1127" rx="31.2258" ry="31.2258"/>
<text text-anchor="start" x="362.005" y="-34.5127" font-family="Lato" font-size="12.00">2</text>
<text text-anchor="start" x="351.505" y="-22.5127" font-family="Lato" font-size="12.00" fill="#ff4da0">❶</text>
<text text-anchor="start" x="365.505" y="-22.5127" font-family="Lato" font-size="12.00" fill="#6a3d9a">❸</text>
</g>
<!-- 0&#45;&gt;2 -->
<g id="edge2" class="edge"><title>0&#45;&gt;2</title>
<path fill="none" stroke="black" d="M280.548,-57.1948C294.37,-52.9007 312.458,-47.2816 328.303,-42.3591"/>
<polygon fill="black" stroke="black" points="335.402,-40.1536 329.652,-45.2386 332.06,-41.192 328.717,-42.2304 328.717,-42.2304 328.717,-42.2304 332.06,-41.192 327.783,-39.2222 335.402,-40.1536 335.402,-40.1536"/>
<text text-anchor="start" x="306.392" y="-51.5127" font-family="Lato" font-size="12.00">!a</text>
</g>
<!-- 2&#45;&gt;2 -->
<g id="edge6" class="edge"><title>2&#45;&gt;2</title>
<path fill="none" stroke="black" d="M360.443,-62.2862C360.495,-72.2937 362.182,-80.2254 365.505,-80.2254 367.996,-80.2254 369.568,-75.7638 370.22,-69.3111"/>
<polygon fill="black" stroke="black" points="370.566,-62.2862 373.368,-69.4326 370.394,-65.782 370.222,-69.2778 370.222,-69.2778 370.222,-69.2778 370.394,-65.782 367.076,-69.123 370.566,-62.2862 370.566,-62.2862"/>
<text text-anchor="start" x="360.505" y="-83.6254" font-family="Lato" font-size="12.00">!a</text>
</g>
<!-- 2&#45;&gt;2 -->
<g id="edge7" class="edge"><title>2&#45;&gt;2</title>
<path fill="none" stroke="black" d="M356.137,-61.133C353.786,-80.0866 356.909,-98.2254 365.505,-98.2254 373.026,-98.2254 376.357,-84.3379 375.497,-68.1685"/>
<polygon fill="black" stroke="black" points="374.873,-61.133 378.63,-67.8268 375.182,-64.6192 375.492,-68.1055 375.492,-68.1055 375.492,-68.1055 375.182,-64.6192 372.354,-68.3842 374.873,-61.133 374.873,-61.133"/>
<text text-anchor="start" x="362.005" y="-101.625" font-family="Lato" font-size="12.00">a</text>
</g>
<!-- 1 -->
<g id="node5" class="node"><title>1</title>
<ellipse fill="#ffffa0" stroke="black" cx="257.279" cy="-168.113" rx="31.2258" ry="31.2258"/>
<text text-anchor="start" x="253.779" y="-171.513" font-family="Lato" font-size="12.00">1</text>
<text text-anchor="start" x="243.279" y="-159.513" font-family="Lato" font-size="12.00" fill="#1f78b4">⓿</text>
<text text-anchor="start" x="257.279" y="-159.513" font-family="Lato" font-size="12.00" fill="#6a3d9a">❸</text>
</g>
<!-- 1&#45;&gt;1 -->
<g id="edge4" class="edge"><title>1&#45;&gt;1</title>
<path fill="none" stroke="black" d="M252.218,-199.286C252.27,-209.294 253.957,-217.225 257.279,-217.225 259.771,-217.225 261.343,-212.764 261.995,-206.311"/>
<polygon fill="black" stroke="black" points="262.34,-199.286 265.143,-206.433 262.168,-202.782 261.997,-206.278 261.997,-206.278 261.997,-206.278 262.168,-202.782 258.85,-206.123 262.34,-199.286 262.34,-199.286"/>
<text text-anchor="start" x="252.279" y="-220.625" font-family="Lato" font-size="12.00">!a</text>
</g>
<!-- 1&#45;&gt;1 -->
<g id="edge5" class="edge"><title>1&#45;&gt;1</title>
<path fill="none" stroke="black" d="M247.911,-198.133C245.561,-217.087 248.684,-235.225 257.279,-235.225 264.8,-235.225 268.131,-221.338 267.272,-205.169"/>
<polygon fill="black" stroke="black" points="266.647,-198.133 270.404,-204.827 266.957,-201.619 267.267,-205.106 267.267,-205.106 267.267,-205.106 266.957,-201.619 264.129,-205.384 266.647,-198.133 266.647,-198.133"/>
<text text-anchor="start" x="253.779" y="-238.625" font-family="Lato" font-size="12.00">a</text>
</g>
<!-- 3&#45;&gt;1 -->
<g id="edge8" class="edge"><title>3&#45;&gt;1</title>
<path fill="none" stroke="black" d="M179.625,-145.693C191.594,-149.194 206.601,-153.583 220.156,-157.548"/>
<polygon fill="black" stroke="black" points="227.089,-159.575 219.486,-160.634 223.73,-158.593 220.37,-157.61 220.37,-157.61 220.37,-157.61 223.73,-158.593 221.255,-154.587 227.089,-159.575 227.089,-159.575"/>
<text text-anchor="start" x="198.167" y="-156.513" font-family="Lato" font-size="12.00">!a</text>
</g>
<!-- 3&#45;&gt;3 -->
<g id="edge9" class="edge"><title>3&#45;&gt;3</title>
<path fill="none" stroke="black" d="M147.635,-162.032C146.826,-172.286 149.656,-181.154 156.125,-181.154 160.976,-181.154 163.781,-176.166 164.539,-169.346"/>
<polygon fill="black" stroke="black" points="164.615,-162.032 167.692,-169.065 164.579,-165.532 164.542,-169.032 164.542,-169.032 164.542,-169.032 164.579,-165.532 161.393,-168.999 164.615,-162.032 164.615,-162.032"/>
<text text-anchor="start" x="152.625" y="-184.554" font-family="Lato" font-size="12.00">a</text>
</g>
<!-- 4&#45;&gt;0 -->
<g id="edge11" class="edge"><title>4&#45;&gt;0</title>
<path fill="none" stroke="black" d="M180.372,-64.1127C193.923,-64.1127 211.171,-64.1127 225.8,-64.1127"/>
<polygon fill="black" stroke="black" points="233.178,-64.1127 226.178,-67.2628 229.678,-64.1127 226.178,-64.1128 226.178,-64.1128 226.178,-64.1128 229.678,-64.1127 226.178,-60.9628 233.178,-64.1127 233.178,-64.1127"/>
<text text-anchor="start" x="199.667" y="-67.5127" font-family="Lato" font-size="12.00">a</text>
</g>
<!-- 4&#45;&gt;2 -->
<g id="edge10" class="edge"><title>4&#45;&gt;2</title>
<path fill="none" stroke="black" d="M174.359,-48.3954C187.489,-37.542 206.591,-24.0368 226.167,-18.1127 259.903,-7.90319 300.196,-13.5834 328.57,-20.3406"/>
<polygon fill="black" stroke="black" points="335.515,-22.0727 327.961,-23.4352 332.119,-21.2257 328.723,-20.3788 328.723,-20.3788 328.723,-20.3788 332.119,-21.2257 329.485,-17.3224 335.515,-22.0727 335.515,-22.0727"/>
<text text-anchor="start" x="252.279" y="-21.5127" font-family="Lato" font-size="12.00">!a</text>
</g>
</g>
</svg>
