<?xml version="1.0" encoding="UTF-8" standalone="no"?>
<?xml-stylesheet href="spot.css" type="text/css"?>
<!DOCTYPE svg PUBLIC "-//W3C//DTD SVG 1.1//EN"
 "http://www.w3.org/Graphics/SVG/1.1/DTD/svg11.dtd">
<!-- Generated by graphviz version 2.38.0 (20140413.2041)
 -->
<!-- Title: G Pages: 1 -->
<svg width="386pt" height="137pt"
 viewBox="0.00 0.00 386.00 136.54" xmlns="http://www.w3.org/2000/svg" xmlns:xlink="http://www.w3.org/1999/xlink">
<g id="graph0" class="graph" transform="scale(1 1) rotate(0) translate(4 132.541)">
<title>G</title>
<polygon fill="white" stroke="none" points="-4,4 -4,-132.541 382,-132.541 382,4 -4,4"/>
<!-- I -->
<!-- 2 -->
<g id="node2" class="node"><title>2</title>
<ellipse fill="#ffffa0" stroke="black" cx="56" cy="-93.5407" rx="18" ry="18"/>
<text text-anchor="middle" x="56" y="-90.4407" font-family="Lato" font-size="12.00">2</text>
</g>
<!-- I&#45;&gt;2 -->
<g id="edge1" class="edge"><title>I&#45;&gt;2</title>
<path fill="none" stroke="black" d="M1.15491,-93.5407C2.79388,-93.5407 17.1543,-93.5407 30.6317,-93.5407"/>
<polygon fill="black" stroke="black" points="37.9419,-93.5407 30.9419,-96.6908 34.4419,-93.5407 30.9419,-93.5408 30.9419,-93.5408 30.9419,-93.5408 34.4419,-93.5407 30.9418,-90.3908 37.9419,-93.5407 37.9419,-93.5407"/>
</g>
<!-- 1 -->
<g id="node4" class="node"><title>1</title>
<ellipse fill="#ffffa0" stroke="black" cx="356" cy="-43.5407" rx="18" ry="18"/>
<ellipse fill="none" stroke="black" cx="356" cy="-43.5407" rx="22" ry="22"/>
<text text-anchor="middle" x="356" y="-40.4407" font-family="Lato" font-size="12.00">1</text>
</g>
<!-- 2&#45;&gt;1 -->
<g id="edge5" class="edge"><title>2&#45;&gt;1</title>
<path fill="none" stroke="black" d="M73.6167,-98.4027C112.987,-109.026 214.391,-131.09 291,-101.541 309.485,-94.4109 325.937,-79.191 337.531,-66.1311"/>
<polygon fill="black" stroke="black" points="342.194,-60.6961 340.026,-68.0599 339.915,-63.3524 337.636,-66.0087 337.636,-66.0087 337.636,-66.0087 339.915,-63.3524 335.245,-63.9576 342.194,-60.6961 342.194,-60.6961"/>
<text text-anchor="start" x="206" y="-118.941" font-family="Lato" font-size="12.00">a &amp; b</text>
</g>
<!-- 3 -->
<g id="node5" class="node"><title>3</title>
<ellipse fill="#ffffa0" stroke="black" cx="163" cy="-39.5407" rx="18" ry="18"/>
<ellipse fill="none" stroke="black" cx="163" cy="-39.5407" rx="22" ry="22"/>
<text text-anchor="middle" x="163" y="-36.4407" font-family="Lato" font-size="12.00">3</text>
</g>
<!-- 2&#45;&gt;3 -->
<g id="edge6" class="edge"><title>2&#45;&gt;3</title>
<path fill="none" stroke="black" d="M72.4931,-85.5728C89.3038,-76.9273 116.414,-62.9847 136.399,-52.7067"/>
<polygon fill="black" stroke="black" points="142.879,-49.3745 138.094,-55.3772 139.766,-50.9752 136.654,-52.576 136.654,-52.576 136.654,-52.576 139.766,-50.9752 135.213,-49.7747 142.879,-49.3745 142.879,-49.3745"/>
<text text-anchor="start" x="92" y="-76.9407" font-family="Lato" font-size="12.00">!a &amp; b</text>
</g>
<!-- 0 -->
<g id="node3" class="node"><title>0</title>
<ellipse fill="#ffffa0" stroke="black" cx="273" cy="-43.5407" rx="18" ry="18"/>
<text text-anchor="middle" x="273" y="-40.4407" font-family="Lato" font-size="12.00">0</text>
</g>
<!-- 0&#45;&gt;0 -->
<g id="edge2" class="edge"><title>0&#45;&gt;0</title>
<path fill="none" stroke="black" d="M266.266,-60.578C264.892,-70.3986 267.137,-79.5407 273,-79.5407 277.397,-79.5407 279.759,-74.3983 280.086,-67.684"/>
<polygon fill="black" stroke="black" points="279.734,-60.578 283.226,-67.4135 279.907,-64.0737 280.08,-67.5694 280.08,-67.5694 280.08,-67.5694 279.907,-64.0737 276.934,-67.7254 279.734,-60.578 279.734,-60.578"/>
<text text-anchor="start" x="268" y="-82.9407" font-family="Lato" font-size="12.00">!a</text>
</g>
<!-- 0&#45;&gt;1 -->
<g id="edge3" class="edge"><title>0&#45;&gt;1</title>
<path fill="none" stroke="black" d="M291.178,-43.5407C301.485,-43.5407 314.848,-43.5407 326.681,-43.5407"/>
<polygon fill="black" stroke="black" points="333.811,-43.5407 326.811,-46.6908 330.311,-43.5407 326.811,-43.5408 326.811,-43.5408 326.811,-43.5408 330.311,-43.5407 326.811,-40.3908 333.811,-43.5407 333.811,-43.5407"/>
<text text-anchor="start" x="309" y="-46.9407" font-family="Lato" font-size="12.00">a</text>
</g>
<!-- 1&#45;&gt;1 -->
<g id="edge4" class="edge"><title>1&#45;&gt;1</title>
<path fill="none" stroke="black" d="M348.317,-64.5315C347.369,-74.6279 349.93,-83.5407 356,-83.5407 360.553,-83.5407 363.131,-78.5273 363.736,-71.7611"/>
<polygon fill="black" stroke="black" points="363.683,-64.5315 366.884,-71.508 363.709,-68.0314 363.734,-71.5313 363.734,-71.5313 363.734,-71.5313 363.709,-68.0314 360.585,-71.5545 363.683,-64.5315 363.683,-64.5315"/>
<text text-anchor="middle" x="356" y="-86.9407" font-family="Lato" font-size="12.00">1</text>
</g>
<!-- 3&#45;&gt;0 -->
<g id="edge7" class="edge"><title>3&#45;&gt;0</title>
<path fill="none" stroke="black" d="M185.08,-40.3214C203.072,-40.9878 228.948,-41.9462 247.787,-42.6439"/>
<polygon fill="black" stroke="black" points="254.881,-42.9067 247.77,-45.7953 251.384,-42.7771 247.886,-42.6475 247.886,-42.6475 247.886,-42.6475 251.384,-42.7771 248.003,-39.4997 254.881,-42.9067 254.881,-42.9067"/>
<text text-anchor="start" x="203" y="-44.9407" font-family="Lato" font-size="12.00">!a &amp; !b</text>
</g>
<!-- 3&#45;&gt;1 -->
<g id="edge8" class="edge"><title>3&#45;&gt;1</title>
<path fill="none" stroke="black" d="M182.097,-27.9334C206.74,-13.6066 252.229,7.57882 291,-3.5407 306.123,-7.87788 321.139,-16.9459 332.821,-25.353"/>
<polygon fill="black" stroke="black" points="338.609,-29.6605 331.113,-28.0084 335.802,-27.5709 332.994,-25.4814 332.994,-25.4814 332.994,-25.4814 335.802,-27.5709 334.874,-22.9543 338.609,-29.6605 338.609,-29.6605"/>
<text text-anchor="start" x="269.5" y="-6.9407" font-family="Lato" font-size="12.00">a</text>
</g>
<!-- 3&#45;&gt;3 -->
<g id="edge9" class="edge"><title>3&#45;&gt;3</title>
<path fill="none" stroke="black" d="M153.293,-59.2982C151.643,-69.8906 154.879,-79.5407 163,-79.5407 169.218,-79.5407 172.572,-73.884 173.062,-66.4786"/>
<polygon fill="black" stroke="black" points="172.707,-59.2982 176.199,-66.1342 172.88,-62.7939 173.053,-66.2896 173.053,-66.2896 173.053,-66.2896 172.88,-62.7939 169.907,-66.4451 172.707,-59.2982 172.707,-59.2982"/>
<text text-anchor="start" x="147.5" y="-82.9407" font-family="Lato" font-size="12.00">!a &amp; b</text>
</g>
</g>
</svg>
