<?xml version="1.0" encoding="UTF-8" standalone="no"?>
<?xml-stylesheet href="spot.css" type="text/css"?>
<!DOCTYPE svg PUBLIC "-//W3C//DTD SVG 1.1//EN"
 "http://www.w3.org/Graphics/SVG/1.1/DTD/svg11.dtd">
<!-- Generated by graphviz version 2.38.0 (20140413.2041)
 -->
<!-- Title: G Pages: 1 -->
<svg width="188pt" height="208pt"
 viewBox="0.00 0.00 188.00 207.66" xmlns="http://www.w3.org/2000/svg" xmlns:xlink="http://www.w3.org/1999/xlink">
<g id="graph0" class="graph" transform="scale(1 1) rotate(0) translate(4 203.657)">
<title>G</title>
<polygon fill="white" stroke="none" points="-4,4 -4,-203.657 184,-203.657 184,4 -4,4"/>
<text text-anchor="start" x="50.5" y="-187.057" font-family="Lato" font-size="12.00">Inf(</text>
<text text-anchor="start" x="68.5" y="-187.057" font-family="Lato" font-size="12.00" fill="#1f78b4">⓿</text>
<text text-anchor="start" x="82.5" y="-187.057" font-family="Lato" font-size="12.00">)&amp;Inf(</text>
<text text-anchor="start" x="111.5" y="-187.057" font-family="Lato" font-size="12.00" fill="#ff4da0">❶</text>
<text text-anchor="start" x="125.5" y="-187.057" font-family="Lato" font-size="12.00">)</text>
<text text-anchor="start" x="53.5" y="-175.057" font-family="Lato" font-size="12.00">[gen. Büchi 2]</text>
<!-- I -->
<!-- 0 -->
<g id="node2" class="node"><title>0</title>
<ellipse fill="#ffffa0" stroke="#e31a1c" stroke-width="2" cx="56" cy="-30.6568" rx="18" ry="18"/>
<text text-anchor="middle" x="56" y="-27.5568" font-family="Lato" font-size="12.00">0</text>
</g>
<!-- I&#45;&gt;0 -->
<g id="edge1" class="edge"><title>I&#45;&gt;0</title>
<path fill="none" stroke="black" d="M1.15491,-30.6568C2.79388,-30.6568 17.1543,-30.6568 30.6317,-30.6568"/>
<polygon fill="black" stroke="black" points="37.9419,-30.6568 30.9419,-33.8069 34.4419,-30.6569 30.9419,-30.6569 30.9419,-30.6569 30.9419,-30.6569 34.4419,-30.6569 30.9418,-27.5069 37.9419,-30.6568 37.9419,-30.6568"/>
</g>
<!-- 0&#45;&gt;0 -->
<g id="edge2" class="edge"><title>0&#45;&gt;0</title>
<path fill="none" stroke="black" d="M53.8291,-48.8095C53.4951,-58.1959 54.2188,-66.6568 56,-66.6568 57.3081,-66.6568 58.0458,-62.0938 58.2132,-55.9522"/>
<polygon fill="black" stroke="black" points="58.1709,-48.8095 61.3624,-55.7907 58.1917,-52.3095 58.2124,-55.8094 58.2124,-55.8094 58.2124,-55.8094 58.1917,-52.3095 55.0625,-55.8281 58.1709,-48.8095 58.1709,-48.8095"/>
<text text-anchor="start" x="39" y="-83.0568" font-family="Lato" font-size="12.00">!a &amp; !b</text>
<text text-anchor="start" x="49" y="-70.0568" font-family="Lato" font-size="12.00" fill="#ff4da0">❶</text>
</g>
<!-- 0&#45;&gt;0 -->
<g id="edge3" class="edge"><title>0&#45;&gt;0</title>
<path fill="none" stroke="#e31a1c" stroke-width="2" d="M52.5558,-48.5636C50.3988,-68.4197 51.5469,-92.6568 56,-92.6568 59.9313,-92.6568 61.2867,-73.7675 60.0664,-55.6787"/>
<polygon fill="#e31a1c" stroke="#e31a1c" stroke-width="2" points="59.4442,-48.5636 63.1921,-55.2626 60.2472,-52.0067 60.5522,-55.4934 60.0541,-55.537 59.556,-55.5806 59.251,-52.0939 56.916,-55.8114 59.4442,-48.5636 59.4442,-48.5636"/>
<text text-anchor="start" x="40.5" y="-96.0568" font-family="Lato" font-size="12.00">!a &amp; b</text>
</g>
<!-- 0&#45;&gt;0 -->
<g id="edge4" class="edge"><title>0&#45;&gt;0</title>
<path fill="none" stroke="black" d="M51.6296,-48.5052C47.3713,-75.0963 48.8281,-110.657 56,-110.657 62.5555,-110.657 64.3361,-80.9456 61.3416,-55.5312"/>
<polygon fill="black" stroke="black" points="60.3704,-48.5052 64.4493,-55.0079 60.8497,-51.9723 61.329,-55.4393 61.329,-55.4393 61.329,-55.4393 60.8497,-51.9723 58.2086,-55.8707 60.3704,-48.5052 60.3704,-48.5052"/>
<text text-anchor="start" x="52.5" y="-127.057" font-family="Lato" font-size="12.00">a</text>
<text text-anchor="start" x="49" y="-114.057" font-family="Lato" font-size="12.00" fill="#1f78b4">⓿</text>
</g>
<!-- 1 -->
<g id="node3" class="node"><title>1</title>
<ellipse fill="#ffffa0" stroke="black" cx="162" cy="-30.6568" rx="18" ry="18"/>
<text text-anchor="middle" x="162" y="-27.5568" font-family="Lato" font-size="12.00">1</text>
</g>
<!-- 0&#45;&gt;1 -->
<g id="edge5" class="edge"><title>0&#45;&gt;1</title>
<path fill="none" stroke="#e31a1c" stroke-width="2" d="M74.071,-32.4143C79.7664,-32.9221 86.1506,-33.4066 92,-33.6568 107.097,-34.3026 110.903,-34.3026 126,-33.6568 129.473,-33.5082 133.135,-33.2771 136.729,-33.0075"/>
<polygon fill="#e31a1c" stroke="#e31a1c" stroke-width="2" points="143.929,-32.4143 137.211,-36.1285 140.482,-33.2001 136.994,-33.4875 136.953,-32.9892 136.912,-32.4909 140.4,-32.2034 136.694,-29.8498 143.929,-32.4143 143.929,-32.4143"/>
<text text-anchor="start" x="93.5" y="-50.0568" font-family="Lato" font-size="12.00">!a &amp; b</text>
<text text-anchor="start" x="102" y="-37.0568" font-family="Lato" font-size="12.00" fill="#ff4da0">❶</text>
</g>
<!-- 1&#45;&gt;0 -->
<g id="edge6" class="edge"><title>1&#45;&gt;0</title>
<path fill="none" stroke="black" d="M148.926,-18.1252C142.677,-12.5435 134.571,-6.5787 126,-3.6568 111.697,1.21893 106.303,1.21893 92,-3.6568 85.8393,-5.75692 79.9192,-9.429 74.7563,-13.4009"/>
<polygon fill="black" stroke="black" points="69.0744,-18.1252 72.443,-11.2277 71.7657,-15.8875 74.4569,-13.6498 74.4569,-13.6498 74.4569,-13.6498 71.7657,-15.8875 76.4708,-16.072 69.0744,-18.1252 69.0744,-18.1252"/>
<text text-anchor="start" x="92" y="-20.0568" font-family="Lato" font-size="12.00">!a &amp; !b</text>
<text text-anchor="start" x="102" y="-7.0568" font-family="Lato" font-size="12.00" fill="#ff4da0">❶</text>
</g>
<!-- 1&#45;&gt;1 -->
<g id="edge7" class="edge"><title>1&#45;&gt;1</title>
<path fill="none" stroke="black" d="M153.021,-46.5728C150.679,-56.8072 153.672,-66.6568 162,-66.6568 168.376,-66.6568 171.625,-60.8831 171.746,-53.5836"/>
<polygon fill="black" stroke="black" points="170.979,-46.5728 174.872,-53.1883 171.36,-50.052 171.741,-53.5312 171.741,-53.5312 171.741,-53.5312 171.36,-50.052 168.61,-53.8742 170.979,-46.5728 170.979,-46.5728"/>
<text text-anchor="start" x="146.5" y="-83.0568" font-family="Lato" font-size="12.00">!a &amp; b</text>
<text text-anchor="start" x="155" y="-70.0568" font-family="Lato" font-size="12.00" fill="#ff4da0">❶</text>
</g>
</g>
</svg>
