<?xml version="1.0" encoding="UTF-8" standalone="no"?>
<?xml-stylesheet href="spot.css" type="text/css"?>
<!DOCTYPE svg PUBLIC "-//W3C//DTD SVG 1.1//EN"
 "http://www.w3.org/Graphics/SVG/1.1/DTD/svg11.dtd">
<!-- Generated by graphviz version 2.38.0 (20140413.2041)
 -->
<!-- Title: G Pages: 1 -->
<svg width="161pt" height="120pt"
 viewBox="0.00 0.00 161.00 120.00" xmlns="http://www.w3.org/2000/svg" xmlns:xlink="http://www.w3.org/1999/xlink">
<g id="graph0" class="graph" transform="scale(1 1) rotate(0) translate(4 116)">
<title>G</title>
<polygon fill="white" stroke="none" points="-4,4 -4,-116 157,-116 157,4 -4,4"/>
<text text-anchor="start" x="58.5" y="-99.4" font-family="Lato" font-size="12.00">Inf(</text>
<text text-anchor="start" x="76.5" y="-99.4" font-family="Lato" font-size="12.00" fill="#1f78b4">⓿</text>
<text text-anchor="start" x="90.5" y="-99.4" font-family="Lato" font-size="12.00">)</text>
<text text-anchor="start" x="57.5" y="-87.4" font-family="Lato" font-size="12.00">[Büchi]</text>
<!-- I -->
<!-- 0 -->
<g id="node2" class="node"><title>0</title>
<ellipse fill="#ffffa0" stroke="black" cx="56" cy="-18" rx="18" ry="18"/>
<text text-anchor="middle" x="56" y="-14.9" font-family="Lato" font-size="12.00">0</text>
</g>
<!-- I&#45;&gt;0 -->
<g id="edge1" class="edge"><title>I&#45;&gt;0</title>
<path fill="none" stroke="black" d="M1.15491,-18C2.79388,-18 17.1543,-18 30.6317,-18"/>
<polygon fill="black" stroke="black" points="37.9419,-18 30.9419,-21.1501 34.4419,-18 30.9419,-18.0001 30.9419,-18.0001 30.9419,-18.0001 34.4419,-18 30.9418,-14.8501 37.9419,-18 37.9419,-18"/>
</g>
<!-- 0&#45;&gt;0 -->
<g id="edge2" class="edge"><title>0&#45;&gt;0</title>
<path fill="none" stroke="black" d="M49.6208,-35.0373C48.3189,-44.8579 50.4453,-54 56,-54 60.166,-54 62.4036,-48.8576 62.7128,-42.1433"/>
<polygon fill="black" stroke="black" points="62.3792,-35.0373 65.8541,-41.8818 62.5434,-38.5335 62.7076,-42.0296 62.7076,-42.0296 62.7076,-42.0296 62.5434,-38.5335 59.561,-42.1774 62.3792,-35.0373 62.3792,-35.0373"/>
<text text-anchor="start" x="52.5" y="-57.4" font-family="Lato" font-size="12.00">1</text>
</g>
<!-- 1 -->
<g id="node3" class="node"><title>1</title>
<ellipse fill="#ffffa0" stroke="black" cx="135" cy="-18" rx="18" ry="18"/>
<text text-anchor="start" x="131.5" y="-14.9" font-family="Lato" font-size="12.00">1</text>
</g>
<!-- 0&#45;&gt;1 -->
<g id="edge3" class="edge"><title>0&#45;&gt;1</title>
<path fill="none" stroke="black" d="M74.0888,-18C84.5562,-18 98.1196,-18 109.693,-18"/>
<polygon fill="black" stroke="black" points="116.959,-18 109.959,-21.1501 113.459,-18 109.959,-18.0001 109.959,-18.0001 109.959,-18.0001 113.459,-18 109.959,-14.8501 116.959,-18 116.959,-18"/>
<text text-anchor="start" x="92" y="-21.4" font-family="Lato" font-size="12.00">a</text>
</g>
<!-- 1&#45;&gt;1 -->
<g id="edge4" class="edge"><title>1&#45;&gt;1</title>
<path fill="none" stroke="black" d="M128.266,-35.0373C126.892,-44.8579 129.137,-54 135,-54 139.397,-54 141.759,-48.8576 142.086,-42.1433"/>
<polygon fill="black" stroke="black" points="141.734,-35.0373 145.226,-41.8728 141.907,-38.533 142.08,-42.0287 142.08,-42.0287 142.08,-42.0287 141.907,-38.533 138.934,-42.1847 141.734,-35.0373 141.734,-35.0373"/>
<text text-anchor="start" x="131.5" y="-70.4" font-family="Lato" font-size="12.00">a</text>
<text text-anchor="start" x="128" y="-57.4" font-family="Lato" font-size="12.00" fill="#1f78b4">⓿</text>
</g>
</g>
</svg>
