<?xml version="1.0" encoding="UTF-8" standalone="no"?>
<?xml-stylesheet href="spot.css" type="text/css"?>
<!DOCTYPE svg PUBLIC "-//W3C//DTD SVG 1.1//EN"
 "http://www.w3.org/Graphics/SVG/1.1/DTD/svg11.dtd">
<!-- Generated by graphviz version 2.38.0 (20140413.2041)
 -->
<!-- Title: G Pages: 1 -->
<svg width="391pt" height="76pt"
 viewBox="0.00 0.00 391.00 76.32" xmlns="http://www.w3.org/2000/svg" xmlns:xlink="http://www.w3.org/1999/xlink">
<g id="graph0" class="graph" transform="scale(1 1) rotate(0) translate(4 72.3163)">
<title>G</title>
<polygon fill="white" stroke="none" points="-4,4 -4,-72.3163 387,-72.3163 387,4 -4,4"/>
<!-- I -->
<!-- 2 -->
<g id="node2" class="node"><title>2</title>
<ellipse fill="#ffffa0" stroke="black" cx="56" cy="-19.3163" rx="18" ry="18"/>
<text text-anchor="middle" x="56" y="-16.2163" font-family="Lato" font-size="12.00">2</text>
</g>
<!-- I&#45;&gt;2 -->
<g id="edge1" class="edge"><title>I&#45;&gt;2</title>
<path fill="none" stroke="black" d="M1.15491,-19.3163C2.79388,-19.3163 17.1543,-19.3163 30.6317,-19.3163"/>
<polygon fill="black" stroke="black" points="37.9419,-19.3163 30.9419,-22.4664 34.4419,-19.3163 30.9419,-19.3164 30.9419,-19.3164 30.9419,-19.3164 34.4419,-19.3163 30.9418,-16.1664 37.9419,-19.3163 37.9419,-19.3163"/>
</g>
<!-- 2&#45;&gt;2 -->
<g id="edge7" class="edge"><title>2&#45;&gt;2</title>
<path fill="none" stroke="black" d="M49.6208,-36.3536C48.3189,-46.1742 50.4453,-55.3163 56,-55.3163 60.166,-55.3163 62.4036,-50.1739 62.7128,-43.4596"/>
<polygon fill="black" stroke="black" points="62.3792,-36.3536 65.8541,-43.1981 62.5434,-39.8497 62.7076,-43.3459 62.7076,-43.3459 62.7076,-43.3459 62.5434,-39.8497 59.561,-43.4936 62.3792,-36.3536 62.3792,-36.3536"/>
<text text-anchor="start" x="40.5" y="-58.7163" font-family="Lato" font-size="12.00">!a &amp; b</text>
</g>
<!-- 1 -->
<g id="node4" class="node"><title>1</title>
<ellipse fill="#ffffa0" stroke="black" cx="159" cy="-19.3163" rx="18" ry="18"/>
<text text-anchor="middle" x="159" y="-16.2163" font-family="Lato" font-size="12.00">1</text>
</g>
<!-- 2&#45;&gt;1 -->
<g id="edge6" class="edge"><title>2&#45;&gt;1</title>
<path fill="none" stroke="black" d="M74.1333,-19.3163C90.3843,-19.3163 114.98,-19.3163 133.339,-19.3163"/>
<polygon fill="black" stroke="black" points="140.783,-19.3163 133.783,-22.4664 137.283,-19.3163 133.783,-19.3164 133.783,-19.3164 133.783,-19.3164 137.283,-19.3163 133.783,-16.1664 140.783,-19.3163 140.783,-19.3163"/>
<text text-anchor="start" x="93.5" y="-22.7163" font-family="Lato" font-size="12.00">a &amp; b</text>
</g>
<!-- 0 -->
<g id="node3" class="node"><title>0</title>
<ellipse fill="#ffffa0" stroke="black" cx="365" cy="-19.3163" rx="18" ry="18"/>
<text text-anchor="middle" x="365" y="-16.2163" font-family="Lato" font-size="12.00">0</text>
</g>
<!-- 0&#45;&gt;0 -->
<g id="edge2" class="edge"><title>0&#45;&gt;0</title>
<path fill="none" stroke="black" d="M356.367,-35.2323C354.114,-45.4667 356.992,-55.3163 365,-55.3163 371.131,-55.3163 374.255,-49.5426 374.372,-42.2431"/>
<polygon fill="black" stroke="black" points="373.633,-35.2323 377.499,-41.8639 374,-38.7131 374.367,-42.1938 374.367,-42.1938 374.367,-42.1938 374,-38.7131 371.234,-42.5237 373.633,-35.2323 373.633,-35.2323"/>
<text text-anchor="start" x="361.5" y="-58.7163" font-family="Lato" font-size="12.00">b</text>
</g>
<!-- 1&#45;&gt;2 -->
<g id="edge4" class="edge"><title>1&#45;&gt;2</title>
<path fill="none" stroke="black" d="M143.22,-10.2996C137.178,-7.11184 129.978,-3.92136 123,-2.31628 109.573,0.772093 105.427,0.772093 92,-2.31628 87.4205,-3.36961 82.7454,-5.10572 78.365,-7.07578"/>
<polygon fill="black" stroke="black" points="71.7798,-10.2996 76.6818,-4.39251 74.9233,-8.76065 78.0668,-7.22167 78.0668,-7.22167 78.0668,-7.22167 74.9233,-8.76065 79.4519,-10.0508 71.7798,-10.2996 71.7798,-10.2996"/>
<text text-anchor="start" x="92" y="-5.71628" font-family="Lato" font-size="12.00">!a &amp; b</text>
</g>
<!-- 1&#45;&gt;1 -->
<g id="edge3" class="edge"><title>1&#45;&gt;1</title>
<path fill="none" stroke="black" d="M150.367,-35.2323C148.114,-45.4667 150.992,-55.3163 159,-55.3163 165.131,-55.3163 168.255,-49.5426 168.372,-42.2431"/>
<polygon fill="black" stroke="black" points="167.633,-35.2323 171.499,-41.8639 168,-38.7131 168.367,-42.1938 168.367,-42.1938 168.367,-42.1938 168,-38.7131 165.234,-42.5237 167.633,-35.2323 167.633,-35.2323"/>
<text text-anchor="start" x="145" y="-58.7163" font-family="Lato" font-size="12.00">a &amp; b</text>
</g>
<!-- 3 -->
<g id="node5" class="node"><title>3</title>
<ellipse fill="#ffffa0" stroke="black" cx="262" cy="-19.3163" rx="18" ry="18"/>
<text text-anchor="middle" x="262" y="-16.2163" font-family="Lato" font-size="12.00">3</text>
</g>
<!-- 1&#45;&gt;3 -->
<g id="edge5" class="edge"><title>1&#45;&gt;3</title>
<path fill="none" stroke="black" d="M177.133,-19.3163C193.384,-19.3163 217.98,-19.3163 236.339,-19.3163"/>
<polygon fill="black" stroke="black" points="243.783,-19.3163 236.783,-22.4664 240.283,-19.3163 236.783,-19.3164 236.783,-19.3164 236.783,-19.3164 240.283,-19.3163 236.783,-16.1664 243.783,-19.3163 243.783,-19.3163"/>
<text text-anchor="start" x="195" y="-22.7163" font-family="Lato" font-size="12.00">a &amp; !b</text>
</g>
<!-- 3&#45;&gt;0 -->
<g id="edge8" class="edge"><title>3&#45;&gt;0</title>
<path fill="none" stroke="black" d="M280.133,-19.3163C296.384,-19.3163 320.98,-19.3163 339.339,-19.3163"/>
<polygon fill="black" stroke="black" points="346.783,-19.3163 339.783,-22.4664 343.283,-19.3163 339.783,-19.3164 339.783,-19.3164 339.783,-19.3164 343.283,-19.3163 339.783,-16.1664 346.783,-19.3163 346.783,-19.3163"/>
<text text-anchor="start" x="298" y="-22.7163" font-family="Lato" font-size="12.00">!a &amp; b</text>
</g>
<!-- 3&#45;&gt;3 -->
<g id="edge9" class="edge"><title>3&#45;&gt;3</title>
<path fill="none" stroke="black" d="M253.367,-35.2323C251.114,-45.4667 253.992,-55.3163 262,-55.3163 268.131,-55.3163 271.255,-49.5426 271.372,-42.2431"/>
<polygon fill="black" stroke="black" points="270.633,-35.2323 274.499,-41.8639 271,-38.7131 271.367,-42.1938 271.367,-42.1938 271.367,-42.1938 271,-38.7131 268.234,-42.5237 270.633,-35.2323 270.633,-35.2323"/>
<text text-anchor="start" x="258.5" y="-58.7163" font-family="Lato" font-size="12.00">a</text>
</g>
</g>
</svg>
