<?xml version="1.0" encoding="UTF-8" standalone="no"?>
<?xml-stylesheet href="spot.css" type="text/css"?>
<!DOCTYPE svg PUBLIC "-//W3C//DTD SVG 1.1//EN"
 "http://www.w3.org/Graphics/SVG/1.1/DTD/svg11.dtd">
<!-- Generated by graphviz version 2.38.0 (20140413.2041)
 -->
<!-- Title: root Pages: 1 -->
<svg width="442pt" height="382pt"
 viewBox="0.00 0.00 442.00 382.00" xmlns="http://www.w3.org/2000/svg" xmlns:xlink="http://www.w3.org/1999/xlink">
<g id="graph0" class="graph" transform="scale(1 1) rotate(0) translate(4 378)">
<title>root</title>
<polygon fill="white" stroke="none" points="-4,4 -4,-378 438,-378 438,4 -4,4"/>
<g id="clust1" class="cluster"><title>cluster</title>
<polygon fill="none" stroke="black" points="8,-8 8,-230 426,-230 426,-8 8,-8"/>
<text text-anchor="start" x="181" y="-216.4" font-family="Lato" font-size="12.00">(Gb | F!a) W c</text>
</g>
<g id="clust2" class="cluster"><title>cluster_gv1</title>
<polygon fill="none" stroke="black" points="8,-238 8,-366 245,-366 245,-238 8,-238"/>
<text text-anchor="start" x="112.5" y="-352.4" font-family="Lato" font-size="12.00">a U b</text>
</g>
<!-- I -->
<!-- 0 -->
<g id="node2" class="node"><title>0</title>
<ellipse fill="#ffffa0" stroke="black" cx="72" cy="-81" rx="18" ry="18"/>
<text text-anchor="middle" x="72" y="-77.9" font-family="Lato" font-size="12.00">0</text>
</g>
<!-- I&#45;&gt;0 -->
<g id="edge1" class="edge"><title>I&#45;&gt;0</title>
<path fill="none" stroke="black" d="M17.1549,-81C18.7939,-81 33.1543,-81 46.6317,-81"/>
<polygon fill="black" stroke="black" points="53.9419,-81 46.9419,-84.1501 50.4419,-81 46.9419,-81.0001 46.9419,-81.0001 46.9419,-81.0001 50.4419,-81 46.9418,-77.8501 53.9419,-81 53.9419,-81"/>
</g>
<!-- 0&#45;&gt;0 -->
<g id="edge2" class="edge"><title>0&#45;&gt;0</title>
<path fill="none" stroke="black" d="M65.6208,-98.0373C64.3189,-107.858 66.4453,-117 72,-117 76.166,-117 78.4036,-111.858 78.7128,-105.143"/>
<polygon fill="black" stroke="black" points="78.3792,-98.0373 81.8541,-104.882 78.5434,-101.533 78.7076,-105.03 78.7076,-105.03 78.7076,-105.03 78.5434,-101.533 75.561,-105.177 78.3792,-98.0373 78.3792,-98.0373"/>
<text text-anchor="start" x="55.5" y="-133.4" font-family="Lato" font-size="12.00">!a &amp; !c</text>
<text text-anchor="start" x="65" y="-120.4" font-family="Lato" font-size="12.00" fill="#1f78b4">⓿</text>
</g>
<!-- 1 -->
<g id="node3" class="node"><title>1</title>
<ellipse fill="#ffffa0" stroke="black" cx="400" cy="-103" rx="18" ry="18"/>
<text text-anchor="middle" x="400" y="-99.9" font-family="Lato" font-size="12.00">1</text>
</g>
<!-- 0&#45;&gt;1 -->
<g id="edge3" class="edge"><title>0&#45;&gt;1</title>
<path fill="none" stroke="black" d="M87.325,-70.8442C93.5399,-66.6348 100.988,-61.8472 108,-58 162.731,-27.9709 184.205,-12.8152 245,-27 296.287,-38.9664 350.118,-70.6029 378.564,-89.0675"/>
<polygon fill="black" stroke="black" points="384.57,-93.0167 376.991,-91.8031 381.646,-91.0939 378.721,-89.171 378.721,-89.171 378.721,-89.171 381.646,-91.0939 380.452,-86.539 384.57,-93.0167 384.57,-93.0167"/>
<text text-anchor="start" x="265" y="-42.4" font-family="Lato" font-size="12.00">c</text>
</g>
<!-- 2 -->
<g id="node4" class="node"><title>2</title>
<ellipse fill="#ffffa0" stroke="black" cx="207" cy="-54" rx="18" ry="18"/>
<text text-anchor="middle" x="207" y="-50.9" font-family="Lato" font-size="12.00">2</text>
</g>
<!-- 0&#45;&gt;2 -->
<g id="edge4" class="edge"><title>0&#45;&gt;2</title>
<path fill="none" stroke="black" d="M89.288,-75.9564C95.1517,-74.2445 101.84,-72.4101 108,-71 132.926,-65.2943 161.806,-60.5012 181.726,-57.4742"/>
<polygon fill="black" stroke="black" points="188.894,-56.4023 182.437,-60.5529 185.433,-56.9199 181.971,-57.4375 181.971,-57.4375 181.971,-57.4375 185.433,-56.9199 181.505,-54.3222 188.894,-56.4023 188.894,-56.4023"/>
<text text-anchor="start" x="108" y="-74.4" font-family="Lato" font-size="12.00">a &amp; b &amp; !c</text>
</g>
<!-- 3 -->
<g id="node5" class="node"><title>3</title>
<ellipse fill="#ffffa0" stroke="black" cx="207" cy="-152" rx="18" ry="18"/>
<text text-anchor="middle" x="207" y="-148.9" font-family="Lato" font-size="12.00">3</text>
</g>
<!-- 0&#45;&gt;3 -->
<g id="edge5" class="edge"><title>0&#45;&gt;3</title>
<path fill="none" stroke="black" d="M89.5754,-85.3594C107.451,-90.4645 136.385,-99.918 159,-113 169.44,-119.039 179.882,-127.411 188.262,-134.851"/>
<polygon fill="black" stroke="black" points="193.71,-139.813 186.413,-137.428 191.122,-137.456 188.535,-135.099 188.535,-135.099 188.535,-135.099 191.122,-137.456 190.656,-132.77 193.71,-139.813 193.71,-139.813"/>
<text text-anchor="start" x="118.5" y="-116.4" font-family="Lato" font-size="12.00">a &amp; !c</text>
</g>
<!-- 1&#45;&gt;1 -->
<g id="edge6" class="edge"><title>1&#45;&gt;1</title>
<path fill="none" stroke="black" d="M392.969,-119.664C391.406,-129.625 393.75,-139 400,-139 404.688,-139 407.178,-133.727 407.471,-126.888"/>
<polygon fill="black" stroke="black" points="407.031,-119.664 410.601,-126.46 407.244,-123.158 407.456,-126.651 407.456,-126.651 407.456,-126.651 407.244,-123.158 404.312,-126.842 407.031,-119.664 407.031,-119.664"/>
<text text-anchor="start" x="396.5" y="-155.4" font-family="Lato" font-size="12.00">1</text>
<text text-anchor="start" x="393" y="-142.4" font-family="Lato" font-size="12.00" fill="#1f78b4">⓿</text>
</g>
<!-- 2&#45;&gt;2 -->
<g id="edge7" class="edge"><title>2&#45;&gt;2</title>
<path fill="none" stroke="black" d="M196.849,-69.1666C193.772,-79.6641 197.156,-90 207,-90 214.537,-90 218.287,-83.9413 218.25,-76.39"/>
<polygon fill="black" stroke="black" points="217.151,-69.1666 221.318,-75.6135 217.678,-72.6269 218.204,-76.0871 218.204,-76.0871 218.204,-76.0871 217.678,-72.6269 215.09,-76.5607 217.151,-69.1666 217.151,-69.1666"/>
<text text-anchor="start" x="203.5" y="-106.4" font-family="Lato" font-size="12.00">b</text>
<text text-anchor="start" x="200" y="-93.4" font-family="Lato" font-size="12.00" fill="#1f78b4">⓿</text>
</g>
<!-- 3&#45;&gt;0 -->
<g id="edge8" class="edge"><title>3&#45;&gt;0</title>
<path fill="none" stroke="black" d="M188.701,-150.759C167.983,-148.56 132.956,-142.513 108,-126 99.0547,-120.081 91.4106,-111.109 85.5692,-102.729"/>
<polygon fill="black" stroke="black" points="81.4619,-96.4972 87.9442,-100.609 83.3879,-99.4196 85.314,-102.342 85.314,-102.342 85.314,-102.342 83.3879,-99.4196 82.6838,-104.075 81.4619,-96.4972 81.4619,-96.4972"/>
<text text-anchor="start" x="117" y="-162.4" font-family="Lato" font-size="12.00">!a &amp; !c</text>
<text text-anchor="start" x="126.5" y="-149.4" font-family="Lato" font-size="12.00" fill="#1f78b4">⓿</text>
</g>
<!-- 3&#45;&gt;1 -->
<g id="edge9" class="edge"><title>3&#45;&gt;1</title>
<path fill="none" stroke="black" d="M223.09,-143.64C240.89,-134.211 271.653,-119.25 300,-112 325.018,-105.601 354.61,-103.608 374.884,-103.056"/>
<polygon fill="black" stroke="black" points="381.905,-102.913 374.971,-106.205 378.406,-102.984 374.907,-103.056 374.907,-103.056 374.907,-103.056 378.406,-102.984 374.842,-99.9064 381.905,-102.913 381.905,-102.913"/>
<text text-anchor="start" x="303" y="-115.4" font-family="Lato" font-size="12.00">!a &amp; c</text>
</g>
<!-- 3&#45;&gt;3 -->
<g id="edge10" class="edge"><title>3&#45;&gt;3</title>
<path fill="none" stroke="black" d="M196.849,-167.167C193.772,-177.664 197.156,-188 207,-188 214.537,-188 218.287,-181.941 218.25,-174.39"/>
<polygon fill="black" stroke="black" points="217.151,-167.167 221.318,-173.614 217.678,-170.627 218.204,-174.087 218.204,-174.087 218.204,-174.087 217.678,-170.627 215.09,-174.561 217.151,-167.167 217.151,-167.167"/>
<text text-anchor="start" x="192" y="-191.4" font-family="Lato" font-size="12.00">a &amp; !c</text>
</g>
<!-- 4 -->
<g id="node6" class="node"><title>4</title>
<ellipse fill="#ffffa0" stroke="black" cx="318" cy="-152" rx="18" ry="18"/>
<text text-anchor="middle" x="318" y="-148.9" font-family="Lato" font-size="12.00">4</text>
</g>
<!-- 3&#45;&gt;4 -->
<g id="edge11" class="edge"><title>3&#45;&gt;4</title>
<path fill="none" stroke="black" d="M225.031,-152C243.162,-152 272.017,-152 292.568,-152"/>
<polygon fill="black" stroke="black" points="299.729,-152 292.729,-155.15 296.229,-152 292.729,-152 292.729,-152 292.729,-152 296.229,-152 292.729,-148.85 299.729,-152 299.729,-152"/>
<text text-anchor="start" x="255" y="-155.4" font-family="Lato" font-size="12.00">a &amp; c</text>
</g>
<!-- 4&#45;&gt;1 -->
<g id="edge12" class="edge"><title>4&#45;&gt;1</title>
<path fill="none" stroke="black" d="M333.673,-143.013C346.112,-135.394 364.103,-124.374 378.056,-115.828"/>
<polygon fill="black" stroke="black" points="384.149,-112.096 379.825,-118.439 381.164,-113.924 378.18,-115.753 378.18,-115.753 378.18,-115.753 381.164,-113.924 376.534,-113.066 384.149,-112.096 384.149,-112.096"/>
<text text-anchor="start" x="354" y="-134.4" font-family="Lato" font-size="12.00">!a</text>
</g>
<!-- 4&#45;&gt;4 -->
<g id="edge13" class="edge"><title>4&#45;&gt;4</title>
<path fill="none" stroke="black" d="M310.969,-168.664C309.406,-178.625 311.75,-188 318,-188 322.688,-188 325.178,-182.727 325.471,-175.888"/>
<polygon fill="black" stroke="black" points="325.031,-168.664 328.601,-175.46 325.244,-172.158 325.456,-175.651 325.456,-175.651 325.456,-175.651 325.244,-172.158 322.312,-175.842 325.031,-168.664 325.031,-168.664"/>
<text text-anchor="start" x="314.5" y="-191.4" font-family="Lato" font-size="12.00">a</text>
</g>
<!-- I_gv1 -->
<!-- 1_gv1 -->
<g id="node8" class="node"><title>1_gv1</title>
<ellipse fill="#ffffa0" stroke="black" cx="72" cy="-276" rx="18" ry="18"/>
<text text-anchor="middle" x="72" y="-272.9" font-family="Lato" font-size="12.00">1</text>
</g>
<!-- I_gv1&#45;&gt;1_gv1 -->
<g id="edge14" class="edge"><title>I_gv1&#45;&gt;1_gv1</title>
<path fill="none" stroke="black" d="M17.1549,-276C18.7939,-276 33.1543,-276 46.6317,-276"/>
<polygon fill="black" stroke="black" points="53.9419,-276 46.9419,-279.15 50.4419,-276 46.9419,-276 46.9419,-276 46.9419,-276 50.4419,-276 46.9418,-272.85 53.9419,-276 53.9419,-276"/>
</g>
<!-- 1_gv1&#45;&gt;1_gv1 -->
<g id="edge15" class="edge"><title>1_gv1&#45;&gt;1_gv1</title>
<path fill="none" stroke="black" d="M65.6208,-293.037C64.3189,-302.858 66.4453,-312 72,-312 76.166,-312 78.4036,-306.858 78.7128,-300.143"/>
<polygon fill="black" stroke="black" points="78.3792,-293.037 81.8541,-299.882 78.5434,-296.533 78.7076,-300.03 78.7076,-300.03 78.7076,-300.03 78.5434,-296.533 75.561,-300.177 78.3792,-293.037 78.3792,-293.037"/>
<text text-anchor="start" x="56.5" y="-315.4" font-family="Lato" font-size="12.00">a &amp; !b</text>
</g>
<!-- 0_gv1 -->
<g id="node9" class="node"><title>0_gv1</title>
<ellipse fill="#ffffa0" stroke="black" cx="207" cy="-276" rx="26" ry="26"/>
<ellipse fill="none" stroke="black" cx="207" cy="-276" rx="30" ry="30"/>
<text text-anchor="middle" x="207" y="-272.9" font-family="Lato" font-size="12.00">0</text>
</g>
<!-- 1_gv1&#45;&gt;0_gv1 -->
<g id="edge16" class="edge"><title>1_gv1&#45;&gt;0_gv1</title>
<path fill="none" stroke="black" d="M90.1151,-276C110.123,-276 143.796,-276 169.703,-276"/>
<polygon fill="black" stroke="black" points="176.787,-276 169.787,-279.15 173.287,-276 169.787,-276 169.787,-276 169.787,-276 173.287,-276 169.787,-272.85 176.787,-276 176.787,-276"/>
<text text-anchor="start" x="130" y="-279.4" font-family="Lato" font-size="12.00">b</text>
</g>
<!-- 0_gv1&#45;&gt;0_gv1 -->
<g id="edge17" class="edge"><title>0_gv1&#45;&gt;0_gv1</title>
<path fill="none" stroke="black" d="M195.794,-304.103C195.296,-314.969 199.031,-324 207,-324 213.101,-324 216.721,-318.706 217.859,-311.348"/>
<polygon fill="black" stroke="black" points="218.206,-304.103 221.017,-311.246 218.038,-307.599 217.871,-311.095 217.871,-311.095 217.871,-311.095 218.038,-307.599 214.724,-310.944 218.206,-304.103 218.206,-304.103"/>
<text text-anchor="middle" x="207" y="-327.4" font-family="Lato" font-size="12.00">1</text>
</g>
</g>
</svg>
