<?xml version="1.0" encoding="UTF-8" standalone="no"?>
<?xml-stylesheet href="spot.css" type="text/css"?>
<!DOCTYPE svg PUBLIC "-//W3C//DTD SVG 1.1//EN"
 "http://www.w3.org/Graphics/SVG/1.1/DTD/svg11.dtd">
<!-- Generated by graphviz version 2.38.0 (20140413.2041)
 -->
<!-- Title: G Pages: 1 -->
<svg width="760pt" height="658pt"
 viewBox="0.00 0.00 760.06 658.20" xmlns="http://www.w3.org/2000/svg" xmlns:xlink="http://www.w3.org/1999/xlink">
<g id="graph0" class="graph" transform="scale(1 1) rotate(0) translate(4 654.202)">
<title>G</title>
<polygon fill="white" stroke="none" points="-4,4 -4,-654.202 756.06,-654.202 756.06,4 -4,4"/>
<!-- I -->
<!-- 0 -->
<g id="node2" class="node"><title>0</title>
<ellipse fill="#ffffa0" stroke="black" cx="90.5" cy="-325.101" rx="70.922" ry="24.0833"/>
<text text-anchor="start" x="58.5" y="-328.501" font-family="Lato" font-size="12.00">(x = 0, y = 0)</text>
<text text-anchor="start" x="48.5" y="-315.501" font-family="Lato" font-size="12.00">!odd_x &amp; !odd_y</text>
</g>
<!-- I&#45;&gt;0 -->
<g id="edge1" class="edge"><title>I&#45;&gt;0</title>
<path fill="none" stroke="black" d="M1.07472,-325.101C2.51659,-325.101 6.58036,-325.101 12.2286,-325.101"/>
<polygon fill="black" stroke="black" points="19.5248,-325.101 12.5248,-328.251 16.0248,-325.101 12.5248,-325.101 12.5248,-325.101 12.5248,-325.101 16.0248,-325.101 12.5248,-321.951 19.5248,-325.101 19.5248,-325.101"/>
</g>
<!-- 1 -->
<g id="node3" class="node"><title>1</title>
<ellipse fill="#ffffa0" stroke="black" cx="683.471" cy="-429.658" rx="68.6788" ry="24.0833"/>
<text text-anchor="start" x="651.471" y="-433.058" font-family="Lato" font-size="12.00">(x = 1, y = 0)</text>
<text text-anchor="start" x="642.971" y="-420.058" font-family="Lato" font-size="12.00">odd_x &amp; !odd_y</text>
</g>
<!-- 0&#45;&gt;1 -->
<g id="edge2" class="edge"><title>0&#45;&gt;1</title>
<path fill="none" stroke="#e31a1c" stroke-width="2" d="M153.397,-336.191C265.506,-355.959 498.963,-397.124 614.977,-417.58"/>
<polygon fill="#e31a1c" stroke="#e31a1c" stroke-width="2" points="622.107,-418.838 614.667,-420.724 618.574,-418.722 615.127,-418.114 615.214,-417.622 615.301,-417.13 618.747,-417.737 615.761,-414.52 622.107,-418.838 622.107,-418.838"/>
</g>
<!-- 2 -->
<g id="node4" class="node"><title>2</title>
<ellipse fill="#ffffa0" stroke="black" cx="343.119" cy="-626.16" rx="68.6788" ry="24.0833"/>
<text text-anchor="start" x="311.119" y="-629.56" font-family="Lato" font-size="12.00">(x = 0, y = 1)</text>
<text text-anchor="start" x="302.619" y="-616.56" font-family="Lato" font-size="12.00">!odd_x &amp; odd_y</text>
</g>
<!-- 0&#45;&gt;2 -->
<g id="edge3" class="edge"><title>0&#45;&gt;2</title>
<path fill="none" stroke="black" d="M109.903,-348.225C155.456,-402.513 269.153,-538.011 319.027,-597.448"/>
<polygon fill="black" stroke="black" points="323.649,-602.958 316.737,-599.62 321.4,-600.276 319.15,-597.595 319.15,-597.595 319.15,-597.595 321.4,-600.276 321.563,-595.57 323.649,-602.958 323.649,-602.958"/>
</g>
<!-- 3 -->
<g id="node5" class="node"><title>3</title>
<ellipse fill="#ffffa0" stroke="black" cx="162.021" cy="-128.598" rx="70.922" ry="24.0833"/>
<text text-anchor="start" x="130.021" y="-131.998" font-family="Lato" font-size="12.00">(x = 2, y = 0)</text>
<text text-anchor="start" x="120.021" y="-118.998" font-family="Lato" font-size="12.00">!odd_x &amp; !odd_y</text>
</g>
<!-- 1&#45;&gt;3 -->
<g id="edge4" class="edge"><title>1&#45;&gt;3</title>
<path fill="none" stroke="black" d="M647.63,-408.965C554.322,-355.094 304.203,-210.687 204.195,-152.947"/>
<polygon fill="black" stroke="black" points="198.113,-149.436 205.75,-150.208 201.144,-151.186 204.175,-152.936 204.175,-152.936 204.175,-152.936 201.144,-151.186 202.6,-155.664 198.113,-149.436 198.113,-149.436"/>
</g>
<!-- 4 -->
<g id="node6" class="node"><title>4</title>
<ellipse fill="#ffffa0" stroke="black" cx="549.055" cy="-589.848" rx="66.4361" ry="24.0833"/>
<text text-anchor="start" x="517.055" y="-593.248" font-family="Lato" font-size="12.00">(x = 1, y = 1)</text>
<text text-anchor="start" x="510.055" y="-580.248" font-family="Lato" font-size="12.00">odd_x &amp; odd_y</text>
</g>
<!-- 1&#45;&gt;4 -->
<g id="edge5" class="edge"><title>1&#45;&gt;4</title>
<path fill="none" stroke="#e31a1c" stroke-width="2" d="M663.926,-452.951C639.866,-481.624 599.017,-530.306 573.07,-561.228"/>
<polygon fill="#e31a1c" stroke="#e31a1c" stroke-width="2" points="568.406,-566.787 570.493,-559.4 570.273,-563.784 572.523,-561.103 572.906,-561.424 573.289,-561.746 571.039,-564.427 575.319,-563.449 568.406,-566.787 568.406,-566.787"/>
</g>
<!-- 2&#45;&gt;4 -->
<g id="edge6" class="edge"><title>2&#45;&gt;4</title>
<path fill="none" stroke="black" d="M404.628,-615.314C429.111,-610.997 457.349,-606.018 482.327,-601.614"/>
<polygon fill="black" stroke="black" points="489.279,-600.388 482.933,-604.706 485.832,-600.996 482.386,-601.604 482.386,-601.604 482.386,-601.604 485.832,-600.996 481.839,-598.502 489.279,-600.388 489.279,-600.388"/>
</g>
<!-- 5 -->
<g id="node7" class="node"><title>5</title>
<ellipse fill="#ffffa0" stroke="black" cx="162.021" cy="-521.603" rx="70.922" ry="24.0833"/>
<text text-anchor="start" x="130.021" y="-525.003" font-family="Lato" font-size="12.00">(x = 0, y = 2)</text>
<text text-anchor="start" x="120.021" y="-512.003" font-family="Lato" font-size="12.00">!odd_x &amp; !odd_y</text>
</g>
<!-- 2&#45;&gt;5 -->
<g id="edge7" class="edge"><title>2&#45;&gt;5</title>
<path fill="none" stroke="black" d="M307.34,-605.503C277.672,-588.374 235.439,-563.991 204.142,-545.922"/>
<polygon fill="black" stroke="black" points="198.035,-542.396 205.672,-543.168 201.066,-544.146 204.097,-545.896 204.097,-545.896 204.097,-545.896 201.066,-544.146 202.522,-548.624 198.035,-542.396 198.035,-542.396"/>
</g>
<!-- 3&#45;&gt;0 -->
<g id="edge8" class="edge"><title>3&#45;&gt;0</title>
<path fill="none" stroke="black" d="M153.251,-152.693C140.294,-188.294 116.033,-254.95 101.771,-294.133"/>
<polygon fill="black" stroke="black" points="99.2296,-301.116 98.6638,-293.461 100.427,-297.827 101.624,-294.539 101.624,-294.539 101.624,-294.539 100.427,-297.827 104.584,-295.616 99.2296,-301.116 99.2296,-301.116"/>
</g>
<!-- 6 -->
<g id="node8" class="node"><title>6</title>
<ellipse fill="#ffffa0" stroke="black" cx="343.119" cy="-24.0416" rx="68.6788" ry="24.0833"/>
<text text-anchor="start" x="311.119" y="-27.4416" font-family="Lato" font-size="12.00">(x = 2, y = 1)</text>
<text text-anchor="start" x="302.619" y="-14.4416" font-family="Lato" font-size="12.00">!odd_x &amp; odd_y</text>
</g>
<!-- 3&#45;&gt;6 -->
<g id="edge9" class="edge"><title>3&#45;&gt;6</title>
<path fill="none" stroke="black" d="M198.234,-107.691C227.942,-90.5391 270.033,-66.2378 301.198,-48.2448"/>
<polygon fill="black" stroke="black" points="307.278,-44.7343 302.791,-50.9623 304.247,-46.4843 301.216,-48.2344 301.216,-48.2344 301.216,-48.2344 304.247,-46.4843 299.641,-45.5064 307.278,-44.7343 307.278,-44.7343"/>
</g>
<!-- 4&#45;&gt;6 -->
<g id="edge10" class="edge"><title>4&#45;&gt;6</title>
<path fill="none" stroke="black" d="M540.338,-565.897C507.447,-475.53 390.889,-155.29 354.236,-54.5866"/>
<polygon fill="black" stroke="black" points="351.838,-47.9982 357.192,-53.4987 353.035,-51.2871 354.232,-54.5761 354.232,-54.5761 354.232,-54.5761 353.035,-51.2871 351.272,-55.6535 351.838,-47.9982 351.838,-47.9982"/>
</g>
<!-- 7 -->
<g id="node9" class="node"><title>7</title>
<ellipse fill="#ffffa0" stroke="black" cx="683.471" cy="-220.544" rx="68.6788" ry="24.0833"/>
<text text-anchor="start" x="651.471" y="-223.944" font-family="Lato" font-size="12.00">(x = 1, y = 2)</text>
<text text-anchor="start" x="642.971" y="-210.944" font-family="Lato" font-size="12.00">odd_x &amp; !odd_y</text>
</g>
<!-- 4&#45;&gt;7 -->
<g id="edge11" class="edge"><title>4&#45;&gt;7</title>
<path fill="none" stroke="#e31a1c" stroke-width="2" d="M557.771,-565.901C581.329,-501.178 646.25,-322.808 672.371,-251.041"/>
<polygon fill="#e31a1c" stroke="#e31a1c" stroke-width="2" points="674.775,-244.436 675.341,-252.092 674.048,-247.896 672.851,-251.185 672.381,-251.014 671.911,-250.843 673.108,-247.554 669.421,-249.937 674.775,-244.436 674.775,-244.436"/>
</g>
<!-- 5&#45;&gt;0 -->
<g id="edge13" class="edge"><title>5&#45;&gt;0</title>
<path fill="none" stroke="black" d="M153.251,-497.508C140.294,-461.908 116.033,-395.251 101.771,-356.068"/>
<polygon fill="black" stroke="black" points="99.2296,-349.085 104.584,-354.586 100.427,-352.374 101.624,-355.663 101.624,-355.663 101.624,-355.663 100.427,-352.374 98.6638,-356.741 99.2296,-349.085 99.2296,-349.085"/>
</g>
<!-- 5&#45;&gt;7 -->
<g id="edge12" class="edge"><title>5&#45;&gt;7</title>
<path fill="none" stroke="#e31a1c" stroke-width="2" d="M198.274,-500.672C291.952,-446.588 541.694,-302.399 641.452,-244.804"/>
<polygon fill="#e31a1c" stroke="#e31a1c" stroke-width="2" points="647.802,-241.137 643.315,-247.365 645.021,-243.32 641.99,-245.07 641.74,-244.637 641.49,-244.204 644.521,-242.454 640.165,-241.909 647.802,-241.137 647.802,-241.137"/>
</g>
<!-- 6&#45;&gt;2 -->
<g id="edge14" class="edge"><title>6&#45;&gt;2</title>
<path fill="none" stroke="black" d="M343.119,-48.3911C343.119,-143.25 343.119,-488.058 343.119,-594.587"/>
<polygon fill="black" stroke="black" points="343.119,-601.838 339.969,-594.838 343.119,-598.338 343.119,-594.838 343.119,-594.838 343.119,-594.838 343.119,-598.338 346.269,-594.839 343.119,-601.838 343.119,-601.838"/>
</g>
<!-- 8 -->
<g id="node10" class="node"><title>8</title>
<ellipse fill="#ffffa0" stroke="black" cx="549.055" cy="-60.3538" rx="70.922" ry="24.0833"/>
<text text-anchor="start" x="517.055" y="-63.7538" font-family="Lato" font-size="12.00">(x = 2, y = 2)</text>
<text text-anchor="start" x="507.055" y="-50.7538" font-family="Lato" font-size="12.00">!odd_x &amp; !odd_y</text>
</g>
<!-- 6&#45;&gt;8 -->
<g id="edge15" class="edge"><title>6&#45;&gt;8</title>
<path fill="none" stroke="black" d="M404.628,-34.8873C428.036,-39.0148 454.876,-43.7474 479.017,-48.0042"/>
<polygon fill="black" stroke="black" points="486.081,-49.2498 478.641,-51.1363 482.634,-48.642 479.188,-48.0342 479.188,-48.0342 479.188,-48.0342 482.634,-48.642 479.735,-44.932 486.081,-49.2498 486.081,-49.2498"/>
</g>
<!-- 7&#45;&gt;1 -->
<g id="edge17" class="edge"><title>7&#45;&gt;1</title>
<path fill="none" stroke="black" d="M683.471,-244.941C683.471,-282.953 683.471,-356.29 683.471,-398.218"/>
<polygon fill="black" stroke="black" points="683.471,-405.416 680.321,-398.416 683.471,-401.916 683.471,-398.416 683.471,-398.416 683.471,-398.416 683.471,-401.916 686.621,-398.416 683.471,-405.416 683.471,-405.416"/>
</g>
<!-- 7&#45;&gt;8 -->
<g id="edge16" class="edge"><title>7&#45;&gt;8</title>
<path fill="none" stroke="#e31a1c" stroke-width="2" d="M663.926,-197.251C639.935,-168.66 599.249,-120.173 573.292,-89.2381"/>
<polygon fill="#e31a1c" stroke="#e31a1c" stroke-width="2" points="568.624,-83.675 575.537,-87.0125 571.257,-86.0347 573.507,-88.7159 573.124,-89.0373 572.741,-89.3587 570.491,-86.6775 570.711,-91.0621 568.624,-83.675 568.624,-83.675"/>
</g>
<!-- 8&#45;&gt;3 -->
<g id="edge19" class="edge"><title>8&#45;&gt;3</title>
<path fill="none" stroke="black" d="M486.01,-71.4704C416.428,-83.7395 304.722,-103.436 232.353,-116.197"/>
<polygon fill="black" stroke="black" points="225.039,-117.487 231.386,-113.169 228.486,-116.879 231.933,-116.271 231.933,-116.271 231.933,-116.271 228.486,-116.879 232.48,-119.373 225.039,-117.487 225.039,-117.487"/>
</g>
<!-- 8&#45;&gt;5 -->
<g id="edge18" class="edge"><title>8&#45;&gt;5</title>
<path fill="none" stroke="#e31a1c" stroke-width="2" d="M529.597,-83.5434C464.938,-160.6 257.336,-408.011 186.202,-492.786"/>
<polygon fill="#e31a1c" stroke="#e31a1c" stroke-width="2" points="181.518,-498.368 183.605,-490.981 183.385,-495.365 185.635,-492.684 186.018,-493.005 186.401,-493.327 184.151,-496.008 188.431,-495.03 181.518,-498.368 181.518,-498.368"/>
</g>
</g>
</svg>
