<?xml version="1.0" encoding="UTF-8" standalone="no"?>
<?xml-stylesheet href="spot.css" type="text/css"?>
<!DOCTYPE svg PUBLIC "-//W3C//DTD SVG 1.1//EN"
 "http://www.w3.org/Graphics/SVG/1.1/DTD/svg11.dtd">
<!-- Generated by graphviz version 2.38.0 (20140413.2041)
 -->
<!-- Title: G Pages: 1 -->
<svg width="556pt" height="211pt"
 viewBox="0.00 0.00 556.00 211.00" xmlns="http://www.w3.org/2000/svg" xmlns:xlink="http://www.w3.org/1999/xlink">
<g id="graph0" class="graph" transform="scale(1 1) rotate(0) translate(4 207)">
<title>G</title>
<polygon fill="white" stroke="none" points="-4,4 -4,-207 552,-207 552,4 -4,4"/>
<!-- I -->
<!-- 0 -->
<g id="node2" class="node"><title>0</title>
<ellipse fill="#ffffa0" stroke="black" cx="60" cy="-103" rx="18" ry="18"/>
<ellipse fill="none" stroke="black" cx="60" cy="-103" rx="22" ry="22"/>
<text text-anchor="middle" x="60" y="-99.9" font-family="Lato" font-size="12.00">0</text>
</g>
<!-- I&#45;&gt;0 -->
<g id="edge1" class="edge"><title>I&#45;&gt;0</title>
<path fill="none" stroke="black" d="M1.16638,-103C2.84121,-103 16.884,-103 30.7112,-103"/>
<polygon fill="black" stroke="black" points="37.8555,-103 30.8556,-106.15 34.3555,-103 30.8555,-103 30.8555,-103 30.8555,-103 34.3555,-103 30.8555,-99.8501 37.8555,-103 37.8555,-103"/>
</g>
<!-- 1 -->
<g id="node3" class="node"><title>1</title>
<ellipse fill="#ffffa0" stroke="black" cx="170" cy="-18" rx="18" ry="18"/>
<text text-anchor="middle" x="170" y="-14.9" font-family="Lato" font-size="12.00">1</text>
</g>
<!-- 0&#45;&gt;1 -->
<g id="edge2" class="edge"><title>0&#45;&gt;1</title>
<path fill="none" stroke="black" d="M77.875,-89.7188C97.3136,-74.4199 129.192,-49.3304 149.627,-33.2469"/>
<polygon fill="black" stroke="black" points="155.322,-28.7653 151.769,-35.5699 152.571,-30.93 149.821,-33.0946 149.821,-33.0946 149.821,-33.0946 152.571,-30.93 147.873,-30.6193 155.322,-28.7653 155.322,-28.7653"/>
<text text-anchor="middle" x="117" y="-73.4" font-family="Lato" font-size="12.00">1</text>
</g>
<!-- 2 -->
<g id="node4" class="node"><title>2</title>
<ellipse fill="#ffffa0" stroke="black" cx="324" cy="-67" rx="18" ry="18"/>
<text text-anchor="middle" x="324" y="-63.9" font-family="Lato" font-size="12.00">2</text>
</g>
<!-- 0&#45;&gt;2 -->
<g id="edge3" class="edge"><title>0&#45;&gt;2</title>
<path fill="none" stroke="black" d="M82.064,-103.506C122.645,-103.968 214.178,-102.506 288,-83 292.409,-81.8351 296.954,-80.1541 301.25,-78.315"/>
<polygon fill="black" stroke="black" points="307.741,-75.3463 302.685,-81.1226 304.558,-76.8022 301.375,-78.258 301.375,-78.258 301.375,-78.258 304.558,-76.8022 300.065,-75.3935 307.741,-75.3463 307.741,-75.3463"/>
<text text-anchor="middle" x="170" y="-104.4" font-family="Lato" font-size="12.00">1</text>
</g>
<!-- 3 -->
<g id="node5" class="node"><title>3</title>
<ellipse fill="#ffffa0" stroke="black" cx="427" cy="-101" rx="18" ry="18"/>
<text text-anchor="middle" x="427" y="-97.9" font-family="Lato" font-size="12.00">3</text>
</g>
<!-- 0&#45;&gt;3 -->
<g id="edge4" class="edge"><title>0&#45;&gt;3</title>
<path fill="none" stroke="black" d="M80.5104,-111.322C86.6387,-113.576 93.5029,-115.739 100,-117 205.642,-137.507 235.426,-139.926 342,-125 363.16,-122.036 386.469,-115.067 403.153,-109.398"/>
<polygon fill="black" stroke="black" points="409.873,-107.063 404.295,-112.336 406.567,-108.212 403.261,-109.36 403.261,-109.36 403.261,-109.36 406.567,-108.212 402.227,-106.385 409.873,-107.063 409.873,-107.063"/>
<text text-anchor="middle" x="247" y="-137.4" font-family="Lato" font-size="12.00">1</text>
</g>
<!-- 4 -->
<g id="node6" class="node"><title>4</title>
<ellipse fill="#ffffa0" stroke="black" cx="530" cy="-101" rx="18" ry="18"/>
<text text-anchor="middle" x="530" y="-97.9" font-family="Lato" font-size="12.00">4</text>
</g>
<!-- 0&#45;&gt;4 -->
<g id="edge5" class="edge"><title>0&#45;&gt;4</title>
<path fill="none" stroke="black" d="M72.4451,-121.45C89.8742,-146.989 125.662,-190 169,-190 169,-190 169,-190 428,-190 468.677,-190 500.728,-148.862 517.081,-122.523"/>
<polygon fill="black" stroke="black" points="520.707,-116.503 519.794,-124.124 518.901,-119.501 517.096,-122.499 517.096,-122.499 517.096,-122.499 518.901,-119.501 514.397,-120.873 520.707,-116.503 520.707,-116.503"/>
<text text-anchor="middle" x="324" y="-193.4" font-family="Lato" font-size="12.00">1</text>
</g>
<!-- 1&#45;&gt;0 -->
<g id="edge6" class="edge"><title>1&#45;&gt;0</title>
<path fill="none" stroke="black" d="M151.799,-16.97C136.776,-16.9408 115.074,-19.0978 100,-30 84.9561,-40.8805 75.1631,-59.3745 69.1529,-75.0246"/>
<polygon fill="black" stroke="black" points="66.6523,-81.9775 66.0572,-74.3245 67.8368,-78.6841 69.0213,-75.3906 69.0213,-75.3906 69.0213,-75.3906 67.8368,-78.6841 71.9855,-76.4566 66.6523,-81.9775 66.6523,-81.9775"/>
<text text-anchor="start" x="100" y="-33.4" font-family="Lato" font-size="12.00">!a &amp; !b</text>
</g>
<!-- 1&#45;&gt;1 -->
<g id="edge7" class="edge"><title>1&#45;&gt;1</title>
<path fill="none" stroke="black" d="M161.021,-33.916C158.679,-44.1504 161.672,-54 170,-54 176.376,-54 179.625,-48.2263 179.746,-40.9268"/>
<polygon fill="black" stroke="black" points="178.979,-33.916 182.872,-40.5315 179.36,-37.3952 179.741,-40.8744 179.741,-40.8744 179.741,-40.8744 179.36,-37.3952 176.61,-41.2174 178.979,-33.916 178.979,-33.916"/>
<text text-anchor="start" x="156" y="-57.4" font-family="Lato" font-size="12.00">a &amp; b</text>
</g>
<!-- 1&#45;&gt;2 -->
<g id="edge8" class="edge"><title>1&#45;&gt;2</title>
<path fill="none" stroke="black" d="M182.361,-31.1311C188.666,-37.5554 197.035,-44.7931 206,-49 235.843,-63.0044 274.223,-66.5259 298.725,-67.203"/>
<polygon fill="black" stroke="black" points="305.859,-67.3303 298.804,-70.3548 302.359,-67.2678 298.86,-67.2053 298.86,-67.2053 298.86,-67.2053 302.359,-67.2678 298.916,-64.0558 305.859,-67.3303 305.859,-67.3303"/>
<text text-anchor="start" x="206" y="-69.4" font-family="Lato" font-size="12.00">(!a &amp; b) | (a &amp; !b)</text>
</g>
<!-- 2&#45;&gt;1 -->
<g id="edge9" class="edge"><title>2&#45;&gt;1</title>
<path fill="none" stroke="black" d="M312.624,-52.7503C306.37,-45.2841 297.739,-36.7315 288,-32 258.484,-17.6603 220.021,-15.7942 195.412,-16.4"/>
<polygon fill="black" stroke="black" points="188.244,-16.6563 195.127,-13.2581 191.742,-16.5312 195.24,-16.4061 195.24,-16.4061 195.24,-16.4061 191.742,-16.5312 195.352,-19.5541 188.244,-16.6563 188.244,-16.6563"/>
<text text-anchor="start" x="231.5" y="-35.4" font-family="Lato" font-size="12.00">!a &amp; b</text>
</g>
<!-- 2&#45;&gt;2 -->
<g id="edge10" class="edge"><title>2&#45;&gt;2</title>
<path fill="none" stroke="black" d="M315.367,-82.916C313.114,-93.1504 315.992,-103 324,-103 330.131,-103 333.255,-97.2263 333.372,-89.9268"/>
<polygon fill="black" stroke="black" points="332.633,-82.916 336.499,-89.5477 333,-86.3968 333.367,-89.8775 333.367,-89.8775 333.367,-89.8775 333,-86.3968 330.234,-90.2074 332.633,-82.916 332.633,-82.916"/>
<text text-anchor="start" x="283" y="-106.4" font-family="Lato" font-size="12.00">(!a &amp; !b) | (a &amp; b)</text>
</g>
<!-- 2&#45;&gt;3 -->
<g id="edge11" class="edge"><title>2&#45;&gt;3</title>
<path fill="none" stroke="black" d="M341.227,-72.4627C357.866,-78.0639 383.904,-86.8291 402.734,-93.1679"/>
<polygon fill="black" stroke="black" points="409.813,-95.5509 402.174,-96.3029 406.496,-94.4342 403.179,-93.3175 403.179,-93.3175 403.179,-93.3175 406.496,-94.4342 404.184,-90.3321 409.813,-95.5509 409.813,-95.5509"/>
<text text-anchor="start" x="360" y="-92.4" font-family="Lato" font-size="12.00">a &amp; !b</text>
</g>
<!-- 3&#45;&gt;3 -->
<g id="edge12" class="edge"><title>3&#45;&gt;3</title>
<path fill="none" stroke="black" d="M418.367,-116.916C416.114,-127.15 418.992,-137 427,-137 433.131,-137 436.255,-131.226 436.372,-123.927"/>
<polygon fill="black" stroke="black" points="435.633,-116.916 439.499,-123.548 436,-120.397 436.367,-123.878 436.367,-123.878 436.367,-123.878 436,-120.397 433.234,-124.207 435.633,-116.916 435.633,-116.916"/>
<text text-anchor="start" x="414.5" y="-140.4" font-family="Lato" font-size="12.00">!a | b</text>
</g>
<!-- 3&#45;&gt;4 -->
<g id="edge13" class="edge"><title>3&#45;&gt;4</title>
<path fill="none" stroke="black" d="M445.133,-101C461.384,-101 485.98,-101 504.339,-101"/>
<polygon fill="black" stroke="black" points="511.783,-101 504.783,-104.15 508.283,-101 504.783,-101 504.783,-101 504.783,-101 508.283,-101 504.783,-97.8501 511.783,-101 511.783,-101"/>
<text text-anchor="start" x="463" y="-104.4" font-family="Lato" font-size="12.00">a &amp; !b</text>
</g>
<!-- 4&#45;&gt;1 -->
<g id="edge14" class="edge"><title>4&#45;&gt;1</title>
<path fill="none" stroke="black" d="M513.425,-93.4008C475.808,-75.5209 376.554,-31.1587 288,-16 256.38,-10.5872 219.252,-12.613 195.441,-14.9601"/>
<polygon fill="black" stroke="black" points="188.203,-15.7244 194.833,-11.8567 191.683,-15.3569 195.164,-14.9893 195.164,-14.9893 195.164,-14.9893 191.683,-15.3569 195.495,-18.1219 188.203,-15.7244 188.203,-15.7244"/>
<text text-anchor="start" x="360" y="-45.4" font-family="Lato" font-size="12.00">a &amp; !b</text>
</g>
<!-- 4&#45;&gt;4 -->
<g id="edge15" class="edge"><title>4&#45;&gt;4</title>
<path fill="none" stroke="black" d="M521.367,-116.916C519.114,-127.15 521.992,-137 530,-137 536.131,-137 539.255,-131.226 539.372,-123.927"/>
<polygon fill="black" stroke="black" points="538.633,-116.916 542.499,-123.548 539,-120.397 539.367,-123.878 539.367,-123.878 539.367,-123.878 539,-120.397 536.234,-124.207 538.633,-116.916 538.633,-116.916"/>
<text text-anchor="start" x="517.5" y="-140.4" font-family="Lato" font-size="12.00">!a | b</text>
</g>
</g>
</svg>
