<?xml version="1.0" encoding="UTF-8" standalone="no"?>
<?xml-stylesheet href="spot.css" type="text/css"?>
<!DOCTYPE svg PUBLIC "-//W3C//DTD SVG 1.1//EN"
 "http://www.w3.org/Graphics/SVG/1.1/DTD/svg11.dtd">
<!-- Generated by graphviz version 2.38.0 (20140413.2041)
 -->
<!-- Title: G Pages: 1 -->
<svg width="185pt" height="176pt"
 viewBox="0.00 0.00 185.00 176.33" xmlns="http://www.w3.org/2000/svg" xmlns:xlink="http://www.w3.org/1999/xlink">
<g id="graph0" class="graph" transform="scale(1 1) rotate(0) translate(4 172.334)">
<title>G</title>
<polygon fill="white" stroke="none" points="-4,4 -4,-172.334 181,-172.334 181,4 -4,4"/>
<text text-anchor="start" x="47.5" y="-155.734" font-family="Lato" font-size="12.00">Inf(</text>
<text text-anchor="start" x="65.5" y="-155.734" font-family="Lato" font-size="12.00" fill="#ff4da0">❶</text>
<text text-anchor="start" x="79.5" y="-155.734" font-family="Lato" font-size="12.00">) | Fin(</text>
<text text-anchor="start" x="111.5" y="-155.734" font-family="Lato" font-size="12.00" fill="#1f78b4">⓿</text>
<text text-anchor="start" x="125.5" y="-155.734" font-family="Lato" font-size="12.00">)</text>
<text text-anchor="start" x="61.5" y="-143.734" font-family="Lato" font-size="12.00">[Streett 1]</text>
<!-- I -->
<!-- 0 -->
<g id="node2" class="node"><title>0</title>
<ellipse fill="#ffffa0" stroke="black" cx="56" cy="-30.3341" rx="18" ry="18"/>
<text text-anchor="middle" x="56" y="-27.2341" font-family="Lato" font-size="12.00">0</text>
</g>
<!-- I&#45;&gt;0 -->
<g id="edge1" class="edge"><title>I&#45;&gt;0</title>
<path fill="none" stroke="black" d="M1.15491,-30.3341C2.79388,-30.3341 17.1543,-30.3341 30.6317,-30.3341"/>
<polygon fill="black" stroke="black" points="37.9419,-30.3341 30.9419,-33.4842 34.4419,-30.3342 30.9419,-30.3342 30.9419,-30.3342 30.9419,-30.3342 34.4419,-30.3342 30.9418,-27.1842 37.9419,-30.3341 37.9419,-30.3341"/>
</g>
<!-- 0&#45;&gt;0 -->
<g id="edge2" class="edge"><title>0&#45;&gt;0</title>
<path fill="none" stroke="black" d="M52.7643,-48.1159C52.2144,-57.6491 53.293,-66.3341 56,-66.3341 57.988,-66.3341 59.0977,-61.6502 59.3292,-55.3862"/>
<polygon fill="black" stroke="black" points="59.2357,-48.1159 62.4756,-55.0748 59.2808,-51.6156 59.3258,-55.1153 59.3258,-55.1153 59.3258,-55.1153 59.2808,-51.6156 56.1761,-55.1558 59.2357,-48.1159 59.2357,-48.1159"/>
<text text-anchor="start" x="42" y="-82.7341" font-family="Lato" font-size="12.00">a &amp; b</text>
<text text-anchor="start" x="49" y="-69.7341" font-family="Lato" font-size="12.00" fill="#ff4da0">❶</text>
</g>
<!-- 0&#45;&gt;0 -->
<g id="edge3" class="edge"><title>0&#45;&gt;0</title>
<path fill="none" stroke="black" d="M50.9375,-47.6154C47.5625,-67.5841 49.25,-92.3341 56,-92.3341 61.959,-92.3341 63.9725,-73.045 62.0405,-54.7851"/>
<polygon fill="black" stroke="black" points="61.0625,-47.6154 65.1297,-54.1254 61.5356,-51.0833 62.0086,-54.5512 62.0086,-54.5512 62.0086,-54.5512 61.5356,-51.0833 58.8875,-54.9769 61.0625,-47.6154 61.0625,-47.6154"/>
<text text-anchor="start" x="51" y="-108.734" font-family="Lato" font-size="12.00">!b</text>
<text text-anchor="start" x="49" y="-95.7341" font-family="Lato" font-size="12.00" fill="#1f78b4">⓿</text>
</g>
<!-- 1 -->
<g id="node3" class="node"><title>1</title>
<ellipse fill="#ffffa0" stroke="black" cx="159" cy="-30.3341" rx="18" ry="18"/>
<text text-anchor="middle" x="159" y="-27.2341" font-family="Lato" font-size="12.00">1</text>
</g>
<!-- 0&#45;&gt;1 -->
<g id="edge4" class="edge"><title>0&#45;&gt;1</title>
<path fill="none" stroke="black" d="M74.071,-32.0917C79.7664,-32.5995 86.1506,-33.0839 92,-33.3341 105.765,-33.923 109.235,-33.923 123,-33.3341 126.473,-33.1856 130.135,-32.9544 133.729,-32.6849"/>
<polygon fill="black" stroke="black" points="140.929,-32.0917 134.211,-35.8059 137.441,-32.3791 133.953,-32.6665 133.953,-32.6665 133.953,-32.6665 137.441,-32.3791 133.694,-29.5271 140.929,-32.0917 140.929,-32.0917"/>
<text text-anchor="start" x="92" y="-49.7341" font-family="Lato" font-size="12.00">!a &amp; b</text>
<text text-anchor="start" x="100.5" y="-36.7341" font-family="Lato" font-size="12.00" fill="#1f78b4">⓿</text>
</g>
<!-- 1&#45;&gt;0 -->
<g id="edge5" class="edge"><title>1&#45;&gt;0</title>
<path fill="none" stroke="black" d="M145.926,-17.8025C139.677,-12.2208 131.571,-6.25605 123,-3.33414 109.959,1.11138 105.041,1.11138 92,-3.33414 85.8393,-5.43426 79.9192,-9.10634 74.7563,-13.0783"/>
<polygon fill="black" stroke="black" points="69.0744,-17.8025 72.443,-10.905 71.7657,-15.5649 74.4569,-13.3272 74.4569,-13.3272 74.4569,-13.3272 71.7657,-15.5649 76.4708,-15.7493 69.0744,-17.8025 69.0744,-17.8025"/>
<text text-anchor="start" x="104" y="-19.7341" font-family="Lato" font-size="12.00">a</text>
<text text-anchor="start" x="100.5" y="-6.73414" font-family="Lato" font-size="12.00" fill="#ff4da0">❶</text>
</g>
<!-- 1&#45;&gt;1 -->
<g id="edge6" class="edge"><title>1&#45;&gt;1</title>
<path fill="none" stroke="black" d="M150.367,-46.2502C148.114,-56.4845 150.992,-66.3341 159,-66.3341 165.131,-66.3341 168.255,-60.5605 168.372,-53.2609"/>
<polygon fill="black" stroke="black" points="167.633,-46.2502 171.499,-52.8818 168,-49.7309 168.367,-53.2117 168.367,-53.2117 168.367,-53.2117 168,-49.7309 165.234,-53.5416 167.633,-46.2502 167.633,-46.2502"/>
<text text-anchor="start" x="154" y="-82.7341" font-family="Lato" font-size="12.00">!a</text>
<text text-anchor="start" x="152" y="-69.7341" font-family="Lato" font-size="12.00" fill="#1f78b4">⓿</text>
</g>
</g>
</svg>
