<?xml version="1.0" encoding="UTF-8" standalone="no"?>
<?xml-stylesheet href="spot.css" type="text/css"?>
<!DOCTYPE svg PUBLIC "-//W3C//DTD SVG 1.1//EN"
 "http://www.w3.org/Graphics/SVG/1.1/DTD/svg11.dtd">
<!-- Generated by graphviz version 2.38.0 (20140413.2041)
 -->
<!-- Title: G Pages: 1 -->
<svg width="706pt" height="301pt"
 viewBox="0.00 0.00 706.00 301.00" xmlns="http://www.w3.org/2000/svg" xmlns:xlink="http://www.w3.org/1999/xlink">
<g id="graph0" class="graph" transform="scale(1 1) rotate(0) translate(4 297)">
<title>G</title>
<polygon fill="white" stroke="none" points="-4,4 -4,-297 702,-297 702,4 -4,4"/>
<text text-anchor="start" x="198.5" y="-280.4" font-family="Lato" font-size="12.00">Fin(</text>
<text text-anchor="start" x="218.5" y="-280.4" font-family="Lato" font-size="12.00" fill="#1f78b4">⓿</text>
<text text-anchor="start" x="232.5" y="-280.4" font-family="Lato" font-size="12.00">) &amp; (Inf(</text>
<text text-anchor="start" x="270.5" y="-280.4" font-family="Lato" font-size="12.00" fill="#ff4da0">❶</text>
<text text-anchor="start" x="284.5" y="-280.4" font-family="Lato" font-size="12.00">) | (Fin(</text>
<text text-anchor="start" x="319.5" y="-280.4" font-family="Lato" font-size="12.00" fill="#ff7f00">❷</text>
<text text-anchor="start" x="333.5" y="-280.4" font-family="Lato" font-size="12.00">) &amp; (Inf(</text>
<text text-anchor="start" x="371.5" y="-280.4" font-family="Lato" font-size="12.00" fill="#6a3d9a">❸</text>
<text text-anchor="start" x="385.5" y="-280.4" font-family="Lato" font-size="12.00">) | (Fin(</text>
<text text-anchor="start" x="420.5" y="-280.4" font-family="Lato" font-size="12.00" fill="#33a02c">❹</text>
<text text-anchor="start" x="434.5" y="-280.4" font-family="Lato" font-size="12.00">) &amp; Inf(</text>
<text text-anchor="start" x="469.5" y="-280.4" font-family="Lato" font-size="12.00" fill="#e31a1c">❺</text>
<text text-anchor="start" x="483.5" y="-280.4" font-family="Lato" font-size="12.00">)))))</text>
<text text-anchor="start" x="302" y="-268.4" font-family="Lato" font-size="12.00">[parity min odd 6]</text>
<!-- I -->
<!-- 0 -->
<g id="node2" class="node"><title>0</title>
<ellipse fill="#ffffa0" stroke="black" cx="56" cy="-199" rx="18" ry="18"/>
<text text-anchor="middle" x="56" y="-195.9" font-family="Lato" font-size="12.00">0</text>
</g>
<!-- I&#45;&gt;0 -->
<g id="edge1" class="edge"><title>I&#45;&gt;0</title>
<path fill="none" stroke="black" d="M1.15491,-199C2.79388,-199 17.1543,-199 30.6317,-199"/>
<polygon fill="black" stroke="black" points="37.9419,-199 30.9419,-202.15 34.4419,-199 30.9419,-199 30.9419,-199 30.9419,-199 34.4419,-199 30.9418,-195.85 37.9419,-199 37.9419,-199"/>
</g>
<!-- 0&#45;&gt;0 -->
<g id="edge2" class="edge"><title>0&#45;&gt;0</title>
<path fill="none" stroke="black" d="M49.6208,-216.037C48.3189,-225.858 50.4453,-235 56,-235 60.166,-235 62.4036,-229.858 62.7128,-223.143"/>
<polygon fill="black" stroke="black" points="62.3792,-216.037 65.8541,-222.882 62.5434,-219.533 62.7076,-223.03 62.7076,-223.03 62.7076,-223.03 62.5434,-219.533 59.561,-223.177 62.3792,-216.037 62.3792,-216.037"/>
<text text-anchor="start" x="39" y="-238.4" font-family="Lato" font-size="12.00">!a &amp; !b</text>
</g>
<!-- 1 -->
<g id="node3" class="node"><title>1</title>
<ellipse fill="#ffffa0" stroke="black" cx="162" cy="-150" rx="18" ry="18"/>
<text text-anchor="middle" x="162" y="-146.9" font-family="Lato" font-size="12.00">1</text>
</g>
<!-- 0&#45;&gt;1 -->
<g id="edge3" class="edge"><title>0&#45;&gt;1</title>
<path fill="none" stroke="black" d="M73.8149,-195.382C88.2002,-191.886 109.185,-185.815 126,-177 131.667,-174.029 137.355,-170.129 142.449,-166.221"/>
<polygon fill="black" stroke="black" points="148.12,-161.684 144.622,-168.517 145.387,-163.871 142.654,-166.057 142.654,-166.057 142.654,-166.057 145.387,-163.871 140.686,-163.598 148.12,-161.684 148.12,-161.684"/>
<text text-anchor="start" x="93.5" y="-206.4" font-family="Lato" font-size="12.00">!a &amp; b</text>
<text text-anchor="start" x="102" y="-193.4" font-family="Lato" font-size="12.00" fill="#6a3d9a">❸</text>
</g>
<!-- 2 -->
<g id="node4" class="node"><title>2</title>
<ellipse fill="#ffffa0" stroke="black" cx="365" cy="-199" rx="18" ry="18"/>
<text text-anchor="middle" x="365" y="-195.9" font-family="Lato" font-size="12.00">2</text>
</g>
<!-- 0&#45;&gt;2 -->
<g id="edge4" class="edge"><title>0&#45;&gt;2</title>
<path fill="none" stroke="black" d="M70.8569,-209.6C76.9927,-213.667 84.5083,-217.847 92,-220 114.216,-226.384 120.886,-220.778 144,-221 159.999,-221.154 164.028,-221.951 180,-221 237.566,-217.571 304.728,-208.158 339.824,-202.822"/>
<polygon fill="black" stroke="black" points="346.811,-201.749 340.371,-205.925 343.352,-202.28 339.893,-202.811 339.893,-202.811 339.893,-202.811 343.352,-202.28 339.414,-199.698 346.811,-201.749 346.811,-201.749"/>
<text text-anchor="start" x="208.5" y="-222.4" font-family="Lato" font-size="12.00">a</text>
</g>
<!-- 1&#45;&gt;0 -->
<g id="edge5" class="edge"><title>1&#45;&gt;0</title>
<path fill="none" stroke="black" d="M144.63,-144.818C129.958,-141.171 108.3,-138.323 92,-147 80.4654,-153.14 72.0511,-164.961 66.3676,-175.782"/>
<polygon fill="black" stroke="black" points="63.1783,-182.331 63.4112,-174.659 64.7108,-179.185 66.2432,-176.038 66.2432,-176.038 66.2432,-176.038 64.7108,-179.185 69.0752,-177.417 63.1783,-182.331 63.1783,-182.331"/>
<text text-anchor="start" x="92" y="-163.4" font-family="Lato" font-size="12.00">!a &amp; !b</text>
<text text-anchor="start" x="102" y="-150.4" font-family="Lato" font-size="12.00" fill="#ff7f00">❷</text>
</g>
<!-- 1&#45;&gt;1 -->
<g id="edge6" class="edge"><title>1&#45;&gt;1</title>
<path fill="none" stroke="black" d="M153.367,-165.916C151.114,-176.15 153.992,-186 162,-186 168.131,-186 171.255,-180.226 171.372,-172.927"/>
<polygon fill="black" stroke="black" points="170.633,-165.916 174.499,-172.548 171,-169.397 171.367,-172.878 171.367,-172.878 171.367,-172.878 171,-169.397 168.234,-173.207 170.633,-165.916 170.633,-165.916"/>
<text text-anchor="start" x="146.5" y="-202.4" font-family="Lato" font-size="12.00">!a &amp; b</text>
<text text-anchor="start" x="155" y="-189.4" font-family="Lato" font-size="12.00" fill="#6a3d9a">❸</text>
</g>
<!-- 1&#45;&gt;2 -->
<g id="edge7" class="edge"><title>1&#45;&gt;2</title>
<path fill="none" stroke="black" d="M179.389,-154.678C195.713,-159.284 221.513,-166.419 244,-172 277.245,-180.251 315.942,-188.762 340.206,-193.969"/>
<polygon fill="black" stroke="black" points="347.25,-195.474 339.747,-197.092 343.828,-194.743 340.405,-194.011 340.405,-194.011 340.405,-194.011 343.828,-194.743 341.063,-190.931 347.25,-195.474 347.25,-195.474"/>
<text text-anchor="start" x="246.5" y="-183.4" font-family="Lato" font-size="12.00">a &amp; !b</text>
</g>
<!-- 3 -->
<g id="node5" class="node"><title>3</title>
<ellipse fill="#ffffa0" stroke="black" cx="262" cy="-101" rx="18" ry="18"/>
<text text-anchor="middle" x="262" y="-97.9" font-family="Lato" font-size="12.00">3</text>
</g>
<!-- 1&#45;&gt;3 -->
<g id="edge8" class="edge"><title>1&#45;&gt;3</title>
<path fill="none" stroke="black" d="M178.312,-142.344C194.614,-134.193 220.556,-121.222 239.034,-111.983"/>
<polygon fill="black" stroke="black" points="245.472,-108.764 240.619,-114.712 242.341,-110.329 239.211,-111.895 239.211,-111.895 239.211,-111.895 242.341,-110.329 237.802,-109.077 245.472,-108.764 245.472,-108.764"/>
<text text-anchor="start" x="198" y="-135.4" font-family="Lato" font-size="12.00">a &amp; b</text>
</g>
<!-- 2&#45;&gt;2 -->
<g id="edge9" class="edge"><title>2&#45;&gt;2</title>
<path fill="none" stroke="black" d="M356.367,-214.916C354.114,-225.15 356.992,-235 365,-235 371.131,-235 374.255,-229.226 374.372,-221.927"/>
<polygon fill="black" stroke="black" points="373.633,-214.916 377.499,-221.548 374,-218.397 374.367,-221.878 374.367,-221.878 374.367,-221.878 374,-218.397 371.234,-222.207 373.633,-214.916 373.633,-214.916"/>
<text text-anchor="start" x="361.5" y="-251.4" font-family="Lato" font-size="12.00">a</text>
<text text-anchor="start" x="358" y="-238.4" font-family="Lato" font-size="12.00" fill="#6a3d9a">❸</text>
</g>
<!-- 4 -->
<g id="node6" class="node"><title>4</title>
<ellipse fill="#ffffa0" stroke="black" cx="471" cy="-116" rx="18" ry="18"/>
<text text-anchor="middle" x="471" y="-112.9" font-family="Lato" font-size="12.00">4</text>
</g>
<!-- 2&#45;&gt;4 -->
<g id="edge10" class="edge"><title>2&#45;&gt;4</title>
<path fill="none" stroke="black" d="M379.596,-188.149C397.815,-173.609 430.244,-147.729 450.906,-131.238"/>
<polygon fill="black" stroke="black" points="456.4,-126.853 452.894,-133.682 453.665,-129.037 450.929,-131.22 450.929,-131.22 450.929,-131.22 453.665,-129.037 448.964,-128.758 456.4,-126.853 456.4,-126.853"/>
<text text-anchor="start" x="401" y="-172.4" font-family="Lato" font-size="12.00">!a &amp; !b</text>
</g>
<!-- 5 -->
<g id="node7" class="node"><title>5</title>
<ellipse fill="#ffffa0" stroke="black" cx="577" cy="-194" rx="18" ry="18"/>
<text text-anchor="middle" x="577" y="-190.9" font-family="Lato" font-size="12.00">5</text>
</g>
<!-- 2&#45;&gt;5 -->
<g id="edge11" class="edge"><title>2&#45;&gt;5</title>
<path fill="none" stroke="black" d="M382.318,-204.803C413.739,-215.085 484.527,-233.895 541,-217 546.486,-215.359 551.908,-212.551 556.788,-209.449"/>
<polygon fill="black" stroke="black" points="562.641,-205.43 558.654,-211.989 559.756,-207.411 556.871,-209.392 556.871,-209.392 556.871,-209.392 559.756,-207.411 555.088,-206.796 562.641,-205.43 562.641,-205.43"/>
<text text-anchor="start" x="455.5" y="-226.4" font-family="Lato" font-size="12.00">!a &amp; b</text>
</g>
<!-- 3&#45;&gt;2 -->
<g id="edge12" class="edge"><title>3&#45;&gt;2</title>
<path fill="none" stroke="black" d="M275.792,-113.412C293.626,-130.716 326.037,-162.165 346.215,-181.743"/>
<polygon fill="black" stroke="black" points="351.312,-186.689 344.095,-184.075 348.8,-184.252 346.288,-181.814 346.288,-181.814 346.288,-181.814 348.8,-184.252 348.482,-179.554 351.312,-186.689 351.312,-186.689"/>
<text text-anchor="start" x="298" y="-167.4" font-family="Lato" font-size="12.00">a &amp; !b</text>
</g>
<!-- 3&#45;&gt;3 -->
<g id="edge13" class="edge"><title>3&#45;&gt;3</title>
<path fill="none" stroke="black" d="M253.367,-116.916C251.114,-127.15 253.992,-137 262,-137 268.131,-137 271.255,-131.226 271.372,-123.927"/>
<polygon fill="black" stroke="black" points="270.633,-116.916 274.499,-123.548 271,-120.397 271.367,-123.878 271.367,-123.878 271.367,-123.878 271,-120.397 268.234,-124.207 270.633,-116.916 270.633,-116.916"/>
<text text-anchor="start" x="248" y="-153.4" font-family="Lato" font-size="12.00">a &amp; b</text>
<text text-anchor="start" x="255" y="-140.4" font-family="Lato" font-size="12.00" fill="#6a3d9a">❸</text>
</g>
<!-- 3&#45;&gt;4 -->
<g id="edge14" class="edge"><title>3&#45;&gt;4</title>
<path fill="none" stroke="black" d="M280.293,-102.253C317.142,-104.923 403.48,-111.18 445.779,-114.245"/>
<polygon fill="black" stroke="black" points="452.902,-114.761 445.693,-117.397 449.411,-114.508 445.92,-114.255 445.92,-114.255 445.92,-114.255 449.411,-114.508 446.148,-111.113 452.902,-114.761 452.902,-114.761"/>
<text text-anchor="start" x="348" y="-113.4" font-family="Lato" font-size="12.00">!a &amp; !b</text>
</g>
<!-- 6 -->
<g id="node8" class="node"><title>6</title>
<ellipse fill="#ffffa0" stroke="black" cx="365" cy="-18" rx="18" ry="18"/>
<text text-anchor="middle" x="365" y="-14.9" font-family="Lato" font-size="12.00">6</text>
</g>
<!-- 3&#45;&gt;6 -->
<g id="edge15" class="edge"><title>3&#45;&gt;6</title>
<path fill="none" stroke="black" d="M276.621,-89.8063C294.264,-75.3078 325.111,-49.9585 345.036,-33.584"/>
<polygon fill="black" stroke="black" points="350.594,-29.0164 347.186,-35.8944 347.89,-31.2386 345.186,-33.4608 345.186,-33.4608 345.186,-33.4608 347.89,-31.2386 343.186,-31.0271 350.594,-29.0164 350.594,-29.0164"/>
<text text-anchor="start" x="298" y="-75.4" font-family="Lato" font-size="12.00">!a &amp; b</text>
</g>
<!-- 4&#45;&gt;4 -->
<g id="edge16" class="edge"><title>4&#45;&gt;4</title>
<path fill="none" stroke="black" d="M462.021,-131.916C459.679,-142.15 462.672,-152 471,-152 477.376,-152 480.625,-146.226 480.746,-138.927"/>
<polygon fill="black" stroke="black" points="479.979,-131.916 483.872,-138.532 480.36,-135.395 480.741,-138.874 480.741,-138.874 480.741,-138.874 480.36,-135.395 477.61,-139.217 479.979,-131.916 479.979,-131.916"/>
<text text-anchor="start" x="454" y="-155.4" font-family="Lato" font-size="12.00">!a &amp; !b</text>
</g>
<!-- 4&#45;&gt;5 -->
<g id="edge17" class="edge"><title>4&#45;&gt;5</title>
<path fill="none" stroke="black" d="M488.656,-120.502C503.52,-125.121 525.301,-133.422 541,-146 550.025,-153.23 557.858,-163.335 563.813,-172.409"/>
<polygon fill="black" stroke="black" points="567.626,-178.479 561.235,-174.228 565.764,-175.515 563.902,-172.552 563.902,-172.552 563.902,-172.552 565.764,-175.515 566.569,-170.876 567.626,-178.479 567.626,-178.479"/>
<text text-anchor="start" x="508.5" y="-162.4" font-family="Lato" font-size="12.00">!a &amp; b</text>
<text text-anchor="start" x="517" y="-149.4" font-family="Lato" font-size="12.00" fill="#33a02c">❹</text>
</g>
<!-- 7 -->
<g id="node9" class="node"><title>7</title>
<ellipse fill="#ffffa0" stroke="black" cx="680" cy="-112" rx="18" ry="18"/>
<text text-anchor="middle" x="680" y="-108.9" font-family="Lato" font-size="12.00">7</text>
</g>
<!-- 4&#45;&gt;7 -->
<g id="edge18" class="edge"><title>4&#45;&gt;7</title>
<path fill="none" stroke="black" d="M485.382,-104.807C501.601,-92.0409 530.334,-71.9138 559,-64 595.731,-53.8594 636.537,-78.2961 659.848,-95.8972"/>
<polygon fill="black" stroke="black" points="665.662,-100.422 658.204,-98.6091 662.9,-98.2728 660.138,-96.1232 660.138,-96.1232 660.138,-96.1232 662.9,-98.2728 662.073,-93.6373 665.662,-100.422 665.662,-100.422"/>
<text text-anchor="start" x="573.5" y="-80.4" font-family="Lato" font-size="12.00">a</text>
<text text-anchor="start" x="570" y="-67.4" font-family="Lato" font-size="12.00" fill="#e31a1c">❺</text>
</g>
<!-- 5&#45;&gt;4 -->
<g id="edge19" class="edge"><title>5&#45;&gt;4</title>
<path fill="none" stroke="black" d="M558.857,-191.913C543.871,-189.354 522.192,-183.801 507,-172 495.95,-163.416 487.481,-150.289 481.643,-138.901"/>
<polygon fill="black" stroke="black" points="478.511,-132.445 484.401,-137.368 480.039,-135.594 481.567,-138.743 481.567,-138.743 481.567,-138.743 480.039,-135.594 478.732,-140.118 478.511,-132.445 478.511,-132.445"/>
<text text-anchor="start" x="507" y="-203.4" font-family="Lato" font-size="12.00">!a &amp; !b</text>
<text text-anchor="start" x="517" y="-190.4" font-family="Lato" font-size="12.00" fill="#33a02c">❹</text>
</g>
<!-- 5&#45;&gt;5 -->
<g id="edge20" class="edge"><title>5&#45;&gt;5</title>
<path fill="none" stroke="black" d="M568.367,-209.916C566.114,-220.15 568.992,-230 577,-230 583.131,-230 586.255,-224.226 586.372,-216.927"/>
<polygon fill="black" stroke="black" points="585.633,-209.916 589.499,-216.548 586,-213.397 586.367,-216.878 586.367,-216.878 586.367,-216.878 586,-213.397 583.234,-217.207 585.633,-209.916 585.633,-209.916"/>
<text text-anchor="start" x="573.5" y="-246.4" font-family="Lato" font-size="12.00">b</text>
<text text-anchor="start" x="570" y="-233.4" font-family="Lato" font-size="12.00" fill="#e31a1c">❺</text>
</g>
<!-- 5&#45;&gt;7 -->
<g id="edge21" class="edge"><title>5&#45;&gt;7</title>
<path fill="none" stroke="black" d="M595.057,-191.737C609.425,-189.087 629.844,-183.5 644,-172 655.767,-162.441 664.418,-147.8 670.175,-135.375"/>
<polygon fill="black" stroke="black" points="673.077,-128.746 673.155,-136.421 671.674,-131.952 670.27,-135.158 670.27,-135.158 670.27,-135.158 671.674,-131.952 667.384,-133.895 673.077,-128.746 673.077,-128.746"/>
<text text-anchor="start" x="613" y="-203.4" font-family="Lato" font-size="12.00">a &amp; !b</text>
<text text-anchor="start" x="621.5" y="-190.4" font-family="Lato" font-size="12.00" fill="#33a02c">❹</text>
</g>
<!-- 6&#45;&gt;4 -->
<g id="edge22" class="edge"><title>6&#45;&gt;4</title>
<path fill="none" stroke="black" d="M378.752,-30.0167C397.075,-47.2827 430.942,-79.1953 451.865,-98.9109"/>
<polygon fill="black" stroke="black" points="457.143,-103.885 449.888,-101.377 454.596,-101.485 452.049,-99.0843 452.049,-99.0843 452.049,-99.0843 454.596,-101.485 454.209,-96.7918 457.143,-103.885 457.143,-103.885"/>
<text text-anchor="start" x="401" y="-85.4" font-family="Lato" font-size="12.00">!a &amp; !b</text>
</g>
<!-- 6&#45;&gt;6 -->
<g id="edge23" class="edge"><title>6&#45;&gt;6</title>
<path fill="none" stroke="black" d="M356.367,-33.916C354.114,-44.1504 356.992,-54 365,-54 371.131,-54 374.255,-48.2263 374.372,-40.9268"/>
<polygon fill="black" stroke="black" points="373.633,-33.916 377.499,-40.5477 374,-37.3968 374.367,-40.8775 374.367,-40.8775 374.367,-40.8775 374,-37.3968 371.234,-41.2074 373.633,-33.916 373.633,-33.916"/>
<text text-anchor="start" x="361.5" y="-70.4" font-family="Lato" font-size="12.00">b</text>
<text text-anchor="start" x="358" y="-57.4" font-family="Lato" font-size="12.00" fill="#6a3d9a">❸</text>
</g>
<!-- 6&#45;&gt;7 -->
<g id="edge24" class="edge"><title>6&#45;&gt;7</title>
<path fill="none" stroke="black" d="M383.131,-16.8192C429.062,-14.4736 557.339,-13.3819 644,-66 653.618,-71.8396 661.525,-81.3882 667.375,-90.2766"/>
<polygon fill="black" stroke="black" points="671.091,-96.2709 664.725,-91.9818 669.247,-93.2963 667.403,-90.3218 667.403,-90.3218 667.403,-90.3218 669.247,-93.2963 670.08,-88.6617 671.091,-96.2709 671.091,-96.2709"/>
<text text-anchor="start" x="508.5" y="-31.4" font-family="Lato" font-size="12.00">a &amp; !b</text>
</g>
<!-- 7&#45;&gt;4 -->
<g id="edge25" class="edge"><title>7&#45;&gt;4</title>
<path fill="none" stroke="black" d="M661.902,-112.33C625.228,-113.039 538.9,-114.707 496.445,-115.528"/>
<polygon fill="black" stroke="black" points="489.293,-115.666 496.23,-112.381 492.792,-115.598 496.291,-115.531 496.291,-115.531 496.291,-115.531 492.792,-115.598 496.352,-118.68 489.293,-115.666 489.293,-115.666"/>
<text text-anchor="start" x="560" y="-131.4" font-family="Lato" font-size="12.00">!a &amp; !b</text>
<text text-anchor="start" x="570" y="-118.4" font-family="Lato" font-size="12.00" fill="#33a02c">❹</text>
</g>
<!-- 7&#45;&gt;5 -->
<g id="edge26" class="edge"><title>7&#45;&gt;5</title>
<path fill="none" stroke="black" d="M662.402,-116.71C648.131,-121.38 627.602,-129.639 613,-142 603.233,-150.268 595.054,-161.913 589.065,-172.087"/>
<polygon fill="black" stroke="black" points="585.624,-178.188 586.319,-170.544 587.343,-175.14 589.062,-172.091 589.062,-172.091 589.062,-172.091 587.343,-175.14 591.806,-173.638 585.624,-178.188 585.624,-178.188"/>
<text text-anchor="start" x="613" y="-158.4" font-family="Lato" font-size="12.00">!a &amp; b</text>
<text text-anchor="start" x="621.5" y="-145.4" font-family="Lato" font-size="12.00" fill="#33a02c">❹</text>
</g>
<!-- 7&#45;&gt;7 -->
<g id="edge27" class="edge"><title>7&#45;&gt;7</title>
<path fill="none" stroke="black" d="M671.367,-127.916C669.114,-138.15 671.992,-148 680,-148 686.131,-148 689.255,-142.226 689.372,-134.927"/>
<polygon fill="black" stroke="black" points="688.633,-127.916 692.499,-134.548 689,-131.397 689.367,-134.878 689.367,-134.878 689.367,-134.878 689,-131.397 686.234,-135.207 688.633,-127.916 688.633,-127.916"/>
<text text-anchor="start" x="676.5" y="-164.4" font-family="Lato" font-size="12.00">a</text>
<text text-anchor="start" x="673" y="-151.4" font-family="Lato" font-size="12.00" fill="#e31a1c">❺</text>
</g>
</g>
</svg>
