<?xml version="1.0" encoding="UTF-8" standalone="no"?>
<?xml-stylesheet href="spot.css" type="text/css"?>
<!DOCTYPE svg PUBLIC "-//W3C//DTD SVG 1.1//EN"
 "http://www.w3.org/Graphics/SVG/1.1/DTD/svg11.dtd">
<!-- Generated by graphviz version 2.38.0 (20140413.2041)
 -->
<!-- Title: G Pages: 1 -->
<svg width="291pt" height="193pt"
 viewBox="0.00 0.00 291.00 193.00" xmlns="http://www.w3.org/2000/svg" xmlns:xlink="http://www.w3.org/1999/xlink">
<g id="graph0" class="graph" transform="scale(1 1) rotate(0) translate(4 188.995)">
<title>G</title>
<polygon fill="white" stroke="none" points="-4,4 -4,-188.995 287,-188.995 287,4 -4,4"/>
<text text-anchor="start" x="98" y="-172.395" font-family="Lato" font-size="12.00">Fin(</text>
<text text-anchor="start" x="118" y="-172.395" font-family="Lato" font-size="12.00" fill="#1f78b4">⓿</text>
<text text-anchor="start" x="132" y="-172.395" font-family="Lato" font-size="12.00">) &amp; Inf(</text>
<text text-anchor="start" x="167" y="-172.395" font-family="Lato" font-size="12.00" fill="#ff4da0">❶</text>
<text text-anchor="start" x="181" y="-172.395" font-family="Lato" font-size="12.00">)</text>
<text text-anchor="start" x="117.5" y="-160.395" font-family="Lato" font-size="12.00">[Rabin 1]</text>
<!-- I -->
<!-- 0 -->
<g id="node2" class="node"><title>0</title>
<ellipse fill="#ffffa0" stroke="black" cx="56" cy="-34.9951" rx="18" ry="18"/>
<text text-anchor="middle" x="56" y="-31.8951" font-family="Lato" font-size="12.00">0</text>
</g>
<!-- I&#45;&gt;0 -->
<g id="edge1" class="edge"><title>I&#45;&gt;0</title>
<path fill="none" stroke="black" d="M1.15491,-34.9951C2.79388,-34.9951 17.1543,-34.9951 30.6317,-34.9951"/>
<polygon fill="black" stroke="black" points="37.9419,-34.9951 30.9419,-38.1452 34.4419,-34.9952 30.9419,-34.9952 30.9419,-34.9952 30.9419,-34.9952 34.4419,-34.9952 30.9418,-31.8452 37.9419,-34.9951 37.9419,-34.9951"/>
</g>
<!-- 0&#45;&gt;0 -->
<g id="edge2" class="edge"><title>0&#45;&gt;0</title>
<path fill="none" stroke="black" d="M49.6208,-52.0324C48.3189,-61.853 50.4453,-70.9951 56,-70.9951 60.166,-70.9951 62.4036,-65.8527 62.7128,-59.1384"/>
<polygon fill="black" stroke="black" points="62.3792,-52.0324 65.8541,-58.8769 62.5434,-55.5286 62.7076,-59.0247 62.7076,-59.0247 62.7076,-59.0247 62.5434,-55.5286 59.561,-59.1725 62.3792,-52.0324 62.3792,-52.0324"/>
<text text-anchor="start" x="39" y="-74.3951" font-family="Lato" font-size="12.00">!a &amp; !b</text>
</g>
<!-- 1 -->
<g id="node3" class="node"><title>1</title>
<ellipse fill="#ffffa0" stroke="black" cx="162" cy="-90.9951" rx="18" ry="18"/>
<text text-anchor="middle" x="162" y="-87.8951" font-family="Lato" font-size="12.00">1</text>
</g>
<!-- 0&#45;&gt;1 -->
<g id="edge3" class="edge"><title>0&#45;&gt;1</title>
<path fill="none" stroke="black" d="M65.336,-50.4701C71.4192,-60.2266 80.5836,-72.2212 92,-78.9951 105.411,-86.9524 122.702,-89.9486 136.62,-90.9573"/>
<polygon fill="black" stroke="black" points="143.959,-91.3322 136.807,-94.1209 140.464,-91.1536 136.968,-90.975 136.968,-90.975 136.968,-90.975 140.464,-91.1536 137.129,-87.8291 143.959,-91.3322 143.959,-91.3322"/>
<text text-anchor="start" x="93.5" y="-105.395" font-family="Lato" font-size="12.00">!a &amp; b</text>
<text text-anchor="start" x="102" y="-92.3951" font-family="Lato" font-size="12.00" fill="#ff4da0">❶</text>
</g>
<!-- 2 -->
<g id="node4" class="node"><title>2</title>
<ellipse fill="#ffffa0" stroke="black" cx="265" cy="-34.9951" rx="18" ry="18"/>
<text text-anchor="middle" x="265" y="-31.8951" font-family="Lato" font-size="12.00">2</text>
</g>
<!-- 0&#45;&gt;2 -->
<g id="edge4" class="edge"><title>0&#45;&gt;2</title>
<path fill="none" stroke="black" d="M74.0815,-33.8233C79.7775,-33.4848 86.1595,-33.1618 92,-32.9951 144.729,-31.4898 206.581,-33.014 239.863,-34.1037"/>
<polygon fill="black" stroke="black" points="246.907,-34.342 239.805,-37.2534 243.409,-34.2236 239.911,-34.1052 239.911,-34.1052 239.911,-34.1052 243.409,-34.2236 240.018,-30.957 246.907,-34.342 246.907,-34.342"/>
<text text-anchor="start" x="158.5" y="-48.3951" font-family="Lato" font-size="12.00">a</text>
<text text-anchor="start" x="155" y="-35.3951" font-family="Lato" font-size="12.00" fill="#ff4da0">❶</text>
</g>
<!-- 1&#45;&gt;0 -->
<g id="edge5" class="edge"><title>1&#45;&gt;0</title>
<path fill="none" stroke="black" d="M152.171,-75.912C145.999,-66.7156 136.921,-55.5138 126,-48.9951 112.539,-40.9606 95.248,-37.4626 81.3427,-35.9723"/>
<polygon fill="black" stroke="black" points="74.0117,-35.3348 81.2583,-32.8031 77.4985,-35.638 80.9854,-35.9413 80.9854,-35.9413 80.9854,-35.9413 77.4985,-35.638 80.7124,-39.0794 74.0117,-35.3348 74.0117,-35.3348"/>
<text text-anchor="start" x="92" y="-65.3951" font-family="Lato" font-size="12.00">!a &amp; !b</text>
<text text-anchor="start" x="102" y="-52.3951" font-family="Lato" font-size="12.00" fill="#1f78b4">⓿</text>
</g>
<!-- 1&#45;&gt;1 -->
<g id="edge6" class="edge"><title>1&#45;&gt;1</title>
<path fill="none" stroke="black" d="M153.367,-106.911C151.114,-117.145 153.992,-126.995 162,-126.995 168.131,-126.995 171.255,-121.221 171.372,-113.922"/>
<polygon fill="black" stroke="black" points="170.633,-106.911 174.499,-113.543 171,-110.392 171.367,-113.873 171.367,-113.873 171.367,-113.873 171,-110.392 168.234,-114.203 170.633,-106.911 170.633,-106.911"/>
<text text-anchor="start" x="158.5" y="-143.395" font-family="Lato" font-size="12.00">b</text>
<text text-anchor="start" x="155" y="-130.395" font-family="Lato" font-size="12.00" fill="#ff4da0">❶</text>
</g>
<!-- 1&#45;&gt;2 -->
<g id="edge7" class="edge"><title>1&#45;&gt;2</title>
<path fill="none" stroke="black" d="M180.148,-91.1291C194.195,-90.51 214.11,-87.907 229,-78.9951 238.077,-73.5623 245.741,-64.8439 251.562,-56.5952"/>
<polygon fill="black" stroke="black" points="255.647,-50.4413 254.4,-58.0155 253.711,-53.3573 251.776,-56.2734 251.776,-56.2734 251.776,-56.2734 253.711,-53.3573 249.151,-54.5313 255.647,-50.4413 255.647,-50.4413"/>
<text text-anchor="start" x="198" y="-105.395" font-family="Lato" font-size="12.00">a &amp; !b</text>
<text text-anchor="start" x="206.5" y="-92.3951" font-family="Lato" font-size="12.00" fill="#1f78b4">⓿</text>
</g>
<!-- 2&#45;&gt;0 -->
<g id="edge8" class="edge"><title>2&#45;&gt;0</title>
<path fill="none" stroke="black" d="M248.732,-26.9755C232.286,-18.8265 205.093,-6.74737 180,-1.9951 143.861,4.84895 102.749,-11.1378 78.3889,-23.1727"/>
<polygon fill="black" stroke="black" points="71.9803,-26.4402 76.7857,-20.4543 75.0984,-24.8504 78.2165,-23.2606 78.2165,-23.2606 78.2165,-23.2606 75.0984,-24.8504 79.6473,-26.0669 71.9803,-26.4402 71.9803,-26.4402"/>
<text text-anchor="start" x="145" y="-18.3951" font-family="Lato" font-size="12.00">!a &amp; !b</text>
<text text-anchor="start" x="155" y="-5.3951" font-family="Lato" font-size="12.00" fill="#1f78b4">⓿</text>
</g>
<!-- 2&#45;&gt;1 -->
<g id="edge9" class="edge"><title>2&#45;&gt;1</title>
<path fill="none" stroke="black" d="M246.882,-35.5652C232.853,-36.7197 212.947,-39.984 198,-48.9951 189.45,-54.15 182.017,-62.1595 176.227,-69.8076"/>
<polygon fill="black" stroke="black" points="172.128,-75.5323 173.642,-68.0069 174.165,-72.6865 176.203,-69.8408 176.203,-69.8408 176.203,-69.8408 174.165,-72.6865 178.764,-71.6746 172.128,-75.5323 172.128,-75.5323"/>
<text text-anchor="start" x="198" y="-65.3951" font-family="Lato" font-size="12.00">!a &amp; b</text>
<text text-anchor="start" x="206.5" y="-52.3951" font-family="Lato" font-size="12.00" fill="#1f78b4">⓿</text>
</g>
<!-- 2&#45;&gt;2 -->
<g id="edge10" class="edge"><title>2&#45;&gt;2</title>
<path fill="none" stroke="black" d="M256.367,-50.9111C254.114,-61.1455 256.992,-70.9951 265,-70.9951 271.131,-70.9951 274.255,-65.2214 274.372,-57.9219"/>
<polygon fill="black" stroke="black" points="273.633,-50.9111 277.499,-57.5428 274,-54.3919 274.367,-57.8727 274.367,-57.8727 274.367,-57.8727 274,-54.3919 271.234,-58.2025 273.633,-50.9111 273.633,-50.9111"/>
<text text-anchor="start" x="261.5" y="-87.3951" font-family="Lato" font-size="12.00">a</text>
<text text-anchor="start" x="258" y="-74.3951" font-family="Lato" font-size="12.00" fill="#ff4da0">❶</text>
</g>
</g>
</svg>
