<?xml version="1.0" encoding="UTF-8" standalone="no"?>
<?xml-stylesheet href="spot.css" type="text/css"?>
<!DOCTYPE svg PUBLIC "-//W3C//DTD SVG 1.1//EN"
 "http://www.w3.org/Graphics/SVG/1.1/DTD/svg11.dtd">
<!-- Generated by graphviz version 2.38.0 (20140413.2041)
 -->
<!-- Title: G Pages: 1 -->
<svg width="321pt" height="174pt"
 viewBox="0.00 0.00 321.25 174.08" xmlns="http://www.w3.org/2000/svg" xmlns:xlink="http://www.w3.org/1999/xlink">
<g id="graph0" class="graph" transform="scale(1 1) rotate(0) translate(4 170.083)">
<title>G</title>
<polygon fill="white" stroke="none" points="-4,4 -4,-170.083 317.25,-170.083 317.25,4 -4,4"/>
<text text-anchor="start" x="88.1249" y="-153.483" font-family="Lato" font-size="12.00">Inf(</text>
<text text-anchor="start" x="106.125" y="-153.483" font-family="Lato" font-size="12.00" fill="#ff7f00">❷</text>
<text text-anchor="start" x="120.125" y="-153.483" font-family="Lato" font-size="12.00">) | (Fin(</text>
<text text-anchor="start" x="155.125" y="-153.483" font-family="Lato" font-size="12.00" fill="#ff4da0">❶</text>
<text text-anchor="start" x="169.125" y="-153.483" font-family="Lato" font-size="12.00">) &amp; Inf(</text>
<text text-anchor="start" x="204.125" y="-153.483" font-family="Lato" font-size="12.00" fill="#1f78b4">⓿</text>
<text text-anchor="start" x="218.125" y="-153.483" font-family="Lato" font-size="12.00">))</text>
<text text-anchor="start" x="106.125" y="-141.483" font-family="Lato" font-size="12.00">[parity max even 3]</text>
<!-- I -->
<!-- 0 -->
<g id="node2" class="node"><title>0</title>
<ellipse fill="#ffffa0" stroke="black" cx="62.0416" cy="-40.0416" rx="24.0833" ry="24.0833"/>
<text text-anchor="start" x="58.5416" y="-43.4416" font-family="Lato" font-size="12.00">0</text>
<text text-anchor="start" x="55.0416" y="-30.4416" font-family="Lato" font-size="12.00" fill="#ff7f00">❷</text>
</g>
<!-- I&#45;&gt;0 -->
<g id="edge1" class="edge"><title>I&#45;&gt;0</title>
<path fill="none" stroke="black" d="M1.04352,-40.0416C1.9346,-40.0416 16.3644,-40.0416 30.8478,-40.0416"/>
<polygon fill="black" stroke="black" points="37.9031,-40.0416 30.9032,-43.1917 34.4031,-40.0417 30.9031,-40.0417 30.9031,-40.0417 30.9031,-40.0417 34.4031,-40.0417 30.9031,-36.8917 37.9031,-40.0416 37.9031,-40.0416"/>
</g>
<!-- 0&#45;&gt;0 -->
<g id="edge2" class="edge"><title>0&#45;&gt;0</title>
<path fill="none" stroke="black" d="M54.2897,-62.9613C53.5514,-73.2151 56.1354,-82.0833 62.0416,-82.0833 66.4713,-82.0833 69.0322,-77.0949 69.7244,-70.2749"/>
<polygon fill="black" stroke="black" points="69.7936,-62.9613 72.8771,-69.9908 69.7604,-66.4611 69.7272,-69.961 69.7272,-69.961 69.7272,-69.961 69.7604,-66.4611 66.5774,-69.9311 69.7936,-62.9613 69.7936,-62.9613"/>
<text text-anchor="start" x="48.0416" y="-85.4833" font-family="Lato" font-size="12.00">a &amp; b</text>
</g>
<!-- 1 -->
<g id="node3" class="node"><title>1</title>
<ellipse fill="#ffffa0" stroke="black" cx="174.125" cy="-79.0416" rx="24.0833" ry="24.0833"/>
<text text-anchor="start" x="170.625" y="-82.4416" font-family="Lato" font-size="12.00">1</text>
<text text-anchor="start" x="167.125" y="-69.4416" font-family="Lato" font-size="12.00" fill="#ff4da0">❶</text>
</g>
<!-- 0&#45;&gt;1 -->
<g id="edge3" class="edge"><title>0&#45;&gt;1</title>
<path fill="none" stroke="black" d="M80.1494,-56.1965C87.0732,-61.8234 95.463,-67.5873 104.083,-71.0416 116.255,-75.9193 130.535,-78.0974 142.939,-78.989"/>
<polygon fill="black" stroke="black" points="149.995,-79.3759 142.833,-82.1378 146.5,-79.1842 143.006,-78.9925 143.006,-78.9925 143.006,-78.9925 146.5,-79.1842 143.178,-75.8473 149.995,-79.3759 149.995,-79.3759"/>
<text text-anchor="start" x="113.083" y="-80.4416" font-family="Lato" font-size="12.00">!b</text>
</g>
<!-- 2 -->
<g id="node4" class="node"><title>2</title>
<ellipse fill="#ffffa0" stroke="black" cx="289.208" cy="-24.0416" rx="24.0833" ry="24.0833"/>
<text text-anchor="start" x="285.708" y="-27.4416" font-family="Lato" font-size="12.00">2</text>
<text text-anchor="start" x="282.208" y="-14.4416" font-family="Lato" font-size="12.00" fill="#ff4da0">❶</text>
</g>
<!-- 0&#45;&gt;2 -->
<g id="edge4" class="edge"><title>0&#45;&gt;2</title>
<path fill="none" stroke="black" d="M86.3089,-38.0739C103.836,-36.6152 128.461,-34.6154 150.083,-33.0416 187.046,-30.3513 229.601,-27.6362 257.597,-25.9025"/>
<polygon fill="black" stroke="black" points="264.739,-25.462 257.946,-29.0371 261.245,-25.6775 257.752,-25.893 257.752,-25.893 257.752,-25.893 261.245,-25.6775 257.558,-22.749 264.739,-25.462 264.739,-25.462"/>
<text text-anchor="start" x="158.625" y="-36.4416" font-family="Lato" font-size="12.00">!a &amp; b</text>
</g>
<!-- 1&#45;&gt;0 -->
<g id="edge5" class="edge"><title>1&#45;&gt;0</title>
<path fill="none" stroke="black" d="M153.808,-65.3773C147.176,-61.2111 139.54,-56.9647 132.083,-54.0416 119.709,-49.191 105.399,-45.9358 93.027,-43.7955"/>
<polygon fill="black" stroke="black" points="85.9956,-42.6605 93.4081,-40.6663 89.4509,-43.2183 92.9061,-43.7761 92.9061,-43.7761 92.9061,-43.7761 89.4509,-43.2183 92.4042,-46.8858 85.9956,-42.6605 85.9956,-42.6605"/>
<text text-anchor="start" x="104.083" y="-57.4416" font-family="Lato" font-size="12.00">a &amp; b</text>
</g>
<!-- 1&#45;&gt;1 -->
<g id="edge6" class="edge"><title>1&#45;&gt;1</title>
<path fill="none" stroke="black" d="M163.881,-101.104C162.617,-111.716 166.031,-121.083 174.125,-121.083 180.322,-121.083 183.776,-115.592 184.487,-108.256"/>
<polygon fill="black" stroke="black" points="184.369,-101.104 187.634,-108.051 184.426,-104.603 184.484,-108.103 184.484,-108.103 184.484,-108.103 184.426,-104.603 181.335,-108.155 184.369,-101.104 184.369,-101.104"/>
<text text-anchor="start" x="169.125" y="-124.483" font-family="Lato" font-size="12.00">!b</text>
</g>
<!-- 1&#45;&gt;2 -->
<g id="edge7" class="edge"><title>1&#45;&gt;2</title>
<path fill="none" stroke="black" d="M196.13,-68.8254C214.379,-59.9499 240.933,-47.035 260.841,-37.3523"/>
<polygon fill="black" stroke="black" points="267.316,-34.2031 262.398,-40.0975 264.168,-35.734 261.021,-37.2648 261.021,-37.2648 261.021,-37.2648 264.168,-35.734 259.643,-34.4321 267.316,-34.2031 267.316,-34.2031"/>
<text text-anchor="start" x="216.167" y="-61.4416" font-family="Lato" font-size="12.00">!a &amp; b</text>
</g>
<!-- 2&#45;&gt;0 -->
<g id="edge8" class="edge"><title>2&#45;&gt;0</title>
<path fill="none" stroke="black" d="M265.604,-18.7416C238.154,-13.0723 190.508,-5.69958 150.083,-12.0416 129.912,-15.2062 108.037,-22.2592 91.2626,-28.4945"/>
<polygon fill="black" stroke="black" points="84.4057,-31.1029 89.8283,-25.6698 87.677,-29.8584 90.9483,-28.614 90.9483,-28.614 90.9483,-28.614 87.677,-29.8584 92.0683,-31.5581 84.4057,-31.1029 84.4057,-31.1029"/>
<text text-anchor="start" x="170.625" y="-15.4416" font-family="Lato" font-size="12.00">a</text>
</g>
<!-- 2&#45;&gt;2 -->
<g id="edge9" class="edge"><title>2&#45;&gt;2</title>
<path fill="none" stroke="black" d="M278.965,-46.1038C277.7,-56.7156 281.114,-66.0833 289.208,-66.0833 295.405,-66.0833 298.859,-60.5921 299.57,-53.2556"/>
<polygon fill="black" stroke="black" points="299.452,-46.1038 302.717,-53.0508 299.51,-49.6033 299.567,-53.1028 299.567,-53.1028 299.567,-53.1028 299.51,-49.6033 296.418,-53.1549 299.452,-46.1038 299.452,-46.1038"/>
<text text-anchor="start" x="284.208" y="-69.4833" font-family="Lato" font-size="12.00">!a</text>
</g>
</g>
</svg>
