<?xml version="1.0" encoding="UTF-8" standalone="no"?>
<?xml-stylesheet href="spot.css" type="text/css"?>
<!DOCTYPE svg PUBLIC "-//W3C//DTD SVG 1.1//EN"
 "http://www.w3.org/Graphics/SVG/1.1/DTD/svg11.dtd">
<!-- Generated by graphviz version 2.38.0 (20140413.2041)
 -->
<!-- Title: G Pages: 1 -->
<svg width="372pt" height="231pt"
 viewBox="0.00 0.00 372.00 231.28" xmlns="http://www.w3.org/2000/svg" xmlns:xlink="http://www.w3.org/1999/xlink">
<g id="graph0" class="graph" transform="scale(1 1) rotate(0) translate(4 227.275)">
<title>G</title>
<polygon fill="white" stroke="none" points="-4,4 -4,-227.275 368,-227.275 368,4 -4,4"/>
<!-- I -->
<!-- 1 -->
<g id="node2" class="node"><title>1</title>
<ellipse fill="#ffffa0" stroke="black" cx="60" cy="-98.2751" rx="18" ry="18"/>
<ellipse fill="none" stroke="black" cx="60" cy="-98.2751" rx="22" ry="22"/>
<text text-anchor="middle" x="60" y="-95.1751" font-family="Lato" font-size="12.00">1</text>
</g>
<!-- I&#45;&gt;1 -->
<g id="edge1" class="edge"><title>I&#45;&gt;1</title>
<path fill="none" stroke="black" d="M1.16638,-98.2751C2.84121,-98.2751 16.884,-98.2751 30.7112,-98.2751"/>
<polygon fill="black" stroke="black" points="37.8555,-98.2751 30.8556,-101.425 34.3555,-98.2751 30.8555,-98.2752 30.8555,-98.2752 30.8555,-98.2752 34.3555,-98.2751 30.8555,-95.1252 37.8555,-98.2751 37.8555,-98.2751"/>
</g>
<!-- 3 -->
<g id="node5" class="node"><title>3</title>
<ellipse fill="#ffffa0" stroke="black" cx="150" cy="-141.275" rx="18" ry="18"/>
<ellipse fill="none" stroke="black" cx="150" cy="-141.275" rx="22" ry="22"/>
<text text-anchor="middle" x="150" y="-138.175" font-family="Lato" font-size="12.00">3</text>
</g>
<!-- 1&#45;&gt;3 -->
<g id="edge4" class="edge"><title>1&#45;&gt;3</title>
<path fill="none" stroke="black" d="M80.0947,-107.605C92.7795,-113.804 109.582,-122.014 123.419,-128.775"/>
<polygon fill="black" stroke="black" points="129.943,-131.963 122.27,-131.72 126.798,-130.426 123.653,-128.89 123.653,-128.89 123.653,-128.89 126.798,-130.426 125.036,-126.06 129.943,-131.963 129.943,-131.963"/>
<text text-anchor="start" x="100" y="-123.675" font-family="Lato" font-size="12.00">!c</text>
</g>
<!-- 4 -->
<g id="node6" class="node"><title>4</title>
<ellipse fill="#ffffa0" stroke="black" cx="150" cy="-58.2751" rx="18" ry="18"/>
<ellipse fill="none" stroke="black" cx="150" cy="-58.2751" rx="22" ry="22"/>
<text text-anchor="middle" x="150" y="-55.1751" font-family="Lato" font-size="12.00">4</text>
</g>
<!-- 1&#45;&gt;4 -->
<g id="edge5" class="edge"><title>1&#45;&gt;4</title>
<path fill="none" stroke="black" d="M80.5301,-89.3978C93.0624,-83.7013 109.478,-76.2396 123.094,-70.0504"/>
<polygon fill="black" stroke="black" points="129.525,-67.1276 124.455,-72.8919 126.338,-68.5759 123.152,-70.0243 123.152,-70.0243 123.152,-70.0243 126.338,-68.5759 121.848,-67.1566 129.525,-67.1276 129.525,-67.1276"/>
<text text-anchor="start" x="101.5" y="-82.6751" font-family="Lato" font-size="12.00">c</text>
</g>
<!-- 0 -->
<g id="node3" class="node"><title>0</title>
<ellipse fill="#ffffa0" stroke="black" cx="260" cy="-48.2751" rx="18" ry="18"/>
<ellipse fill="none" stroke="black" cx="260" cy="-48.2751" rx="22" ry="22"/>
<text text-anchor="middle" x="260" y="-45.1751" font-family="Lato" font-size="12.00">0</text>
</g>
<!-- 0&#45;&gt;0 -->
<g id="edge2" class="edge"><title>0&#45;&gt;0</title>
<path fill="none" stroke="black" d="M251.994,-68.8559C250.886,-79.1198 253.555,-88.2751 260,-88.2751 264.834,-88.2751 267.544,-83.1253 268.129,-76.2202"/>
<polygon fill="black" stroke="black" points="268.006,-68.8559 271.273,-75.8024 268.065,-72.3554 268.123,-75.8549 268.123,-75.8549 268.123,-75.8549 268.065,-72.3554 264.973,-75.9075 268.006,-68.8559 268.006,-68.8559"/>
<text text-anchor="start" x="256.5" y="-91.6751" font-family="Lato" font-size="12.00">c</text>
</g>
<!-- 5 -->
<g id="node4" class="node"><title>5</title>
<ellipse fill="#ffffa0" stroke="black" cx="346" cy="-48.2751" rx="18" ry="18"/>
<text text-anchor="middle" x="346" y="-45.1751" font-family="Lato" font-size="12.00">5</text>
</g>
<!-- 0&#45;&gt;5 -->
<g id="edge3" class="edge"><title>0&#45;&gt;5</title>
<path fill="none" stroke="black" d="M282.197,-48.2751C293.869,-48.2751 308.409,-48.2751 320.558,-48.2751"/>
<polygon fill="black" stroke="black" points="327.767,-48.2751 320.767,-51.4252 324.267,-48.2751 320.767,-48.2752 320.767,-48.2752 320.767,-48.2752 324.267,-48.2751 320.767,-45.1252 327.767,-48.2751 327.767,-48.2751"/>
<text text-anchor="start" x="300" y="-51.6751" font-family="Lato" font-size="12.00">!c</text>
</g>
<!-- 5&#45;&gt;5 -->
<g id="edge12" class="edge"><title>5&#45;&gt;5</title>
<path fill="none" stroke="black" d="M338.969,-64.9392C337.406,-74.9001 339.75,-84.2751 346,-84.2751 350.688,-84.2751 353.178,-79.0017 353.471,-72.1627"/>
<polygon fill="black" stroke="black" points="353.031,-64.9392 356.601,-71.7349 353.244,-68.4327 353.456,-71.9262 353.456,-71.9262 353.456,-71.9262 353.244,-68.4327 350.312,-72.1176 353.031,-64.9392 353.031,-64.9392"/>
<text text-anchor="middle" x="346" y="-87.6751" font-family="Lato" font-size="12.00">1</text>
</g>
<!-- 3&#45;&gt;5 -->
<g id="edge8" class="edge"><title>3&#45;&gt;5</title>
<path fill="none" stroke="black" d="M165.512,-157.665C190.502,-183.869 242.756,-229.686 282,-203.275 325.309,-174.128 338.859,-109.516 343.089,-73.5976"/>
<polygon fill="black" stroke="black" points="343.857,-66.3915 346.247,-73.6861 343.486,-69.8718 343.115,-73.3521 343.115,-73.3521 343.115,-73.3521 343.486,-69.8718 339.982,-73.018 343.857,-66.3915 343.857,-66.3915"/>
<text text-anchor="start" x="255" y="-213.675" font-family="Lato" font-size="12.00">!a</text>
</g>
<!-- 2 -->
<g id="node7" class="node"><title>2</title>
<ellipse fill="#ffffa0" stroke="black" cx="260" cy="-141.275" rx="18" ry="18"/>
<ellipse fill="none" stroke="black" cx="260" cy="-141.275" rx="22" ry="22"/>
<text text-anchor="middle" x="260" y="-138.175" font-family="Lato" font-size="12.00">2</text>
</g>
<!-- 3&#45;&gt;2 -->
<g id="edge7" class="edge"><title>3&#45;&gt;2</title>
<path fill="none" stroke="black" d="M172.08,-141.275C188.88,-141.275 212.554,-141.275 230.953,-141.275"/>
<polygon fill="black" stroke="black" points="237.973,-141.275 230.973,-144.425 234.473,-141.275 230.973,-141.275 230.973,-141.275 230.973,-141.275 234.473,-141.275 230.973,-138.125 237.973,-141.275 237.973,-141.275"/>
<text text-anchor="start" x="201.5" y="-144.675" font-family="Lato" font-size="12.00">a</text>
</g>
<!-- 4&#45;&gt;0 -->
<g id="edge9" class="edge"><title>4&#45;&gt;0</title>
<path fill="none" stroke="black" d="M172.08,-56.3233C188.88,-54.7677 212.554,-52.5757 230.953,-50.872"/>
<polygon fill="black" stroke="black" points="237.973,-50.222 231.294,-54.0041 234.488,-50.5448 231.003,-50.8675 231.003,-50.8675 231.003,-50.8675 234.488,-50.5448 230.713,-47.7309 237.973,-50.222 237.973,-50.222"/>
<text text-anchor="start" x="190" y="-58.6751" font-family="Lato" font-size="12.00">!a &amp; c</text>
</g>
<!-- 4&#45;&gt;5 -->
<g id="edge11" class="edge"><title>4&#45;&gt;5</title>
<path fill="none" stroke="black" d="M167.299,-44.23C183.84,-30.9792 210.818,-12.0252 238,-4.2751 256.806,1.08683 263.346,1.59413 282,-4.2751 298.842,-9.57419 315.108,-21.1536 326.892,-31.1037"/>
<polygon fill="black" stroke="black" points="332.299,-35.8227 324.954,-33.5936 329.662,-33.5215 327.025,-31.2202 327.025,-31.2202 327.025,-31.2202 329.662,-33.5215 329.096,-28.8468 332.299,-35.8227 332.299,-35.8227"/>
<text text-anchor="start" x="243.5" y="-7.6751" font-family="Lato" font-size="12.00">!a &amp; !c</text>
</g>
<!-- 4&#45;&gt;2 -->
<g id="edge10" class="edge"><title>4&#45;&gt;2</title>
<path fill="none" stroke="black" d="M167.875,-71.2438C186.234,-85.3528 215.688,-107.989 236.12,-123.691"/>
<polygon fill="black" stroke="black" points="241.887,-128.123 234.417,-126.356 239.112,-125.991 236.337,-123.858 236.337,-123.858 236.337,-123.858 239.112,-125.991 238.256,-121.36 241.887,-128.123 241.887,-128.123"/>
<text text-anchor="start" x="201.5" y="-112.675" font-family="Lato" font-size="12.00">a</text>
</g>
<!-- 2&#45;&gt;2 -->
<g id="edge6" class="edge"><title>2&#45;&gt;2</title>
<path fill="none" stroke="black" d="M251.994,-161.856C250.886,-172.12 253.555,-181.275 260,-181.275 264.834,-181.275 267.544,-176.125 268.129,-169.22"/>
<polygon fill="black" stroke="black" points="268.006,-161.856 271.273,-168.802 268.065,-165.355 268.123,-168.855 268.123,-168.855 268.123,-168.855 268.065,-165.355 264.973,-168.907 268.006,-161.856 268.006,-161.856"/>
<text text-anchor="middle" x="260" y="-184.675" font-family="Lato" font-size="12.00">1</text>
</g>
</g>
</svg>
