<?xml version="1.0" encoding="UTF-8" standalone="no"?>
<?xml-stylesheet href="spot.css" type="text/css"?>
<!DOCTYPE svg PUBLIC "-//W3C//DTD SVG 1.1//EN"
 "http://www.w3.org/Graphics/SVG/1.1/DTD/svg11.dtd">
<!-- Generated by graphviz version 2.38.0 (20140413.2041)
 -->
<!-- Title: G Pages: 1 -->
<svg width="240pt" height="160pt"
 viewBox="0.00 0.00 240.00 160.00" xmlns="http://www.w3.org/2000/svg" xmlns:xlink="http://www.w3.org/1999/xlink">
<g id="graph0" class="graph" transform="scale(1 1) rotate(0) translate(4 156)">
<title>G</title>
<polygon fill="white" stroke="none" points="-4,4 -4,-156 236,-156 236,4 -4,4"/>
<!-- I -->
<!-- 0 -->
<g id="node2" class="node"><title>0</title>
<ellipse fill="#ffffa0" stroke="black" cx="56" cy="-66" rx="18" ry="18"/>
<text text-anchor="middle" x="56" y="-62.9" font-family="Lato" font-size="12.00">0</text>
</g>
<!-- I&#45;&gt;0 -->
<g id="edge1" class="edge"><title>I&#45;&gt;0</title>
<path fill="none" stroke="black" d="M1.15491,-66C2.79388,-66 17.1543,-66 30.6317,-66"/>
<polygon fill="black" stroke="black" points="37.9419,-66 30.9419,-69.1501 34.4419,-66 30.9419,-66.0001 30.9419,-66.0001 30.9419,-66.0001 34.4419,-66 30.9418,-62.8501 37.9419,-66 37.9419,-66"/>
</g>
<!-- 1 -->
<g id="node3" class="node"><title>1</title>
<ellipse fill="#ffffa0" stroke="black" cx="135" cy="-103" rx="18" ry="18"/>
<text text-anchor="middle" x="135" y="-99.9" font-family="Lato" font-size="12.00">1</text>
</g>
<!-- 0&#45;&gt;1 -->
<g id="edge2" class="edge"><title>0&#45;&gt;1</title>
<path fill="none" stroke="black" d="M72.5821,-73.4875C83.8539,-78.9038 99.2464,-86.3002 111.802,-92.3334"/>
<polygon fill="black" stroke="black" points="118.441,-95.5236 110.767,-95.331 115.286,-94.0077 112.132,-92.4918 112.132,-92.4918 112.132,-92.4918 115.286,-94.0077 113.496,-89.6526 118.441,-95.5236 118.441,-95.5236"/>
<text text-anchor="middle" x="95.5" y="-89.4" font-family="Lato" font-size="12.00">1</text>
</g>
<!-- 2 -->
<g id="node4" class="node"><title>2</title>
<ellipse fill="#ffffa0" stroke="black" cx="135" cy="-18" rx="18" ry="18"/>
<text text-anchor="middle" x="135" y="-14.9" font-family="Lato" font-size="12.00">2</text>
</g>
<!-- 0&#45;&gt;2 -->
<g id="edge3" class="edge"><title>0&#45;&gt;2</title>
<path fill="none" stroke="black" d="M71.8464,-56.7451C83.5639,-49.4407 100.054,-39.1611 113.105,-31.0256"/>
<polygon fill="black" stroke="black" points="119.199,-27.2265 114.925,-33.6027 116.229,-29.078 113.259,-30.9296 113.259,-30.9296 113.259,-30.9296 116.229,-29.078 111.592,-28.2564 119.199,-27.2265 119.199,-27.2265"/>
<text text-anchor="start" x="92" y="-47.4" font-family="Lato" font-size="12.00">c</text>
</g>
<!-- 3 -->
<g id="node5" class="node"><title>3</title>
<ellipse fill="#ffffa0" stroke="black" cx="214" cy="-103" rx="18" ry="18"/>
<text text-anchor="middle" x="214" y="-99.9" font-family="Lato" font-size="12.00">3</text>
</g>
<!-- 1&#45;&gt;3 -->
<g id="edge4" class="edge"><title>1&#45;&gt;3</title>
<path fill="none" stroke="black" d="M153.089,-103C163.556,-103 177.12,-103 188.693,-103"/>
<polygon fill="black" stroke="black" points="195.959,-103 188.959,-106.15 192.459,-103 188.959,-103 188.959,-103 188.959,-103 192.459,-103 188.959,-99.8501 195.959,-103 195.959,-103"/>
<text text-anchor="start" x="171" y="-106.4" font-family="Lato" font-size="12.00">a</text>
</g>
<!-- 2&#45;&gt;2 -->
<g id="edge5" class="edge"><title>2&#45;&gt;2</title>
<path fill="none" stroke="black" d="M128.266,-35.0373C126.892,-44.8579 129.137,-54 135,-54 139.397,-54 141.759,-48.8576 142.086,-42.1433"/>
<polygon fill="black" stroke="black" points="141.734,-35.0373 145.226,-41.8728 141.907,-38.533 142.08,-42.0287 142.08,-42.0287 142.08,-42.0287 141.907,-38.533 138.934,-42.1847 141.734,-35.0373 141.734,-35.0373"/>
<text text-anchor="start" x="131.5" y="-57.4" font-family="Lato" font-size="12.00">c</text>
</g>
<!-- 3&#45;&gt;3 -->
<g id="edge6" class="edge"><title>3&#45;&gt;3</title>
<path fill="none" stroke="black" d="M207.266,-120.037C205.892,-129.858 208.137,-139 214,-139 218.397,-139 220.759,-133.858 221.086,-127.143"/>
<polygon fill="black" stroke="black" points="220.734,-120.037 224.226,-126.873 220.907,-123.533 221.08,-127.029 221.08,-127.029 221.08,-127.029 220.907,-123.533 217.934,-127.185 220.734,-120.037 220.734,-120.037"/>
<text text-anchor="middle" x="214" y="-142.4" font-family="Lato" font-size="12.00">1</text>
</g>
</g>
</svg>
