<?xml version="1.0" encoding="UTF-8" standalone="no"?>
<?xml-stylesheet href="spot.css" type="text/css"?>
<!DOCTYPE svg PUBLIC "-//W3C//DTD SVG 1.1//EN"
 "http://www.w3.org/Graphics/SVG/1.1/DTD/svg11.dtd">
<!-- Generated by graphviz version 2.38.0 (20140413.2041)
 -->
<!-- Title: G Pages: 1 -->
<svg width="266pt" height="160pt"
 viewBox="0.00 0.00 266.00 160.00" xmlns="http://www.w3.org/2000/svg" xmlns:xlink="http://www.w3.org/1999/xlink">
<g id="graph0" class="graph" transform="scale(1 1) rotate(0) translate(4 156)">
<title>G</title>
<polygon fill="white" stroke="none" points="-4,4 -4,-156 262,-156 262,4 -4,4"/>
<!-- I -->
<!-- 1 -->
<g id="node2" class="node"><title>1</title>
<ellipse fill="#ffffa0" stroke="black" cx="56" cy="-78" rx="18" ry="18"/>
<text text-anchor="middle" x="56" y="-74.9" font-family="Lato" font-size="12.00">1</text>
</g>
<!-- I&#45;&gt;1 -->
<g id="edge1" class="edge"><title>I&#45;&gt;1</title>
<path fill="none" stroke="black" d="M1.15491,-78C2.79388,-78 17.1543,-78 30.6317,-78"/>
<polygon fill="black" stroke="black" points="37.9419,-78 30.9419,-81.1501 34.4419,-78 30.9419,-78.0001 30.9419,-78.0001 30.9419,-78.0001 34.4419,-78 30.9418,-74.8501 37.9419,-78 37.9419,-78"/>
</g>
<!-- 3 -->
<g id="node4" class="node"><title>3</title>
<ellipse fill="#ffffa0" stroke="black" cx="138" cy="-103" rx="18" ry="18"/>
<text text-anchor="middle" x="138" y="-99.9" font-family="Lato" font-size="12.00">3</text>
</g>
<!-- 1&#45;&gt;3 -->
<g id="edge3" class="edge"><title>1&#45;&gt;3</title>
<path fill="none" stroke="black" d="M73.5761,-83.18C85.238,-86.8244 101.001,-91.7504 113.895,-95.7797"/>
<polygon fill="black" stroke="black" points="120.719,-97.9122 113.098,-98.8308 117.378,-96.8682 114.038,-95.8242 114.038,-95.8242 114.038,-95.8242 117.378,-96.8682 114.977,-92.8175 120.719,-97.9122 120.719,-97.9122"/>
<text text-anchor="start" x="92" y="-94.4" font-family="Lato" font-size="12.00">!c</text>
</g>
<!-- 4 -->
<g id="node5" class="node"><title>4</title>
<ellipse fill="#ffffa0" stroke="black" cx="138" cy="-49" rx="18" ry="18"/>
<text text-anchor="middle" x="138" y="-45.9" font-family="Lato" font-size="12.00">4</text>
</g>
<!-- 1&#45;&gt;4 -->
<g id="edge4" class="edge"><title>1&#45;&gt;4</title>
<path fill="none" stroke="black" d="M73.1892,-72.1314C84.9001,-67.8862 100.892,-62.089 113.937,-57.3603"/>
<polygon fill="black" stroke="black" points="120.835,-54.8599 115.327,-60.2069 117.544,-56.0527 114.254,-57.2455 114.254,-57.2455 114.254,-57.2455 117.544,-56.0527 113.18,-54.2841 120.835,-54.8599 120.835,-54.8599"/>
<text text-anchor="start" x="93.5" y="-68.4" font-family="Lato" font-size="12.00">c</text>
</g>
<!-- 0 -->
<g id="node3" class="node"><title>0</title>
<ellipse fill="#ffffa0" stroke="black" cx="240" cy="-18" rx="18" ry="18"/>
<text text-anchor="middle" x="240" y="-14.9" font-family="Lato" font-size="12.00">0</text>
</g>
<!-- 0&#45;&gt;0 -->
<g id="edge2" class="edge"><title>0&#45;&gt;0</title>
<path fill="none" stroke="black" d="M231.367,-33.916C229.114,-44.1504 231.992,-54 240,-54 246.131,-54 249.255,-48.2263 249.372,-40.9268"/>
<polygon fill="black" stroke="black" points="248.633,-33.916 252.499,-40.5477 249,-37.3968 249.367,-40.8775 249.367,-40.8775 249.367,-40.8775 249,-37.3968 246.234,-41.2074 248.633,-33.916 248.633,-33.916"/>
<text text-anchor="start" x="236.5" y="-57.4" font-family="Lato" font-size="12.00">c</text>
</g>
<!-- 2 -->
<g id="node6" class="node"><title>2</title>
<ellipse fill="#ffffa0" stroke="black" cx="240" cy="-103" rx="18" ry="18"/>
<text text-anchor="middle" x="240" y="-99.9" font-family="Lato" font-size="12.00">2</text>
</g>
<!-- 3&#45;&gt;2 -->
<g id="edge6" class="edge"><title>3&#45;&gt;2</title>
<path fill="none" stroke="black" d="M156.419,-103C172.479,-103 196.482,-103 214.477,-103"/>
<polygon fill="black" stroke="black" points="221.781,-103 214.781,-106.15 218.281,-103 214.781,-103 214.781,-103 214.781,-103 218.281,-103 214.781,-99.8501 221.781,-103 221.781,-103"/>
<text text-anchor="start" x="185.5" y="-106.4" font-family="Lato" font-size="12.00">a</text>
</g>
<!-- 4&#45;&gt;0 -->
<g id="edge7" class="edge"><title>4&#45;&gt;0</title>
<path fill="none" stroke="black" d="M152.508,-38.0195C158.701,-33.5603 166.356,-28.8071 174,-26 187.026,-21.2167 202.406,-19.176 214.934,-18.3499"/>
<polygon fill="black" stroke="black" points="221.941,-17.9924 215.111,-21.4951 218.446,-18.1708 214.951,-18.3492 214.951,-18.3492 214.951,-18.3492 218.446,-18.1708 214.79,-15.2033 221.941,-17.9924 221.941,-17.9924"/>
<text text-anchor="start" x="174" y="-29.4" font-family="Lato" font-size="12.00">!a &amp; c</text>
</g>
<!-- 4&#45;&gt;2 -->
<g id="edge8" class="edge"><title>4&#45;&gt;2</title>
<path fill="none" stroke="black" d="M154.188,-57.2014C170.928,-66.2409 198.002,-80.8612 217.049,-91.1465"/>
<polygon fill="black" stroke="black" points="223.669,-94.7214 216.013,-94.167 220.59,-93.0583 217.51,-91.3953 217.51,-91.3953 217.51,-91.3953 220.59,-93.0583 219.007,-88.6236 223.669,-94.7214 223.669,-94.7214"/>
<text text-anchor="start" x="185.5" y="-86.4" font-family="Lato" font-size="12.00">a</text>
</g>
<!-- 2&#45;&gt;2 -->
<g id="edge5" class="edge"><title>2&#45;&gt;2</title>
<path fill="none" stroke="black" d="M231.367,-118.916C229.114,-129.15 231.992,-139 240,-139 246.131,-139 249.255,-133.226 249.372,-125.927"/>
<polygon fill="black" stroke="black" points="248.633,-118.916 252.499,-125.548 249,-122.397 249.367,-125.878 249.367,-125.878 249.367,-125.878 249,-122.397 246.234,-126.207 248.633,-118.916 248.633,-118.916"/>
<text text-anchor="middle" x="240" y="-142.4" font-family="Lato" font-size="12.00">1</text>
</g>
</g>
</svg>
