<?xml version="1.0" encoding="UTF-8" standalone="no"?>
<!DOCTYPE svg PUBLIC "-//W3C//DTD SVG 1.1//EN"
 "http://www.w3.org/Graphics/SVG/1.1/DTD/svg11.dtd">
<!-- Generated by graphviz version 2.38.0 (20140413.2041)
 -->
<!-- Title: G Pages: 1 -->
<svg width="401pt" height="207pt"
 viewBox="0.00 0.00 401.00 207.00" xmlns="http://www.w3.org/2000/svg" xmlns:xlink="http://www.w3.org/1999/xlink">
<g id="graph0" class="graph" transform="scale(1 1) rotate(0) translate(4 203)">
<title>G</title>
<polygon fill="white" stroke="none" points="-4,4 -4,-203 397,-203 397,4 -4,4"/>
<!-- I -->
<!-- 0 -->
<g id="node2" class="node"><title>0</title>
<ellipse fill="none" stroke="black" cx="56" cy="-88" rx="18" ry="18"/>
<text text-anchor="middle" x="56" y="-84.3" font-family="Times,serif" font-size="14.00">0</text>
</g>
<!-- I&#45;&gt;0 -->
<g id="edge1" class="edge"><title>I&#45;&gt;0</title>
<path fill="none" stroke="black" d="M1.15491,-88C2.67247,-88 15.0966,-88 27.6277,-88"/>
<polygon fill="black" stroke="black" points="27.9419,-91.5001 37.9419,-88 27.9418,-84.5001 27.9419,-91.5001"/>
</g>
<!-- 0&#45;&gt;0 -->
<g id="edge2" class="edge"><title>0&#45;&gt;0</title>
<path fill="none" stroke="black" d="M49.6208,-105.037C48.3189,-114.858 50.4453,-124 56,-124 59.4717,-124 61.6042,-120.429 62.3975,-115.353"/>
<polygon fill="black" stroke="black" points="65.8971,-115.031 62.3792,-105.037 58.8971,-115.044 65.8971,-115.031"/>
<text text-anchor="middle" x="56" y="-142.8" font-family="Times,serif" font-size="14.00">!a &amp; !c</text>
<text text-anchor="middle" x="56" y="-127.8" font-family="Times,serif" font-size="14.00">{0}</text>
</g>
<!-- 1 -->
<g id="node3" class="node"><title>1</title>
<ellipse fill="none" stroke="black" cx="375" cy="-105" rx="18" ry="18"/>
<text text-anchor="middle" x="375" y="-101.3" font-family="Times,serif" font-size="14.00">1</text>
</g>
<!-- 0&#45;&gt;1 -->
<g id="edge3" class="edge"><title>0&#45;&gt;1</title>
<path fill="none" stroke="black" d="M68.1667,-101.799C86.765,-123.528 126.469,-164.809 171,-180 237.828,-202.798 315.939,-151.704 352.752,-122.922"/>
<polygon fill="black" stroke="black" points="355.172,-125.467 360.782,-116.479 350.792,-120.007 355.172,-125.467"/>
<text text-anchor="middle" x="240.5" y="-187.8" font-family="Times,serif" font-size="14.00">c</text>
</g>
<!-- 2 -->
<g id="node4" class="node"><title>2</title>
<ellipse fill="none" stroke="black" cx="189" cy="-105" rx="18" ry="18"/>
<text text-anchor="middle" x="189" y="-101.3" font-family="Times,serif" font-size="14.00">2</text>
</g>
<!-- 0&#45;&gt;2 -->
<g id="edge4" class="edge"><title>0&#45;&gt;2</title>
<path fill="none" stroke="black" d="M74.126,-90.2225C96.1918,-93.086 134.807,-98.0971 160.882,-101.481"/>
<polygon fill="black" stroke="black" points="160.503,-104.961 170.87,-102.777 161.403,-98.0191 160.503,-104.961"/>
<text text-anchor="middle" x="122.5" y="-103.8" font-family="Times,serif" font-size="14.00">a &amp; b &amp; !c</text>
</g>
<!-- 3 -->
<g id="node5" class="node"><title>3</title>
<ellipse fill="none" stroke="black" cx="189" cy="-18" rx="18" ry="18"/>
<text text-anchor="middle" x="189" y="-14.3" font-family="Times,serif" font-size="14.00">3</text>
</g>
<!-- 0&#45;&gt;3 -->
<g id="edge5" class="edge"><title>0&#45;&gt;3</title>
<path fill="none" stroke="black" d="M73.0272,-81.1233C78.9836,-78.5697 85.7995,-75.6501 92,-73 119.1,-61.4176 127.835,-62.3392 153,-47 157.969,-43.9709 162.98,-40.2803 167.596,-36.5607"/>
<polygon fill="black" stroke="black" points="170.012,-39.102 175.385,-29.9707 165.49,-33.7582 170.012,-39.102"/>
<text text-anchor="middle" x="122.5" y="-76.8" font-family="Times,serif" font-size="14.00">a &amp; !c</text>
</g>
<!-- 1&#45;&gt;1 -->
<g id="edge6" class="edge"><title>1&#45;&gt;1</title>
<path fill="none" stroke="black" d="M367.969,-121.664C366.406,-131.625 368.75,-141 375,-141 379.004,-141 381.405,-137.152 382.202,-131.768"/>
<polygon fill="black" stroke="black" points="385.7,-131.603 382.031,-121.664 378.701,-131.722 385.7,-131.603"/>
<text text-anchor="middle" x="375" y="-159.8" font-family="Times,serif" font-size="14.00">1</text>
<text text-anchor="middle" x="375" y="-144.8" font-family="Times,serif" font-size="14.00">{0}</text>
</g>
<!-- 2&#45;&gt;2 -->
<g id="edge7" class="edge"><title>2&#45;&gt;2</title>
<path fill="none" stroke="black" d="M180.367,-120.916C178.114,-131.15 180.992,-141 189,-141 194.255,-141 197.301,-136.758 198.137,-130.949"/>
<polygon fill="black" stroke="black" points="201.631,-130.728 197.633,-120.916 194.64,-131.079 201.631,-130.728"/>
<text text-anchor="middle" x="189" y="-159.8" font-family="Times,serif" font-size="14.00">b</text>
<text text-anchor="middle" x="189" y="-144.8" font-family="Times,serif" font-size="14.00">{0}</text>
</g>
<!-- 3&#45;&gt;0 -->
<g id="edge8" class="edge"><title>3&#45;&gt;0</title>
<path fill="none" stroke="black" d="M171.949,-11.8731C151.633,-5.22643 116.353,2.50955 92,-13 75.7406,-23.355 66.9107,-43.4539 62.1887,-60.2405"/>
<polygon fill="black" stroke="black" points="58.7417,-59.6009 59.7498,-70.1477 65.5388,-61.2743 58.7417,-59.6009"/>
<text text-anchor="middle" x="122.5" y="-31.8" font-family="Times,serif" font-size="14.00">!a &amp; !c</text>
<text text-anchor="middle" x="122.5" y="-16.8" font-family="Times,serif" font-size="14.00">{0}</text>
</g>
<!-- 3&#45;&gt;1 -->
<g id="edge9" class="edge"><title>3&#45;&gt;1</title>
<path fill="none" stroke="black" d="M203.025,-29.5903C218.785,-43.0464 246.623,-65.0452 274,-78 297.531,-89.1351 326.427,-96.3106 347.095,-100.444"/>
<polygon fill="black" stroke="black" points="346.605,-103.913 357.082,-102.333 347.907,-97.0353 346.605,-103.913"/>
<text text-anchor="middle" x="292" y="-94.8" font-family="Times,serif" font-size="14.00">!a &amp; c</text>
</g>
<!-- 3&#45;&gt;3 -->
<g id="edge10" class="edge"><title>3&#45;&gt;3</title>
<path fill="none" stroke="black" d="M180.367,-33.916C178.114,-44.1504 180.992,-54 189,-54 194.255,-54 197.301,-49.7581 198.137,-43.9494"/>
<polygon fill="black" stroke="black" points="201.631,-43.7278 197.633,-33.916 194.64,-44.0791 201.631,-43.7278"/>
<text text-anchor="middle" x="189" y="-57.8" font-family="Times,serif" font-size="14.00">a &amp; !c</text>
</g>
<!-- 4 -->
<g id="node6" class="node"><title>4</title>
<ellipse fill="none" stroke="black" cx="292" cy="-18" rx="18" ry="18"/>
<text text-anchor="middle" x="292" y="-14.3" font-family="Times,serif" font-size="14.00">4</text>
</g>
<!-- 3&#45;&gt;4 -->
<g id="edge11" class="edge"><title>3&#45;&gt;4</title>
<path fill="none" stroke="black" d="M207.133,-18C222.586,-18 245.584,-18 263.591,-18"/>
<polygon fill="black" stroke="black" points="263.783,-21.5001 273.783,-18 263.783,-14.5001 263.783,-21.5001"/>
<text text-anchor="middle" x="240.5" y="-21.8" font-family="Times,serif" font-size="14.00">a &amp; c</text>
</g>
<!-- 4&#45;&gt;1 -->
<g id="edge12" class="edge"><title>4&#45;&gt;1</title>
<path fill="none" stroke="black" d="M304.952,-30.8371C318.113,-44.9728 339.457,-67.8979 354.934,-84.5217"/>
<polygon fill="black" stroke="black" points="352.623,-87.1762 361.999,-92.1102 357.747,-82.4062 352.623,-87.1762"/>
<text text-anchor="middle" x="333.5" y="-69.8" font-family="Times,serif" font-size="14.00">!a</text>
</g>
<!-- 4&#45;&gt;4 -->
<g id="edge13" class="edge"><title>4&#45;&gt;4</title>
<path fill="none" stroke="black" d="M284.969,-34.6641C283.406,-44.625 285.75,-54 292,-54 296.004,-54 298.405,-50.1525 299.202,-44.7682"/>
<polygon fill="black" stroke="black" points="302.7,-44.6033 299.031,-34.6641 295.701,-44.7219 302.7,-44.6033"/>
<text text-anchor="middle" x="292" y="-57.8" font-family="Times,serif" font-size="14.00">a</text>
</g>
</g>
</svg>
