<?xml version="1.0" encoding="UTF-8" standalone="no"?>
<!DOCTYPE svg PUBLIC "-//W3C//DTD SVG 1.1//EN"
 "http://www.w3.org/Graphics/SVG/1.1/DTD/svg11.dtd">
<!-- Generated by graphviz version 2.38.0 (20140413.2041)
 -->
<!-- Title: G Pages: 1 -->
<svg width="567pt" height="374pt"
 viewBox="0.00 0.00 567.00 374.00" xmlns="http://www.w3.org/2000/svg" xmlns:xlink="http://www.w3.org/1999/xlink">
<g id="graph0" class="graph" transform="scale(1 1) rotate(0) translate(4 370)">
<title>G</title>
<polygon fill="white" stroke="none" points="-4,4 -4,-370 563,-370 563,4 -4,4"/>
<text text-anchor="middle" x="279.5" y="-350.8" font-family="Times,serif" font-size="14.00">(Inf(0)&amp;Inf(1)) &amp; Fin(2)</text>
<text text-anchor="middle" x="279.5" y="-335.8" font-family="Times,serif" font-size="14.00">[Streett&#45;like 3]</text>
<g id="clust1" class="cluster"><title>cluster_0</title>
<polygon fill="none" stroke="grey" points="390,-157 390,-259 551,-259 551,-157 390,-157"/>
</g>
<g id="clust2" class="cluster"><title>cluster_1</title>
<polygon fill="none" stroke="grey" points="297,-172 297,-320 349,-320 349,-172 297,-172"/>
</g>
<g id="clust3" class="cluster"><title>cluster_2</title>
<polygon fill="none" stroke="green" points="390,-8 390,-125 551,-125 551,-8 390,-8"/>
</g>
<g id="clust4" class="cluster"><title>cluster_3</title>
<polygon fill="none" stroke="green" points="297,-16 297,-164 349,-164 349,-16 297,-16"/>
</g>
<g id="clust5" class="cluster"><title>cluster_4</title>
<polygon fill="none" stroke="black" points="218,-64 218,-116 270,-116 270,-64 218,-64"/>
</g>
<g id="clust6" class="cluster"><title>cluster_5</title>
<polygon fill="none" stroke="red" points="139,-64 139,-164 191,-164 191,-64 139,-64"/>
</g>
<g id="clust7" class="cluster"><title>cluster_6</title>
<polygon fill="none" stroke="green" points="30,-172 30,-274 191,-274 191,-172 30,-172"/>
</g>
<!-- I -->
<!-- 1 -->
<g id="node2" class="node"><title>1</title>
<ellipse fill="none" stroke="black" cx="56" cy="-198" rx="18" ry="18"/>
<text text-anchor="middle" x="56" y="-194.3" font-family="Times,serif" font-size="14.00">1</text>
</g>
<!-- I&#45;&gt;1 -->
<g id="edge1" class="edge"><title>I&#45;&gt;1</title>
<path fill="none" stroke="black" d="M1.15491,-198C2.67247,-198 15.0966,-198 27.6277,-198"/>
<polygon fill="black" stroke="black" points="27.9419,-201.5 37.9419,-198 27.9418,-194.5 27.9419,-201.5"/>
</g>
<!-- 4 -->
<g id="node10" class="node"><title>4</title>
<ellipse fill="none" stroke="black" cx="165" cy="-90" rx="18" ry="18"/>
<text text-anchor="middle" x="165" y="-86.3" font-family="Times,serif" font-size="14.00">4</text>
</g>
<!-- 1&#45;&gt;4 -->
<g id="edge5" class="edge"><title>1&#45;&gt;4</title>
<path fill="none" stroke="black" d="M69.2743,-185.611C87.6391,-167.075 122.449,-131.94 144.371,-109.813"/>
<polygon fill="black" stroke="black" points="146.988,-112.144 151.539,-102.577 142.015,-107.218 146.988,-112.144"/>
<text text-anchor="middle" x="110.5" y="-163.8" font-family="Times,serif" font-size="14.00">b</text>
</g>
<!-- 3 -->
<g id="node11" class="node"><title>3</title>
<ellipse fill="none" stroke="black" cx="165" cy="-217" rx="18" ry="18"/>
<text text-anchor="middle" x="165" y="-213.3" font-family="Times,serif" font-size="14.00">3</text>
</g>
<!-- 1&#45;&gt;3 -->
<g id="edge6" class="edge"><title>1&#45;&gt;3</title>
<path fill="none" stroke="black" d="M74.1577,-196.061C88.9255,-194.904 110.684,-194.431 129,-199 132.733,-199.931 136.518,-201.324 140.15,-202.93"/>
<polygon fill="black" stroke="black" points="138.763,-206.15 149.271,-207.508 141.904,-199.894 138.763,-206.15"/>
<text text-anchor="middle" x="110.5" y="-202.8" font-family="Times,serif" font-size="14.00">a &amp; !b</text>
</g>
<!-- 5 -->
<g id="node3" class="node"><title>5</title>
<ellipse fill="none" stroke="black" cx="416" cy="-198" rx="18" ry="18"/>
<text text-anchor="middle" x="416" y="-194.3" font-family="Times,serif" font-size="14.00">5</text>
</g>
<!-- 6 -->
<g id="node4" class="node"><title>6</title>
<ellipse fill="none" stroke="black" cx="525" cy="-208" rx="18" ry="18"/>
<text text-anchor="middle" x="525" y="-204.3" font-family="Times,serif" font-size="14.00">6</text>
</g>
<!-- 5&#45;&gt;6 -->
<g id="edge12" class="edge"><title>5&#45;&gt;6</title>
<path fill="none" stroke="black" d="M432.642,-190.267C438.557,-187.741 445.445,-185.262 452,-184 468.148,-180.89 473.293,-179.132 489,-184 493.764,-185.476 498.455,-187.85 502.779,-190.543"/>
<polygon fill="black" stroke="black" points="500.847,-193.463 511.046,-196.334 504.864,-187.73 500.847,-193.463"/>
<text text-anchor="middle" x="470.5" y="-202.8" font-family="Times,serif" font-size="14.00">1</text>
<text text-anchor="middle" x="470.5" y="-187.8" font-family="Times,serif" font-size="14.00">{1}</text>
</g>
<!-- 6&#45;&gt;5 -->
<g id="edge13" class="edge"><title>6&#45;&gt;5</title>
<path fill="none" stroke="black" d="M507.23,-212.174C492.519,-215.18 470.629,-218.056 452,-214 448.499,-213.238 444.929,-212.093 441.473,-210.759"/>
<polygon fill="black" stroke="black" points="442.746,-207.495 432.184,-206.66 439.92,-213.899 442.746,-207.495"/>
<text text-anchor="middle" x="470.5" y="-218.8" font-family="Times,serif" font-size="14.00">1</text>
</g>
<!-- 0 -->
<g id="node5" class="node"><title>0</title>
<ellipse fill="none" stroke="black" cx="323" cy="-198" rx="18" ry="18"/>
<text text-anchor="middle" x="323" y="-194.3" font-family="Times,serif" font-size="14.00">0</text>
</g>
<!-- 0&#45;&gt;5 -->
<g id="edge4" class="edge"><title>0&#45;&gt;5</title>
<path fill="none" stroke="black" d="M341.116,-198C354.208,-198 372.52,-198 387.637,-198"/>
<polygon fill="black" stroke="black" points="387.96,-201.5 397.96,-198 387.96,-194.5 387.96,-201.5"/>
<text text-anchor="middle" x="369.5" y="-216.8" font-family="Times,serif" font-size="14.00">a</text>
<text text-anchor="middle" x="369.5" y="-201.8" font-family="Times,serif" font-size="14.00">{2}</text>
</g>
<!-- 0&#45;&gt;0 -->
<g id="edge2" class="edge"><title>0&#45;&gt;0</title>
<path fill="none" stroke="black" d="M319.584,-215.782C319.004,-225.315 320.143,-234 323,-234 324.741,-234 325.844,-230.775 326.309,-226.098"/>
<polygon fill="black" stroke="black" points="329.812,-225.817 326.416,-215.782 322.812,-225.745 329.812,-225.817"/>
<text text-anchor="middle" x="323" y="-252.8" font-family="Times,serif" font-size="14.00">a &amp; b</text>
<text text-anchor="middle" x="323" y="-237.8" font-family="Times,serif" font-size="14.00">{0,1,2}</text>
</g>
<!-- 0&#45;&gt;0 -->
<g id="edge3" class="edge"><title>0&#45;&gt;0</title>
<path fill="none" stroke="black" d="M317.769,-215.249C314.057,-236.435 315.801,-264 323,-264 329.102,-264 331.285,-244.194 329.547,-225.256"/>
<polygon fill="black" stroke="black" points="333.005,-224.707 328.231,-215.249 326.065,-225.62 333.005,-224.707"/>
<text text-anchor="middle" x="323" y="-282.8" font-family="Times,serif" font-size="14.00">!a &amp; !b</text>
<text text-anchor="middle" x="323" y="-267.8" font-family="Times,serif" font-size="14.00">{2}</text>
</g>
<!-- 8 -->
<g id="node6" class="node"><title>8</title>
<ellipse fill="none" stroke="black" cx="416" cy="-42" rx="18" ry="18"/>
<text text-anchor="middle" x="416" y="-38.3" font-family="Times,serif" font-size="14.00">8</text>
</g>
<!-- 8&#45;&gt;8 -->
<g id="edge17" class="edge"><title>8&#45;&gt;8</title>
<path fill="none" stroke="black" d="M407.984,-58.2903C406.051,-68.3892 408.723,-78 416,-78 420.662,-78 423.434,-74.0557 424.316,-68.5656"/>
<polygon fill="black" stroke="black" points="427.807,-68.1839 424.016,-58.2903 420.81,-68.3881 427.807,-68.1839"/>
<text text-anchor="middle" x="416" y="-96.8" font-family="Times,serif" font-size="14.00">!a &amp; b</text>
<text text-anchor="middle" x="416" y="-81.8" font-family="Times,serif" font-size="14.00">{0,2}</text>
</g>
<!-- 9 -->
<g id="node7" class="node"><title>9</title>
<ellipse fill="none" stroke="black" cx="525" cy="-42" rx="18" ry="18"/>
<text text-anchor="middle" x="525" y="-38.3" font-family="Times,serif" font-size="14.00">9</text>
</g>
<!-- 8&#45;&gt;9 -->
<g id="edge18" class="edge"><title>8&#45;&gt;9</title>
<path fill="none" stroke="black" d="M433.634,-37.9759C439.411,-36.7645 445.957,-35.5984 452,-35 468.364,-33.3796 472.636,-33.3796 489,-35 491.738,-35.2711 494.58,-35.6589 497.406,-36.1145"/>
<polygon fill="black" stroke="black" points="496.893,-39.5792 507.366,-37.9759 498.179,-32.6983 496.893,-39.5792"/>
<text text-anchor="middle" x="470.5" y="-53.8" font-family="Times,serif" font-size="14.00">a &amp; b</text>
<text text-anchor="middle" x="470.5" y="-38.8" font-family="Times,serif" font-size="14.00">{0,1}</text>
</g>
<!-- 9&#45;&gt;8 -->
<g id="edge19" class="edge"><title>9&#45;&gt;8</title>
<path fill="none" stroke="black" d="M510.641,-53.4295C504.476,-57.9719 496.802,-62.666 489,-65 473.245,-69.7132 467.755,-69.7132 452,-65 447.49,-63.6506 443.022,-61.5125 438.863,-59.0709"/>
<polygon fill="black" stroke="black" points="440.627,-56.0404 430.359,-53.4295 436.757,-61.8738 440.627,-56.0404"/>
<text text-anchor="middle" x="470.5" y="-87.8" font-family="Times,serif" font-size="14.00">!a &amp; b</text>
<text text-anchor="middle" x="470.5" y="-72.8" font-family="Times,serif" font-size="14.00">{0,1}</text>
</g>
<!-- 9&#45;&gt;9 -->
<g id="edge20" class="edge"><title>9&#45;&gt;9</title>
<path fill="none" stroke="black" d="M515.767,-57.5414C513.169,-67.9087 516.246,-78 525,-78 530.745,-78 534.045,-73.654 534.9,-67.7362"/>
<polygon fill="black" stroke="black" points="538.379,-67.2913 534.233,-57.5414 531.394,-67.7489 538.379,-67.2913"/>
<text text-anchor="middle" x="525" y="-96.8" font-family="Times,serif" font-size="14.00">a &amp; b</text>
<text text-anchor="middle" x="525" y="-81.8" font-family="Times,serif" font-size="14.00">{0,2}</text>
</g>
<!-- 7 -->
<g id="node8" class="node"><title>7</title>
<ellipse fill="none" stroke="black" cx="323" cy="-42" rx="18" ry="18"/>
<text text-anchor="middle" x="323" y="-38.3" font-family="Times,serif" font-size="14.00">7</text>
</g>
<!-- 7&#45;&gt;8 -->
<g id="edge16" class="edge"><title>7&#45;&gt;8</title>
<path fill="none" stroke="black" d="M341.116,-42C354.208,-42 372.52,-42 387.637,-42"/>
<polygon fill="black" stroke="black" points="387.96,-45.5001 397.96,-42 387.96,-38.5001 387.96,-45.5001"/>
<text text-anchor="middle" x="369.5" y="-45.8" font-family="Times,serif" font-size="14.00">1</text>
</g>
<!-- 7&#45;&gt;7 -->
<g id="edge14" class="edge"><title>7&#45;&gt;7</title>
<path fill="none" stroke="black" d="M319.584,-59.7817C319.004,-69.3149 320.143,-78 323,-78 324.741,-78 325.844,-74.7749 326.309,-70.0981"/>
<polygon fill="black" stroke="black" points="329.812,-69.8174 326.416,-59.7817 322.812,-69.745 329.812,-69.8174"/>
<text text-anchor="middle" x="323" y="-96.8" font-family="Times,serif" font-size="14.00">!a &amp; b</text>
<text text-anchor="middle" x="323" y="-81.8" font-family="Times,serif" font-size="14.00">{0,2}</text>
</g>
<!-- 7&#45;&gt;7 -->
<g id="edge15" class="edge"><title>7&#45;&gt;7</title>
<path fill="none" stroke="black" d="M317.769,-59.249C314.057,-80.4346 315.801,-108 323,-108 329.102,-108 331.285,-88.1937 329.547,-69.2557"/>
<polygon fill="black" stroke="black" points="333.005,-68.7069 328.231,-59.249 326.065,-69.6202 333.005,-68.7069"/>
<text text-anchor="middle" x="323" y="-126.8" font-family="Times,serif" font-size="14.00">a &amp; b</text>
<text text-anchor="middle" x="323" y="-111.8" font-family="Times,serif" font-size="14.00">{0,1}</text>
</g>
<!-- 2 -->
<g id="node9" class="node"><title>2</title>
<ellipse fill="none" stroke="black" cx="244" cy="-90" rx="18" ry="18"/>
<text text-anchor="middle" x="244" y="-86.3" font-family="Times,serif" font-size="14.00">2</text>
</g>
<!-- 2&#45;&gt;0 -->
<g id="edge7" class="edge"><title>2&#45;&gt;0</title>
<path fill="none" stroke="black" d="M254.318,-104.987C264.387,-120.934 281.128,-146.743 297,-168 299.175,-170.913 301.536,-173.922 303.909,-176.859"/>
<polygon fill="black" stroke="black" points="301.415,-179.334 310.487,-184.806 306.807,-174.871 301.415,-179.334"/>
<text text-anchor="middle" x="283.5" y="-157.8" font-family="Times,serif" font-size="14.00">a</text>
</g>
<!-- 2&#45;&gt;7 -->
<g id="edge8" class="edge"><title>2&#45;&gt;7</title>
<path fill="none" stroke="black" d="M259.846,-80.7451C270.818,-73.9055 285.975,-64.4573 298.574,-56.6035"/>
<polygon fill="black" stroke="black" points="300.565,-59.4868 307.199,-51.2265 296.861,-53.5464 300.565,-59.4868"/>
<text text-anchor="middle" x="283.5" y="-71.8" font-family="Times,serif" font-size="14.00">b</text>
</g>
<!-- 4&#45;&gt;2 -->
<g id="edge11" class="edge"><title>4&#45;&gt;2</title>
<path fill="none" stroke="black" d="M183.089,-90C192.659,-90 204.817,-90 215.677,-90"/>
<polygon fill="black" stroke="black" points="215.959,-93.5001 225.959,-90 215.959,-86.5001 215.959,-93.5001"/>
<text text-anchor="middle" x="204.5" y="-93.8" font-family="Times,serif" font-size="14.00">b</text>
</g>
<!-- 4&#45;&gt;4 -->
<g id="edge10" class="edge"><title>4&#45;&gt;4</title>
<path fill="none" stroke="black" d="M158.266,-107.037C156.892,-116.858 159.137,-126 165,-126 168.665,-126 170.916,-122.429 171.753,-117.353"/>
<polygon fill="black" stroke="black" points="175.252,-117.031 171.734,-107.037 168.252,-117.044 175.252,-117.031"/>
<text text-anchor="middle" x="165" y="-144.8" font-family="Times,serif" font-size="14.00">!b</text>
<text text-anchor="middle" x="165" y="-129.8" font-family="Times,serif" font-size="14.00">{1,2}</text>
</g>
<!-- 3&#45;&gt;1 -->
<g id="edge9" class="edge"><title>3&#45;&gt;1</title>
<path fill="none" stroke="black" d="M146.87,-218.122C132.12,-218.655 110.371,-218.403 92,-214 88.5159,-213.165 84.9556,-211.978 81.504,-210.623"/>
<polygon fill="black" stroke="black" points="82.7786,-207.359 72.2177,-206.511 79.9446,-213.76 82.7786,-207.359"/>
<text text-anchor="middle" x="110.5" y="-236.8" font-family="Times,serif" font-size="14.00">a &amp; b</text>
<text text-anchor="middle" x="110.5" y="-221.8" font-family="Times,serif" font-size="14.00">{0,1}</text>
</g>
</g>
</svg>
