<?xml version="1.0" encoding="UTF-8" standalone="no"?>
<?xml-stylesheet href="spot.css" type="text/css"?>
<!DOCTYPE svg PUBLIC "-//W3C//DTD SVG 1.1//EN"
 "http://www.w3.org/Graphics/SVG/1.1/DTD/svg11.dtd">
<!-- Generated by graphviz version 2.38.0 (20140413.2041)
 -->
<!-- Title: G Pages: 1 -->
<svg width="169pt" height="104pt"
 viewBox="0.00 0.00 169.00 104.00" xmlns="http://www.w3.org/2000/svg" xmlns:xlink="http://www.w3.org/1999/xlink">
<g id="graph0" class="graph" transform="scale(1 1) rotate(0) translate(4 100)">
<title>G</title>
<polygon fill="white" stroke="none" points="-4,4 -4,-100 165,-100 165,4 -4,4"/>
<text text-anchor="middle" x="80.5" y="-82.4" font-family="Times,serif" font-size="12.00">TGBA for a U b</text>
<!-- I -->
<!-- 1 -->
<g id="node2" class="node"><title>1</title>
<ellipse fill="none" stroke="black" cx="56" cy="-22" rx="18" ry="18"/>
<text text-anchor="middle" x="56" y="-18.9" font-family="Times,serif" font-size="12.00">1</text>
</g>
<!-- I&#45;&gt;1 -->
<g id="edge1" class="edge"><title>I&#45;&gt;1</title>
<path fill="none" stroke="black" d="M1.15491,-22C2.79388,-22 17.1543,-22 30.6317,-22"/>
<polygon fill="black" stroke="black" points="37.9419,-22 30.9419,-25.1501 34.4419,-22 30.9419,-22.0001 30.9419,-22.0001 30.9419,-22.0001 34.4419,-22 30.9418,-18.8501 37.9419,-22 37.9419,-22"/>
</g>
<!-- 1&#45;&gt;1 -->
<g id="edge4" class="edge"><title>1&#45;&gt;1</title>
<path fill="none" stroke="black" d="M49.6208,-39.0373C48.3189,-48.8579 50.4453,-58 56,-58 60.166,-58 62.4036,-52.8576 62.7128,-46.1433"/>
<polygon fill="black" stroke="black" points="62.3792,-39.0373 65.8541,-45.8818 62.5434,-42.5335 62.7076,-46.0296 62.7076,-46.0296 62.7076,-46.0296 62.5434,-42.5335 59.561,-46.1774 62.3792,-39.0373 62.3792,-39.0373"/>
<text text-anchor="middle" x="56" y="-61.4" font-family="Times,serif" font-size="12.00">a &amp; !b</text>
</g>
<!-- 0 -->
<g id="node3" class="node"><title>0</title>
<ellipse fill="none" stroke="black" cx="139" cy="-22" rx="18" ry="18"/>
<ellipse fill="none" stroke="black" cx="139" cy="-22" rx="22" ry="22"/>
<text text-anchor="middle" x="139" y="-18.9" font-family="Times,serif" font-size="12.00">0</text>
</g>
<!-- 1&#45;&gt;0 -->
<g id="edge3" class="edge"><title>1&#45;&gt;0</title>
<path fill="none" stroke="black" d="M74.178,-22C84.4846,-22 97.848,-22 109.681,-22"/>
<polygon fill="black" stroke="black" points="116.811,-22 109.811,-25.1501 113.311,-22 109.811,-22.0001 109.811,-22.0001 109.811,-22.0001 113.311,-22 109.811,-18.8501 116.811,-22 116.811,-22"/>
<text text-anchor="middle" x="95.5" y="-25.4" font-family="Times,serif" font-size="12.00">b</text>
</g>
<!-- 0&#45;&gt;0 -->
<g id="edge2" class="edge"><title>0&#45;&gt;0</title>
<path fill="none" stroke="black" d="M131.317,-42.9908C130.369,-53.0872 132.93,-62 139,-62 143.553,-62 146.131,-56.9866 146.736,-50.2204"/>
<polygon fill="black" stroke="black" points="146.683,-42.9908 149.884,-49.9673 146.709,-46.4907 146.734,-49.9906 146.734,-49.9906 146.734,-49.9906 146.709,-46.4907 143.585,-50.0139 146.683,-42.9908 146.683,-42.9908"/>
<text text-anchor="middle" x="139" y="-65.4" font-family="Times,serif" font-size="12.00">1</text>
</g>
</g>
</svg>
