<?xml version="1.0" encoding="UTF-8" standalone="no"?>
<!DOCTYPE svg PUBLIC "-//W3C//DTD SVG 1.1//EN"
 "http://www.w3.org/Graphics/SVG/1.1/DTD/svg11.dtd">
<!-- Generated by graphviz version 2.38.0 (20140413.2041)
 -->
<!-- Title: G Pages: 1 -->
<svg width="275pt" height="427pt"
 viewBox="0.00 0.00 275.00 427.00" xmlns="http://www.w3.org/2000/svg" xmlns:xlink="http://www.w3.org/1999/xlink">
<g id="graph0" class="graph" transform="scale(1 1) rotate(0) translate(4 423)">
<title>G</title>
<polygon fill="white" stroke="none" points="-4,4 -4,-423 271,-423 271,4 -4,4"/>
<text text-anchor="middle" x="133.5" y="-403.8" font-family="Times,serif" font-size="14.00">(Gb | F!a) W c</text>
<text text-anchor="middle" x="133.5" y="-388.8" font-family="Times,serif" font-size="14.00">Inf(0)</text>
<text text-anchor="middle" x="133.5" y="-373.8" font-family="Times,serif" font-size="14.00">[Büchi]</text>
<g id="clust1" class="cluster"><title>cluster_0</title>
<polygon fill="none" stroke="green" points="51,-8 51,-60 142,-60 142,-8 51,-8"/>
</g>
<g id="clust2" class="cluster"><title>cluster_1</title>
<polygon fill="none" stroke="green" points="168,-182 168,-234 259,-234 259,-182 168,-182"/>
</g>
<g id="clust3" class="cluster"><title>cluster_2</title>
<polygon fill="none" stroke="red" points="51,-95 51,-147 128,-147 128,-95 51,-95"/>
</g>
<g id="clust4" class="cluster"><title>cluster_3</title>
<polygon fill="none" stroke="green" points="8,-182 8,-336 141,-336 141,-182 8,-182"/>
</g>
<!-- I -->
<!-- 0 -->
<g id="node2" class="node"><title>0</title>
<ellipse fill="none" stroke="black" cx="57" cy="-310" rx="18" ry="18"/>
<text text-anchor="middle" x="57" y="-306.3" font-family="Times,serif" font-size="14.00">0</text>
</g>
<!-- I&#45;&gt;0 -->
<g id="edge1" class="edge"><title>I&#45;&gt;0</title>
<path fill="none" stroke="black" d="M57,-364.845C57,-363.328 57,-350.903 57,-338.372"/>
<polygon fill="black" stroke="black" points="60.5001,-338.058 57,-328.058 53.5001,-338.058 60.5001,-338.058"/>
</g>
<!-- 0&#45;&gt;0 -->
<g id="edge2" class="edge"><title>0&#45;&gt;0</title>
<path fill="none" stroke="black" d="M74.0373,-316.379C83.8579,-317.681 93,-315.555 93,-310 93,-306.528 89.4289,-304.396 84.3529,-303.602"/>
<polygon fill="black" stroke="black" points="84.031,-300.103 74.0373,-303.621 84.0435,-307.103 84.031,-300.103"/>
<text text-anchor="middle" x="113" y="-313.8" font-family="Times,serif" font-size="14.00">!a &amp; !c</text>
<text text-anchor="middle" x="113" y="-298.8" font-family="Times,serif" font-size="14.00">{0}</text>
</g>
<!-- 1 -->
<g id="node3" class="node"><title>1</title>
<ellipse fill="none" stroke="black" cx="77" cy="-34" rx="18" ry="18"/>
<text text-anchor="middle" x="77" y="-30.3" font-family="Times,serif" font-size="14.00">1</text>
</g>
<!-- 0&#45;&gt;1 -->
<g id="edge3" class="edge"><title>0&#45;&gt;1</title>
<path fill="none" stroke="black" d="M74.2698,-303.95C88.491,-298.829 107.899,-289.423 118,-274 149.113,-226.495 128.884,-203.701 132,-147 133.268,-123.924 140.378,-116.539 132,-95 125.318,-77.8229 111.168,-62.574 98.8943,-51.7475"/>
<polygon fill="black" stroke="black" points="101.109,-49.0371 91.1969,-45.2957 96.6125,-54.4018 101.109,-49.0371"/>
<text text-anchor="middle" x="135.5" y="-160.8" font-family="Times,serif" font-size="14.00">c</text>
</g>
<!-- 2 -->
<g id="node4" class="node"><title>2</title>
<ellipse fill="none" stroke="black" cx="194" cy="-208" rx="18" ry="18"/>
<text text-anchor="middle" x="194" y="-204.3" font-family="Times,serif" font-size="14.00">2</text>
</g>
<!-- 0&#45;&gt;2 -->
<g id="edge4" class="edge"><title>0&#45;&gt;2</title>
<path fill="none" stroke="black" d="M75.0568,-307.241C97.808,-304.157 136.954,-295.858 162,-274 173.63,-263.851 181.463,-248.495 186.467,-235.257"/>
<polygon fill="black" stroke="black" points="189.822,-236.263 189.759,-225.668 183.202,-233.99 189.822,-236.263"/>
<text text-anchor="middle" x="213.5" y="-255.3" font-family="Times,serif" font-size="14.00">a &amp; b &amp; !c</text>
</g>
<!-- 3 -->
<g id="node6" class="node"><title>3</title>
<ellipse fill="none" stroke="black" cx="41" cy="-208" rx="18" ry="18"/>
<text text-anchor="middle" x="41" y="-204.3" font-family="Times,serif" font-size="14.00">3</text>
</g>
<!-- 0&#45;&gt;3 -->
<g id="edge5" class="edge"><title>0&#45;&gt;3</title>
<path fill="none" stroke="black" d="M46.0611,-295.568C41.7151,-289.389 37.2259,-281.724 35,-274 31.432,-261.619 32.2168,-247.415 34.1917,-235.448"/>
<polygon fill="black" stroke="black" points="37.6301,-236.102 36.1541,-225.611 30.7654,-234.733 37.6301,-236.102"/>
<text text-anchor="middle" x="53" y="-255.3" font-family="Times,serif" font-size="14.00">a &amp; !c</text>
</g>
<!-- 1&#45;&gt;1 -->
<g id="edge6" class="edge"><title>1&#45;&gt;1</title>
<path fill="none" stroke="black" d="M93.6641,-41.3828C103.625,-43.0234 113,-40.5625 113,-34 113,-29.7959 109.152,-27.2751 103.768,-26.4375"/>
<polygon fill="black" stroke="black" points="103.6,-22.9399 93.6641,-26.6172 103.725,-29.9388 103.6,-22.9399"/>
<text text-anchor="middle" x="123.5" y="-37.8" font-family="Times,serif" font-size="14.00">1</text>
<text text-anchor="middle" x="123.5" y="-22.8" font-family="Times,serif" font-size="14.00">{0}</text>
</g>
<!-- 2&#45;&gt;2 -->
<g id="edge7" class="edge"><title>2&#45;&gt;2</title>
<path fill="none" stroke="black" d="M210.664,-215.383C220.625,-217.023 230,-214.562 230,-208 230,-203.796 226.152,-201.275 220.768,-200.438"/>
<polygon fill="black" stroke="black" points="220.6,-196.94 210.664,-200.617 220.725,-203.939 220.6,-196.94"/>
<text text-anchor="middle" x="240.5" y="-211.8" font-family="Times,serif" font-size="14.00">b</text>
<text text-anchor="middle" x="240.5" y="-196.8" font-family="Times,serif" font-size="14.00">{0}</text>
</g>
<!-- 4 -->
<g id="node5" class="node"><title>4</title>
<ellipse fill="none" stroke="black" cx="77" cy="-121" rx="18" ry="18"/>
<text text-anchor="middle" x="77" y="-117.3" font-family="Times,serif" font-size="14.00">4</text>
</g>
<!-- 4&#45;&gt;1 -->
<g id="edge12" class="edge"><title>4&#45;&gt;1</title>
<path fill="none" stroke="black" d="M77,-102.799C77,-91.1626 77,-75.5479 77,-62.2368"/>
<polygon fill="black" stroke="black" points="80.5001,-62.1754 77,-52.1754 73.5001,-62.1755 80.5001,-62.1754"/>
<text text-anchor="middle" x="82.5" y="-73.8" font-family="Times,serif" font-size="14.00">!a</text>
</g>
<!-- 4&#45;&gt;4 -->
<g id="edge13" class="edge"><title>4&#45;&gt;4</title>
<path fill="none" stroke="black" d="M93.6641,-128.383C103.625,-130.023 113,-127.562 113,-121 113,-116.796 109.152,-114.275 103.768,-113.438"/>
<polygon fill="black" stroke="black" points="103.6,-109.94 93.6641,-113.617 103.725,-116.939 103.6,-109.94"/>
<text text-anchor="middle" x="116.5" y="-117.3" font-family="Times,serif" font-size="14.00">a</text>
</g>
<!-- 3&#45;&gt;0 -->
<g id="edge8" class="edge"><title>3&#45;&gt;0</title>
<path fill="none" stroke="black" d="M54.2695,-220.203C60.6404,-226.465 67.6125,-234.843 71,-244 75.7559,-256.856 73.0872,-271.772 68.8586,-284.069"/>
<polygon fill="black" stroke="black" points="65.4808,-283.094 65.0684,-293.681 71.9928,-285.662 65.4808,-283.094"/>
<text text-anchor="middle" x="94" y="-262.8" font-family="Times,serif" font-size="14.00">!a &amp; !c</text>
<text text-anchor="middle" x="94" y="-247.8" font-family="Times,serif" font-size="14.00">{0}</text>
</g>
<!-- 3&#45;&gt;1 -->
<g id="edge9" class="edge"><title>3&#45;&gt;1</title>
<path fill="none" stroke="black" d="M31.2138,-192.734C17.5943,-170.978 -3.8214,-128.505 11,-95 19.5885,-75.5852 37.9061,-59.7575 53.0695,-49.2427"/>
<polygon fill="black" stroke="black" points="55.1009,-52.0959 61.5355,-43.6788 51.2564,-46.2461 55.1009,-52.0959"/>
<text text-anchor="middle" x="29" y="-117.3" font-family="Times,serif" font-size="14.00">!a &amp; c</text>
</g>
<!-- 3&#45;&gt;4 -->
<g id="edge11" class="edge"><title>3&#45;&gt;4</title>
<path fill="none" stroke="black" d="M47.7713,-191.012C53.0008,-178.665 60.3355,-161.347 66.349,-147.148"/>
<polygon fill="black" stroke="black" points="69.5819,-148.489 70.259,-137.916 63.1362,-145.759 69.5819,-148.489"/>
<text text-anchor="middle" x="77.5" y="-160.8" font-family="Times,serif" font-size="14.00">a &amp; c</text>
</g>
<!-- 3&#45;&gt;3 -->
<g id="edge10" class="edge"><title>3&#45;&gt;3</title>
<path fill="none" stroke="black" d="M57.6641,-215.383C67.625,-217.023 77,-214.562 77,-208 77,-203.796 73.1525,-201.275 67.7682,-200.438"/>
<polygon fill="black" stroke="black" points="67.6002,-196.94 57.6641,-200.617 67.7247,-203.939 67.6002,-196.94"/>
<text text-anchor="middle" x="95" y="-204.3" font-family="Times,serif" font-size="14.00">a &amp; !c</text>
</g>
</g>
</svg>
