<?xml version="1.0" encoding="UTF-8" standalone="no"?>
<?xml-stylesheet href="spot.css" type="text/css"?>
<!DOCTYPE svg PUBLIC "-//W3C//DTD SVG 1.1//EN"
 "http://www.w3.org/Graphics/SVG/1.1/DTD/svg11.dtd">
<!-- Generated by graphviz version 2.38.0 (20140413.2041)
 -->
<!-- Title: G Pages: 1 -->
<svg width="344pt" height="133pt"
 viewBox="0.00 0.00 344.00 133.03" xmlns="http://www.w3.org/2000/svg" xmlns:xlink="http://www.w3.org/1999/xlink">
<g id="graph0" class="graph" transform="scale(1 1) rotate(0) translate(4 129.028)">
<title>G</title>
<polygon fill="white" stroke="none" points="-4,4 -4,-129.028 340,-129.028 340,4 -4,4"/>
<!-- I -->
<!-- 0 -->
<g id="node2" class="node"><title>0</title>
<ellipse fill="#ffffa0" stroke="black" cx="56" cy="-55.0279" rx="18" ry="18"/>
<text text-anchor="middle" x="56" y="-51.9279" font-family="Lato" font-size="12.00">0</text>
</g>
<!-- I&#45;&gt;0 -->
<g id="edge1" class="edge"><title>I&#45;&gt;0</title>
<path fill="none" stroke="black" d="M1.15491,-55.0279C2.79388,-55.0279 17.1543,-55.0279 30.6317,-55.0279"/>
<polygon fill="black" stroke="black" points="37.9419,-55.0279 30.9419,-58.178 34.4419,-55.0279 30.9419,-55.028 30.9419,-55.028 30.9419,-55.028 34.4419,-55.0279 30.9418,-51.878 37.9419,-55.0279 37.9419,-55.0279"/>
</g>
<!-- 1 -->
<g id="node3" class="node"><title>1</title>
<ellipse fill="#ffffa0" stroke="black" cx="312" cy="-47.0279" rx="18" ry="18"/>
<ellipse fill="none" stroke="black" cx="312" cy="-47.0279" rx="22" ry="22"/>
<text text-anchor="middle" x="312" y="-43.9279" font-family="Lato" font-size="12.00">1</text>
</g>
<!-- 0&#45;&gt;1 -->
<g id="edge2" class="edge"><title>0&#45;&gt;1</title>
<path fill="none" stroke="black" d="M70.7262,-66.0758C96.7074,-85.6141 155.04,-122.95 206,-109.028 237.226,-100.497 268.609,-80.038 288.822,-64.9436"/>
<polygon fill="black" stroke="black" points="294.47,-60.647 290.806,-67.3921 291.685,-62.766 288.899,-64.885 288.899,-64.885 288.899,-64.885 291.685,-62.766 286.992,-62.3779 294.47,-60.647 294.47,-60.647"/>
<text text-anchor="start" x="158" y="-115.428" font-family="Lato" font-size="12.00">!p0 &amp; !p1</text>
</g>
<!-- 2 -->
<g id="node4" class="node"><title>2</title>
<ellipse fill="#ffffa0" stroke="black" cx="182" cy="-47.0279" rx="18" ry="18"/>
<ellipse fill="none" stroke="black" cx="182" cy="-47.0279" rx="22" ry="22"/>
<text text-anchor="middle" x="182" y="-43.9279" font-family="Lato" font-size="12.00">2</text>
</g>
<!-- 0&#45;&gt;2 -->
<g id="edge3" class="edge"><title>0&#45;&gt;2</title>
<path fill="none" stroke="black" d="M74.1828,-54.446C90.9782,-53.8192 117.266,-52.6836 140,-51.0279 144.113,-50.7283 148.452,-50.3608 152.708,-49.9711"/>
<polygon fill="black" stroke="black" points="159.737,-49.3025 153.067,-53.1014 156.253,-49.634 152.769,-49.9655 152.769,-49.9655 152.769,-49.9655 156.253,-49.634 152.47,-46.8297 159.737,-49.3025 159.737,-49.3025"/>
<text text-anchor="start" x="92" y="-56.4279" font-family="Lato" font-size="12.00">!p0 &amp; !p1</text>
</g>
<!-- 1&#45;&gt;0 -->
<g id="edge5" class="edge"><title>1&#45;&gt;0</title>
<path fill="none" stroke="black" d="M292.377,-36.5399C271.933,-25.6777 237.779,-9.41709 206,-3.02785 185.085,1.17716 179.01,0.673543 158,-3.02785 127.261,-8.44332 119.214,-11.7428 92,-27.0279 86.3433,-30.205 80.6587,-34.2827 75.5645,-38.3372"/>
<polygon fill="black" stroke="black" points="69.8925,-43.0309 73.2771,-36.1413 72.5889,-40.7995 75.2854,-38.5681 75.2854,-38.5681 75.2854,-38.5681 72.5889,-40.7995 77.2937,-40.995 69.8925,-43.0309 69.8925,-43.0309"/>
<text text-anchor="start" x="161" y="-6.42785" font-family="Lato" font-size="12.00">p0 &amp; p1</text>
</g>
<!-- 1&#45;&gt;1 -->
<g id="edge4" class="edge"><title>1&#45;&gt;1</title>
<path fill="none" stroke="black" d="M300.659,-65.9582C298.345,-76.87 302.125,-87.0279 312,-87.0279 319.561,-87.0279 323.548,-81.0735 323.964,-73.3852"/>
<polygon fill="black" stroke="black" points="323.341,-65.9582 327.065,-72.6704 323.633,-69.4459 323.926,-72.9337 323.926,-72.9337 323.926,-72.9337 323.633,-69.4459 320.787,-73.197 323.341,-65.9582 323.341,-65.9582"/>
<text text-anchor="start" x="288" y="-90.4279" font-family="Lato" font-size="12.00">!p0 &amp; !p1</text>
</g>
<!-- 2&#45;&gt;0 -->
<g id="edge6" class="edge"><title>2&#45;&gt;0</title>
<path fill="none" stroke="black" d="M161.263,-39.537C143.032,-33.6956 115.326,-27.567 92,-34.0279 86.8355,-35.4583 81.6679,-37.8763 76.9498,-40.5734"/>
<polygon fill="black" stroke="black" points="70.8371,-44.3579 75.1306,-37.9948 73.8129,-42.5155 76.7888,-40.6731 76.7888,-40.6731 76.7888,-40.6731 73.8129,-42.5155 78.4469,-43.3513 70.8371,-44.3579 70.8371,-44.3579"/>
<text text-anchor="start" x="95" y="-37.4279" font-family="Lato" font-size="12.00">p0 &amp; p1</text>
</g>
<!-- 2&#45;&gt;1 -->
<g id="edge8" class="edge"><title>2&#45;&gt;1</title>
<path fill="none" stroke="black" d="M204.137,-47.0279C225.63,-47.0279 259.059,-47.0279 282.799,-47.0279"/>
<polygon fill="black" stroke="black" points="289.832,-47.0279 282.832,-50.178 286.332,-47.0279 282.832,-47.028 282.832,-47.028 282.832,-47.028 286.332,-47.0279 282.832,-43.878 289.832,-47.0279 289.832,-47.0279"/>
<text text-anchor="start" x="224" y="-50.4279" font-family="Lato" font-size="12.00">!p0 &amp; !p1</text>
</g>
<!-- 2&#45;&gt;2 -->
<g id="edge7" class="edge"><title>2&#45;&gt;2</title>
<path fill="none" stroke="black" d="M170.305,-65.9582C167.918,-76.87 171.816,-87.0279 182,-87.0279 189.797,-87.0279 193.909,-81.0735 194.338,-73.3852"/>
<polygon fill="black" stroke="black" points="193.695,-65.9582 197.437,-72.6607 193.997,-69.4452 194.299,-72.9322 194.299,-72.9322 194.299,-72.9322 193.997,-69.4452 191.16,-73.2037 193.695,-65.9582 193.695,-65.9582"/>
<text text-anchor="start" x="159.5" y="-90.4279" font-family="Lato" font-size="12.00">p0 &amp; !p1</text>
</g>
</g>
</svg>
