<?xml version="1.0" encoding="UTF-8" standalone="no"?>
<?xml-stylesheet href="spot.css" type="text/css"?>
<!DOCTYPE svg PUBLIC "-//W3C//DTD SVG 1.1//EN"
 "http://www.w3.org/Graphics/SVG/1.1/DTD/svg11.dtd">
<!-- Generated by graphviz version 2.38.0 (20140413.2041)
 -->
<!-- Title: G Pages: 1 -->
<svg width="934pt" height="367pt"
 viewBox="0.00 0.00 934.00 366.58" xmlns="http://www.w3.org/2000/svg" xmlns:xlink="http://www.w3.org/1999/xlink">
<g id="graph0" class="graph" transform="scale(1 1) rotate(0) translate(4 362.584)">
<title>G</title>
<polygon fill="white" stroke="none" points="-4,4 -4,-362.584 930,-362.584 930,4 -4,4"/>
<text text-anchor="start" x="366" y="-345.984" font-family="Lato" font-size="12.00">Fin(</text>
<text text-anchor="start" x="386" y="-345.984" font-family="Lato" font-size="12.00" fill="#1f78b4">⓿</text>
<text text-anchor="start" x="400" y="-345.984" font-family="Lato" font-size="12.00">) &amp; (Inf(</text>
<text text-anchor="start" x="438" y="-345.984" font-family="Lato" font-size="12.00" fill="#ff4da0">❶</text>
<text text-anchor="start" x="452" y="-345.984" font-family="Lato" font-size="12.00">) | (Fin(</text>
<text text-anchor="start" x="487" y="-345.984" font-family="Lato" font-size="12.00" fill="#ff7f00">❷</text>
<text text-anchor="start" x="501" y="-345.984" font-family="Lato" font-size="12.00">) &amp; Inf(</text>
<text text-anchor="start" x="536" y="-345.984" font-family="Lato" font-size="12.00" fill="#6a3d9a">❸</text>
<text text-anchor="start" x="550" y="-345.984" font-family="Lato" font-size="12.00">)))</text>
<text text-anchor="start" x="416" y="-333.984" font-family="Lato" font-size="12.00">[parity min odd 4]</text>
<g id="clust1" class="cluster"><title>cluster_0</title>
<polygon fill="none" stroke="green" points="554,-116.584 554,-292.584 918,-292.584 918,-116.584 554,-116.584"/>
</g>
<g id="clust2" class="cluster"><title>cluster_1</title>
<polygon fill="none" stroke="black" points="451,-83.5843 451,-135.584 503,-135.584 503,-83.5843 451,-83.5843"/>
</g>
<g id="clust3" class="cluster"><title>cluster_2</title>
<polygon fill="none" stroke="red" points="345,-20.5843 345,-116.584 397,-116.584 397,-20.5843 345,-20.5843"/>
</g>
<g id="clust4" class="cluster"><title>cluster_3</title>
<polygon fill="none" stroke="green" points="136,-126.584 136,-235.584 291,-235.584 291,-126.584 136,-126.584"/>
</g>
<g id="clust5" class="cluster"><title>cluster_4</title>
<polygon fill="none" stroke="green" points="30,-9.58427 30,-118.584 188,-118.584 188,-9.58427 30,-9.58427"/>
</g>
<!-- I -->
<!-- 0 -->
<g id="node2" class="node"><title>0</title>
<ellipse fill="#ffffa0" stroke="black" cx="56" cy="-88.5843" rx="18" ry="18"/>
<text text-anchor="middle" x="56" y="-85.4843" font-family="Lato" font-size="12.00">0</text>
</g>
<!-- I&#45;&gt;0 -->
<g id="edge1" class="edge"><title>I&#45;&gt;0</title>
<path fill="none" stroke="black" d="M1.15491,-88.5843C2.79388,-88.5843 17.1543,-88.5843 30.6317,-88.5843"/>
<polygon fill="black" stroke="black" points="37.9419,-88.5843 30.9419,-91.7344 34.4419,-88.5843 30.9419,-88.5844 30.9419,-88.5844 30.9419,-88.5844 34.4419,-88.5843 30.9418,-85.4344 37.9419,-88.5843 37.9419,-88.5843"/>
</g>
<!-- 1 -->
<g id="node3" class="node"><title>1</title>
<ellipse fill="#ffffa0" stroke="black" cx="580" cy="-246.584" rx="18" ry="18"/>
<text text-anchor="middle" x="580" y="-243.484" font-family="Lato" font-size="12.00">1</text>
</g>
<!-- 0&#45;&gt;1 -->
<g id="edge2" class="edge"><title>0&#45;&gt;1</title>
<path fill="none" stroke="black" d="M57.528,-106.659C60.0781,-157.927 74.9089,-300.584 161,-300.584 161,-300.584 161,-300.584 478,-300.584 510.075,-300.584 541.83,-279.143 560.933,-263.282"/>
<polygon fill="black" stroke="black" points="566.442,-258.569 563.171,-265.513 563.782,-260.844 561.123,-263.12 561.123,-263.12 561.123,-263.12 563.782,-260.844 559.075,-260.726 566.442,-258.569 566.442,-258.569"/>
<text text-anchor="start" x="304" y="-316.984" font-family="Lato" font-size="12.00">a &amp; b</text>
<text text-anchor="start" x="311" y="-303.984" font-family="Lato" font-size="12.00" fill="#1f78b4">⓿</text>
</g>
<!-- 3 -->
<g id="node9" class="node"><title>3</title>
<ellipse fill="#ffffa0" stroke="black" cx="162" cy="-177.584" rx="18" ry="18"/>
<text text-anchor="middle" x="162" y="-174.484" font-family="Lato" font-size="12.00">3</text>
</g>
<!-- 0&#45;&gt;3 -->
<g id="edge4" class="edge"><title>0&#45;&gt;3</title>
<path fill="none" stroke="black" d="M70.1717,-99.8562C88.3574,-115.419 121.264,-143.579 142.079,-161.392"/>
<polygon fill="black" stroke="black" points="147.607,-166.123 140.24,-163.965 144.948,-163.847 142.288,-161.571 142.288,-161.571 142.288,-161.571 144.948,-163.847 144.336,-159.178 147.607,-166.123 147.607,-166.123"/>
<text text-anchor="start" x="92" y="-162.984" font-family="Lato" font-size="12.00">!a &amp; !b</text>
<text text-anchor="start" x="102" y="-149.984" font-family="Lato" font-size="12.00" fill="#6a3d9a">❸</text>
</g>
<!-- 4 -->
<g id="node11" class="node"><title>4</title>
<ellipse fill="#ffffa0" stroke="black" cx="162" cy="-41.5843" rx="18" ry="18"/>
<text text-anchor="middle" x="162" y="-38.4843" font-family="Lato" font-size="12.00">4</text>
</g>
<!-- 0&#45;&gt;4 -->
<g id="edge3" class="edge"><title>0&#45;&gt;4</title>
<path fill="none" stroke="black" d="M63.1783,-71.9155C68.6927,-59.6967 78.0714,-43.999 92,-36.5843 105.994,-29.1348 123.9,-30.6964 137.964,-33.9572"/>
<polygon fill="black" stroke="black" points="144.928,-35.7786 137.358,-37.0546 141.542,-34.8929 138.156,-34.0071 138.156,-34.0071 138.156,-34.0071 141.542,-34.8929 138.953,-30.9597 144.928,-35.7786 144.928,-35.7786"/>
<text text-anchor="start" x="93.5" y="-52.9843" font-family="Lato" font-size="12.00">a &amp; !b</text>
<text text-anchor="start" x="102" y="-39.9843" font-family="Lato" font-size="12.00" fill="#ff4da0">❶</text>
</g>
<!-- 7 -->
<g id="node4" class="node"><title>7</title>
<ellipse fill="#ffffa0" stroke="black" cx="683" cy="-160.584" rx="18" ry="18"/>
<text text-anchor="middle" x="683" y="-157.484" font-family="Lato" font-size="12.00">7</text>
</g>
<!-- 1&#45;&gt;7 -->
<g id="edge5" class="edge"><title>1&#45;&gt;7</title>
<path fill="none" stroke="black" d="M594.204,-235.341C611.897,-220.276 643.391,-193.46 663.457,-176.373"/>
<polygon fill="black" stroke="black" points="668.793,-171.83 665.505,-178.767 666.128,-174.099 663.463,-176.368 663.463,-176.368 663.463,-176.368 666.128,-174.099 661.421,-173.97 668.793,-171.83 668.793,-171.83"/>
<text text-anchor="start" x="616" y="-232.984" font-family="Lato" font-size="12.00">a &amp; !b</text>
<text text-anchor="start" x="624.5" y="-219.984" font-family="Lato" font-size="12.00" fill="#ff4da0">❶</text>
</g>
<!-- 7&#45;&gt;7 -->
<g id="edge18" class="edge"><title>7&#45;&gt;7</title>
<path fill="none" stroke="black" d="M674.367,-176.5C672.114,-186.735 674.992,-196.584 683,-196.584 689.131,-196.584 692.255,-190.811 692.372,-183.511"/>
<polygon fill="black" stroke="black" points="691.633,-176.5 695.499,-183.132 692,-179.981 692.367,-183.462 692.367,-183.462 692.367,-183.462 692,-179.981 689.234,-183.792 691.633,-176.5 691.633,-176.5"/>
<text text-anchor="start" x="669" y="-212.984" font-family="Lato" font-size="12.00">a &amp; b</text>
<text text-anchor="start" x="676" y="-199.984" font-family="Lato" font-size="12.00" fill="#ff7f00">❷</text>
</g>
<!-- 5 -->
<g id="node5" class="node"><title>5</title>
<ellipse fill="#ffffa0" stroke="black" cx="786" cy="-142.584" rx="18" ry="18"/>
<text text-anchor="middle" x="786" y="-139.484" font-family="Lato" font-size="12.00">5</text>
</g>
<!-- 7&#45;&gt;5 -->
<g id="edge17" class="edge"><title>7&#45;&gt;5</title>
<path fill="none" stroke="black" d="M700.131,-166.814C713.744,-171.129 733.581,-175.181 750,-169.584 756.161,-167.484 762.081,-163.812 767.244,-159.84"/>
<polygon fill="black" stroke="black" points="772.926,-155.116 769.557,-162.013 770.234,-157.354 767.543,-159.591 767.543,-159.591 767.543,-159.591 770.234,-157.354 765.529,-157.169 772.926,-155.116 772.926,-155.116"/>
<text text-anchor="start" x="720.5" y="-188.984" font-family="Lato" font-size="12.00">a &amp; b</text>
<text text-anchor="start" x="727.5" y="-175.984" font-family="Lato" font-size="12.00" fill="#ff7f00">❷</text>
</g>
<!-- 6 -->
<g id="node6" class="node"><title>6</title>
<ellipse fill="#ffffa0" stroke="black" cx="892" cy="-196.584" rx="18" ry="18"/>
<text text-anchor="middle" x="892" y="-193.484" font-family="Lato" font-size="12.00">6</text>
</g>
<!-- 7&#45;&gt;6 -->
<g id="edge19" class="edge"><title>7&#45;&gt;6</title>
<path fill="none" stroke="black" d="M692.471,-176.487C698.73,-187.126 708.045,-200.899 719,-210.584 737.47,-226.914 744.076,-230.63 768,-236.584 804.805,-245.744 846.588,-225.404 870.757,-210.504"/>
<polygon fill="black" stroke="black" points="876.799,-206.665 872.58,-213.078 873.845,-208.542 870.891,-210.419 870.891,-210.419 870.891,-210.419 873.845,-208.542 869.201,-207.76 876.799,-206.665 876.799,-206.665"/>
<text text-anchor="start" x="769" y="-255.984" font-family="Lato" font-size="12.00">!a &amp; !b</text>
<text text-anchor="start" x="779" y="-242.984" font-family="Lato" font-size="12.00" fill="#6a3d9a">❸</text>
</g>
<!-- 5&#45;&gt;1 -->
<g id="edge14" class="edge"><title>5&#45;&gt;1</title>
<path fill="none" stroke="black" d="M778.285,-158.851C772.313,-171.849 762.58,-189.924 750,-202.584 732.163,-220.535 724.282,-221.667 701,-231.584 678.084,-241.345 671.68,-243.22 647,-246.584 633.239,-248.46 617.712,-248.56 605.178,-248.144"/>
<polygon fill="black" stroke="black" points="598.179,-247.85 605.306,-244.997 601.676,-247.997 605.173,-248.144 605.173,-248.144 605.173,-248.144 601.676,-247.997 605.041,-251.291 598.179,-247.85 598.179,-247.85"/>
<text text-anchor="start" x="667.5" y="-260.984" font-family="Lato" font-size="12.00">!a &amp; b</text>
<text text-anchor="start" x="676" y="-247.984" font-family="Lato" font-size="12.00" fill="#ff7f00">❷</text>
</g>
<!-- 5&#45;&gt;7 -->
<g id="edge13" class="edge"><title>5&#45;&gt;7</title>
<path fill="none" stroke="black" d="M767.93,-140.834C754.455,-139.93 735.276,-139.71 719,-143.584 714.429,-144.672 709.757,-146.424 705.378,-148.399"/>
<polygon fill="black" stroke="black" points="698.793,-151.622 703.695,-145.715 701.936,-150.083 705.08,-148.545 705.08,-148.545 705.08,-148.545 701.936,-150.083 706.465,-151.374 698.793,-151.622 698.793,-151.622"/>
<text text-anchor="start" x="719" y="-159.984" font-family="Lato" font-size="12.00">a &amp; !b</text>
<text text-anchor="start" x="727.5" y="-146.984" font-family="Lato" font-size="12.00" fill="#1f78b4">⓿</text>
</g>
<!-- 5&#45;&gt;6 -->
<g id="edge15" class="edge"><title>5&#45;&gt;6</title>
<path fill="none" stroke="black" d="M803.679,-146.139C818.167,-149.683 839.375,-155.992 856,-165.584 862.196,-169.159 868.274,-173.946 873.58,-178.687"/>
<polygon fill="black" stroke="black" points="879.005,-183.755 871.739,-181.278 876.447,-181.365 873.889,-178.976 873.889,-178.976 873.889,-178.976 876.447,-181.365 876.04,-176.674 879.005,-183.755 879.005,-183.755"/>
<text text-anchor="start" x="822" y="-181.984" font-family="Lato" font-size="12.00">!a &amp; !b</text>
<text text-anchor="start" x="832" y="-168.984" font-family="Lato" font-size="12.00" fill="#1f78b4">⓿</text>
</g>
<!-- 6&#45;&gt;7 -->
<g id="edge16" class="edge"><title>6&#45;&gt;7</title>
<path fill="none" stroke="black" d="M874.078,-199.099C836.268,-204.413 746.126,-215.289 719,-202.584 709.822,-198.285 702.211,-190.265 696.456,-182.376"/>
<polygon fill="black" stroke="black" points="692.423,-176.433 698.96,-180.456 694.388,-179.329 696.354,-182.225 696.354,-182.225 696.354,-182.225 694.388,-179.329 693.747,-183.994 692.423,-176.433 692.423,-176.433"/>
<text text-anchor="start" x="770.5" y="-224.984" font-family="Lato" font-size="12.00">!a &amp; b</text>
<text text-anchor="start" x="779" y="-211.984" font-family="Lato" font-size="12.00" fill="#6a3d9a">❸</text>
</g>
<!-- 2 -->
<g id="node7" class="node"><title>2</title>
<ellipse fill="#ffffa0" stroke="black" cx="477" cy="-109.584" rx="18" ry="18"/>
<text text-anchor="middle" x="477" y="-106.484" font-family="Lato" font-size="12.00">2</text>
</g>
<!-- 2&#45;&gt;1 -->
<g id="edge6" class="edge"><title>2&#45;&gt;1</title>
<path fill="none" stroke="black" d="M488.428,-123.73C506.422,-148.136 543.357,-198.236 564.071,-226.334"/>
<polygon fill="black" stroke="black" points="568.477,-232.311 561.788,-228.545 566.4,-229.493 564.323,-226.676 564.323,-226.676 564.323,-226.676 566.4,-229.493 566.859,-224.807 568.477,-232.311 568.477,-232.311"/>
<text text-anchor="start" x="514.5" y="-214.984" font-family="Lato" font-size="12.00">a &amp; b</text>
<text text-anchor="start" x="521.5" y="-201.984" font-family="Lato" font-size="12.00" fill="#1f78b4">⓿</text>
</g>
<!-- 2&#45;&gt;5 -->
<g id="edge7" class="edge"><title>2&#45;&gt;5</title>
<path fill="none" stroke="black" d="M495.234,-110.869C538.304,-114.171 654.066,-123.616 750,-136.584 753.574,-137.067 757.342,-137.643 761.029,-138.244"/>
<polygon fill="black" stroke="black" points="767.947,-139.412 760.521,-141.352 764.496,-138.829 761.045,-138.246 761.045,-138.246 761.045,-138.246 764.496,-138.829 761.57,-135.14 767.947,-139.412 767.947,-139.412"/>
<text text-anchor="start" x="616" y="-140.984" font-family="Lato" font-size="12.00">a &amp; !b</text>
<text text-anchor="start" x="624.5" y="-127.984" font-family="Lato" font-size="12.00" fill="#ff4da0">❶</text>
</g>
<!-- 9 -->
<g id="node8" class="node"><title>9</title>
<ellipse fill="#ffffa0" stroke="black" cx="371" cy="-46.5843" rx="18" ry="18"/>
<text text-anchor="middle" x="371" y="-43.4843" font-family="Lato" font-size="12.00">9</text>
</g>
<!-- 9&#45;&gt;2 -->
<g id="edge25" class="edge"><title>9&#45;&gt;2</title>
<path fill="none" stroke="black" d="M386.901,-55.6106C404.74,-66.4174 434.736,-84.5876 454.939,-96.8263"/>
<polygon fill="black" stroke="black" points="461.127,-100.575 453.508,-99.642 458.133,-98.7612 455.14,-96.9478 455.14,-96.9478 455.14,-96.9478 458.133,-98.7612 456.772,-94.2535 461.127,-100.575 461.127,-100.575"/>
<text text-anchor="start" x="407" y="-103.984" font-family="Lato" font-size="12.00">!a &amp; !b</text>
<text text-anchor="start" x="417" y="-90.9843" font-family="Lato" font-size="12.00" fill="#1f78b4">⓿</text>
</g>
<!-- 9&#45;&gt;9 -->
<g id="edge26" class="edge"><title>9&#45;&gt;9</title>
<path fill="none" stroke="black" d="M362.021,-62.5003C359.679,-72.7347 362.672,-82.5843 371,-82.5843 377.376,-82.5843 380.625,-76.8106 380.746,-69.5111"/>
<polygon fill="black" stroke="black" points="379.979,-62.5003 383.872,-69.1158 380.36,-65.9795 380.741,-69.4587 380.741,-69.4587 380.741,-69.4587 380.36,-65.9795 377.61,-69.8016 379.979,-62.5003 379.979,-62.5003"/>
<text text-anchor="start" x="357" y="-98.9843" font-family="Lato" font-size="12.00">a &amp; b</text>
<text text-anchor="start" x="364" y="-85.9843" font-family="Lato" font-size="12.00" fill="#ff7f00">❷</text>
</g>
<!-- 3&#45;&gt;1 -->
<g id="edge8" class="edge"><title>3&#45;&gt;1</title>
<path fill="none" stroke="black" d="M173.751,-191.547C190.607,-211.709 225.351,-246.584 264,-246.584 264,-246.584 264,-246.584 478,-246.584 504.236,-246.584 534.306,-246.584 554.766,-246.584"/>
<polygon fill="black" stroke="black" points="561.844,-246.584 554.844,-249.734 558.344,-246.584 554.844,-246.584 554.844,-246.584 554.844,-246.584 558.344,-246.584 554.844,-243.434 561.844,-246.584 561.844,-246.584"/>
<text text-anchor="start" x="357" y="-262.984" font-family="Lato" font-size="12.00">a &amp; b</text>
<text text-anchor="start" x="364" y="-249.984" font-family="Lato" font-size="12.00" fill="#6a3d9a">❸</text>
</g>
<!-- 8 -->
<g id="node10" class="node"><title>8</title>
<ellipse fill="#ffffa0" stroke="black" cx="265" cy="-152.584" rx="18" ry="18"/>
<text text-anchor="middle" x="265" y="-149.484" font-family="Lato" font-size="12.00">8</text>
</g>
<!-- 3&#45;&gt;8 -->
<g id="edge9" class="edge"><title>3&#45;&gt;8</title>
<path fill="none" stroke="black" d="M175.972,-165.974C182.18,-161.169 189.996,-156.131 198,-153.584 211.419,-149.314 227.162,-148.913 239.907,-149.65"/>
<polygon fill="black" stroke="black" points="247.024,-150.195 239.804,-152.801 243.534,-149.928 240.045,-149.661 240.045,-149.661 240.045,-149.661 243.534,-149.928 240.285,-146.52 247.024,-150.195 247.024,-150.195"/>
<text text-anchor="start" x="198" y="-169.984" font-family="Lato" font-size="12.00">!a &amp; b</text>
<text text-anchor="start" x="206.5" y="-156.984" font-family="Lato" font-size="12.00" fill="#ff4da0">❶</text>
</g>
<!-- 8&#45;&gt;7 -->
<g id="edge21" class="edge"><title>8&#45;&gt;7</title>
<path fill="none" stroke="black" d="M282.82,-156.729C298.725,-160.42 323.318,-165.544 345,-167.584 461.576,-178.554 601.792,-168.099 657.479,-163.01"/>
<polygon fill="black" stroke="black" points="664.764,-162.33 658.087,-166.117 661.28,-162.655 657.795,-162.98 657.795,-162.98 657.795,-162.98 661.28,-162.655 657.502,-159.844 664.764,-162.33 664.764,-162.33"/>
<text text-anchor="start" x="460" y="-188.984" font-family="Lato" font-size="12.00">!a &amp; !b</text>
<text text-anchor="start" x="470" y="-175.984" font-family="Lato" font-size="12.00" fill="#6a3d9a">❸</text>
</g>
<!-- 8&#45;&gt;5 -->
<g id="edge24" class="edge"><title>8&#45;&gt;5</title>
<path fill="none" stroke="black" d="M270.331,-135.009C278.836,-104.71 300.861,-43.3255 345,-16.5843 375.267,1.75282 387.612,-0.584272 423,-0.584272 423,-0.584272 423,-0.584272 684,-0.584272 741.078,-0.584272 768.883,-77.7142 779.561,-118.285"/>
<polygon fill="black" stroke="black" points="781.301,-125.172 776.532,-119.157 780.444,-121.779 779.586,-118.386 779.586,-118.386 779.586,-118.386 780.444,-121.779 782.64,-117.614 781.301,-125.172 781.301,-125.172"/>
<text text-anchor="start" x="513" y="-16.9843" font-family="Lato" font-size="12.00">a &amp; !b</text>
<text text-anchor="start" x="521.5" y="-3.98427" font-family="Lato" font-size="12.00" fill="#ff7f00">❷</text>
</g>
<!-- 8&#45;&gt;2 -->
<g id="edge22" class="edge"><title>8&#45;&gt;2</title>
<path fill="none" stroke="black" d="M282.925,-149.359C314.2,-143.363 383.134,-129.982 441,-117.584 444.64,-116.804 448.486,-115.953 452.244,-115.106"/>
<polygon fill="black" stroke="black" points="459.286,-113.502 453.16,-118.128 455.873,-114.28 452.461,-115.057 452.461,-115.057 452.461,-115.057 455.873,-114.28 451.761,-111.986 459.286,-113.502 459.286,-113.502"/>
<text text-anchor="start" x="355.5" y="-153.984" font-family="Lato" font-size="12.00">a &amp; !b</text>
<text text-anchor="start" x="364" y="-140.984" font-family="Lato" font-size="12.00" fill="#6a3d9a">❸</text>
</g>
<!-- 8&#45;&gt;9 -->
<g id="edge23" class="edge"><title>8&#45;&gt;9</title>
<path fill="none" stroke="black" d="M275.553,-137.591C282.15,-127.744 291.43,-114.838 301,-104.584 316.135,-88.3674 335.665,-72.3269 350.081,-61.2394"/>
<polygon fill="black" stroke="black" points="355.919,-56.8049 352.251,-63.5475 353.132,-58.922 350.345,-61.0391 350.345,-61.0391 350.345,-61.0391 353.132,-58.922 348.44,-58.5307 355.919,-56.8049 355.919,-56.8049"/>
<text text-anchor="start" x="301" y="-120.984" font-family="Lato" font-size="12.00">!a &amp; !b</text>
<text text-anchor="start" x="311" y="-107.984" font-family="Lato" font-size="12.00" fill="#ff4da0">❶</text>
</g>
<!-- 8&#45;&gt;3 -->
<g id="edge20" class="edge"><title>8&#45;&gt;3</title>
<path fill="none" stroke="black" d="M251.926,-165.116C245.677,-170.698 237.571,-176.662 229,-179.584 215.576,-184.16 199.712,-183.846 186.902,-182.3"/>
<polygon fill="black" stroke="black" points="179.754,-181.275 187.131,-179.151 183.219,-181.772 186.683,-182.269 186.683,-182.269 186.683,-182.269 183.219,-181.772 186.236,-185.387 179.754,-181.275 179.754,-181.275"/>
<text text-anchor="start" x="198" y="-199.984" font-family="Lato" font-size="12.00">!a &amp; b</text>
<text text-anchor="start" x="206.5" y="-186.984" font-family="Lato" font-size="12.00" fill="#ff4da0">❶</text>
</g>
<!-- 4&#45;&gt;0 -->
<g id="edge11" class="edge"><title>4&#45;&gt;0</title>
<path fill="none" stroke="black" d="M146.34,-51.1847C140.196,-54.9946 132.89,-59.2527 126,-62.5843 111.083,-69.7974 93.6105,-76.3632 79.9807,-81.0922"/>
<polygon fill="black" stroke="black" points="73.2373,-83.3915 78.8461,-78.1509 76.55,-82.262 79.8627,-81.1324 79.8627,-81.1324 79.8627,-81.1324 76.55,-82.262 80.8793,-84.1139 73.2373,-83.3915 73.2373,-83.3915"/>
<text text-anchor="start" x="93.5" y="-92.9843" font-family="Lato" font-size="12.00">!a &amp; b</text>
<text text-anchor="start" x="102" y="-79.9843" font-family="Lato" font-size="12.00" fill="#6a3d9a">❸</text>
</g>
<!-- 4&#45;&gt;2 -->
<g id="edge10" class="edge"><title>4&#45;&gt;2</title>
<path fill="none" stroke="black" d="M178.654,-34.6305C217.597,-18.4178 321.158,17.98 397,-16.5843 428.406,-30.8974 451.834,-64.6581 464.719,-87.3167"/>
<polygon fill="black" stroke="black" points="468.223,-93.6728 462.085,-89.0641 466.533,-90.6079 464.843,-87.543 464.843,-87.543 464.843,-87.543 466.533,-90.6079 467.602,-86.0219 468.223,-93.6728 468.223,-93.6728"/>
<text text-anchor="start" x="302.5" y="-19.9843" font-family="Lato" font-size="12.00">!a &amp; b</text>
<text text-anchor="start" x="311" y="-6.98427" font-family="Lato" font-size="12.00" fill="#ff4da0">❶</text>
</g>
<!-- 4&#45;&gt;9 -->
<g id="edge12" class="edge"><title>4&#45;&gt;9</title>
<path fill="none" stroke="black" d="M180.293,-42.002C217.142,-42.892 303.48,-44.9775 345.779,-45.9992"/>
<polygon fill="black" stroke="black" points="352.902,-46.1713 345.828,-49.1512 349.403,-46.0867 345.904,-46.0022 345.904,-46.0022 345.904,-46.0022 349.403,-46.0867 345.98,-42.8531 352.902,-46.1713 352.902,-46.1713"/>
<text text-anchor="start" x="249.5" y="-61.9843" font-family="Lato" font-size="12.00">a &amp; !b</text>
<text text-anchor="start" x="258" y="-48.9843" font-family="Lato" font-size="12.00" fill="#1f78b4">⓿</text>
</g>
</g>
</svg>
