<?xml version="1.0" encoding="UTF-8" standalone="no"?>
<?xml-stylesheet href="spot.css" type="text/css"?>
<!DOCTYPE svg PUBLIC "-//W3C//DTD SVG 1.1//EN"
 "http://www.w3.org/Graphics/SVG/1.1/DTD/svg11.dtd">
<!-- Generated by graphviz version 2.38.0 (20140413.2041)
 -->
<!-- Title: G Pages: 1 -->
<svg width="330pt" height="125pt"
 viewBox="0.00 0.00 329.50 125.00" xmlns="http://www.w3.org/2000/svg" xmlns:xlink="http://www.w3.org/1999/xlink">
<g id="graph0" class="graph" transform="scale(1 1) rotate(0) translate(4 121)">
<title>G</title>
<polygon fill="white" stroke="none" points="-4,4 -4,-121 325.5,-121 325.5,4 -4,4"/>
<!-- I -->
<!-- 0 -->
<g id="node2" class="node"><title>0</title>
<ellipse fill="#ffffa0" stroke="black" cx="56" cy="-18" rx="18" ry="18"/>
<text text-anchor="middle" x="56" y="-14.9" font-family="Lato" font-size="12.00">0</text>
</g>
<!-- I&#45;&gt;0 -->
<g id="edge1" class="edge"><title>I&#45;&gt;0</title>
<path fill="none" stroke="black" d="M1.15491,-18C2.79388,-18 17.1543,-18 30.6317,-18"/>
<polygon fill="black" stroke="black" points="37.9419,-18 30.9419,-21.1501 34.4419,-18 30.9419,-18.0001 30.9419,-18.0001 30.9419,-18.0001 34.4419,-18 30.9418,-14.8501 37.9419,-18 37.9419,-18"/>
</g>
<!-- 0&#45;&gt;0 -->
<g id="edge3" class="edge"><title>0&#45;&gt;0</title>
<path fill="none" stroke="black" d="M49.6208,-35.0373C48.3189,-44.8579 50.4453,-54 56,-54 60.166,-54 62.4036,-48.8576 62.7128,-42.1433"/>
<polygon fill="black" stroke="black" points="62.3792,-35.0373 65.8541,-41.8818 62.5434,-38.5335 62.7076,-42.0296 62.7076,-42.0296 62.7076,-42.0296 62.5434,-38.5335 59.561,-42.1774 62.3792,-35.0373 62.3792,-35.0373"/>
<text text-anchor="start" x="32" y="-70.4" font-family="Lato" font-size="12.00">!p0 &amp; !p1</text>
<text text-anchor="start" x="49" y="-57.4" font-family="Lato" font-size="12.00" fill="#ff7f00">❷</text>
</g>
<!-- 1 -->
<g id="node3" class="node"><title>1</title>
<ellipse fill="#ffffa0" stroke="black" cx="179" cy="-57" rx="18" ry="18"/>
<text text-anchor="middle" x="179" y="-53.9" font-family="Lato" font-size="12.00">1</text>
</g>
<!-- 0&#45;&gt;1 -->
<g id="edge2" class="edge"><title>0&#45;&gt;1</title>
<path fill="none" stroke="black" d="M73.3186,-23.2597C94.3374,-30.0344 131,-41.8512 154.882,-49.5488"/>
<polygon fill="black" stroke="black" points="161.554,-51.6991 153.925,-52.5497 158.222,-50.6253 154.891,-49.5516 154.891,-49.5516 154.891,-49.5516 158.222,-50.6253 155.857,-46.5535 161.554,-51.6991 161.554,-51.6991"/>
<text text-anchor="start" x="92" y="-47.4" font-family="Lato" font-size="12.00">!p0 &amp; !p1</text>
</g>
<!-- 1&#45;&gt;1 -->
<g id="edge4" class="edge"><title>1&#45;&gt;1</title>
<path fill="none" stroke="black" d="M168.849,-72.1666C165.772,-82.6641 169.156,-93 179,-93 186.537,-93 190.287,-86.9413 190.25,-79.39"/>
<polygon fill="black" stroke="black" points="189.151,-72.1666 193.318,-78.6135 189.678,-75.6269 190.204,-79.0871 190.204,-79.0871 190.204,-79.0871 189.678,-75.6269 187.09,-79.5607 189.151,-72.1666 189.151,-72.1666"/>
<text text-anchor="start" x="156.5" y="-108.4" font-family="Lato" font-size="12.00">!p0 &amp; p1</text>
<text text-anchor="start" x="165" y="-96.4" font-family="Lato" font-size="12.00" fill="#1f78b4">⓿</text>
<text text-anchor="start" x="179" y="-96.4" font-family="Lato" font-size="12.00" fill="#ff4da0">❶</text>
</g>
<!-- 2 -->
<g id="node4" class="node"><title>2</title>
<ellipse fill="#ffffa0" stroke="black" cx="299" cy="-28" rx="18" ry="18"/>
<text text-anchor="middle" x="299" y="-24.9" font-family="Lato" font-size="12.00">2</text>
</g>
<!-- 1&#45;&gt;2 -->
<g id="edge5" class="edge"><title>1&#45;&gt;2</title>
<path fill="none" stroke="black" d="M197.091,-59.6172C214.275,-61.559 241.262,-62.7036 263,-55 269.135,-52.8258 275.046,-49.1288 280.209,-45.1565"/>
<polygon fill="black" stroke="black" points="285.894,-40.4418 282.517,-47.335 283.2,-42.676 280.506,-44.9103 280.506,-44.9103 280.506,-44.9103 283.2,-42.676 278.495,-42.4855 285.894,-40.4418 285.894,-40.4418"/>
<text text-anchor="start" x="218" y="-77.4" font-family="Lato" font-size="12.00">!p0 &amp; p1</text>
<text text-anchor="start" x="233.5" y="-64.4" font-family="Lato" font-size="12.00" fill="#ff4da0">❶</text>
</g>
<!-- 2&#45;&gt;0 -->
<g id="edge7" class="edge"><title>2&#45;&gt;0</title>
<path fill="none" stroke="black" d="M281.717,-22.5071C275.854,-20.6291 269.165,-18.6005 263,-17 217.486,-5.18409 204.912,-0.764176 158,-4 131.576,-5.82268 101.537,-10.2973 81.1366,-13.7012"/>
<polygon fill="black" stroke="black" points="74.0811,-14.8999 80.4545,-10.6218 77.5316,-14.3136 80.9822,-13.7273 80.9822,-13.7273 80.9822,-13.7273 77.5316,-14.3136 81.5099,-16.8328 74.0811,-14.8999 74.0811,-14.8999"/>
<text text-anchor="start" x="158" y="-20.4" font-family="Lato" font-size="12.00">p0 &amp; p1</text>
<text text-anchor="start" x="172" y="-7.4" font-family="Lato" font-size="12.00" fill="#1f78b4">⓿</text>
</g>
<!-- 2&#45;&gt;1 -->
<g id="edge6" class="edge"><title>2&#45;&gt;1</title>
<path fill="none" stroke="black" d="M281.188,-23.771C264.592,-20.4157 238.759,-17.4235 218,-25 210.184,-27.8526 202.863,-33.0993 196.773,-38.5308"/>
<polygon fill="black" stroke="black" points="191.548,-43.5074 194.444,-36.3987 194.082,-41.0935 196.617,-38.6797 196.617,-38.6797 196.617,-38.6797 194.082,-41.0935 198.789,-40.9607 191.548,-43.5074 191.548,-43.5074"/>
<text text-anchor="start" x="218" y="-41.4" font-family="Lato" font-size="12.00">!p0 &amp; p1</text>
<text text-anchor="start" x="233.5" y="-28.4" font-family="Lato" font-size="12.00" fill="#1f78b4">⓿</text>
</g>
<!-- 2&#45;&gt;2 -->
<g id="edge8" class="edge"><title>2&#45;&gt;2</title>
<path fill="none" stroke="black" d="M289.187,-43.1666C286.213,-53.6641 289.484,-64 299,-64 306.285,-64 309.91,-57.9413 309.875,-50.39"/>
<polygon fill="black" stroke="black" points="308.813,-43.1666 312.948,-49.6341 309.322,-46.6294 309.831,-50.0922 309.831,-50.0922 309.831,-50.0922 309.322,-46.6294 306.715,-50.5503 308.813,-43.1666 308.813,-43.1666"/>
<text text-anchor="start" x="276.5" y="-80.4" font-family="Lato" font-size="12.00">!p0 &amp; p1</text>
<text text-anchor="start" x="292" y="-67.4" font-family="Lato" font-size="12.00" fill="#1f78b4">⓿</text>
</g>
</g>
</svg>
