<?xml version="1.0" encoding="UTF-8" standalone="no"?>
<?xml-stylesheet href="spot.css" type="text/css"?>
<!DOCTYPE svg PUBLIC "-//W3C//DTD SVG 1.1//EN"
 "http://www.w3.org/Graphics/SVG/1.1/DTD/svg11.dtd">
<!-- Generated by graphviz version 2.38.0 (20140413.2041)
 -->
<!-- Title: G Pages: 1 -->
<svg width="274pt" height="116pt"
 viewBox="0.00 0.00 273.50 116.30" xmlns="http://www.w3.org/2000/svg" xmlns:xlink="http://www.w3.org/1999/xlink">
<g id="graph0" class="graph" transform="scale(1 1) rotate(0) translate(4 112.301)">
<title>G</title>
<polygon fill="white" stroke="none" points="-4,4 -4,-112.301 269.5,-112.301 269.5,4 -4,4"/>
<!-- I -->
<!-- 0 -->
<g id="node2" class="node"><title>0</title>
<ellipse fill="#ffffa0" stroke="black" cx="56" cy="-33.3011" rx="18" ry="18"/>
<text text-anchor="middle" x="56" y="-30.2011" font-family="Lato" font-size="12.00">0</text>
</g>
<!-- I&#45;&gt;0 -->
<g id="edge1" class="edge"><title>I&#45;&gt;0</title>
<path fill="none" stroke="black" d="M1.15491,-33.3011C2.79388,-33.3011 17.1543,-33.3011 30.6317,-33.3011"/>
<polygon fill="black" stroke="black" points="37.9419,-33.3011 30.9419,-36.4512 34.4419,-33.3011 30.9419,-33.3012 30.9419,-33.3012 30.9419,-33.3012 34.4419,-33.3011 30.9418,-30.1512 37.9419,-33.3011 37.9419,-33.3011"/>
</g>
<!-- 1 -->
<g id="node3" class="node"><title>1</title>
<ellipse fill="#ffffa0" stroke="black" cx="151" cy="-83.3011" rx="18" ry="18"/>
<text text-anchor="middle" x="151" y="-80.2011" font-family="Lato" font-size="12.00">1</text>
</g>
<!-- 0&#45;&gt;1 -->
<g id="edge2" class="edge"><title>0&#45;&gt;1</title>
<path fill="none" stroke="black" d="M65.1863,-49.0387C71.2061,-58.9061 80.3563,-70.9257 92,-77.3011 102.172,-82.8709 114.856,-84.6572 125.765,-84.9309"/>
<polygon fill="black" stroke="black" points="132.982,-84.9066 125.993,-88.0802 129.482,-84.9184 125.982,-84.9303 125.982,-84.9303 125.982,-84.9303 129.482,-84.9184 125.972,-81.7803 132.982,-84.9066 132.982,-84.9066"/>
<text text-anchor="start" x="93.5" y="-85.7011" font-family="Lato" font-size="12.00">p0</text>
</g>
<!-- 2 -->
<g id="node4" class="node"><title>2</title>
<ellipse fill="#ffffa0" stroke="black" cx="243" cy="-33.3011" rx="18" ry="18"/>
<text text-anchor="middle" x="243" y="-30.2011" font-family="Lato" font-size="12.00">2</text>
</g>
<!-- 0&#45;&gt;2 -->
<g id="edge3" class="edge"><title>0&#45;&gt;2</title>
<path fill="none" stroke="black" d="M74.0728,-33.3011C107.113,-33.3011 179.882,-33.3011 217.859,-33.3011"/>
<polygon fill="black" stroke="black" points="224.969,-33.3011 217.969,-36.4512 221.469,-33.3011 217.969,-33.3012 217.969,-33.3012 217.969,-33.3012 221.469,-33.3011 217.968,-30.1512 224.969,-33.3011 224.969,-33.3011"/>
<text text-anchor="start" x="142.5" y="-36.7011" font-family="Lato" font-size="12.00">!p0</text>
</g>
<!-- 1&#45;&gt;0 -->
<g id="edge5" class="edge"><title>1&#45;&gt;0</title>
<path fill="none" stroke="black" d="M138.219,-70.3003C130.578,-62.592 120.022,-53.2053 109,-47.3011 100.416,-42.703 90.2093,-39.529 81.1211,-37.3814"/>
<polygon fill="black" stroke="black" points="74.1247,-35.8715 81.6317,-34.2691 77.5459,-36.6098 80.9672,-37.3482 80.9672,-37.3482 80.9672,-37.3482 77.5459,-36.6098 80.3026,-40.4273 74.1247,-35.8715 74.1247,-35.8715"/>
<text text-anchor="start" x="92" y="-63.7011" font-family="Lato" font-size="12.00">!p0</text>
<text text-anchor="start" x="93.5" y="-50.7011" font-family="Lato" font-size="12.00" fill="#1f78b4">⓿</text>
</g>
<!-- 1&#45;&gt;2 -->
<g id="edge4" class="edge"><title>1&#45;&gt;2</title>
<path fill="none" stroke="black" d="M169.384,-84.7386C180.752,-84.9061 195.56,-83.6068 207,-77.3011 216.264,-72.1948 223.957,-63.5264 229.749,-55.2269"/>
<polygon fill="black" stroke="black" points="233.802,-49.0173 232.614,-56.6009 231.889,-51.9483 229.976,-54.8792 229.976,-54.8792 229.976,-54.8792 231.889,-51.9483 227.338,-53.1575 233.802,-49.0173 233.802,-49.0173"/>
<text text-anchor="start" x="193" y="-98.7011" font-family="Lato" font-size="12.00">p0</text>
<text text-anchor="start" x="193" y="-85.7011" font-family="Lato" font-size="12.00" fill="#ff4da0">❶</text>
</g>
<!-- 2&#45;&gt;0 -->
<g id="edge7" class="edge"><title>2&#45;&gt;0</title>
<path fill="none" stroke="black" d="M227.191,-24.4745C214.012,-17.166 193.944,-7.34877 175,-3.30109 154.138,1.15639 147.898,0.988315 127,-3.30109 109.859,-6.81939 91.7329,-14.7177 78.2211,-21.527"/>
<polygon fill="black" stroke="black" points="71.9833,-24.7584 76.7499,-18.7415 75.0911,-23.1484 78.1988,-21.5385 78.1988,-21.5385 78.1988,-21.5385 75.0911,-23.1484 79.6478,-24.3355 71.9833,-24.7584 71.9833,-24.7584"/>
<text text-anchor="start" x="127" y="-19.7011" font-family="Lato" font-size="12.00">!p0 &amp; !p1</text>
<text text-anchor="start" x="144" y="-6.70109" font-family="Lato" font-size="12.00" fill="#ff4da0">❶</text>
</g>
<!-- 2&#45;&gt;1 -->
<g id="edge8" class="edge"><title>2&#45;&gt;1</title>
<path fill="none" stroke="black" d="M224.956,-36.2334C215.191,-38.3775 202.941,-41.8775 193,-47.3011 184.425,-51.9795 176.105,-58.7305 169.226,-65.1251"/>
<polygon fill="black" stroke="black" points="163.813,-70.3595 166.656,-63.229 166.33,-67.9265 168.846,-65.4934 168.846,-65.4934 168.846,-65.4934 166.33,-67.9265 171.035,-67.7579 163.813,-70.3595 163.813,-70.3595"/>
<text text-anchor="start" x="193" y="-63.7011" font-family="Lato" font-size="12.00">p0</text>
<text text-anchor="start" x="193" y="-50.7011" font-family="Lato" font-size="12.00" fill="#1f78b4">⓿</text>
</g>
<!-- 2&#45;&gt;2 -->
<g id="edge6" class="edge"><title>2&#45;&gt;2</title>
<path fill="none" stroke="black" d="M235.617,-49.9652C233.977,-59.9261 236.438,-69.3011 243,-69.3011 247.922,-69.3011 250.537,-64.0277 250.844,-57.1887"/>
<polygon fill="black" stroke="black" points="250.383,-49.9652 253.973,-56.7501 250.606,-53.458 250.829,-56.9509 250.829,-56.9509 250.829,-56.9509 250.606,-53.458 247.686,-57.1518 250.383,-49.9652 250.383,-49.9652"/>
<text text-anchor="start" x="220.5" y="-85.7011" font-family="Lato" font-size="12.00">!p0 &amp; p1</text>
<text text-anchor="start" x="236" y="-72.7011" font-family="Lato" font-size="12.00" fill="#1f78b4">⓿</text>
</g>
</g>
</svg>
