<?xml version="1.0" encoding="UTF-8" standalone="no"?>
<?xml-stylesheet href="spot.css" type="text/css"?>
<!DOCTYPE svg PUBLIC "-//W3C//DTD SVG 1.1//EN"
 "http://www.w3.org/Graphics/SVG/1.1/DTD/svg11.dtd">
<!-- Generated by graphviz version 2.38.0 (20140413.2041)
 -->
<!-- Title: G Pages: 1 -->
<svg width="1142pt" height="367pt"
 viewBox="0.00 0.00 1141.75 367.00" xmlns="http://www.w3.org/2000/svg" xmlns:xlink="http://www.w3.org/1999/xlink">
<g id="graph0" class="graph" transform="scale(1 1) rotate(0) translate(4 363)">
<title>G</title>
<polygon fill="white" stroke="none" points="-4,4 -4,-363 1137.75,-363 1137.75,4 -4,4"/>
<text text-anchor="start" x="472.375" y="-346.4" font-family="Lato" font-size="12.00">Inf(</text>
<text text-anchor="start" x="490.375" y="-346.4" font-family="Lato" font-size="12.00" fill="#1f78b4">⓿</text>
<text text-anchor="start" x="504.375" y="-346.4" font-family="Lato" font-size="12.00">) | (Fin(</text>
<text text-anchor="start" x="539.375" y="-346.4" font-family="Lato" font-size="12.00" fill="#ff4da0">❶</text>
<text text-anchor="start" x="553.375" y="-346.4" font-family="Lato" font-size="12.00">) &amp; (Inf(</text>
<text text-anchor="start" x="591.375" y="-346.4" font-family="Lato" font-size="12.00" fill="#ff7f00">❷</text>
<text text-anchor="start" x="605.375" y="-346.4" font-family="Lato" font-size="12.00">) | Fin(</text>
<text text-anchor="start" x="637.375" y="-346.4" font-family="Lato" font-size="12.00" fill="#6a3d9a">❸</text>
<text text-anchor="start" x="651.375" y="-346.4" font-family="Lato" font-size="12.00">)))</text>
<text text-anchor="start" x="517.375" y="-334.4" font-family="Lato" font-size="12.00">[parity min even 4]</text>
<!-- I -->
<!-- 0 -->
<g id="node2" class="node"><title>0</title>
<ellipse fill="#ffffa0" stroke="black" cx="62.0416" cy="-122" rx="24.0833" ry="24.0833"/>
<text text-anchor="start" x="58.5416" y="-125.4" font-family="Lato" font-size="12.00">0</text>
<text text-anchor="start" x="55.0416" y="-112.4" font-family="Lato" font-size="12.00" fill="#ff4da0">❶</text>
</g>
<!-- I&#45;&gt;0 -->
<g id="edge1" class="edge"><title>I&#45;&gt;0</title>
<path fill="none" stroke="black" d="M1.04352,-122C1.9346,-122 16.3644,-122 30.8478,-122"/>
<polygon fill="black" stroke="black" points="37.9031,-122 30.9032,-125.15 34.4031,-122 30.9031,-122 30.9031,-122 30.9031,-122 34.4031,-122 30.9031,-118.85 37.9031,-122 37.9031,-122"/>
</g>
<!-- 0&#45;&gt;0 -->
<g id="edge4" class="edge"><title>0&#45;&gt;0</title>
<path fill="none" stroke="black" d="M54.2897,-144.92C53.5514,-155.173 56.1354,-164.042 62.0416,-164.042 66.4713,-164.042 69.0322,-159.053 69.7244,-152.233"/>
<polygon fill="black" stroke="black" points="69.7936,-144.92 72.8771,-151.949 69.7604,-148.42 69.7272,-151.919 69.7272,-151.919 69.7272,-151.919 69.7604,-148.42 66.5774,-151.89 69.7936,-144.92 69.7936,-144.92"/>
<text text-anchor="start" x="39.5416" y="-167.442" font-family="Lato" font-size="12.00">p0 &amp; !p1</text>
</g>
<!-- 2 -->
<g id="node3" class="node"><title>2</title>
<ellipse fill="#ffffa0" stroke="black" cx="194.125" cy="-160" rx="24.0833" ry="24.0833"/>
<text text-anchor="start" x="190.625" y="-163.4" font-family="Lato" font-size="12.00">2</text>
<text text-anchor="start" x="187.125" y="-150.4" font-family="Lato" font-size="12.00" fill="#ff7f00">❷</text>
</g>
<!-- 0&#45;&gt;2 -->
<g id="edge2" class="edge"><title>0&#45;&gt;2</title>
<path fill="none" stroke="black" d="M85.4037,-128.532C107.09,-134.867 140.109,-144.513 163.872,-151.455"/>
<polygon fill="black" stroke="black" points="170.619,-153.426 163.017,-154.486 167.26,-152.444 163.9,-151.463 163.9,-151.463 163.9,-151.463 167.26,-152.444 164.783,-148.439 170.619,-153.426 170.619,-153.426"/>
<text text-anchor="start" x="104.083" y="-150.4" font-family="Lato" font-size="12.00">!p0 &amp; !p1</text>
</g>
<!-- 8 -->
<g id="node4" class="node"><title>8</title>
<ellipse fill="#ffffa0" stroke="black" cx="455.291" cy="-294" rx="24.0833" ry="24.0833"/>
<text text-anchor="start" x="451.791" y="-297.4" font-family="Lato" font-size="12.00">8</text>
<text text-anchor="start" x="448.291" y="-284.4" font-family="Lato" font-size="12.00" fill="#1f78b4">⓿</text>
</g>
<!-- 0&#45;&gt;8 -->
<g id="edge3" class="edge"><title>0&#45;&gt;8</title>
<path fill="none" stroke="black" d="M78.6758,-139.562C86.0412,-147.415 95.1562,-156.558 104.083,-164 183.68,-230.358 202.043,-260.275 302.167,-287 343.315,-297.983 392.912,-297.916 424.032,-296.356"/>
<polygon fill="black" stroke="black" points="431.147,-295.957 424.334,-299.494 427.652,-296.153 424.158,-296.349 424.158,-296.349 424.158,-296.349 427.652,-296.153 423.982,-293.204 431.147,-295.957 431.147,-295.957"/>
<text text-anchor="start" x="236.167" y="-285.4" font-family="Lato" font-size="12.00">!p0 &amp; !p1</text>
</g>
<!-- 6 -->
<g id="node5" class="node"><title>6</title>
<ellipse fill="#ffffa0" stroke="black" cx="977.624" cy="-104" rx="24.0833" ry="24.0833"/>
<text text-anchor="start" x="974.124" y="-107.4" font-family="Lato" font-size="12.00">6</text>
<text text-anchor="start" x="970.624" y="-94.4" font-family="Lato" font-size="12.00" fill="#1f78b4">⓿</text>
</g>
<!-- 0&#45;&gt;6 -->
<g id="edge5" class="edge"><title>0&#45;&gt;6</title>
<path fill="none" stroke="black" d="M73.3794,-100.749C92.0468,-65.7954 134.916,-0 193.125,-0 193.125,-0 193.125,-0 849.541,-0 898.453,-0 938.882,-46.7087 960.232,-77.521"/>
<polygon fill="black" stroke="black" points="964.244,-83.4529 957.713,-79.4196 962.283,-80.5538 960.322,-77.6547 960.322,-77.6547 960.322,-77.6547 962.283,-80.5538 962.931,-75.8899 964.244,-83.4529 964.244,-83.4529"/>
<text text-anchor="start" x="498.833" y="-3.4" font-family="Lato" font-size="12.00">!p0 &amp; p1</text>
</g>
<!-- 5 -->
<g id="node7" class="node"><title>5</title>
<ellipse fill="#ffffa0" stroke="black" cx="326.208" cy="-160" rx="24.0833" ry="24.0833"/>
<text text-anchor="start" x="322.708" y="-163.4" font-family="Lato" font-size="12.00">5</text>
<text text-anchor="start" x="319.208" y="-150.4" font-family="Lato" font-size="12.00" fill="#1f78b4">⓿</text>
</g>
<!-- 2&#45;&gt;5 -->
<g id="edge9" class="edge"><title>2&#45;&gt;5</title>
<path fill="none" stroke="black" d="M218.381,-160C239.747,-160 271.544,-160 294.893,-160"/>
<polygon fill="black" stroke="black" points="302.153,-160 295.153,-163.15 298.653,-160 295.153,-160 295.153,-160 295.153,-160 298.653,-160 295.153,-156.85 302.153,-160 302.153,-160"/>
<text text-anchor="start" x="236.167" y="-163.4" font-family="Lato" font-size="12.00">!p0 &amp; !p1</text>
</g>
<!-- 4 -->
<g id="node9" class="node"><title>4</title>
<ellipse fill="#ffffa0" stroke="black" cx="587.375" cy="-257" rx="24.0833" ry="24.0833"/>
<text text-anchor="start" x="583.875" y="-260.4" font-family="Lato" font-size="12.00">4</text>
<text text-anchor="start" x="580.375" y="-247.4" font-family="Lato" font-size="12.00" fill="#1f78b4">⓿</text>
</g>
<!-- 2&#45;&gt;4 -->
<g id="edge8" class="edge"><title>2&#45;&gt;4</title>
<path fill="none" stroke="black" d="M216.635,-169.577C222.868,-172.17 229.729,-174.85 236.167,-177 351.844,-215.632 495.142,-241.924 556.366,-252.187"/>
<polygon fill="black" stroke="black" points="563.418,-253.359 555.996,-255.319 559.965,-252.785 556.513,-252.211 556.513,-252.211 556.513,-252.211 559.965,-252.785 557.029,-249.104 563.418,-253.359 563.418,-253.359"/>
<text text-anchor="start" x="369.75" y="-226.4" font-family="Lato" font-size="12.00">p0 &amp; p1</text>
</g>
<!-- 8&#45;&gt;0 -->
<g id="edge24" class="edge"><title>8&#45;&gt;0</title>
<path fill="none" stroke="black" d="M433.01,-304.021C426.78,-306.477 419.864,-308.756 413.25,-310 335.753,-324.572 309.983,-326.737 236.167,-299 166.989,-273.007 151.389,-254.774 104.083,-198 92.2628,-183.814 82.3179,-165.69 75.1792,-150.7"/>
<polygon fill="black" stroke="black" points="72.1001,-144.058 77.9022,-149.084 73.5722,-147.234 75.0444,-150.409 75.0444,-150.409 75.0444,-150.409 73.5722,-147.234 72.1866,-151.734 72.1001,-144.058 72.1001,-144.058"/>
<text text-anchor="start" x="237.667" y="-317.4" font-family="Lato" font-size="12.00">!p0 &amp; p1</text>
</g>
<!-- 8&#45;&gt;2 -->
<g id="edge23" class="edge"><title>8&#45;&gt;2</title>
<path fill="none" stroke="black" d="M431.65,-289.439C382.359,-279.168 267.258,-253.226 236.167,-229 222.939,-218.693 213.079,-202.834 206.344,-188.918"/>
<polygon fill="black" stroke="black" points="203.287,-182.275 209.075,-187.317 204.75,-185.455 206.213,-188.634 206.213,-188.634 206.213,-188.634 204.75,-185.455 203.352,-189.951 203.287,-182.275 203.287,-182.275"/>
<text text-anchor="start" x="303.708" y="-273.4" font-family="Lato" font-size="12.00">p0 &amp; !p1</text>
</g>
<!-- 8&#45;&gt;4 -->
<g id="edge22" class="edge"><title>8&#45;&gt;4</title>
<path fill="none" stroke="black" d="M478.858,-287.354C484.859,-285.6 491.338,-283.718 497.333,-282 517.186,-276.311 539.568,-270.027 556.925,-265.183"/>
<polygon fill="black" stroke="black" points="564.034,-263.201 558.137,-268.115 560.663,-264.141 557.291,-265.081 557.291,-265.081 557.291,-265.081 560.663,-264.141 556.445,-262.047 564.034,-263.201 564.034,-263.201"/>
<text text-anchor="start" x="498.833" y="-285.4" font-family="Lato" font-size="12.00">p0 &amp; !p1</text>
</g>
<!-- 3 -->
<g id="node10" class="node"><title>3</title>
<ellipse fill="#ffffa0" stroke="black" cx="1109.71" cy="-170" rx="24.0833" ry="24.0833"/>
<text text-anchor="start" x="1106.21" y="-173.4" font-family="Lato" font-size="12.00">3</text>
<text text-anchor="start" x="1102.71" y="-160.4" font-family="Lato" font-size="12.00" fill="#1f78b4">⓿</text>
</g>
<!-- 8&#45;&gt;3 -->
<g id="edge21" class="edge"><title>8&#45;&gt;3</title>
<path fill="none" stroke="black" d="M479.227,-298.258C505.144,-302.693 548.637,-309 586.375,-309 586.375,-309 586.375,-309 978.624,-309 1038.42,-309 1078.67,-239.57 1097.14,-198.85"/>
<polygon fill="black" stroke="black" points="1100.02,-192.333 1100.07,-200.009 1098.6,-195.534 1097.19,-198.735 1097.19,-198.735 1097.19,-198.735 1098.6,-195.534 1094.31,-197.462 1100.02,-192.333 1100.02,-192.333"/>
<text text-anchor="start" x="760" y="-312.4" font-family="Lato" font-size="12.00">!p0 &amp; p1</text>
</g>
<!-- 6&#45;&gt;2 -->
<g id="edge17" class="edge"><title>6&#45;&gt;2</title>
<path fill="none" stroke="black" d="M953.402,-102.587C866.747,-97.7798 554.332,-84.6047 302.167,-127 274.825,-131.597 244.738,-141.309 223.443,-149.013"/>
<polygon fill="black" stroke="black" points="216.853,-151.434 222.337,-146.063 220.138,-150.227 223.424,-149.02 223.424,-149.02 223.424,-149.02 220.138,-150.227 224.51,-151.976 216.853,-151.434 216.853,-151.434"/>
<text text-anchor="start" x="563.375" y="-103.4" font-family="Lato" font-size="12.00">!p0 &amp; !p1</text>
</g>
<!-- 6&#45;&gt;3 -->
<g id="edge18" class="edge"><title>6&#45;&gt;3</title>
<path fill="none" stroke="black" d="M1000.34,-112.31C1018.67,-119.609 1045.42,-130.922 1067.67,-143 1072.95,-145.866 1078.43,-149.199 1083.6,-152.525"/>
<polygon fill="black" stroke="black" points="1089.5,-156.398 1081.92,-155.19 1086.57,-154.477 1083.65,-152.556 1083.65,-152.556 1083.65,-152.556 1086.57,-154.477 1085.38,-149.923 1089.5,-156.398 1089.5,-156.398"/>
<text text-anchor="start" x="1019.67" y="-146.4" font-family="Lato" font-size="12.00">!p0 &amp; !p1</text>
</g>
<!-- 1 -->
<g id="node6" class="node"><title>1</title>
<ellipse fill="#ffffa0" stroke="black" cx="716.458" cy="-170" rx="24.0833" ry="24.0833"/>
<text text-anchor="start" x="712.958" y="-173.4" font-family="Lato" font-size="12.00">1</text>
<text text-anchor="start" x="709.458" y="-160.4" font-family="Lato" font-size="12.00" fill="#6a3d9a">❸</text>
</g>
<!-- 1&#45;&gt;5 -->
<g id="edge6" class="edge"><title>1&#45;&gt;5</title>
<path fill="none" stroke="black" d="M692.534,-164.989C686.653,-163.853 680.32,-162.76 674.416,-162 646.589,-158.42 639.459,-158.889 611.416,-158 519.049,-155.071 409.715,-157.498 357.678,-159.012"/>
<polygon fill="black" stroke="black" points="350.425,-159.228 357.328,-155.871 353.923,-159.124 357.422,-159.02 357.422,-159.02 357.422,-159.02 353.923,-159.124 357.516,-162.168 350.425,-159.228 350.425,-159.228"/>
<text text-anchor="start" x="497.333" y="-159.4" font-family="Lato" font-size="12.00">!p0 &amp; !p1</text>
</g>
<!-- 9 -->
<g id="node8" class="node"><title>9</title>
<ellipse fill="#ffffa0" stroke="black" cx="848.541" cy="-52" rx="24.0833" ry="24.0833"/>
<text text-anchor="start" x="845.041" y="-55.4" font-family="Lato" font-size="12.00">9</text>
<text text-anchor="start" x="841.541" y="-42.4" font-family="Lato" font-size="12.00" fill="#ff4da0">❶</text>
</g>
<!-- 1&#45;&gt;9 -->
<g id="edge7" class="edge"><title>1&#45;&gt;9</title>
<path fill="none" stroke="black" d="M734.732,-154.331C757.96,-133.26 799.303,-95.7577 824.969,-72.4756"/>
<polygon fill="black" stroke="black" points="830.196,-67.7343 827.127,-74.7705 827.603,-70.0859 825.011,-72.4374 825.011,-72.4374 825.011,-72.4374 827.603,-70.0859 822.895,-70.1043 830.196,-67.7343 830.196,-67.7343"/>
<text text-anchor="start" x="760" y="-134.4" font-family="Lato" font-size="12.00">!p0 &amp; p1</text>
</g>
<!-- 5&#45;&gt;0 -->
<g id="edge14" class="edge"><title>5&#45;&gt;0</title>
<path fill="none" stroke="black" d="M305.104,-148.409C284.178,-137.065 250.064,-120.564 218.167,-114 175.251,-105.169 124.325,-110.77 92.8429,-116.041"/>
<polygon fill="black" stroke="black" points="85.6603,-117.295 92.0144,-112.988 89.1082,-116.693 92.5561,-116.091 92.5561,-116.091 92.5561,-116.091 89.1082,-116.693 93.0977,-119.194 85.6603,-117.295 85.6603,-117.295"/>
<text text-anchor="start" x="170.125" y="-117.4" font-family="Lato" font-size="12.00">!p0 &amp; !p1</text>
</g>
<!-- 5&#45;&gt;8 -->
<g id="edge15" class="edge"><title>5&#45;&gt;8</title>
<path fill="none" stroke="black" d="M349.01,-168.654C372.88,-178.281 408.429,-193.122 413.25,-198 430.992,-215.954 441.576,-242.783 447.54,-263.517"/>
<polygon fill="black" stroke="black" points="449.389,-270.294 444.507,-264.37 448.467,-266.917 447.546,-263.541 447.546,-263.541 447.546,-263.541 448.467,-266.917 450.585,-262.712 449.389,-270.294 449.389,-270.294"/>
<text text-anchor="start" x="368.25" y="-201.4" font-family="Lato" font-size="12.00">p0 &amp; !p1</text>
</g>
<!-- 7 -->
<g id="node11" class="node"><title>7</title>
<ellipse fill="#ffffa0" stroke="black" cx="587.375" cy="-191" rx="24.0833" ry="24.0833"/>
<text text-anchor="start" x="583.875" y="-194.4" font-family="Lato" font-size="12.00">7</text>
<text text-anchor="start" x="580.375" y="-181.4" font-family="Lato" font-size="12.00" fill="#ff7f00">❷</text>
</g>
<!-- 5&#45;&gt;7 -->
<g id="edge16" class="edge"><title>5&#45;&gt;7</title>
<path fill="none" stroke="black" d="M350.207,-162.751C397.179,-168.37 504.101,-181.159 556.419,-187.417"/>
<polygon fill="black" stroke="black" points="563.427,-188.255 556.102,-190.551 559.952,-187.839 556.476,-187.424 556.476,-187.424 556.476,-187.424 559.952,-187.839 556.851,-184.296 563.427,-188.255 563.427,-188.255"/>
<text text-anchor="start" x="431.291" y="-181.4" font-family="Lato" font-size="12.00">!p0 &amp; !p1</text>
</g>
<!-- 9&#45;&gt;0 -->
<g id="edge25" class="edge"><title>9&#45;&gt;0</title>
<path fill="none" stroke="black" d="M824.041,-52C797.989,-52 754.721,-52 717.458,-52 193.125,-52 193.125,-52 193.125,-52 151.338,-52 110.047,-80.357 85.5484,-100.974"/>
<polygon fill="black" stroke="black" points="79.9885,-105.765 83.2353,-98.809 82.64,-103.48 85.2915,-101.195 85.2915,-101.195 85.2915,-101.195 82.64,-103.48 87.3477,-103.582 79.9885,-105.765 79.9885,-105.765"/>
<text text-anchor="start" x="434.291" y="-55.4" font-family="Lato" font-size="12.00">p0 &amp; p1</text>
</g>
<!-- 9&#45;&gt;6 -->
<g id="edge26" class="edge"><title>9&#45;&gt;6</title>
<path fill="none" stroke="black" d="M872.491,-56.6942C890.219,-60.7843 915.103,-67.5495 935.583,-77 941.038,-79.5171 946.598,-82.6931 951.792,-85.9748"/>
<polygon fill="black" stroke="black" points="957.694,-89.8428 950.113,-88.6403 954.767,-87.9242 951.839,-86.0057 951.839,-86.0057 951.839,-86.0057 954.767,-87.9242 953.566,-83.3711 957.694,-89.8428 957.694,-89.8428"/>
<text text-anchor="start" x="890.583" y="-80.4" font-family="Lato" font-size="12.00">p0 &amp; !p1</text>
</g>
<!-- 4&#45;&gt;6 -->
<g id="edge12" class="edge"><title>4&#45;&gt;6</title>
<path fill="none" stroke="black" d="M611.275,-261.463C661.126,-270.079 782.243,-284.992 872.583,-247 921.27,-226.525 951.505,-168.992 966.101,-133.453"/>
<polygon fill="black" stroke="black" points="968.813,-126.656 969.145,-134.325 967.516,-129.907 966.219,-133.158 966.219,-133.158 966.219,-133.158 967.516,-129.907 963.293,-131.991 968.813,-126.656 968.813,-126.656"/>
<text text-anchor="start" x="758.5" y="-273.4" font-family="Lato" font-size="12.00">!p0 &amp; !p1</text>
</g>
<!-- 4&#45;&gt;1 -->
<g id="edge13" class="edge"><title>4&#45;&gt;1</title>
<path fill="none" stroke="black" d="M607.676,-243.787C629.696,-228.712 665.787,-204.004 690.071,-187.379"/>
<polygon fill="black" stroke="black" points="695.975,-183.338 691.978,-189.891 693.087,-185.315 690.199,-187.292 690.199,-187.292 690.199,-187.292 693.087,-185.315 688.419,-184.693 695.975,-183.338 695.975,-183.338"/>
<text text-anchor="start" x="630.916" y="-231.4" font-family="Lato" font-size="12.00">p0 &amp; p1</text>
</g>
<!-- 3&#45;&gt;6 -->
<g id="edge10" class="edge"><title>3&#45;&gt;6</title>
<path fill="none" stroke="black" d="M1100.45,-147.512C1093.9,-133.211 1083.24,-115.786 1067.67,-107 1049.83,-96.9378 1026.62,-96.4827 1008.37,-98.3881"/>
<polygon fill="black" stroke="black" points="1001.39,-99.2547 1007.94,-95.2663 1004.86,-98.8235 1008.33,-98.3923 1008.33,-98.3923 1008.33,-98.3923 1004.86,-98.8235 1008.72,-101.518 1001.39,-99.2547 1001.39,-99.2547"/>
<text text-anchor="start" x="1021.17" y="-110.4" font-family="Lato" font-size="12.00">p0 &amp; !p1</text>
</g>
<!-- 3&#45;&gt;1 -->
<g id="edge11" class="edge"><title>3&#45;&gt;1</title>
<path fill="none" stroke="black" d="M1085.53,-170C1018.4,-170 823.861,-170 748.133,-170"/>
<polygon fill="black" stroke="black" points="740.761,-170 747.761,-166.85 744.261,-170 747.761,-170 747.761,-170 747.761,-170 744.261,-170 747.761,-173.15 740.761,-170 740.761,-170"/>
<text text-anchor="start" x="890.583" y="-173.4" font-family="Lato" font-size="12.00">!p0 &amp; p1</text>
</g>
<!-- 7&#45;&gt;1 -->
<g id="edge20" class="edge"><title>7&#45;&gt;1</title>
<path fill="none" stroke="black" d="M608.588,-178.961C615.024,-175.736 622.32,-172.68 629.416,-171 647.569,-166.701 668.485,-166.358 685.149,-167.135"/>
<polygon fill="black" stroke="black" points="692.482,-167.56 685.311,-170.299 688.987,-167.357 685.493,-167.155 685.493,-167.155 685.493,-167.155 688.987,-167.357 685.676,-164.01 692.482,-167.56 692.482,-167.56"/>
<text text-anchor="start" x="629.416" y="-174.4" font-family="Lato" font-size="12.00">!p0 &amp; p1</text>
</g>
<!-- 7&#45;&gt;3 -->
<g id="edge19" class="edge"><title>7&#45;&gt;3</title>
<path fill="none" stroke="black" d="M605.854,-206.932C612.697,-212.155 620.935,-217.306 629.416,-220 648.478,-226.055 654.437,-220.913 674.416,-220 849.742,-211.992 896.014,-220.589 1067.67,-184 1071.72,-183.135 1075.93,-181.994 1080.05,-180.736"/>
<polygon fill="black" stroke="black" points="1086.83,-178.536 1081.14,-183.693 1083.5,-179.616 1080.17,-180.697 1080.17,-180.697 1080.17,-180.697 1083.5,-179.616 1079.2,-177.7 1086.83,-178.536 1086.83,-178.536"/>
<text text-anchor="start" x="826.041" y="-217.4" font-family="Lato" font-size="12.00">!p0 &amp; p1</text>
</g>
</g>
</svg>
