<?xml version="1.0" encoding="UTF-8" standalone="no"?>
<?xml-stylesheet href="spot.css" type="text/css"?>
<!DOCTYPE svg PUBLIC "-//W3C//DTD SVG 1.1//EN"
 "http://www.w3.org/Graphics/SVG/1.1/DTD/svg11.dtd">
<!-- Generated by graphviz version 2.38.0 (20140413.2041)
 -->
<!-- Title: G Pages: 1 -->
<svg width="328pt" height="75pt"
 viewBox="0.00 0.00 328.00 75.00" xmlns="http://www.w3.org/2000/svg" xmlns:xlink="http://www.w3.org/1999/xlink">
<g id="graph0" class="graph" transform="scale(1 1) rotate(0) translate(4 71)">
<title>G</title>
<polygon fill="white" stroke="none" points="-4,4 -4,-71 324,-71 324,4 -4,4"/>
<!-- I -->
<!-- 0 -->
<g id="node2" class="node"><title>0</title>
<ellipse fill="#ffffa0" stroke="black" cx="56" cy="-18" rx="18" ry="18"/>
<text text-anchor="middle" x="56" y="-14.9" font-family="Lato" font-size="12.00">0</text>
</g>
<!-- I&#45;&gt;0 -->
<g id="edge1" class="edge"><title>I&#45;&gt;0</title>
<path fill="none" stroke="black" d="M1.15491,-18C2.79388,-18 17.1543,-18 30.6317,-18"/>
<polygon fill="black" stroke="black" points="37.9419,-18 30.9419,-21.1501 34.4419,-18 30.9419,-18.0001 30.9419,-18.0001 30.9419,-18.0001 34.4419,-18 30.9418,-14.8501 37.9419,-18 37.9419,-18"/>
</g>
<!-- 2 -->
<g id="node3" class="node"><title>2</title>
<ellipse fill="#ffffa0" stroke="black" cx="176" cy="-18" rx="18" ry="18"/>
<text text-anchor="middle" x="176" y="-14.9" font-family="Lato" font-size="12.00">2</text>
</g>
<!-- 0&#45;&gt;2 -->
<g id="edge2" class="edge"><title>0&#45;&gt;2</title>
<path fill="none" stroke="black" d="M74.1582,-18C94.258,-18 127.706,-18 150.525,-18"/>
<polygon fill="black" stroke="black" points="157.821,-18 150.821,-21.1501 154.321,-18 150.821,-18.0001 150.821,-18.0001 150.821,-18.0001 154.321,-18 150.821,-14.8501 157.821,-18 157.821,-18"/>
<text text-anchor="start" x="92" y="-21.4" font-family="Lato" font-size="12.00">!p0 &amp; !p1</text>
</g>
<!-- 1 -->
<g id="node4" class="node"><title>1</title>
<ellipse fill="#ffffa0" stroke="black" cx="296" cy="-18" rx="18" ry="18"/>
<text text-anchor="middle" x="296" y="-14.9" font-family="Lato" font-size="12.00">1</text>
</g>
<!-- 2&#45;&gt;1 -->
<g id="edge4" class="edge"><title>2&#45;&gt;1</title>
<path fill="none" stroke="black" d="M194.158,-18C214.258,-18 247.706,-18 270.525,-18"/>
<polygon fill="black" stroke="black" points="277.821,-18 270.821,-21.1501 274.321,-18 270.821,-18.0001 270.821,-18.0001 270.821,-18.0001 274.321,-18 270.821,-14.8501 277.821,-18 277.821,-18"/>
<text text-anchor="start" x="212" y="-21.4" font-family="Lato" font-size="12.00">!p0 &amp; !p1</text>
</g>
<!-- 1&#45;&gt;1 -->
<g id="edge3" class="edge"><title>1&#45;&gt;1</title>
<path fill="none" stroke="black" d="M285.849,-33.1666C282.772,-43.6641 286.156,-54 296,-54 303.537,-54 307.287,-47.9413 307.25,-40.39"/>
<polygon fill="black" stroke="black" points="306.151,-33.1666 310.318,-39.6135 306.678,-36.6269 307.204,-40.0871 307.204,-40.0871 307.204,-40.0871 306.678,-36.6269 304.09,-40.5607 306.151,-33.1666 306.151,-33.1666"/>
<text text-anchor="start" x="272" y="-57.4" font-family="Lato" font-size="12.00">!p0 &amp; !p1</text>
</g>
</g>
</svg>
