<?xml version="1.0" encoding="UTF-8" standalone="no"?>
<?xml-stylesheet href="spot.css" type="text/css"?>
<!DOCTYPE svg PUBLIC "-//W3C//DTD SVG 1.1//EN"
 "http://www.w3.org/Graphics/SVG/1.1/DTD/svg11.dtd">
<!-- Generated by graphviz version 2.38.0 (20140413.2041)
 -->
<!-- Title: G Pages: 1 -->
<svg width="337pt" height="122pt"
 viewBox="0.00 0.00 337.00 121.66" xmlns="http://www.w3.org/2000/svg" xmlns:xlink="http://www.w3.org/1999/xlink">
<g id="graph0" class="graph" transform="scale(1 1) rotate(0) translate(4 117.665)">
<title>G</title>
<polygon fill="white" stroke="none" points="-4,4 -4,-117.665 333,-117.665 333,4 -4,4"/>
<!-- I -->
<!-- 0 -->
<g id="node2" class="node"><title>0</title>
<ellipse fill="#ffffa0" stroke="black" cx="56" cy="-21.6646" rx="18" ry="18"/>
<text text-anchor="middle" x="56" y="-18.5646" font-family="Lato" font-size="12.00">0</text>
</g>
<!-- I&#45;&gt;0 -->
<g id="edge1" class="edge"><title>I&#45;&gt;0</title>
<path fill="none" stroke="black" d="M1.15491,-21.6646C2.79388,-21.6646 17.1543,-21.6646 30.6317,-21.6646"/>
<polygon fill="black" stroke="black" points="37.9419,-21.6646 30.9419,-24.8147 34.4419,-21.6647 30.9419,-21.6647 30.9419,-21.6647 30.9419,-21.6647 34.4419,-21.6647 30.9418,-18.5147 37.9419,-21.6646 37.9419,-21.6646"/>
</g>
<!-- 0&#45;&gt;0 -->
<g id="edge3" class="edge"><title>0&#45;&gt;0</title>
<path fill="none" stroke="black" d="M49.6208,-38.7019C48.3189,-48.5225 50.4453,-57.6646 56,-57.6646 60.166,-57.6646 62.4036,-52.5222 62.7128,-45.8079"/>
<polygon fill="black" stroke="black" points="62.3792,-38.7019 65.8541,-45.5465 62.5434,-42.1981 62.7076,-45.6942 62.7076,-45.6942 62.7076,-45.6942 62.5434,-42.1981 59.561,-45.842 62.3792,-38.7019 62.3792,-38.7019"/>
<text text-anchor="start" x="32" y="-61.0646" font-family="Lato" font-size="12.00">!p0 &amp; !p1</text>
</g>
<!-- 2 -->
<g id="node3" class="node"><title>2</title>
<ellipse fill="#ffffa0" stroke="black" cx="182" cy="-64.6646" rx="18" ry="18"/>
<text text-anchor="middle" x="182" y="-61.5646" font-family="Lato" font-size="12.00">2</text>
</g>
<!-- 0&#45;&gt;2 -->
<g id="edge2" class="edge"><title>0&#45;&gt;2</title>
<path fill="none" stroke="black" d="M68.3289,-34.8645C74.6253,-41.3076 82.9963,-48.5414 92,-52.6646 112.342,-61.9801 137.843,-64.6226 156.329,-65.1461"/>
<polygon fill="black" stroke="black" points="163.786,-65.254 156.741,-68.3023 160.286,-65.2034 156.787,-65.1527 156.787,-65.1527 156.787,-65.1527 160.286,-65.2034 156.832,-62.003 163.786,-65.254 163.786,-65.254"/>
<text text-anchor="start" x="92" y="-67.0646" font-family="Lato" font-size="12.00">!p0 &amp; !p1</text>
</g>
<!-- 1 -->
<g id="node4" class="node"><title>1</title>
<ellipse fill="#ffffa0" stroke="black" cx="308" cy="-21.6646" rx="18" ry="18"/>
<text text-anchor="middle" x="308" y="-18.5646" font-family="Lato" font-size="12.00">1</text>
</g>
<!-- 0&#45;&gt;1 -->
<g id="edge4" class="edge"><title>0&#45;&gt;1</title>
<path fill="none" stroke="black" d="M74.0815,-20.4928C79.7775,-20.1543 86.1595,-19.8313 92,-19.6646 161.087,-17.6923 242.707,-19.6192 282.59,-20.8368"/>
<polygon fill="black" stroke="black" points="289.994,-21.0694 282.899,-23.9979 286.496,-20.9595 282.998,-20.8495 282.998,-20.8495 282.998,-20.8495 286.496,-20.9595 283.097,-17.701 289.994,-21.0694 289.994,-21.0694"/>
<text text-anchor="start" x="158" y="-22.0646" font-family="Lato" font-size="12.00">!p0 &amp; !p1</text>
</g>
<!-- 2&#45;&gt;0 -->
<g id="edge9" class="edge"><title>2&#45;&gt;0</title>
<path fill="none" stroke="black" d="M167.876,-53.0666C160.246,-46.9457 150.155,-39.855 140,-35.6646 121.257,-27.9304 98.4495,-24.4674 81.4891,-22.9176"/>
<polygon fill="black" stroke="black" points="74.1436,-22.3317 81.3719,-19.7484 77.6325,-22.6101 81.1214,-22.8884 81.1214,-22.8884 81.1214,-22.8884 77.6325,-22.6101 80.8709,-26.0284 74.1436,-22.3317 74.1436,-22.3317"/>
<text text-anchor="start" x="93.5" y="-39.0646" font-family="Lato" font-size="12.00">p0 &amp; !p1</text>
</g>
<!-- 2&#45;&gt;2 -->
<g id="edge10" class="edge"><title>2&#45;&gt;2</title>
<path fill="none" stroke="black" d="M171.087,-79.0813C167.276,-89.8306 170.914,-100.665 182,-100.665 190.661,-100.665 194.776,-94.0521 194.344,-86.0334"/>
<polygon fill="black" stroke="black" points="192.913,-79.0813 197.41,-85.3021 193.619,-82.5094 194.325,-85.9374 194.325,-85.9374 194.325,-85.9374 193.619,-82.5094 191.239,-86.5728 192.913,-79.0813 192.913,-79.0813"/>
<text text-anchor="start" x="159.5" y="-104.065" font-family="Lato" font-size="12.00">p0 &amp; !p1</text>
</g>
<!-- 2&#45;&gt;1 -->
<g id="edge8" class="edge"><title>2&#45;&gt;1</title>
<path fill="none" stroke="black" d="M200.214,-65.254C218.765,-65.2414 248.752,-63.3109 272,-52.6646 278.753,-49.5722 285.15,-44.7301 290.582,-39.7841"/>
<polygon fill="black" stroke="black" points="295.671,-34.8645 292.828,-41.9947 293.155,-37.2972 290.638,-39.7299 290.638,-39.7299 290.638,-39.7299 293.155,-37.2972 288.449,-37.4652 295.671,-34.8645 295.671,-34.8645"/>
<text text-anchor="start" x="224" y="-67.0646" font-family="Lato" font-size="12.00">!p0 &amp; !p1</text>
</g>
<!-- 1&#45;&gt;0 -->
<g id="edge7" class="edge"><title>1&#45;&gt;0</title>
<path fill="none" stroke="black" d="M290.267,-18.3077C284.482,-17.1498 277.957,-15.8469 272,-14.6646 221.981,-4.73656 208.754,3.28634 158,-1.66461 131.222,-4.27673 101.018,-10.731 80.6734,-15.6064"/>
<polygon fill="black" stroke="black" points="73.6487,-17.3212 79.702,-12.601 77.0489,-16.4911 80.449,-15.6611 80.449,-15.6611 80.449,-15.6611 77.0489,-16.4911 81.1961,-18.7213 73.6487,-17.3212 73.6487,-17.3212"/>
<text text-anchor="start" x="159.5" y="-5.06461" font-family="Lato" font-size="12.00">p0 &amp; !p1</text>
</g>
<!-- 1&#45;&gt;2 -->
<g id="edge6" class="edge"><title>1&#45;&gt;2</title>
<path fill="none" stroke="black" d="M289.979,-23.6631C272.85,-26.0612 245.904,-30.9017 224,-39.6646 216.917,-42.4981 209.66,-46.4998 203.258,-50.4727"/>
<polygon fill="black" stroke="black" points="197.178,-54.3917 201.355,-47.9514 200.12,-52.4953 203.062,-50.5989 203.062,-50.5989 203.062,-50.5989 200.12,-52.4953 204.768,-53.2465 197.178,-54.3917 197.178,-54.3917"/>
<text text-anchor="start" x="225.5" y="-43.0646" font-family="Lato" font-size="12.00">p0 &amp; !p1</text>
</g>
<!-- 1&#45;&gt;1 -->
<g id="edge5" class="edge"><title>1&#45;&gt;1</title>
<path fill="none" stroke="black" d="M297.849,-36.8312C294.772,-47.3287 298.156,-57.6646 308,-57.6646 315.537,-57.6646 319.287,-51.6059 319.25,-44.0546"/>
<polygon fill="black" stroke="black" points="318.151,-36.8312 322.318,-43.2781 318.678,-40.2915 319.204,-43.7517 319.204,-43.7517 319.204,-43.7517 318.678,-40.2915 316.09,-44.2253 318.151,-36.8312 318.151,-36.8312"/>
<text text-anchor="start" x="287" y="-61.0646" font-family="Lato" font-size="12.00">p0 &amp; p1</text>
</g>
</g>
</svg>
