<?xml version="1.0" encoding="UTF-8" standalone="no"?>
<?xml-stylesheet href="spot.css" type="text/css"?>
<!DOCTYPE svg PUBLIC "-//W3C//DTD SVG 1.1//EN"
 "http://www.w3.org/Graphics/SVG/1.1/DTD/svg11.dtd">
<!-- Generated by graphviz version 2.38.0 (20140413.2041)
 -->
<!-- Title: G Pages: 1 -->
<svg width="1018pt" height="556pt"
 viewBox="0.00 0.00 1018.00 556.00" xmlns="http://www.w3.org/2000/svg" xmlns:xlink="http://www.w3.org/1999/xlink">
<g id="graph0" class="graph" transform="scale(1 1) rotate(0) translate(4 552)">
<title>G</title>
<polygon fill="white" stroke="none" points="-4,4 -4,-552 1014,-552 1014,4 -4,4"/>
<!-- I -->
<!-- 0 -->
<g id="node2" class="node"><title>0</title>
<ellipse fill="#ffffa0" stroke="black" cx="56" cy="-386" rx="18" ry="18"/>
<text text-anchor="middle" x="56" y="-382.9" font-family="Lato" font-size="12.00">0</text>
</g>
<!-- I&#45;&gt;0 -->
<g id="edge1" class="edge"><title>I&#45;&gt;0</title>
<path fill="none" stroke="black" d="M1.15491,-386C2.79388,-386 17.1543,-386 30.6317,-386"/>
<polygon fill="black" stroke="black" points="37.9419,-386 30.9419,-389.15 34.4419,-386 30.9419,-386 30.9419,-386 30.9419,-386 34.4419,-386 30.9418,-382.85 37.9419,-386 37.9419,-386"/>
</g>
<!-- 8 -->
<g id="node3" class="node"><title>8</title>
<ellipse fill="#ffffa0" stroke="black" cx="162" cy="-294" rx="18" ry="18"/>
<text text-anchor="middle" x="162" y="-290.9" font-family="Lato" font-size="12.00">8</text>
</g>
<!-- 0&#45;&gt;8 -->
<g id="edge2" class="edge"><title>0&#45;&gt;8</title>
<path fill="none" stroke="black" d="M70.1717,-374.348C88.5355,-358.103 121.91,-328.58 142.687,-310.2"/>
<polygon fill="black" stroke="black" points="147.935,-305.557 144.779,-312.555 145.314,-307.876 142.692,-310.195 142.692,-310.195 142.692,-310.195 145.314,-307.876 140.605,-307.836 147.935,-305.557 147.935,-305.557"/>
<text text-anchor="start" x="92" y="-356.4" font-family="Lato" font-size="12.00">!a &amp; !b</text>
</g>
<!-- 3 -->
<g id="node4" class="node"><title>3</title>
<ellipse fill="#ffffa0" stroke="black" cx="265" cy="-294" rx="18" ry="18"/>
<text text-anchor="middle" x="265" y="-290.9" font-family="Lato" font-size="12.00">3</text>
</g>
<!-- 0&#45;&gt;3 -->
<g id="edge3" class="edge"><title>0&#45;&gt;3</title>
<path fill="none" stroke="black" d="M73.8328,-383.434C88.0452,-380.955 108.774,-376.595 126,-370 170.034,-353.142 217.342,-324.525 243.546,-307.63"/>
<polygon fill="black" stroke="black" points="249.739,-303.602 245.589,-310.059 246.805,-305.51 243.871,-307.419 243.871,-307.419 243.871,-307.419 246.805,-305.51 242.153,-304.778 249.739,-303.602 249.739,-303.602"/>
<text text-anchor="start" x="145" y="-364.4" font-family="Lato" font-size="12.00">!a &amp; !b</text>
</g>
<!-- 4 -->
<g id="node5" class="node"><title>4</title>
<ellipse fill="#ffffa0" stroke="black" cx="992" cy="-426" rx="18" ry="18"/>
<text text-anchor="middle" x="992" y="-422.9" font-family="Lato" font-size="12.00">4</text>
</g>
<!-- 0&#45;&gt;4 -->
<g id="edge4" class="edge"><title>0&#45;&gt;4</title>
<path fill="none" stroke="black" d="M57.0579,-404.248C58.1331,-431.1 64.0608,-481.281 92,-511 114.239,-534.656 128.531,-535 161,-535 161,-535 161,-535 890,-535 921.213,-535 933.473,-532.604 956,-511 972.778,-494.91 981.794,-469.61 986.45,-450.791"/>
<polygon fill="black" stroke="black" points="988.081,-443.676 989.587,-451.203 987.299,-447.088 986.516,-450.499 986.516,-450.499 986.516,-450.499 987.299,-447.088 983.446,-449.795 988.081,-443.676 988.081,-443.676"/>
<text text-anchor="start" x="504" y="-538.4" font-family="Lato" font-size="12.00">!a &amp; !b</text>
</g>
<!-- 8&#45;&gt;3 -->
<g id="edge31" class="edge"><title>8&#45;&gt;3</title>
<path fill="none" stroke="black" d="M180.133,-294C196.384,-294 220.98,-294 239.339,-294"/>
<polygon fill="black" stroke="black" points="246.783,-294 239.783,-297.15 243.283,-294 239.783,-294 239.783,-294 239.783,-294 243.283,-294 239.783,-290.85 246.783,-294 246.783,-294"/>
<text text-anchor="start" x="198" y="-297.4" font-family="Lato" font-size="12.00">!a &amp; b</text>
</g>
<!-- 1 -->
<g id="node6" class="node"><title>1</title>
<ellipse fill="#ffffa0" stroke="black" cx="574" cy="-148" rx="18" ry="18"/>
<text text-anchor="middle" x="574" y="-144.9" font-family="Lato" font-size="12.00">1</text>
</g>
<!-- 8&#45;&gt;1 -->
<g id="edge30" class="edge"><title>8&#45;&gt;1</title>
<path fill="none" stroke="black" d="M166.469,-276.389C175.251,-237.557 202.203,-148 264,-148 264,-148 264,-148 469,-148 496.296,-148 527.621,-148 548.698,-148"/>
<polygon fill="black" stroke="black" points="555.702,-148 548.702,-151.15 552.202,-148 548.702,-148 548.702,-148 548.702,-148 552.202,-148 548.702,-144.85 555.702,-148 555.702,-148"/>
<text text-anchor="start" x="351" y="-151.4" font-family="Lato" font-size="12.00">a &amp; b</text>
</g>
<!-- 3&#45;&gt;3 -->
<g id="edge14" class="edge"><title>3&#45;&gt;3</title>
<path fill="none" stroke="black" d="M256.367,-309.916C254.114,-320.15 256.992,-330 265,-330 271.131,-330 274.255,-324.226 274.372,-316.927"/>
<polygon fill="black" stroke="black" points="273.633,-309.916 277.499,-316.548 274,-313.397 274.367,-316.878 274.367,-316.878 274.367,-316.878 274,-313.397 271.234,-317.207 273.633,-309.916 273.633,-309.916"/>
<text text-anchor="start" x="249.5" y="-333.4" font-family="Lato" font-size="12.00">a &amp; !b</text>
</g>
<!-- 2 -->
<g id="node9" class="node"><title>2</title>
<ellipse fill="#ffffa0" stroke="black" cx="365" cy="-368" rx="18" ry="18"/>
<text text-anchor="middle" x="365" y="-364.9" font-family="Lato" font-size="12.00">2</text>
</g>
<!-- 3&#45;&gt;2 -->
<g id="edge12" class="edge"><title>3&#45;&gt;2</title>
<path fill="none" stroke="black" d="M280.041,-304.602C296.779,-317.241 324.872,-338.454 343.907,-352.827"/>
<polygon fill="black" stroke="black" points="349.985,-357.417 342.501,-355.713 347.192,-355.308 344.399,-353.199 344.399,-353.199 344.399,-353.199 347.192,-355.308 346.297,-350.685 349.985,-357.417 349.985,-357.417"/>
<text text-anchor="start" x="301" y="-342.4" font-family="Lato" font-size="12.00">a &amp; b</text>
</g>
<!-- 9 -->
<g id="node11" class="node"><title>9</title>
<ellipse fill="#ffffa0" stroke="black" cx="468" cy="-228" rx="18" ry="18"/>
<text text-anchor="middle" x="468" y="-224.9" font-family="Lato" font-size="12.00">9</text>
</g>
<!-- 3&#45;&gt;9 -->
<g id="edge13" class="edge"><title>3&#45;&gt;9</title>
<path fill="none" stroke="black" d="M281.932,-287.327C287.878,-284.916 294.711,-282.239 301,-280 351.256,-262.107 411.192,-244.149 443.522,-234.735"/>
<polygon fill="black" stroke="black" points="450.367,-232.749 444.522,-237.725 447.006,-233.724 443.645,-234.699 443.645,-234.699 443.645,-234.699 447.006,-233.724 442.767,-231.674 450.367,-232.749 450.367,-232.749"/>
<text text-anchor="start" x="349.5" y="-267.4" font-family="Lato" font-size="12.00">a &amp; !b</text>
</g>
<!-- 4&#45;&gt;0 -->
<g id="edge15" class="edge"><title>4&#45;&gt;0</title>
<path fill="none" stroke="black" d="M980.614,-440.027C963.981,-460.719 929.224,-497 890,-497 161,-497 161,-497 161,-497 113.418,-497 81.2952,-442.011 66.4421,-409.441"/>
<polygon fill="black" stroke="black" points="63.5354,-402.859 69.2448,-407.989 64.9493,-406.06 66.3632,-409.262 66.3632,-409.262 66.3632,-409.262 64.9493,-406.06 63.4817,-410.534 63.5354,-402.859 63.5354,-402.859"/>
<text text-anchor="start" x="504" y="-500.4" font-family="Lato" font-size="12.00">!a &amp; !b</text>
</g>
<!-- 7 -->
<g id="node7" class="node"><title>7</title>
<ellipse fill="#ffffa0" stroke="black" cx="889" cy="-145" rx="18" ry="18"/>
<text text-anchor="middle" x="889" y="-141.9" font-family="Lato" font-size="12.00">7</text>
</g>
<!-- 4&#45;&gt;7 -->
<g id="edge16" class="edge"><title>4&#45;&gt;7</title>
<path fill="none" stroke="black" d="M985.016,-409.351C967.828,-361.533 918.277,-223.672 898.398,-168.366"/>
<polygon fill="black" stroke="black" points="896.016,-161.736 901.348,-167.258 897.199,-165.03 898.383,-168.324 898.383,-168.324 898.383,-168.324 897.199,-165.03 895.419,-169.389 896.016,-161.736 896.016,-161.736"/>
<text text-anchor="start" x="925" y="-330.4" font-family="Lato" font-size="12.00">!a &amp; b</text>
</g>
<!-- 1&#45;&gt;0 -->
<g id="edge6" class="edge"><title>1&#45;&gt;0</title>
<path fill="none" stroke="black" d="M571.363,-130.004C568.435,-108.788 560.326,-74.0166 538,-55 514.178,-34.7098 500.292,-41 469,-41 161,-41 161,-41 161,-41 94.185,-41 66.4632,-281.204 59.1144,-360.754"/>
<polygon fill="black" stroke="black" points="58.4662,-367.937 55.9581,-360.682 58.7808,-364.451 59.0954,-360.965 59.0954,-360.965 59.0954,-360.965 58.7808,-364.451 62.2326,-361.249 58.4662,-367.937 58.4662,-367.937"/>
<text text-anchor="start" x="301" y="-44.4" font-family="Lato" font-size="12.00">a &amp; b</text>
</g>
<!-- 1&#45;&gt;7 -->
<g id="edge5" class="edge"><title>1&#45;&gt;7</title>
<path fill="none" stroke="black" d="M582.821,-131.709C588.79,-121.039 598.025,-107.692 610,-100 649.309,-74.7515 666.516,-83.6904 713,-79 775.6,-72.6834 799.448,-66.9705 853,-100 862.129,-105.631 869.802,-114.559 875.614,-122.983"/>
<polygon fill="black" stroke="black" points="879.69,-129.264 873.237,-125.107 877.785,-126.328 875.88,-123.392 875.88,-123.392 875.88,-123.392 877.785,-126.328 878.522,-121.678 879.69,-129.264 879.69,-129.264"/>
<text text-anchor="start" x="716" y="-82.4" font-family="Lato" font-size="12.00">a &amp; b</text>
</g>
<!-- 6 -->
<g id="node8" class="node"><title>6</title>
<ellipse fill="#ffffa0" stroke="black" cx="677" cy="-334" rx="18" ry="18"/>
<text text-anchor="middle" x="677" y="-330.9" font-family="Lato" font-size="12.00">6</text>
</g>
<!-- 1&#45;&gt;6 -->
<g id="edge7" class="edge"><title>1&#45;&gt;6</title>
<path fill="none" stroke="black" d="M578.299,-165.657C583.01,-188.162 593.027,-227.768 610,-258 622.8,-280.8 643.184,-302.91 657.914,-317.348"/>
<polygon fill="black" stroke="black" points="663.06,-322.308 655.834,-319.719 660.54,-319.879 658.02,-317.45 658.02,-317.45 658.02,-317.45 660.54,-319.879 660.205,-315.182 663.06,-322.308 663.06,-322.308"/>
<text text-anchor="start" x="610" y="-303.4" font-family="Lato" font-size="12.00">a &amp; !b</text>
</g>
<!-- 7&#45;&gt;0 -->
<g id="edge27" class="edge"><title>7&#45;&gt;0</title>
<path fill="none" stroke="black" d="M884.213,-127.51C874.726,-88.944 846.113,-0 784,-0 161,-0 161,-0 161,-0 118.255,-0 110.773,-28.5978 92,-67 66.731,-118.69 59.4536,-294.617 57.5849,-360.667"/>
<polygon fill="black" stroke="black" points="57.3922,-367.801 54.4324,-360.718 57.4867,-364.302 57.5813,-360.803 57.5813,-360.803 57.5813,-360.803 57.4867,-364.302 60.7301,-360.888 57.3922,-367.801 57.3922,-367.801"/>
<text text-anchor="start" x="452.5" y="-3.4" font-family="Lato" font-size="12.00">!a &amp; b</text>
</g>
<!-- 7&#45;&gt;8 -->
<g id="edge25" class="edge"><title>7&#45;&gt;8</title>
<path fill="none" stroke="black" d="M883.607,-127.725C878.76,-112.385 869.386,-90.6467 853,-79 833.941,-65.4532 824.315,-72.783 801,-71 631.015,-58.0007 587.982,-79 417.5,-79 264,-79 264,-79 264,-79 180.92,-79 166.051,-212.142 163.487,-268.878"/>
<polygon fill="black" stroke="black" points="163.211,-276.039 160.333,-268.923 163.346,-272.542 163.48,-269.044 163.48,-269.044 163.48,-269.044 163.346,-272.542 166.628,-269.166 163.211,-276.039 163.211,-276.039"/>
<text text-anchor="start" x="504" y="-81.4" font-family="Lato" font-size="12.00">!a &amp; !b</text>
</g>
<!-- 7&#45;&gt;4 -->
<g id="edge29" class="edge"><title>7&#45;&gt;4</title>
<path fill="none" stroke="black" d="M902.727,-156.705C917.979,-171.515 943.089,-198.542 956,-227 982.426,-285.25 988.964,-361.481 990.538,-400.525"/>
<polygon fill="black" stroke="black" points="990.791,-407.821 987.4,-400.935 990.67,-404.323 990.548,-400.826 990.548,-400.826 990.548,-400.826 990.67,-404.323 993.696,-400.716 990.791,-407.821 990.791,-407.821"/>
<text text-anchor="start" x="926.5" y="-230.4" font-family="Lato" font-size="12.00">a &amp; b</text>
</g>
<!-- 7&#45;&gt;1 -->
<g id="edge28" class="edge"><title>7&#45;&gt;1</title>
<path fill="none" stroke="black" d="M870.752,-144.742C827.092,-144.157 708.655,-143.006 610,-146 606.532,-146.105 602.874,-146.263 599.281,-146.444"/>
<polygon fill="black" stroke="black" points="592.082,-146.841 598.898,-143.31 595.577,-146.648 599.071,-146.456 599.071,-146.456 599.071,-146.456 595.577,-146.648 599.244,-149.601 592.082,-146.841 592.082,-146.841"/>
<text text-anchor="start" x="713" y="-148.4" font-family="Lato" font-size="12.00">!a &amp; !b</text>
</g>
<!-- 7&#45;&gt;9 -->
<g id="edge26" class="edge"><title>7&#45;&gt;9</title>
<path fill="none" stroke="black" d="M876.332,-158.261C858.473,-177.007 822.373,-209 784,-209 573,-209 573,-209 573,-209 544.924,-209 513.269,-215.784 492.336,-221.244"/>
<polygon fill="black" stroke="black" points="485.402,-223.107 491.345,-218.248 488.782,-222.199 492.162,-221.291 492.162,-221.291 492.162,-221.291 488.782,-222.199 492.98,-224.333 485.402,-223.107 485.402,-223.107"/>
<text text-anchor="start" x="663" y="-212.4" font-family="Lato" font-size="12.00">a &amp; b</text>
</g>
<!-- 6&#45;&gt;8 -->
<g id="edge22" class="edge"><title>6&#45;&gt;8</title>
<path fill="none" stroke="black" d="M664.284,-346.917C642.272,-370.086 592.062,-417.885 538,-435 479.951,-453.378 460.038,-449.897 401,-435 310.386,-412.136 220.015,-342.564 181.873,-310.501"/>
<polygon fill="black" stroke="black" points="176.208,-305.69 183.582,-307.82 178.876,-307.956 181.543,-310.222 181.543,-310.222 181.543,-310.222 178.876,-307.956 179.504,-312.623 176.208,-305.69 176.208,-305.69"/>
<text text-anchor="start" x="402.5" y="-445.4" font-family="Lato" font-size="12.00">a &amp; b</text>
</g>
<!-- 6&#45;&gt;2 -->
<g id="edge24" class="edge"><title>6&#45;&gt;2</title>
<path fill="none" stroke="black" d="M658.944,-335.871C607.039,-341.563 450.858,-358.693 390.334,-365.331"/>
<polygon fill="black" stroke="black" points="383.109,-366.124 389.723,-362.229 386.588,-365.742 390.067,-365.36 390.067,-365.36 390.067,-365.36 386.588,-365.742 390.41,-368.492 383.109,-366.124 383.109,-366.124"/>
<text text-anchor="start" x="505.5" y="-355.4" font-family="Lato" font-size="12.00">a &amp; !b</text>
</g>
<!-- 5 -->
<g id="node10" class="node"><title>5</title>
<ellipse fill="#ffffa0" stroke="black" cx="783" cy="-272" rx="18" ry="18"/>
<text text-anchor="middle" x="783" y="-268.9" font-family="Lato" font-size="12.00">5</text>
</g>
<!-- 6&#45;&gt;5 -->
<g id="edge23" class="edge"><title>6&#45;&gt;5</title>
<path fill="none" stroke="black" d="M694.268,-327.934C708.679,-322.223 730.007,-312.927 747,-302 752.833,-298.249 758.728,-293.6 763.974,-289.091"/>
<polygon fill="black" stroke="black" points="769.378,-284.302 766.228,-291.302 766.759,-286.623 764.139,-288.944 764.139,-288.944 764.139,-288.944 766.759,-286.623 762.05,-286.587 769.378,-284.302 769.378,-284.302"/>
<text text-anchor="start" x="714.5" y="-322.4" font-family="Lato" font-size="12.00">a &amp; !b</text>
</g>
<!-- 2&#45;&gt;0 -->
<g id="edge9" class="edge"><title>2&#45;&gt;0</title>
<path fill="none" stroke="black" d="M347.004,-369.921C308.007,-374.221 209.064,-384.516 126,-388 110.902,-388.633 107.105,-388.431 92,-388 88.5322,-387.901 84.8735,-387.747 81.2809,-387.567"/>
<polygon fill="black" stroke="black" points="74.0815,-387.172 81.2437,-384.411 77.5762,-387.364 81.0709,-387.556 81.0709,-387.556 81.0709,-387.556 77.5762,-387.364 80.8981,-390.701 74.0815,-387.172 74.0815,-387.172"/>
<text text-anchor="start" x="198" y="-386.4" font-family="Lato" font-size="12.00">a &amp; !b</text>
</g>
<!-- 2&#45;&gt;4 -->
<g id="edge8" class="edge"><title>2&#45;&gt;4</title>
<path fill="none" stroke="black" d="M379.892,-378.771C386.034,-382.975 393.545,-387.403 401,-390 539.489,-438.248 582.347,-426 729,-426 729,-426 729,-426 890,-426 916.236,-426 946.306,-426 966.766,-426"/>
<polygon fill="black" stroke="black" points="973.844,-426 966.844,-429.15 970.344,-426 966.844,-426 966.844,-426 966.844,-426 970.344,-426 966.844,-422.85 973.844,-426 973.844,-426"/>
<text text-anchor="start" x="660" y="-429.4" font-family="Lato" font-size="12.00">!a &amp; !b</text>
</g>
<!-- 2&#45;&gt;5 -->
<g id="edge10" class="edge"><title>2&#45;&gt;5</title>
<path fill="none" stroke="black" d="M382.726,-371.216C402.7,-374.77 437.158,-380 467,-380 467,-380 467,-380 678,-380 724.902,-380 757.302,-326.497 772.379,-294.807"/>
<polygon fill="black" stroke="black" points="775.332,-288.403 775.261,-296.079 773.866,-291.581 772.401,-294.76 772.401,-294.76 772.401,-294.76 773.866,-291.581 769.54,-293.44 775.332,-288.403 775.332,-288.403"/>
<text text-anchor="start" x="558.5" y="-383.4" font-family="Lato" font-size="12.00">a &amp; !b</text>
</g>
<!-- 2&#45;&gt;9 -->
<g id="edge11" class="edge"><title>2&#45;&gt;9</title>
<path fill="none" stroke="black" d="M376.24,-353.806C394.313,-328.754 431.907,-276.644 452.589,-247.976"/>
<polygon fill="black" stroke="black" points="456.733,-242.232 455.192,-249.752 454.685,-245.07 452.637,-247.909 452.637,-247.909 452.637,-247.909 454.685,-245.07 450.083,-246.066 456.733,-242.232 456.733,-242.232"/>
<text text-anchor="start" x="401" y="-321.4" font-family="Lato" font-size="12.00">!a &amp; b</text>
</g>
<!-- 5&#45;&gt;3 -->
<g id="edge17" class="edge"><title>5&#45;&gt;3</title>
<path fill="none" stroke="black" d="M765.17,-275.491C738.831,-280.759 686.203,-290.495 641,-294 509.036,-304.233 350.165,-298.213 290.352,-295.301"/>
<polygon fill="black" stroke="black" points="283.23,-294.946 290.379,-292.148 286.726,-295.12 290.222,-295.294 290.222,-295.294 290.222,-295.294 286.726,-295.12 290.065,-298.44 283.23,-294.946 283.23,-294.946"/>
<text text-anchor="start" x="505.5" y="-303.4" font-family="Lato" font-size="12.00">a &amp; !b</text>
</g>
<!-- 5&#45;&gt;1 -->
<g id="edge18" class="edge"><title>5&#45;&gt;1</title>
<path fill="none" stroke="black" d="M772.897,-256.682C759.002,-234.722 730.353,-194.67 695,-174 665.02,-156.471 624.598,-150.723 599.167,-148.86"/>
<polygon fill="black" stroke="black" points="592.098,-148.414 599.282,-145.711 595.591,-148.635 599.084,-148.855 599.084,-148.855 599.084,-148.855 595.591,-148.635 598.886,-151.999 592.098,-148.414 592.098,-148.414"/>
<text text-anchor="start" x="661.5" y="-177.4" font-family="Lato" font-size="12.00">!a &amp; b</text>
</g>
<!-- 5&#45;&gt;7 -->
<g id="edge19" class="edge"><title>5&#45;&gt;7</title>
<path fill="none" stroke="black" d="M799.538,-264.16C814.858,-255.766 838.081,-241.167 853,-223 866.105,-207.042 875.303,-185.392 880.97,-168.95"/>
<polygon fill="black" stroke="black" points="883.184,-162.254 883.977,-169.889 882.085,-165.577 880.987,-168.9 880.987,-168.9 880.987,-168.9 882.085,-165.577 877.996,-167.911 883.184,-162.254 883.184,-162.254"/>
<text text-anchor="start" x="819" y="-255.4" font-family="Lato" font-size="12.00">!a &amp; !b</text>
</g>
<!-- 5&#45;&gt;5 -->
<g id="edge21" class="edge"><title>5&#45;&gt;5</title>
<path fill="none" stroke="black" d="M774.021,-287.916C771.679,-298.15 774.672,-308 783,-308 789.376,-308 792.625,-302.226 792.746,-294.927"/>
<polygon fill="black" stroke="black" points="791.979,-287.916 795.872,-294.532 792.36,-291.395 792.741,-294.874 792.741,-294.874 792.741,-294.874 792.36,-291.395 789.61,-295.217 791.979,-287.916 791.979,-287.916"/>
<text text-anchor="start" x="766" y="-311.4" font-family="Lato" font-size="12.00">!a &amp; !b</text>
</g>
<!-- 5&#45;&gt;9 -->
<g id="edge20" class="edge"><title>5&#45;&gt;9</title>
<path fill="none" stroke="black" d="M765.213,-267.502C738.932,-260.645 686.379,-247.669 641,-241 588.665,-233.308 526.663,-230.042 493.251,-228.756"/>
<polygon fill="black" stroke="black" points="486.177,-228.497 493.288,-225.605 489.675,-228.625 493.173,-228.753 493.173,-228.753 493.173,-228.753 489.675,-228.625 493.057,-231.901 486.177,-228.497 486.177,-228.497"/>
<text text-anchor="start" x="610" y="-244.4" font-family="Lato" font-size="12.00">!a &amp; b</text>
</g>
<!-- 9&#45;&gt;3 -->
<g id="edge33" class="edge"><title>9&#45;&gt;3</title>
<path fill="none" stroke="black" d="M449.777,-226.655C425.983,-225.38 382.026,-225.144 347,-237 322.63,-245.249 299.077,-263.327 283.711,-276.927"/>
<polygon fill="black" stroke="black" points="278.434,-281.708 281.506,-274.673 281.027,-279.358 283.621,-277.008 283.621,-277.008 283.621,-277.008 281.027,-279.358 285.736,-279.342 278.434,-281.708 278.434,-281.708"/>
<text text-anchor="start" x="349.5" y="-240.4" font-family="Lato" font-size="12.00">a &amp; !b</text>
</g>
<!-- 9&#45;&gt;1 -->
<g id="edge32" class="edge"><title>9&#45;&gt;1</title>
<path fill="none" stroke="black" d="M477.918,-212.874C484.247,-203.118 493.467,-190.678 504,-182 517.73,-170.689 535.852,-161.944 550.079,-156.157"/>
<polygon fill="black" stroke="black" points="556.714,-153.555 551.348,-159.043 553.456,-154.833 550.198,-156.11 550.198,-156.11 550.198,-156.11 553.456,-154.833 549.048,-153.178 556.714,-153.555 556.714,-153.555"/>
<text text-anchor="start" x="505.5" y="-185.4" font-family="Lato" font-size="12.00">!a &amp; b</text>
</g>
</g>
</svg>
