<?xml version="1.0" encoding="UTF-8" standalone="no"?>
<?xml-stylesheet href="spot.css" type="text/css"?>
<!DOCTYPE svg PUBLIC "-//W3C//DTD SVG 1.1//EN"
 "http://www.w3.org/Graphics/SVG/1.1/DTD/svg11.dtd">
<!-- Generated by graphviz version 2.38.0 (20140413.2041)
 -->
<!-- Title: G Pages: 1 -->
<svg width="622pt" height="266pt"
 viewBox="0.00 0.00 621.95 266.00" xmlns="http://www.w3.org/2000/svg" xmlns:xlink="http://www.w3.org/1999/xlink">
<g id="graph0" class="graph" transform="scale(1 1) rotate(0) translate(4 262)">
<title>G</title>
<polygon fill="white" stroke="none" points="-4,4 -4,-262 617.951,-262 617.951,4 -4,4"/>
<text text-anchor="start" x="212.475" y="-245.4" font-family="Lato" font-size="12.00">(Fin(</text>
<text text-anchor="start" x="235.475" y="-245.4" font-family="Lato" font-size="12.00" fill="#1f78b4">⓿</text>
<text text-anchor="start" x="249.475" y="-245.4" font-family="Lato" font-size="12.00">) | Inf(</text>
<text text-anchor="start" x="279.475" y="-245.4" font-family="Lato" font-size="12.00" fill="#ff4da0">❶</text>
<text text-anchor="start" x="293.475" y="-245.4" font-family="Lato" font-size="12.00">)) &amp; (Fin(</text>
<text text-anchor="start" x="336.475" y="-245.4" font-family="Lato" font-size="12.00" fill="#ff7f00">❷</text>
<text text-anchor="start" x="350.475" y="-245.4" font-family="Lato" font-size="12.00">) | Inf(</text>
<text text-anchor="start" x="380.475" y="-245.4" font-family="Lato" font-size="12.00" fill="#6a3d9a">❸</text>
<text text-anchor="start" x="394.475" y="-245.4" font-family="Lato" font-size="12.00">))</text>
<text text-anchor="start" x="279.975" y="-233.4" font-family="Lato" font-size="12.00">[Streett 2]</text>
<!-- I -->
<!-- 0 -->
<g id="node2" class="node"><title>0</title>
<ellipse fill="#ffffa0" stroke="black" cx="56" cy="-54" rx="18" ry="18"/>
<text text-anchor="middle" x="56" y="-50.9" font-family="Lato" font-size="12.00">0</text>
</g>
<!-- I&#45;&gt;0 -->
<g id="edge1" class="edge"><title>I&#45;&gt;0</title>
<path fill="none" stroke="black" d="M1.15491,-54C2.79388,-54 17.1543,-54 30.6317,-54"/>
<polygon fill="black" stroke="black" points="37.9419,-54 30.9419,-57.1501 34.4419,-54 30.9419,-54.0001 30.9419,-54.0001 30.9419,-54.0001 34.4419,-54 30.9418,-50.8501 37.9419,-54 37.9419,-54"/>
</g>
<!-- 2 -->
<g id="node3" class="node"><title>2</title>
<ellipse fill="#ffffa0" stroke="black" cx="189.113" cy="-98" rx="31.2258" ry="31.2258"/>
<text text-anchor="start" x="185.613" y="-101.4" font-family="Lato" font-size="12.00">2</text>
<text text-anchor="start" x="175.113" y="-89.4" font-family="Lato" font-size="12.00" fill="#1f78b4">⓿</text>
<text text-anchor="start" x="189.113" y="-89.4" font-family="Lato" font-size="12.00" fill="#ff7f00">❷</text>
</g>
<!-- 0&#45;&gt;2 -->
<g id="edge2" class="edge"><title>0&#45;&gt;2</title>
<path fill="none" stroke="black" d="M73.3404,-59.4837C93.0642,-66.1028 126.795,-77.4225 152.601,-86.0826"/>
<polygon fill="black" stroke="black" points="159.313,-88.3353 151.675,-89.0945 155.995,-87.2217 152.677,-86.1082 152.677,-86.1082 152.677,-86.1082 155.995,-87.2217 153.679,-83.1218 159.313,-88.3353 159.313,-88.3353"/>
<text text-anchor="start" x="92" y="-84.4" font-family="Lato" font-size="12.00">!p0 &amp; !p1</text>
</g>
<!-- 1 -->
<g id="node4" class="node"><title>1</title>
<ellipse fill="#ffffa0" stroke="black" cx="325.225" cy="-72" rx="18" ry="18"/>
<text text-anchor="middle" x="325.225" y="-68.9" font-family="Lato" font-size="12.00">1</text>
</g>
<!-- 0&#45;&gt;1 -->
<g id="edge3" class="edge"><title>0&#45;&gt;1</title>
<path fill="none" stroke="black" d="M73.4093,-49.3791C111.399,-39.4919 207.904,-19.0541 283.225,-43 291.368,-45.5887 299.285,-50.4452 305.955,-55.4539"/>
<polygon fill="black" stroke="black" points="311.702,-60.0359 304.265,-58.1347 308.965,-57.8538 306.229,-55.6718 306.229,-55.6718 306.229,-55.6718 308.965,-57.8538 308.193,-53.2089 311.702,-60.0359 311.702,-60.0359"/>
<text text-anchor="start" x="165.113" y="-37.4" font-family="Lato" font-size="12.00">!p0 &amp; !p1</text>
</g>
<!-- 3 -->
<g id="node5" class="node"><title>3</title>
<ellipse fill="#ffffa0" stroke="black" cx="591.451" cy="-167" rx="18" ry="18"/>
<text text-anchor="middle" x="591.451" y="-163.9" font-family="Lato" font-size="12.00">3</text>
</g>
<!-- 0&#45;&gt;3 -->
<g id="edge4" class="edge"><title>0&#45;&gt;3</title>
<path fill="none" stroke="black" d="M61.9968,-71.0158C75.2031,-112.033 115.124,-213 188.113,-213 188.113,-213 188.113,-213 465.338,-213 503.838,-213 545.134,-193.574 569.335,-179.97"/>
<polygon fill="black" stroke="black" points="575.691,-176.309 571.198,-182.533 572.658,-178.056 569.625,-179.803 569.625,-179.803 569.625,-179.803 572.658,-178.056 568.053,-177.074 575.691,-176.309 575.691,-176.309"/>
<text text-anchor="start" x="301.225" y="-216.4" font-family="Lato" font-size="12.00">!p0 &amp; !p1</text>
</g>
<!-- 2&#45;&gt;2 -->
<g id="edge7" class="edge"><title>2&#45;&gt;2</title>
<path fill="none" stroke="black" d="M176.068,-126.263C175.331,-137.598 179.679,-147.113 189.113,-147.113 196.483,-147.113 200.749,-141.306 201.911,-133.36"/>
<polygon fill="black" stroke="black" points="202.158,-126.263 205.063,-133.368 202.036,-129.761 201.915,-133.259 201.915,-133.259 201.915,-133.259 202.036,-129.761 198.767,-133.149 202.158,-126.263 202.158,-126.263"/>
<text text-anchor="start" x="165.113" y="-150.513" font-family="Lato" font-size="12.00">!p0 &amp; !p1</text>
</g>
<!-- 2&#45;&gt;1 -->
<g id="edge6" class="edge"><title>2&#45;&gt;1</title>
<path fill="none" stroke="black" d="M219.877,-92.2298C244.109,-87.5319 277.868,-80.9871 300.354,-76.628"/>
<polygon fill="black" stroke="black" points="307.231,-75.2946 300.959,-79.7193 303.795,-75.9607 300.359,-76.6269 300.359,-76.6269 300.359,-76.6269 303.795,-75.9607 299.76,-73.5345 307.231,-75.2946 307.231,-75.2946"/>
<text text-anchor="start" x="238.225" y="-91.4" font-family="Lato" font-size="12.00">!p0 &amp; p1</text>
</g>
<!-- 4 -->
<g id="node7" class="node"><title>4</title>
<ellipse fill="#ffffa0" stroke="black" cx="325.225" cy="-18" rx="18" ry="18"/>
<text text-anchor="middle" x="325.225" y="-14.9" font-family="Lato" font-size="12.00">4</text>
</g>
<!-- 2&#45;&gt;4 -->
<g id="edge8" class="edge"><title>2&#45;&gt;4</title>
<path fill="none" stroke="black" d="M214.604,-79.1201C222.035,-73.6839 230.327,-67.9026 238.225,-63 259.207,-49.9769 284.349,-37.1175 302.012,-28.502"/>
<polygon fill="black" stroke="black" points="308.624,-25.305 303.693,-31.1882 305.473,-26.8287 302.322,-28.3524 302.322,-28.3524 302.322,-28.3524 305.473,-26.8287 300.95,-25.5165 308.624,-25.305 308.624,-25.305"/>
<text text-anchor="start" x="239.725" y="-66.4" font-family="Lato" font-size="12.00">p0 &amp; p1</text>
</g>
<!-- 5 -->
<g id="node6" class="node"><title>5</title>
<ellipse fill="#ffffa0" stroke="black" cx="464.338" cy="-98" rx="31.2258" ry="31.2258"/>
<text text-anchor="start" x="460.838" y="-101.4" font-family="Lato" font-size="12.00">5</text>
<text text-anchor="start" x="450.338" y="-89.4" font-family="Lato" font-size="12.00" fill="#ff4da0">❶</text>
<text text-anchor="start" x="464.338" y="-89.4" font-family="Lato" font-size="12.00" fill="#ff7f00">❷</text>
</g>
<!-- 1&#45;&gt;5 -->
<g id="edge5" class="edge"><title>1&#45;&gt;5</title>
<path fill="none" stroke="black" d="M342.401,-66.4884C360.566,-61.1776 390.709,-55.0262 415.225,-63 422.15,-65.2524 428.91,-68.9186 435.07,-73.0491"/>
<polygon fill="black" stroke="black" points="441.015,-77.2992 433.488,-75.7903 438.168,-75.2635 435.321,-73.2279 435.321,-73.2279 435.321,-73.2279 438.168,-75.2635 437.153,-70.6654 441.015,-77.2992 441.015,-77.2992"/>
<text text-anchor="start" x="368.725" y="-66.4" font-family="Lato" font-size="12.00">!p0 &amp; p1</text>
</g>
<!-- 3&#45;&gt;2 -->
<g id="edge9" class="edge"><title>3&#45;&gt;2</title>
<path fill="none" stroke="black" d="M573.221,-166.497C521.476,-164.609 363.299,-156.069 238.225,-120 233.372,-118.6 228.383,-116.786 223.541,-114.801"/>
<polygon fill="black" stroke="black" points="217.055,-112.01 224.731,-111.884 220.27,-113.394 223.485,-114.778 223.485,-114.778 223.485,-114.778 220.27,-113.394 222.24,-117.671 217.055,-112.01 217.055,-112.01"/>
<text text-anchor="start" x="367.225" y="-156.4" font-family="Lato" font-size="12.00">!p0 &amp; !p1</text>
</g>
<!-- 3&#45;&gt;3 -->
<g id="edge10" class="edge"><title>3&#45;&gt;3</title>
<path fill="none" stroke="black" d="M581.876,-182.541C579.181,-192.909 582.373,-203 591.451,-203 598.401,-203 601.901,-197.085 601.95,-189.659"/>
<polygon fill="black" stroke="black" points="601.025,-182.541 605.051,-189.077 601.476,-186.012 601.927,-189.483 601.927,-189.483 601.927,-189.483 601.476,-186.012 598.804,-189.889 601.025,-182.541 601.025,-182.541"/>
<text text-anchor="start" x="568.951" y="-206.4" font-family="Lato" font-size="12.00">!p0 &amp; p1</text>
</g>
<!-- 5&#45;&gt;2 -->
<g id="edge14" class="edge"><title>5&#45;&gt;2</title>
<path fill="none" stroke="black" d="M433.383,-103.041C427.386,-103.857 421.119,-104.574 415.225,-105 336.764,-110.678 316.687,-110.678 238.225,-105 234.634,-104.74 230.904,-104.373 227.181,-103.94"/>
<polygon fill="black" stroke="black" points="220.068,-103.041 227.408,-100.794 223.54,-103.48 227.013,-103.919 227.013,-103.919 227.013,-103.919 223.54,-103.48 226.617,-107.044 220.068,-103.041 220.068,-103.041"/>
<text text-anchor="start" x="301.225" y="-112.4" font-family="Lato" font-size="12.00">!p0 &amp; !p1</text>
</g>
<!-- 5&#45;&gt;1 -->
<g id="edge13" class="edge"><title>5&#45;&gt;1</title>
<path fill="none" stroke="black" d="M433.618,-92.3644C408.614,-87.6229 373.323,-80.9309 350.119,-76.5308"/>
<polygon fill="black" stroke="black" points="343.038,-75.1881 350.502,-73.3975 346.477,-75.8402 349.916,-76.4923 349.916,-76.4923 349.916,-76.4923 346.477,-75.8402 349.329,-79.5872 343.038,-75.1881 343.038,-75.1881"/>
<text text-anchor="start" x="370.225" y="-91.4" font-family="Lato" font-size="12.00">p0 &amp; p1</text>
</g>
<!-- 5&#45;&gt;3 -->
<g id="edge15" class="edge"><title>5&#45;&gt;3</title>
<path fill="none" stroke="black" d="M493.766,-109.333C511.928,-117.034 535.692,-127.978 555.451,-140 560.917,-143.326 566.535,-147.349 571.626,-151.263"/>
<polygon fill="black" stroke="black" points="577.32,-155.759 569.874,-153.893 574.573,-153.59 571.826,-151.421 571.826,-151.421 571.826,-151.421 574.573,-153.59 573.778,-148.949 577.32,-155.759 577.32,-155.759"/>
<text text-anchor="start" x="513.451" y="-143.4" font-family="Lato" font-size="12.00">p0 &amp; p1</text>
</g>
<!-- 4&#45;&gt;0 -->
<g id="edge11" class="edge"><title>4&#45;&gt;0</title>
<path fill="none" stroke="black" d="M307.14,-15.8334C276.908,-12.3896 212.076,-6.75828 158,-14 127.864,-18.0357 119.84,-19.7771 92,-32 87.0302,-34.182 81.9423,-36.9947 77.2398,-39.875"/>
<polygon fill="black" stroke="black" points="71.1135,-43.7918 75.3144,-37.3672 74.0623,-41.9065 77.0111,-40.0212 77.0111,-40.0212 77.0111,-40.0212 74.0623,-41.9065 78.7079,-42.6751 71.1135,-43.7918 71.1135,-43.7918"/>
<text text-anchor="start" x="165.113" y="-17.4" font-family="Lato" font-size="12.00">!p0 &amp; !p1</text>
</g>
<!-- 4&#45;&gt;5 -->
<g id="edge12" class="edge"><title>4&#45;&gt;5</title>
<path fill="none" stroke="black" d="M343.499,-19.6061C362.37,-22.0231 392.884,-27.9245 415.225,-42 425.374,-48.3937 434.532,-57.5958 442.067,-66.6988"/>
<polygon fill="black" stroke="black" points="446.544,-72.3279 439.721,-68.8098 444.365,-69.5885 442.187,-66.8491 442.187,-66.8491 442.187,-66.8491 444.365,-69.5885 444.652,-64.8885 446.544,-72.3279 446.544,-72.3279"/>
<text text-anchor="start" x="368.725" y="-45.4" font-family="Lato" font-size="12.00">!p0 &amp; p1</text>
</g>
</g>
</svg>
