<?xml version="1.0" encoding="UTF-8" standalone="no"?>
<?xml-stylesheet href="spot.css" type="text/css"?>
<!DOCTYPE svg PUBLIC "-//W3C//DTD SVG 1.1//EN"
 "http://www.w3.org/Graphics/SVG/1.1/DTD/svg11.dtd">
<!-- Generated by graphviz version 2.38.0 (20140413.2041)
 -->
<!-- Title: G Pages: 1 -->
<svg width="244pt" height="79pt"
 viewBox="0.00 0.00 244.00 79.45" xmlns="http://www.w3.org/2000/svg" xmlns:xlink="http://www.w3.org/1999/xlink">
<g id="graph0" class="graph" transform="scale(1 1) rotate(0) translate(4 75.4545)">
<title>G</title>
<polygon fill="white" stroke="none" points="-4,4 -4,-75.4545 240,-75.4545 240,4 -4,4"/>
<!-- I -->
<!-- 0 -->
<g id="node2" class="node"><title>0</title>
<ellipse fill="#ffffa0" stroke="black" cx="56" cy="-22.4545" rx="18" ry="18"/>
<text text-anchor="middle" x="56" y="-19.3545" font-family="Lato" font-size="12.00">0</text>
</g>
<!-- I&#45;&gt;0 -->
<g id="edge1" class="edge"><title>I&#45;&gt;0</title>
<path fill="none" stroke="black" d="M1.15491,-22.4545C2.79388,-22.4545 17.1543,-22.4545 30.6317,-22.4545"/>
<polygon fill="black" stroke="black" points="37.9419,-22.4545 30.9419,-25.6046 34.4419,-22.4545 30.9419,-22.4546 30.9419,-22.4546 30.9419,-22.4546 34.4419,-22.4545 30.9418,-19.3046 37.9419,-22.4545 37.9419,-22.4545"/>
</g>
<!-- 0&#45;&gt;0 -->
<g id="edge2" class="edge"><title>0&#45;&gt;0</title>
<path fill="none" stroke="black" d="M49.6208,-39.4918C48.3189,-49.3124 50.4453,-58.4545 56,-58.4545 60.166,-58.4545 62.4036,-53.312 62.7128,-46.5978"/>
<polygon fill="black" stroke="black" points="62.3792,-39.4918 65.8541,-46.3363 62.5434,-42.9879 62.7076,-46.4841 62.7076,-46.4841 62.7076,-46.4841 62.5434,-42.9879 59.561,-46.6318 62.3792,-39.4918 62.3792,-39.4918"/>
<text text-anchor="start" x="45.5" y="-61.8545" font-family="Lato" font-size="12.00">!red</text>
</g>
<!-- 1 -->
<g id="node3" class="node"><title>1</title>
<ellipse fill="#ffffa0" stroke="black" cx="201" cy="-22.4545" rx="18" ry="18"/>
<text text-anchor="middle" x="201" y="-19.3545" font-family="Lato" font-size="12.00">1</text>
</g>
<!-- 0&#45;&gt;1 -->
<g id="edge3" class="edge"><title>0&#45;&gt;1</title>
<path fill="none" stroke="black" d="M74.2491,-22.4545C99.4797,-22.4545 146.574,-22.4545 175.422,-22.4545"/>
<polygon fill="black" stroke="black" points="182.69,-22.4545 175.69,-25.6046 179.19,-22.4545 175.69,-22.4546 175.69,-22.4546 175.69,-22.4546 179.19,-22.4545 175.69,-19.3046 182.69,-22.4545 182.69,-22.4545"/>
<text text-anchor="start" x="119.5" y="-25.8545" font-family="Lato" font-size="12.00">red</text>
</g>
<!-- 1&#45;&gt;0 -->
<g id="edge4" class="edge"><title>1&#45;&gt;0</title>
<path fill="none" stroke="black" d="M185.22,-13.4378C179.178,-10.25 171.978,-7.05954 165,-5.45446 133.381,1.81815 123.619,1.81815 92,-5.45446 87.4205,-6.5078 82.7454,-8.24391 78.365,-10.214"/>
<polygon fill="black" stroke="black" points="71.7798,-13.4378 76.6818,-7.5307 74.9233,-11.8988 78.0668,-10.3599 78.0668,-10.3599 78.0668,-10.3599 74.9233,-11.8988 79.4519,-13.189 71.7798,-13.4378 71.7798,-13.4378"/>
<text text-anchor="start" x="92" y="-8.85446" font-family="Lato" font-size="12.00">!red &amp; !yellow</text>
</g>
<!-- 1&#45;&gt;1 -->
<g id="edge5" class="edge"><title>1&#45;&gt;1</title>
<path fill="none" stroke="black" d="M189.244,-36.4962C184.847,-47.3671 188.766,-58.4545 201,-58.4545 210.558,-58.4545 215.041,-51.6872 214.448,-43.543"/>
<polygon fill="black" stroke="black" points="212.756,-36.4962 217.453,-42.5675 213.573,-39.8995 214.391,-43.3028 214.391,-43.3028 214.391,-43.3028 213.573,-39.8995 211.328,-44.0382 212.756,-36.4962 212.756,-36.4962"/>
<text text-anchor="start" x="166" y="-61.8545" font-family="Lato" font-size="12.00">red &amp; !yellow</text>
</g>
</g>
</svg>
