<?xml version="1.0" encoding="UTF-8" standalone="no"?>
<?xml-stylesheet href="spot.css" type="text/css"?>
<!DOCTYPE svg PUBLIC "-//W3C//DTD SVG 1.1//EN"
 "http://www.w3.org/Graphics/SVG/1.1/DTD/svg11.dtd">
<!-- Generated by graphviz version 2.38.0 (20140413.2041)
 -->
<!-- Title: G Pages: 1 -->
<svg width="274pt" height="82pt"
 viewBox="0.00 0.00 274.00 81.92" xmlns="http://www.w3.org/2000/svg" xmlns:xlink="http://www.w3.org/1999/xlink">
<g id="graph0" class="graph" transform="scale(1 1) rotate(0) translate(4 77.9202)">
<title>G</title>
<polygon fill="white" stroke="none" points="-4,4 -4,-77.9202 270,-77.9202 270,4 -4,4"/>
<!-- I -->
<!-- 1 -->
<g id="node2" class="node"><title>1</title>
<ellipse fill="#ffffa0" stroke="black" cx="56" cy="-24.9202" rx="18" ry="18"/>
<text text-anchor="middle" x="56" y="-21.8202" font-family="Lato" font-size="12.00">1</text>
</g>
<!-- I&#45;&gt;1 -->
<g id="edge1" class="edge"><title>I&#45;&gt;1</title>
<path fill="none" stroke="black" d="M1.15491,-24.9202C2.79388,-24.9202 17.1543,-24.9202 30.6317,-24.9202"/>
<polygon fill="black" stroke="black" points="37.9419,-24.9202 30.9419,-28.0703 34.4419,-24.9202 30.9419,-24.9203 30.9419,-24.9203 30.9419,-24.9203 34.4419,-24.9202 30.9418,-21.7703 37.9419,-24.9202 37.9419,-24.9202"/>
</g>
<!-- 1&#45;&gt;1 -->
<g id="edge5" class="edge"><title>1&#45;&gt;1</title>
<path fill="none" stroke="black" d="M49.6208,-41.9575C48.3189,-51.7781 50.4453,-60.9202 56,-60.9202 60.166,-60.9202 62.4036,-55.7778 62.7128,-49.0635"/>
<polygon fill="black" stroke="black" points="62.3792,-41.9575 65.8541,-48.802 62.5434,-45.4536 62.7076,-48.9498 62.7076,-48.9498 62.7076,-48.9498 62.5434,-45.4536 59.561,-49.0975 62.3792,-41.9575 62.3792,-41.9575"/>
<text text-anchor="start" x="21" y="-64.3202" font-family="Lato" font-size="12.00">green | !press</text>
</g>
<!-- 0 -->
<g id="node3" class="node"><title>0</title>
<ellipse fill="#ffffa0" stroke="black" cx="234" cy="-24.9202" rx="18" ry="18"/>
<text text-anchor="middle" x="234" y="-21.8202" font-family="Lato" font-size="12.00">0</text>
</g>
<!-- 1&#45;&gt;0 -->
<g id="edge4" class="edge"><title>1&#45;&gt;0</title>
<path fill="none" stroke="black" d="M74.1961,-24.9202C105.69,-24.9202 172.7,-24.9202 208.786,-24.9202"/>
<polygon fill="black" stroke="black" points="215.993,-24.9202 208.993,-28.0703 212.493,-24.9202 208.993,-24.9203 208.993,-24.9203 208.993,-24.9203 212.493,-24.9202 208.993,-21.7703 215.993,-24.9202 215.993,-24.9202"/>
<text text-anchor="start" x="92" y="-28.3202" font-family="Lato" font-size="12.00">!green &amp; press &amp; red</text>
</g>
<!-- 0&#45;&gt;1 -->
<g id="edge3" class="edge"><title>0&#45;&gt;1</title>
<path fill="none" stroke="black" d="M218.22,-15.9035C212.178,-12.7157 204.978,-9.52526 198,-7.92018 152.088,2.64006 137.912,2.64006 92,-7.92018 87.4205,-8.97351 82.7454,-10.7096 78.365,-12.6797"/>
<polygon fill="black" stroke="black" points="71.7798,-15.9035 76.6818,-9.99641 74.9233,-14.3646 78.0668,-12.8256 78.0668,-12.8256 78.0668,-12.8256 74.9233,-14.3646 79.4519,-15.6547 71.7798,-15.9035 71.7798,-15.9035"/>
<text text-anchor="start" x="130" y="-11.3202" font-family="Lato" font-size="12.00">green</text>
</g>
<!-- 0&#45;&gt;0 -->
<g id="edge2" class="edge"><title>0&#45;&gt;0</title>
<path fill="none" stroke="black" d="M220.658,-37.0919C213.74,-48.5217 218.188,-60.9202 234,-60.9202 246.724,-60.9202 252.089,-52.8919 250.095,-43.8003"/>
<polygon fill="black" stroke="black" points="247.342,-37.0919 252.913,-42.372 248.671,-40.3299 249.999,-43.5679 249.999,-43.5679 249.999,-43.5679 248.671,-40.3299 247.085,-44.7638 247.342,-37.0919 247.342,-37.0919"/>
<text text-anchor="start" x="202" y="-64.3202" font-family="Lato" font-size="12.00">!green &amp; red</text>
</g>
</g>
</svg>
