<?xml version="1.0" encoding="UTF-8" standalone="no"?>
<?xml-stylesheet href="spot.css" type="text/css"?>
<!DOCTYPE svg PUBLIC "-//W3C//DTD SVG 1.1//EN"
 "http://www.w3.org/Graphics/SVG/1.1/DTD/svg11.dtd">
<!-- Generated by graphviz version 2.38.0 (20140413.2041)
 -->
<!-- Title: G Pages: 1 -->
<svg width="211pt" height="205pt"
 viewBox="0.00 0.00 210.60 205.00" xmlns="http://www.w3.org/2000/svg" xmlns:xlink="http://www.w3.org/1999/xlink">
<g id="graph0" class="graph" transform="scale(1 1) rotate(0) translate(4 201)">
<title>G</title>
<polygon fill="white" stroke="none" points="-4,4 -4,-201 206.6,-201 206.6,4 -4,4"/>
<text text-anchor="start" x="82.3" y="-184.4" font-family="Lato" font-size="12.00">Fin(</text>
<text text-anchor="start" x="102.3" y="-184.4" font-family="Lato" font-size="12.00" fill="#1f78b4">⓿</text>
<text text-anchor="start" x="116.3" y="-184.4" font-family="Lato" font-size="12.00">)</text>
<text text-anchor="start" x="73.8" y="-172.4" font-family="Lato" font-size="12.00">[co&#45;Büchi]</text>
<!-- I -->
<!-- &#45;1 -->
<g id="node2" class="node"><title>&#45;1</title>
<ellipse fill="#ffffa0" stroke="black" cx="39.8" cy="-88" rx="1.8" ry="1.8"/>
</g>
<!-- I&#45;&gt;&#45;1 -->
<g id="edge1" class="edge"><title>I&#45;&gt;&#45;1</title>
<path fill="none" stroke="black" d="M1.10844,-88C2.6468,-88 20.196,-88 30.7973,-88"/>
<polygon fill="none" stroke="black" points="30.9213,-90.4501 37.9213,-88 30.9212,-85.5501 30.9213,-90.4501"/>
</g>
<!-- 0 -->
<g id="node3" class="node"><title>0</title>
<ellipse fill="#ffffa0" stroke="black" cx="105.6" cy="-116" rx="18" ry="18"/>
<text text-anchor="middle" x="105.6" y="-112.9" font-family="Lato" font-size="12.00">0</text>
</g>
<!-- &#45;1&#45;&gt;0 -->
<g id="edge2" class="edge"><title>&#45;1&#45;&gt;0</title>
<path fill="none" stroke="black" d="M41.7394,-88.887C44.3603,-91.3179 52.0566,-98.1601 59.6,-102 66.2717,-105.396 73.923,-108.153 81.0012,-110.294"/>
<polygon fill="black" stroke="black" points="87.831,-112.23 80.2372,-113.351 84.4637,-111.276 81.0964,-110.321 81.0964,-110.321 81.0964,-110.321 84.4637,-111.276 81.9556,-107.29 87.831,-112.23 87.831,-112.23"/>
</g>
<!-- 1 -->
<g id="node4" class="node"><title>1</title>
<ellipse fill="#ffffa0" stroke="black" cx="105.6" cy="-18" rx="18" ry="18"/>
<text text-anchor="middle" x="105.6" y="-14.9" font-family="Lato" font-size="12.00">1</text>
</g>
<!-- &#45;1&#45;&gt;1 -->
<g id="edge3" class="edge"><title>&#45;1&#45;&gt;1</title>
<path fill="none" stroke="black" d="M41.5165,-87.2139C46.0077,-82.2862 70.6428,-55.2571 87.7636,-36.4725"/>
<polygon fill="black" stroke="black" points="92.8051,-30.9411 90.4179,-38.2366 90.4475,-33.5279 88.0898,-36.1147 88.0898,-36.1147 88.0898,-36.1147 90.4475,-33.5279 85.7617,-33.9927 92.8051,-30.9411 92.8051,-30.9411"/>
</g>
<!-- 0&#45;&gt;&#45;1 -->
<g id="edge5" class="edge"><title>0&#45;&gt;&#45;1</title>
<path fill="none" stroke="black" d="M93.4814,-102.297C87.2425,-95.7161 78.8596,-88.5111 69.6,-85 62.9371,-82.4735 54.8229,-83.6647 48.9074,-85.2311"/>
<polygon fill="none" stroke="black" points="47.8298,-83.0064 41.946,-87.5212 49.3611,-87.661 47.8298,-83.0064"/>
<text text-anchor="start" x="59.6" y="-88.4" font-family="Lato" font-size="12.00">!a</text>
</g>
<!-- 0&#45;&gt;0 -->
<g id="edge4" class="edge"><title>0&#45;&gt;0</title>
<path fill="none" stroke="black" d="M98.8664,-133.037C97.4922,-142.858 99.7367,-152 105.6,-152 109.997,-152 112.359,-146.858 112.686,-140.143"/>
<polygon fill="black" stroke="black" points="112.334,-133.037 115.826,-139.873 112.507,-136.533 112.68,-140.029 112.68,-140.029 112.68,-140.029 112.507,-136.533 109.534,-140.185 112.334,-133.037 112.334,-133.037"/>
<text text-anchor="start" x="102.1" y="-155.4" font-family="Lato" font-size="12.00">a</text>
</g>
<!-- 1&#45;&gt;1 -->
<g id="edge6" class="edge"><title>1&#45;&gt;1</title>
<path fill="none" stroke="black" d="M98.8664,-35.0373C97.4922,-44.8579 99.7367,-54 105.6,-54 109.997,-54 112.359,-48.8576 112.686,-42.1433"/>
<polygon fill="black" stroke="black" points="112.334,-35.0373 115.826,-41.8728 112.507,-38.533 112.68,-42.0287 112.68,-42.0287 112.68,-42.0287 112.507,-38.533 109.534,-42.1847 112.334,-35.0373 112.334,-35.0373"/>
<text text-anchor="start" x="100.6" y="-70.4" font-family="Lato" font-size="12.00">!a</text>
<text text-anchor="start" x="98.6" y="-57.4" font-family="Lato" font-size="12.00" fill="#1f78b4">⓿</text>
</g>
<!-- 2 -->
<g id="node5" class="node"><title>2</title>
<ellipse fill="#ffffa0" stroke="black" cx="184.6" cy="-18" rx="18" ry="18"/>
<text text-anchor="middle" x="184.6" y="-14.9" font-family="Lato" font-size="12.00">2</text>
</g>
<!-- 1&#45;&gt;2 -->
<g id="edge7" class="edge"><title>1&#45;&gt;2</title>
<path fill="none" stroke="black" d="M123.689,-18C134.156,-18 147.72,-18 159.293,-18"/>
<polygon fill="black" stroke="black" points="166.559,-18 159.559,-21.1501 163.059,-18 159.559,-18.0001 159.559,-18.0001 159.559,-18.0001 163.059,-18 159.559,-14.8501 166.559,-18 166.559,-18"/>
<text text-anchor="start" x="141.6" y="-21.4" font-family="Lato" font-size="12.00">a</text>
</g>
<!-- 2&#45;&gt;2 -->
<g id="edge8" class="edge"><title>2&#45;&gt;2</title>
<path fill="none" stroke="black" d="M177.866,-35.0373C176.492,-44.8579 178.737,-54 184.6,-54 188.997,-54 191.359,-48.8576 191.686,-42.1433"/>
<polygon fill="black" stroke="black" points="191.334,-35.0373 194.826,-41.8728 191.507,-38.533 191.68,-42.0287 191.68,-42.0287 191.68,-42.0287 191.507,-38.533 188.534,-42.1847 191.334,-35.0373 191.334,-35.0373"/>
<text text-anchor="middle" x="184.6" y="-57.4" font-family="Lato" font-size="12.00">1</text>
</g>
</g>
</svg>
