<?xml version="1.0" encoding="UTF-8" standalone="no"?>
<?xml-stylesheet href="spot.css" type="text/css"?>
<!DOCTYPE svg PUBLIC "-//W3C//DTD SVG 1.1//EN"
 "http://www.w3.org/Graphics/SVG/1.1/DTD/svg11.dtd">
<!-- Generated by graphviz version 2.38.0 (20140413.2041)
 -->
<!-- Title: G Pages: 1 -->
<svg width="589pt" height="259pt"
 viewBox="0.00 0.00 588.93 258.98" xmlns="http://www.w3.org/2000/svg" xmlns:xlink="http://www.w3.org/1999/xlink">
<g id="graph0" class="graph" transform="scale(1 1) rotate(0) translate(4 254.985)">
<title>G</title>
<polygon fill="white" stroke="none" points="-4,4 -4,-254.985 584.926,-254.985 584.926,4 -4,4"/>
<text text-anchor="start" x="142.963" y="-238.385" font-family="Lato" font-size="12.00">(Fin(</text>
<text text-anchor="start" x="165.963" y="-238.385" font-family="Lato" font-size="12.00" fill="#1f78b4">⓿</text>
<text text-anchor="start" x="179.963" y="-238.385" font-family="Lato" font-size="12.00">) &amp; Inf(</text>
<text text-anchor="start" x="214.963" y="-238.385" font-family="Lato" font-size="12.00" fill="#ff4da0">❶</text>
<text text-anchor="start" x="228.963" y="-238.385" font-family="Lato" font-size="12.00">)) | (Fin(</text>
<text text-anchor="start" x="266.963" y="-238.385" font-family="Lato" font-size="12.00" fill="#ff7f00">❷</text>
<text text-anchor="start" x="280.963" y="-238.385" font-family="Lato" font-size="12.00">) &amp; Inf(</text>
<text text-anchor="start" x="315.963" y="-238.385" font-family="Lato" font-size="12.00" fill="#6a3d9a">❸</text>
<text text-anchor="start" x="329.963" y="-238.385" font-family="Lato" font-size="12.00">)) | (Fin(</text>
<text text-anchor="start" x="367.963" y="-238.385" font-family="Lato" font-size="12.00" fill="#33a02c">❹</text>
<text text-anchor="start" x="381.963" y="-238.385" font-family="Lato" font-size="12.00">) &amp; Inf(</text>
<text text-anchor="start" x="416.963" y="-238.385" font-family="Lato" font-size="12.00" fill="#e31a1c">❺</text>
<text text-anchor="start" x="430.963" y="-238.385" font-family="Lato" font-size="12.00">))</text>
<text text-anchor="start" x="266.463" y="-226.385" font-family="Lato" font-size="12.00">[Rabin 3]</text>
<!-- I -->
<!-- 6 -->
<g id="node2" class="node"><title>6</title>
<ellipse fill="#ffffa0" stroke="black" cx="69.1127" cy="-85.8719" rx="31.2258" ry="31.2258"/>
<text text-anchor="start" x="65.6127" y="-89.2719" font-family="Lato" font-size="12.00">6</text>
<text text-anchor="start" x="55.1127" y="-77.2719" font-family="Lato" font-size="12.00" fill="#ff7f00">❷</text>
<text text-anchor="start" x="69.1127" y="-77.2719" font-family="Lato" font-size="12.00" fill="#33a02c">❹</text>
</g>
<!-- I&#45;&gt;6 -->
<g id="edge1" class="edge"><title>I&#45;&gt;6</title>
<path fill="none" stroke="black" d="M1.04864,-85.8719C1.96281,-85.8719 15.6247,-85.8719 30.3807,-85.8719"/>
<polygon fill="black" stroke="black" points="37.6614,-85.8719 30.6615,-89.022 34.1614,-85.8719 30.6614,-85.872 30.6614,-85.872 30.6614,-85.872 34.1614,-85.8719 30.6614,-82.722 37.6614,-85.8719 37.6614,-85.8719"/>
</g>
<!-- 5 -->
<g id="node8" class="node"><title>5</title>
<ellipse fill="#ffffa0" stroke="black" cx="184.338" cy="-85.8719" rx="31.2258" ry="31.2258"/>
<text text-anchor="start" x="180.838" y="-89.2719" font-family="Lato" font-size="12.00">5</text>
<text text-anchor="start" x="170.338" y="-77.2719" font-family="Lato" font-size="12.00" fill="#ff7f00">❷</text>
<text text-anchor="start" x="184.338" y="-77.2719" font-family="Lato" font-size="12.00" fill="#33a02c">❹</text>
</g>
<!-- 6&#45;&gt;5 -->
<g id="edge14" class="edge"><title>6&#45;&gt;5</title>
<path fill="none" stroke="black" d="M100.455,-85.8719C114.416,-85.8719 131.115,-85.8719 145.854,-85.8719"/>
<polygon fill="black" stroke="black" points="152.912,-85.8719 145.912,-89.022 149.412,-85.8719 145.912,-85.872 145.912,-85.872 145.912,-85.872 149.412,-85.8719 145.912,-82.722 152.912,-85.8719 152.912,-85.8719"/>
<text text-anchor="start" x="118.225" y="-89.2719" font-family="Lato" font-size="12.00">!p1</text>
</g>
<!-- 6&#45;&gt;5 -->
<g id="edge15" class="edge"><title>6&#45;&gt;5</title>
<path fill="none" stroke="black" d="M98.1798,-74.1648C104.653,-71.9703 111.589,-70.0098 118.225,-68.8719 128.233,-67.1559 138.95,-68.5641 148.741,-71.1731"/>
<polygon fill="black" stroke="black" points="155.683,-73.2577 148.073,-74.2615 152.331,-72.2511 148.979,-71.2446 148.979,-71.2446 148.979,-71.2446 152.331,-72.2511 149.885,-68.2277 155.683,-73.2577 155.683,-73.2577"/>
<text text-anchor="start" x="119.725" y="-72.2719" font-family="Lato" font-size="12.00">p1</text>
</g>
<!-- 0 -->
<g id="node3" class="node"><title>0</title>
<ellipse fill="#ffffa0" stroke="black" cx="414.789" cy="-187.872" rx="31.2258" ry="31.2258"/>
<text text-anchor="start" x="411.289" y="-191.272" font-family="Lato" font-size="12.00">0</text>
<text text-anchor="start" x="400.789" y="-179.272" font-family="Lato" font-size="12.00" fill="#ff7f00">❷</text>
<text text-anchor="start" x="414.789" y="-179.272" font-family="Lato" font-size="12.00" fill="#e31a1c">❺</text>
</g>
<!-- 2 -->
<g id="node4" class="node"><title>2</title>
<ellipse fill="#ffffa0" stroke="black" cx="299.563" cy="-141.872" rx="31.2258" ry="31.2258"/>
<text text-anchor="start" x="296.063" y="-145.272" font-family="Lato" font-size="12.00">2</text>
<text text-anchor="start" x="285.563" y="-133.272" font-family="Lato" font-size="12.00" fill="#6a3d9a">❸</text>
<text text-anchor="start" x="299.563" y="-133.272" font-family="Lato" font-size="12.00" fill="#33a02c">❹</text>
</g>
<!-- 0&#45;&gt;2 -->
<g id="edge2" class="edge"><title>0&#45;&gt;2</title>
<path fill="none" stroke="black" d="M388.201,-171.348C381.095,-167.216 373.248,-163.059 365.676,-159.872 356.63,-156.064 346.54,-152.823 337.055,-150.184"/>
<polygon fill="black" stroke="black" points="330.279,-148.369 337.856,-147.137 333.66,-149.275 337.041,-150.18 337.041,-150.18 337.041,-150.18 333.66,-149.275 336.226,-153.223 330.279,-148.369 330.279,-148.369"/>
<text text-anchor="start" x="348.676" y="-163.272" font-family="Lato" font-size="12.00">!p1</text>
</g>
<!-- 4 -->
<g id="node5" class="node"><title>4</title>
<ellipse fill="#ffffa0" stroke="black" cx="539.914" cy="-101.872" rx="41.0244" ry="41.0244"/>
<text text-anchor="start" x="536.414" y="-105.272" font-family="Lato" font-size="12.00">4</text>
<text text-anchor="start" x="518.914" y="-93.2719" font-family="Lato" font-size="12.00" fill="#ff4da0">❶</text>
<text text-anchor="start" x="532.914" y="-93.2719" font-family="Lato" font-size="12.00" fill="#ff7f00">❷</text>
<text text-anchor="start" x="546.914" y="-93.2719" font-family="Lato" font-size="12.00" fill="#33a02c">❹</text>
</g>
<!-- 0&#45;&gt;4 -->
<g id="edge3" class="edge"><title>0&#45;&gt;4</title>
<path fill="none" stroke="black" d="M440.705,-170.468C457.644,-158.637 480.403,-142.74 499.747,-129.229"/>
<polygon fill="black" stroke="black" points="505.63,-125.12 501.695,-131.711 502.761,-127.124 499.891,-129.128 499.891,-129.128 499.891,-129.128 502.761,-127.124 498.087,-126.546 505.63,-125.12 505.63,-125.12"/>
<text text-anchor="start" x="465.402" y="-155.272" font-family="Lato" font-size="12.00">p1</text>
</g>
<!-- 2&#45;&gt;0 -->
<g id="edge6" class="edge"><title>2&#45;&gt;0</title>
<path fill="none" stroke="black" d="M325.121,-160.008C332.417,-164.746 340.62,-169.472 348.676,-172.872 357.533,-176.61 367.48,-179.5 376.882,-181.699"/>
<polygon fill="black" stroke="black" points="383.939,-183.249 376.426,-184.824 380.52,-182.498 377.102,-181.747 377.102,-181.747 377.102,-181.747 380.52,-182.498 377.777,-178.671 383.939,-183.249 383.939,-183.249"/>
<text text-anchor="start" x="348.676" y="-181.272" font-family="Lato" font-size="12.00">!p1</text>
</g>
<!-- 2&#45;&gt;4 -->
<g id="edge7" class="edge"><title>2&#45;&gt;4</title>
<path fill="none" stroke="black" d="M330.751,-136.806C371.381,-129.987 444.072,-117.788 491.898,-109.762"/>
<polygon fill="black" stroke="black" points="499.059,-108.56 492.677,-112.825 495.607,-109.14 492.156,-109.719 492.156,-109.719 492.156,-109.719 495.607,-109.14 491.634,-106.612 499.059,-108.56 499.059,-108.56"/>
<text text-anchor="start" x="407.789" y="-130.272" font-family="Lato" font-size="12.00">p1</text>
</g>
<!-- 4&#45;&gt;4 -->
<g id="edge10" class="edge"><title>4&#45;&gt;4</title>
<path fill="none" stroke="black" d="M533.8,-142.691C534.202,-153.083 536.24,-160.884 539.914,-160.884 542.669,-160.884 544.504,-156.496 545.419,-149.917"/>
<polygon fill="black" stroke="black" points="546.027,-142.691 548.579,-149.93 545.734,-146.178 545.44,-149.666 545.44,-149.666 545.44,-149.666 545.734,-146.178 542.301,-149.402 546.027,-142.691 546.027,-142.691"/>
<text text-anchor="start" x="531.414" y="-164.284" font-family="Lato" font-size="12.00">!p1</text>
</g>
<!-- 4&#45;&gt;4 -->
<g id="edge11" class="edge"><title>4&#45;&gt;4</title>
<path fill="none" stroke="black" d="M527.938,-141.101C526.19,-161.022 530.181,-178.884 539.914,-178.884 548.43,-178.884 552.55,-165.208 552.276,-148.444"/>
<polygon fill="black" stroke="black" points="551.889,-141.101 555.403,-147.925 552.073,-144.596 552.257,-148.091 552.257,-148.091 552.257,-148.091 552.073,-144.596 549.112,-148.257 551.889,-141.101 551.889,-141.101"/>
<text text-anchor="start" x="532.914" y="-182.284" font-family="Lato" font-size="12.00">p1</text>
</g>
<!-- 1 -->
<g id="node6" class="node"><title>1</title>
<ellipse fill="#ffffa0" stroke="black" cx="414.789" cy="-58.8719" rx="31.2258" ry="31.2258"/>
<text text-anchor="start" x="411.289" y="-62.2719" font-family="Lato" font-size="12.00">1</text>
<text text-anchor="start" x="400.789" y="-50.2719" font-family="Lato" font-size="12.00" fill="#ff7f00">❷</text>
<text text-anchor="start" x="414.789" y="-50.2719" font-family="Lato" font-size="12.00" fill="#e31a1c">❺</text>
</g>
<!-- 1&#45;&gt;4 -->
<g id="edge4" class="edge"><title>1&#45;&gt;4</title>
<path fill="none" stroke="black" d="M444.346,-68.845C459.015,-73.9682 477.235,-80.3313 493.755,-86.1006"/>
<polygon fill="black" stroke="black" points="500.715,-88.5315 493.068,-89.1973 497.411,-87.3775 494.107,-86.2235 494.107,-86.2235 494.107,-86.2235 497.411,-87.3775 495.145,-83.2496 500.715,-88.5315 500.715,-88.5315"/>
<text text-anchor="start" x="463.902" y="-83.2719" font-family="Lato" font-size="12.00">!p1</text>
</g>
<!-- 3 -->
<g id="node7" class="node"><title>3</title>
<ellipse fill="#ffffa0" stroke="black" cx="299.563" cy="-52.8719" rx="31.2258" ry="31.2258"/>
<text text-anchor="start" x="296.063" y="-56.2719" font-family="Lato" font-size="12.00">3</text>
<text text-anchor="start" x="285.563" y="-44.2719" font-family="Lato" font-size="12.00" fill="#6a3d9a">❸</text>
<text text-anchor="start" x="299.563" y="-44.2719" font-family="Lato" font-size="12.00" fill="#33a02c">❹</text>
</g>
<!-- 1&#45;&gt;3 -->
<g id="edge5" class="edge"><title>1&#45;&gt;3</title>
<path fill="none" stroke="black" d="M386.644,-45.4159C379.949,-42.7104 372.684,-40.2704 365.676,-38.8719 355.913,-36.9235 345.352,-37.8694 335.633,-39.9831"/>
<polygon fill="black" stroke="black" points="328.73,-41.7039 334.76,-36.9544 332.126,-40.8574 335.522,-40.0109 335.522,-40.0109 335.522,-40.0109 332.126,-40.8574 336.284,-43.0674 328.73,-41.7039 328.73,-41.7039"/>
<text text-anchor="start" x="350.176" y="-42.2719" font-family="Lato" font-size="12.00">p1</text>
</g>
<!-- 3&#45;&gt;4 -->
<g id="edge8" class="edge"><title>3&#45;&gt;4</title>
<path fill="none" stroke="black" d="M324.953,-34.3962C354.216,-14.6303 404.511,11.6572 445.902,-5.87187 472.857,-17.2874 495.831,-40.761 512.202,-61.6382"/>
<polygon fill="black" stroke="black" points="516.643,-67.4456 509.888,-63.7982 514.517,-64.6653 512.391,-61.8849 512.391,-61.8849 512.391,-61.8849 514.517,-64.6653 514.893,-59.9715 516.643,-67.4456 516.643,-67.4456"/>
<text text-anchor="start" x="406.289" y="-9.27187" font-family="Lato" font-size="12.00">!p1</text>
</g>
<!-- 3&#45;&gt;1 -->
<g id="edge9" class="edge"><title>3&#45;&gt;1</title>
<path fill="none" stroke="black" d="M330.906,-54.4798C344.867,-55.2196 361.566,-56.1045 376.305,-56.8855"/>
<polygon fill="black" stroke="black" points="383.363,-57.2595 376.206,-60.0346 379.868,-57.0743 376.373,-56.889 376.373,-56.889 376.373,-56.889 379.868,-57.0743 376.539,-53.7434 383.363,-57.2595 383.363,-57.2595"/>
<text text-anchor="start" x="350.176" y="-60.2719" font-family="Lato" font-size="12.00">p1</text>
</g>
<!-- 5&#45;&gt;2 -->
<g id="edge12" class="edge"><title>5&#45;&gt;2</title>
<path fill="none" stroke="black" d="M212.458,-99.2853C228.168,-107.055 248.082,-116.904 264.8,-125.173"/>
<polygon fill="black" stroke="black" points="271.272,-128.374 263.601,-128.094 268.135,-126.822 264.998,-125.27 264.998,-125.27 264.998,-125.27 268.135,-126.822 266.394,-122.447 271.272,-128.374 271.272,-128.374"/>
<text text-anchor="start" x="233.451" y="-120.272" font-family="Lato" font-size="12.00">!p1</text>
</g>
<!-- 5&#45;&gt;3 -->
<g id="edge13" class="edge"><title>5&#45;&gt;3</title>
<path fill="none" stroke="black" d="M214.496,-77.3735C229.156,-73.1009 247.057,-67.8837 262.566,-63.3634"/>
<polygon fill="black" stroke="black" points="269.504,-61.3414 263.665,-66.3243 266.144,-62.3208 262.784,-63.3001 262.784,-63.3001 262.784,-63.3001 266.144,-62.3208 261.902,-60.276 269.504,-61.3414 269.504,-61.3414"/>
<text text-anchor="start" x="234.951" y="-74.2719" font-family="Lato" font-size="12.00">p1</text>
</g>
</g>
</svg>
