<?xml version="1.0" encoding="UTF-8" standalone="no"?>
<?xml-stylesheet href="spot.css" type="text/css"?>
<!DOCTYPE svg PUBLIC "-//W3C//DTD SVG 1.1//EN"
 "http://www.w3.org/Graphics/SVG/1.1/DTD/svg11.dtd">
<!-- Generated by graphviz version 2.38.0 (20140413.2041)
 -->
<!-- Title: G Pages: 1 -->
<svg width="168pt" height="98pt"
 viewBox="0.00 0.00 168.00 98.41" xmlns="http://www.w3.org/2000/svg" xmlns:xlink="http://www.w3.org/1999/xlink">
<g id="graph0" class="graph" transform="scale(1 1) rotate(0) translate(4 94.4127)">
<title>G</title>
<polygon fill="white" stroke="none" points="-4,4 -4,-94.4127 164,-94.4127 164,4 -4,4"/>
<!-- I -->
<!-- 0 -->
<g id="node2" class="node"><title>0</title>
<ellipse fill="#ffffa0" stroke="black" cx="56" cy="-28.4127" rx="18" ry="18"/>
<text text-anchor="middle" x="56" y="-25.3127" font-family="Lato" font-size="12.00">0</text>
</g>
<!-- I&#45;&gt;0 -->
<g id="edge1" class="edge"><title>I&#45;&gt;0</title>
<path fill="none" stroke="black" d="M1.15491,-28.4127C2.79388,-28.4127 17.1543,-28.4127 30.6317,-28.4127"/>
<polygon fill="black" stroke="black" points="37.9419,-28.4127 30.9419,-31.5628 34.4419,-28.4128 30.9419,-28.4128 30.9419,-28.4128 30.9419,-28.4128 34.4419,-28.4128 30.9418,-25.2628 37.9419,-28.4127 37.9419,-28.4127"/>
</g>
<!-- 0&#45;&gt;0 -->
<g id="edge2" class="edge"><title>0&#45;&gt;0</title>
<path fill="none" stroke="black" d="M49.6208,-45.45C48.3189,-55.2706 50.4453,-64.4127 56,-64.4127 60.166,-64.4127 62.4036,-59.2703 62.7128,-52.556"/>
<polygon fill="black" stroke="black" points="62.3792,-45.45 65.8541,-52.2946 62.5434,-48.9462 62.7076,-52.4423 62.7076,-52.4423 62.7076,-52.4423 62.5434,-48.9462 59.561,-52.5901 62.3792,-45.45 62.3792,-45.45"/>
<text text-anchor="start" x="52.5" y="-80.8127" font-family="Lato" font-size="12.00">a</text>
<text text-anchor="start" x="49" y="-67.8127" font-family="Lato" font-size="12.00" fill="#1f78b4">⓿</text>
</g>
<!-- 1 -->
<g id="node3" class="node"><title>1</title>
<ellipse fill="#ffffa0" stroke="black" cx="142" cy="-28.4127" rx="18" ry="18"/>
<text text-anchor="middle" x="142" y="-25.3127" font-family="Lato" font-size="12.00">1</text>
</g>
<!-- 0&#45;&gt;1 -->
<g id="edge3" class="edge"><title>0&#45;&gt;1</title>
<path fill="none" stroke="black" d="M74.2264,-30.3433C83.615,-31.1747 95.4413,-31.8644 106,-31.4127 109.473,-31.2642 113.135,-31.033 116.729,-30.7634"/>
<polygon fill="black" stroke="black" points="123.929,-30.1703 117.211,-33.8845 120.441,-30.4577 116.953,-30.7451 116.953,-30.7451 116.953,-30.7451 120.441,-30.4577 116.694,-27.6057 123.929,-30.1703 123.929,-30.1703"/>
<text text-anchor="start" x="94" y="-47.8127" font-family="Lato" font-size="12.00">!a</text>
<text text-anchor="start" x="92" y="-34.8127" font-family="Lato" font-size="12.00" fill="#1f78b4">⓿</text>
</g>
<!-- 1&#45;&gt;0 -->
<g id="edge4" class="edge"><title>1&#45;&gt;0</title>
<path fill="none" stroke="black" d="M129.068,-15.2072C119.472,-6.26251 105.422,3.16285 92,-1.41273 85.8393,-3.51285 79.9192,-7.18492 74.7563,-11.1569"/>
<polygon fill="black" stroke="black" points="69.0744,-15.8811 72.443,-8.98363 71.7657,-13.6435 74.4569,-11.4058 74.4569,-11.4058 74.4569,-11.4058 71.7657,-13.6435 76.4708,-13.8279 69.0744,-15.8811 69.0744,-15.8811"/>
<text text-anchor="start" x="95.5" y="-17.8127" font-family="Lato" font-size="12.00">a</text>
<text text-anchor="start" x="92" y="-4.81273" font-family="Lato" font-size="12.00" fill="#1f78b4">⓿</text>
</g>
<!-- 1&#45;&gt;1 -->
<g id="edge5" class="edge"><title>1&#45;&gt;1</title>
<path fill="none" stroke="black" d="M134.617,-45.0768C132.977,-55.0377 135.438,-64.4127 142,-64.4127 146.922,-64.4127 149.537,-59.1393 149.844,-52.3003"/>
<polygon fill="black" stroke="black" points="149.383,-45.0768 152.973,-51.8617 149.606,-48.5697 149.829,-52.0626 149.829,-52.0626 149.829,-52.0626 149.606,-48.5697 146.686,-52.2634 149.383,-45.0768 149.383,-45.0768"/>
<text text-anchor="start" x="137" y="-67.8127" font-family="Lato" font-size="12.00">!a</text>
</g>
</g>
</svg>
