<?xml version="1.0" encoding="UTF-8" standalone="no"?>
<?xml-stylesheet href="spot.css" type="text/css"?>
<!DOCTYPE svg PUBLIC "-//W3C//DTD SVG 1.1//EN"
 "http://www.w3.org/Graphics/SVG/1.1/DTD/svg11.dtd">
<!-- Generated by graphviz version 2.38.0 (20140413.2041)
 -->
<!-- Title: G Pages: 1 -->
<svg width="347pt" height="160pt"
 viewBox="0.00 0.00 347.00 160.00" xmlns="http://www.w3.org/2000/svg" xmlns:xlink="http://www.w3.org/1999/xlink">
<g id="graph0" class="graph" transform="scale(1 1) rotate(0) translate(4 156)">
<title>G</title>
<polygon fill="white" stroke="none" points="-4,4 -4,-156 343,-156 343,4 -4,4"/>
<!-- I -->
<!-- 1 -->
<g id="node2" class="node"><title>1</title>
<ellipse fill="#ffffa0" stroke="black" cx="56" cy="-66" rx="18" ry="18"/>
<text text-anchor="middle" x="56" y="-62.9" font-family="Lato" font-size="12.00">1</text>
</g>
<!-- I&#45;&gt;1 -->
<g id="edge1" class="edge"><title>I&#45;&gt;1</title>
<path fill="none" stroke="black" d="M1.15491,-66C2.79388,-66 17.1543,-66 30.6317,-66"/>
<polygon fill="black" stroke="black" points="37.9419,-66 30.9419,-69.1501 34.4419,-66 30.9419,-66.0001 30.9419,-66.0001 30.9419,-66.0001 34.4419,-66 30.9418,-62.8501 37.9419,-66 37.9419,-66"/>
</g>
<!-- 2 -->
<g id="node4" class="node"><title>2</title>
<ellipse fill="#ffffa0" stroke="black" cx="135" cy="-66" rx="18" ry="18"/>
<text text-anchor="middle" x="135" y="-62.9" font-family="Lato" font-size="12.00">2</text>
</g>
<!-- 1&#45;&gt;2 -->
<g id="edge3" class="edge"><title>1&#45;&gt;2</title>
<path fill="none" stroke="black" d="M74.0888,-66C84.5562,-66 98.1196,-66 109.693,-66"/>
<polygon fill="black" stroke="black" points="116.959,-66 109.959,-69.1501 113.459,-66 109.959,-66.0001 109.959,-66.0001 109.959,-66.0001 113.459,-66 109.959,-62.8501 116.959,-66 116.959,-66"/>
<text text-anchor="middle" x="95.5" y="-69.4" font-family="Lato" font-size="12.00">1</text>
</g>
<!-- 0 -->
<g id="node3" class="node"><title>0</title>
<ellipse fill="#ffffa0" stroke="black" cx="317" cy="-66" rx="18" ry="18"/>
<ellipse fill="none" stroke="black" cx="317" cy="-66" rx="22" ry="22"/>
<text text-anchor="middle" x="317" y="-62.9" font-family="Lato" font-size="12.00">0</text>
</g>
<!-- 0&#45;&gt;0 -->
<g id="edge2" class="edge"><title>0&#45;&gt;0</title>
<path fill="none" stroke="black" d="M308.266,-86.5808C307.057,-96.8447 309.969,-106 317,-106 322.273,-106 325.229,-100.85 325.868,-93.9451"/>
<polygon fill="black" stroke="black" points="325.734,-86.5808 329.011,-93.5223 325.798,-90.0802 325.861,-93.5797 325.861,-93.5797 325.861,-93.5797 325.798,-90.0802 322.712,-93.637 325.734,-86.5808 325.734,-86.5808"/>
<text text-anchor="middle" x="317" y="-109.4" font-family="Lato" font-size="12.00">1</text>
</g>
<!-- 3 -->
<g id="node5" class="node"><title>3</title>
<ellipse fill="#ffffa0" stroke="black" cx="224" cy="-103" rx="18" ry="18"/>
<text text-anchor="middle" x="224" y="-99.9" font-family="Lato" font-size="12.00">3</text>
</g>
<!-- 2&#45;&gt;3 -->
<g id="edge4" class="edge"><title>2&#45;&gt;3</title>
<path fill="none" stroke="black" d="M151.957,-72.7864C165.57,-78.5757 185.296,-86.9649 200.51,-93.4351"/>
<polygon fill="black" stroke="black" points="207.144,-96.2567 199.47,-96.4158 203.923,-94.8868 200.702,-93.517 200.702,-93.517 200.702,-93.517 203.923,-94.8868 201.935,-90.6183 207.144,-96.2567 207.144,-96.2567"/>
<text text-anchor="start" x="171" y="-90.4" font-family="Lato" font-size="12.00">!p1</text>
</g>
<!-- 4 -->
<g id="node6" class="node"><title>4</title>
<ellipse fill="#ffffa0" stroke="black" cx="224" cy="-18" rx="18" ry="18"/>
<text text-anchor="middle" x="224" y="-14.9" font-family="Lato" font-size="12.00">4</text>
</g>
<!-- 2&#45;&gt;4 -->
<g id="edge5" class="edge"><title>2&#45;&gt;4</title>
<path fill="none" stroke="black" d="M151.154,-57.639C165.041,-49.9772 185.755,-38.549 201.378,-29.9293"/>
<polygon fill="black" stroke="black" points="207.728,-26.4262 203.12,-32.5659 204.663,-28.117 201.598,-29.8078 201.598,-29.8078 201.598,-29.8078 204.663,-28.117 200.077,-27.0497 207.728,-26.4262 207.728,-26.4262"/>
<text text-anchor="start" x="172.5" y="-49.4" font-family="Lato" font-size="12.00">p1</text>
</g>
<!-- 3&#45;&gt;0 -->
<g id="edge6" class="edge"><title>3&#45;&gt;0</title>
<path fill="none" stroke="black" d="M240.851,-96.5551C254.307,-91.0839 273.891,-83.1212 289.693,-76.6961"/>
<polygon fill="black" stroke="black" points="296.205,-74.0484 290.907,-79.603 292.963,-75.3667 289.721,-76.685 289.721,-76.685 289.721,-76.685 292.963,-75.3667 288.534,-73.767 296.205,-74.0484 296.205,-74.0484"/>
<text text-anchor="start" x="261.5" y="-90.4" font-family="Lato" font-size="12.00">p1</text>
</g>
<!-- 3&#45;&gt;3 -->
<g id="edge7" class="edge"><title>3&#45;&gt;3</title>
<path fill="none" stroke="black" d="M216.332,-119.29C214.483,-129.389 217.039,-139 224,-139 229.221,-139 231.964,-133.594 232.229,-126.63"/>
<polygon fill="black" stroke="black" points="231.668,-119.29 235.342,-126.03 231.935,-122.78 232.201,-126.27 232.201,-126.27 232.201,-126.27 231.935,-122.78 229.06,-126.51 231.668,-119.29 231.668,-119.29"/>
<text text-anchor="start" x="215.5" y="-142.4" font-family="Lato" font-size="12.00">!p1</text>
</g>
<!-- 4&#45;&gt;0 -->
<g id="edge8" class="edge"><title>4&#45;&gt;0</title>
<path fill="none" stroke="black" d="M240.437,-26.1425C254.103,-33.3509 274.318,-44.0138 290.401,-52.4973"/>
<polygon fill="black" stroke="black" points="297.01,-55.9833 289.349,-55.5036 293.914,-54.3503 290.818,-52.7174 290.818,-52.7174 290.818,-52.7174 293.914,-54.3503 292.288,-49.9312 297.01,-55.9833 297.01,-55.9833"/>
<text text-anchor="start" x="260" y="-47.4" font-family="Lato" font-size="12.00">!p1</text>
</g>
<!-- 4&#45;&gt;4 -->
<g id="edge9" class="edge"><title>4&#45;&gt;4</title>
<path fill="none" stroke="black" d="M216.332,-34.2903C214.483,-44.3892 217.039,-54 224,-54 229.221,-54 231.964,-48.5939 232.229,-41.6304"/>
<polygon fill="black" stroke="black" points="231.668,-34.2903 235.342,-41.0299 231.935,-37.7801 232.201,-41.2699 232.201,-41.2699 232.201,-41.2699 231.935,-37.7801 229.06,-41.5099 231.668,-34.2903 231.668,-34.2903"/>
<text text-anchor="start" x="217" y="-57.4" font-family="Lato" font-size="12.00">p1</text>
</g>
</g>
</svg>
