<?xml version="1.0" encoding="UTF-8" standalone="no"?>
<?xml-stylesheet href="spot.css" type="text/css"?>
<!DOCTYPE svg PUBLIC "-//W3C//DTD SVG 1.1//EN"
 "http://www.w3.org/Graphics/SVG/1.1/DTD/svg11.dtd">
<!-- Generated by graphviz version 2.38.0 (20140413.2041)
 -->
<!-- Title: G Pages: 1 -->
<svg width="284pt" height="120pt"
 viewBox="0.00 0.00 283.60 120.00" xmlns="http://www.w3.org/2000/svg" xmlns:xlink="http://www.w3.org/1999/xlink">
<g id="graph0" class="graph" transform="scale(1 1) rotate(0) translate(4 116)">
<title>G</title>
<polygon fill="white" stroke="none" points="-4,4 -4,-116 279.6,-116 279.6,4 -4,4"/>
<text text-anchor="start" x="118.8" y="-99.4" font-family="Lato" font-size="12.00">Fin(</text>
<text text-anchor="start" x="138.8" y="-99.4" font-family="Lato" font-size="12.00" fill="#1f78b4">⓿</text>
<text text-anchor="start" x="152.8" y="-99.4" font-family="Lato" font-size="12.00">)</text>
<text text-anchor="start" x="110.3" y="-87.4" font-family="Lato" font-size="12.00">[co&#45;Büchi]</text>
<!-- I -->
<!-- 0 -->
<g id="node2" class="node"><title>0</title>
<ellipse fill="#ffffa0" stroke="black" cx="56" cy="-18" rx="18" ry="18"/>
<text text-anchor="middle" x="56" y="-14.9" font-family="Lato" font-size="12.00">0</text>
</g>
<!-- I&#45;&gt;0 -->
<g id="edge1" class="edge"><title>I&#45;&gt;0</title>
<path fill="none" stroke="black" d="M1.15491,-18C2.79388,-18 17.1543,-18 30.6317,-18"/>
<polygon fill="black" stroke="black" points="37.9419,-18 30.9419,-21.1501 34.4419,-18 30.9419,-18.0001 30.9419,-18.0001 30.9419,-18.0001 34.4419,-18 30.9418,-14.8501 37.9419,-18 37.9419,-18"/>
</g>
<!-- 0&#45;&gt;0 -->
<g id="edge2" class="edge"><title>0&#45;&gt;0</title>
<path fill="none" stroke="black" d="M49.6208,-35.0373C48.3189,-44.8579 50.4453,-54 56,-54 60.166,-54 62.4036,-48.8576 62.7128,-42.1433"/>
<polygon fill="black" stroke="black" points="62.3792,-35.0373 65.8541,-41.8818 62.5434,-38.5335 62.7076,-42.0296 62.7076,-42.0296 62.7076,-42.0296 62.5434,-38.5335 59.561,-42.1774 62.3792,-35.0373 62.3792,-35.0373"/>
<text text-anchor="start" x="52.5" y="-57.4" font-family="Lato" font-size="12.00">a</text>
</g>
<!-- &#45;1 -->
<g id="node3" class="node"><title>&#45;1</title>
<ellipse fill="#ffffa0" stroke="black" cx="121.8" cy="-18" rx="1.8" ry="1.8"/>
</g>
<!-- 0&#45;&gt;&#45;1 -->
<g id="edge3" class="edge"><title>0&#45;&gt;&#45;1</title>
<path fill="none" stroke="black" d="M74.0972,-18C86.4993,-18 102.737,-18 112.435,-18"/>
<polygon fill="none" stroke="black" points="112.568,-20.4501 119.568,-18 112.568,-15.5501 112.568,-20.4501"/>
<text text-anchor="start" x="92" y="-21.4" font-family="Lato" font-size="12.00">!a</text>
</g>
<!-- &#45;1&#45;&gt;0 -->
<g id="edge4" class="edge"><title>&#45;1&#45;&gt;0</title>
<path fill="none" stroke="black" d="M119.784,-17.8536C116.968,-17.4559 108.818,-16.3616 102,-16 95.2328,-15.6411 87.8908,-15.7543 81.1385,-16.0612"/>
<polygon fill="black" stroke="black" points="74.0981,-16.457 80.9102,-12.9189 77.5926,-16.2605 81.0871,-16.0639 81.0871,-16.0639 81.0871,-16.0639 77.5926,-16.2605 81.2639,-19.209 74.0981,-16.457 74.0981,-16.457"/>
</g>
<!-- 1 -->
<g id="node4" class="node"><title>1</title>
<ellipse fill="#ffffa0" stroke="black" cx="178.6" cy="-18" rx="18" ry="18"/>
<text text-anchor="middle" x="178.6" y="-14.9" font-family="Lato" font-size="12.00">1</text>
</g>
<!-- &#45;1&#45;&gt;1 -->
<g id="edge5" class="edge"><title>&#45;1&#45;&gt;1</title>
<path fill="none" stroke="black" d="M123.751,-18C127.387,-18 140.83,-18 153.375,-18"/>
<polygon fill="black" stroke="black" points="160.575,-18 153.575,-21.1501 157.075,-18 153.575,-18.0001 153.575,-18.0001 153.575,-18.0001 157.075,-18 153.575,-14.8501 160.575,-18 160.575,-18"/>
</g>
<!-- 1&#45;&gt;1 -->
<g id="edge6" class="edge"><title>1&#45;&gt;1</title>
<path fill="none" stroke="black" d="M172.221,-35.0373C170.919,-44.8579 173.045,-54 178.6,-54 182.766,-54 185.004,-48.8576 185.313,-42.1433"/>
<polygon fill="black" stroke="black" points="184.979,-35.0373 188.454,-41.8818 185.143,-38.5335 185.308,-42.0296 185.308,-42.0296 185.308,-42.0296 185.143,-38.5335 182.161,-42.1774 184.979,-35.0373 184.979,-35.0373"/>
<text text-anchor="start" x="173.6" y="-70.4" font-family="Lato" font-size="12.00">!a</text>
<text text-anchor="start" x="171.6" y="-57.4" font-family="Lato" font-size="12.00" fill="#1f78b4">⓿</text>
</g>
<!-- 2 -->
<g id="node5" class="node"><title>2</title>
<ellipse fill="#ffffa0" stroke="black" cx="257.6" cy="-18" rx="18" ry="18"/>
<text text-anchor="middle" x="257.6" y="-14.9" font-family="Lato" font-size="12.00">2</text>
</g>
<!-- 1&#45;&gt;2 -->
<g id="edge7" class="edge"><title>1&#45;&gt;2</title>
<path fill="none" stroke="black" d="M196.689,-18C207.156,-18 220.72,-18 232.293,-18"/>
<polygon fill="black" stroke="black" points="239.559,-18 232.559,-21.1501 236.059,-18 232.559,-18.0001 232.559,-18.0001 232.559,-18.0001 236.059,-18 232.559,-14.8501 239.559,-18 239.559,-18"/>
<text text-anchor="start" x="214.6" y="-21.4" font-family="Lato" font-size="12.00">a</text>
</g>
<!-- 2&#45;&gt;2 -->
<g id="edge8" class="edge"><title>2&#45;&gt;2</title>
<path fill="none" stroke="black" d="M250.866,-35.0373C249.492,-44.8579 251.737,-54 257.6,-54 261.997,-54 264.359,-48.8576 264.686,-42.1433"/>
<polygon fill="black" stroke="black" points="264.334,-35.0373 267.826,-41.8728 264.507,-38.533 264.68,-42.0287 264.68,-42.0287 264.68,-42.0287 264.507,-38.533 261.534,-42.1847 264.334,-35.0373 264.334,-35.0373"/>
<text text-anchor="middle" x="257.6" y="-57.4" font-family="Lato" font-size="12.00">1</text>
</g>
</g>
</svg>
